<svg width="12" height="12" viewBox="0 0 12 12" fill="none" xmlns="http://www.w3.org/2000/svg">
<path d="M1.27609 12C0.919482 12 0.617647 11.8765 0.370588 11.6294C0.123529 11.3824 0 11.0805 0 10.7239V1.27609C0 0.919483 0.123529 0.617647 0.370588 0.370588C0.617647 0.123529 0.919482 0 1.27609 0H4.72852V1.05882H1.27609C1.22179 1.05882 1.172 1.08146 1.12673 1.12673C1.08146 1.172 1.05882 1.22179 1.05882 1.27609V10.7239C1.05882 10.7782 1.08146 10.828 1.12673 10.8733C1.172 10.9185 1.22179 10.9412 1.27609 10.9412H10.7239C10.7782 10.9412 10.828 10.9185 10.8733 10.8733C10.9185 10.828 10.9412 10.7782 10.9412 10.7239V7.27148H12V10.7239C12 11.0805 11.8765 11.3824 11.6294 11.6294C11.3824 11.8765 11.0805 12 10.7239 12H1.27609ZM4.39002 8.35384L3.64616 7.60998L10.1973 1.05882H7.41176V0H12V4.58824H10.9412V1.80268L4.39002 8.35384Z" fill="#046FD9"/>
</svg>
