<svg width="114" height="72" viewBox="0 0 114 72" fill="none" xmlns="http://www.w3.org/2000/svg">
<g clip-path="url(#clip0_6542_20547)">
<mask id="mask0_6542_20547" style="mask-type:luminance" maskUnits="userSpaceOnUse" x="0" y="0" width="114" height="72">
<path d="M114 68C114 70.21 112.22 72 110.025 72H3.975C1.78 72 0 70.21 0 68V4C0 1.79 1.78 0 3.975 0H110.02C112.215 0 113.995 1.79 113.995 4V68H114Z" fill="white"/>
</mask>
<g mask="url(#mask0_6542_20547)">
<path d="M114 68C114 70.21 112.22 72 110.025 72H3.975C1.78 72 0 70.21 0 68V4C0 1.79 1.78 0 3.975 0H110.02C112.215 0 113.995 1.79 113.995 4V68H114Z" fill="url(#paint0_linear_6542_20547)"/>
<path d="M12.7898 30.2246C12.9048 30.2246 12.9998 30.2546 13.0848 30.3096C13.1698 30.3646 13.2098 30.4546 13.2098 30.5796V31.2896H14.6498C14.7498 31.2896 14.8248 31.3246 14.8748 31.3996C14.9248 31.4746 14.9448 31.5596 14.9448 31.6546C14.9448 31.7496 14.9198 31.8346 14.8748 31.9096C14.8248 31.9846 14.7498 32.0196 14.6498 32.0196H13.2098V32.5596C13.2098 32.7396 13.2198 32.8996 13.2398 33.0346C13.2598 33.1696 13.2948 33.2946 13.3398 33.4146C13.3898 33.5346 13.4548 33.6496 13.5348 33.7596C13.6148 33.8696 13.7248 33.9896 13.8548 34.1146C14.0348 34.2946 14.2098 34.4646 14.3798 34.6246C14.5498 34.7846 14.7048 34.9246 14.8548 35.0496C14.9348 35.1246 14.9648 35.2146 14.9498 35.3146C14.9348 35.4196 14.8948 35.5046 14.8248 35.5746C14.7548 35.6446 14.6748 35.6846 14.5798 35.6996C14.4848 35.7146 14.3948 35.6896 14.3198 35.6146C14.1948 35.5096 14.0598 35.3796 13.9148 35.2396C13.7698 35.0946 13.6048 34.9396 13.4298 34.7696C13.3098 34.6496 13.2148 34.5496 13.1348 34.4596C13.0548 34.3746 12.9898 34.2996 12.9448 34.2346C12.8948 34.1746 12.8598 34.1196 12.8398 34.0746C12.8198 34.0296 12.8048 33.9846 12.7998 33.9396H12.7898C12.7798 33.9896 12.7648 34.0396 12.7448 34.0896C12.7248 34.1396 12.6898 34.1946 12.6448 34.2596C12.5998 34.3246 12.5348 34.3996 12.4598 34.4896C12.3848 34.5796 12.2848 34.6796 12.1598 34.7996C11.9848 34.9646 11.8198 35.1246 11.6598 35.2796C11.4998 35.4346 11.3348 35.5896 11.1498 35.7396C11.0598 35.8146 10.9648 35.8346 10.8598 35.8096C10.7548 35.7846 10.6748 35.7346 10.6148 35.6596C10.5448 35.5796 10.5098 35.4896 10.5098 35.3946C10.5098 35.2946 10.5498 35.2096 10.6348 35.1346C10.8348 34.9696 11.0198 34.8046 11.1948 34.6396C11.3698 34.4746 11.5498 34.2996 11.7298 34.1196C11.8548 33.9946 11.9598 33.8746 12.0448 33.7646C12.1298 33.6546 12.1948 33.5346 12.2448 33.4196C12.2948 33.2996 12.3248 33.1746 12.3448 33.0396C12.3648 32.9046 12.3748 32.7446 12.3748 32.5646V32.0246H10.8848C10.7848 32.0246 10.7098 31.9896 10.6598 31.9146C10.6098 31.8396 10.5898 31.7546 10.5898 31.6596C10.5898 31.5646 10.6148 31.4796 10.6598 31.4046C10.7098 31.3296 10.7848 31.2946 10.8848 31.2946H12.3748V30.5846C12.3748 30.4596 12.4198 30.3696 12.5048 30.3146C12.5898 30.2596 12.6898 30.2296 12.7948 30.2296L12.7898 30.2246ZM16.2198 30.2496C16.3348 30.2496 16.4348 30.2796 16.5198 30.3346C16.6098 30.3896 16.6498 30.4796 16.6498 30.6046V37.2096C16.6498 37.3346 16.6048 37.4246 16.5198 37.4796C16.4348 37.5346 16.3298 37.5646 16.2198 37.5646C16.1148 37.5646 16.0148 37.5346 15.9298 37.4796C15.8398 37.4246 15.7998 37.3346 15.7998 37.2096V30.6046C15.7998 30.4796 15.8448 30.3896 15.9298 30.3346C16.0148 30.2796 16.1148 30.2496 16.2198 30.2496Z" fill="white"/>
<path d="M20.8446 36.1198H22.2496V34.3998H23.0446V36.1198H24.7896C24.8896 36.1198 24.9646 36.1548 25.0146 36.2198C25.0646 36.2898 25.0846 36.3698 25.0846 36.4648C25.0846 36.5598 25.0596 36.6448 25.0146 36.7198C24.9646 36.7948 24.8896 36.8298 24.7896 36.8298H18.2696C18.1696 36.8298 18.0946 36.7948 18.0446 36.7198C17.9946 36.6448 17.9746 36.5598 17.9746 36.4648C17.9746 36.3698 17.9996 36.2848 18.0446 36.2198C18.0946 36.1498 18.1696 36.1198 18.2696 36.1198H20.0496V34.3998H20.8446V36.1198ZM23.9496 30.8298C24.0446 30.9198 24.0896 31.0848 24.0896 31.3298V32.4398C24.0896 32.6748 24.0446 32.8398 23.9496 32.9298C23.8546 33.0198 23.6846 33.0648 23.4396 33.0648H19.9746C19.8546 33.0648 19.7946 33.1248 19.7946 33.2448V33.8648C19.7946 33.9798 19.8546 34.0348 19.9746 34.0348H23.9796C24.0796 34.0348 24.1546 34.0698 24.2046 34.1448C24.2546 34.2198 24.2746 34.3048 24.2746 34.3998C24.2746 34.4948 24.2496 34.5798 24.2046 34.6498C24.1546 34.7198 24.0796 34.7548 23.9796 34.7548H19.6196C19.3696 34.7548 19.1996 34.7098 19.1096 34.6198C19.0146 34.5298 18.9696 34.3648 18.9696 34.1198V33.0098C18.9696 32.7648 19.0146 32.5998 19.1096 32.5148C19.2046 32.4298 19.3746 32.3848 19.6196 32.3848H23.0796C23.1996 32.3848 23.2596 32.3248 23.2596 32.2048V31.5948C23.2596 31.4748 23.1996 31.4148 23.0796 31.4148H19.2446C19.1446 31.4148 19.0696 31.3798 19.0196 31.3098C18.9696 31.2398 18.9496 31.1548 18.9496 31.0598C18.9496 30.9648 18.9746 30.8798 19.0196 30.8048C19.0696 30.7298 19.1446 30.6948 19.2446 30.6948H23.4346C23.6846 30.6948 23.8546 30.7398 23.9446 30.8298H23.9496Z" fill="white"/>
<path d="M30.2295 30.945C30.2795 31.02 30.2995 31.105 30.2995 31.2C30.2995 31.295 30.2745 31.38 30.2295 31.455C30.1795 31.53 30.1045 31.565 30.0045 31.565H28.6145V32.38C28.6145 32.565 28.6245 32.735 28.6445 32.88C28.6645 33.025 28.6995 33.165 28.7495 33.29C28.7995 33.415 28.8695 33.54 28.9545 33.66C29.0395 33.78 29.1445 33.9 29.2695 34.025C29.4495 34.205 29.6245 34.38 29.7945 34.54C29.9645 34.705 30.1195 34.845 30.2595 34.965C30.3445 35.045 30.3795 35.135 30.3645 35.235C30.3495 35.335 30.3095 35.42 30.2395 35.49C30.1695 35.565 30.0895 35.61 29.9945 35.625C29.8995 35.64 29.8095 35.615 29.7245 35.54C29.5995 35.425 29.4645 35.3 29.3145 35.155C29.1645 35.01 29.0045 34.855 28.8295 34.685C28.7095 34.56 28.6145 34.455 28.5345 34.37C28.4545 34.285 28.3895 34.205 28.3445 34.135C28.2945 34.07 28.2595 34.01 28.2395 33.955C28.2145 33.905 28.2045 33.855 28.1995 33.81H28.1895C28.1795 33.86 28.1595 33.91 28.1395 33.965C28.1145 34.015 28.0845 34.075 28.0395 34.145C27.9945 34.21 27.9345 34.29 27.8545 34.38C27.7745 34.47 27.6745 34.58 27.5495 34.7C27.3795 34.87 27.2145 35.035 27.0495 35.19C26.8845 35.35 26.7145 35.505 26.5345 35.665C26.4445 35.745 26.3495 35.77 26.2445 35.74C26.1445 35.71 26.0595 35.66 25.9995 35.59C25.9295 35.51 25.8945 35.42 25.8945 35.325C25.8945 35.225 25.9345 35.14 26.0195 35.065C26.2195 34.89 26.4045 34.72 26.5795 34.55C26.7545 34.38 26.9345 34.205 27.1145 34.025C27.2395 33.9 27.3445 33.78 27.4295 33.66C27.5145 33.54 27.5795 33.42 27.6345 33.29C27.6895 33.16 27.7195 33.025 27.7395 32.88C27.7595 32.735 27.7695 32.565 27.7695 32.38V31.565H26.3395C26.2345 31.565 26.1545 31.53 26.1045 31.455C26.0545 31.38 26.0345 31.295 26.0345 31.2C26.0345 31.105 26.0595 31.02 26.1045 30.945C26.1545 30.87 26.2295 30.835 26.3395 30.835H30.0245C30.1245 30.835 30.1995 30.87 30.2495 30.945H30.2295ZM31.6295 30.25C31.7445 30.25 31.8445 30.28 31.9295 30.335C32.0195 30.39 32.0595 30.48 32.0595 30.605V37.21C32.0595 37.335 32.0145 37.425 31.9295 37.48C31.8445 37.535 31.7395 37.565 31.6295 37.565C31.5245 37.565 31.4245 37.535 31.3395 37.48C31.2495 37.425 31.2095 37.335 31.2095 37.21V30.605C31.2095 30.48 31.2545 30.39 31.3395 30.335C31.4245 30.28 31.5245 30.25 31.6295 30.25Z" fill="white"/>
<path d="M38.3102 33.5699C38.4052 33.5599 38.4802 33.5849 38.5402 33.6399C38.5952 33.6999 38.6252 33.7799 38.6352 33.8799C38.6452 33.9749 38.6352 34.0599 38.5902 34.1349C38.5502 34.2099 38.4802 34.2499 38.3852 34.2599C38.0902 34.2999 37.7752 34.3299 37.4402 34.3549C37.1052 34.3799 36.7502 34.3999 36.3852 34.4199V35.4199C36.3852 35.5349 36.3452 35.6149 36.2602 35.6699C36.1752 35.7249 36.0802 35.7499 35.9602 35.7499C35.8502 35.7499 35.7502 35.7249 35.6702 35.6699C35.5902 35.6149 35.5452 35.5349 35.5452 35.4199V34.4449C34.9552 34.4599 34.3652 34.4699 33.7852 34.4699C33.6852 34.4699 33.6102 34.4349 33.5602 34.3699C33.5102 34.2999 33.4902 34.2199 33.4902 34.1249C33.4902 34.0299 33.5152 33.9449 33.5602 33.8749C33.6102 33.8049 33.6852 33.7699 33.7852 33.7699C34.4952 33.7699 35.2402 33.7599 36.0152 33.7349C36.7902 33.7149 37.5552 33.6549 38.3152 33.5649L38.3102 33.5699ZM36.0302 30.3949C36.7002 30.3949 37.2052 30.5249 37.5402 30.7899C37.8752 31.0499 38.0402 31.3949 38.0402 31.8099C38.0402 32.2249 37.8752 32.5699 37.5402 32.8299C37.2052 33.0899 36.7052 33.2249 36.0302 33.2249C35.3552 33.2249 34.8602 33.0949 34.5302 32.8349C34.2002 32.5749 34.0352 32.2349 34.0352 31.8099C34.0352 31.3849 34.2002 31.0449 34.5302 30.7849C34.8602 30.5249 35.3602 30.3949 36.0302 30.3949ZM35.1602 35.8899C35.2652 35.8899 35.3652 35.9199 35.4502 35.9749C35.5402 36.0299 35.5802 36.1199 35.5802 36.2449V37.0749C35.5802 37.1349 35.5952 37.1799 35.6202 37.2099C35.6452 37.2399 35.6902 37.2499 35.7602 37.2499H39.8252C39.9252 37.2499 40.0002 37.2849 40.0502 37.3549C40.1002 37.4249 40.1202 37.5099 40.1202 37.6049C40.1202 37.6999 40.0952 37.7849 40.0502 37.8599C40.0052 37.9349 39.9252 37.9699 39.8252 37.9699H35.3802C35.1302 37.9699 34.9602 37.9249 34.8652 37.8349C34.7702 37.7449 34.7252 37.5799 34.7252 37.3349V36.2449C34.7252 36.1199 34.7702 36.0299 34.8552 35.9749C34.9402 35.9199 35.0452 35.8899 35.1552 35.8899H35.1602ZM36.0302 31.0649C35.6152 31.0649 35.3052 31.1349 35.1152 31.2749C34.9252 31.4149 34.8252 31.5949 34.8252 31.8099C34.8252 32.0249 34.9202 32.2049 35.1152 32.3449C35.3052 32.4849 35.6102 32.5549 36.0302 32.5549C36.4502 32.5549 36.7552 32.4849 36.9502 32.3449C37.1452 32.2049 37.2402 32.0249 37.2402 31.8099C37.2402 31.5949 37.1402 31.4199 36.9502 31.2749C36.7602 31.1299 36.4502 31.0649 36.0302 31.0649ZM39.4952 30.2549C39.6102 30.2549 39.7052 30.2849 39.7902 30.3399C39.8752 30.3949 39.9152 30.4849 39.9152 30.6099V35.8749C39.9152 35.9999 39.8702 36.0899 39.7902 36.1449C39.7052 36.1999 39.6052 36.2299 39.4952 36.2299C39.3902 36.2299 39.2902 36.1999 39.2102 36.1449C39.1252 36.0899 39.0802 35.9999 39.0802 35.8749V35.4849H37.7252C37.6302 35.4849 37.5552 35.4499 37.5102 35.3849C37.4652 35.3199 37.4402 35.2399 37.4402 35.1449C37.4402 35.0499 37.4652 34.9649 37.5102 34.8999C37.5602 34.8349 37.6302 34.7999 37.7252 34.7999H39.0802V30.6099C39.0802 30.4849 39.1252 30.3949 39.2102 30.3399C39.2952 30.2849 39.3902 30.2549 39.4952 30.2549Z" fill="white"/>
<path d="M45.5155 30.87C45.5655 30.945 45.5855 31.03 45.5855 31.125C45.5855 31.22 45.5605 31.305 45.5155 31.38C45.4705 31.455 45.3905 31.49 45.2905 31.49H43.9355V32.025C43.9355 32.305 43.9805 32.55 44.0755 32.75C44.1705 32.95 44.3155 33.14 44.5205 33.315C44.7055 33.475 44.8855 33.62 45.0605 33.755C45.2305 33.89 45.3855 34.005 45.5155 34.1C45.6105 34.17 45.6605 34.25 45.6655 34.345C45.6705 34.44 45.6405 34.53 45.5755 34.615C45.5205 34.69 45.4405 34.74 45.3405 34.77C45.2405 34.8 45.1455 34.78 45.0505 34.705C44.9355 34.62 44.8055 34.515 44.6505 34.395C44.5005 34.275 44.3305 34.14 44.1505 33.995C43.9355 33.82 43.7855 33.68 43.6955 33.565C43.6105 33.455 43.5505 33.35 43.5305 33.255H43.5205C43.4955 33.355 43.4405 33.47 43.3455 33.59C43.2505 33.71 43.1005 33.86 42.8855 34.035C42.7055 34.18 42.5255 34.325 42.3505 34.46C42.1755 34.595 42.0055 34.72 41.8405 34.84C41.7455 34.915 41.6455 34.935 41.5505 34.905C41.4555 34.875 41.3755 34.82 41.3255 34.75C41.2655 34.665 41.2305 34.57 41.2305 34.47C41.2305 34.37 41.2805 34.28 41.3805 34.205C41.5605 34.07 41.7455 33.93 41.9355 33.785C42.1255 33.64 42.3105 33.485 42.5005 33.325C42.7055 33.15 42.8505 32.965 42.9455 32.765C43.0405 32.565 43.0855 32.325 43.0855 32.045V31.485H41.6705C41.5655 31.485 41.4855 31.45 41.4355 31.375C41.3855 31.3 41.3655 31.215 41.3655 31.12C41.3655 31.025 41.3905 30.94 41.4355 30.865C41.4855 30.79 41.5605 30.755 41.6705 30.755H45.2855C45.3855 30.755 45.4605 30.79 45.5105 30.865L45.5155 30.87ZM42.9705 35.265C43.0755 35.265 43.1755 35.295 43.2605 35.35C43.3455 35.405 43.3905 35.495 43.3905 35.62V37.05C43.3905 37.11 43.4055 37.155 43.4305 37.18C43.4555 37.205 43.5005 37.22 43.5705 37.22H47.4155C47.5205 37.22 47.6005 37.255 47.6505 37.33C47.7005 37.405 47.7205 37.49 47.7205 37.59C47.7205 37.685 47.6955 37.77 47.6505 37.845C47.6005 37.92 47.5255 37.955 47.4155 37.955H43.1905C42.9405 37.955 42.7705 37.91 42.6805 37.82C42.5905 37.73 42.5405 37.565 42.5405 37.32V35.62C42.5405 35.495 42.5855 35.405 42.6705 35.35C42.7555 35.295 42.8555 35.265 42.9705 35.265ZM47.1005 30.255C47.2055 30.255 47.3055 30.285 47.3905 30.34C47.4755 30.395 47.5155 30.485 47.5155 30.61V35.62C47.5155 35.745 47.4755 35.835 47.3905 35.89C47.3055 35.945 47.2105 35.975 47.1005 35.975C46.9855 35.975 46.8905 35.945 46.8055 35.89C46.7205 35.835 46.6805 35.745 46.6805 35.62V33.055H45.4605C45.3555 33.055 45.2755 33.02 45.2305 32.945C45.1805 32.87 45.1605 32.785 45.1605 32.69C45.1605 32.59 45.1855 32.5 45.2305 32.43C45.2805 32.36 45.3555 32.325 45.4605 32.325H46.6805V30.605C46.6805 30.48 46.7205 30.39 46.8055 30.335C46.8905 30.28 46.9905 30.25 47.1005 30.25V30.255Z" fill="white"/>
<path d="M53.1548 30.9546C53.2048 31.0296 53.2248 31.1146 53.2248 31.2096C53.2248 31.3046 53.1998 31.3896 53.1548 31.4646C53.1048 31.5396 53.0298 31.5746 52.9298 31.5746H51.5498V32.3696C51.5498 32.5546 51.5598 32.7246 51.5798 32.8696C51.5998 33.0146 51.6348 33.1546 51.6848 33.2796C51.7348 33.4046 51.7998 33.5296 51.8848 33.6496C51.9648 33.7696 52.0698 33.8896 52.1948 34.0146C52.3748 34.1946 52.5498 34.3696 52.7198 34.5296C52.8898 34.6946 53.0448 34.8346 53.1848 34.9546C53.2698 35.0346 53.3048 35.1246 53.2898 35.2246C53.2748 35.3246 53.2348 35.4096 53.1648 35.4796C53.0998 35.5546 53.0148 35.5996 52.9198 35.6146C52.8248 35.6296 52.7348 35.6046 52.6498 35.5296C52.5248 35.4146 52.3898 35.2896 52.2398 35.1446C52.0898 34.9996 51.9298 34.8446 51.7548 34.6746C51.6348 34.5496 51.5398 34.4446 51.4598 34.3596C51.3798 34.2746 51.3198 34.1946 51.2748 34.1246C51.2298 34.0546 51.1948 33.9996 51.1748 33.9446C51.1548 33.8896 51.1398 33.8446 51.1348 33.7996H51.1248C51.1148 33.8496 51.0998 33.8996 51.0798 33.9496C51.0598 33.9996 51.0248 34.0596 50.9798 34.1296C50.9298 34.1996 50.8698 34.2746 50.7948 34.3646C50.7198 34.4546 50.6198 34.5646 50.4948 34.6846C50.3248 34.8546 50.1598 35.0196 49.9948 35.1746C49.8298 35.3346 49.6598 35.4896 49.4798 35.6496C49.3898 35.7296 49.2948 35.7546 49.1898 35.7246C49.0898 35.6946 49.0048 35.6446 48.9448 35.5696C48.8748 35.4896 48.8398 35.4046 48.8398 35.3046C48.8398 35.2046 48.8798 35.1196 48.9648 35.0446C49.1648 34.8696 49.3498 34.6996 49.5248 34.5296C49.6998 34.3596 49.8798 34.1846 50.0598 34.0046C50.1848 33.8796 50.2848 33.7596 50.3698 33.6396C50.4498 33.5196 50.5198 33.3996 50.5698 33.2696C50.6198 33.1446 50.6548 33.0046 50.6748 32.8596C50.6948 32.7146 50.7048 32.5446 50.7048 32.3596V31.5646H49.2848C49.1798 31.5646 49.0998 31.5296 49.0498 31.4546C48.9998 31.3796 48.9798 31.2946 48.9798 31.1996C48.9798 31.1046 49.0048 31.0196 49.0498 30.9446C49.0948 30.8696 49.1748 30.8346 49.2848 30.8346H52.9498C53.0498 30.8346 53.1248 30.8696 53.1748 30.9446L53.1548 30.9546ZM54.3848 30.2496C54.4998 30.2496 54.5948 30.2796 54.6798 30.3346C54.7648 30.3896 54.8048 30.4796 54.8048 30.6046V32.8046H55.7348C55.8498 32.8046 55.9298 32.8396 55.9748 32.9096C56.0248 32.9796 56.0448 33.0646 56.0448 33.1696C56.0448 33.2746 56.0198 33.3596 55.9748 33.4296C55.9248 33.5046 55.8448 33.5396 55.7348 33.5396H54.8048V37.2046C54.8048 37.3296 54.7648 37.4196 54.6798 37.4746C54.5948 37.5296 54.4948 37.5596 54.3848 37.5596C54.2748 37.5596 54.1748 37.5296 54.0898 37.4746C54.0048 37.4196 53.9648 37.3296 53.9648 37.2046V30.5996C53.9648 30.4746 54.0048 30.3846 54.0898 30.3296C54.1748 30.2746 54.2748 30.2446 54.3848 30.2446V30.2496Z" fill="white"/>
<path d="M60.2152 30.9546C60.3102 31.0446 60.3552 31.2096 60.3552 31.4546V32.5196C60.3552 32.7746 60.3402 32.9996 60.3102 33.1996C60.2802 33.3996 60.2252 33.5846 60.1452 33.7596C60.0652 33.9296 59.9552 34.0996 59.8152 34.2596C59.6752 34.4196 59.4902 34.5896 59.2702 34.7596C59.0452 34.9296 58.7802 35.1146 58.4602 35.3146C58.1452 35.5146 57.7752 35.7346 57.3502 35.9846C57.2602 36.0346 57.1652 36.0446 57.0702 36.0196C56.9752 35.9896 56.9002 35.9346 56.8402 35.8396C56.7852 35.7546 56.7602 35.6596 56.7702 35.5496C56.7802 35.4446 56.8352 35.3596 56.9302 35.3046C57.3702 35.0496 57.7402 34.8296 58.0402 34.6496C58.3402 34.4646 58.5852 34.2996 58.7802 34.1546C58.9752 34.0096 59.1252 33.8696 59.2302 33.7396C59.3352 33.6096 59.4102 33.4696 59.4552 33.3246L56.9752 33.4696C56.8752 33.4796 56.7952 33.4496 56.7452 33.3796C56.6952 33.3096 56.6652 33.2246 56.6502 33.1196C56.6452 33.0296 56.6652 32.9446 56.7052 32.8646C56.7452 32.7846 56.8202 32.7446 56.9302 32.7396L59.5302 32.6196V31.7246C59.5302 31.6546 59.5152 31.6096 59.4902 31.5846C59.4652 31.5596 59.4152 31.5446 59.3552 31.5446H57.1652C57.0602 31.5446 56.9802 31.5096 56.9302 31.4346C56.8802 31.3596 56.8602 31.2746 56.8602 31.1796C56.8602 31.0846 56.8852 30.9996 56.9302 30.9246C56.9752 30.8496 57.0552 30.8146 57.1652 30.8146H59.7052C59.9552 30.8146 60.1252 30.8596 60.2152 30.9496V30.9546ZM62.0902 30.2496C62.2052 30.2496 62.3002 30.2796 62.3852 30.3346C62.4702 30.3896 62.5102 30.4796 62.5102 30.6046V32.8046H63.4402C63.5552 32.8046 63.6352 32.8396 63.6802 32.9096C63.7302 32.9796 63.7502 33.0646 63.7502 33.1696C63.7502 33.2746 63.7252 33.3596 63.6802 33.4296C63.6302 33.5046 63.5502 33.5396 63.4402 33.5396H62.5102V37.2046C62.5102 37.3296 62.4702 37.4196 62.3852 37.4746C62.3002 37.5296 62.2002 37.5596 62.0902 37.5596C61.9802 37.5596 61.8802 37.5296 61.7952 37.4746C61.7102 37.4196 61.6702 37.3296 61.6702 37.2046V30.5996C61.6702 30.4746 61.7102 30.3846 61.7952 30.3296C61.8802 30.2746 61.9802 30.2446 62.0902 30.2446V30.2496Z" fill="white"/>
<path d="M71.2402 36.2096C71.2902 36.2796 71.3102 36.3647 71.3102 36.4697C71.3102 36.5647 71.2852 36.6496 71.2402 36.7246C71.1902 36.7996 71.1152 36.8346 71.0152 36.8346H64.4952C64.3952 36.8346 64.3202 36.7996 64.2702 36.7246C64.2202 36.6496 64.2002 36.5647 64.2002 36.4697C64.2002 36.3697 64.2252 36.2796 64.2702 36.2096C64.3202 36.1396 64.3952 36.1046 64.4952 36.1046H71.0152C71.1152 36.1046 71.1902 36.1396 71.2402 36.2096ZM70.2502 30.8696C70.3002 30.9446 70.3202 31.0296 70.3202 31.1246C70.3202 31.2196 70.2952 31.3046 70.2502 31.3796C70.2052 31.4546 70.1252 31.4896 70.0252 31.4896H66.1902C66.0702 31.4896 66.0102 31.5446 66.0102 31.6596V33.6046C66.0102 33.7246 66.0702 33.7846 66.1902 33.7846H70.1102C70.2102 33.7846 70.2852 33.8196 70.3352 33.8896C70.3852 33.9596 70.4052 34.0446 70.4052 34.1396C70.4052 34.2346 70.3802 34.3196 70.3352 34.3946C70.2852 34.4696 70.2102 34.5047 70.1102 34.5047H65.8102C65.5602 34.5047 65.3952 34.4596 65.3002 34.3696C65.2052 34.2796 65.1652 34.1146 65.1652 33.8696V31.3996C65.1652 31.1546 65.2102 30.9896 65.3002 30.8996C65.3902 30.8096 65.5602 30.7646 65.8102 30.7646H70.0252C70.1252 30.7646 70.2002 30.7996 70.2502 30.8746V30.8696Z" fill="white"/>
<path d="M8.71453 6.68457L7.74453 7.17457L6.76953 6.68457L7.74453 8.53457L8.71453 6.68457Z" fill="white"/>
<path d="M9.06035 8.11496L9.04535 8.09996L9.74035 7.80996V6.83496L8.53035 7.34996C8.53035 7.34996 7.87535 8.58996 7.86035 8.61496C8.37035 8.67496 8.75535 9.10496 8.75535 9.62496C8.75535 10.185 8.30035 10.64 7.74035 10.64C7.18035 10.64 6.72535 10.185 6.72535 9.62496C6.72535 9.10496 7.11035 8.67496 7.62035 8.61496C7.60535 8.58496 6.95035 7.34996 6.95035 7.34996L5.74035 6.83496V7.80996L6.43535 8.09996L6.42035 8.11496C5.98535 8.49496 5.73535 9.04496 5.73535 9.62496C5.73535 10.73 6.63035 11.625 7.73535 11.625C8.84035 11.625 9.73535 10.725 9.73535 9.62496C9.73535 9.04496 9.48535 8.49496 9.05035 8.11496H9.06035Z" fill="white"/>
<path d="M34.825 9.6599H30.6L30.415 9.3749H34.82C34.865 9.3749 34.875 9.4299 34.875 9.5149C34.875 9.5999 34.865 9.6549 34.82 9.6549L34.825 9.6599ZM32.7 8.9999C31.605 8.9999 30.775 8.7199 30.775 8.1349C30.775 7.5499 31.605 7.2749 32.7 7.2749C33.795 7.2749 34.625 7.5549 34.625 8.1349C34.625 8.7149 33.795 8.9999 32.7 8.9999ZM34.67 11.1299H31.075C30.91 11.1299 30.77 10.9949 30.77 10.8249V9.9149H31.275C31.355 9.9149 31.43 9.9849 31.43 10.0649V10.6949C31.43 10.7749 31.5 10.8449 31.58 10.8449H34.67C34.715 10.8449 34.725 10.8999 34.725 10.9899C34.725 11.0799 34.715 11.1299 34.67 11.1299ZM32.7 7.5599C31.98 7.5599 31.455 7.7349 31.455 8.1349C31.455 8.5349 31.98 8.7149 32.7 8.7149C33.42 8.7149 33.945 8.5349 33.945 8.1349C33.945 7.7349 33.42 7.5599 32.7 7.5599Z" fill="white"/>
<path d="M39.395 9.98502H38.62C38.8 10.09 38.9 10.23 38.9 10.425C38.9 10.855 38.39 11.04 37.695 11.04C37 11.04 36.49 10.855 36.49 10.425C36.49 9.99502 37 9.80502 37.695 9.80502H39.57V7.43002C39.57 7.35002 39.5 7.27502 39.42 7.27502H38.94V8.08502H38.585V7.42502C38.585 7.34502 38.515 7.27002 38.435 7.27002H37.955V9.35002H38.59V8.38502H38.945V9.54002H37.705C36.615 9.54002 35.79 9.84002 35.79 10.425C35.79 11.01 36.61 11.31 37.705 11.31C38.8 11.31 39.62 11.01 39.62 10.425C39.62 10.25 39.545 10.1 39.405 9.98002L39.395 9.98502Z" fill="white"/>
<path d="M37.7001 8.4599C37.7001 8.2899 37.6451 8.1299 37.5451 7.9949H36.9051C37.0151 8.1149 37.0551 8.2799 37.0551 8.4549C37.0551 8.7549 36.9201 9.0799 36.5501 9.0799C36.2401 9.0799 36.0351 8.7799 36.0351 8.4549C36.0351 8.1149 36.2201 7.8099 36.5451 7.8099H37.7701C37.8051 7.8099 37.8151 7.7399 37.8151 7.6599C37.8151 7.5799 37.8051 7.5249 37.7701 7.5249H36.8651V7.2849C36.8651 7.2149 36.8051 7.1499 36.7401 7.1499H36.1901V7.5249H35.2051L35.3551 7.8049H35.7301C35.5251 7.9649 35.4201 8.1949 35.4201 8.4549C35.4201 8.9549 35.8701 9.3549 36.5551 9.3549C37.2401 9.3549 37.7051 8.9549 37.7051 8.4549L37.7001 8.4599Z" fill="white"/>
<path d="M24.05 9.70959C24.24 9.82959 24.355 10.0096 24.355 10.2446C24.355 10.7596 23.8 10.9946 23.115 10.9946C22.43 10.9946 21.875 10.7596 21.875 10.2446C21.875 9.72959 22.42 9.49459 23.115 9.49459H23.105H25.165C25.19 9.49459 25.215 9.46959 25.22 9.43959C25.22 9.42459 25.235 9.33459 25.22 9.26459C25.215 9.23459 25.195 9.21459 25.165 9.21459H23.435V8.67959H25.08C25.11 8.67959 25.13 8.65459 25.135 8.62459C25.135 8.60959 25.15 8.51959 25.135 8.44959C25.13 8.41959 25.11 8.39959 25.08 8.39959H21.96C21.875 8.39959 21.8 8.32959 21.8 8.24959V7.48459C21.8 7.39959 21.73 7.32959 21.64 7.32959H21.15V8.38959C21.15 8.54959 21.285 8.67959 21.455 8.67959H22.785V9.21459H20.875L21.06 9.49459H21.63C21.38 9.66459 21.23 9.90459 21.23 10.2096C21.23 10.9446 22.075 11.2796 23.115 11.2796C24.155 11.2796 25 10.9446 25 10.2096C25 10.0146 24.94 9.84959 24.835 9.70959H24.05Z" fill="white"/>
<path d="M27.63 7.99469C27.665 8.03469 27.695 8.07469 27.72 8.11969C27.775 8.21969 27.81 8.33469 27.81 8.45969C27.81 8.83969 27.535 9.14469 27.135 9.14469C26.735 9.14469 26.46 8.83969 26.46 8.45969C26.46 8.07969 26.75 7.77969 27.13 7.77469H28.585C28.615 7.77469 28.635 7.74969 28.64 7.71969C28.64 7.70469 28.655 7.61469 28.64 7.53969C28.635 7.50969 28.615 7.48969 28.585 7.48969H27.475V7.33469C27.475 7.24969 27.4 7.17969 27.31 7.17969H26.805V7.48969H25.54C25.565 7.52969 25.72 7.76469 25.73 7.77469H26.21C25.965 7.94969 25.815 8.18969 25.815 8.45969C25.815 8.98969 26.35 9.41969 27.145 9.41969C27.68 9.41969 28.07 9.22469 28.3 8.93469H29.22V9.97969H26.775V9.68969C26.775 9.59969 26.7 9.53469 26.61 9.53469H26.11V10.8347C26.11 10.9947 26.25 11.1297 26.42 11.1297H29.89V7.41469C29.89 7.32469 29.815 7.25469 29.725 7.25469H29.22V7.99469H27.645H27.63ZM29.205 10.8397H26.85C26.8 10.8397 26.76 10.7997 26.76 10.7497V10.2597H29.205V10.8347V10.8397ZM29.205 8.64969H28.43C28.45 8.58969 28.455 8.52469 28.455 8.45969C28.455 8.39969 28.445 8.33969 28.435 8.27969H29.205V8.64969Z" fill="white"/>
<path d="M19.9603 7.35498H19.3753V8.86498H16.9903V7.35498H16.4053C16.2653 7.35498 16.1553 7.48998 16.1553 7.64998V10.84C16.1553 11.005 16.2703 11.14 16.4053 11.14H16.9903V9.51998H19.3753V11.14H19.9603C20.1003 11.14 20.2103 11.005 20.2103 10.84V7.64998C20.2103 7.48498 20.1003 7.35498 19.9603 7.35498Z" fill="white"/>
<path d="M15.1802 7.35461H14.5952V10.2496L12.8402 7.93461C12.5502 7.59961 12.3502 7.34961 11.8802 7.34961H11.2852V10.8346C11.2852 10.9996 11.3952 11.1346 11.5352 11.1346H12.1202V8.22461L13.8902 10.5246C14.1902 10.8696 14.4552 11.1346 14.8852 11.1346H15.4302V7.64961C15.4302 7.48461 15.3152 7.35461 15.1802 7.35461Z" fill="white"/>
<mask id="mask1_6542_20547" style="mask-type:luminance" maskUnits="userSpaceOnUse" x="56" y="-2" width="59" height="78">
<path d="M114.02 -1.0752H56.54V75.6698H114.02V-1.0752Z" fill="white"/>
</mask>
<g mask="url(#mask1_6542_20547)">
<path d="M104.205 69.3898C101.26 69.3898 98.3154 68.2698 96.0704 66.0248C91.5854 61.5398 91.5854 54.2398 96.0704 49.7548L117.785 28.0348C119.45 26.3698 120.365 24.1548 120.365 21.7998C120.365 19.4448 119.45 17.2298 117.785 15.5648C116.12 13.8998 113.905 12.9848 111.55 12.9848C109.195 12.9848 106.98 13.8998 105.315 15.5648L100.47 20.4098C99.6004 21.2798 98.1854 21.2798 97.3154 20.4098L92.4154 15.5098C90.7504 13.8448 88.5354 12.9298 86.1804 12.9298C83.8254 12.9298 81.6104 13.8448 79.9454 15.5098C78.2804 17.1748 77.3654 19.3898 77.3654 21.7448C77.3654 24.0998 78.2804 26.3148 79.9454 27.9798L93.5004 41.5348C94.3704 42.4048 94.3704 43.8198 93.5004 44.6898C92.6304 45.5598 91.2154 45.5598 90.3454 44.6898L76.7904 31.1348C74.2804 28.6298 72.9004 25.2948 72.9004 21.7448C72.9004 18.1948 74.2804 14.8648 76.7904 12.3548C79.2954 9.84484 82.6304 8.46484 86.1754 8.46484C89.7204 8.46484 93.0554 9.84484 95.5654 12.3548L98.8904 15.6798L102.155 12.4148C104.66 9.90984 107.995 8.52484 111.54 8.52484C115.085 8.52484 118.42 9.90484 120.925 12.4148C123.435 14.9198 124.815 18.2548 124.815 21.8048C124.815 25.3548 123.435 28.6848 120.925 31.1948L99.2104 52.9148C96.4654 55.6598 96.4654 60.1298 99.2104 62.8748C101.955 65.6198 106.425 65.6198 109.17 62.8748L122.27 49.7748C123.14 48.9048 124.555 48.9048 125.425 49.7748C126.295 50.6448 126.295 52.0598 125.425 52.9298L112.33 66.0298C110.09 68.2698 107.14 69.3948 104.195 69.3948L104.205 69.3898Z" fill="white"/>
</g>
<path d="M13.6595 57.2448C13.7945 57.2598 13.9445 57.2448 14.1545 57.2248C14.5095 57.1748 14.8495 57.0298 15.1045 56.7848C15.4045 56.5098 15.6245 56.1148 15.7045 55.5748H15.6845C15.4345 55.8848 15.0695 56.0648 14.6145 56.0648C13.7945 56.0648 13.2695 55.4498 13.2695 54.6698C13.2695 53.8098 13.8945 53.0498 14.8245 53.0498C15.7545 53.0498 16.3295 53.8048 16.3295 54.9698C16.3295 55.9698 15.9945 56.6698 15.5445 57.1048C15.1945 57.4498 14.7095 57.6598 14.2195 57.7148C13.9945 57.7498 13.7995 57.7548 13.6545 57.7498V57.2448H13.6595ZM13.8845 54.6248C13.8845 55.1898 14.2295 55.5898 14.7595 55.5898C15.1745 55.5898 15.4945 55.3848 15.6545 55.1148C15.6895 55.0598 15.7095 54.9898 15.7095 54.8898C15.7095 54.1148 15.4245 53.5148 14.7795 53.5148C14.2545 53.5148 13.8845 53.9748 13.8845 54.6198V54.6248Z" fill="#221E1F"/>
<path d="M19.3298 57.6799V56.4399H17.2148V56.0349L19.2448 53.1299H19.9098V55.9599H20.5448V56.4449H19.9098V57.6849H19.3298V57.6799ZM19.3298 55.9549V54.4349C19.3298 54.1949 19.3348 53.9599 19.3498 53.7199H19.3298C19.1898 53.9849 19.0798 54.1799 18.9498 54.3899L17.8348 55.9399V55.9549H19.3248H19.3298Z" fill="#221E1F"/>
<path d="M21.4855 56.5247C21.4855 55.9497 21.8305 55.5447 22.3905 55.3047V55.2847C21.8805 55.0447 21.6605 54.6547 21.6605 54.2647C21.6605 53.5447 22.2705 53.0547 23.0655 53.0547C23.9455 53.0547 24.3905 53.6097 24.3905 54.1747C24.3905 54.5597 24.2005 54.9747 23.6405 55.2397V55.2597C24.2055 55.4847 24.5555 55.8847 24.5555 56.4347C24.5555 57.2247 23.8755 57.7597 23.0055 57.7597C22.0555 57.7597 21.4805 57.1947 21.4805 56.5247H21.4855ZM23.9355 56.4947C23.9355 55.9397 23.5505 55.6747 22.9355 55.4997C22.4055 55.6547 22.1155 56.0047 22.1155 56.4397C22.0955 56.8997 22.4455 57.3097 23.0255 57.3097C23.6055 57.3097 23.9355 56.9647 23.9355 56.4997V56.4947ZM22.2405 54.2197C22.2405 54.6747 22.5855 54.9197 23.1105 55.0597C23.5005 54.9247 23.8055 54.6447 23.8055 54.2347C23.8055 53.8697 23.5905 53.4897 23.0355 53.4897C22.5255 53.4897 22.2455 53.8247 22.2455 54.2197H22.2405Z" fill="#221E1F"/>
<path d="M25.8095 56.9698C25.9845 57.0798 26.3895 57.2548 26.8195 57.2548C27.6095 57.2548 27.8545 56.7498 27.8495 56.3748C27.8445 55.7398 27.2695 55.4648 26.6745 55.4648H26.3295V55.0048H26.6745C27.1245 55.0048 27.6895 54.7748 27.6895 54.2348C27.6895 53.8698 27.4595 53.5498 26.8895 53.5498C26.5245 53.5498 26.1745 53.7098 25.9795 53.8498L25.8195 53.3998C26.0595 53.2248 26.5195 53.0498 27.0095 53.0498C27.9045 53.0498 28.3145 53.5798 28.3145 54.1348C28.3145 54.6048 28.0345 55.0048 27.4745 55.2048V55.2198C28.0345 55.3298 28.4895 55.7498 28.4895 56.3898C28.4895 57.1198 27.9245 57.7548 26.8295 57.7548C26.3195 57.7548 25.8695 57.5948 25.6445 57.4448L25.8145 56.9698H25.8095Z" fill="#221E1F"/>
<path d="M37.1496 53.7H37.1346L36.3446 54.125L36.2246 53.655L37.2196 53.125H37.7446V57.675H37.1496V53.695V53.7Z" fill="#221E1F"/>
<path d="M41.2697 53.7H41.2547L40.4647 54.125L40.3447 53.655L41.3397 53.125H41.8647V57.675H41.2697V53.695V53.7Z" fill="#221E1F"/>
<path d="M45.3898 53.7H45.3748L44.5848 54.125L44.4648 53.655L45.4598 53.125H45.9848V57.675H45.3898V53.695V53.7Z" fill="#221E1F"/>
<path d="M51.1297 53.125V53.53L49.1497 57.675H48.5146L50.4897 53.65V53.635H48.2646V53.125H51.1346H51.1297Z" fill="#221E1F"/>
<path d="M61.28 53.125V53.53L59.3 57.675H58.665L60.64 53.65V53.635H58.415V53.125H61.285H61.28Z" fill="#221E1F"/>
<path d="M65.0402 53.5599C64.9152 53.5549 64.7552 53.5599 64.5802 53.5899C63.6152 53.7499 63.1002 54.4599 62.9952 55.2099H63.0152C63.2302 54.9249 63.6102 54.6849 64.1152 54.6849C64.9202 54.6849 65.4902 55.2649 65.4902 56.1549C65.4902 56.9899 64.9252 57.7599 63.9752 57.7599C63.0252 57.7599 62.3652 57.0049 62.3652 55.8199C62.3652 54.9249 62.6852 54.2149 63.1352 53.7699C63.5152 53.3999 64.0202 53.1649 64.5902 53.0999C64.7702 53.0699 64.9252 53.0649 65.0402 53.0649V53.5699V53.5599ZM64.8652 56.1849C64.8652 55.5349 64.4952 55.1399 63.9252 55.1399C63.5552 55.1399 63.2102 55.3699 63.0452 55.6999C63.0052 55.7699 62.9752 55.8599 62.9752 55.9749C62.9902 56.7249 63.3302 57.2799 63.9752 57.2799C64.5052 57.2799 64.8652 56.8399 64.8652 56.1899V56.1849Z" fill="#221E1F"/>
<path d="M66.5049 56.5247C66.5049 55.9497 66.8499 55.5447 67.4099 55.3047V55.2847C66.8999 55.0447 66.6799 54.6547 66.6799 54.2647C66.6799 53.5447 67.2899 53.0547 68.0899 53.0547C68.9749 53.0547 69.4149 53.6097 69.4149 54.1747C69.4149 54.5597 69.2249 54.9747 68.6649 55.2397V55.2597C69.2299 55.4847 69.5799 55.8847 69.5799 56.4347C69.5799 57.2247 68.8999 57.7597 68.0299 57.7597C67.0749 57.7597 66.5049 57.1947 66.5049 56.5247ZM68.9549 56.4947C68.9549 55.9397 68.5699 55.6747 67.9549 55.4997C67.4249 55.6547 67.1349 56.0047 67.1349 56.4397C67.1149 56.8997 67.4649 57.3097 68.0449 57.3097C68.6249 57.3097 68.9549 56.9647 68.9549 56.4997V56.4947ZM67.2599 54.2197C67.2599 54.6747 67.6049 54.9197 68.1299 55.0597C68.5249 54.9247 68.8249 54.6447 68.8249 54.2347C68.8249 53.8697 68.6099 53.4897 68.0549 53.4897C67.5449 53.4897 67.2649 53.8247 67.2649 54.2197H67.2599Z" fill="#221E1F"/>
<path d="M72.5847 57.6799V56.4399H70.4697V56.0349L72.4997 53.1299H73.1647V55.9599H73.8047V56.4449H73.1647V57.6849H72.5847V57.6799ZM72.5847 55.9549V54.4349C72.5847 54.1949 72.5897 53.9599 72.6047 53.7199H72.5847C72.4447 53.9849 72.3347 54.1799 72.2047 54.3899L71.0897 55.9399V55.9549H72.5797H72.5847Z" fill="#221E1F"/>
<path d="M80.7754 56.5247C80.7754 55.9497 81.1204 55.5447 81.6804 55.3047V55.2847C81.1704 55.0447 80.9504 54.6547 80.9504 54.2647C80.9504 53.5447 81.5604 53.0547 82.3604 53.0547C83.2454 53.0547 83.6854 53.6097 83.6854 54.1747C83.6854 54.5597 83.4954 54.9747 82.9354 55.2397V55.2597C83.5004 55.4847 83.8504 55.8847 83.8504 56.4347C83.8504 57.2247 83.1704 57.7597 82.3004 57.7597C81.3454 57.7597 80.7754 57.1947 80.7754 56.5247ZM83.2254 56.4947C83.2254 55.9397 82.8404 55.6747 82.2254 55.4997C81.6954 55.6547 81.4054 56.0047 81.4054 56.4397C81.3854 56.8997 81.7354 57.3097 82.3154 57.3097C82.8954 57.3097 83.2254 56.9647 83.2254 56.4997V56.4947ZM81.5304 54.2197C81.5304 54.6747 81.8754 54.9197 82.4004 55.0597C82.7954 54.9247 83.0954 54.6447 83.0954 54.2347C83.0954 53.8697 82.8804 53.4897 82.3254 53.4897C81.8154 53.4897 81.5354 53.8247 81.5354 54.2197H81.5304Z" fill="#221E1F"/>
<path d="M84.9502 57.6798V57.2998L85.4352 56.8298C86.6002 55.7248 87.1252 55.1348 87.1302 54.4498C87.1302 53.9898 86.9052 53.5598 86.2252 53.5598C85.8102 53.5598 85.4702 53.7698 85.2602 53.9448L85.0652 53.5098C85.3802 53.2448 85.8302 53.0498 86.3552 53.0498C87.3352 53.0498 87.7502 53.7198 87.7502 54.3748C87.7502 55.2148 87.1402 55.8948 86.1802 56.8198L85.8152 57.1548V57.1698H87.8602V57.6798H84.9552H84.9502Z" fill="#221E1F"/>
<path d="M92.0949 55.3548C92.0949 56.9048 91.5199 57.7548 90.5099 57.7548C89.6199 57.7548 89.0199 56.9198 89.0049 55.4148C89.0049 53.8898 89.6649 53.0498 90.5899 53.0498C91.5149 53.0498 92.0949 53.9048 92.0949 55.3548ZM89.6249 55.4248C89.6249 56.6098 89.9899 57.2798 90.5499 57.2798C91.1799 57.2798 91.4799 56.5448 91.4799 55.3798C91.4799 54.2148 91.1949 53.5248 90.5549 53.5248C90.0149 53.5248 89.6249 54.1848 89.6249 55.4248Z" fill="#221E1F"/>
<path d="M96.215 55.3548C96.215 56.9048 95.64 57.7548 94.63 57.7548C93.74 57.7548 93.14 56.9198 93.125 55.4148C93.125 53.8898 93.785 53.0498 94.71 53.0498C95.635 53.0498 96.215 53.9048 96.215 55.3548ZM93.745 55.4248C93.745 56.6098 94.11 57.2798 94.67 57.2798C95.3 57.2798 95.6 56.5448 95.6 55.3798C95.6 54.2148 95.315 53.5248 94.675 53.5248C94.135 53.5248 93.745 54.1848 93.745 55.4248Z" fill="#221E1F"/>
<path d="M70.7799 17.0999C70.7799 15.8799 70.2249 14.7849 69.3549 14.0549C68.8249 12.5349 67.2899 11.4849 65.5749 11.4849C64.8899 11.4849 64.2099 11.6499 63.5949 11.9649C62.9849 11.6499 62.3049 11.4849 61.6199 11.4849C59.2749 11.4849 57.3649 13.3599 57.2949 15.6899H56.9199C56.7099 15.6899 56.5449 15.8599 56.5449 16.0649V18.1399C56.5449 18.3499 56.7149 18.5149 56.9199 18.5149H57.2449V22.9999C57.2449 25.9899 59.6749 28.4199 62.6649 28.4199H63.9949C66.9849 28.4199 69.4149 25.9899 69.4149 22.9999V20.0949C70.2499 19.3649 70.7849 18.2949 70.7849 17.0999H70.7799ZM70.0299 17.0999C70.0299 18.8799 68.5849 20.3249 66.8049 20.3249C65.0249 20.3249 63.5799 18.8799 63.5799 17.0999C63.5799 15.3199 65.0249 13.8749 66.8049 13.8749C68.5849 13.8749 70.0299 15.3199 70.0299 17.0999ZM57.2949 17.7599V16.4349H62.8899C62.8549 16.6499 62.8299 16.8699 62.8299 17.0949C62.8299 17.3199 62.8549 17.5399 62.8899 17.7549H57.2949V17.7599ZM61.6199 12.2299C62.2449 12.2299 62.8649 12.3949 63.4099 12.7149C63.5249 12.7849 63.6699 12.7849 63.7849 12.7149C64.3299 12.3999 64.9499 12.2299 65.5749 12.2299C66.5599 12.2299 67.4599 12.6549 68.0599 13.3249C67.6649 13.1949 67.2399 13.1199 66.8049 13.1199C65.1099 13.1199 63.6649 14.1849 63.0949 15.6849H58.0499C58.1199 13.7699 59.6899 12.2349 61.6249 12.2349L61.6199 12.2299ZM63.0899 18.5099C63.1349 18.6249 63.1799 18.7299 63.2349 18.8399C63.0199 19.3599 61.9349 21.2599 57.9949 20.3949V18.5099H63.0899ZM68.6599 22.9949C68.6599 25.5699 66.5649 27.6599 63.9949 27.6599H62.6649C60.0899 27.6599 57.9999 25.5649 57.9999 22.9949V21.1649C58.6849 21.3049 59.2999 21.3699 59.8399 21.3699C62.1399 21.3699 63.2199 20.2849 63.6899 19.5599C64.4199 20.4799 65.5449 21.0749 66.8049 21.0749C67.4749 21.0749 68.1049 20.9049 68.6599 20.6099V22.9949Z" fill="#F4C6C6"/>
<path d="M66.7997 15.27C65.7897 15.27 64.9697 16.09 64.9697 17.1C64.9697 18.11 65.7897 18.93 66.7997 18.93C67.8097 18.93 68.6297 18.11 68.6297 17.1C68.6297 16.09 67.8097 15.27 66.7997 15.27ZM66.7997 18.175C66.2047 18.175 65.7247 17.69 65.7247 17.1C65.7247 16.51 66.2097 16.025 66.7997 16.025C67.3897 16.025 67.8747 16.51 67.8747 17.1C67.8747 17.69 67.3897 18.175 66.7997 18.175Z" fill="#F4C6C6"/>
<path d="M61.34 22.3047C61.34 21.9947 61.085 21.7397 60.775 21.7397C60.465 21.7397 60.21 21.9947 60.21 22.3047C60.21 22.6147 60.465 22.8697 60.775 22.8697C61.085 22.8697 61.34 22.6197 61.34 22.3047Z" fill="#F4C6C6"/>
<path d="M65.8004 21.7397C65.4904 21.7397 65.2354 21.9947 65.2354 22.3047C65.2354 22.6147 65.4904 22.8697 65.8004 22.8697C66.1104 22.8697 66.3653 22.6197 66.3653 22.3047C66.3653 21.9897 66.1104 21.7397 65.8004 21.7397Z" fill="#F4C6C6"/>
<path d="M63.3449 26.2896C64.8399 26.2896 66.0549 25.0746 66.0549 23.5796H60.6299C60.6299 25.0796 61.8449 26.2896 63.3399 26.2896H63.3449Z" fill="#F4C6C6"/>
</g>
</g>
<defs>
<linearGradient id="paint0_linear_6542_20547" x1="0" y1="36" x2="114" y2="36" gradientUnits="userSpaceOnUse">
<stop stop-color="#E67E6F"/>
<stop offset="1" stop-color="#DE413C"/>
</linearGradient>
<clipPath id="clip0_6542_20547">
<rect width="114" height="72" fill="white"/>
</clipPath>
</defs>
</svg>
