<svg width="114" height="72" viewBox="0 0 114 72" fill="none" xmlns="http://www.w3.org/2000/svg">
<g clip-path="url(#clip0_6542_19399)">
<path d="M110.005 0H3.995C1.78862 0 0 1.78862 0 3.995V68.005C0 70.2114 1.78862 72 3.995 72H110.005C112.211 72 114 70.2114 114 68.005V3.995C114 1.78862 112.211 0 110.005 0Z" fill="#FAF1D6"/>
<g opacity="0.5">
<path d="M102.255 4.70508H101.715V5.84008H99.4999V4.70508H98.9599C98.8299 4.70508 98.7249 4.81008 98.7249 4.93508V7.40008C98.7249 7.52508 98.8299 7.63008 98.9599 7.63008H99.4999V6.41008H101.715V7.63008H102.255C102.385 7.63008 102.49 7.52508 102.49 7.40008V4.93508C102.49 4.81008 102.385 4.70508 102.255 4.70508ZM97.8649 4.70508H97.3249V6.86008L95.6199 5.15508C95.3499 4.89508 95.1649 4.70508 94.7299 4.70508H94.2549V7.40008C94.2549 7.52508 94.3599 7.63008 94.4899 7.63008H95.0299V5.46508L96.7199 7.15508C96.9949 7.42508 97.2449 7.63008 97.6449 7.63008H98.0999V4.93508C98.0999 4.81008 97.9949 4.70508 97.8649 4.70508ZM108.54 6.34508L109.22 5.71008H108.98C108.86 5.71008 108.795 5.77008 108.74 5.82508C108.74 5.82508 108.34 6.20508 108.27 6.27508V5.09508H108.135C108.055 5.09508 107.99 5.16008 107.99 5.24008V7.00008C107.99 7.08008 108.055 7.14508 108.135 7.14508H108.27V6.42508C108.295 6.45008 108.835 7.03508 108.835 7.03508C108.895 7.10008 108.935 7.14008 109.055 7.14008H109.3C109.3 7.14008 108.55 6.35008 108.54 6.34008V6.34508ZM107.115 5.71008H106.445V7.00008C106.445 7.08008 106.51 7.14508 106.59 7.14508H106.725V5.93508H107.085C107.305 5.95008 107.385 6.07508 107.385 6.41508V7.14008H107.52C107.6 7.14008 107.665 7.07508 107.665 6.99508V6.32008C107.665 5.91508 107.475 5.70508 107.12 5.70508L107.115 5.71008ZM104.275 6.15008C104.49 6.06508 104.625 5.93008 104.625 5.68508C104.625 5.35508 104.39 5.19008 103.925 5.19008H103.53C103.45 5.19008 103.385 5.25508 103.385 5.33508V7.00508C103.385 7.08508 103.45 7.15008 103.53 7.15008H103.915C104.425 7.15008 104.675 6.98008 104.675 6.62508C104.675 6.36508 104.505 6.20008 104.275 6.15508V6.15008ZM103.68 5.43008H103.97C104.075 5.43008 104.325 5.45508 104.325 5.71508C104.325 5.99508 104.1 6.02008 103.825 6.02008H103.675V5.43008H103.68ZM103.885 6.90508H103.68V6.26008H103.855C104.09 6.26008 104.36 6.30008 104.36 6.59508C104.36 6.81008 104.215 6.90508 103.885 6.90508ZM105.54 5.68008C105.38 5.68008 105.225 5.72008 105.075 5.80508V6.05508L105.085 6.04508C105.19 5.95508 105.35 5.90008 105.5 5.90008C105.745 5.90008 105.845 6.00508 105.85 6.25508C105.75 6.25008 105.675 6.25008 105.575 6.25008C105.34 6.25008 104.9 6.34508 104.9 6.71008C104.9 6.98508 105.09 7.14008 105.435 7.14008H105.985C106.065 7.14008 106.13 7.07508 106.13 6.99508V6.26508C106.13 5.86008 105.945 5.67008 105.545 5.67008L105.54 5.68008ZM105.845 6.93008H105.45C105.325 6.93008 105.19 6.85008 105.19 6.71508C105.19 6.48508 105.535 6.46008 105.685 6.46008H105.845V6.92508V6.93008Z" fill="#231F20"/>
</g>
<path d="M14.7454 63.7551C14.9554 63.7551 15.1254 63.6701 15.2604 63.4951C15.3954 63.3201 15.4554 63.0751 15.4554 62.7601V62.3751C15.3754 62.5051 15.2754 62.6001 15.1554 62.6651C15.0354 62.7301 14.9054 62.7651 14.7704 62.7651C14.4354 62.7651 14.1704 62.6451 13.9804 62.4051C13.7854 62.1651 13.6904 61.8451 13.6904 61.4401C13.6904 61.0351 13.8004 60.7201 14.0154 60.4651C14.2304 60.2101 14.5004 60.0801 14.8304 60.0801C15.1854 60.0801 15.4704 60.2101 15.6904 60.4651C15.9104 60.7201 16.0204 61.0801 16.0204 61.5401V62.7401C16.0204 63.1901 15.9004 63.5401 15.6654 63.7951C15.4304 64.0501 15.1204 64.1751 14.7504 64.1751C14.6254 64.1751 14.4954 64.1601 14.3654 64.1301C14.2354 64.1001 14.1154 64.0601 14.0004 64.0001L14.0904 63.6001C14.1954 63.6551 14.2954 63.6951 14.4004 63.7201C14.5004 63.7451 14.6204 63.7551 14.7504 63.7551H14.7454ZM14.8254 62.3551C14.9754 62.3551 15.1004 62.3151 15.2104 62.2351C15.3154 62.1551 15.4004 62.0501 15.4554 61.9251V61.4601C15.4554 61.1551 15.4004 60.9201 15.2904 60.7551C15.1804 60.5901 15.0304 60.5101 14.8354 60.5101C14.6654 60.5101 14.5254 60.6001 14.4154 60.7801C14.3054 60.9601 14.2504 61.1801 14.2504 61.4501C14.2504 61.7201 14.3004 61.9401 14.4004 62.1051C14.5004 62.2751 14.6404 62.3601 14.8254 62.3601V62.3551Z" fill="#444444"/>
<path d="M19.0597 62.7601H19.5197V63.1851H19.0597V64.1201H18.4997V63.1851H16.9847L16.9697 62.8751L18.4797 60.1401H19.0597V62.7601ZM17.5197 62.7601H18.4997V60.9051H18.4847L18.4097 61.0701L17.5197 62.7601Z" fill="#444444"/>
<path d="M22.6749 61.155C22.6749 61.36 22.6249 61.545 22.5199 61.7C22.4149 61.855 22.2749 61.975 22.1049 62.055C22.3099 62.135 22.4749 62.265 22.5999 62.435C22.7249 62.605 22.7849 62.805 22.7849 63.03C22.7849 63.395 22.6749 63.675 22.4549 63.875C22.2349 64.075 21.9499 64.175 21.6099 64.175C21.2699 64.175 20.9549 64.075 20.7249 63.875C20.4949 63.675 20.3799 63.39 20.3799 63.03C20.3799 62.805 20.4449 62.605 20.5699 62.435C20.6949 62.265 20.8699 62.14 21.0899 62.055C20.9049 61.975 20.7599 61.86 20.6499 61.7C20.5399 61.54 20.4899 61.36 20.4899 61.155C20.4899 60.81 20.5949 60.545 20.7999 60.36C21.0049 60.175 21.2749 60.085 21.6049 60.085C21.9349 60.085 22.1799 60.18 22.3799 60.36C22.5799 60.54 22.6799 60.81 22.6799 61.155H22.6749ZM22.2249 63.015C22.2249 62.795 22.1649 62.62 22.0449 62.48C21.9249 62.34 21.7799 62.27 21.6049 62.27C21.4149 62.27 21.2549 62.34 21.1299 62.48C21.0049 62.62 20.9399 62.795 20.9399 63.015C20.9399 63.235 21.0049 63.42 21.1299 63.555C21.2549 63.69 21.4149 63.755 21.6099 63.755C21.7899 63.755 21.9349 63.69 22.0549 63.555C22.1699 63.42 22.2299 63.24 22.2299 63.015H22.2249ZM22.1149 61.17C22.1149 60.975 22.0649 60.815 21.9699 60.695C21.8749 60.575 21.7499 60.51 21.6049 60.51C21.4399 60.51 21.3049 60.57 21.2049 60.685C21.0999 60.805 21.0499 60.965 21.0499 61.165C21.0499 61.365 21.0999 61.535 21.2049 61.655C21.3099 61.78 21.4449 61.84 21.6049 61.84C21.7549 61.84 21.8749 61.78 21.9699 61.655C22.0649 61.53 22.1149 61.365 22.1149 61.165V61.17Z" fill="#444444"/>
<path d="M24.8949 61.8651C25.0949 61.8651 25.2399 61.8051 25.3349 61.6801C25.4299 61.5551 25.4749 61.3901 25.4749 61.1851C25.4749 60.9801 25.4249 60.8201 25.3299 60.6951C25.2349 60.5701 25.0949 60.5051 24.9099 60.5051C24.7399 60.5051 24.5999 60.5701 24.4899 60.6951C24.3799 60.8201 24.3249 60.9801 24.3249 61.1751H23.7849V61.1601C23.7699 60.8551 23.8749 60.6001 24.0899 60.3901C24.3049 60.1851 24.5799 60.0801 24.9099 60.0801C25.2549 60.0801 25.5299 60.1751 25.7349 60.3651C25.9399 60.5551 26.0399 60.8301 26.0399 61.1851C26.0399 61.3751 25.9899 61.5451 25.8949 61.7001C25.7999 61.8551 25.6649 61.9751 25.4949 62.0601C25.6899 62.1401 25.8349 62.2601 25.9399 62.4201C26.0449 62.5801 26.0949 62.7801 26.0949 63.0151C26.0949 63.3751 25.9849 63.6601 25.7649 63.8651C25.5449 64.0701 25.2599 64.1701 24.9099 64.1701C24.5949 64.1701 24.3199 64.0701 24.0799 63.8751C23.8449 63.6751 23.7299 63.4051 23.7399 63.0601V63.0451H24.2849C24.2849 63.2451 24.3449 63.4151 24.4599 63.5501C24.5749 63.6851 24.7299 63.7551 24.9099 63.7551C25.0899 63.7551 25.2549 63.6901 25.3649 63.5551C25.4799 63.4201 25.5349 63.2451 25.5349 63.0251C25.5349 62.7751 25.4799 62.5901 25.3699 62.4701C25.2599 62.3501 25.0999 62.2851 24.8849 62.2851H24.5049V61.8651H24.8849H24.8949Z" fill="#444444"/>
<path d="M39.2597 64.1201H38.7047V60.6101L37.9297 60.6601V60.2451L39.2597 60.0801V64.1151V64.1201Z" fill="#444444"/>
<path d="M42.5995 64.1201H42.0445V60.6101L41.2695 60.6601V60.2451L42.5995 60.0801V64.1151V64.1201Z" fill="#444444"/>
<path d="M45.9403 64.1201H45.3853V60.6101L44.6104 60.6601V60.2451L45.9403 60.0801V64.1151V64.1201Z" fill="#444444"/>
<path d="M50.0953 60.5651C49.6803 61.0951 49.3903 61.5951 49.2253 62.0701C49.0653 62.5401 48.9803 63.0801 48.9803 63.6851V64.1201H48.4203V63.6851C48.4203 63.0851 48.5153 62.5351 48.7103 62.0351C48.9053 61.5351 49.1803 61.0451 49.5403 60.5651H47.6553V60.1401H50.0853V60.5651H50.0953Z" fill="#444444"/>
<path d="M64.0054 60.5651C63.5904 61.0951 63.3004 61.5951 63.1354 62.0701C62.9754 62.5401 62.8904 63.0801 62.8904 63.6851V64.1201H62.3304V63.6851C62.3304 63.0851 62.4254 62.5351 62.6204 62.0351C62.8154 61.5351 63.0904 61.0451 63.4504 60.5651H61.5654V60.1401H63.9954V60.5651H64.0054Z" fill="#444444"/>
<path d="M66.3099 60.0802C66.4499 60.0802 66.5799 60.0952 66.7099 60.1252C66.8349 60.1552 66.9499 60.2002 67.0549 60.2502L66.9449 60.6552C66.8499 60.6052 66.7549 60.5702 66.6549 60.5452C66.5549 60.5202 66.4399 60.5052 66.3099 60.5052C66.0899 60.5052 65.9099 60.6102 65.7699 60.8152C65.6299 61.0202 65.5599 61.2902 65.5599 61.6252V61.9352C65.6549 61.8202 65.7749 61.7302 65.9099 61.6652C66.0449 61.6002 66.1999 61.5652 66.3649 61.5652C66.6749 61.5652 66.9149 61.6802 67.0899 61.9152C67.2649 62.1452 67.3499 62.4552 67.3499 62.8452C67.3499 63.2352 67.2449 63.5602 67.0349 63.8052C66.8249 64.0502 66.5449 64.1702 66.2049 64.1702C65.8649 64.1702 65.5699 64.0302 65.3449 63.7552C65.1199 63.4802 65.0049 63.1002 65.0049 62.6202V61.6652C65.0049 61.1952 65.1299 60.8152 65.3749 60.5202C65.6249 60.2252 65.9349 60.0752 66.3049 60.0752L66.3099 60.0802ZM66.1849 61.9802C66.0349 61.9802 65.9099 62.0152 65.7999 62.0852C65.6949 62.1552 65.6149 62.2552 65.5599 62.3752V62.6552C65.5599 62.9952 65.6199 63.2652 65.7399 63.4602C65.8599 63.6552 66.0149 63.7552 66.2049 63.7552C66.3949 63.7552 66.5349 63.6702 66.6399 63.5002C66.7449 63.3302 66.7999 63.1102 66.7999 62.8502C66.7999 62.5902 66.7449 62.3702 66.6399 62.2152C66.5349 62.0602 66.3849 61.9852 66.1899 61.9852L66.1849 61.9802Z" fill="#444444"/>
<path d="M70.5753 61.155C70.5753 61.36 70.5253 61.545 70.4203 61.7C70.3153 61.855 70.1753 61.975 70.0053 62.055C70.2103 62.135 70.3753 62.265 70.5003 62.435C70.6253 62.605 70.6853 62.805 70.6853 63.03C70.6853 63.395 70.5753 63.675 70.3553 63.875C70.1353 64.075 69.8503 64.175 69.5103 64.175C69.1703 64.175 68.8553 64.075 68.6253 63.875C68.3953 63.675 68.2803 63.39 68.2803 63.03C68.2803 62.805 68.3453 62.605 68.4703 62.435C68.5953 62.265 68.7703 62.14 68.9903 62.055C68.8053 61.975 68.6603 61.86 68.5503 61.7C68.4453 61.54 68.3903 61.36 68.3903 61.155C68.3903 60.81 68.4953 60.545 68.7003 60.36C68.9053 60.175 69.1753 60.085 69.5053 60.085C69.8353 60.085 70.0803 60.18 70.2803 60.36C70.4803 60.545 70.5803 60.81 70.5803 61.155H70.5753ZM70.1253 63.015C70.1253 62.795 70.0653 62.62 69.9453 62.48C69.8253 62.34 69.6803 62.27 69.5053 62.27C69.3153 62.27 69.1553 62.34 69.0303 62.48C68.9053 62.62 68.8403 62.795 68.8403 63.015C68.8403 63.235 68.9053 63.42 69.0303 63.555C69.1553 63.69 69.3153 63.755 69.5103 63.755C69.6903 63.755 69.8353 63.69 69.9553 63.555C70.0703 63.42 70.1303 63.24 70.1303 63.015H70.1253ZM70.0153 61.17C70.0153 60.975 69.9653 60.815 69.8703 60.695C69.7753 60.575 69.6503 60.51 69.5053 60.51C69.3403 60.51 69.2053 60.57 69.1053 60.685C69.0053 60.8 68.9503 60.965 68.9503 61.165C68.9503 61.365 69.0003 61.535 69.1053 61.655C69.2103 61.78 69.3453 61.84 69.5053 61.84C69.6553 61.84 69.7753 61.78 69.8703 61.655C69.9653 61.53 70.0153 61.365 70.0153 61.165V61.17Z" fill="#444444"/>
<path d="M73.6398 62.7601H74.0998V63.1851H73.6398V64.1201H73.0798V63.1851H71.5648L71.5498 62.8751L73.0598 60.1401H73.6398V62.7601ZM72.0998 62.7601H73.0798V60.9051H73.0648L72.9898 61.0701L72.0998 62.7601Z" fill="#444444"/>
<path d="M87.8848 61.155C87.8848 61.36 87.8349 61.545 87.7299 61.7C87.6249 61.855 87.4848 61.975 87.3148 62.055C87.5198 62.135 87.6848 62.265 87.8098 62.435C87.9348 62.605 87.9949 62.805 87.9949 63.03C87.9949 63.395 87.8848 63.675 87.6648 63.875C87.4448 64.075 87.1598 64.175 86.8198 64.175C86.4798 64.175 86.1648 64.075 85.9348 63.875C85.7048 63.675 85.5898 63.39 85.5898 63.03C85.5898 62.805 85.6548 62.605 85.7798 62.435C85.9048 62.265 86.0799 62.14 86.2999 62.055C86.1149 61.975 85.9698 61.86 85.8598 61.7C85.7548 61.54 85.6998 61.36 85.6998 61.155C85.6998 60.81 85.8048 60.545 86.0098 60.36C86.2148 60.175 86.4848 60.085 86.8148 60.085C87.1448 60.085 87.3898 60.18 87.5898 60.36C87.7898 60.545 87.8898 60.81 87.8898 61.155H87.8848ZM87.4348 63.015C87.4348 62.795 87.3748 62.62 87.2548 62.48C87.1348 62.34 86.9898 62.27 86.8148 62.27C86.6248 62.27 86.4648 62.34 86.3398 62.48C86.2148 62.62 86.1498 62.795 86.1498 63.015C86.1498 63.235 86.2148 63.42 86.3398 63.555C86.4648 63.69 86.6248 63.755 86.8198 63.755C86.9998 63.755 87.1448 63.69 87.2648 63.555C87.3798 63.42 87.4398 63.24 87.4398 63.015H87.4348ZM87.3248 61.17C87.3248 60.975 87.2748 60.815 87.1798 60.695C87.0848 60.575 86.9598 60.51 86.8148 60.51C86.6498 60.51 86.5148 60.57 86.4148 60.685C86.3148 60.8 86.2598 60.965 86.2598 61.165C86.2598 61.365 86.3098 61.535 86.4148 61.655C86.5198 61.78 86.6548 61.84 86.8148 61.84C86.9648 61.84 87.0848 61.78 87.1798 61.655C87.2748 61.53 87.3248 61.365 87.3248 61.165V61.17Z" fill="#444444"/>
<path d="M91.3248 64.12H89.0298V63.75L90.1548 62.275C90.3398 62.02 90.4648 61.81 90.5398 61.645C90.6098 61.48 90.6498 61.325 90.6498 61.17C90.6498 60.97 90.6048 60.805 90.5198 60.685C90.4348 60.565 90.2998 60.505 90.1298 60.505C89.9348 60.505 89.7898 60.58 89.6848 60.725C89.5798 60.875 89.5298 61.06 89.5298 61.29H88.9848L88.9748 61.275C88.9698 60.94 89.0698 60.66 89.2798 60.43C89.4898 60.2 89.7698 60.085 90.1248 60.085C90.4798 60.085 90.7298 60.185 90.9198 60.38C91.1098 60.575 91.2048 60.84 91.2048 61.175C91.2048 61.4 91.1448 61.615 91.0298 61.825C90.9148 62.035 90.7398 62.295 90.4998 62.595L89.7248 63.695H91.3198V64.115L91.3248 64.12Z" fill="#444444"/>
<path d="M94.625 62.705C94.625 63.16 94.52 63.52 94.305 63.785C94.09 64.05 93.81 64.18 93.46 64.18C93.11 64.18 92.82 64.05 92.61 63.785C92.4 63.52 92.29 63.16 92.29 62.705V61.56C92.29 61.11 92.395 60.75 92.605 60.485C92.815 60.22 93.1 60.085 93.455 60.085C93.81 60.085 94.095 60.22 94.305 60.485C94.515 60.75 94.625 61.11 94.625 61.565V62.71V62.705ZM94.065 61.48C94.065 61.18 94.01 60.945 93.905 60.77C93.8 60.595 93.65 60.51 93.455 60.51C93.26 60.51 93.115 60.595 93.01 60.77C92.905 60.945 92.85 61.18 92.85 61.48V62.78C92.85 63.08 92.905 63.32 93.01 63.495C93.115 63.67 93.265 63.755 93.46 63.755C93.655 63.755 93.8 63.67 93.905 63.495C94.01 63.32 94.06 63.085 94.06 62.78V61.48H94.065Z" fill="#444444"/>
<path d="M97.9649 62.705C97.9649 63.16 97.8599 63.52 97.6449 63.785C97.4299 64.05 97.1499 64.18 96.7999 64.18C96.4499 64.18 96.1599 64.05 95.9499 63.785C95.7399 63.52 95.6299 63.16 95.6299 62.705V61.56C95.6299 61.11 95.7349 60.75 95.9449 60.485C96.1549 60.22 96.4399 60.085 96.7949 60.085C97.1499 60.085 97.4349 60.22 97.6449 60.485C97.8549 60.75 97.9649 61.11 97.9649 61.565V62.71V62.705ZM97.4049 61.48C97.4049 61.18 97.3499 60.945 97.2449 60.77C97.1399 60.595 96.9899 60.51 96.7949 60.51C96.5999 60.51 96.4549 60.595 96.3499 60.77C96.2449 60.945 96.1899 61.18 96.1899 61.48V62.78C96.1899 63.08 96.2449 63.32 96.3499 63.495C96.4549 63.67 96.6049 63.755 96.7999 63.755C96.9949 63.755 97.1399 63.67 97.2449 63.495C97.3499 63.32 97.3999 63.085 97.3999 62.78V61.48H97.4049Z" fill="#444444"/>
<path d="M35.4598 46.1102H34.0898V43.4802H35.4598V46.1102ZM35.2048 45.8902V43.7052H34.3448V45.8902H35.2048ZM36.3748 43.4302V46.3102H36.1148V43.4302H36.3748Z" fill="#58595B"/>
<path d="M37.78 46.1102H37V44.6702H37.745V43.7052H37V43.4802H38V44.8952H37.25V45.8902H37.825C38.085 45.8902 38.29 45.8302 38.42 45.7152V43.4452H38.67V44.6202H39.09V43.4302H39.34V46.3152H39.09V44.8452H38.67V46.2852H38.42V45.9302C38.29 46.0552 38.07 46.1152 37.78 46.1152V46.1102Z" fill="#58595B"/>
<path d="M39.8252 45.005V44.795H42.4202V45.005H39.8252ZM40.2802 44.095V44.35H42.2452V44.545H40.0252V43.9H41.9702V43.66H40.0252V43.46H42.2252V44.095H40.2802ZM40.2802 45.895V46.155H42.2952V46.345H40.0252V45.705H41.9702V45.455H40.0252V45.26H42.2252V45.89H40.2802V45.895Z" fill="#58595B"/>
<path d="M44.5346 45.4352V46.3152H44.2796V45.4352H43.5596V45.2102H45.0646C45.3246 45.2102 45.5596 45.1552 45.7196 45.0352V43.4302H45.9746V46.3152H45.7196V45.2502C45.5746 45.3702 45.3196 45.4352 44.9996 45.4352H44.5346ZM43.6846 44.1652C43.6846 43.9252 43.7696 43.7352 43.9146 43.6152C44.0496 43.5002 44.2346 43.4452 44.4546 43.4452C44.6746 43.4452 44.8646 43.5052 44.9946 43.6152C45.1446 43.7352 45.2296 43.9252 45.2296 44.1652C45.2296 44.4052 45.1446 44.5902 44.9946 44.7152C44.8646 44.8252 44.6746 44.8852 44.4546 44.8852C44.2346 44.8852 44.0496 44.8252 43.9146 44.7152C43.7646 44.5952 43.6846 44.4002 43.6846 44.1652ZM43.9396 44.1652C43.9396 44.3202 43.9896 44.4402 44.0796 44.5252C44.1696 44.6102 44.2996 44.6552 44.4546 44.6552C44.6096 44.6552 44.7396 44.6052 44.8296 44.5252C44.9196 44.4402 44.9696 44.3202 44.9696 44.1652C44.9696 44.0102 44.9196 43.8852 44.8296 43.7952C44.7396 43.7152 44.6146 43.6702 44.4546 43.6702C44.2946 43.6702 44.1696 43.7152 44.0796 43.7952C43.9896 43.8802 43.9396 44.0002 43.9396 44.1652Z" fill="#58595B"/>
<path d="M46.415 43.89V43.675H47.11V43.335H47.365V43.675H48.05V43.89H46.415ZM46.505 44.71C46.505 44.535 46.58 44.39 46.71 44.295C46.84 44.195 47.025 44.14 47.235 44.14C47.445 44.14 47.63 44.195 47.765 44.295C47.895 44.39 47.97 44.535 47.97 44.71C47.97 44.885 47.895 45.025 47.765 45.125C47.635 45.225 47.45 45.28 47.235 45.28C47.02 45.28 46.84 45.225 46.71 45.125C46.58 45.03 46.505 44.885 46.505 44.71ZM46.945 45.5V46.105H48.855V46.325H46.69V45.5H46.945ZM46.76 44.71C46.76 44.815 46.805 44.895 46.88 44.96C46.97 45.03 47.095 45.07 47.235 45.07C47.375 45.07 47.505 45.03 47.595 44.96C47.67 44.895 47.715 44.815 47.715 44.71C47.715 44.605 47.67 44.525 47.595 44.46C47.505 44.385 47.375 44.345 47.235 44.345C47.095 44.345 46.97 44.385 46.88 44.46C46.805 44.52 46.76 44.605 46.76 44.71ZM48.8 43.425V44.275H49.24V44.505H48.8V45.52H48.545V43.425H48.8Z" fill="#58595B"/>
<path d="M50.4855 44.1348H51.5355V44.3498H50.4855V44.8248H51.4705C51.8355 44.8248 52.0905 44.7848 52.2505 44.6648V43.4248H52.5055V44.1698H52.9455V44.3948H52.5055V45.1698H52.2505V44.8748C52.1055 44.9948 51.8655 45.0448 51.5355 45.0448H50.2305V43.4598H51.6105V43.6798H50.4855V44.1398V44.1348ZM50.3555 45.4348H52.5055V46.3598H52.2505V45.6598H50.3555V45.4348Z" fill="#58595B"/>
<path d="M53.98 44.6248V45.0748H53.72V44.6248H53.085V44.4198H54.425C54.635 44.4198 54.86 44.3948 55.02 44.3448V44.5398C54.835 44.6148 54.565 44.6248 54.29 44.6248H53.985H53.98ZM53.205 43.8198C53.205 43.6898 53.27 43.5948 53.37 43.5348C53.515 43.4398 53.745 43.4048 53.98 43.4048C54.215 43.4048 54.44 43.4398 54.59 43.5348C54.695 43.5998 54.755 43.6948 54.755 43.8198C54.755 43.9398 54.695 44.0348 54.59 44.0998C54.44 44.1948 54.215 44.2298 53.98 44.2298C53.745 44.2298 53.515 44.1898 53.37 44.0998C53.265 44.0348 53.205 43.9398 53.205 43.8198ZM53.635 46.1498H55.555V46.3398H53.375V45.6898H55.26V45.4148H53.375V45.2198H55.515V45.8748H53.635V46.1498ZM53.455 43.8198C53.455 43.8748 53.48 43.9198 53.535 43.9498C53.63 44.0198 53.8 44.0348 53.98 44.0348C54.16 44.0348 54.335 44.0148 54.43 43.9498C54.48 43.9198 54.505 43.8748 54.505 43.8198C54.505 43.7648 54.48 43.7198 54.43 43.6848C54.335 43.6198 54.16 43.5998 53.98 43.5998C53.8 43.5998 53.625 43.6248 53.535 43.6848C53.48 43.7198 53.455 43.7648 53.455 43.8198ZM55.515 45.0748H55.255V44.9548H54.59V44.7598H55.255V43.4198H55.515V45.0748Z" fill="#58595B"/>
<path d="M55.9805 43.89V43.675H56.6755V43.335H56.9305V43.675H57.6155V43.89H55.9805ZM56.0705 44.71C56.0705 44.535 56.1455 44.39 56.2755 44.295C56.4055 44.195 56.5905 44.14 56.8005 44.14C57.0105 44.14 57.1955 44.195 57.3305 44.295C57.4605 44.39 57.5355 44.535 57.5355 44.71C57.5355 44.885 57.4605 45.025 57.3305 45.125C57.2005 45.225 57.0155 45.28 56.8005 45.28C56.5855 45.28 56.4055 45.225 56.2755 45.125C56.1455 45.03 56.0705 44.885 56.0705 44.71ZM56.5105 45.5V46.105H58.4205V46.325H56.2555V45.5H56.5105ZM56.3255 44.71C56.3255 44.815 56.3705 44.895 56.4455 44.96C56.5355 45.03 56.6605 45.07 56.8005 45.07C56.9405 45.07 57.0705 45.03 57.1605 44.96C57.2355 44.895 57.2805 44.815 57.2805 44.71C57.2805 44.605 57.2355 44.525 57.1605 44.46C57.0705 44.385 56.9405 44.345 56.8005 44.345C56.6605 44.345 56.5355 44.385 56.4455 44.46C56.3705 44.52 56.3255 44.605 56.3255 44.71ZM58.3655 43.425V44.275H58.8055V44.505H58.3655V45.52H58.1055V43.425H58.3655Z" fill="#58595B"/>
<path d="M60.66 43.4398V43.9548C60.66 44.4498 60.975 44.7348 61.34 44.8498V45.0798C60.965 44.9798 60.66 44.7498 60.525 44.4798C60.415 44.7548 60.105 45.0098 59.71 45.1148V44.8798C60.09 44.7598 60.395 44.4398 60.395 43.9498V43.4348H60.655L60.66 43.4398ZM62.2 46.3198H60.005V45.3748H60.265V46.0948H62.2V46.3148V46.3198ZM62.145 45.4298H61.89V44.2198H61.21V43.9948H61.89V43.4248H62.145V45.4348V45.4298Z" fill="#58595B"/>
<path d="M62.9904 44.1548H63.7504V44.3698H62.9904V44.8648H63.5554C63.8504 44.8648 64.0553 44.8248 64.2003 44.7248V43.4398H64.4454V44.1448H64.8704V43.4248H65.1204V45.1698H64.8704V44.3748H64.4454V45.1548H64.2003V44.9348C64.0703 45.0298 63.8704 45.0798 63.5804 45.0798H62.7354V43.4598H63.7803V43.6748H62.9904V44.1548ZM64.8653 46.3598V45.6598H62.9254V45.4348H65.1254V46.3598H64.8653Z" fill="#58595B"/>
<path d="M65.9754 46.1349H65.6904V45.7849H65.9754V46.1349ZM65.9454 45.4149H65.7254L65.6954 44.0499V43.6099H65.9704V44.0499L65.9454 45.4149Z" fill="#58595B"/>
<path d="M67.2803 43.4598H68.7403V43.6848H68.1404V44.0348C68.1404 44.5248 68.4453 44.7748 68.7953 44.8598V45.0898C68.4453 45.0198 68.1503 44.8148 68.0203 44.5398C67.8903 44.8148 67.5904 45.0598 67.2354 45.1248V44.8948C67.5904 44.8148 67.8854 44.5248 67.8854 44.0298V43.6798H67.2854V43.4548L67.2803 43.4598ZM69.6553 46.3248H67.4604V45.3798H67.7204V46.0998H69.6553V46.3198V46.3248ZM69.6003 45.4348H69.3454V44.3498H68.7003V44.1248H69.3454V43.4248H69.6003V45.4348Z" fill="#58595B"/>
<path d="M71.4548 46.1102H70.2148V44.6702H71.2798V43.7052H70.2148V43.4802H71.5398V44.8952H70.4698V45.8902H71.4949C71.7899 45.8902 72.0448 45.8152 72.1948 45.6702V43.4302H72.4548V44.6402H72.9249V44.8652H72.4548V46.3152H72.1948V45.8852C72.0548 46.0302 71.7748 46.1102 71.4548 46.1102Z" fill="#58595B"/>
<path d="M73.0449 45.14V44.92H75.6399V45.14H74.4699V45.56H75.4399V46.36H75.1849V45.78H73.2199V45.56H74.2099V45.14H73.0449ZM73.4999 43.8H75.1849V43.46H75.4399V44.61H73.2399V43.46H73.4949V43.8H73.4999ZM75.1849 44.385V44.02H73.4999V44.385H75.1849Z" fill="#58595B"/>
<path d="M78.3951 43.705H76.4051V44.825H78.4251V45.055H77.4101V45.96H78.5551V46.185H75.9951V45.96H77.1501V45.055H76.1501V43.48H78.4001V43.705H78.3951Z" fill="#58595B"/>
<path d="M79.6797 45.2598V45.0398H82.2747V45.2598H79.6797ZM81.8197 46.3598V45.8048H79.8547V45.5898H82.0797V46.3598H81.8247H81.8197ZM80.1347 44.1948V44.5098H82.0997V44.7248H79.8797V43.4648H82.0797V43.6798H80.1347V43.9898H82.0447V44.1998H80.1347V44.1948Z" fill="#58595B"/>
<path d="M83.5398 43.4398V43.8148C83.5398 44.3098 83.8548 44.5898 84.2198 44.7098V44.9398C83.8448 44.8398 83.5398 44.6098 83.4048 44.3398C83.2948 44.6148 82.9848 44.8698 82.5898 44.9748V44.7398C82.9698 44.6198 83.2748 44.2998 83.2748 43.8148V43.4398H83.5349H83.5398ZM83.9648 46.3798C83.6148 46.3798 83.2898 46.3298 83.0798 46.1948C82.9298 46.0998 82.8398 45.9648 82.8398 45.7848C82.8398 45.6048 82.9298 45.4698 83.0798 45.3698C83.2898 45.2348 83.6148 45.1798 83.9648 45.1798C84.3148 45.1798 84.6449 45.2348 84.8549 45.3698C84.9999 45.4648 85.0948 45.5998 85.0948 45.7848C85.0948 45.9698 84.9999 46.0998 84.8549 46.1948C84.6449 46.3348 84.3148 46.3798 83.9648 46.3798ZM83.9648 45.4048C83.6648 45.4048 83.3948 45.4498 83.2348 45.5498C83.1498 45.6098 83.0998 45.6848 83.0998 45.7798C83.0998 45.8748 83.1498 45.9498 83.2348 46.0098C83.3948 46.1098 83.6648 46.1548 83.9648 46.1548C84.2648 46.1548 84.5398 46.1098 84.6898 46.0098C84.7798 45.9498 84.8298 45.8748 84.8298 45.7798C84.8298 45.6848 84.7798 45.6048 84.6898 45.5498C84.5348 45.4498 84.2598 45.4048 83.9648 45.4048ZM85.0248 45.0648H84.7698V44.1998H84.0898V43.9798H84.7698V43.4248H85.0248V45.0648Z" fill="#58595B"/>
<path d="M85.6946 44.81C85.6946 44.625 85.7596 44.47 85.8846 44.36C86.0046 44.24 86.1896 44.175 86.4046 44.175C86.6196 44.175 86.7996 44.245 86.9246 44.36C87.0446 44.47 87.1146 44.625 87.1146 44.81C87.1146 44.995 87.0446 45.15 86.9246 45.26C86.8246 45.355 86.6896 45.415 86.5296 45.435V45.915H86.9496C87.2346 45.915 87.4796 45.85 87.6146 45.73V43.42H87.8746V44.63H88.3446V44.855H87.8746V46.3H87.6146V45.945C87.4746 46.07 87.2196 46.135 86.9096 46.135H85.5596V45.91H86.2696V45.43C86.1096 45.405 85.9746 45.345 85.8796 45.255C85.7596 45.145 85.6896 44.99 85.6896 44.805L85.6946 44.81ZM86.5296 43.335V43.7H87.1946V43.925H85.6096V43.7H86.2696V43.335H86.5296ZM85.9546 44.81C85.9546 44.925 85.9946 45.025 86.0696 45.105C86.1496 45.18 86.2646 45.23 86.4046 45.23C86.5446 45.23 86.6596 45.18 86.7396 45.105C86.8146 45.03 86.8546 44.93 86.8546 44.81C86.8546 44.69 86.8146 44.59 86.7396 44.515C86.6596 44.435 86.5446 44.385 86.4046 44.385C86.2646 44.385 86.1496 44.435 86.0696 44.515C85.9946 44.59 85.9546 44.69 85.9546 44.81Z" fill="#58595B"/>
<path d="M88.4854 46.1801V45.9551H89.3854V44.5551H89.6453V45.9551H91.0453V46.1801H88.4854ZM90.6303 44.5051V43.7001H88.6204V43.4751H90.8854V44.4601C90.8854 44.7901 90.8603 45.1501 90.8103 45.4051H90.5554C90.6004 45.1551 90.6303 44.8101 90.6303 44.5101V44.5051Z" fill="#58595B"/>
<path d="M91.9446 44.5752V44.9602H91.6396V44.5752H91.9446Z" fill="#58595B"/>
<path d="M94 46.1102H92.625V43.4802H94V46.1102ZM93.745 45.8902V43.7052H92.88V45.8902H93.745ZM94.865 43.4302V44.6402H95.335V44.8652H94.865V46.3152H94.605V43.4302H94.865Z" fill="#58595B"/>
<path d="M95.54 44.7898C95.54 44.2498 95.605 43.8498 95.795 43.6298C95.905 43.4998 96.07 43.4248 96.275 43.4248C96.48 43.4248 96.64 43.4948 96.755 43.6298C96.95 43.8498 97.01 44.2498 97.01 44.7898C97.01 45.3298 96.95 45.7298 96.755 45.9498C96.64 46.0848 96.475 46.1448 96.275 46.1448C96.075 46.1448 95.91 46.0848 95.795 45.9498C95.6 45.7298 95.54 45.3298 95.54 44.7898ZM96.755 44.7898C96.755 44.2998 96.71 43.9498 96.565 43.7798C96.495 43.6948 96.4 43.6498 96.275 43.6498C96.15 43.6498 96.055 43.6948 95.98 43.7798C95.84 43.9498 95.795 44.2998 95.795 44.7898C95.795 45.2798 95.845 45.6298 95.98 45.7998C96.055 45.8848 96.155 45.9248 96.275 45.9248C96.395 45.9248 96.495 45.8848 96.565 45.7998C96.71 45.6298 96.755 45.2748 96.755 44.7898ZM97.86 43.4248V46.3048H97.6V43.4248H97.86Z" fill="#58595B"/>
<path d="M98.4004 46.18V45.955H100.96V46.18H98.4004ZM99.6804 44.32C99.5004 44.7 99.1004 45.045 98.4504 45.17V44.94C99.1154 44.79 99.5454 44.36 99.5454 43.73V43.46H99.8054V43.73C99.8054 44.36 100.255 44.795 100.905 44.94V45.17C100.26 45.04 99.8554 44.7 99.6754 44.32H99.6804Z" fill="#58595B"/>
<path d="M101.69 44.6648H102.675V44.8898H101.69V45.8848H102.485C102.725 45.8848 102.96 45.8598 103.12 45.7898V46.0048C102.965 46.0798 102.725 46.1098 102.475 46.1098H101.435V43.4798H102.785V43.7048H101.69V44.6698V44.6648ZM103.72 43.4248V46.3098H103.46V44.8548H102.855V44.6248H103.46V43.4248H103.72Z" fill="#58595B"/>
<path d="M104.26 46.1801V45.9551H105.16V44.5551H105.42V45.9551H106.82V46.1801H104.26ZM106.405 44.5051V43.7001H104.395V43.4751H106.66V44.4601C106.66 44.7901 106.635 45.1501 106.585 45.4051H106.33C106.375 45.1551 106.405 44.8101 106.405 44.5101V44.5051Z" fill="#58595B"/>
<path d="M46.6204 29.5102V29.7552C46.6204 29.8802 46.5954 30.1052 46.5404 30.4352L46.0604 33.4502C46.0404 33.5852 45.9604 33.6552 45.8204 33.6552H45.1754C45.0054 33.6552 44.9304 33.5602 44.9604 33.3802L45.4804 30.3302C45.4954 30.2502 45.5054 30.1702 45.5154 30.1002H44.1754C44.0204 30.1002 43.9404 30.0252 43.9404 29.8702V29.4652C43.9404 29.3102 44.0204 29.2352 44.1754 29.2352H46.3454C46.5304 29.2352 46.6254 29.3302 46.6254 29.5152L46.6204 29.5102ZM48.6554 31.7202H48.3954V33.4702C48.3954 33.6302 48.3154 33.7052 48.1604 33.7052H47.4704C47.3154 33.7052 47.2354 33.6252 47.2354 33.4702V29.3102C47.2354 29.1502 47.3154 29.0752 47.4704 29.0752H48.1604C48.3154 29.0752 48.3954 29.1552 48.3954 29.3102V30.8052H48.6554C48.7754 30.8052 48.8354 30.8652 48.8354 30.9852V31.5402C48.8354 31.6602 48.7754 31.7202 48.6554 31.7202Z" fill="#4EB4BD"/>
<path d="M50.8803 33.46L50.3753 31.18L49.8653 33.46C49.8353 33.59 49.7553 33.655 49.6253 33.655H49.0803C48.9003 33.655 48.8303 33.565 48.8703 33.38L49.6003 30.28H49.0903C48.9353 30.28 48.8603 30.205 48.8603 30.05V29.645C48.8603 29.49 48.9353 29.415 49.0903 29.415H49.8053V29.245C49.8053 29.095 49.8803 29.02 50.0303 29.02H50.6903C50.8403 29.02 50.9153 29.095 50.9153 29.245V29.415H51.6203C51.7753 29.415 51.8503 29.49 51.8503 29.645V30.05C51.8503 30.205 51.7753 30.28 51.6203 30.28H51.1203L51.8503 33.38C51.8903 33.56 51.8203 33.655 51.6403 33.655H51.1203C50.9853 33.655 50.9053 33.59 50.8803 33.46ZM53.5303 29.31V33.47C53.5303 33.63 53.4503 33.705 53.2953 33.705H52.6053C52.4503 33.705 52.3703 33.625 52.3703 33.47V29.31C52.3703 29.15 52.4503 29.075 52.6053 29.075H53.2953C53.4503 29.075 53.5303 29.155 53.5303 29.31Z" fill="#4EB4BD"/>
<path d="M53.9748 30.8052V30.0452C53.9748 29.7802 54.0598 29.5602 54.2398 29.3802C54.4198 29.2002 54.6448 29.1052 54.9098 29.1052H55.9048C56.1648 29.1052 56.3848 29.2002 56.5648 29.3852C56.7448 29.5702 56.8348 29.7902 56.8398 30.0452V30.8052C56.8398 31.0602 56.7448 31.2802 56.5648 31.4652C56.3848 31.6502 56.1648 31.7452 55.9048 31.7452H54.9098C54.6448 31.7452 54.4198 31.6552 54.2398 31.4702C54.0598 31.2852 53.9698 31.0652 53.9748 30.8052ZM58.6248 33.4102C58.6998 33.6052 58.6398 33.7052 58.4398 33.7102H57.9248C57.7898 33.7102 57.6948 33.6452 57.6398 33.5202L57.3398 32.8002L57.0398 33.5202C56.9898 33.6452 56.8948 33.7102 56.7548 33.7102H56.0398C55.9048 33.7102 55.8098 33.6452 55.7548 33.5202L55.4548 32.7952L55.1498 33.5202C55.0998 33.6452 55.0048 33.7102 54.8648 33.7102H54.3498C54.1498 33.7102 54.0898 33.6052 54.1648 33.4102L54.6948 32.1302C54.7448 32.0052 54.8398 31.9452 54.9748 31.9452H55.8248C55.9598 31.9452 56.0498 32.0052 56.1048 32.1302L56.3948 32.8302L56.6848 32.1302C56.7348 32.0052 56.8298 31.9452 56.9648 31.9452H57.8098C57.9448 31.9452 58.0348 32.0052 58.0898 32.1302L58.6198 33.4102H58.6248ZM55.0048 30.8252C55.0048 30.8952 55.0198 30.9502 55.0548 30.9852C55.0898 31.0202 55.1398 31.0352 55.2098 31.0352H55.6198C55.6898 31.0352 55.7398 31.0152 55.7748 30.9852C55.8098 30.9502 55.8248 30.8952 55.8248 30.8252V30.0302C55.8248 29.9602 55.8048 29.9052 55.7748 29.8702C55.7398 29.8352 55.6898 29.8152 55.6198 29.8152H55.2098C55.1398 29.8152 55.0898 29.8352 55.0548 29.8702C55.0198 29.9052 55.0048 29.9602 55.0048 30.0302V30.8252ZM58.5548 29.3102V31.5302C58.5548 31.6902 58.4748 31.7652 58.3198 31.7652H57.6298C57.4748 31.7652 57.3948 31.6852 57.3948 31.5302V29.3102C57.3948 29.1502 57.4748 29.0752 57.6298 29.0752H58.3198C58.4748 29.0752 58.5548 29.1552 58.5548 29.3102Z" fill="#4EB4BD"/>
<path d="M63.3702 32.04H59.3102C59.1552 32.04 59.0752 31.97 59.0752 31.83V31.38C59.0752 31.24 59.1552 31.17 59.3102 31.17H63.3702C63.5252 31.17 63.6052 31.24 63.6052 31.38V31.83C63.6052 31.97 63.5252 32.04 63.3702 32.04ZM59.1902 33.44V32.465C59.1902 32.315 59.2652 32.24 59.4202 32.24H60.1252C60.2802 32.24 60.3552 32.315 60.3552 32.465V32.865H63.2552C63.4102 32.865 63.4852 32.935 63.4852 33.08V33.49C63.4852 33.635 63.4102 33.705 63.2552 33.705H59.4552C59.2802 33.705 59.1952 33.615 59.1952 33.44H59.1902ZM59.1952 30.625V29.345C59.1952 29.2 59.2752 29.125 59.4302 29.125H60.1202C60.2752 29.125 60.3552 29.2 60.3552 29.345V30.035H63.2402C63.3952 30.035 63.4752 30.11 63.4752 30.255V30.655C63.4752 30.8 63.3952 30.875 63.2402 30.875H59.4552C59.2802 30.875 59.1952 30.795 59.1952 30.63V30.625Z" fill="#4EB4BD"/>
<path d="M65.385 30.9602V30.0952C65.385 29.8302 65.47 29.6102 65.65 29.4302C65.83 29.2502 66.055 29.1552 66.32 29.1552H67.315C67.575 29.1552 67.795 29.2502 67.975 29.4352C68.155 29.6202 68.245 29.8402 68.25 30.0952V30.9602C68.25 31.2152 68.155 31.4352 67.975 31.6202C67.795 31.8052 67.575 31.9002 67.315 31.9002H66.32C66.055 31.9002 65.83 31.8102 65.65 31.6252C65.47 31.4402 65.38 31.2202 65.385 30.9602ZM65.645 33.4452V32.3852C65.645 32.2352 65.72 32.1602 65.875 32.1602H66.58C66.735 32.1602 66.81 32.2352 66.81 32.3852V32.9202H69.79C69.945 32.9202 70.02 32.9902 70.02 33.1352V33.4902C70.02 33.6352 69.945 33.7052 69.79 33.7052H65.91C65.735 33.7052 65.65 33.6152 65.65 33.4402L65.645 33.4452ZM66.415 30.9552C66.415 31.0252 66.43 31.0802 66.465 31.1152C66.5 31.1502 66.55 31.1652 66.62 31.1652H67.03C67.1 31.1652 67.15 31.1502 67.185 31.1152C67.22 31.0802 67.235 31.0252 67.235 30.9552V30.1102C67.235 30.0402 67.215 29.9852 67.185 29.9502C67.155 29.9152 67.1 29.8952 67.03 29.8952H66.62C66.55 29.8952 66.5 29.9152 66.465 29.9502C66.43 29.9852 66.415 30.0402 66.415 30.1102V30.9552ZM69.965 29.3102V32.0052C69.965 32.1652 69.885 32.2402 69.73 32.2402H69.04C68.885 32.2402 68.805 32.1602 68.805 32.0052V29.3102C68.805 29.1502 68.885 29.0752 69.04 29.0752H69.73C69.885 29.0752 69.965 29.1552 69.965 29.3102Z" fill="#4EB4BD"/>
<path d="M72.4353 29.1802C72.5753 29.1802 72.6453 29.2602 72.6453 29.4152V29.8102C72.6453 29.9702 72.5753 30.0452 72.4353 30.0452H72.1303L72.6653 33.4102C72.6853 33.5702 72.6203 33.6502 72.4703 33.6502H72.0003C71.8803 33.6502 71.8103 33.5902 71.7903 33.4652L71.5003 31.4202L71.2103 33.4652C71.1903 33.5852 71.1253 33.6502 71.0003 33.6502H70.5053C70.3553 33.6502 70.2903 33.5702 70.3103 33.4102L70.8453 30.0452H70.4903C70.3503 30.0452 70.2803 29.9652 70.2803 29.8102V29.4152C70.2803 29.2552 70.3503 29.1802 70.4903 29.1802H72.4303H72.4353ZM75.0503 29.3102V33.4702C75.0503 33.6302 74.9803 33.7052 74.8353 33.7052H74.2803C74.1403 33.7052 74.0703 33.6252 74.0703 33.4702V31.6952H73.7503V33.4702C73.7503 33.6302 73.6803 33.7052 73.5403 33.7052H73.0103C72.8753 33.7052 72.8053 33.6252 72.8053 33.4702V29.3102C72.8053 29.1502 72.8753 29.0752 73.0103 29.0752H73.5403C73.6803 29.0752 73.7503 29.1552 73.7503 29.3102V30.8002H74.0703V29.3102C74.0703 29.1502 74.1403 29.0752 74.2803 29.0752H74.8353C74.9803 29.0752 75.0503 29.1552 75.0503 29.3102Z" fill="#4EB4BD"/>
<path d="M36.7347 36.7301H34.2697C34.1247 36.7301 34.0547 36.6601 34.0547 36.5151V36.2051C34.0547 36.0601 34.1247 35.9901 34.2697 35.9901H34.9747V35.9201C34.9747 35.7751 35.0447 35.7051 35.1897 35.7051H35.8697C36.0147 35.7051 36.0847 35.7751 36.0847 35.9201V35.9901H36.7347C36.8797 35.9901 36.9497 36.0601 36.9497 36.2051V36.5151C36.9497 36.6601 36.8797 36.7301 36.7347 36.7301ZM34.0797 37.6201C34.0797 37.4101 34.1447 37.2401 34.2797 37.1051C34.4147 36.9701 34.5847 36.9051 34.7897 36.9051H36.2047C36.4097 36.9051 36.5797 36.9701 36.7147 37.1051C36.8497 37.2401 36.9147 37.4101 36.9147 37.6201V37.8451C36.9147 38.0551 36.8497 38.2251 36.7147 38.3601C36.5797 38.4951 36.4097 38.5601 36.2047 38.5601H34.7897C34.5847 38.5601 34.4147 38.4951 34.2797 38.3601C34.1447 38.2251 34.0797 38.0551 34.0797 37.8451V37.6201ZM38.3147 40.3951H34.5297C34.3697 40.3951 34.2897 40.3151 34.2897 40.1601V39.0001C34.2897 38.8401 34.3697 38.7651 34.5297 38.7651H38.3147C38.4747 38.7651 38.5547 38.8451 38.5547 39.0001V40.1601C38.5547 40.3201 38.4747 40.3951 38.3147 40.3951ZM35.8197 37.5451H35.2047C35.1747 37.5451 35.1447 37.5551 35.1197 37.5801C35.0947 37.6051 35.0847 37.6351 35.0847 37.6651V37.7401C35.0847 37.7701 35.0947 37.8001 35.1197 37.8251C35.1447 37.8501 35.1697 37.8601 35.2047 37.8601H35.8197C35.8497 37.8601 35.8797 37.8501 35.9047 37.8251C35.9297 37.8001 35.9397 37.7701 35.9397 37.7401V37.6651C35.9397 37.6351 35.9297 37.6051 35.9047 37.5801C35.8797 37.5551 35.8547 37.5451 35.8197 37.5451ZM37.4447 39.4351H35.3997V39.6901H37.4447V39.4351ZM38.5547 36.0001V36.7301H38.8347C38.9447 36.7301 38.9997 36.7851 38.9997 36.8951V37.3451C38.9997 37.4551 38.9447 37.5101 38.8347 37.5101H38.5547V38.3551C38.5547 38.5151 38.4747 38.5901 38.3197 38.5901H37.6297C37.4747 38.5901 37.3947 38.5101 37.3947 38.3551V36.0001C37.3947 35.8401 37.4747 35.7651 37.6297 35.7651H38.3197C38.4747 35.7651 38.5547 35.8451 38.5547 36.0001Z" fill="#005AA9"/>
<path d="M39.3649 36.7548H39.2099C39.0749 36.7548 39.0049 36.6748 39.0049 36.5198V36.1498C39.0049 35.9898 39.0749 35.9148 39.2099 35.9148H40.0349C40.1899 35.9148 40.2649 35.9948 40.2649 36.1598V36.5448C40.2649 36.5798 40.2549 36.7698 40.2299 37.1198L40.0199 40.1348C40.0099 40.2698 39.9449 40.3398 39.8199 40.3398H39.3299C39.1799 40.3398 39.1099 40.2498 39.1249 40.0648L39.3449 37.0148C39.3499 36.9148 39.3599 36.8298 39.3649 36.7598V36.7548ZM40.6349 36.7548H40.5599C40.4199 36.7548 40.3499 36.6748 40.3499 36.5198V36.1498C40.3499 35.9898 40.4199 35.9148 40.5599 35.9148H41.2999C41.4549 35.9148 41.5299 35.9948 41.5299 36.1598V36.5448C41.5299 36.5798 41.5199 36.7698 41.4949 37.1198L41.4649 37.5498H41.7599V35.9948C41.7599 35.8348 41.8249 35.7598 41.9599 35.7598H42.4499C42.5849 35.7598 42.6499 35.8398 42.6499 35.9948V40.1548C42.6499 40.3148 42.5849 40.3898 42.4499 40.3898H41.9599C41.8249 40.3898 41.7599 40.3098 41.7599 40.1548V38.4448H41.4049L41.2899 40.1348C41.2799 40.2698 41.2099 40.3398 41.0849 40.3398H40.6049C40.4549 40.3398 40.3849 40.2498 40.3999 40.0648L40.6199 37.0148C40.6249 36.9148 40.6349 36.8298 40.6399 36.7598L40.6349 36.7548ZM42.8199 40.1548V35.9948C42.8199 35.8348 42.8899 35.7598 43.0249 35.7598H43.5449C43.6799 35.7598 43.7499 35.8398 43.7499 35.9948V40.1548C43.7499 40.3148 43.6799 40.3898 43.5449 40.3898H43.0249C42.8899 40.3898 42.8199 40.3098 42.8199 40.1548Z" fill="#005AA9"/>
<path d="M46.7197 36.9651H44.2847C44.1297 36.9651 44.0547 36.8901 44.0547 36.7351V36.3301C44.0547 36.1751 44.1297 36.1001 44.2847 36.1001H44.9697V35.9301C44.9697 35.7801 45.0447 35.7051 45.1947 35.7051H45.8547C46.0047 35.7051 46.0797 35.7801 46.0797 35.9301V36.1001H46.7147C46.8697 36.1001 46.9447 36.1751 46.9447 36.3301V36.7351C46.9447 36.8901 46.8697 36.9651 46.7147 36.9651H46.7197ZM44.1097 39.4501V38.2901C44.1097 38.0251 44.1947 37.8051 44.3747 37.6251C44.5547 37.4451 44.7797 37.3501 45.0447 37.3501H45.9647C46.2247 37.3501 46.4447 37.4451 46.6247 37.6301C46.8047 37.8151 46.8947 38.0351 46.8997 38.2901V39.4501C46.8997 39.7051 46.8047 39.9251 46.6247 40.1101C46.4447 40.2951 46.2247 40.3901 45.9647 40.3901H45.0447C44.7797 40.3901 44.5547 40.3001 44.3747 40.1151C44.1947 39.9351 44.1047 39.7101 44.1097 39.4501ZM45.1147 39.3351C45.1147 39.4101 45.1347 39.4651 45.1797 39.5101C45.2247 39.5551 45.2797 39.5751 45.3547 39.5751H45.6897C45.7647 39.5751 45.8197 39.5551 45.8647 39.5101C45.9097 39.4651 45.9297 39.4101 45.9297 39.3351V38.3801C45.9297 38.3051 45.9097 38.2501 45.8647 38.2051C45.8197 38.1601 45.7647 38.1401 45.6897 38.1401H45.3547C45.2797 38.1401 45.2247 38.1601 45.1797 38.2051C45.1347 38.2501 45.1147 38.3051 45.1147 38.3801V39.3351ZM48.8797 38.4051H48.6197V40.1551C48.6197 40.3151 48.5397 40.3901 48.3847 40.3901H47.6947C47.5397 40.3901 47.4597 40.3101 47.4597 40.1551V35.9951C47.4597 35.8351 47.5397 35.7601 47.6947 35.7601H48.3847C48.5397 35.7601 48.6197 35.8401 48.6197 35.9951V37.4901H48.8797C48.9997 37.4901 49.0597 37.5501 49.0597 37.6701V38.2251C49.0597 38.3451 48.9997 38.4051 48.8797 38.4051Z" fill="#005AA9"/>
<path d="M53.5352 38.7251H49.4752C49.3202 38.7251 49.2402 38.6551 49.2402 38.5151V38.0651C49.2402 37.9251 49.3202 37.8551 49.4752 37.8551H53.5352C53.6902 37.8551 53.7702 37.9251 53.7702 38.0651V38.5151C53.7702 38.6551 53.6902 38.7251 53.5352 38.7251ZM49.3552 40.1251V39.1501C49.3552 39.0001 49.4302 38.9251 49.5852 38.9251H50.2902C50.4452 38.9251 50.5202 39.0001 50.5202 39.1501V39.5501H53.4202C53.5752 39.5501 53.6502 39.6201 53.6502 39.7651V40.1751C53.6502 40.3201 53.5752 40.3901 53.4202 40.3901H49.6202C49.4452 40.3901 49.3602 40.3001 49.3602 40.1251H49.3552ZM49.3602 37.3101V36.0301C49.3602 35.8851 49.4402 35.8101 49.5952 35.8101H50.2852C50.4402 35.8101 50.5202 35.8851 50.5202 36.0301V36.7201H53.4052C53.5602 36.7201 53.6402 36.7951 53.6402 36.9401V37.3401C53.6402 37.4851 53.5602 37.5601 53.4052 37.5601H49.6202C49.4452 37.5601 49.3602 37.4801 49.3602 37.3151V37.3101Z" fill="#005AA9"/>
<path d="M58.2553 36.5699H57.8153L58.4253 38.1799C58.4853 38.3549 58.4253 38.4449 58.2353 38.4499H57.6703C57.5453 38.4499 57.4603 38.3899 57.4203 38.2699L57.0403 37.2099L56.6553 38.2699C56.6153 38.3899 56.5303 38.4499 56.4053 38.4499H55.8103C55.6253 38.4499 55.5603 38.3549 55.6203 38.1799L56.2303 36.5699H55.7503C55.6053 36.5699 55.5303 36.4949 55.5303 36.3499V36.0299C55.5303 35.8849 55.6053 35.8099 55.7503 35.8099H58.2553C58.4003 35.8099 58.4753 35.8849 58.4753 36.0299V36.3499C58.4753 36.4949 58.4003 36.5699 58.2553 36.5699ZM58.8903 40.1349L58.9503 39.6249C58.9553 39.5599 58.9603 39.5099 58.9653 39.4599H56.0003C55.8453 39.4599 55.7653 39.3899 55.7653 39.2449V38.8899C55.7653 38.7449 55.8453 38.6749 56.0003 38.6749H59.9003C60.0553 38.6749 60.1353 38.7449 60.1353 38.8899V39.3399C60.1353 39.3799 60.1253 39.4749 60.1103 39.6249L60.0403 40.1899C60.0203 40.3199 59.9403 40.3849 59.8003 40.3849H59.1053C58.9453 40.3849 58.8703 40.2949 58.8903 40.1349ZM60.1403 35.9899V38.2649C60.1403 38.4249 60.0603 38.4999 59.9053 38.4999H59.2153C59.0603 38.4999 58.9803 38.4199 58.9803 38.2649V35.9899C58.9803 35.8299 59.0603 35.7549 59.2153 35.7549H59.9053C60.0603 35.7549 60.1403 35.8349 60.1403 35.9899Z" fill="#005AA9"/>
<path d="M60.5852 37.2498V36.6998C60.5852 36.4348 60.6652 36.2198 60.8402 36.0448C61.0152 35.8698 61.2302 35.7848 61.5002 35.7848H62.4452C62.7052 35.7848 62.9202 35.8748 63.0902 36.0498C63.2602 36.2248 63.3502 36.4448 63.3502 36.6998V37.2498C63.3502 37.5048 63.2602 37.7198 63.0902 37.8998C62.9202 38.0748 62.7052 38.1648 62.4452 38.1648H61.5002C61.2352 38.1648 61.0152 38.0798 60.8402 37.9048C60.6652 37.7298 60.5802 37.5148 60.5852 37.2498ZM60.8452 40.1498V38.5398C60.8452 38.4048 60.9252 38.3398 61.0802 38.3398H61.7202C61.8752 38.3398 61.9552 38.4048 61.9552 38.5398V38.6698H64.0502V38.5398C64.0502 38.4048 64.1302 38.3398 64.2852 38.3398H64.9252C65.0802 38.3398 65.1602 38.4048 65.1602 38.5398V40.1498C65.1602 40.3098 65.0752 40.3898 64.9002 40.3898H61.1052C60.9302 40.3898 60.8452 40.3098 60.8452 40.1498ZM61.6152 37.2548C61.6152 37.3248 61.6352 37.3798 61.6652 37.4148C61.7002 37.4498 61.7502 37.4698 61.8202 37.4698H62.1252C62.1952 37.4698 62.2452 37.4548 62.2802 37.4148C62.3152 37.3798 62.3302 37.3298 62.3302 37.2548V36.7048C62.3302 36.6348 62.3102 36.5848 62.2802 36.5448C62.2452 36.5098 62.1952 36.4948 62.1252 36.4948H61.8202C61.7502 36.4948 61.7002 36.5148 61.6652 36.5448C61.6302 36.5798 61.6152 36.6348 61.6152 36.7048V37.2548ZM64.0552 39.3298H61.9602V39.6998H64.0552V39.3298ZM63.6452 37.3248C63.5252 37.3248 63.4652 37.2648 63.4652 37.1448V36.7248C63.4652 36.6048 63.5252 36.5448 63.6452 36.5448H64.0002V35.9948C64.0002 35.8348 64.0802 35.7598 64.2352 35.7598H64.9252C65.0802 35.7598 65.1602 35.8398 65.1602 35.9948V37.9548C65.1602 38.1148 65.0802 38.1898 64.9252 38.1898H64.2352C64.0802 38.1898 64.0002 38.1098 64.0002 37.9548V37.3248H63.6452Z" fill="#005AA9"/>
<path d="M69.9796 39.4199C70.1346 39.4199 70.2146 39.4949 70.2146 39.6499V40.0499C70.2146 40.2049 70.1346 40.2799 69.9796 40.2799H65.9196C65.7646 40.2799 65.6846 40.2049 65.6846 40.0499V39.6499C65.6846 39.4949 65.7646 39.4199 65.9196 39.4199H66.2596V38.2449C66.2596 38.0849 66.3346 38.0099 66.4846 38.0099H67.0146C67.1646 38.0099 67.2396 38.0899 67.2396 38.2449V39.4199H67.6346V38.2449C67.6346 38.0849 67.7096 38.0099 67.8596 38.0099H68.3646C68.5146 38.0099 68.5896 38.0899 68.5896 38.2449V39.4199H69.9796ZM69.8146 35.8599C69.9946 35.8599 70.0896 35.9499 70.0896 36.1349V36.5049C70.0896 36.6299 70.0796 36.7899 70.0546 36.9849L69.8896 38.2749C69.8696 38.4099 69.7896 38.4799 69.6496 38.4799H68.9546C68.7896 38.4799 68.7196 38.3849 68.7396 38.2049L68.8946 36.9399C68.9046 36.8649 68.9096 36.7899 68.9146 36.7249H66.0396C65.8846 36.7249 65.8046 36.6499 65.8046 36.4949V36.0949C65.8046 35.9399 65.8846 35.8649 66.0396 35.8649H69.8146V35.8599Z" fill="#005AA9"/>
<path d="M75.01 38.6352H74.465V38.9752H74.89C75.045 38.9752 75.125 39.0452 75.125 39.1902V39.4802C75.125 39.5402 75.115 39.6352 75.1 39.7652L75.04 40.2052C75.02 40.3302 74.945 40.3902 74.805 40.3902H74.095C73.94 40.3902 73.87 40.3052 73.885 40.1502L73.93 39.7652H71.01C70.855 39.7652 70.775 39.6952 70.775 39.5502V39.1952C70.775 39.0502 70.855 38.9802 71.01 38.9802H71.49V38.6402H70.945C70.79 38.6402 70.71 38.5702 70.71 38.4252V38.0552C70.71 37.9102 70.79 37.8402 70.945 37.8402H75.005C75.16 37.8402 75.24 37.9102 75.24 38.0552V38.4252C75.24 38.5702 75.16 38.6402 75.005 38.6402L75.01 38.6352ZM74.43 37.6202H71.53C71.305 37.6202 71.125 37.5552 71 37.4302C70.875 37.3002 70.81 37.1252 70.81 36.9002V36.5252C70.81 36.3002 70.875 36.1252 71 35.9952C71.125 35.8652 71.3 35.8052 71.53 35.8052H74.43C74.655 35.8052 74.835 35.8702 74.96 35.9952C75.085 36.1252 75.15 36.3002 75.15 36.5252V36.9002C75.15 37.1252 75.085 37.3002 74.96 37.4302C74.835 37.5602 74.66 37.6202 74.43 37.6202ZM73.895 36.9002C73.93 36.9002 73.96 36.8902 73.98 36.8652C74.005 36.8402 74.015 36.8152 74.015 36.7802V36.7002C74.015 36.6652 74.005 36.6352 73.98 36.6152C73.955 36.5902 73.93 36.5802 73.895 36.5802H72.065C72.03 36.5802 72 36.5902 71.98 36.6102C71.955 36.6302 71.945 36.6602 71.945 36.6952V36.7752C71.945 36.8102 71.955 36.8402 71.98 36.8652C72.005 36.8902 72.03 36.9002 72.065 36.9002H73.895ZM73.46 38.9752V38.6352H72.505V38.9752H73.46Z" fill="#005AA9"/>
<path d="M91.5248 40.475C89.9398 40.475 89.1348 39.655 89.1348 38.04V32.93C89.1348 31.32 89.9398 30.5 91.5248 30.5C93.1098 30.5 93.9198 31.315 93.9198 32.93V38.04C93.9198 39.65 93.1148 40.47 91.5248 40.475ZM91.5198 32.165C91.0398 32.165 90.8198 32.41 90.8198 32.93V38.04C90.8198 38.56 91.0448 38.805 91.5248 38.805C92.0048 38.805 92.2348 38.56 92.2348 38.04V32.93C92.2348 32.41 92.0098 32.17 91.5298 32.165H91.5198Z" fill="#005AA9"/>
<path d="M87.8252 31.485V37.73C87.8252 37.89 87.8002 38.965 86.9552 39.825C86.3052 40.485 85.3852 40.815 84.2202 40.815C83.7502 40.815 83.3652 40.435 83.3652 39.96C83.3652 39.485 83.7452 39.105 84.2202 39.105C84.9152 39.105 85.4302 38.945 85.7452 38.62C86.1102 38.25 86.1252 37.745 86.1252 37.74V37.73V31.48C86.1252 31.01 86.5052 30.625 86.9802 30.625C87.4552 30.625 87.8352 31.005 87.8352 31.48L87.8252 31.485Z" fill="url(#paint0_linear_6542_19399)"/>
<path d="M92.2198 28.8551C93.4198 28.8551 95.2048 29.5851 95.2048 31.5951C95.2048 31.6351 95.2048 31.6701 95.2148 31.7051V39.6451C95.2148 40.1051 95.5898 40.4801 96.0498 40.4801H97.3498C97.3948 40.4801 97.4398 40.4801 97.4848 40.4701C97.5248 40.4701 97.5648 40.4701 97.6048 40.4701C99.1948 40.4701 99.9998 39.6451 99.9998 38.0351V32.9251C99.9998 31.3151 99.1948 30.4951 97.6048 30.4951C97.5448 30.4951 97.4848 30.4951 97.4248 30.4951C97.4098 30.4951 97.3998 30.4951 97.3848 30.4951C97.3348 30.4951 97.2898 30.5001 97.2398 30.5051C97.2298 30.5051 97.2248 30.5051 97.2148 30.5051C97.0948 30.5151 96.9848 30.5351 96.8748 30.5551C96.8698 30.5301 96.8648 30.5101 96.8548 30.4851C96.3298 28.2551 94.2198 27.0601 92.2198 27.0601C91.9798 27.0601 91.7398 27.0701 91.5098 27.0951M98.3148 38.0251C98.3148 38.5451 98.0898 38.7901 97.6048 38.7901C97.1198 38.7901 96.8998 38.5451 96.8998 38.0251V34.6151C96.8998 34.5851 96.8998 34.5551 96.8998 34.5251V32.7951C96.9098 32.6351 96.9498 32.5001 97.0148 32.4001C97.0148 32.4001 97.0148 32.4001 97.0148 32.3951C97.0248 32.3801 97.0348 32.3701 97.0448 32.3601C97.0448 32.3601 97.0498 32.3501 97.0548 32.3451C97.0648 32.3351 97.0748 32.3251 97.0848 32.3151C97.0848 32.3151 97.0948 32.3051 97.0998 32.3001C97.1098 32.2901 97.1198 32.2851 97.1298 32.2751C97.1348 32.2751 97.1448 32.2651 97.1498 32.2601C97.1598 32.2551 97.1698 32.2451 97.1798 32.2401C97.1898 32.2401 97.1948 32.2301 97.2048 32.2251C97.2148 32.2201 97.2248 32.2151 97.2348 32.2101C97.2448 32.2101 97.2548 32.2001 97.2648 32.2001C97.2748 32.2001 97.2848 32.1901 97.2998 32.1901C97.3098 32.1901 97.3198 32.1851 97.3348 32.1801C97.3448 32.1801 97.3548 32.1751 97.3698 32.1701C97.3848 32.1701 97.3948 32.1651 97.4098 32.1601C97.4198 32.1601 97.4298 32.1601 97.4398 32.1551C97.4548 32.1551 97.4748 32.1551 97.4898 32.1501C97.4998 32.1501 97.5098 32.1501 97.5198 32.1501C97.5448 32.1501 97.5748 32.1501 97.6048 32.1501H97.6148C98.0948 32.1501 98.3198 32.3951 98.3198 32.9151V38.0251H98.3148Z" fill="url(#paint1_linear_6542_19399)"/>
<path d="M80.7048 29.9648C81.2748 29.9648 81.7348 29.5048 81.7348 28.9348C81.7348 28.3648 81.2748 27.9048 80.7048 27.9048C80.1348 27.9048 79.6748 28.3648 79.6748 28.9348C79.6748 29.5048 80.1348 29.9648 80.7048 29.9648Z" fill="#4EB4BD"/>
<path d="M105.465 30.1152C106.035 30.1152 106.495 29.6552 106.495 29.0852C106.495 28.5152 106.035 28.0552 105.465 28.0552C104.895 28.0552 104.435 28.5152 104.435 29.0852C104.435 29.6552 104.895 30.1152 105.465 30.1152Z" fill="#4EB4BD"/>
<path d="M100.395 26.1801C101.095 26.1801 101.66 25.6101 101.66 24.9101C101.66 24.2101 101.095 23.6401 100.395 23.6401C99.6949 23.6401 99.1299 24.2101 99.1299 24.9101C99.1299 25.6101 99.6949 26.1801 100.395 26.1801Z" fill="#4EB4BD"/>
<path d="M86.1947 23.1801C86.8947 23.1801 87.4597 22.6101 87.4597 21.9101C87.4597 21.2101 86.8897 20.6401 86.1947 20.6401C85.4997 20.6401 84.9297 21.2101 84.9297 21.9101C84.9297 22.6101 85.4947 23.1801 86.1947 23.1801Z" fill="#4EB4BD"/>
<path d="M89.4303 24.2351C88.7053 23.9551 87.9103 23.8101 87.0753 23.8101C85.0753 23.8101 82.9653 25.0001 82.4403 27.2351C82.4303 27.2601 82.4253 27.2801 82.4203 27.3051L82.3953 29.5501V30.7451C82.1753 30.7151 81.9353 30.7051 81.5803 30.7051C79.5803 30.7051 78.1153 31.5151 78.1153 33.8151C78.1053 33.8401 78.1003 33.8601 78.0953 33.8851L78.0703 35.1951C78.0703 35.1951 78.0703 35.2351 78.0703 35.2551V40.4901H78.9203C79.3803 40.4851 79.7553 40.1101 79.7553 39.6501V35.0251C79.7553 34.9901 79.7653 34.9501 79.7653 34.9151C79.7653 32.9051 80.3803 32.4851 81.5803 32.4851C82.0353 32.4851 82.1603 32.4851 82.4003 32.5651V37.2251H83.2503C83.7103 37.2201 84.0853 36.8451 84.0853 36.3851V28.4451C84.0853 28.4101 84.0953 28.3701 84.0953 28.3351C84.0953 26.3251 85.8803 25.5951 87.0803 25.5951C87.7003 25.5951 88.2753 25.6951 88.7953 25.9001C89.2503 26.0801 89.7653 25.8501 89.9453 25.3901C90.1203 24.9301 89.8953 24.4151 89.4353 24.2401L89.4303 24.2351Z" fill="#4EB4BD"/>
<path d="M106.925 34.03C106.925 34.03 106.915 33.985 106.905 33.96C106.905 31.9 105.595 30.955 103.76 30.86V30.265H103.755C103.75 30.24 103.745 30.22 103.735 30.195C103.21 27.965 101.1 26.77 99.1004 26.77C98.2604 26.77 98.0404 26.81 97.3154 27.09C96.8604 27.265 96.6304 27.785 96.8104 28.24C96.9854 28.7 97.5004 28.925 97.9604 28.75C98.4804 28.55 98.4854 28.55 99.1004 28.55C100.3 28.55 102.085 29.28 102.085 31.29C102.085 31.33 102.085 31.365 102.095 31.4V39.67C102.095 40.13 102.47 40.505 102.93 40.505H103.78V39.14V34.32C103.78 34.29 103.78 34.26 103.78 34.23V32.64C104.755 32.725 105.255 33.24 105.255 35.055C105.255 35.095 105.255 35.13 105.265 35.165V39.635C105.265 40.095 105.64 40.47 106.1 40.47H106.95V39.38V35.4C106.95 35.4 106.95 35.36 106.95 35.34L106.925 34.03Z" fill="#4EB4BD"/>
<path d="M89.4 28.7598C88.34 29.4998 86.73 29.7998 86.195 29.9348C86.06 29.9698 86.01 29.9348 85.98 29.8248C85.605 27.2348 88.585 26.3098 88.14 27.7648C89.96 26.7548 90.52 27.9798 89.4 28.7598Z" fill="#EF4E30"/>
<path d="M91.6653 27.0998C91.1753 27.0998 90.7803 27.4948 90.7803 27.9848C90.7803 28.4748 91.1753 28.8698 91.6653 28.8698C91.6853 28.8698 91.7103 28.8698 91.7303 28.8648C91.8903 28.8548 92.0553 28.8498 92.2203 28.8498C93.4203 28.8498 95.2053 29.5648 95.2053 31.5898C95.2053 31.6298 95.2053 31.6648 95.2153 31.6998V39.6398C95.2153 40.0998 95.5903 40.4748 96.0503 40.4748H96.9003V39.1098V34.6198C96.9003 34.5898 96.9003 34.5598 96.9003 34.5298V32.7998L96.8753 30.5598C96.8703 30.5348 96.8653 30.5148 96.8553 30.4898C96.3303 28.2598 94.2203 27.0698 92.2203 27.0698L91.6653 27.0948V27.0998Z" fill="url(#paint2_linear_6542_19399)"/>
<path d="M12.4652 39.615C10.9202 39.615 9.66016 38.355 9.66016 36.805V26.935C9.66016 25.385 10.9202 24.125 12.4652 24.125H23.9202C25.4652 24.125 26.7252 25.385 26.7252 26.935V36.805C26.7252 38.355 25.4652 39.615 23.9202 39.615H12.4652Z" fill="url(#paint3_linear_6542_19399)"/>
<path d="M23.9152 24.25C25.3952 24.25 26.5952 25.455 26.5952 26.935V36.805C26.5952 38.285 25.3952 39.49 23.9152 39.49H12.4652C10.9852 39.49 9.78516 38.285 9.78516 36.805V26.935C9.78516 25.455 10.9852 24.25 12.4652 24.25H23.9152ZM23.9152 24H12.4652C10.8452 24 9.53516 25.315 9.53516 26.935V36.805C9.53516 38.425 10.8452 39.74 12.4652 39.74H23.9152C25.5352 39.74 26.8452 38.425 26.8452 36.805V26.935C26.8452 25.315 25.5352 24 23.9152 24Z" fill="#BEA060"/>
<path d="M10.2051 25.3452H26.1601" stroke="#595857" stroke-width="0.26"/>
<path d="M10.165 38.4048H26.12" stroke="#595857" stroke-width="0.26"/>
<path d="M16.3403 25.3901C16.3403 25.3901 16.2253 26.1301 17.2753 26.9451C18.3253 27.7651 17.3953 28.6951 17.3953 28.6951C17.3953 28.6951 16.8103 29.3201 15.4103 28.5801C15.4103 28.5801 15.2553 28.5051 14.8653 28.5051H9.53027" stroke="#595857" stroke-width="0.26"/>
<path d="M14.8595 28.5049C14.8595 28.5049 15.2895 28.6999 15.2895 29.1249V31.2249C15.2895 31.2249 15.2495 31.8099 14.7795 31.8499H9.51953" stroke="#595857" stroke-width="0.26"/>
<path d="M14.9754 31.8149C14.9754 31.8149 15.2504 32.0199 15.2504 32.5049V34.6149C15.2504 34.6149 15.2904 35.2649 14.9004 35.3049" stroke="#595857" stroke-width="0.26"/>
<path d="M9.55957 35.3148H14.9346C14.9346 35.3148 15.5596 35.3948 16.1046 35.0048C16.6496 34.6148 17.5846 34.9298 17.6646 35.7048C17.7446 36.4848 17.0046 37.0698 17.0046 37.0698C17.0046 37.0698 16.2246 37.7298 16.2246 38.3948" stroke="#595857" stroke-width="0.26"/>
<path d="M11.6946 25.3901C11.6946 25.3901 11.2646 25.5851 11.2646 26.2051V27.3751" stroke="#595857" stroke-width="0.26"/>
<path d="M11.2754 27.8799V31.3449" stroke="#595857" stroke-width="0.26"/>
<path d="M11.2754 32.2798V35.9398" stroke="#595857" stroke-width="0.26"/>
<path d="M11.235 36.4048V37.5348C11.235 37.5348 11.155 38.2348 11.665 38.3498" stroke="#595857" stroke-width="0.26"/>
<path d="M19.995 25.3901C19.995 25.3901 20.11 26.1301 19.06 26.9451C18.01 27.7651 18.945 28.6951 18.945 28.6951C18.945 28.6951 19.53 29.3201 20.93 28.5801C20.93 28.5801 21.085 28.5051 21.475 28.5051H26.81" stroke="#595857" stroke-width="0.26"/>
<path d="M21.4749 28.5049C21.4749 28.5049 21.0449 28.6999 21.0449 29.1249V31.2249C21.0449 31.2249 21.0849 31.8099 21.5499 31.8499H26.8099" stroke="#595857" stroke-width="0.26"/>
<path d="M21.3601 31.8149C21.3601 31.8149 21.0851 32.0199 21.0851 32.5049V34.6149C21.0851 34.6149 21.0451 35.2649 21.4351 35.3049" stroke="#595857" stroke-width="0.26"/>
<path d="M26.7754 35.3148H21.4004C21.4004 35.3148 20.7754 35.3948 20.2304 35.0048C19.6854 34.6148 18.7504 34.9298 18.6704 35.7048C18.5954 36.4848 19.3304 37.0698 19.3304 37.0698C19.3304 37.0698 20.1104 37.7298 20.1104 38.3948" stroke="#595857" stroke-width="0.26"/>
<path d="M24.6104 25.3901C24.6104 25.3901 25.0404 25.5851 25.0404 26.2051V27.3751" stroke="#595857" stroke-width="0.26"/>
<path d="M25.0596 27.8799V31.3449" stroke="#595857" stroke-width="0.26"/>
<path d="M25.0596 32.2798V35.9398" stroke="#595857" stroke-width="0.26"/>
<path d="M25.0999 36.4048V37.5348C25.0999 37.5348 25.1799 38.2348 24.6699 38.3498" stroke="#595857" stroke-width="0.26"/>
<path d="M4.7002 31.8699L7.3602 33.2949V30.4399L4.7002 31.8699Z" fill="#231916"/>
<path d="M7.36031 4.78516C5.89031 4.78516 4.69531 5.98016 4.69531 7.45516C4.69531 8.93016 5.88531 10.1252 7.36031 10.1252C8.83531 10.1252 10.0253 8.93016 10.0253 7.45516C10.0253 5.98016 8.83531 4.78516 7.36031 4.78516ZM9.17531 7.45516C9.17531 8.46016 8.36031 9.27516 7.36031 9.27516C6.36031 9.27516 5.54531 8.46016 5.54531 7.45516C5.54531 6.45016 6.36031 5.63516 7.36031 5.63516C8.36031 5.63516 9.17531 6.45016 9.17531 7.45516Z" fill="#045BA7"/>
<path d="M5.47047 8.39515C5.47047 8.39515 5.47047 8.38015 5.46547 8.37015C5.45047 8.34015 5.42547 8.35015 5.41047 8.36015L5.25047 8.43515L5.23047 8.38515L5.41547 8.30015C5.44047 8.29015 5.48547 8.29015 5.50547 8.34015C5.51047 8.35515 5.51547 8.36515 5.51547 8.38015L5.47547 8.40015L5.47047 8.39515Z" fill="#E5E6E6"/>
<path d="M5.17012 8.25502L5.12012 8.10502L5.16012 8.09002L5.19512 8.19002L5.25512 8.17002L5.22512 8.08002L5.26512 8.06502L5.29512 8.15502L5.37012 8.13502L5.33512 8.03502L5.37512 8.02002L5.42512 8.17002L5.17012 8.25502Z" fill="#E5E6E6"/>
<path d="M5.29027 7.81015C5.28027 7.75515 5.23027 7.74515 5.18027 7.75015C5.13527 7.76015 5.09027 7.79015 5.10027 7.84015C5.11027 7.89015 5.16027 7.90515 5.20527 7.90015C5.25027 7.89015 5.29527 7.86515 5.28527 7.81015H5.29027ZM5.06027 7.85015C5.04527 7.76515 5.09527 7.71015 5.17527 7.70015C5.25527 7.68515 5.32027 7.72015 5.33527 7.80515C5.35027 7.89015 5.30027 7.94515 5.22027 7.95515C5.14027 7.97015 5.07527 7.93515 5.06527 7.85015H5.06027Z" fill="#E5E6E6"/>
<path d="M5.03516 7.58492V7.52992L5.25516 7.52492V7.41992H5.29516L5.30016 7.57492L5.03516 7.58492Z" fill="#E5E6E6"/>
<path d="M5.03516 7.30492L5.04016 7.25492L5.26516 7.27492L5.27016 7.16992L5.31516 7.17492L5.30016 7.32992L5.03516 7.30492Z" fill="#E5E6E6"/>
<path d="M5.14496 6.93998L5.24496 7.00498L5.26496 6.92998L5.14996 6.94498L5.14496 6.93998ZM5.08496 6.95498L5.09996 6.89498L5.38496 6.85498L5.36996 6.91498L5.30496 6.92498L5.27996 7.02998L5.33496 7.06498L5.31996 7.11998L5.08496 6.95998V6.95498Z" fill="#E5E6E6"/>
<path d="M5.39027 6.71023L5.40027 6.68523C5.40027 6.68523 5.41527 6.63023 5.38527 6.62023C5.35527 6.60523 5.33527 6.63023 5.33027 6.65523L5.32027 6.68023L5.39027 6.71023ZM5.28027 6.66523L5.29027 6.64523C5.29027 6.64523 5.30527 6.59523 5.28027 6.58523C5.25027 6.57523 5.24027 6.60023 5.23027 6.62023L5.22027 6.64023L5.28027 6.66523ZM5.16027 6.67523L5.19527 6.59023C5.21027 6.56023 5.23527 6.51523 5.29027 6.53523C5.32027 6.54523 5.33027 6.57523 5.32527 6.60523C5.34027 6.57523 5.37527 6.56023 5.40527 6.57023C5.46527 6.59523 5.45527 6.65523 5.44027 6.68523L5.40527 6.77023L5.15527 6.67023L5.16027 6.67523Z" fill="#E5E6E6"/>
<path d="M5.29004 6.37982L5.31504 6.33482L5.45004 6.40982C5.49004 6.43482 5.52004 6.43482 5.54504 6.39982C5.56504 6.36482 5.54504 6.33482 5.51004 6.31482L5.37504 6.23982L5.40004 6.19482L5.54504 6.27982C5.60504 6.31482 5.61004 6.36482 5.58004 6.42482C5.54504 6.48482 5.50004 6.50482 5.44004 6.46982L5.29504 6.38482L5.29004 6.37982Z" fill="#E5E6E6"/>
<path d="M5.48535 6.0699L5.51535 6.0249L5.60535 6.0999L5.57535 5.9499L5.62035 5.8999L5.65035 6.0649H5.83035L5.78535 6.1199L5.63035 6.1149L5.72535 6.1949L5.69035 6.2349L5.48535 6.0699Z" fill="#E5E6E6"/>
<path d="M5.89996 5.93513L5.91996 5.91513C5.95496 5.88513 5.95996 5.83013 5.91996 5.79013C5.87996 5.74513 5.82496 5.75013 5.79496 5.78013L5.77496 5.80013L5.89996 5.93513ZM5.70996 5.80513L5.76496 5.75513C5.82496 5.70013 5.89496 5.67013 5.96996 5.75013C6.03996 5.83013 6.00496 5.89513 5.94496 5.95513L5.88996 6.00513L5.70996 5.81013V5.80513Z" fill="#E5E6E6"/>
<path d="M6.20986 5.69022C6.25486 5.66022 6.24486 5.61022 6.21986 5.57022C6.19486 5.53022 6.14986 5.50522 6.10486 5.53022C6.05986 5.56022 6.06986 5.61022 6.09486 5.65022C6.11986 5.69022 6.16486 5.72022 6.20986 5.69022ZM6.07986 5.49522C6.14986 5.45022 6.21986 5.47022 6.26486 5.54022C6.30986 5.60522 6.29986 5.68022 6.22986 5.73022C6.15986 5.77522 6.08986 5.75522 6.04486 5.68522C5.99986 5.61522 6.00986 5.54522 6.07986 5.50022V5.49522Z" fill="#E5E6E6"/>
<path d="M6.67504 5.46482C6.72504 5.44482 6.73004 5.39482 6.71504 5.34982C6.70004 5.30482 6.66504 5.26482 6.61504 5.28482C6.56504 5.29982 6.56004 5.35482 6.57504 5.39982C6.59004 5.44482 6.62504 5.48482 6.67504 5.46482ZM6.60004 5.24482C6.68004 5.21982 6.74004 5.25482 6.77004 5.32982C6.79504 5.40482 6.77004 5.47482 6.69004 5.50482C6.61004 5.53482 6.55004 5.49482 6.52004 5.41482C6.49504 5.33982 6.52004 5.26982 6.60004 5.24482Z" fill="#E5E6E6"/>
<path d="M6.85547 5.17502L7.00047 5.14502L7.01047 5.18502L6.91547 5.20502L6.93047 5.27002L7.01547 5.25002L7.02547 5.29502L6.93547 5.31002L6.96047 5.42502L6.90547 5.43502L6.85547 5.17502Z" fill="#E5E6E6"/>
<path d="M7.125 5.13012L7.275 5.12012L7.28 5.16012L7.185 5.17012L7.19 5.23512L7.28 5.22512V5.27012L7.19 5.27512L7.2 5.39012L7.145 5.39512L7.125 5.13012Z" fill="#E5E6E6"/>
<path d="M7.39465 5.12012H7.44965L7.43965 5.38512H7.38965L7.39465 5.12012Z" fill="#E5E6E6"/>
<path d="M7.74508 5.41493C7.74508 5.41493 7.70508 5.41493 7.68508 5.41493C7.60008 5.40493 7.54508 5.35493 7.56008 5.26493C7.57008 5.17493 7.63508 5.12993 7.72508 5.14493C7.74008 5.14493 7.76508 5.15493 7.78508 5.16493L7.77508 5.20993C7.77508 5.20993 7.74008 5.18993 7.72008 5.18993C7.66508 5.17993 7.62508 5.21993 7.62008 5.27493C7.61508 5.32993 7.64008 5.37493 7.69508 5.37993C7.71508 5.37993 7.74008 5.37993 7.75508 5.37993V5.42493L7.74508 5.41493Z" fill="#E5E6E6"/>
<path d="M7.90496 5.18018L8.05496 5.22518L8.04496 5.26518L7.94496 5.23518L7.92496 5.30018L8.01996 5.32518L8.00996 5.36518L7.91496 5.34018L7.89496 5.41018L7.99496 5.44018L7.98496 5.48018L7.83496 5.44018L7.90496 5.18018Z" fill="#E5E6E6"/>
<path d="M8.35526 5.59987C8.40526 5.62487 8.44526 5.59487 8.46526 5.54987C8.48526 5.50987 8.49026 5.45487 8.44526 5.42987C8.40026 5.40487 8.35526 5.43487 8.33526 5.47987C8.31026 5.52487 8.30526 5.57487 8.35526 5.59987ZM8.46526 5.39487C8.54026 5.43487 8.55526 5.50487 8.51526 5.57987C8.47526 5.64987 8.41026 5.67987 8.33526 5.63987C8.26026 5.59987 8.24526 5.52987 8.28526 5.45487C8.32526 5.38487 8.39026 5.35487 8.46526 5.39487Z" fill="#E5E6E6"/>
<path d="M8.69516 5.53516L8.81516 5.62516L8.79016 5.66016L8.71016 5.60016L8.67516 5.65516L8.74516 5.71016L8.72016 5.74516L8.65016 5.69016L8.58016 5.78516L8.53516 5.75016L8.69516 5.53516Z" fill="#E5E6E6"/>
<path d="M9.04473 5.83496L9.14973 5.94996L9.11473 5.97996L9.04473 5.90496L8.99973 5.94496L9.05973 6.01496L9.02973 6.04496L8.96473 5.97496L8.90973 6.02496L8.97973 6.10496L8.94973 6.12996L8.84473 6.01496L9.04473 5.83496Z" fill="#E5E6E6"/>
<path d="M9.07965 6.23506L9.09465 6.26006C9.11965 6.29506 9.16965 6.31506 9.21965 6.28006C9.26965 6.24506 9.26965 6.19506 9.24465 6.15506L9.22965 6.13006L9.07965 6.23006V6.23506ZM9.23465 6.06506L9.27465 6.12506C9.31965 6.19506 9.33965 6.27006 9.24965 6.32506C9.15965 6.38506 9.09965 6.34006 9.05465 6.27006L9.01465 6.21006L9.23465 6.06006V6.06506Z" fill="#E5E6E6"/>
<path d="M9.43014 6.375L9.45014 6.425L9.31014 6.49C9.27014 6.51 9.25014 6.535 9.26514 6.57C9.28014 6.605 9.31514 6.61 9.35514 6.59L9.49514 6.525L9.51514 6.575L9.36014 6.645C9.29514 6.675 9.25014 6.65 9.22514 6.59C9.19514 6.53 9.20514 6.48 9.27014 6.45L9.42514 6.38L9.43014 6.375Z" fill="#E5E6E6"/>
<path d="M9.37504 6.97478C9.37504 6.97478 9.35504 6.93978 9.35004 6.91978C9.32504 6.83478 9.35004 6.76478 9.43504 6.73978C9.52504 6.71478 9.58504 6.75478 9.61504 6.83978C9.61504 6.85478 9.62504 6.87978 9.62004 6.89978L9.57504 6.90978C9.57504 6.90978 9.57504 6.86978 9.57504 6.84978C9.56004 6.79478 9.51004 6.77478 9.45504 6.78978C9.40504 6.80478 9.37504 6.84978 9.39004 6.90478C9.39504 6.92478 9.40504 6.94978 9.41504 6.95978L9.37504 6.97478Z" fill="#E5E6E6"/>
<path d="M9.61488 7.14004L9.49988 7.11504L9.50988 7.19004L9.61488 7.13504V7.14004ZM9.66488 7.10504L9.67488 7.16504L9.42488 7.30504L9.41488 7.24504L9.46988 7.21504L9.45488 7.11004L9.38988 7.09504L9.37988 7.04004L9.65988 7.10504H9.66488Z" fill="#E5E6E6"/>
<path d="M9.6498 7.40508V7.33008H9.6898L9.6948 7.53508H9.6498V7.46008H9.4248V7.40508H9.6498Z" fill="#E5E6E6"/>
<path d="M9.42109 7.62004L9.41602 7.6748L9.67989 7.69924L9.68496 7.64447L9.42109 7.62004Z" fill="#E5E6E6"/>
<path d="M9.41473 7.90997C9.40473 7.96497 9.44473 7.99497 9.49473 8.00497C9.53973 8.01497 9.59473 8.00497 9.60473 7.94997C9.61473 7.89997 9.57473 7.86497 9.52973 7.85497C9.48473 7.84497 9.42973 7.85497 9.41973 7.90497L9.41473 7.90997ZM9.64473 7.95997C9.62473 8.03997 9.55973 8.07498 9.48473 8.05998C9.40473 8.04498 9.35973 7.98497 9.37973 7.90497C9.39973 7.81997 9.46473 7.78997 9.54473 7.80497C9.62473 7.82497 9.66973 7.87997 9.64973 7.95997H9.64473Z" fill="#E5E6E6"/>
<path d="M9.56523 8.22012L9.54023 8.28012L9.32023 8.30012L9.50523 8.37512L9.48523 8.42012L9.24023 8.32512L9.26023 8.26012L9.48523 8.24012L9.30023 8.16512L9.32023 8.12012L9.56523 8.22012Z" fill="#E5E6E6"/>
<path d="M5.59535 8.68976C5.59535 8.71976 5.57035 8.74477 5.54035 8.74477C5.51035 8.74477 5.48535 8.71976 5.48535 8.68976C5.48535 8.65976 5.51035 8.63477 5.54035 8.63477C5.57035 8.63477 5.59535 8.65976 5.59535 8.68976Z" fill="#E5E6E6"/>
<path d="M9.125 8.68976C9.125 8.71976 9.15 8.74477 9.18 8.74477C9.21 8.74477 9.235 8.71976 9.235 8.68976C9.235 8.65976 9.21 8.63477 9.18 8.63477C9.15 8.63477 9.125 8.65976 9.125 8.68976Z" fill="#E5E6E6"/>
<path d="M8.00469 9.375L7.67969 9.45L7.69469 9.505L7.94969 9.445L8.00469 9.67L7.95469 9.685L7.91969 9.54L7.84969 9.56L7.87969 9.7L7.84469 9.71L7.80969 9.57L7.73969 9.585L7.77469 9.725L7.70969 9.745L7.71969 9.8L8.12969 9.7L8.11969 9.645L8.07469 9.655L8.00469 9.375Z" fill="#E5E6E6"/>
<path d="M6.55543 9.48979L6.58543 9.43979L6.52543 9.40479L6.57043 9.31479L6.50543 9.27979L6.31543 9.64979L6.38043 9.67979L6.49543 9.45479L6.55543 9.48979Z" fill="#E5E6E6"/>
<path d="M6.32029 9.53479L6.34529 9.48479L6.20029 9.40979L6.23029 9.34979L6.36529 9.41979L6.45029 9.25979L6.25029 9.15479L6.22529 9.20479L6.36029 9.27479L6.33029 9.33479L6.19529 9.26479L6.13029 9.38479C6.13029 9.38479 6.12529 9.43479 6.15029 9.44979L6.32029 9.53979V9.53479Z" fill="#E5E6E6"/>
<path d="M7.59492 9.76021H7.41992V9.68021H7.54992V9.62521H7.28992V9.52521H7.54992V9.47021H7.21492V9.63521C7.21492 9.66021 7.23492 9.68021 7.26492 9.68021H7.34492V9.76021H7.16992V9.81521H7.59492V9.76021Z" fill="#E5E6E6"/>
<path d="M5.85008 9.01982C5.84508 9.07982 5.87508 9.13482 5.90508 9.15982L5.94008 9.11982C5.94008 9.11982 5.89508 9.02982 5.94508 8.96982L6.00508 9.02482L6.04508 8.98482L5.86508 8.81982L5.82508 8.85982L5.88508 8.91482C5.83008 8.97482 5.76508 8.94982 5.74008 8.93482L5.70508 8.97482C5.73508 8.99982 5.79508 9.02482 5.85008 9.01482V9.01982Z" fill="#E5E6E6"/>
<path d="M6.04004 9.0899L5.99004 9.0449L5.95004 9.0849L6.00004 9.1349L5.91504 9.2249L5.97004 9.2749L6.15004 9.0749L6.10004 9.0249L6.04004 9.0899Z" fill="#E5E6E6"/>
<path d="M5.91014 9.33992L5.72514 9.16992L5.79514 9.09492L5.74014 9.04492L5.66514 9.12992C5.66514 9.12992 5.64514 9.17492 5.66514 9.19492L5.86514 9.37992L5.90514 9.33992H5.91014Z" fill="#E5E6E6"/>
<path d="M6.96496 9.56014L6.78496 9.51514V9.48514L6.97496 9.53014V9.56014H6.96496ZM7.05996 9.46514L6.98996 9.45014V9.48014L6.79996 9.43514V9.40514L6.73496 9.39014L6.70996 9.50514C6.70996 9.50514 6.71496 9.55514 6.74496 9.56014L6.97496 9.61514C6.99996 9.62014 7.02496 9.61514 7.03496 9.58014L7.05996 9.46514Z" fill="#E5E6E6"/>
<path d="M6.66477 9.70506L6.91477 9.76006L6.89477 9.84506L6.96477 9.86506L6.99977 9.72506L6.87477 9.69506L6.87977 9.67506L7.04977 9.71006L7.05977 9.65506L6.64977 9.56006L6.63477 9.61506L6.80477 9.65506L6.79977 9.68006L6.67477 9.65006L6.66477 9.70506Z" fill="#E5E6E6"/>
<path d="M8.38543 9.4898L8.37043 9.4648L8.44043 9.4298L8.45543 9.4548L8.38543 9.4898ZM8.19543 9.4948L8.22043 9.5448L8.31043 9.4998L8.32543 9.5248L8.27043 9.5548L8.29543 9.6048L8.53043 9.4798L8.57043 9.5598L8.63543 9.5248L8.56543 9.3948L8.51543 9.4198L8.50043 9.3948L8.59043 9.3498L8.56543 9.2998L8.19043 9.4948H8.19543Z" fill="#E5E6E6"/>
<path d="M8.29037 9.23004C8.20037 9.27504 8.15037 9.34504 8.17537 9.39004C8.20037 9.43504 8.28537 9.43504 8.37537 9.39004C8.46537 9.34504 8.51537 9.27504 8.49037 9.23004C8.46537 9.18504 8.38037 9.18504 8.29037 9.23004ZM8.42037 9.26504C8.42037 9.26504 8.39537 9.31504 8.35037 9.34004C8.30037 9.36504 8.25537 9.37504 8.25037 9.36004C8.24037 9.34504 8.27537 9.31004 8.32037 9.28504C8.37037 9.26004 8.41537 9.25004 8.42037 9.26504Z" fill="#E5E6E6"/>
<path d="M8.81953 8.83984L8.76953 8.88984L8.82453 8.94984L8.77453 8.99484L8.80953 9.03484L8.85953 8.98984L8.91453 9.04984L8.96953 8.99984L8.81953 8.83984Z" fill="#E5E6E6"/>
<path d="M8.7248 9.12508C8.7998 9.14008 8.8648 9.08508 8.8648 9.08508L8.8298 9.04508C8.8298 9.04508 8.7598 9.09008 8.7098 9.04508L8.7698 8.99508L8.7298 8.95508L8.6698 9.00508L8.6448 8.98008L8.5848 9.03508L8.6098 9.06008L8.5498 9.11008L8.5898 9.15008L8.6498 9.10008C8.6898 9.15508 8.6348 9.22008 8.6348 9.22008L8.6698 9.26008C8.6698 9.26008 8.7348 9.20008 8.7248 9.12508Z" fill="#E5E6E6"/>
<path d="M8.85534 9.11519C8.78534 9.17519 8.76034 9.26019 8.80034 9.30019C8.84034 9.34519 8.92034 9.32519 8.99034 9.26519C9.06034 9.20519 9.08534 9.12019 9.04534 9.08019C9.00534 9.03519 8.92534 9.05519 8.85534 9.11519ZM8.98534 9.13019C8.98534 9.13019 8.98534 9.19019 8.95034 9.22019C8.91534 9.25519 8.87034 9.26519 8.85534 9.24519C8.84034 9.22519 8.85534 9.18519 8.89034 9.15519C8.92534 9.12019 8.97034 9.11019 8.98534 9.13019Z" fill="#E5E6E6"/>
<path d="M7.4797 7.13006C7.4797 7.07506 7.4547 7.06006 7.4097 7.06506C7.3347 7.07506 7.2447 7.10006 7.1647 7.14006C7.1397 7.15006 7.1297 7.12506 7.1497 7.11006C7.8447 6.68506 8.1347 7.28006 7.6597 7.65006C7.6397 7.66506 7.6447 7.68006 7.6747 7.68006C8.1997 7.65006 8.2347 8.57006 7.0697 8.85506C7.0447 8.86006 7.0497 8.89006 7.0697 8.89006C8.9897 8.91506 9.1097 7.30006 8.1497 7.46006C8.7297 7.05506 8.4347 6.47006 7.4847 6.83506V6.56006H6.8347V7.20506C5.8147 8.00006 5.9047 8.77006 6.5547 8.77006C6.8847 8.77006 7.4847 8.55006 7.4847 7.73006V7.13506L7.4797 7.13006ZM6.8297 7.80006C6.8297 8.30506 6.5647 8.47506 6.3947 8.47506C6.1297 8.47506 6.0747 7.98006 6.8297 7.35006V7.79506V7.80006Z" fill="#045BA7"/>
<path d="M7.63028 6.14978C7.38528 6.31978 7.01028 6.38978 6.89028 6.41978C6.86028 6.42978 6.84528 6.41978 6.84028 6.39478C6.75528 5.79478 7.44528 5.57978 7.34028 5.91978C7.76028 5.68478 7.89028 5.96978 7.63028 6.14978Z" fill="#EF4F2F"/>
<path d="M10.5547 9.23496C10.5547 9.23496 10.6047 9.24996 10.6347 9.24996C10.6897 9.24996 10.7297 9.20996 10.7297 9.09996V8.70996H10.9097V9.15496C10.9097 9.29996 10.8497 9.39996 10.6647 9.39996C10.6247 9.39996 10.5847 9.38996 10.5547 9.37996V9.22996V9.23496Z" fill="#808083"/>
<path d="M11.0049 8.70996H11.4799V8.83996H11.1849V8.97996H11.4649V9.10996H11.1849V9.26496H11.4899V9.38996H11.0049V8.70996Z" fill="#808083"/>
<path d="M11.88 9.2702C11.99 9.2702 12.035 9.1652 12.035 9.0552C12.035 8.9352 11.99 8.8402 11.88 8.8402C11.77 8.8402 11.725 8.9402 11.725 9.0552C11.725 9.1702 11.77 9.2702 11.88 9.2702ZM11.88 8.7002C12.105 8.7002 12.22 8.8352 12.22 9.0502C12.22 9.2652 12.1 9.4002 11.88 9.4002C11.66 9.4002 11.54 9.2652 11.54 9.0502C11.54 8.8352 11.655 8.7002 11.88 8.7002Z" fill="#808083"/>
<path d="M12.2949 8.70996H12.4799V9.25996H12.7599V9.38996H12.2949V8.70996Z" fill="#808083"/>
<path d="M12.8496 8.70996H13.0296V9.25996H13.3146V9.38996H12.8496V8.70996Z" fill="#808083"/>
<path d="M13.75 8.84996L13.66 9.11496H13.83L13.75 8.84996ZM13.64 8.70996H13.86L14.12 9.38996H13.92L13.87 9.24496H13.615L13.56 9.38996H13.375L13.635 8.70996H13.64Z" fill="#808083"/>
<path d="M14.3803 9.26508H14.4353C14.5003 9.26508 14.5703 9.25508 14.5703 9.18508C14.5703 9.11008 14.5003 9.10508 14.4353 9.10508H14.3803V9.26508ZM14.3803 8.98008H14.4303C14.4903 8.98008 14.5503 8.96508 14.5503 8.91008C14.5503 8.85008 14.4903 8.84008 14.4303 8.84008H14.3753V8.98008H14.3803ZM14.2003 8.71008H14.5103C14.6353 8.71008 14.7303 8.76508 14.7303 8.88008C14.7303 8.96508 14.6853 9.01508 14.6103 9.04008C14.7003 9.06008 14.7453 9.11008 14.7453 9.19008C14.7453 9.35508 14.6003 9.38508 14.4803 9.38508H14.1953V8.70508L14.2003 8.71008Z" fill="#808083"/>
<path d="M15.4203 9.13484C15.4203 9.31984 15.3003 9.40484 15.1203 9.40484C14.9403 9.40484 14.8203 9.31984 14.8203 9.13484V8.71484H15.0003V9.10484C15.0003 9.19484 15.0253 9.26984 15.1153 9.26984C15.2053 9.26984 15.2303 9.19484 15.2303 9.10484V8.71484H15.4103V9.13484H15.4203Z" fill="#808083"/>
<path d="M15.5098 8.70996H15.6948V8.98996L15.8998 8.70996H16.1148L15.8648 9.02996L16.1348 9.38996H15.9048L15.6948 9.08496V9.38996H15.5098V8.70996Z" fill="#808083"/>
<path d="M16.3802 9.25984H16.4502C16.5852 9.25984 16.6602 9.18984 16.6602 9.05484C16.6602 8.91984 16.5802 8.84984 16.4502 8.84984H16.3802V9.25984ZM16.2002 8.71484H16.4452C16.6802 8.71484 16.8452 8.78984 16.8452 9.04984C16.8452 9.30984 16.6752 9.39484 16.4452 9.39484H16.2002V8.71484Z" fill="#808083"/>
<path d="M17.2599 9.2702C17.3699 9.2702 17.4149 9.1652 17.4149 9.0552C17.4149 8.9352 17.3699 8.8402 17.2599 8.8402C17.1499 8.8402 17.1049 8.9402 17.1049 9.0552C17.1049 9.1702 17.1499 9.2702 17.2599 9.2702ZM17.2599 8.7002C17.4849 8.7002 17.5999 8.8352 17.5999 9.0502C17.5999 9.2652 17.4799 9.4002 17.2599 9.4002C17.0399 9.4002 16.9199 9.2652 16.9199 9.0502C16.9199 8.8352 17.0349 8.7002 17.2599 8.7002Z" fill="#808083"/>
<path d="M18.3996 9.2702C18.5096 9.2702 18.5546 9.1652 18.5546 9.0552C18.5546 8.9352 18.5096 8.8402 18.3996 8.8402C18.2896 8.8402 18.2446 8.9402 18.2446 9.0552C18.2446 9.1702 18.2896 9.2702 18.3996 9.2702ZM18.3996 8.7002C18.6246 8.7002 18.7396 8.8352 18.7396 9.0502C18.7396 9.2652 18.6196 9.4002 18.3996 9.4002C18.1796 9.4002 18.0596 9.2652 18.0596 9.0502C18.0596 8.8352 18.1746 8.7002 18.3996 8.7002Z" fill="#808083"/>
<path d="M18.8252 8.70996H19.2802V8.83996H19.0052V8.98996H19.2652V9.11996H19.0052V9.38996H18.8252V8.70996Z" fill="#808083"/>
<path d="M19.3604 8.70996H19.8154V8.83996H19.5404V8.98996H19.8004V9.11996H19.5404V9.38996H19.3604V8.70996Z" fill="#808083"/>
<path d="M20.0745 8.70996H19.8945V9.38996H20.0745V8.70996Z" fill="#808083"/>
<path d="M20.7453 9.37482C20.6953 9.38982 20.6353 9.39982 20.5453 9.39982C20.3653 9.39982 20.1553 9.30982 20.1553 9.04982C20.1553 8.81482 20.3203 8.69482 20.5453 8.69482C20.6153 8.69482 20.6803 8.70982 20.7453 8.72982L20.7303 8.87482C20.6703 8.84482 20.6153 8.82482 20.5553 8.82482C20.4253 8.82482 20.3453 8.91982 20.3453 9.04482C20.3453 9.17982 20.4403 9.25982 20.5703 9.25982C20.6303 9.25982 20.6903 9.24482 20.7403 9.22482L20.7503 9.36482L20.7453 9.37482Z" fill="#808083"/>
<path d="M20.8252 8.70996H21.3052V8.83996H21.0052V8.97996H21.2852V9.10996H21.0052V9.26496H21.3152V9.38996H20.8252V8.70996Z" fill="#808083"/>
<path d="M22.0754 9.2702C22.1854 9.2702 22.2304 9.1652 22.2304 9.0552C22.2304 8.9352 22.1854 8.8402 22.0754 8.8402C21.9654 8.8402 21.9204 8.9402 21.9204 9.0552C21.9204 9.1702 21.9654 9.2702 22.0754 9.2702ZM22.0754 8.7002C22.3004 8.7002 22.4154 8.8352 22.4154 9.0502C22.4154 9.2652 22.2954 9.4002 22.0754 9.4002C21.8554 9.4002 21.7354 9.2652 21.7354 9.0502C21.7354 8.8352 21.8504 8.7002 22.0754 8.7002Z" fill="#808083"/>
<path d="M22.4951 8.70996H22.9501V8.83996H22.6751V8.98996H22.9401V9.11996H22.6751V9.38996H22.4951V8.70996Z" fill="#808083"/>
<path d="M23.4004 8.70996H23.8804V8.83996H23.5854V8.97996H23.8654V9.10996H23.5854V9.26496H23.8904V9.38996H23.4004V8.70996Z" fill="#808083"/>
<path d="M24.1351 9.25984H24.2051C24.3401 9.25984 24.4151 9.18984 24.4151 9.05484C24.4151 8.91984 24.3351 8.84984 24.2051 8.84984H24.1351V9.25984ZM23.9551 8.71484H24.2001C24.4351 8.71484 24.6001 8.78984 24.6001 9.04984C24.6001 9.30984 24.4301 9.39484 24.2001 9.39484H23.9551V8.71484Z" fill="#808083"/>
<path d="M25.2797 9.13484C25.2797 9.31984 25.1597 9.40484 24.9797 9.40484C24.7997 9.40484 24.6797 9.31984 24.6797 9.13484V8.71484H24.8597V9.10484C24.8597 9.19484 24.8847 9.26984 24.9747 9.26984C25.0647 9.26984 25.0897 9.19484 25.0897 9.10484V8.71484H25.2697V9.13484H25.2797Z" fill="#808083"/>
<path d="M25.9552 9.37482C25.9052 9.38982 25.8452 9.39982 25.7552 9.39982C25.5752 9.39982 25.3652 9.30982 25.3652 9.04982C25.3652 8.81482 25.5302 8.69482 25.7552 8.69482C25.8252 8.69482 25.8902 8.70982 25.9552 8.72982L25.9402 8.87482C25.8802 8.84482 25.8252 8.82482 25.7652 8.82482C25.6352 8.82482 25.5552 8.91982 25.5552 9.04482C25.5552 9.17982 25.6502 9.25982 25.7802 9.25982C25.8402 9.25982 25.9002 9.24482 25.9502 9.22482L25.9602 9.36482L25.9552 9.37482Z" fill="#808083"/>
<path d="M26.3945 8.84996L26.3095 9.11496H26.4795L26.3995 8.84996H26.3945ZM26.2845 8.70996H26.5045L26.7645 9.38996H26.5645L26.5145 9.24496H26.2595L26.2045 9.38996H26.0195L26.2795 8.70996H26.2845Z" fill="#808083"/>
<path d="M26.9346 8.84496H26.7646V8.70996H27.2796V8.84496H27.1146V9.38996H26.9346V8.84496Z" fill="#808083"/>
<path d="M27.555 8.70996H27.375V9.38996H27.555V8.70996Z" fill="#808083"/>
<path d="M27.9796 9.2702C28.0896 9.2702 28.1346 9.1652 28.1346 9.0552C28.1346 8.9352 28.0896 8.8402 27.9796 8.8402C27.8696 8.8402 27.8246 8.9402 27.8246 9.0552C27.8246 9.1702 27.8696 9.2702 27.9796 9.2702ZM27.9796 8.7002C28.2046 8.7002 28.3196 8.8352 28.3196 9.0502C28.3196 9.2652 28.1996 9.4002 27.9796 9.4002C27.7596 9.4002 27.6396 9.2652 27.6396 9.0502C27.6396 8.8352 27.7546 8.7002 27.9796 8.7002Z" fill="#808083"/>
<path d="M28.4004 8.70996H28.6304L28.8604 9.17496V8.70996H29.0254V9.38996H28.8004L28.5604 8.92996L28.5654 9.38996H28.4004V8.70996Z" fill="#808083"/>
<path d="M23.4248 5.83984H21.4698V6.16984H22.9948V7.53484H22.6948V6.67984H22.2648V7.53484H22.0448V6.67984H21.6148V7.53484H21.2148V7.86484H23.6898V7.53484H23.4248V5.83984Z" fill="#808083"/>
<path d="M15.735 6.75982V6.42982H15.345V5.81982H14.915V8.24982H15.345V6.75982H15.735Z" fill="#808083"/>
<path d="M14.6451 7.66V7.33H13.6751V6.925H14.5651V5.875H13.2451V6.205H14.1351V6.595H13.2451V7.385C13.2451 7.545 13.3501 7.66 13.5301 7.66H14.6451Z" fill="#808083"/>
<path d="M21.0148 7.53484H19.9948V7.07984H20.7548V6.74984H19.2348V6.16984H20.7548V5.83984H18.8048V6.80484C18.8048 6.96484 18.9148 7.07984 19.0898 7.07984H19.5698V7.53484H18.5498V7.86484H21.0198V7.53484H21.0148Z" fill="#808083"/>
<path d="M11.2646 6.795C11.4646 7.065 11.8246 7.19 12.0546 7.195V6.875C11.8746 6.85 11.4946 6.675 11.4946 6.205H11.9746V5.875H10.5546V6.205H11.0346C11.0346 6.675 10.6546 6.845 10.4746 6.875V7.195C10.7046 7.195 11.0646 7.065 11.2646 6.795Z" fill="#808083"/>
<path d="M12.3548 6.32982H11.9648V6.66482H12.3548V7.41482H12.7848V5.81982H12.3548V6.32982Z" fill="#808083"/>
<path d="M12.7846 7.91994H11.3196V7.31494H10.8896V7.97494C10.8896 8.13494 10.9996 8.24994 11.1746 8.24994H12.7846V7.91994Z" fill="#808083"/>
<path d="M17.6646 6.50998H16.5696V6.33998H17.6646V6.50998ZM18.0946 5.85498H17.6646V6.01998H16.5696V5.85498H16.1396V6.55998C16.1396 6.70998 16.2446 6.83498 16.4246 6.83498H17.8146C17.9746 6.83498 18.0946 6.73998 18.0946 6.55998V5.85498Z" fill="#808083"/>
<path d="M16.1448 7.7402H17.6648V8.2502H18.0948V7.4102H17.3398V7.2802H18.3548V6.9502H15.8848V7.2802H16.8998V7.4102H16.1448V7.7402Z" fill="#808083"/>
<path d="M24.9046 7.39478V7.23479H25.3546V7.39478H24.9046ZM23.8946 6.90479V7.23479H24.4746V7.39478H24.1096V7.72478H25.6696V8.24978H26.0996V7.39478H25.7796V7.23479H26.3596V6.90479H23.8896H23.8946Z" fill="#808083"/>
<path d="M25.1248 5.78516C24.5448 5.78516 24.0898 6.01016 24.0898 6.31016C24.0898 6.61016 24.5448 6.83516 25.1248 6.83516C25.7048 6.83516 26.1598 6.61016 26.1598 6.31016C26.1598 6.01016 25.7048 5.78516 25.1248 5.78516ZM25.7048 6.31016C25.7048 6.41516 25.4548 6.50016 25.1248 6.50016C24.7948 6.50016 24.5448 6.41516 24.5448 6.31016C24.5448 6.20516 24.7948 6.12016 25.1248 6.12016C25.4548 6.12016 25.7048 6.20516 25.7048 6.31016Z" fill="#808083"/>
<path d="M29.0252 5.81982H28.5952V6.30482H28.2002V6.63482H28.5952V7.09982H29.0252V5.81982Z" fill="#808083"/>
<path d="M27.4848 6.69022C27.7448 7.04022 28.2548 7.05521 28.2548 7.05521V6.74021C28.2548 6.74021 27.7648 6.66521 27.7198 6.26521H28.1748V5.93521H27.7198V5.72021H27.2498V5.93521H26.7948V6.26521H27.2498C27.2048 6.66521 26.7148 6.74021 26.7148 6.74021V7.05521C26.7148 7.05521 27.2298 7.04022 27.4848 6.69022Z" fill="#808083"/>
<path d="M28.1096 7.1499C27.5646 7.1499 27.1396 7.4049 27.1396 7.7399C27.1396 8.0749 27.5646 8.3299 28.1096 8.3299C28.6546 8.3299 29.0796 8.0749 29.0796 7.7399C29.0796 7.4049 28.6546 7.1499 28.1096 7.1499ZM28.6196 7.7399C28.6196 7.8849 28.3996 7.9999 28.1096 7.9999C27.8196 7.9999 27.5996 7.8849 27.5996 7.7399C27.5996 7.5949 27.8196 7.4799 28.1096 7.4799C28.3996 7.4799 28.6196 7.5949 28.6196 7.7399Z" fill="#808083"/>
<path d="M34.4952 7.27496C34.5552 7.27496 34.5952 7.29496 34.6102 7.33996C34.6252 7.38496 34.6352 7.43496 34.6352 7.48996C34.6352 7.54496 34.6252 7.59496 34.6052 7.64496C34.5852 7.69496 34.5502 7.71996 34.5002 7.72496C34.3452 7.73496 34.1752 7.74496 33.9902 7.75496C33.8052 7.76496 33.6202 7.76996 33.4252 7.77996V8.11996C33.5902 8.11496 33.7402 8.10996 33.8802 8.10996C34.0152 8.10996 34.1152 8.10996 34.1752 8.10996C34.2602 8.10996 34.3052 8.15496 34.3102 8.24496C34.3102 8.29496 34.3102 8.36996 34.3102 8.45996C34.3102 8.54996 34.3102 8.64496 34.3102 8.74496C34.3102 8.84496 34.3102 8.93996 34.3052 9.03496C34.3002 9.12996 34.3002 9.20996 34.2952 9.26996C34.2902 9.34496 34.2752 9.39996 34.2452 9.42496C34.2152 9.44996 34.1752 9.46996 34.1152 9.47496C34.0102 9.48996 33.8752 9.49996 33.7002 9.50496C33.5302 9.50996 33.3502 9.51496 33.1652 9.51496C32.9802 9.51496 32.8002 9.51496 32.6252 9.51496C32.4502 9.51496 32.3102 9.51496 32.2002 9.51996C32.0952 9.51996 32.0252 9.49996 31.9802 9.44996C31.9402 9.39996 31.9152 9.31996 31.9052 9.21496C31.8952 9.09996 31.8902 8.96496 31.8852 8.81496C31.8802 8.65996 31.8752 8.50996 31.8702 8.36496C31.8702 8.29996 31.8852 8.25496 31.9152 8.22496C31.9452 8.19496 31.9902 8.17496 32.0402 8.17496C32.0952 8.17496 32.1852 8.16996 32.3152 8.16496C32.4452 8.15996 32.5852 8.15496 32.7502 8.14996V7.80996C32.5602 7.81496 32.3752 7.81996 32.2002 7.82496C32.0202 7.82496 31.8552 7.83496 31.7002 7.83496C31.6702 7.83496 31.6452 7.82496 31.6302 7.80996C31.6152 7.79496 31.6002 7.77496 31.5902 7.74996C31.5802 7.72496 31.5752 7.69996 31.5752 7.66996C31.5752 7.63996 31.5752 7.61496 31.5752 7.58996C31.5752 7.53496 31.5802 7.48496 31.5952 7.43496C31.6102 7.38496 31.6452 7.35996 31.7102 7.35496C31.8052 7.34996 31.9052 7.34496 32.0102 7.34496C32.1152 7.34496 32.2202 7.34496 32.3302 7.33496V7.13496C32.3302 7.05996 32.3302 6.98496 32.3302 6.90496C32.3302 6.82496 32.3302 6.74996 32.3352 6.66996C32.3402 6.58996 32.3402 6.51496 32.3452 6.43996H31.9252C31.8752 6.43996 31.8402 6.43996 31.8102 6.43996C31.7652 6.43496 31.7202 6.40996 31.6752 6.36496C31.6302 6.31996 31.6152 6.24496 31.6152 6.13496C31.6152 6.04496 31.6352 5.97996 31.6602 5.93496C31.6902 5.88996 31.7452 5.86996 31.8252 5.86496C31.8852 5.86496 31.9602 5.85996 32.0452 5.85496C32.1302 5.84996 32.2202 5.84996 32.3102 5.84496C32.4052 5.84496 32.4952 5.83996 32.5902 5.83496C32.6852 5.83496 32.7752 5.83496 32.8602 5.83496C32.9002 5.83496 32.9302 5.84996 32.9602 5.87996C32.9852 5.90996 33.0002 5.95496 32.9952 6.01996C32.9902 6.12996 32.9852 6.24496 32.9802 6.36996C32.9752 6.49496 32.9702 6.61496 32.9652 6.73496C32.9602 6.85496 32.9552 6.96496 32.9452 7.06496C32.9352 7.16996 32.9302 7.25496 32.9202 7.32496C33.0602 7.31996 33.2052 7.31496 33.3452 7.31496C33.4852 7.31496 33.6252 7.30996 33.7602 7.30496C33.7602 7.24496 33.7652 7.17996 33.7702 7.10496C33.7702 7.02996 33.7802 6.94996 33.7802 6.86996C33.7802 6.78996 33.7902 6.71496 33.7952 6.63496C33.8002 6.55496 33.8052 6.49496 33.8052 6.44996H33.5202C33.4702 6.44996 33.4252 6.44996 33.3752 6.44996C33.3302 6.44996 33.2852 6.44996 33.2502 6.44496C33.2052 6.44496 33.1602 6.41496 33.1202 6.36996C33.0802 6.31996 33.0602 6.24496 33.0602 6.13496C33.0602 6.04496 33.0752 5.97496 33.1052 5.92996C33.1352 5.88496 33.1902 5.85996 33.2702 5.85496C33.3352 5.85496 33.4152 5.84996 33.5052 5.84496C33.5952 5.84496 33.6902 5.84496 33.7902 5.83996C33.8902 5.83996 33.9852 5.83996 34.0852 5.83996C34.1802 5.83996 34.2702 5.83996 34.3402 5.83996C34.3802 5.83996 34.4102 5.84996 34.4352 5.87496C34.4602 5.89996 34.4702 5.93996 34.4652 6.00496C34.4452 6.27996 34.4252 6.52996 34.4052 6.75996C34.3852 6.98996 34.3652 7.16996 34.3402 7.30996H34.4902L34.4952 7.27496ZM33.6702 8.97496V8.89996C33.6702 8.86496 33.6702 8.82996 33.6702 8.78996C33.6702 8.74996 33.6702 8.70996 33.6702 8.67496C33.6702 8.63996 33.6702 8.60496 33.6702 8.57996C33.6102 8.57996 33.5352 8.57996 33.4352 8.58496C33.3352 8.58496 33.2302 8.59496 33.1202 8.59496C33.0102 8.59496 32.9052 8.60496 32.8052 8.60496C32.7052 8.60496 32.6252 8.60996 32.5602 8.61496C32.5602 8.63996 32.5602 8.67496 32.5602 8.71996C32.5602 8.76496 32.5602 8.80996 32.5652 8.85496C32.5652 8.89996 32.5652 8.93996 32.5702 8.97996C32.5702 9.01996 32.5702 9.04496 32.5702 9.05996C32.6202 9.05996 32.6952 9.05996 32.7902 9.05996C32.8852 9.05996 32.9802 9.05996 33.0802 9.05496C33.1802 9.05496 33.2752 9.05496 33.3702 9.04996C33.4602 9.04996 33.5352 9.04996 33.5902 9.04496C33.6202 9.04496 33.6402 9.03496 33.6502 9.02996C33.6602 9.02496 33.6652 9.00496 33.6652 8.97996L33.6702 8.97496Z" fill="#005AA9"/>
<path d="M35.4104 7.08523C35.5704 7.07523 35.7204 7.06523 35.8654 7.05523C35.8654 6.99023 35.8654 6.92023 35.8654 6.85023C35.8654 6.78023 35.8654 6.70523 35.8654 6.63523C35.7004 6.63523 35.5354 6.63523 35.3754 6.63523C35.2154 6.63523 35.0504 6.63523 34.8904 6.62523C34.8504 6.62523 34.8154 6.60523 34.7754 6.56523C34.7404 6.52523 34.7204 6.46523 34.7254 6.37023C34.7254 6.29523 34.7404 6.24023 34.7654 6.20023C34.7904 6.16023 34.8354 6.14023 34.9004 6.13523C35.1304 6.12523 35.3654 6.11523 35.6104 6.11023C35.8554 6.10523 36.0854 6.10023 36.3004 6.10023C36.3604 6.10023 36.4004 6.11523 36.4204 6.14523C36.4404 6.17523 36.4554 6.22023 36.4554 6.27523C36.4554 6.61023 36.4504 6.93023 36.4404 7.24023C36.4304 7.55023 36.4104 7.86023 36.3854 8.16523C36.3804 8.24523 36.3554 8.30523 36.3204 8.34523C36.2854 8.38523 36.2154 8.40523 36.1104 8.40523C36.0154 8.40523 35.9504 8.38523 35.9154 8.34523C35.8804 8.30523 35.8654 8.24523 35.8604 8.16523C35.8604 8.05023 35.8604 7.94023 35.8554 7.83523C35.8554 7.73023 35.8554 7.63023 35.8504 7.52523C35.7104 7.53523 35.5554 7.55023 35.3954 7.56523C35.2354 7.58023 35.0904 7.59023 34.9554 7.59523C34.9004 7.59523 34.8554 7.58523 34.8254 7.55523C34.7954 7.52523 34.7754 7.46523 34.7704 7.37523C34.7704 7.30023 34.7704 7.24023 34.8004 7.20023C34.8254 7.16023 34.8654 7.13523 34.9354 7.13023C35.0804 7.11523 35.2354 7.10023 35.3954 7.09023L35.4104 7.08523ZM37.2954 8.53023C37.2954 8.58023 37.2754 8.62023 37.2404 8.65023C37.2104 8.68023 37.1754 8.70523 37.1354 8.71523C37.1104 8.72523 37.0754 8.72523 37.0304 8.72523C36.9854 8.72523 36.9454 8.71523 36.9154 8.70523C36.8854 8.69523 36.8604 8.67523 36.8404 8.65023C36.8204 8.62523 36.8054 8.59023 36.8054 8.54023C36.8054 8.34023 36.8054 8.14523 36.8054 7.95523C36.8054 7.76523 36.8054 7.57523 36.8054 7.38523C36.8054 7.19523 36.8054 7.00523 36.8104 6.81023C36.8154 6.61523 36.8154 6.41523 36.8204 6.20523C36.8204 6.11523 36.8604 6.05523 36.9254 6.02523C36.9804 6.00023 37.0454 5.99023 37.1154 5.99023C37.1854 5.99023 37.2504 6.00523 37.3004 6.03023C37.3354 6.05023 37.3604 6.07023 37.3754 6.09523C37.3904 6.12023 37.3954 6.15523 37.3954 6.20523C37.3954 6.59023 37.3954 6.97523 37.3804 7.36523C37.3654 7.75523 37.3354 8.14023 37.3004 8.52523L37.2954 8.53023Z" fill="#005AA9"/>
<path d="M39.1703 7.99486C39.3053 7.99486 39.4353 7.98486 39.5453 7.98486C39.6603 7.98486 39.7403 7.98486 39.7903 7.98486C39.8603 7.98486 39.9003 8.02486 39.9053 8.09986C39.9053 8.14486 39.9053 8.19486 39.9053 8.25986C39.9053 8.32486 39.9053 8.38986 39.9053 8.45986C39.9053 8.52986 39.9053 8.59986 39.9003 8.66986C39.8953 8.73986 39.9003 8.79986 39.8953 8.84986C39.8953 8.91486 39.8753 8.95986 39.8553 8.97986C39.8303 9.00486 39.7953 9.01486 39.7503 9.01986C39.6653 9.02986 39.5503 9.03986 39.4053 9.04486C39.2603 9.04986 39.1153 9.04986 38.9553 9.05486C38.7953 9.05986 38.6503 9.05486 38.5053 9.05486C38.3603 9.05486 38.2403 9.05486 38.1503 9.05986C38.0653 9.05986 38.0053 9.03986 37.9703 8.99986C37.9353 8.95486 37.9153 8.89486 37.9103 8.80486C37.9053 8.70986 37.8953 8.61486 37.8903 8.52486C37.8853 8.42986 37.8803 8.31986 37.8803 8.19986C37.8803 8.14486 37.8953 8.10986 37.9203 8.07986C37.9453 8.04986 37.9803 8.03986 38.0253 8.03486C38.0703 8.03486 38.1453 8.02986 38.2553 8.02486C38.3603 8.02486 38.4803 8.01486 38.6153 8.00986V7.87486C38.4553 7.87486 38.3053 7.88486 38.1553 7.88486C38.0053 7.88486 37.8653 7.88986 37.7353 7.89486C37.7103 7.89486 37.6903 7.88986 37.6753 7.87486C37.6603 7.85986 37.6503 7.84486 37.6403 7.82486C37.6303 7.80486 37.6303 7.78486 37.6253 7.75986C37.6203 7.73486 37.6253 7.71486 37.6253 7.69486C37.6253 7.64986 37.6303 7.60486 37.6403 7.56486C37.6503 7.52486 37.6853 7.49986 37.7353 7.49986C37.9153 7.49486 38.1053 7.48486 38.3103 7.47986C38.5153 7.47486 38.7153 7.46486 38.9203 7.45986C39.1253 7.45486 39.3253 7.44986 39.5203 7.44486C39.7153 7.43986 39.8953 7.43986 40.0653 7.43986C40.1153 7.43986 40.1453 7.45986 40.1603 7.49486C40.1753 7.52986 40.1803 7.57486 40.1803 7.61986C40.1803 7.66486 40.1703 7.70986 40.1553 7.74986C40.1403 7.78986 40.1103 7.81486 40.0653 7.81486C39.9353 7.82486 39.7953 7.83486 39.6403 7.83986C39.4903 7.84986 39.3303 7.85486 39.1703 7.85986V7.99486ZM39.7653 6.90986C39.7253 7.00486 39.6603 7.08486 39.5803 7.15486C39.5003 7.22486 39.3953 7.27986 39.2703 7.31986C39.1453 7.35986 39.0003 7.37986 38.8353 7.37986C38.6903 7.37986 38.5603 7.35986 38.4453 7.32486C38.3353 7.28486 38.2403 7.23486 38.1653 7.16986C38.0903 7.10486 38.0303 7.02986 37.9953 6.93986C37.9553 6.84986 37.9353 6.75486 37.9353 6.65486C37.9353 6.55486 37.9553 6.45486 38.0003 6.35986C38.0453 6.26486 38.1053 6.17986 38.1903 6.10486C38.2753 6.02986 38.3803 5.96986 38.5053 5.92486C38.6303 5.87986 38.7753 5.85986 38.9353 5.85986C39.0703 5.85986 39.1903 5.87986 39.2953 5.91486C39.4053 5.94986 39.4953 6.00486 39.5753 6.06986C39.6553 6.13486 39.7153 6.21486 39.7553 6.30486C39.8003 6.39486 39.8203 6.49486 39.8203 6.59986C39.8203 6.70486 39.8003 6.81486 39.7603 6.91486L39.7653 6.90986ZM39.3753 8.60486C39.3753 8.57986 39.3753 8.54486 39.3753 8.50486C39.3753 8.46486 39.3753 8.41986 39.3703 8.38486C39.3203 8.38486 39.2553 8.38486 39.1753 8.38986C39.0953 8.39486 39.0053 8.39486 38.9153 8.39986C38.8253 8.40486 38.7353 8.40486 38.6553 8.40986C38.5703 8.40986 38.5053 8.40986 38.4553 8.41486C38.4553 8.45486 38.4603 8.50486 38.4653 8.55986C38.4703 8.61486 38.4703 8.65486 38.4753 8.68486C38.5203 8.68486 38.5803 8.68486 38.6553 8.68486C38.7353 8.68486 38.8153 8.68486 38.8953 8.67986C38.9803 8.67986 39.0603 8.67986 39.1353 8.67486C39.2103 8.66986 39.2753 8.67486 39.3203 8.66986C39.3453 8.66986 39.3603 8.66486 39.3703 8.65986C39.3803 8.65486 39.3853 8.63986 39.3853 8.61486L39.3753 8.60486ZM38.8853 6.93986C39.0103 6.93986 39.1053 6.90486 39.1653 6.83986C39.2253 6.77986 39.2553 6.69986 39.2503 6.59486C39.2503 6.48486 39.2153 6.40486 39.1453 6.35986C39.0803 6.31486 38.9903 6.28986 38.8803 6.29486C38.7653 6.29486 38.6753 6.32486 38.6103 6.38486C38.5453 6.43986 38.5153 6.52486 38.5153 6.63486C38.5153 6.73486 38.5453 6.80986 38.6103 6.86486C38.6753 6.91986 38.7653 6.94486 38.8853 6.93986Z" fill="#005AA9"/>
<path d="M40.9504 7.0851C41.1104 7.0751 41.2604 7.0651 41.4054 7.0551C41.4054 6.9901 41.4054 6.9201 41.4054 6.8501C41.4054 6.7801 41.4054 6.7051 41.4054 6.6351C41.2404 6.6351 41.0754 6.6351 40.9154 6.6351C40.7554 6.6351 40.5904 6.6351 40.4304 6.6251C40.3904 6.6251 40.3554 6.6051 40.3154 6.5651C40.2804 6.5251 40.2604 6.4651 40.2654 6.3701C40.2654 6.2951 40.2804 6.2401 40.3054 6.2001C40.3304 6.1601 40.3754 6.1401 40.4404 6.1351C40.6704 6.1251 40.9054 6.1151 41.1504 6.1101C41.3954 6.1051 41.6254 6.1001 41.8404 6.1001C41.9004 6.1001 41.9404 6.1151 41.9604 6.1451C41.9804 6.1751 41.9954 6.2201 41.9954 6.2751C41.9954 6.6101 41.9904 6.9301 41.9804 7.2401C41.9704 7.5501 41.9504 7.8601 41.9254 8.1651C41.9204 8.2451 41.8954 8.3051 41.8604 8.3451C41.8254 8.3851 41.7554 8.4051 41.6504 8.4051C41.5554 8.4051 41.4904 8.3851 41.4554 8.3451C41.4204 8.3051 41.4054 8.2451 41.4004 8.1651C41.4004 8.0501 41.4004 7.9401 41.3954 7.8351C41.3954 7.7301 41.3954 7.6301 41.3904 7.5251C41.2504 7.5351 41.0954 7.5501 40.9354 7.5651C40.7754 7.5801 40.6304 7.5901 40.4954 7.5951C40.4404 7.5951 40.3954 7.5851 40.3654 7.5551C40.3354 7.5251 40.3154 7.4651 40.3104 7.3751C40.3104 7.3001 40.3104 7.2401 40.3404 7.2001C40.3654 7.1601 40.4054 7.1351 40.4754 7.1301C40.6204 7.1151 40.7754 7.1001 40.9354 7.0901L40.9504 7.0851ZM42.8304 6.5851C42.8304 6.7101 42.8304 6.8401 42.8254 6.9651H42.9354C42.9704 6.9651 43.0004 6.9651 43.0254 6.9651C43.0904 6.9701 43.1404 6.9951 43.1654 7.0301C43.1904 7.0701 43.2054 7.1201 43.2054 7.1951C43.2054 7.2801 43.1904 7.3401 43.1604 7.3701C43.1304 7.4051 43.0854 7.4251 43.0304 7.4351C43.0054 7.4351 42.9754 7.4451 42.9354 7.4451C42.8954 7.4451 42.8554 7.4451 42.8104 7.4451C42.8004 7.6251 42.7904 7.8051 42.7804 7.9851C42.7704 8.1651 42.7554 8.3401 42.7354 8.5151C42.7354 8.5651 42.7154 8.6051 42.6804 8.6351C42.6504 8.6651 42.6154 8.6901 42.5754 8.7001C42.5504 8.7101 42.5154 8.7101 42.4704 8.7101C42.4254 8.7101 42.3854 8.7001 42.3554 8.6901C42.3254 8.6801 42.3004 8.6601 42.2804 8.6351C42.2604 8.6101 42.2454 8.5751 42.2454 8.5251C42.2454 8.3251 42.2454 8.1301 42.2454 7.9401C42.2454 7.7501 42.2454 7.5601 42.2454 7.3701C42.2454 7.1801 42.2454 6.9901 42.2504 6.7951C42.2554 6.6001 42.2554 6.4001 42.2604 6.1901C42.2604 6.1001 42.3004 6.0401 42.3654 6.0101C42.4204 5.9851 42.4854 5.9751 42.5554 5.9751C42.6254 5.9751 42.6904 5.9901 42.7404 6.0151C42.7754 6.0351 42.8004 6.0551 42.8154 6.0801C42.8304 6.1051 42.8354 6.1401 42.8354 6.1901V6.5701L42.8304 6.5851Z" fill="#005AA9"/>
<path d="M43.3001 8.60986C43.2651 8.57486 43.2451 8.51986 43.2451 8.43986C43.2451 8.36486 43.2601 8.30486 43.2951 8.26486C43.3301 8.22486 43.3801 8.19986 43.4351 8.19986C43.6201 8.18986 43.8001 8.17986 43.9701 8.17486C44.1451 8.16486 44.3101 8.15986 44.4801 8.15486C44.6451 8.14986 44.8151 8.14486 44.9801 8.13986C45.1451 8.13986 45.3151 8.13486 45.4851 8.12986C45.5351 8.12986 45.5751 8.14486 45.6051 8.17986C45.6351 8.21486 45.6501 8.25986 45.6501 8.31986C45.6501 8.40486 45.6301 8.46486 45.5901 8.49486C45.5501 8.52486 45.5051 8.54486 45.4551 8.54986C45.1201 8.58486 44.7901 8.60986 44.4651 8.62986C44.1401 8.64986 43.8001 8.66486 43.4451 8.66986C43.3801 8.66986 43.3301 8.64986 43.2951 8.61486L43.3001 8.60986ZM45.5651 7.50986C45.5651 7.64486 45.5251 7.71486 45.4401 7.72486C45.3051 7.73986 45.1701 7.75486 45.0201 7.76486C44.8751 7.77486 44.7251 7.78486 44.5701 7.79486C44.4151 7.80486 44.2651 7.80986 44.1101 7.81486C43.9551 7.81486 43.8051 7.81986 43.6601 7.81986C43.5501 7.81986 43.4701 7.79486 43.4101 7.74986C43.3551 7.69986 43.3251 7.62486 43.3201 7.51486C43.3201 7.43486 43.3201 7.34486 43.3201 7.23986C43.3201 7.13486 43.3201 7.02486 43.3201 6.91486C43.3201 6.80486 43.3201 6.68986 43.3251 6.57986C43.3251 6.46986 43.3301 6.36486 43.3401 6.26986C43.3451 6.17986 43.3951 6.13486 43.4851 6.13486C43.6601 6.12986 43.8251 6.12486 43.9801 6.11986C44.1351 6.11986 44.2901 6.11486 44.4401 6.10986C44.5901 6.10986 44.7451 6.10986 44.9001 6.10986C45.0551 6.10986 45.2201 6.10986 45.3901 6.11486C45.4351 6.11486 45.4751 6.13486 45.5051 6.16986C45.5351 6.20986 45.5501 6.26486 45.5501 6.33486C45.5501 6.41486 45.5351 6.47486 45.5101 6.51986C45.4851 6.56486 45.4451 6.58986 45.3951 6.58986C45.2501 6.59986 45.1201 6.60486 45.0001 6.60986C44.8801 6.61486 44.7651 6.61986 44.6551 6.62486C44.5451 6.62486 44.4301 6.62986 44.3101 6.63486C44.1951 6.63486 44.0651 6.63986 43.9251 6.64486C43.9251 6.76486 43.9151 6.87986 43.9101 6.97986C43.9101 7.08486 43.9001 7.17486 43.9001 7.25986C43.9001 7.31486 43.9301 7.33986 43.9951 7.33986C44.1251 7.33986 44.2451 7.33986 44.3601 7.33486C44.4751 7.32986 44.5901 7.33486 44.7051 7.32986C44.8201 7.32986 44.9351 7.32986 45.0551 7.32486C45.1751 7.32486 45.2951 7.31986 45.4251 7.31486C45.4701 7.31486 45.5001 7.32986 45.5251 7.36486C45.5451 7.39986 45.5601 7.44986 45.5601 7.50486L45.5651 7.50986Z" fill="#005AA9"/>
<path d="M35.6445 9.26514C36.2245 10.0951 37.1795 10.6401 38.2695 10.6401C39.3595 10.6401 40.3145 10.0951 40.8945 9.26514C40.2245 9.85514 39.2995 10.2251 38.2695 10.2251C37.2395 10.2251 36.3145 9.85514 35.6445 9.26514Z" fill="#FF66A4"/>
<path d="M40.2947 3.44011V3.91511C40.2997 3.96011 40.3247 4.00011 40.3597 4.02511L40.7547 4.29011C40.8497 4.35511 40.8297 4.49511 40.7247 4.53011L40.2747 4.68511C40.2347 4.70011 40.1997 4.73511 40.1897 4.77511L40.0597 5.23511C40.0297 5.34511 39.8897 5.37011 39.8197 5.28011L39.5347 4.90011C39.5097 4.86511 39.4647 4.84511 39.4197 4.84511L38.9447 4.86511C38.8347 4.86511 38.7647 4.74511 38.8297 4.65011L39.1047 4.26011C39.1297 4.22511 39.1347 4.17511 39.1197 4.13511L38.9547 3.69011C38.9147 3.58511 39.0147 3.48011 39.1247 3.51511L39.5797 3.65511C39.6247 3.67011 39.6697 3.65511 39.7047 3.63011L40.0797 3.33511C40.1697 3.26511 40.2997 3.32511 40.2997 3.44011H40.2947Z" fill="#FF66A4"/>
</g>
<defs>
<linearGradient id="paint0_linear_6542_19399" x1="85.5952" y1="30.55" x2="85.5952" y2="42.085" gradientUnits="userSpaceOnUse">
<stop stop-color="#EF4E30"/>
<stop offset="0.67" stop-color="#005AA9"/>
</linearGradient>
<linearGradient id="paint1_linear_6542_19399" x1="95.7548" y1="33.0201" x2="95.7548" y2="38.3251" gradientUnits="userSpaceOnUse">
<stop stop-color="#EF4E30"/>
<stop offset="1" stop-color="#005AA9"/>
</linearGradient>
<linearGradient id="paint2_linear_6542_19399" x1="92.6803" y1="27.3848" x2="97.6153" y2="38.6948" gradientUnits="userSpaceOnUse">
<stop offset="0.17" stop-color="#EF4E30"/>
<stop offset="0.94" stop-color="#005AA9"/>
</linearGradient>
<linearGradient id="paint3_linear_6542_19399" x1="10.2252" y1="25.19" x2="26.5602" y2="38.89" gradientUnits="userSpaceOnUse">
<stop stop-color="#BEA05E"/>
<stop offset="0.51" stop-color="#F9F7E5"/>
<stop offset="1" stop-color="#C3A974"/>
</linearGradient>
<clipPath id="clip0_6542_19399">
<rect width="114" height="72" fill="white"/>
</clipPath>
</defs>
</svg>
