<svg width="114" height="72" viewBox="0 0 114 72" fill="none" xmlns="http://www.w3.org/2000/svg">
<g clip-path="url(#clip0_6542_17496)">
<mask id="mask0_6542_17496" style="mask-type:luminance" maskUnits="userSpaceOnUse" x="0" y="0" width="114" height="72">
<path d="M114 68C114 70.21 112.21 72 110.005 72H3.995C1.79 72 0 70.21 0 68V4C0 1.79 1.79 0 3.995 0H110.005C112.21 0 114 1.79 114 4V68Z" fill="white"/>
</mask>
<g mask="url(#mask0_6542_17496)">
<path d="M9.52527 73.77C6.24527 73.77 3.58527 72.62 -1.29973 71.205V3.16504C-1.29973 1.82504 -3.52473 0.600039 -0.24473 -1.20996H114.25C117.53 0.600039 115.3 1.11004 115.3 3.16504V71.205C110.415 72.62 107.755 73.77 104.48 73.77H9.52527Z" fill="url(#paint0_radial_6542_17496)"/>
<path d="M114.265 90.9851V15.3501C90.3553 15.3501 47.1603 33.3551 41.4053 90.9901H114.265V90.9851Z" fill="#FCC800" stroke="#FFF100" stroke-width="0.6"/>
<path d="M122.725 23.6201C101.09 23.6201 44.2404 28.7951 36.4854 105.405H122.725V23.6201Z" fill="#F7AF00" stroke="#FFF100" stroke-width="0.6"/>
<path d="M132.59 24.4053C110.955 24.4053 54.1046 29.5803 46.3496 106.19H132.59V24.4053Z" fill="#F39800" stroke="#FFF100" stroke-width="0.6"/>
<path d="M126.455 36.71C100.12 36.71 55.5099 42.59 45.8799 104.445H126.455V36.71Z" fill="#F08300" stroke="#FFF100" stroke-width="0.6"/>
<path d="M-1.09961 36.79C17.6404 33.985 77.4454 39.66 99.3854 79.67V93.31H-1.09961V36.785V36.79Z" fill="#FCC800" stroke="#FFF100" stroke-width="0.6"/>
<path d="M-3.04492 39.1399C21.8051 36.4749 80.5351 49.3299 93.6801 95.4599H-3.04492V39.1399Z" fill="#F7AF00" stroke="#FFF100" stroke-width="0.6"/>
<path d="M-5.99512 50.25C9.81488 44.365 77.8049 54.545 92.2649 99.41H-5.99512V50.25Z" fill="#F39800" stroke="#FFF100" stroke-width="0.6"/>
<path d="M-14.29 53.4248C2.23496 50.2148 64.235 52.0798 77.39 100.215H-14.29V53.4248Z" fill="#F08300" stroke="#FFF100" stroke-width="0.6"/>
<path d="M10.5452 66.3149H-0.214844V72.0149H10.5452V66.3149Z" fill="#E63288"/>
<mask id="mask1_6542_17496" style="mask-type:luminance" maskUnits="userSpaceOnUse" x="-1" y="66" width="12" height="7">
<path d="M10.55 66.3149H-0.209961V72.0149H10.55V66.3149Z" fill="white"/>
</mask>
<g mask="url(#mask1_6542_17496)">
<path d="M9.91016 68.5247C9.91016 71.1597 7.77516 73.2947 5.14516 73.2947C2.51516 73.2947 0.380156 71.1597 0.380156 68.5247C0.380156 65.8897 2.51516 63.7547 5.14516 63.7547C7.77516 63.7547 9.91016 65.8897 9.91016 68.5247ZM0.0351562 68.5247C0.0351562 71.3497 2.32016 73.6397 5.14016 73.6397C7.96016 73.6397 10.2452 71.3497 10.2452 68.5247C10.2452 65.6997 7.96016 63.4097 5.14016 63.4097C2.32016 63.4097 0.0351562 65.6997 0.0351562 68.5247Z" fill="#EF7F25"/>
<path d="M6.50543 68.5248C6.50543 69.2798 5.89543 69.8898 5.14543 69.8898C4.39543 69.8898 3.78543 69.2798 3.78543 68.5248C3.78543 67.7698 4.39543 67.1598 5.14543 67.1598C5.89543 67.1598 6.50543 67.7698 6.50543 68.5248ZM3.44043 68.5248C3.44043 69.4648 4.20043 70.2298 5.14043 70.2298C6.08043 70.2298 6.84043 69.4648 6.84043 68.5248C6.84043 67.5848 6.08043 66.8198 5.14043 66.8198C4.20043 66.8198 3.44043 67.5848 3.44043 68.5248Z" fill="#EF7F25"/>
<path d="M7.18574 68.5247C7.18574 69.6547 6.27074 70.5696 5.14074 70.5696C4.01074 70.5696 3.09574 69.6547 3.09574 68.5247C3.09574 67.3947 4.01074 66.4797 5.14074 66.4797C6.27074 66.4797 7.18574 67.3947 7.18574 68.5247ZM2.76074 68.5247C2.76074 69.8447 3.82574 70.9097 5.14574 70.9097C6.46574 70.9097 7.53074 69.8397 7.53074 68.5247C7.53074 67.2097 6.46574 66.1396 5.14574 66.1396C3.82574 66.1396 2.76074 67.2097 2.76074 68.5247Z" fill="#EF7F25"/>
<path d="M7.87008 68.5246C7.87008 70.0296 6.65008 71.2496 5.14508 71.2496C3.64008 71.2496 2.42008 70.0296 2.42008 68.5246C2.42008 67.0196 3.64008 65.7996 5.14508 65.7996C6.65008 65.7996 7.87008 67.0196 7.87008 68.5246ZM2.08008 68.5246C2.08008 70.2196 3.45008 71.5946 5.14508 71.5946C6.84008 71.5946 8.21008 70.2196 8.21008 68.5246C8.21008 66.8296 6.84008 65.4546 5.14508 65.4546C3.45008 65.4546 2.08008 66.8296 2.08008 68.5246Z" fill="#EF7F25"/>
<path d="M8.55039 68.5249C8.55039 70.4049 7.02539 71.9349 5.14539 71.9349C3.26539 71.9349 1.74039 70.4099 1.74039 68.5249C1.74039 66.6399 3.26539 65.1149 5.14539 65.1149C7.02539 65.1149 8.55039 66.6399 8.55039 68.5249ZM1.40039 68.5249C1.40039 70.5949 3.07539 72.2749 5.14539 72.2749C7.21539 72.2749 8.89039 70.5949 8.89039 68.5249C8.89039 66.4549 7.21539 64.7749 5.14539 64.7749C3.07539 64.7749 1.40039 66.4549 1.40039 68.5249Z" fill="#EF7F25"/>
<path d="M9.2307 68.5247C9.2307 70.7847 7.4007 72.6147 5.1457 72.6147C2.8907 72.6147 1.0607 70.7847 1.0607 68.5247C1.0607 66.2647 2.8907 64.4347 5.1457 64.4347C7.4007 64.4347 9.2307 66.2647 9.2307 68.5247ZM0.720703 68.5247C0.720703 70.9697 2.7007 72.9547 5.1457 72.9547C7.5907 72.9547 9.5707 70.9697 9.5707 68.5247C9.5707 66.0797 7.5907 64.0947 5.1457 64.0947C2.7007 64.0947 0.720703 66.0797 0.720703 68.5247Z" fill="#EF7F25"/>
<path d="M10.5905 68.525C10.5905 71.535 8.15047 73.98 5.14547 73.98C2.14047 73.98 -0.299531 71.54 -0.299531 68.525C-0.299531 65.51 2.14047 63.07 5.14547 63.07C8.15047 63.07 10.5905 65.51 10.5905 68.525ZM-0.644531 68.525C-0.644531 71.725 1.94547 74.32 5.14547 74.32C8.34547 74.32 10.9355 71.725 10.9355 68.525C10.9355 65.325 8.34547 62.73 5.14547 62.73C1.94547 62.73 -0.644531 65.325 -0.644531 68.525Z" fill="#EF7F25"/>
<path d="M11.3006 68.5248C11.3006 71.9148 8.54559 74.6598 5.14059 74.6598C1.73559 74.6598 -1.01441 71.9148 -1.01441 68.5248C-1.01441 65.1348 1.74059 62.3898 5.14059 62.3898C8.54059 62.3898 11.3006 65.1348 11.3006 68.5248ZM-1.39941 68.5248C-1.39941 72.0998 1.53059 74.9998 5.14059 74.9998C8.75059 74.9998 11.6806 72.0998 11.6806 68.5248C11.6806 64.9498 8.75059 62.0498 5.14059 62.0498C1.53059 62.0498 -1.39941 64.9498 -1.39941 68.5248Z" fill="#EF7F25"/>
<path d="M12.0455 68.5247C12.0455 72.2897 8.95547 75.3397 5.14547 75.3397C1.33547 75.3397 -1.75453 72.2897 -1.75453 68.5247C-1.75453 64.7597 1.33547 61.7097 5.14547 61.7097C8.95547 61.7097 12.0455 64.7597 12.0455 68.5247ZM-2.01953 68.5247C-2.01953 72.4797 1.19047 75.6847 5.14547 75.6847C9.10047 75.6847 12.3105 72.4797 12.3105 68.5247C12.3105 64.5697 9.10047 61.3647 5.14547 61.3647C1.19047 61.3647 -2.01953 64.5697 -2.01953 68.5247Z" fill="#EF7F25"/>
</g>
<path d="M21.3349 66.3149H10.5449V72.0149H21.3349V66.3149Z" fill="#08ACB8"/>
<path d="M10.5449 71.8349L10.8549 72.0149H11.5149L10.5449 71.4549V71.8349ZM10.5449 68.4799L14.2899 66.3149H13.6299L10.5449 68.0999V68.4799Z" fill="#E63288"/>
<path d="M10.5449 71.0748L12.1799 72.0198H12.8399L10.5449 70.6948V71.0748ZM10.5449 69.2498L15.6149 66.3198H14.9549L10.5449 68.8698V69.2498Z" fill="#E63288"/>
<path d="M10.5449 70.3099L13.5049 72.0149H14.1649L10.6199 69.9699L16.9399 66.3149H16.2749L10.5449 69.6249V70.3099Z" fill="#E63288"/>
<path d="M14.8253 72.0149H15.4853L11.9403 69.9699L18.2603 66.3149H17.6003L11.2803 69.9699L14.8253 72.0149Z" fill="#E63288"/>
<path d="M16.1446 72.0149H16.8096L13.2646 69.9699L19.5796 66.3149H18.9196L12.5996 69.9699L16.1446 72.0149Z" fill="#E63288"/>
<path d="M17.4698 72.0149H18.1298L14.5848 69.9699L20.9048 66.3149H20.2348L13.9248 69.9699L17.4698 72.0149Z" fill="#E63288"/>
<path d="M18.7901 72.0148H19.4501L15.9051 69.9698L21.3401 66.8298V66.4448L15.2451 69.9698L18.7901 72.0148Z" fill="#E63288"/>
<path d="M20.1153 72.015H20.7753L17.2303 69.97L21.3403 67.59V67.21L16.5703 69.97L20.1153 72.015Z" fill="#E63288"/>
<path d="M21.3396 71.9601V71.5801L18.5496 69.9701L21.3396 68.3551V67.9751L17.8896 69.9701L21.3396 71.9601Z" fill="#E63288"/>
<path d="M21.3398 71.1952V70.8152L19.8748 69.9702L21.3398 69.1202V68.7402L19.2148 69.9702L21.3398 71.1952Z" fill="#E63288"/>
<path d="M32.0648 66.3149H21.3398V72.0149H32.0648V66.3149Z" fill="#EF7F25"/>
<path d="M23.6552 66.3149H23.3252V72.0149H23.6552V66.3149Z" fill="#08ACB8"/>
<path d="M22.9902 66.3149H22.6602V72.0149H22.9902V66.3149Z" fill="#08ACB8"/>
<path d="M22.33 66.3149H22V72.0149H22.33V66.3149Z" fill="#08ACB8"/>
<path d="M21.6698 66.3149H21.3398V72.0149H21.6698V66.3149Z" fill="#08ACB8"/>
<path d="M27.29 72.015H27.62V69.415H32.06V69.085H27.29V72.015Z" fill="#08ACB8"/>
<path d="M26.6299 72.0149H26.9599V68.7549H32.0599V68.4199H26.6299V72.0149Z" fill="#08ACB8"/>
<path d="M25.9648 72.0153H26.2948V68.0902H32.0598V67.7603H25.9648V72.0153Z" fill="#08ACB8"/>
<path d="M25.3047 72.0151H25.6347V67.4301H32.0597V67.1001H25.3047V72.0151Z" fill="#08ACB8"/>
<path d="M24.6445 72.0151H24.9745V66.7701H32.0595V66.4351H24.6445V72.0151Z" fill="#08ACB8"/>
<path d="M24.3154 66.3149H23.9854V72.0149H24.3154V66.3149Z" fill="#08ACB8"/>
<path d="M42.8147 66.3149H32.0547V72.0149H42.8147V66.3149Z" fill="#E63288"/>
<mask id="mask2_6542_17496" style="mask-type:luminance" maskUnits="userSpaceOnUse" x="32" y="66" width="11" height="7">
<path d="M42.8147 66.3149H32.0547V72.0149H42.8147V66.3149Z" fill="white"/>
</mask>
<g mask="url(#mask2_6542_17496)">
<path d="M42.1797 68.5247C42.1797 71.1597 40.0447 73.2947 37.4147 73.2947C34.7847 73.2947 32.6497 71.1597 32.6497 68.5247C32.6497 65.8897 34.7847 63.7547 37.4147 63.7547C40.0447 63.7547 42.1797 65.8897 42.1797 68.5247ZM32.3047 68.5247C32.3047 71.3497 34.5897 73.6397 37.4097 73.6397C40.2297 73.6397 42.5147 71.3497 42.5147 68.5247C42.5147 65.6997 40.2297 63.4097 37.4097 63.4097C34.5897 63.4097 32.3047 65.6997 32.3047 68.5247Z" fill="#EF7F25"/>
<path d="M38.775 68.5248C38.775 69.2798 38.165 69.8898 37.415 69.8898C36.665 69.8898 36.055 69.2798 36.055 68.5248C36.055 67.7698 36.665 67.1598 37.415 67.1598C38.165 67.1598 38.775 67.7698 38.775 68.5248ZM35.71 68.5248C35.71 69.4648 36.47 70.2298 37.41 70.2298C38.35 70.2298 39.11 69.4648 39.11 68.5248C39.11 67.5848 38.35 66.8198 37.41 66.8198C36.47 66.8198 35.71 67.5848 35.71 68.5248Z" fill="#EF7F25"/>
<path d="M39.4553 68.5247C39.4553 69.6547 38.5403 70.5696 37.4103 70.5696C36.2803 70.5696 35.3653 69.6547 35.3653 68.5247C35.3653 67.3947 36.2803 66.4797 37.4103 66.4797C38.5403 66.4797 39.4553 67.3947 39.4553 68.5247ZM35.0303 68.5247C35.0303 69.8447 36.0953 70.9097 37.4153 70.9097C38.7353 70.9097 39.8003 69.8397 39.8003 68.5247C39.8003 67.2097 38.7353 66.1396 37.4153 66.1396C36.0953 66.1396 35.0303 67.2097 35.0303 68.5247Z" fill="#EF7F25"/>
<path d="M40.1347 68.5246C40.1347 70.0296 38.9147 71.2496 37.4097 71.2496C35.9047 71.2496 34.6847 70.0296 34.6847 68.5246C34.6847 67.0196 35.9047 65.7996 37.4097 65.7996C38.9147 65.7996 40.1347 67.0196 40.1347 68.5246ZM34.3447 68.5246C34.3447 70.2196 35.7147 71.5946 37.4097 71.5946C39.1047 71.5946 40.4747 70.2196 40.4747 68.5246C40.4747 66.8296 39.1047 65.4546 37.4097 65.4546C35.7147 65.4546 34.3447 66.8296 34.3447 68.5246Z" fill="#EF7F25"/>
<path d="M40.815 68.5249C40.815 70.4049 39.29 71.9349 37.41 71.9349C35.53 71.9349 34.005 70.4099 34.005 68.5249C34.005 66.6399 35.53 65.1149 37.41 65.1149C39.29 65.1149 40.815 66.6399 40.815 68.5249ZM33.665 68.5249C33.665 70.5949 35.34 72.2749 37.41 72.2749C39.48 72.2749 41.155 70.5949 41.155 68.5249C41.155 66.4549 39.48 64.7749 37.41 64.7749C35.34 64.7749 33.665 66.4549 33.665 68.5249Z" fill="#EF7F25"/>
<path d="M41.4953 68.5247C41.4953 70.7847 39.6654 72.6147 37.4104 72.6147C35.1554 72.6147 33.3254 70.7847 33.3254 68.5247C33.3254 66.2647 35.1554 64.4347 37.4104 64.4347C39.6654 64.4347 41.4953 66.2647 41.4953 68.5247ZM32.9854 68.5247C32.9854 70.9697 34.9654 72.9547 37.4104 72.9547C39.8554 72.9547 41.8354 70.9697 41.8354 68.5247C41.8354 66.0797 39.8554 64.0947 37.4104 64.0947C34.9654 64.0947 32.9854 66.0797 32.9854 68.5247Z" fill="#EF7F25"/>
<path d="M42.86 68.525C42.86 71.535 40.42 73.98 37.415 73.98C34.41 73.98 31.97 71.54 31.97 68.525C31.97 65.51 34.41 63.07 37.415 63.07C40.42 63.07 42.86 65.51 42.86 68.525ZM31.625 68.525C31.625 71.725 34.215 74.32 37.415 74.32C40.615 74.32 43.205 71.725 43.205 68.525C43.205 65.325 40.615 62.73 37.415 62.73C34.215 62.73 31.625 65.325 31.625 68.525Z" fill="#EF7F25"/>
<path d="M43.5701 68.5248C43.5701 71.9148 40.8151 74.6598 37.4101 74.6598C34.0051 74.6598 31.2551 71.9148 31.2551 68.5248C31.2551 65.1348 34.0101 62.3898 37.4101 62.3898C40.8101 62.3898 43.5701 65.1348 43.5701 68.5248ZM30.8701 68.5248C30.8701 72.0998 33.8001 74.9998 37.4101 74.9998C41.0201 74.9998 43.9501 72.0998 43.9501 68.5248C43.9501 64.9498 41.0201 62.0498 37.4101 62.0498C33.8001 62.0498 30.8701 64.9498 30.8701 68.5248Z" fill="#EF7F25"/>
<path d="M44.3101 68.5247C44.3101 72.2897 41.2201 75.3397 37.4101 75.3397C33.6001 75.3397 30.5101 72.2897 30.5101 68.5247C30.5101 64.7597 33.6001 61.7097 37.4101 61.7097C41.2201 61.7097 44.3101 64.7597 44.3101 68.5247ZM30.2451 68.5247C30.2451 72.4797 33.4551 75.6847 37.4101 75.6847C41.3651 75.6847 44.5751 72.4797 44.5751 68.5247C44.5751 64.5697 41.3651 61.3647 37.4101 61.3647C33.4551 61.3647 30.2451 64.5697 30.2451 68.5247Z" fill="#EF7F25"/>
</g>
<path d="M53.6054 66.3149H42.8154V72.0149H53.6054V66.3149Z" fill="#08ACB8"/>
<path d="M42.8154 71.8349L43.1254 72.0149H43.7854L42.8154 71.4549V71.8349ZM42.8154 68.4799L46.5604 66.3149H45.9004L42.8154 68.0999V68.4799Z" fill="#E63288"/>
<path d="M42.8154 71.0748L44.4504 72.0198H45.1104L42.8154 70.6948V71.0748ZM42.8154 69.2498L47.8854 66.3198H47.2254L42.8154 68.8698V69.2498Z" fill="#E63288"/>
<path d="M42.8154 70.3099L45.7704 72.0149H46.4304L42.8854 69.9699L49.2054 66.3149H48.5454L42.8154 69.6249V70.3099Z" fill="#E63288"/>
<path d="M47.0948 72.0149H47.7548L44.2098 69.9699L50.5298 66.3149H49.8648L43.5498 69.9699L47.0948 72.0149Z" fill="#E63288"/>
<path d="M48.4151 72.0149H49.0751L45.5301 69.9699L51.8501 66.3149H51.1901L44.8701 69.9699L48.4151 72.0149Z" fill="#E63288"/>
<path d="M49.7354 72.0149H50.4004L46.8554 69.9699L53.1704 66.3149H52.5004L46.1904 69.9699L49.7354 72.0149Z" fill="#E63288"/>
<path d="M51.0597 72.0148H51.7197L48.1746 69.9698L53.6046 66.8298V66.4448L47.5146 69.9698L51.0597 72.0148Z" fill="#E63288"/>
<path d="M52.38 72.015H53.04L49.495 69.97L53.605 67.59V67.21L48.835 69.97L52.38 72.015Z" fill="#E63288"/>
<path d="M53.6052 71.9601V71.5801L50.8202 69.9701L53.6052 68.3551V67.9751L50.1602 69.9701L53.6052 71.9601Z" fill="#E63288"/>
<path d="M53.6045 71.1952V70.8152L52.1395 69.9702L53.6045 69.1202V68.7402L51.4795 69.9702L53.6045 71.1952Z" fill="#E63288"/>
<path d="M64.3295 66.3149H53.6045V72.0149H64.3295V66.3149Z" fill="#EF7F25"/>
<path d="M55.9198 66.3149H55.5898V72.0149H55.9198V66.3149Z" fill="#08ACB8"/>
<path d="M55.2597 66.3149H54.9297V72.0149H55.2597V66.3149Z" fill="#08ACB8"/>
<path d="M54.5995 66.3149H54.2695V72.0149H54.5995V66.3149Z" fill="#08ACB8"/>
<path d="M53.9345 66.3149H53.6045V72.0149H53.9345V66.3149Z" fill="#08ACB8"/>
<path d="M59.5547 72.015H59.8847V69.415H64.3297V69.085H59.5547V72.015Z" fill="#08ACB8"/>
<path d="M58.8945 72.0149H59.2245V68.7549H64.3295V68.4199H58.8945V72.0149Z" fill="#08ACB8"/>
<path d="M58.2354 72.0153H58.5653V68.0902H64.3304V67.7603H58.2354V72.0153Z" fill="#08ACB8"/>
<path d="M57.5752 72.0151H57.9052V67.4301H64.3302V67.1001H57.5752V72.0151Z" fill="#08ACB8"/>
<path d="M56.9102 72.0151H57.2452V66.7701H64.3302V66.4351H56.9102V72.0151Z" fill="#08ACB8"/>
<path d="M56.58 66.3149H56.25V72.0149H56.58V66.3149Z" fill="#08ACB8"/>
<path d="M75.0803 66.3149H64.3203V72.0149H75.0803V66.3149Z" fill="#E63288"/>
<mask id="mask3_6542_17496" style="mask-type:luminance" maskUnits="userSpaceOnUse" x="64" y="66" width="12" height="7">
<path d="M75.0852 66.3149H64.3252V72.0149H75.0852V66.3149Z" fill="white"/>
</mask>
<g mask="url(#mask3_6542_17496)">
<path d="M74.4453 68.5247C74.4453 71.1597 72.3103 73.2947 69.6803 73.2947C67.0503 73.2947 64.9153 71.1597 64.9153 68.5247C64.9153 65.8897 67.0503 63.7547 69.6803 63.7547C72.3103 63.7547 74.4453 65.8897 74.4453 68.5247ZM64.5703 68.5247C64.5703 71.3497 66.8553 73.6397 69.6753 73.6397C72.4953 73.6397 74.7803 71.3497 74.7803 68.5247C74.7803 65.6997 72.4953 63.4097 69.6753 63.4097C66.8553 63.4097 64.5703 65.6997 64.5703 68.5247Z" fill="#EF7F25"/>
<path d="M71.0406 68.5248C71.0406 69.2798 70.4306 69.8898 69.6806 69.8898C68.9306 69.8898 68.3206 69.2798 68.3206 68.5248C68.3206 67.7698 68.9306 67.1598 69.6806 67.1598C70.4306 67.1598 71.0406 67.7698 71.0406 68.5248ZM67.9756 68.5248C67.9756 69.4648 68.7356 70.2298 69.6756 70.2298C70.6156 70.2298 71.3756 69.4648 71.3756 68.5248C71.3756 67.5848 70.6156 66.8198 69.6756 66.8198C68.7356 66.8198 67.9756 67.5848 67.9756 68.5248Z" fill="#EF7F25"/>
<path d="M71.7209 68.5247C71.7209 69.6547 70.8059 70.5696 69.6759 70.5696C68.5459 70.5696 67.6309 69.6547 67.6309 68.5247C67.6309 67.3947 68.5459 66.4797 69.6759 66.4797C70.8059 66.4797 71.7209 67.3947 71.7209 68.5247ZM67.2959 68.5247C67.2959 69.8447 68.3609 70.9097 69.6809 70.9097C71.0009 70.9097 72.0659 69.8397 72.0659 68.5247C72.0659 67.2097 71.0009 66.1396 69.6809 66.1396C68.3609 66.1396 67.2959 67.2097 67.2959 68.5247Z" fill="#EF7F25"/>
<path d="M72.4052 68.5246C72.4052 70.0296 71.1852 71.2496 69.6802 71.2496C68.1752 71.2496 66.9552 70.0296 66.9552 68.5246C66.9552 67.0196 68.1752 65.7996 69.6802 65.7996C71.1852 65.7996 72.4052 67.0196 72.4052 68.5246ZM66.6152 68.5246C66.6152 70.2196 67.9852 71.5946 69.6802 71.5946C71.3752 71.5946 72.7452 70.2196 72.7452 68.5246C72.7452 66.8296 71.3752 65.4546 69.6802 65.4546C67.9852 65.4546 66.6152 66.8296 66.6152 68.5246Z" fill="#EF7F25"/>
<path d="M73.0855 68.5249C73.0855 70.4049 71.5605 71.9349 69.6805 71.9349C67.8005 71.9349 66.2756 70.4099 66.2756 68.5249C66.2756 66.6399 67.8005 65.1149 69.6805 65.1149C71.5605 65.1149 73.0855 66.6399 73.0855 68.5249ZM65.9355 68.5249C65.9355 70.5949 67.6105 72.2749 69.6805 72.2749C71.7505 72.2749 73.4256 70.5949 73.4256 68.5249C73.4256 66.4549 71.7505 64.7749 69.6805 64.7749C67.6105 64.7749 65.9355 66.4549 65.9355 68.5249Z" fill="#EF7F25"/>
<path d="M73.7659 68.5247C73.7659 70.7847 71.9359 72.6147 69.6809 72.6147C67.4259 72.6147 65.5959 70.7847 65.5959 68.5247C65.5959 66.2647 67.4259 64.4347 69.6809 64.4347C71.9359 64.4347 73.7659 66.2647 73.7659 68.5247ZM65.2559 68.5247C65.2559 70.9697 67.2359 72.9547 69.6809 72.9547C72.1259 72.9547 74.1059 70.9697 74.1059 68.5247C74.1059 66.0797 72.1259 64.0947 69.6809 64.0947C67.2359 64.0947 65.2559 66.0797 65.2559 68.5247Z" fill="#EF7F25"/>
<path d="M75.1256 68.525C75.1256 71.535 72.6856 73.98 69.6806 73.98C66.6756 73.98 64.2356 71.54 64.2356 68.525C64.2356 65.51 66.6756 63.07 69.6806 63.07C72.6856 63.07 75.1256 65.51 75.1256 68.525ZM63.8906 68.525C63.8906 71.725 66.4806 74.32 69.6806 74.32C72.8806 74.32 75.4706 71.725 75.4706 68.525C75.4706 65.325 72.8806 62.73 69.6806 62.73C66.4806 62.73 63.8906 65.325 63.8906 68.525Z" fill="#EF7F25"/>
<path d="M75.8357 68.5248C75.8357 71.9148 73.0807 74.6598 69.6757 74.6598C66.2707 74.6598 63.5207 71.9148 63.5207 68.5248C63.5207 65.1348 66.2757 62.3898 69.6757 62.3898C73.0757 62.3898 75.8357 65.1348 75.8357 68.5248ZM63.1357 68.5248C63.1357 72.0998 66.0657 74.9998 69.6757 74.9998C73.2857 74.9998 76.2157 72.0998 76.2157 68.5248C76.2157 64.9498 73.2857 62.0498 69.6757 62.0498C66.0657 62.0498 63.1357 64.9498 63.1357 68.5248Z" fill="#EF7F25"/>
<path d="M76.5806 68.5247C76.5806 72.2897 73.4906 75.3397 69.6806 75.3397C65.8706 75.3397 62.7806 72.2897 62.7806 68.5247C62.7806 64.7597 65.8706 61.7097 69.6806 61.7097C73.4906 61.7097 76.5806 64.7597 76.5806 68.5247ZM62.5156 68.5247C62.5156 72.4797 65.7256 75.6847 69.6806 75.6847C73.6356 75.6847 76.8456 72.4797 76.8456 68.5247C76.8456 64.5697 73.6356 61.3647 69.6806 61.3647C65.7256 61.3647 62.5156 64.5697 62.5156 68.5247Z" fill="#EF7F25"/>
</g>
<path d="M85.875 66.3149H75.085V72.0149H85.875V66.3149Z" fill="#08ACB8"/>
<path d="M75.085 71.8349L75.395 72.0149H76.055L75.085 71.4549V71.8349ZM75.085 68.4799L78.83 66.3149H78.17L75.085 68.0999V68.4799Z" fill="#E63288"/>
<path d="M75.085 71.0748L76.72 72.0198H77.38L75.085 70.6948V71.0748ZM75.085 69.2498L80.155 66.3198H79.495L75.085 68.8698V69.2498Z" fill="#E63288"/>
<path d="M75.085 70.3099L78.04 72.0149H78.7L75.155 69.9699L81.475 66.3149H80.81L75.085 69.6249V70.3099Z" fill="#E63288"/>
<path d="M79.3604 72.0149H80.0204L76.4754 69.9699L82.7954 66.3149H82.1354L75.8154 69.9699L79.3604 72.0149Z" fill="#E63288"/>
<path d="M80.6796 72.0149H81.3447L77.7997 69.9699L84.1146 66.3149H83.4547L77.1396 69.9699L80.6796 72.0149Z" fill="#E63288"/>
<path d="M82.005 72.0149H82.665L79.12 69.9699L85.44 66.3149H84.77L78.46 69.9699L82.005 72.0149Z" fill="#E63288"/>
<path d="M83.3253 72.0148H83.9853L80.4453 69.9698L85.8753 66.8298V66.4448L79.7803 69.9698L83.3253 72.0148Z" fill="#E63288"/>
<path d="M84.6495 72.015H85.3095L81.7645 69.97L85.8745 67.59V67.21L81.1045 69.97L84.6495 72.015Z" fill="#E63288"/>
<path d="M85.8748 71.9601V71.5801L83.0848 69.9701L85.8748 68.3551V67.9751L82.4248 69.9701L85.8748 71.9601Z" fill="#E63288"/>
<path d="M85.875 71.1952V70.8152L84.41 69.9702L85.875 69.1202V68.7402L83.75 69.9702L85.875 71.1952Z" fill="#E63288"/>
<path d="M96.6 66.3149H85.875V72.0149H96.6V66.3149Z" fill="#EF7F25"/>
<path d="M88.1904 66.3149H87.8604V72.0149H88.1904V66.3149Z" fill="#08ACB8"/>
<path d="M87.5253 66.3149H87.1953V72.0149H87.5253V66.3149Z" fill="#08ACB8"/>
<path d="M86.8652 66.3149H86.5352V72.0149H86.8652V66.3149Z" fill="#08ACB8"/>
<path d="M86.205 66.3149H85.875V72.0149H86.205V66.3149Z" fill="#08ACB8"/>
<path d="M91.8252 72.015H92.1552V69.415H96.5952V69.085H91.8252V72.015Z" fill="#08ACB8"/>
<path d="M91.165 72.0149H91.495V68.7549H96.595V68.4199H91.165V72.0149Z" fill="#08ACB8"/>
<path d="M90.5 72.0153H90.835V68.0902H96.595V67.7603H90.5V72.0153Z" fill="#08ACB8"/>
<path d="M89.8398 72.0151H90.1698V67.4301H96.5948V67.1001H89.8398V72.0151Z" fill="#08ACB8"/>
<path d="M89.1797 72.0151H89.5097V66.7701H96.5947V66.4351H89.1797V72.0151Z" fill="#08ACB8"/>
<path d="M88.8495 66.3149H88.5195V72.0149H88.8495V66.3149Z" fill="#08ACB8"/>
<path d="M107.35 66.3149H96.5898V72.0149H107.35V66.3149Z" fill="#E63288"/>
<mask id="mask4_6542_17496" style="mask-type:luminance" maskUnits="userSpaceOnUse" x="96" y="66" width="12" height="7">
<path d="M107.35 66.3149H96.5898V72.0149H107.35V66.3149Z" fill="white"/>
</mask>
<g mask="url(#mask4_6542_17496)">
<path d="M106.715 68.5247C106.715 71.1597 104.58 73.2947 101.95 73.2947C99.3198 73.2947 97.1848 71.1597 97.1848 68.5247C97.1848 65.8897 99.3198 63.7547 101.95 63.7547C104.58 63.7547 106.715 65.8897 106.715 68.5247ZM96.8398 68.5247C96.8398 71.3497 99.1248 73.6397 101.945 73.6397C104.765 73.6397 107.05 71.3497 107.05 68.5247C107.05 65.6997 104.765 63.4097 101.945 63.4097C99.1248 63.4097 96.8398 65.6997 96.8398 68.5247Z" fill="#EF7F25"/>
<path d="M103.31 68.5248C103.31 69.2798 102.7 69.8898 101.95 69.8898C101.2 69.8898 100.59 69.2798 100.59 68.5248C100.59 67.7698 101.2 67.1598 101.95 67.1598C102.7 67.1598 103.31 67.7698 103.31 68.5248ZM100.245 68.5248C100.245 69.4648 101.005 70.2298 101.945 70.2298C102.885 70.2298 103.645 69.4648 103.645 68.5248C103.645 67.5848 102.885 66.8198 101.945 66.8198C101.005 66.8198 100.245 67.5848 100.245 68.5248Z" fill="#EF7F25"/>
<path d="M103.99 68.5247C103.99 69.6547 103.075 70.5696 101.945 70.5696C100.815 70.5696 99.9004 69.6547 99.9004 68.5247C99.9004 67.3947 100.815 66.4797 101.945 66.4797C103.075 66.4797 103.99 67.3947 103.99 68.5247ZM99.5654 68.5247C99.5654 69.8447 100.63 70.9097 101.95 70.9097C103.27 70.9097 104.335 69.8397 104.335 68.5247C104.335 67.2097 103.27 66.1396 101.95 66.1396C100.63 66.1396 99.5654 67.2097 99.5654 68.5247Z" fill="#EF7F25"/>
<path d="M104.67 68.5246C104.67 70.0296 103.45 71.2496 101.945 71.2496C100.44 71.2496 99.2199 70.0296 99.2199 68.5246C99.2199 67.0196 100.44 65.7996 101.945 65.7996C103.45 65.7996 104.67 67.0196 104.67 68.5246ZM98.8799 68.5246C98.8799 70.2196 100.25 71.5946 101.945 71.5946C103.64 71.5946 105.01 70.2196 105.01 68.5246C105.01 66.8296 103.64 65.4546 101.945 65.4546C100.25 65.4546 98.8799 66.8296 98.8799 68.5246Z" fill="#EF7F25"/>
<path d="M105.35 68.5249C105.35 70.4049 103.825 71.9349 101.945 71.9349C100.065 71.9349 98.5402 70.4099 98.5402 68.5249C98.5402 66.6399 100.065 65.1149 101.945 65.1149C103.825 65.1149 105.35 66.6399 105.35 68.5249ZM98.2002 68.5249C98.2002 70.5949 99.8752 72.2749 101.945 72.2749C104.015 72.2749 105.69 70.5949 105.69 68.5249C105.69 66.4549 104.015 64.7749 101.945 64.7749C99.8752 64.7749 98.2002 66.4549 98.2002 68.5249Z" fill="#EF7F25"/>
<path d="M106.031 68.5247C106.031 70.7847 104.201 72.6147 101.946 72.6147C99.6905 72.6147 97.8605 70.7847 97.8605 68.5247C97.8605 66.2647 99.6905 64.4347 101.946 64.4347C104.201 64.4347 106.031 66.2647 106.031 68.5247ZM97.5205 68.5247C97.5205 70.9697 99.5005 72.9547 101.946 72.9547C104.391 72.9547 106.371 70.9697 106.371 68.5247C106.371 66.0797 104.391 64.0947 101.946 64.0947C99.5005 64.0947 97.5205 66.0797 97.5205 68.5247Z" fill="#EF7F25"/>
<path d="M107.395 68.525C107.395 71.535 104.955 73.98 101.95 73.98C98.9451 73.98 96.5051 71.54 96.5051 68.525C96.5051 65.51 98.9451 63.07 101.95 63.07C104.955 63.07 107.395 65.51 107.395 68.525ZM96.1602 68.525C96.1602 71.725 98.7501 74.32 101.95 74.32C105.15 74.32 107.74 71.725 107.74 68.525C107.74 65.325 105.15 62.73 101.95 62.73C98.7501 62.73 96.1602 65.325 96.1602 68.525Z" fill="#EF7F25"/>
<path d="M108.105 68.5248C108.105 71.9148 105.35 74.6598 101.945 74.6598C98.5403 74.6598 95.7903 71.9148 95.7903 68.5248C95.7903 65.1348 98.5453 62.3898 101.945 62.3898C105.345 62.3898 108.105 65.1348 108.105 68.5248ZM95.4053 68.5248C95.4053 72.0998 98.3353 74.9998 101.945 74.9998C105.555 74.9998 108.485 72.0998 108.485 68.5248C108.485 64.9498 105.555 62.0498 101.945 62.0498C98.3353 62.0498 95.4053 64.9498 95.4053 68.5248Z" fill="#EF7F25"/>
<path d="M108.845 68.5247C108.845 72.2897 105.755 75.3397 101.945 75.3397C98.1353 75.3397 95.0453 72.2897 95.0453 68.5247C95.0453 64.7597 98.1353 61.7097 101.945 61.7097C105.755 61.7097 108.845 64.7597 108.845 68.5247ZM94.7803 68.5247C94.7803 72.4797 97.9903 75.6847 101.945 75.6847C105.9 75.6847 109.11 72.4797 109.11 68.5247C109.11 64.5697 105.9 61.3647 101.945 61.3647C97.9903 61.3647 94.7803 64.5697 94.7803 68.5247Z" fill="#EF7F25"/>
</g>
<path d="M118.14 66.3149H107.35V72.0149H118.14V66.3149Z" fill="#08ACB8"/>
<path d="M107.35 71.8349L107.66 72.0149H108.32L107.35 71.4549V71.8349ZM107.35 68.4799L111.095 66.3149H110.435L107.35 68.0999V68.4799Z" fill="#E63288"/>
<path d="M107.35 71.0748L108.985 72.0198H109.645L107.35 70.6948V71.0748ZM107.35 69.2498L112.42 66.3198H111.76L107.35 68.8698V69.2498Z" fill="#E63288"/>
<path d="M107.35 70.3099L110.305 72.0149H110.965L107.42 69.9699L113.74 66.3149H113.08L107.35 69.6249V70.3099Z" fill="#E63288"/>
<path d="M111.63 72.0149H112.29L108.745 69.9699L115.065 66.3149H114.4L108.085 69.9699L111.63 72.0149Z" fill="#E63288"/>
<path d="M112.95 72.0149H113.61L110.065 69.9699L116.385 66.3149H115.725L109.405 69.9699L112.95 72.0149Z" fill="#E63288"/>
<path d="M114.27 72.0149H114.935L111.39 69.9699L117.705 66.3149H117.035L110.725 69.9699L114.27 72.0149Z" fill="#E63288"/>
<path d="M115.595 72.0148H116.255L112.71 69.9698L118.14 66.8298V66.4448L112.05 69.9698L115.595 72.0148Z" fill="#E63288"/>
<path d="M116.915 72.015H117.575L114.03 69.97L118.14 67.59V67.21L113.37 69.97L116.915 72.015Z" fill="#E63288"/>
</g>
<path d="M99.9246 4.7251H99.2046V6.2601H96.2546V4.7251H95.5346C95.3596 4.7251 95.2246 4.8651 95.2246 5.0351V8.3701C95.2246 8.5401 95.3646 8.6801 95.5346 8.6801H96.2546V7.0301H99.2046V8.6801H99.9246C100.095 8.6801 100.235 8.5401 100.235 8.3701V5.0351C100.235 4.8601 100.095 4.7251 99.9246 4.7251Z" fill="#006DBB"/>
<path d="M94.0795 4.7251H93.3545V7.6401L91.0845 5.3351C90.7245 4.9801 90.4745 4.7251 89.8995 4.7251H89.2695V8.3701C89.2695 8.5401 89.4095 8.6801 89.5795 8.6801H90.2995V5.7501L92.5495 8.0401C92.9195 8.4051 93.2445 8.6801 93.7795 8.6801H94.3845V5.0351C94.3845 4.8601 94.2445 4.7251 94.0745 4.7251H94.0795Z" fill="#006DBB"/>
<path d="M108.29 6.94488L109.195 6.08488H108.875C108.715 6.08488 108.63 6.16988 108.555 6.24488C108.555 6.24488 108.025 6.76488 107.93 6.85488V5.25488H107.75C107.645 5.25488 107.555 5.33988 107.555 5.44988V7.83488C107.555 7.93988 107.64 8.02988 107.75 8.02988H107.93V7.05488C107.96 7.08988 108.685 7.88488 108.685 7.88488C108.765 7.96988 108.815 8.02988 108.98 8.02988H109.31C109.31 8.02988 108.31 6.96488 108.295 6.94988L108.29 6.94488Z" fill="#006DBB"/>
<path d="M106.39 6.08008H105.5V7.82508C105.5 7.93508 105.59 8.02008 105.695 8.02008H105.875V6.38508H106.35C106.645 6.40508 106.745 6.57508 106.745 7.03508V8.02008H106.92C107.03 8.02008 107.115 7.93508 107.115 7.82508V6.91508C107.115 6.37008 106.865 6.08008 106.385 6.08008H106.39Z" fill="#006DBB"/>
<path d="M102.61 6.675C102.9 6.56 103.075 6.375 103.075 6.045C103.075 5.6 102.76 5.375 102.145 5.375H101.62C101.515 5.375 101.425 5.46 101.425 5.57V7.83C101.425 7.935 101.51 8.025 101.62 8.025H102.135C102.815 8.025 103.145 7.795 103.145 7.315C103.145 6.965 102.915 6.74 102.615 6.68L102.61 6.675ZM102.015 6.495H101.82V5.7H102.205C102.345 5.7 102.68 5.735 102.68 6.08C102.68 6.46 102.38 6.495 102.015 6.495ZM102.725 7.275C102.725 7.565 102.53 7.69 102.09 7.69H101.82V6.82H102.055C102.37 6.82 102.725 6.87 102.725 7.275Z" fill="#006DBB"/>
<path d="M104.175 7.73016C104.01 7.73016 103.825 7.62016 103.825 7.44016C103.825 7.13016 104.285 7.10016 104.48 7.10016H104.695V7.73016H104.17H104.175ZM104.875 8.02016C104.98 8.02016 105.07 7.93516 105.07 7.82516V6.84016C105.07 6.29016 104.825 6.03516 104.29 6.03516C104.08 6.03516 103.87 6.09516 103.67 6.20516V6.54516L103.685 6.53516C103.825 6.41516 104.04 6.34016 104.235 6.34016C104.56 6.34016 104.695 6.48016 104.7 6.82016C104.565 6.81516 104.47 6.81516 104.335 6.81516C104.025 6.81516 103.435 6.94516 103.435 7.44016C103.435 7.81516 103.69 8.02016 104.145 8.02016H104.875Z" fill="#006DBB"/>
<path d="M14.7649 5.19512C14.5899 5.06012 14.3399 4.99512 14.0199 4.99512C13.6999 4.99512 13.4499 5.06012 13.2749 5.19512C13.1149 5.32012 13.0299 5.49012 13.0299 5.70512C13.0299 5.92012 13.1099 6.09012 13.2749 6.22012C13.4499 6.35512 13.6999 6.42012 14.0199 6.42012C14.3399 6.42012 14.5899 6.35512 14.7649 6.22012C14.9249 6.09512 15.0099 5.92012 15.0099 5.70512C15.0099 5.49012 14.9299 5.32512 14.7649 5.19512ZM15.6549 6.53012H12.3799V6.88012H13.7299V7.13512H12.8249V7.48512H14.5749C14.6199 7.48512 14.6399 7.50512 14.6399 7.55012V7.67012H12.8249V8.25512C12.8249 8.45012 12.9349 8.55012 13.1599 8.55012H15.2749V8.20012H13.4749C13.4299 8.20012 13.4049 8.18012 13.4049 8.13512V8.00012H15.1749L15.2199 7.33512C15.2249 7.20512 15.1599 7.14012 15.0249 7.14012H14.3049V6.88512H15.6549V6.53512V6.53012ZM14.3299 5.95012C14.2499 6.01512 14.1499 6.04512 14.0149 6.04512C13.8799 6.04512 13.7799 6.01512 13.6999 5.95012C13.6199 5.88512 13.5849 5.80512 13.5849 5.70012C13.5849 5.59512 13.6249 5.52012 13.6999 5.45512C13.7799 5.39012 13.8799 5.36012 14.0149 5.36012C14.1499 5.36012 14.2499 5.39012 14.3299 5.45512C14.4099 5.52012 14.4449 5.60012 14.4449 5.70012C14.4449 5.80012 14.4049 5.88512 14.3299 5.95012ZM19.1849 5.90512H18.6299V5.14012H18.0549V7.44012H18.6299V6.28012H19.1849V5.90512ZM17.0949 5.45012V5.18512H16.5099V5.45512C16.5099 5.78012 16.4549 6.05012 16.3399 6.25012C16.2199 6.46012 16.0199 6.63512 15.7399 6.77512L15.9749 7.11012C16.1649 7.03012 16.3399 6.91512 16.4999 6.76512C16.6599 6.61512 16.7649 6.47012 16.8149 6.32512C16.8699 6.46512 16.9799 6.61012 17.1449 6.75512C17.3099 6.90512 17.4699 7.00512 17.6299 7.06012L17.8499 6.73512C17.3449 6.48512 17.0949 6.05512 17.0949 5.44512V5.45012ZM18.7649 8.06012H17.1049C17.0349 8.06012 16.9999 8.03012 16.9999 7.97012V7.27012H16.4249V8.19012C16.4249 8.28012 16.4449 8.34512 16.4899 8.38012C16.5299 8.41512 16.5999 8.43512 16.6949 8.43512H18.7699V8.05512L18.7649 8.06012ZM22.5749 5.86012H22.0649V5.14512H21.4899V6.26512C21.4899 6.37512 21.4499 6.45012 21.3699 6.49512C21.3099 6.53012 21.2049 6.55512 21.0549 6.57512C20.9199 6.59012 20.6399 6.59512 20.2249 6.59512V5.98012H19.6899V6.59512H19.2049V6.95512H20.0099C20.5299 6.95512 20.8649 6.94512 21.0149 6.92512C21.2449 6.89012 21.4049 6.83012 21.4899 6.74512V7.05512H22.0649V6.24012H22.5749V5.86512V5.86012ZM20.9049 5.17512H19.3799V5.53512H20.4699C20.5449 5.53512 20.5799 5.58012 20.5799 5.66512V6.33512H21.0899L21.1599 5.45012C21.1749 5.26512 21.0899 5.17512 20.8999 5.17512H20.9049ZM21.7849 7.29012C21.6099 7.15012 21.3599 7.07512 21.0449 7.07512C20.7299 7.07512 20.4799 7.15012 20.2999 7.29512C20.1299 7.43512 20.0399 7.62012 20.0399 7.85012C20.0399 8.08012 20.1249 8.26512 20.2999 8.40512C20.4799 8.55012 20.7299 8.62012 21.0449 8.62012C21.3599 8.62012 21.6049 8.55012 21.7849 8.40512C21.9599 8.26512 22.0499 8.07512 22.0499 7.85012C22.0499 7.62512 21.9599 7.43012 21.7849 7.29012ZM21.3699 8.12012C21.2899 8.18512 21.1849 8.22012 21.0499 8.22012C20.9149 8.22012 20.8049 8.18512 20.7249 8.12012C20.6449 8.05512 20.6049 7.96512 20.6049 7.85012C20.6049 7.73512 20.6449 7.64512 20.7249 7.58012C20.8049 7.51512 20.9149 7.48012 21.0499 7.48012C21.1849 7.48012 21.2949 7.51512 21.3699 7.58012C21.4499 7.64512 21.4899 7.74012 21.4899 7.85012C21.4899 7.96012 21.4499 8.05012 21.3699 8.12012ZM25.6199 5.14012H25.0449V5.42512H24.3699C24.1899 5.22012 23.9399 5.11512 23.6099 5.11512C23.3249 5.11512 23.0899 5.19512 22.9149 5.36012C22.7349 5.52512 22.6499 5.74012 22.6499 6.01012C22.6499 6.28012 22.7399 6.49512 22.9149 6.66012C23.0949 6.82512 23.3249 6.90512 23.6099 6.90512C23.9449 6.90512 24.2049 6.80012 24.3799 6.58512H25.0399V7.03512H25.6149V5.13012L25.6199 5.14012ZM25.3999 7.20012H23.2599V7.57512H24.9399C25.0099 7.57512 25.0449 7.61512 25.0449 7.69012V8.49512H25.5699L25.6299 7.46012C25.6399 7.29012 25.5599 7.20012 25.3949 7.20012H25.3999ZM24.5549 6.23012C24.5699 6.16512 24.5749 6.09512 24.5749 6.02012C24.5749 5.94012 24.5649 5.86512 24.5499 5.80012H25.0399V6.23512H24.5549V6.23012ZM23.9199 6.36012C23.8449 6.45012 23.7399 6.49512 23.6099 6.49512C23.4799 6.49512 23.3799 6.45012 23.2999 6.36012C23.2249 6.27012 23.1849 6.16012 23.1849 6.02012C23.1849 5.88012 23.2249 5.76512 23.2999 5.67512C23.3749 5.58512 23.4799 5.54012 23.6099 5.54012C23.7399 5.54012 23.8449 5.58512 23.9199 5.67512C23.9949 5.76512 24.0349 5.88012 24.0349 6.02012C24.0349 6.16012 23.9949 6.27012 23.9199 6.36012ZM29.0199 5.14512H28.4449V8.49512H29.0199V5.14512ZM27.3799 5.71012V5.18512H26.7949V5.71012C26.7949 6.09512 26.7399 6.41512 26.6249 6.66512C26.4999 6.93512 26.2849 7.18012 25.9799 7.38512L26.2549 7.71012C26.4399 7.61012 26.6149 7.46512 26.7849 7.28012C26.9549 7.09512 27.0599 6.92512 27.0999 6.76512C27.1499 6.91512 27.2649 7.08512 27.4449 7.28012C27.6249 7.47012 27.7949 7.60012 27.9449 7.67012L28.2049 7.33512C27.6499 6.97012 27.3749 6.43012 27.3749 5.71012H27.3799ZM32.0099 5.22012H29.7949V5.59512H31.5449C31.6199 5.59512 31.6549 5.64012 31.6549 5.72512V7.02012H32.1699L32.2749 5.50512C32.2899 5.31512 32.1999 5.22012 32.0099 5.22012ZM32.6599 7.47512H31.3549V6.35512H30.8299V7.47512H30.5399V6.35512H30.0149V7.47512H29.3799V7.85012H32.6549V7.47512H32.6599ZM35.1649 5.21512C34.9899 5.07012 34.7399 4.99512 34.4249 4.99512C34.1099 4.99512 33.8649 5.06512 33.6849 5.21012C33.5199 5.34512 33.4349 5.52512 33.4349 5.74512C33.4349 5.96512 33.5199 6.14512 33.6849 6.28012C33.8599 6.42512 34.1099 6.49512 34.4249 6.49512C34.7399 6.49512 34.9849 6.42512 35.1649 6.28012C35.3299 6.14512 35.4149 5.96512 35.4149 5.74512C35.4149 5.52512 35.3299 5.35012 35.1649 5.21512ZM36.0649 6.66512H32.7899V7.02012H33.5899V7.34512H33.1949V7.70012H34.9449C35.0199 7.70012 35.0599 7.74012 35.0599 7.81512V8.50512H35.5849L35.6449 7.60512C35.6549 7.43512 35.5749 7.34512 35.4049 7.34512H35.2599V7.02012H36.0599V6.66512H36.0649ZM34.7399 6.02012C34.6599 6.09012 34.5599 6.12512 34.4249 6.12512C34.2899 6.12512 34.1899 6.09012 34.1099 6.02012C34.0299 5.95012 33.9949 5.86012 33.9949 5.75012C33.9949 5.64012 34.0349 5.55012 34.1099 5.48012C34.1899 5.41012 34.2899 5.37512 34.4249 5.37512C34.5599 5.37512 34.6599 5.41012 34.7399 5.48012C34.8199 5.55012 34.8549 5.64012 34.8549 5.75012C34.8549 5.86012 34.8149 5.95012 34.7399 6.02012ZM34.1549 7.34512V7.02012H34.6949V7.34512H34.1549ZM39.2249 5.15012H38.6499V5.99012H38.0499V6.35012H38.6499V6.99012H39.2249V5.14512V5.15012ZM37.5549 5.83012H38.2249V5.46012H37.5449V5.07512H36.9699V5.46012H36.2949V5.83012H36.9649C36.9349 6.23512 36.6849 6.52512 36.2149 6.70012L36.4299 7.05012C36.6199 6.99512 36.7949 6.90012 36.9549 6.77012C37.1149 6.64012 37.2249 6.50512 37.2799 6.35512C37.3499 6.49012 37.4599 6.61012 37.6099 6.71512C37.7599 6.82012 37.9249 6.90012 38.0999 6.94512L38.2949 6.61012C37.8349 6.45512 37.5899 6.19512 37.5549 5.82512V5.83012ZM38.9499 7.24512C38.7649 7.09012 38.5199 7.01012 38.2099 7.01012C37.8999 7.01012 37.6549 7.09012 37.4699 7.24512C37.2949 7.39012 37.2049 7.58012 37.2049 7.81012C37.2049 8.04012 37.2949 8.22512 37.4699 8.37512C37.6549 8.53012 37.8999 8.60512 38.2099 8.60512C38.5199 8.60512 38.7649 8.53012 38.9499 8.37512C39.1249 8.23012 39.2149 8.04012 39.2149 7.81012C39.2149 7.58012 39.1249 7.39512 38.9499 7.24512ZM38.5299 8.09012C38.4499 8.16512 38.3399 8.20512 38.2099 8.20512C38.0799 8.20512 37.9699 8.16512 37.8849 8.09012C37.8049 8.01512 37.7599 7.92012 37.7599 7.81012C37.7599 7.70012 37.7999 7.60012 37.8849 7.52512C37.9649 7.45012 38.0749 7.41512 38.2099 7.41512C38.3449 7.41512 38.4499 7.45012 38.5299 7.52512C38.6099 7.60012 38.6499 7.69512 38.6499 7.81012C38.6499 7.92512 38.6099 8.01512 38.5299 8.09012Z" fill="#4A4A49"/>
<path d="M8.48496 4.63018C8.48496 5.02018 8.16996 5.33018 7.78496 5.33018C7.39996 5.33018 7.08496 5.01518 7.08496 4.63018C7.08496 4.24518 7.39996 3.93018 7.78496 3.93018C8.16996 3.93018 8.48496 4.24518 8.48496 4.63018Z" fill="#D6007E"/>
<path d="M10.8896 8.25491C10.8896 8.10991 10.7446 8.00991 10.6096 8.05991C10.0946 8.25491 9.32964 8.50991 8.70464 8.55991C7.67464 8.63991 7.27464 8.43991 7.21964 8.20491C7.21964 8.20491 6.05964 8.36491 6.09964 8.91991C6.14464 9.47991 7.77964 9.51491 8.53464 9.44491C9.33964 9.36991 10.1046 9.20491 10.7596 8.94991C10.8396 8.91991 10.8896 8.83991 10.8896 8.75491V8.25491Z" fill="#004F9D"/>
<path d="M9.47547 7.47487C9.43047 6.91487 7.80047 6.87987 7.04047 6.94987C6.24047 7.02487 5.47547 7.18487 4.82547 7.43987C4.72047 7.47987 4.66547 7.59987 4.70547 7.70487L4.87047 8.14487C4.91047 8.24987 5.03047 8.30487 5.13547 8.26487C5.64047 8.07987 6.31047 7.87487 6.86547 7.82987C7.89547 7.74987 8.29547 7.94987 8.35047 8.18487C8.35047 8.18487 9.51047 8.02487 9.47047 7.46987" fill="#009C3C"/>
<path d="M7.49476 5.7948C6.84976 5.7948 6.25476 5.6948 5.78476 5.5298C5.66976 5.4898 5.53976 5.5598 5.51476 5.6798L5.40476 6.1948C5.37976 6.2998 5.44476 6.4098 5.54976 6.4398C6.09976 6.5998 6.72976 6.6898 7.39976 6.6898C8.43476 6.6898 9.37976 6.4748 10.0798 6.1198C10.1748 6.0698 10.2198 5.9548 10.1748 5.8548L9.98476 5.4098C9.93476 5.2948 9.79976 5.2498 9.68976 5.3098C9.17976 5.5998 8.38476 5.7898 7.48976 5.7898" fill="#F49B00"/>
<path d="M20.6154 56.6548C20.7454 56.7298 20.8754 56.7848 21.0154 56.8248C21.1554 56.8648 21.3104 56.8798 21.4754 56.8798C21.6054 56.8798 21.7254 56.8598 21.8254 56.8248C21.9254 56.7898 22.0154 56.7248 22.0854 56.6348C22.1554 56.5448 22.2104 56.4298 22.2504 56.2848C22.2904 56.1398 22.3154 55.9598 22.3254 55.7398C22.2254 55.8548 22.0954 55.9448 21.9304 56.0048C21.7654 56.0648 21.5904 56.0948 21.4154 56.0948C21.2154 56.0948 21.0404 56.0648 20.8804 55.9998C20.7254 55.9398 20.5904 55.8498 20.4854 55.7398C20.3754 55.6248 20.2904 55.4898 20.2354 55.3298C20.1754 55.1698 20.1504 54.9898 20.1504 54.7898V54.6748C20.1504 54.4848 20.1854 54.3098 20.2504 54.1448C20.3154 53.9798 20.4104 53.8398 20.5354 53.7198C20.6604 53.5998 20.8104 53.5048 20.9904 53.4398C21.1704 53.3698 21.3704 53.3398 21.5954 53.3398C21.8554 53.3398 22.0754 53.3798 22.2604 53.4598C22.4454 53.5398 22.5954 53.6548 22.7104 53.8048C22.8254 53.9548 22.9104 54.1348 22.9654 54.3498C23.0204 54.5648 23.0454 54.7998 23.0454 55.0598V55.3198C23.0454 55.7698 23.0054 56.1348 22.9304 56.4248C22.8554 56.7148 22.7454 56.9398 22.6054 57.1048C22.4654 57.2698 22.2954 57.3798 22.0954 57.4448C21.8954 57.5048 21.6754 57.5398 21.4354 57.5398C21.2504 57.5398 21.0654 57.5198 20.8704 57.4748C20.6804 57.4298 20.5054 57.3598 20.3504 57.2598L20.6154 56.6598V56.6548ZM22.3204 54.6948C22.3204 54.4748 22.2604 54.2998 22.1404 54.1798C22.0204 54.0598 21.8454 53.9948 21.6104 53.9948C21.3604 53.9948 21.1754 54.0548 21.0504 54.1798C20.9254 54.3048 20.8604 54.4748 20.8604 54.6998V54.7598C20.8604 54.9948 20.9204 55.1748 21.0354 55.2898C21.1504 55.4048 21.3354 55.4598 21.5804 55.4598C21.7104 55.4598 21.8204 55.4398 21.9154 55.4048C22.0104 55.3698 22.0854 55.3198 22.1454 55.2598C22.2054 55.1998 22.2504 55.1248 22.2804 55.0448C22.3104 54.9598 22.3204 54.8748 22.3204 54.7798V54.6948Z" fill="white"/>
<path d="M26.4147 54.8249V56.0449H26.9647V56.6249H26.4147V57.4699H25.7047V56.6249H23.6797V56.1549L25.5297 53.3999H26.3097L24.5347 56.0399H25.7097V54.8199H26.4197L26.4147 54.8249Z" fill="white"/>
<path d="M27.6553 56.3C27.6553 56.185 27.6753 56.08 27.7103 55.98C27.7453 55.88 27.8003 55.79 27.8603 55.71C27.9203 55.63 27.9953 55.56 28.0703 55.505C28.1503 55.45 28.2303 55.405 28.3203 55.38C28.2203 55.33 28.1403 55.27 28.0703 55.2C28.0003 55.13 27.9453 55.055 27.9003 54.98C27.8553 54.905 27.8203 54.825 27.8003 54.745C27.7803 54.665 27.7653 54.595 27.7653 54.525V54.455C27.7653 54.31 27.7903 54.17 27.8403 54.035C27.8903 53.9 27.9703 53.785 28.0753 53.68C28.1803 53.575 28.3153 53.495 28.4803 53.43C28.6453 53.37 28.8353 53.335 29.0603 53.335C29.2853 53.335 29.4703 53.365 29.6303 53.43C29.7953 53.49 29.9303 53.575 30.0403 53.68C30.1503 53.785 30.2303 53.9 30.2853 54.035C30.3403 54.17 30.3653 54.31 30.3653 54.455V54.525C30.3653 54.595 30.3553 54.665 30.3353 54.74C30.3153 54.815 30.2803 54.89 30.2353 54.965C30.1903 55.04 30.1353 55.115 30.0653 55.185C29.9953 55.255 29.9103 55.32 29.8153 55.375C29.9003 55.4 29.9853 55.445 30.0653 55.5C30.1453 55.555 30.2153 55.625 30.2753 55.705C30.3353 55.785 30.3853 55.875 30.4203 55.975C30.4553 56.075 30.4753 56.18 30.4753 56.295V56.39C30.4753 56.55 30.4453 56.705 30.3853 56.84C30.3253 56.975 30.2353 57.1 30.1153 57.2C29.9953 57.3 29.8503 57.38 29.6803 57.44C29.5053 57.5 29.3103 57.53 29.0803 57.53C28.8503 57.53 28.6403 57.5 28.4653 57.44C28.2853 57.38 28.1353 57.3 28.0153 57.2C27.8953 57.1 27.8053 56.98 27.7453 56.84C27.6853 56.7 27.6553 56.55 27.6553 56.39V56.295V56.3ZM28.4003 56.35C28.4003 56.525 28.4603 56.665 28.5853 56.76C28.7103 56.855 28.8703 56.905 29.0753 56.905C29.2803 56.905 29.4353 56.855 29.5553 56.76C29.6703 56.665 29.7303 56.53 29.7303 56.35V56.295C29.7303 56.195 29.7103 56.105 29.6753 56.035C29.6403 55.965 29.5903 55.905 29.5353 55.855C29.4753 55.805 29.4103 55.77 29.3303 55.75C29.2503 55.725 29.1653 55.715 29.0753 55.715C28.9853 55.715 28.9003 55.725 28.8203 55.75C28.7403 55.775 28.6703 55.805 28.6053 55.855C28.5453 55.9 28.4953 55.96 28.4553 56.035C28.4153 56.11 28.4003 56.195 28.4003 56.295V56.35ZM28.5003 54.555C28.5003 54.645 28.5153 54.725 28.5503 54.79C28.5853 54.855 28.6303 54.91 28.6853 54.955C28.7403 55 28.8003 55.03 28.8703 55.05C28.9403 55.07 29.0053 55.08 29.0753 55.08C29.1453 55.08 29.2153 55.07 29.2803 55.05C29.3453 55.03 29.4053 54.995 29.4603 54.955C29.5153 54.915 29.5553 54.855 29.5853 54.79C29.6153 54.725 29.6353 54.645 29.6353 54.555V54.5C29.6353 54.325 29.5853 54.19 29.4803 54.1C29.3753 54.01 29.2403 53.97 29.0703 53.97C28.9103 53.97 28.7803 54.015 28.6703 54.1C28.5603 54.19 28.5053 54.32 28.5053 54.5V54.555H28.5003Z" fill="white"/>
<path d="M31.41 53.9302C31.545 53.7552 31.705 53.6102 31.895 53.5052C32.085 53.3952 32.325 53.3452 32.615 53.3452C32.805 53.3452 32.98 53.3702 33.135 53.4202C33.29 53.4702 33.42 53.5402 33.53 53.6252C33.64 53.7152 33.725 53.8202 33.785 53.9452C33.845 54.0702 33.875 54.2102 33.875 54.3602V54.4152C33.875 54.4952 33.865 54.5802 33.85 54.6702C33.835 54.7602 33.8 54.8502 33.755 54.9352C33.71 55.0202 33.65 55.1002 33.575 55.1702C33.5 55.2402 33.405 55.3002 33.285 55.3452C33.555 55.3952 33.755 55.5002 33.88 55.6652C34.01 55.8302 34.07 56.0302 34.07 56.2652V56.3502C34.07 56.5052 34.04 56.6552 33.98 56.7952C33.92 56.9402 33.83 57.0652 33.705 57.1752C33.585 57.2852 33.43 57.3702 33.245 57.4402C33.06 57.5052 32.84 57.5402 32.595 57.5402C32.35 57.5402 32.13 57.5052 31.91 57.4302C31.69 57.3552 31.485 57.2452 31.29 57.0902L31.645 56.5252C31.745 56.5952 31.83 56.6552 31.915 56.7052C31.995 56.7552 32.075 56.7902 32.15 56.8202C32.225 56.8502 32.3 56.8702 32.37 56.8802C32.44 56.8902 32.52 56.8952 32.6 56.8952C32.855 56.8952 33.045 56.8452 33.165 56.7452C33.285 56.6452 33.345 56.5002 33.345 56.3202V56.2452C33.345 56.0452 33.285 55.9002 33.17 55.8052C33.055 55.7152 32.865 55.6652 32.605 55.6652H32.06V55.0452H32.545C32.675 55.0452 32.775 55.0302 32.86 55.0002C32.94 54.9702 33.005 54.9302 33.05 54.8802C33.095 54.8302 33.125 54.7652 33.145 54.6952C33.16 54.6202 33.17 54.5402 33.17 54.4552V54.4102C33.17 54.2552 33.12 54.1452 33.02 54.0752C32.92 54.0052 32.785 53.9702 32.615 53.9702C32.445 53.9702 32.3 54.0002 32.195 54.0652C32.09 54.1302 31.99 54.2102 31.9 54.3102L31.41 53.9252V53.9302Z" fill="white"/>
<path d="M41.5699 57.4752V54.2202L40.6449 54.7502L40.2949 54.1652L41.6549 53.4102H42.2899V57.4802H41.5699V57.4752Z" fill="white"/>
<path d="M45.2896 57.4752V54.2202L44.3647 54.7502L44.0146 54.1652L45.3746 53.4102H46.0096V57.4802H45.2896V57.4752Z" fill="white"/>
<path d="M49.0103 57.4752V54.2202L48.0854 54.7502L47.7354 54.1652L49.0954 53.4102H49.7304V57.4802H49.0103V57.4752Z" fill="white"/>
<path d="M52.4652 57.4748H51.7052L53.2652 54.0148H51.1152V53.4048H54.0202V53.9598L52.4652 57.4748Z" fill="white"/>
<path d="M61.0902 57.4748H60.3302L61.8902 54.0148H59.7402V53.4048H62.6452V53.9598L61.0902 57.4748Z" fill="white"/>
<path d="M65.9298 54.2202C65.7998 54.1452 65.6698 54.0902 65.5298 54.0502C65.3898 54.0102 65.2348 53.9952 65.0698 53.9952C64.9648 53.9952 64.8648 54.0152 64.7698 54.0502C64.6748 54.0902 64.5898 54.1502 64.5098 54.2402C64.4348 54.3302 64.3698 54.4452 64.3148 54.5902C64.2598 54.7352 64.2298 54.9152 64.2198 55.1352C64.3198 55.0202 64.4498 54.9302 64.6198 54.8702C64.7848 54.8102 64.9598 54.7802 65.1348 54.7802C65.3298 54.7802 65.5048 54.8102 65.6648 54.8752C65.8248 54.9352 65.9548 55.0252 66.0648 55.1402C66.1748 55.2552 66.2598 55.3952 66.3148 55.5552C66.3748 55.7152 66.4048 55.8952 66.4048 56.0902V56.2052C66.4048 56.3952 66.3698 56.5702 66.3048 56.7352C66.2398 56.9002 66.1448 57.0402 66.0198 57.1602C65.8948 57.2802 65.7448 57.3702 65.5648 57.4402C65.3848 57.5102 65.1848 57.5402 64.9598 57.5402C64.6998 57.5402 64.4798 57.5002 64.2948 57.4202C64.1098 57.3402 63.9598 57.2252 63.8448 57.0752C63.7298 56.9252 63.6448 56.7452 63.5898 56.5302C63.5348 56.3152 63.5098 56.0802 63.5098 55.8202V55.5602C63.5098 55.1102 63.5498 54.7452 63.6348 54.4552C63.7198 54.1652 63.8348 53.9402 63.9798 53.7802C64.1248 53.6152 64.2998 53.5052 64.4948 53.4402C64.6898 53.3802 64.8998 53.3452 65.1198 53.3452C65.3048 53.3452 65.4898 53.3652 65.6848 53.4102C65.8748 53.4552 66.0498 53.5252 66.2048 53.6252L65.9398 54.2252L65.9298 54.2202ZM64.2248 56.1802C64.2248 56.4002 64.2848 56.5752 64.4048 56.6952C64.5248 56.8152 64.6998 56.8802 64.9348 56.8802C65.1848 56.8802 65.3698 56.8202 65.4948 56.6952C65.6198 56.5752 65.6848 56.4002 65.6848 56.1752V56.1152C65.6848 55.8802 65.6248 55.7002 65.5098 55.5852C65.3948 55.4702 65.2098 55.4152 64.9648 55.4152C64.8348 55.4152 64.7198 55.4352 64.6298 55.4702C64.5398 55.5052 64.4598 55.5552 64.3998 55.6152C64.3398 55.6752 64.2948 55.7502 64.2648 55.8302C64.2348 55.9152 64.2248 56.0002 64.2248 56.0952V56.1802Z" fill="white"/>
<path d="M67.2305 56.3C67.2305 56.185 67.2505 56.08 67.2855 55.98C67.3205 55.88 67.3755 55.79 67.4355 55.71C67.4955 55.63 67.5705 55.56 67.6455 55.505C67.7255 55.45 67.8055 55.405 67.8955 55.38C67.7955 55.33 67.7155 55.27 67.6455 55.2C67.5755 55.13 67.5205 55.055 67.4755 54.98C67.4305 54.905 67.3955 54.825 67.3755 54.745C67.3505 54.665 67.3405 54.595 67.3405 54.525V54.455C67.3405 54.31 67.3655 54.17 67.4155 54.035C67.4655 53.9 67.5455 53.785 67.6505 53.68C67.7555 53.575 67.8905 53.495 68.0555 53.43C68.2205 53.37 68.4105 53.335 68.6355 53.335C68.8605 53.335 69.0455 53.365 69.2055 53.43C69.3705 53.49 69.5055 53.575 69.6155 53.68C69.7255 53.785 69.8055 53.9 69.8605 54.035C69.9155 54.17 69.9405 54.31 69.9405 54.455V54.525C69.9405 54.595 69.9305 54.665 69.9105 54.74C69.8905 54.815 69.8555 54.89 69.8105 54.965C69.7655 55.04 69.7105 55.115 69.6405 55.185C69.5705 55.255 69.4855 55.32 69.3905 55.375C69.4755 55.4 69.5605 55.445 69.6405 55.5C69.7205 55.56 69.7905 55.625 69.8505 55.705C69.9105 55.785 69.9605 55.875 69.9955 55.975C70.0305 56.075 70.0505 56.18 70.0505 56.295V56.39C70.0505 56.55 70.0205 56.705 69.9605 56.84C69.9005 56.98 69.8105 57.1 69.6905 57.2C69.5705 57.3 69.4255 57.38 69.2555 57.44C69.0805 57.5 68.8855 57.53 68.6555 57.53C68.4255 57.53 68.2155 57.5 68.0405 57.44C67.8605 57.38 67.7105 57.3 67.5905 57.2C67.4705 57.1 67.3805 56.98 67.3205 56.84C67.2605 56.7 67.2305 56.55 67.2305 56.39V56.295V56.3ZM67.9755 56.35C67.9755 56.525 68.0355 56.665 68.1605 56.76C68.2855 56.855 68.4455 56.905 68.6505 56.905C68.8555 56.905 69.0105 56.855 69.1305 56.76C69.2505 56.665 69.3055 56.53 69.3055 56.35V56.295C69.3055 56.195 69.2855 56.105 69.2505 56.035C69.2155 55.965 69.1655 55.905 69.1105 55.855C69.0505 55.805 68.9855 55.77 68.9055 55.75C68.8255 55.725 68.7405 55.715 68.6505 55.715C68.5605 55.715 68.4755 55.725 68.3955 55.75C68.3155 55.775 68.2455 55.805 68.1805 55.855C68.1205 55.9 68.0705 55.96 68.0305 56.035C67.9905 56.11 67.9755 56.195 67.9755 56.295V56.35ZM68.0755 54.555C68.0755 54.645 68.0905 54.725 68.1255 54.79C68.1605 54.855 68.2055 54.91 68.2605 54.955C68.3155 55 68.3755 55.03 68.4455 55.05C68.5155 55.07 68.5805 55.08 68.6505 55.08C68.7205 55.08 68.7905 55.07 68.8555 55.05C68.9205 55.03 68.9805 54.995 69.0355 54.955C69.0905 54.915 69.1305 54.855 69.1605 54.79C69.1905 54.725 69.2105 54.645 69.2105 54.555V54.5C69.2105 54.325 69.1605 54.19 69.0555 54.1C68.9505 54.01 68.8155 53.97 68.6455 53.97C68.4855 53.97 68.3555 54.015 68.2455 54.1C68.1355 54.19 68.0805 54.32 68.0805 54.5V54.555H68.0755Z" fill="white"/>
<path d="M73.4303 54.8249V56.0449H73.9803V56.6249H73.4303V57.4699H72.7203V56.6249H70.6953V56.1549L72.5453 53.3999H73.3253L71.5503 56.0399H72.7253V54.8199H73.4353L73.4303 54.8249Z" fill="white"/>
<path d="M79.5752 56.3C79.5752 56.185 79.5952 56.08 79.6302 55.98C79.6702 55.88 79.7202 55.79 79.7802 55.71C79.8402 55.63 79.9152 55.56 79.9902 55.505C80.0702 55.45 80.1502 55.405 80.2402 55.38C80.1402 55.33 80.0602 55.27 79.9902 55.2C79.9202 55.13 79.8652 55.055 79.8202 54.98C79.7752 54.905 79.7402 54.825 79.7202 54.745C79.6952 54.665 79.6852 54.595 79.6852 54.525V54.455C79.6852 54.31 79.7102 54.17 79.7602 54.035C79.8102 53.9 79.8902 53.785 79.9952 53.68C80.1002 53.575 80.2352 53.495 80.4002 53.43C80.5652 53.37 80.7552 53.335 80.9802 53.335C81.2052 53.335 81.3902 53.365 81.5502 53.43C81.7152 53.49 81.8502 53.575 81.9602 53.68C82.0702 53.785 82.1502 53.9 82.2052 54.035C82.2602 54.17 82.2852 54.31 82.2852 54.455V54.525C82.2852 54.595 82.2752 54.665 82.2552 54.74C82.2352 54.815 82.2002 54.89 82.1552 54.965C82.1102 55.04 82.0552 55.115 81.9852 55.185C81.9152 55.255 81.8302 55.32 81.7352 55.375C81.8202 55.4 81.9052 55.445 81.9852 55.5C82.0652 55.56 82.1352 55.625 82.1952 55.705C82.2552 55.785 82.3052 55.875 82.3402 55.975C82.3752 56.075 82.3952 56.18 82.3952 56.295V56.39C82.3952 56.55 82.3652 56.705 82.3052 56.84C82.2452 56.98 82.1552 57.1 82.0352 57.2C81.9152 57.3 81.7702 57.38 81.6002 57.44C81.4252 57.5 81.2302 57.53 81.0002 57.53C80.7702 57.53 80.5602 57.5 80.3852 57.44C80.2052 57.38 80.0552 57.3 79.9352 57.2C79.8152 57.1 79.7252 56.98 79.6652 56.84C79.6052 56.7 79.5752 56.55 79.5752 56.39V56.295V56.3ZM80.3202 56.35C80.3202 56.525 80.3802 56.665 80.5052 56.76C80.6302 56.855 80.7902 56.905 80.9952 56.905C81.2002 56.905 81.3552 56.855 81.4752 56.76C81.5952 56.665 81.6502 56.53 81.6502 56.35V56.295C81.6502 56.195 81.6302 56.105 81.5952 56.035C81.5602 55.965 81.5102 55.905 81.4552 55.855C81.3952 55.805 81.3302 55.77 81.2502 55.75C81.1702 55.725 81.0852 55.715 80.9952 55.715C80.9052 55.715 80.8202 55.725 80.7402 55.75C80.6602 55.775 80.5902 55.805 80.5252 55.855C80.4652 55.9 80.4152 55.96 80.3752 56.035C80.3352 56.11 80.3202 56.195 80.3202 56.295V56.35ZM80.4202 54.555C80.4202 54.645 80.4352 54.725 80.4702 54.79C80.5052 54.855 80.5502 54.91 80.6052 54.955C80.6602 55 80.7202 55.03 80.7902 55.05C80.8602 55.07 80.9252 55.08 80.9952 55.08C81.0652 55.08 81.1352 55.07 81.2002 55.05C81.2652 55.03 81.3252 54.995 81.3802 54.955C81.4352 54.915 81.4752 54.855 81.5052 54.79C81.5352 54.725 81.5552 54.645 81.5552 54.555V54.5C81.5552 54.325 81.5052 54.19 81.4002 54.1C81.2952 54.01 81.1602 53.97 80.9902 53.97C80.8302 53.97 80.7002 54.015 80.5902 54.1C80.4802 54.19 80.4252 54.32 80.4252 54.5V54.555H80.4202Z" fill="white"/>
<path d="M84.7402 55.3901C84.8552 55.2701 84.9502 55.1651 85.0152 55.0751C85.0852 54.9851 85.1352 54.9051 85.1652 54.8301C85.2002 54.7601 85.2202 54.6951 85.2252 54.6301C85.2302 54.5651 85.2352 54.5101 85.2352 54.4551V54.4101C85.2352 54.3001 85.1902 54.2001 85.1002 54.1151C85.0102 54.0251 84.8602 53.9851 84.6502 53.9851C84.5752 53.9851 84.5002 53.9901 84.4252 54.0101C84.3502 54.0251 84.2802 54.0551 84.2102 54.0951C84.1402 54.1351 84.0702 54.1951 84.0002 54.2701C83.9302 54.3451 83.8602 54.4401 83.7952 54.5601L83.2552 54.2051C83.3052 54.1201 83.3652 54.0251 83.4402 53.9251C83.5152 53.8251 83.6052 53.7301 83.7152 53.6451C83.8252 53.5601 83.9552 53.4901 84.1102 53.4351C84.2602 53.3801 84.4402 53.3501 84.6502 53.3501C84.8802 53.3501 85.0752 53.3801 85.2402 53.4351C85.4052 53.4901 85.5402 53.5701 85.6502 53.6651C85.7552 53.7601 85.8352 53.8701 85.8852 54.0001C85.9352 54.1251 85.9602 54.2601 85.9602 54.4001V54.4551C85.9602 54.6751 85.9102 54.8901 85.8102 55.0901C85.7102 55.2901 85.5652 55.4901 85.3752 55.6801L84.1802 56.8901H86.1152V57.4901H83.2402V56.9501L84.7352 55.4101L84.7402 55.3901Z" fill="white"/>
<path d="M89.9196 55.75C89.9196 56.33 89.7946 56.77 89.5546 57.075C89.3096 57.38 88.9396 57.535 88.4496 57.535C87.9596 57.535 87.5896 57.38 87.3296 57.07C87.0646 56.76 86.9346 56.32 86.9346 55.75V55.115C86.9346 54.545 87.0646 54.105 87.3246 53.795C87.5846 53.49 87.9546 53.335 88.4346 53.335C88.9146 53.335 89.2846 53.49 89.5396 53.795C89.7946 54.1 89.9246 54.54 89.9246 55.115V55.75H89.9196ZM89.1896 55.11C89.1896 54.875 89.1696 54.69 89.1246 54.545C89.0796 54.4 89.0246 54.29 88.9546 54.215C88.8846 54.14 88.8046 54.085 88.7146 54.06C88.6246 54.035 88.5296 54.02 88.4296 54.02C88.3296 54.02 88.2446 54.035 88.1496 54.06C88.0596 54.085 87.9746 54.14 87.8996 54.22C87.8246 54.3 87.7646 54.41 87.7196 54.555C87.6746 54.7 87.6496 54.885 87.6496 55.115V55.76C87.6496 55.995 87.6746 56.18 87.7196 56.325C87.7646 56.47 87.8296 56.58 87.9046 56.66C87.9796 56.74 88.0646 56.79 88.1596 56.82C88.2546 56.845 88.3496 56.86 88.4396 56.86C88.5296 56.86 88.6296 56.845 88.7196 56.82C88.8096 56.795 88.8896 56.74 88.9546 56.665C89.0196 56.59 89.0746 56.48 89.1196 56.335C89.1646 56.19 89.1796 56 89.1796 55.765V55.12L89.1896 55.11Z" fill="white"/>
<path d="M93.6451 55.75C93.6451 56.33 93.5252 56.77 93.2802 57.075C93.0352 57.38 92.6652 57.535 92.1752 57.535C91.6852 57.535 91.3152 57.38 91.0552 57.07C90.7902 56.76 90.6602 56.32 90.6602 55.75V55.115C90.6602 54.545 90.7902 54.105 91.0502 53.795C91.3102 53.49 91.6802 53.335 92.1602 53.335C92.6402 53.335 93.0102 53.49 93.2652 53.795C93.5202 54.1 93.6502 54.54 93.6502 55.115V55.75H93.6451ZM92.9152 55.11C92.9152 54.875 92.8952 54.69 92.8502 54.545C92.8052 54.4 92.7502 54.29 92.6802 54.215C92.6102 54.14 92.5302 54.085 92.4402 54.06C92.3502 54.035 92.2552 54.02 92.1552 54.02C92.0552 54.02 91.9702 54.035 91.8752 54.06C91.7852 54.085 91.7002 54.14 91.6252 54.22C91.5502 54.3 91.4902 54.41 91.4452 54.555C91.4002 54.7 91.3752 54.885 91.3752 55.115V55.76C91.3752 55.995 91.4002 56.18 91.4452 56.325C91.4902 56.47 91.5551 56.58 91.6301 56.66C91.7051 56.74 91.7902 56.79 91.8852 56.82C91.9802 56.845 92.0752 56.86 92.1652 56.86C92.2552 56.86 92.3552 56.845 92.4452 56.82C92.5352 56.795 92.6152 56.74 92.6802 56.665C92.7452 56.59 92.8002 56.48 92.8452 56.335C92.8902 56.19 92.9052 56 92.9052 55.765V55.12L92.9152 55.11Z" fill="white"/>
<path d="M49.1249 33.355C48.5699 31.59 46.9249 31.275 46.9249 31.275C46.9249 31.275 45.3799 33.875 47.7349 35.04C47.4749 35.325 46.5299 36.08 45.2299 34.05C43.7899 31.8 44.0499 29.64 41.9499 28.15C39.8499 26.66 33.2649 25.355 31.2299 26.81C29.1999 28.265 28.7499 30.12 28.1749 31.8C28.1749 31.8 26.6148 38.07 33.8848 39.38C40.8048 40.63 46.7699 39.155 48.7899 35.64C52.7749 36.785 53.0098 33.65 53.0098 33.65C51.6498 32.85 49.9749 33.21 49.1299 33.36" fill="#FFCB00"/>
<path d="M38.5403 40.0002C37.0503 40.0002 35.4753 39.8602 33.8503 39.5652C31.4803 39.1402 29.7803 38.1452 28.7953 36.6202C27.3553 34.3902 27.9603 31.8552 27.9903 31.7502C28.0503 31.5702 28.1053 31.4052 28.1603 31.2402C28.6653 29.7202 29.2353 28.0002 31.1203 26.6502C33.1953 25.1652 39.8803 26.4402 42.0603 27.9902C43.3903 28.9302 43.8103 30.1402 44.2553 31.4152C44.5403 32.2352 44.8353 33.0802 45.3903 33.9452C45.9003 34.7402 46.4103 35.1802 46.8653 35.2202C47.0853 35.2402 47.2653 35.1652 47.3953 35.0752C46.8503 34.7452 46.4903 34.3052 46.3303 33.7552C45.9653 32.5302 46.7253 31.2302 46.7553 31.1752C46.7953 31.1052 46.8753 31.0702 46.9553 31.0852C47.0253 31.1002 48.6253 31.4252 49.2503 33.1352C50.1353 32.9752 51.7603 32.6902 53.1003 33.4802C53.1653 33.5152 53.2003 33.5852 53.1953 33.6602C53.1953 33.7102 53.0953 34.9002 52.0903 35.6002C51.3153 36.1402 50.2353 36.2302 48.8753 35.8652C47.2603 38.5152 43.3703 40.0052 38.5403 40.0052V40.0002ZM34.1103 26.3702C32.9303 26.3702 31.9203 26.5452 31.3353 26.9652C29.5553 28.2402 29.0253 29.8302 28.5153 31.3602C28.4603 31.5252 28.4053 31.6952 28.3503 31.8602C28.3503 31.8702 27.7653 34.3302 29.1153 36.4202C30.0453 37.8502 31.6603 38.7852 33.9153 39.1902C40.7503 40.4202 46.6603 38.9552 48.6203 35.5402C48.6653 35.4652 48.7553 35.4252 48.8403 35.4502C50.1453 35.8252 51.1653 35.7702 51.8703 35.2802C52.5503 34.8052 52.7453 34.0402 52.8003 33.7452C51.5903 33.1002 50.1653 33.3602 49.3003 33.5152L49.1603 33.5402C49.0653 33.5602 48.9703 33.5002 48.9453 33.4102C48.5203 32.0502 47.4153 31.6102 47.0253 31.4952C46.8553 31.8302 46.4453 32.7802 46.7053 33.6452C46.8603 34.1652 47.2353 34.5752 47.8203 34.8652C47.8753 34.8902 47.9153 34.9452 47.9253 35.0002C47.9353 35.0602 47.9203 35.1202 47.8753 35.1652C47.7103 35.3452 47.3503 35.6402 46.8353 35.6002C46.2453 35.5502 45.6503 35.0602 45.0653 34.1502C44.4903 33.2502 44.1853 32.3802 43.8903 31.5402C43.4453 30.2702 43.0603 29.1702 41.8353 28.3002C40.4053 27.2852 36.8153 26.3652 34.1153 26.3652L34.1103 26.3702Z" fill="#2C2019"/>
<path d="M32.3097 37.09C32.3097 37.09 32.2396 40.685 36.1896 40.915C38.6246 41.055 34.1346 36.915 34.1346 36.915" fill="#FFCD00"/>
<path d="M36.3051 41.1101C36.2651 41.1101 36.2251 41.1101 36.1801 41.1101C32.0951 40.8751 32.1201 37.1301 32.1201 37.0901C32.1201 36.9851 32.2101 36.9001 32.3101 36.9001C32.4151 36.9001 32.5001 36.9901 32.5001 37.0951C32.5001 37.2351 32.4851 40.5051 36.2001 40.7201C36.3651 40.7301 36.6451 40.7251 36.7051 40.5901C36.9251 40.0701 35.2601 38.2101 34.0051 37.0501C33.9251 36.9801 33.9201 36.8551 33.9951 36.7801C34.0651 36.7001 34.1901 36.6951 34.2651 36.7701C34.8001 37.2651 37.4651 39.7901 37.0601 40.7401C36.9551 40.9851 36.7001 41.1051 36.3051 41.1051V41.1101Z" fill="#1C1C1B"/>
<path d="M36.9148 37.5652C36.7298 37.3402 36.5048 36.7052 36.3548 36.2502C36.2598 35.9502 36.0098 35.7202 35.6998 35.6552C33.5048 35.1802 29.5648 33.6152 28.0348 32.9902C27.9848 34.8752 28.6148 38.4302 33.8848 39.3802C36.3498 39.8252 38.6948 39.9252 40.7848 39.7052C38.5848 39.0052 37.1748 37.8752 36.9148 37.5652Z" fill="white"/>
<path d="M38.5398 39.9998C37.0498 39.9998 35.4748 39.8598 33.8498 39.5648C31.4798 39.1398 29.7798 38.1448 28.7948 36.6198C28.0248 35.4248 27.8398 34.1398 27.8398 33.1898C27.8398 32.3698 27.9748 31.7948 27.9898 31.7448C28.0498 31.5648 28.1048 31.3998 28.1598 31.2348C28.6648 29.7148 29.2348 27.9948 31.1198 26.6448C33.1948 25.1598 39.8798 26.4348 42.0598 27.9848C43.3898 28.9248 43.8098 30.1348 44.2548 31.4098C44.5398 32.2298 44.8348 33.0748 45.3898 33.9398C45.8998 34.7348 46.4098 35.1748 46.8648 35.2148C47.0848 35.2348 47.2648 35.1598 47.3948 35.0698C46.8498 34.7398 46.4898 34.2998 46.3298 33.7498C46.2598 33.5148 46.2298 33.2748 46.2298 33.0398C46.2298 32.0648 46.7298 31.2148 46.7548 31.1698C46.7948 31.0998 46.8748 31.0648 46.9548 31.0798C47.0248 31.0948 48.6248 31.4198 49.2498 33.1298C50.1348 32.9698 51.7598 32.6848 53.0998 33.4748C53.1598 33.5098 53.1948 33.5748 53.1948 33.6398C53.1948 33.6398 53.1948 33.6498 53.1948 33.6548C53.1948 33.7048 53.0948 34.8948 52.0898 35.5948C51.3148 36.1348 50.2348 36.2248 48.8748 35.8598C47.2598 38.5098 43.3698 39.9998 38.5398 39.9998ZM28.2248 33.1748C28.2248 34.0748 28.3948 35.2998 29.1148 36.4148C30.0448 37.8448 31.6598 38.7798 33.9148 39.1848C40.7498 40.4148 46.6598 38.9498 48.6198 35.5348C48.6648 35.4598 48.7548 35.4198 48.8398 35.4448C50.1448 35.8198 51.1648 35.7648 51.8698 35.2748C52.5498 34.7998 52.7448 34.0348 52.7998 33.7398C51.5898 33.0948 50.1648 33.3548 49.2998 33.5098L49.1598 33.5348C49.0648 33.5548 48.9698 33.4948 48.9448 33.4048C48.5198 32.0448 47.4148 31.6048 47.0248 31.4898C46.8948 31.7498 46.6198 32.3748 46.6198 33.0448C46.6198 33.2398 46.6448 33.4448 46.7048 33.6398C46.8598 34.1598 47.2348 34.5698 47.8198 34.8598C47.8748 34.8848 47.9148 34.9398 47.9248 34.9948C47.9248 35.0048 47.9248 35.0198 47.9248 35.0298C47.9248 35.0798 47.9048 35.1248 47.8748 35.1598C47.7098 35.3398 47.3498 35.6348 46.8348 35.5948C46.2448 35.5448 45.6498 35.0548 45.0648 34.1448C44.4898 33.2448 44.1848 32.3748 43.8898 31.5348C43.4448 30.2648 43.0598 29.1648 41.8348 28.2948C39.7798 26.8398 33.2648 25.5748 31.3398 26.9548C29.5598 28.2298 29.0298 29.8198 28.5198 31.3498C28.4648 31.5148 28.4098 31.6848 28.3548 31.8498C28.3548 31.8498 28.2248 32.3898 28.2248 33.1698V33.1748Z" fill="#1C1C1B"/>
<path d="M38.1348 37.425C38.1348 37.425 38.0648 41.02 42.0148 41.25C44.4498 41.39 39.9598 37.25 39.9598 37.25" fill="#FFCD00"/>
<path d="M42.13 41.4451C42.09 41.4451 42.05 41.4451 42.005 41.4451C37.92 41.2101 37.945 37.4651 37.945 37.4251C37.945 37.3201 38.035 37.2351 38.135 37.2351C38.24 37.2351 38.325 37.3251 38.325 37.4301C38.325 37.5701 38.31 40.8401 42.025 41.0551C42.19 41.0651 42.47 41.0601 42.53 40.9251C42.75 40.4051 41.085 38.5451 39.83 37.3851C39.75 37.3151 39.745 37.1901 39.82 37.1151C39.895 37.0351 40.015 37.0301 40.09 37.1051C40.625 37.6001 43.29 40.1251 42.885 41.0751C42.78 41.3201 42.525 41.4401 42.13 41.4401V41.4451ZM37.895 31.8651C37.77 31.8651 37.64 31.8451 37.515 31.8101C36.81 31.6001 36.405 30.8501 36.615 30.1451C36.645 30.0451 36.75 29.9851 36.855 30.0151C36.955 30.0451 37.015 30.1501 36.985 30.2551C36.835 30.7601 37.125 31.2901 37.63 31.4401C38.135 31.5901 38.665 31.3001 38.815 30.7951C38.845 30.6951 38.95 30.6351 39.055 30.6651C39.155 30.6951 39.215 30.8001 39.185 30.9051C39.01 31.4851 38.48 31.8651 37.9 31.8651H37.895Z" fill="#1C1C1B"/>
<path d="M19.6595 27.52V27.555V29.08C19.6095 29.02 19.5545 28.965 19.4845 28.93C19.4145 28.895 19.3245 28.885 19.2545 28.92C19.1545 28.97 19.1095 29.095 19.1195 29.205C19.1295 29.315 19.1845 29.425 19.2745 29.54C19.3595 29.65 19.5745 29.86 19.7245 29.76C19.7695 29.73 19.7945 29.68 19.7995 29.625L19.8295 28.045C20.0445 28.145 20.5495 28.335 20.6895 28.365L20.7345 28.17C20.6745 28.15 20.0645 27.96 19.8295 27.885V27.635C20.1045 27.745 20.6095 27.92 20.7945 27.975L20.9295 27.415C20.5945 27.37 19.9895 27.255 19.6645 27.165V27.515L19.6595 27.52Z" fill="#121208"/>
<path d="M22.8354 28.9101V28.9451V30.4701C22.7854 30.4101 22.7304 30.3551 22.6554 30.3201C22.5854 30.2851 22.5004 30.2751 22.4254 30.3101C22.3254 30.3601 22.2804 30.4851 22.2904 30.5951C22.3004 30.7051 22.3554 30.8151 22.4454 30.9301C22.5304 31.0401 22.7454 31.2501 22.8954 31.1501C22.9404 31.1201 22.9654 31.0701 22.9704 31.0151L23.0054 29.0301C23.2754 29.1401 23.7854 29.3201 23.9654 29.3751L24.0354 28.8001C23.7004 28.7551 23.1554 28.6501 22.8304 28.5601V28.9101H22.8354Z" fill="#121208"/>
<path d="M26.9499 31.5051C26.7249 31.4601 25.6849 31.2551 25.3049 31.1851L25.2899 30.9651C25.7049 31.0601 26.6899 31.2351 26.9649 31.2851L26.9499 31.5051ZM25.0699 30.4551L25.2249 32.4251C25.1649 32.3751 25.0999 32.3251 25.0249 32.3001C24.9499 32.2751 24.8649 32.2751 24.7949 32.3151C24.6999 32.3751 24.6699 32.5051 24.6949 32.6151C24.7199 32.7251 24.7849 32.8301 24.8849 32.9301C24.9799 33.0301 25.2199 33.2101 25.3599 33.0951C25.3999 33.0601 25.4199 33.0051 25.4149 32.9551L25.3099 31.3451C25.6999 31.4601 26.6799 31.6801 26.9299 31.7401L26.8799 32.5251C26.8299 32.4651 26.7699 32.4051 26.6999 32.3701C26.6299 32.3351 26.5449 32.3201 26.4699 32.3551C26.3699 32.4001 26.3199 32.5251 26.3299 32.6351C26.3399 32.7451 26.3899 32.8601 26.4749 32.9751C26.5549 33.0851 26.7649 33.3001 26.9199 33.2051C26.9649 33.1751 26.9899 33.1251 26.9949 33.0701L27.1849 30.6201C26.8449 30.6201 25.3999 30.5001 25.0649 30.4551" fill="#121208"/>
<path d="M16.1997 28.9352L16.3197 30.4502C16.2597 30.4002 16.1947 30.3502 16.1197 30.3252C16.0447 30.3002 15.9597 30.3002 15.8897 30.3402C15.7947 30.4002 15.7647 30.5302 15.7897 30.6402C15.8147 30.7502 15.8797 30.8552 15.9797 30.9552C16.0747 31.0552 16.3147 31.2352 16.4547 31.1202C16.4947 31.0852 16.5147 31.0302 16.5097 30.9752L16.3797 28.9852C16.7947 29.0802 17.7797 29.2602 18.0547 29.3052L17.9747 30.5402C17.9247 30.4802 17.8647 30.4252 17.7947 30.3852C17.7247 30.3502 17.6397 30.3352 17.5647 30.3702C17.4647 30.4152 17.4147 30.5402 17.4247 30.6502C17.4347 30.7602 17.4847 30.8752 17.5697 30.9902C17.6497 31.1002 17.8597 31.3152 18.0147 31.2202C18.0597 31.1902 18.0847 31.1402 18.0897 31.0852L18.2797 28.6352C17.9397 28.6352 16.4947 28.5152 16.1597 28.4702L16.1947 28.9252L16.1997 28.9352Z" fill="#121208"/>
<path d="M31.3952 32.1102C31.3952 32.1102 30.6052 31.2852 30.3002 31.8752C29.8602 32.7302 30.8802 33.0502 30.8802 33.0502C30.8802 33.0502 29.7152 32.7402 29.8202 33.6152C29.9202 34.4952 31.3952 33.8652 31.3952 33.8652" fill="#FFCB00"/>
<path d="M30.4496 34.1999C30.2846 34.1999 30.1246 34.1699 29.9946 34.0999C29.8296 34.0049 29.7346 33.8449 29.7096 33.6349C29.6796 33.3799 29.7396 33.1849 29.8946 33.0549C30.0246 32.9449 30.1996 32.8999 30.3696 32.8899C30.2746 32.8049 30.1896 32.6999 30.1346 32.5699C30.0396 32.3449 30.0646 32.0949 30.1996 31.8249C30.2996 31.6299 30.4446 31.5699 30.5496 31.5549C30.9546 31.4949 31.4246 31.9799 31.4796 32.0349C31.5246 32.0799 31.5246 32.1549 31.4796 32.1999C31.4346 32.2449 31.3596 32.2399 31.3146 32.1999C31.1946 32.0749 30.8296 31.7549 30.5846 31.7899C30.5396 31.7949 30.4646 31.8199 30.4046 31.9399C30.2996 32.1449 30.2796 32.3299 30.3446 32.4899C30.4796 32.8099 30.9146 32.9499 30.9146 32.9549C30.9746 32.9749 31.0096 33.0349 30.9896 33.0949C30.9746 33.1549 30.9096 33.1899 30.8496 33.1749C30.6946 33.1349 30.2396 33.0649 30.0346 33.2399C29.9446 33.3199 29.9096 33.4399 29.9296 33.6199C29.9446 33.7599 30.0046 33.8549 30.1046 33.9149C30.4246 34.0999 31.1096 33.8799 31.3446 33.7799C31.4046 33.7549 31.4696 33.7799 31.4946 33.8399C31.5196 33.8999 31.4946 33.9649 31.4346 33.9899C31.4046 33.9999 30.8996 34.2149 30.4446 34.2149L30.4496 34.1999Z" fill="#2C2019"/>
<path d="M67.0551 30.0848C66.2251 29.3198 65.2551 29.6548 65.2551 29.6548C65.2551 29.6548 65.2301 31.5048 66.8351 31.3998C66.7851 31.6298 66.5151 32.3198 65.2051 31.6448C63.7551 30.8948 63.2301 29.6698 61.6651 29.5198C60.0951 29.3748 56.2101 30.6998 55.5751 32.0898C54.9451 33.4848 55.2701 34.6048 55.4801 35.6698C55.4801 35.6698 56.5701 39.4698 60.8201 37.9398C64.8701 36.4798 67.5801 33.8748 67.5751 31.3948C70.0351 30.7798 69.2001 29.0498 69.2001 29.0498C68.2351 29.0448 67.4601 29.7448 67.0551 30.0848Z" fill="#FFCB00"/>
<path d="M58.9353 38.4251C58.3303 38.4251 57.7803 38.2951 57.2803 38.0401C55.8353 37.3001 55.3853 35.7701 55.3653 35.7051C55.3403 35.5901 55.3203 35.4851 55.3003 35.3851C55.1053 34.4251 54.8803 33.3401 55.4653 32.0501C56.1103 30.6301 60.0453 29.2551 61.6703 29.4101C62.6603 29.5001 63.2553 30.0151 63.8803 30.5551C64.2803 30.9001 64.6953 31.2601 65.2553 31.5451C65.7653 31.8101 66.1703 31.8851 66.4253 31.7651C66.5453 31.7101 66.6203 31.6151 66.6653 31.5251C66.2753 31.5151 65.9503 31.3901 65.7003 31.1501C65.1353 30.6101 65.1353 29.6901 65.1403 29.6551C65.1403 29.6051 65.1703 29.5601 65.2203 29.5451C65.2603 29.5301 66.2103 29.2151 67.0603 29.9301C67.4803 29.5751 68.2453 28.9351 69.1903 28.9351H69.2053C69.2503 28.9351 69.2903 28.9601 69.3103 29.0001C69.3253 29.0301 69.6353 29.6851 69.3153 30.3651C69.0703 30.8901 68.5253 31.2651 67.6953 31.4901C67.6353 33.9701 64.9053 36.6001 60.8653 38.0551C60.1803 38.3001 59.5353 38.4251 58.9403 38.4251H58.9353ZM61.4003 29.6301C59.7403 29.6301 56.2453 30.8901 55.6753 32.1451C55.1203 33.3651 55.3253 34.3701 55.5253 35.3351C55.5453 35.4401 55.5703 35.5451 55.5903 35.6501C55.5903 35.6501 56.0353 37.1401 57.3853 37.8301C58.3153 38.3051 59.4553 38.3051 60.7753 37.8301C64.7703 36.3901 67.4553 33.8051 67.4503 31.3951C67.4503 31.3401 67.4853 31.2951 67.5403 31.2801C68.3453 31.0801 68.8703 30.7351 69.0953 30.2651C69.3103 29.8051 69.1803 29.3401 69.1203 29.1701C68.2853 29.2001 67.6053 29.7751 67.1953 30.1201L67.1303 30.1751C67.0853 30.2151 67.0203 30.2101 66.9753 30.1751C66.3403 29.5901 65.6153 29.6951 65.3753 29.7501C65.3903 29.9801 65.4653 30.6101 65.8603 30.9851C66.1003 31.2151 66.4253 31.3151 66.8253 31.2901C66.8603 31.2901 66.9003 31.3051 66.9203 31.3301C66.9453 31.3601 66.9553 31.3951 66.9453 31.4301C66.9103 31.5751 66.8153 31.8451 66.5253 31.9801C66.1953 32.1351 65.7353 32.0551 65.1453 31.7551C64.5653 31.4551 64.1403 31.0851 63.7253 30.7301C63.1003 30.1951 62.5653 29.7301 61.6453 29.6451C61.5703 29.6401 61.4853 29.6351 61.4003 29.6351V29.6301Z" fill="#2C2019"/>
<path d="M59.2852 37.2149C59.2852 37.2149 60.3452 39.1399 62.5102 38.0549C63.8402 37.3849 60.2002 36.5649 60.2002 36.5649" fill="#FFCD00"/>
<path d="M61.2448 38.5002C59.8798 38.5002 59.1898 37.2852 59.1848 37.2702C59.1548 37.2152 59.1748 37.1402 59.2298 37.1102C59.2848 37.0802 59.3598 37.1002 59.3898 37.1552C59.4298 37.2302 60.4248 38.9702 62.4548 37.9452C62.5448 37.9002 62.6948 37.8102 62.6848 37.7202C62.6448 37.3802 61.1898 36.9002 60.1748 36.6702C60.1098 36.6552 60.0698 36.5952 60.0848 36.5302C60.0998 36.4652 60.1598 36.4252 60.2248 36.4402C60.6598 36.5402 62.8398 37.0602 62.9198 37.6902C62.9398 37.8652 62.8198 38.0252 62.5648 38.1502C62.0748 38.4002 61.6348 38.4952 61.2498 38.4952L61.2448 38.5002Z" fill="#1C1C1B"/>
<path d="M55.6354 35.8751C55.6004 35.8751 55.5704 35.8501 55.5654 35.8151C55.5654 35.7751 55.5854 35.7401 55.6254 35.7351C55.6854 35.7251 61.8304 34.9151 62.3954 33.6201C62.3254 33.5701 62.2604 33.5051 62.2054 33.4301C62.1804 33.4001 62.1904 33.3551 62.2204 33.3301C62.2504 33.3051 62.2954 33.3151 62.3204 33.3451C62.4704 33.5451 62.7354 33.6551 62.7404 33.6551C62.7754 33.6701 62.7954 33.7101 62.7804 33.7451C62.7654 33.7801 62.7254 33.8001 62.6904 33.7851C62.6854 33.7851 62.6154 33.7551 62.5204 33.7001C61.8554 35.0551 55.9054 35.8401 55.6454 35.8751C55.6454 35.8751 55.6404 35.8751 55.6354 35.8751Z" fill="#1C1C1B"/>
<path d="M61.8704 36.0598C61.7054 35.9998 61.3904 35.7298 61.1754 35.5348C61.0304 35.4048 60.8304 35.3598 60.6504 35.4198C59.3454 35.8398 56.7754 36.2198 55.7754 36.3548C56.3254 37.3698 57.7454 39.0598 60.8254 37.9498C62.2654 37.4298 63.5404 36.7648 64.5804 36.0098C63.2004 36.3098 62.1104 36.1448 61.8754 36.0598" fill="white"/>
<path d="M58.9353 38.4251C58.3303 38.4251 57.7803 38.2951 57.2803 38.0401C55.8353 37.3001 55.3853 35.7701 55.3653 35.7051C55.3403 35.5901 55.3203 35.4851 55.3003 35.3851C55.1053 34.4251 54.8803 33.3401 55.4653 32.0501C56.1103 30.6301 60.0453 29.2551 61.6703 29.4101C62.6603 29.5001 63.2553 30.0151 63.8803 30.5551C64.2803 30.9001 64.6953 31.2601 65.2553 31.5451C65.7653 31.8101 66.1703 31.8851 66.4253 31.7651C66.5453 31.7101 66.6203 31.6151 66.6653 31.5251C66.2753 31.5151 65.9503 31.3901 65.7003 31.1501C65.1353 30.6101 65.1353 29.6901 65.1403 29.6551C65.1403 29.6051 65.1703 29.5601 65.2203 29.5451C65.2603 29.5301 66.2103 29.2151 67.0603 29.9301C67.4803 29.5751 68.2453 28.9351 69.1903 28.9351H69.2053C69.2503 28.9351 69.2903 28.9601 69.3103 29.0001C69.3253 29.0301 69.6353 29.6851 69.3153 30.3651C69.0703 30.8901 68.5253 31.2651 67.6953 31.4901C67.6353 33.9701 64.9053 36.6001 60.8653 38.0551C60.1803 38.3001 59.5353 38.4251 58.9403 38.4251H58.9353ZM61.4003 29.6301C59.7403 29.6301 56.2453 30.8901 55.6753 32.1451C55.1203 33.3651 55.3253 34.3701 55.5253 35.3351C55.5453 35.4401 55.5703 35.5451 55.5903 35.6501C55.5903 35.6501 56.0353 37.1401 57.3853 37.8301C58.3153 38.3051 59.4553 38.3051 60.7753 37.8301C64.7703 36.3901 67.4553 33.8051 67.4503 31.3951C67.4503 31.3401 67.4853 31.2951 67.5403 31.2801C68.3453 31.0801 68.8703 30.7351 69.0953 30.2651C69.3103 29.8051 69.1803 29.3401 69.1203 29.1701C68.2853 29.2001 67.6053 29.7751 67.1953 30.1201L67.1303 30.1751C67.0853 30.2151 67.0203 30.2101 66.9753 30.1751C66.3403 29.5901 65.6153 29.6951 65.3753 29.7501C65.3903 29.9801 65.4653 30.6101 65.8603 30.9851C66.1003 31.2151 66.4253 31.3151 66.8253 31.2901C66.8603 31.2901 66.9003 31.3051 66.9203 31.3301C66.9453 31.3601 66.9553 31.3951 66.9453 31.4301C66.9103 31.5751 66.8153 31.8451 66.5253 31.9801C66.1953 32.1351 65.7353 32.0551 65.1453 31.7551C64.5653 31.4551 64.1403 31.0851 63.7253 30.7301C63.1003 30.1951 62.5653 29.7301 61.6453 29.6451C61.5703 29.6401 61.4853 29.6351 61.4003 29.6351V29.6301Z" fill="#1C1C1B"/>
<path d="M62.4746 35.61C62.4746 35.61 63.5346 37.535 65.6996 36.45C67.0296 35.78 63.3896 34.96 63.3896 34.96" fill="#FFCD00"/>
<path d="M64.4353 36.9001C63.0703 36.9001 62.3803 35.6851 62.3753 35.6701C62.3453 35.6151 62.3653 35.5401 62.4203 35.5101C62.4753 35.4801 62.5503 35.5001 62.5803 35.5551C62.6203 35.6301 63.6153 37.3651 65.6453 36.3451C65.7353 36.3001 65.8853 36.2101 65.8753 36.1201C65.8353 35.7801 64.3803 35.3001 63.3653 35.0701C63.3003 35.0551 63.2603 34.9951 63.2753 34.9301C63.2903 34.8651 63.3503 34.8251 63.4153 34.8401C63.8503 34.9401 66.0303 35.4601 66.1103 36.0901C66.1303 36.2651 66.0103 36.4251 65.7553 36.5501C65.2653 36.8001 64.8253 36.8951 64.4403 36.8951L64.4353 36.9001Z" fill="#1C1C1B"/>
<path d="M60.7601 32.8999C60.3701 32.8999 60.0151 32.6299 59.9201 32.2349C59.9001 32.1449 59.9551 32.0599 60.0401 32.0349C60.1301 32.0149 60.2151 32.0699 60.2401 32.1549C60.3101 32.4449 60.6001 32.6199 60.8851 32.5499C61.1751 32.4799 61.3501 32.1899 61.2801 31.8999C61.2601 31.8099 61.3151 31.7249 61.4001 31.6999C61.4901 31.6799 61.5751 31.7349 61.6001 31.8199C61.7101 32.2849 61.4251 32.7549 60.9601 32.8649C60.8951 32.8799 60.8251 32.8899 60.7601 32.8899V32.8999Z" fill="#1C1C1B"/>
<path d="M81.7502 36.275C81.8802 35.25 81.1152 34.7 81.1152 34.7C81.1152 34.7 79.7201 35.665 80.6451 36.805C80.4451 36.89 79.7902 37.055 79.6002 35.715C79.3902 34.23 80.0302 33.19 79.3102 31.94C78.5902 30.69 75.5402 28.48 74.1652 28.745C72.7902 29.01 72.1252 29.85 71.4402 30.57C71.4402 30.57 69.1801 33.4 72.5751 35.77C75.8101 38.03 79.1902 38.675 81.0402 37.36C82.8002 38.88 83.6552 37.335 83.6552 37.335C83.1502 36.61 82.2152 36.4 81.7452 36.28" fill="#FFCB00"/>
<path d="M78.6545 38.1348C76.8595 38.1348 74.6495 37.3448 72.5195 35.8598C71.4145 35.0848 70.7795 34.1848 70.6345 33.1748C70.4195 31.6998 71.3245 30.5548 71.3645 30.5048C71.4395 30.4298 71.5045 30.3548 71.5695 30.2848C72.1795 29.6298 72.8745 28.8898 74.1495 28.6398C75.5545 28.3698 78.6595 30.5848 79.4095 31.8848C79.8645 32.6748 79.7995 33.3898 79.7245 34.1448C79.6795 34.6298 79.6295 35.1298 79.7095 35.6998C79.7845 36.2198 79.9395 36.5648 80.1645 36.6948C80.2695 36.7548 80.3795 36.7598 80.4695 36.7448C80.2695 36.4498 80.1895 36.1398 80.2345 35.8248C80.3345 35.1148 81.0245 34.6298 81.0545 34.6098C81.0945 34.5848 81.1395 34.5848 81.1795 34.6098C81.2145 34.6348 81.9495 35.1748 81.8695 36.1898C82.3595 36.3148 83.2495 36.5498 83.7495 37.2648C83.7745 37.2998 83.7745 37.3448 83.7545 37.3798C83.7395 37.4048 83.4145 37.9848 82.7395 38.1098C82.2195 38.2048 81.6495 37.9948 81.0395 37.4898C80.3995 37.9198 79.5795 38.1298 78.6545 38.1298V38.1348ZM74.4145 28.8298C74.3345 28.8298 74.2595 28.8348 74.1895 28.8498C72.9845 29.0848 72.3445 29.7648 71.7245 30.4298C71.6595 30.4998 71.5895 30.5748 71.5245 30.6448C71.5245 30.6448 70.6495 31.7648 70.8495 33.1448C70.9845 34.0898 71.5895 34.9448 72.6445 35.6798C75.8345 37.9098 79.1895 38.5498 80.9845 37.2698C81.0245 37.2398 81.0795 37.2448 81.1195 37.2748C81.6995 37.7748 82.2295 37.9798 82.6995 37.8998C83.1595 37.8198 83.4345 37.4748 83.5295 37.3348C83.0645 36.7248 82.2795 36.5198 81.7995 36.3998L81.7245 36.3798C81.6745 36.3648 81.6395 36.3148 81.6445 36.2598C81.7445 35.4698 81.2845 34.9848 81.1145 34.8348C80.9495 34.9648 80.5195 35.3548 80.4495 35.8548C80.4045 36.1548 80.5045 36.4498 80.7345 36.7348C80.7545 36.7598 80.7645 36.7948 80.7545 36.8298C80.7445 36.8648 80.7245 36.8898 80.6895 36.9048C80.5595 36.9598 80.3095 37.0248 80.0595 36.8798C79.7695 36.7148 79.5845 36.3298 79.4995 35.7298C79.4145 35.1348 79.4645 34.6248 79.5095 34.1248C79.5795 33.3748 79.6395 32.7248 79.2195 31.9948C78.5545 30.8398 75.8095 28.8298 74.4145 28.8298Z" fill="#2C2019"/>
<path d="M72.3153 34.2349C72.3153 34.2349 71.4403 36.0499 73.3953 37.0899C74.6003 37.7299 73.2853 34.5699 73.2853 34.5699" fill="#FFCD00"/>
<path d="M73.6699 37.2852C73.5749 37.2852 73.4699 37.2502 73.3449 37.1852C71.3199 36.1052 72.2099 34.2052 72.2199 34.1852C72.2449 34.1302 72.3099 34.1102 72.3649 34.1352C72.4199 34.1602 72.4399 34.2252 72.4149 34.2802C72.3799 34.3502 71.6099 36.0152 73.4499 36.9952C73.5299 37.0402 73.6749 37.1052 73.7349 37.0452C73.9699 36.8352 73.5549 35.4952 73.1849 34.6102C73.1599 34.5552 73.1849 34.4902 73.2449 34.4702C73.2999 34.4452 73.3649 34.4702 73.3849 34.5302C73.5449 34.9102 74.3049 36.8152 73.8799 37.2102C73.8249 37.2602 73.7549 37.2902 73.6699 37.2902V37.2852Z" fill="#1C1C1B"/>
<path d="M76.7351 35.0148C76.7051 35.0148 76.6801 34.9948 76.6701 34.9648C76.6701 34.9598 76.6501 34.8898 76.6451 34.7898C75.2801 35.0048 71.5401 30.9698 71.3801 30.7948C71.3551 30.7698 71.3551 30.7298 71.3801 30.7048C71.4051 30.6798 71.4451 30.6798 71.4701 30.7048C71.5101 30.7448 75.3651 34.9198 76.6351 34.6548C76.6351 34.5748 76.6501 34.4898 76.6751 34.4098C76.6851 34.3748 76.7201 34.3598 76.7551 34.3698C76.7901 34.3798 76.8101 34.4148 76.7951 34.4498C76.7251 34.6698 76.7851 34.9248 76.7851 34.9298C76.7951 34.9648 76.7701 34.9998 76.7351 35.0098C76.7301 35.0098 76.7251 35.0098 76.7201 35.0098L76.7351 35.0148Z" fill="#1C1C1B"/>
<path d="M74.5449 35.555C74.4999 35.395 74.5349 35.02 74.5699 34.755C74.5899 34.58 74.5199 34.405 74.3749 34.3C73.3699 33.545 71.7249 31.825 71.0949 31.145C70.6299 32.095 70.1199 34.05 72.5799 35.77C73.7299 36.575 74.9049 37.175 76.0149 37.555C75.0599 36.685 74.6049 35.775 74.5449 35.56" fill="white"/>
<path d="M78.6545 38.1348C76.8595 38.1348 74.6495 37.3448 72.5195 35.8598C71.4145 35.0848 70.7795 34.1848 70.6345 33.1748C70.4195 31.6998 71.3245 30.5548 71.3645 30.5048C71.4395 30.4298 71.5045 30.3548 71.5695 30.2848C72.1795 29.6298 72.8745 28.8898 74.1495 28.6398C75.5545 28.3698 78.6595 30.5848 79.4095 31.8848C79.8645 32.6748 79.7995 33.3898 79.7245 34.1448C79.6795 34.6298 79.6295 35.1298 79.7095 35.6998C79.7845 36.2198 79.9395 36.5648 80.1645 36.6948C80.2695 36.7548 80.3795 36.7598 80.4695 36.7448C80.2695 36.4498 80.1895 36.1398 80.2345 35.8248C80.3345 35.1148 81.0245 34.6298 81.0545 34.6098C81.0945 34.5848 81.1395 34.5848 81.1795 34.6098C81.2145 34.6348 81.9495 35.1748 81.8695 36.1898C82.3595 36.3148 83.2495 36.5498 83.7495 37.2648C83.7745 37.2998 83.7745 37.3448 83.7545 37.3798C83.7395 37.4048 83.4145 37.9848 82.7395 38.1098C82.2195 38.2048 81.6495 37.9948 81.0395 37.4898C80.3995 37.9198 79.5795 38.1298 78.6545 38.1298V38.1348ZM74.4145 28.8298C74.3345 28.8298 74.2595 28.8348 74.1895 28.8498C72.9845 29.0848 72.3445 29.7648 71.7245 30.4298C71.6595 30.4998 71.5895 30.5748 71.5245 30.6448C71.5245 30.6448 70.6495 31.7648 70.8495 33.1448C70.9845 34.0898 71.5895 34.9448 72.6445 35.6798C75.8345 37.9098 79.1895 38.5498 80.9845 37.2698C81.0245 37.2398 81.0795 37.2448 81.1195 37.2748C81.6995 37.7748 82.2295 37.9798 82.6995 37.8998C83.1595 37.8198 83.4345 37.4748 83.5295 37.3348C83.0645 36.7248 82.2795 36.5198 81.7995 36.3998L81.7245 36.3798C81.6745 36.3648 81.6395 36.3148 81.6445 36.2598C81.7445 35.4698 81.2845 34.9848 81.1145 34.8348C80.9495 34.9648 80.5195 35.3548 80.4495 35.8548C80.4045 36.1548 80.5045 36.4498 80.7345 36.7348C80.7545 36.7598 80.7645 36.7948 80.7545 36.8298C80.7445 36.8648 80.7245 36.8898 80.6895 36.9048C80.5595 36.9598 80.3095 37.0248 80.0595 36.8798C79.7695 36.7148 79.5845 36.3298 79.4995 35.7298C79.4145 35.1348 79.4645 34.6248 79.5095 34.1248C79.5795 33.3748 79.6395 32.7248 79.2195 31.9948C78.5545 30.8398 75.8095 28.8298 74.4145 28.8298Z" fill="#1C1C1B"/>
<path d="M75.2001 35.77C75.2001 35.77 74.3251 37.585 76.2801 38.625C77.4851 39.265 76.1701 36.105 76.1701 36.105" fill="#FFCD00"/>
<path d="M76.5554 38.8198C76.4604 38.8198 76.3554 38.7848 76.2304 38.7198C74.2054 37.6398 75.0954 35.7398 75.1004 35.7198C75.1254 35.6648 75.1904 35.6448 75.2454 35.6698C75.3004 35.6948 75.3204 35.7598 75.2954 35.8148C75.2604 35.8848 74.4904 37.5498 76.3304 38.5298C76.4104 38.5748 76.5554 38.6348 76.6154 38.5798C76.8504 38.3698 76.4354 37.0298 76.0654 36.1448C76.0404 36.0898 76.0654 36.0248 76.1254 36.0048C76.1804 35.9798 76.2454 36.0048 76.2654 36.0648C76.4254 36.4448 77.1854 38.3498 76.7604 38.7448C76.7054 38.7948 76.6354 38.8198 76.5504 38.8198H76.5554Z" fill="#1C1C1B"/>
<path d="M77.0947 33.325C77.0547 33.325 77.0147 33.31 76.9797 33.28C76.9097 33.215 76.8997 33.11 76.9647 33.035C77.1347 32.84 77.1147 32.54 76.9197 32.37C76.7247 32.2 76.4297 32.22 76.2547 32.415C76.1897 32.485 76.0847 32.495 76.0097 32.43C75.9397 32.365 75.9297 32.26 75.9947 32.185C76.2897 31.845 76.8047 31.815 77.1447 32.11C77.4847 32.405 77.5147 32.925 77.2197 33.26C77.1847 33.3 77.1397 33.32 77.0897 33.32L77.0947 33.325Z" fill="#1C1C1B"/>
</g>
<defs>
<radialGradient id="paint0_radial_6542_17496" cx="0" cy="0" r="1" gradientUnits="userSpaceOnUse" gradientTransform="translate(55.4403 44.4212) scale(96.4664 41.7152)">
<stop stop-color="#FBED69"/>
<stop offset="0.28" stop-color="#FAE923"/>
<stop offset="1" stop-color="#F5AA03"/>
</radialGradient>
<clipPath id="clip0_6542_17496">
<rect width="114" height="72" fill="white"/>
</clipPath>
</defs>
</svg>
