<svg width="114" height="72" viewBox="0 0 114 72" fill="none" xmlns="http://www.w3.org/2000/svg">
<g clip-path="url(#clip0_6542_20434)">
<path fill-rule="evenodd" clip-rule="evenodd" d="M110.005 0H3.995C1.79 0 0 1.79 0 4V68C0 70.21 1.79 72 3.995 72H110.005C112.21 72 114 70.21 114 68V4C114 1.79 112.21 0 110.005 0Z" fill="#ABCBEB"/>
<mask id="mask0_6542_20434" style="mask-type:luminance" maskUnits="userSpaceOnUse" x="0" y="0" width="114" height="72">
<path d="M110.005 0H3.995C1.79 0 0 1.79 0 4V68C0 70.21 1.79 72 3.995 72H110.005C112.21 72 114 70.21 114 68V4C114 1.79 112.21 0 110.005 0Z" fill="white"/>
</mask>
<g mask="url(#mask0_6542_20434)">
<path d="M79.1652 31.7801C79.1652 31.7801 76.3302 30.9101 76.6652 30.3551C76.9952 29.8051 78.7502 30.8351 78.7502 30.8351C78.7502 30.8351 76.3502 29.4401 76.8802 28.9501C77.4102 28.4601 78.9602 29.7151 78.9602 29.7151C78.9602 29.7151 77.1852 27.8951 77.8702 27.6151C78.5552 27.3351 79.7052 29.2451 79.7052 29.2451C79.7052 29.2451 78.6502 27.2601 79.3852 27.1601C80.1252 27.0601 80.4402 29.2251 80.4402 29.2251C80.4402 29.2251 80.3952 28.1201 80.9252 28.1751C81.4502 28.2301 81.2452 29.9651 81.2452 29.9651C81.2452 29.9651 84.5602 36.9751 93.8352 40.2951L93.1202 43.7651C93.1202 43.7651 83.2452 40.9201 79.1652 31.7801Z" fill="#F9CAB6"/>
<path d="M104.87 40.6349C104.87 40.6349 99.3704 41.8349 91.9854 38.8799L90.4404 43.4749C90.4404 43.4749 96.4054 46.7299 105.165 46.8149" fill="#8ACA9E"/>
<path d="M97.2146 40.4199C97.0946 41.7549 96.9096 44.0149 96.7646 45.7499C97.1646 45.8499 97.5746 45.9449 98.0046 46.0349C98.1446 44.3199 98.3396 42.0149 98.4596 40.6299C98.0596 40.5749 97.6446 40.5049 97.2146 40.4249V40.4199Z" fill="#64B488"/>
<path d="M100.345 40.8247C100.5 42.0797 100.83 44.7297 101.05 46.5397C101.47 46.5897 101.895 46.6347 102.335 46.6747C102.125 44.9547 101.79 42.2697 101.615 40.8747C101.22 40.8747 100.795 40.8547 100.34 40.8247H100.345Z" fill="#64B488"/>
<path d="M92.3154 44.3247C92.6654 44.4647 93.0604 44.6147 93.5004 44.7697C94.0054 42.8697 94.5104 41.0397 94.8704 39.8597C94.4804 39.7497 94.0804 39.6247 93.6704 39.4897C93.2604 40.7947 92.7554 42.6397 92.3154 44.3197V44.3247Z" fill="#64B488"/>
<path d="M103.785 34.3447L105.68 38.3997L110.265 42.7947L109.75 36.2747L108.005 32.0547" fill="#F9CAB6"/>
<path d="M105.705 37.7398C105.705 37.7398 106.67 39.6148 108.16 39.0848C109.65 38.5548 110.07 36.7298 109.785 35.9148C109.785 35.9148 112.52 35.5448 113.59 36.3248C115.64 37.8148 125.07 52.6498 125.46 54.1898C125.85 55.7298 108.855 62.4348 108.535 62.3948C108.215 62.3548 105.51 53.3848 104.145 48.4498C102.685 43.1498 102.68 41.4848 102.935 40.4798C103.19 39.4748 104.96 38.0048 105.705 37.7448V37.7398Z" fill="#A8D19D"/>
<path d="M106.235 40.3148L108.92 49.6448L111.965 48.7698L109.31 39.5298" fill="#FDF9E7"/>
<path d="M109.525 43.7498C109.61 44.0798 109.415 44.4148 109.09 44.5048C108.765 44.5948 108.425 44.3948 108.335 44.0698C108.25 43.7398 108.44 43.4048 108.77 43.3148C109.1 43.2298 109.435 43.4248 109.525 43.7498Z" fill="#79502A"/>
<path d="M110.38 46.5297C110.47 46.8597 110.275 47.1947 109.945 47.2847C109.615 47.3697 109.28 47.1797 109.19 46.8497C109.1 46.5197 109.295 46.1847 109.625 46.0947C109.955 46.0047 110.29 46.1997 110.38 46.5297Z" fill="#79502A"/>
<path d="M109.685 40.96C112.28 39.77 112.42 37.375 112.21 35.88C111.06 35.74 109.785 35.915 109.785 35.915C110.07 36.73 109.65 38.56 108.16 39.085C106.67 39.615 105.705 37.74 105.705 37.74C105.295 37.885 104.585 38.39 103.98 38.98C104.93 40.265 106.925 42.225 109.69 40.96H109.685Z" fill="#FCEE49"/>
<path d="M113.72 50.0849L119.57 47.3599C119.57 47.3599 122.28 52.5099 119.48 54.3299C116.68 56.1499 113.725 50.0849 113.725 50.0849H113.72Z" stroke="#377550" stroke-width="0.82" stroke-miterlimit="10"/>
<path d="M105.62 53.0147L108.505 52.1997C108.505 52.1997 110.525 58.4247 107.57 59.6647" stroke="#3A7A53" stroke-width="0.82" stroke-miterlimit="10"/>
<path d="M98.8551 18.3598C98.8551 18.3598 95.8851 20.3148 94.9801 24.8048C94.0751 29.2898 95.0751 33.4948 101.205 35.9198C107.335 38.3448 116.325 32.8348 115.48 24.8398L108.345 18.2148L98.8551 18.3648V18.3598Z" fill="#F9CAB6"/>
<path d="M103.69 25.5347C103.69 25.5347 102.44 26.6897 101.69 27.0597C101.69 27.0597 102.72 28.0397 103.115 28.1897" stroke="#B36027" stroke-width="0.69" stroke-miterlimit="10"/>
<path d="M100.305 24.8199C100.15 25.3949 99.7205 25.7799 99.3505 25.6799C98.9805 25.5799 98.8105 25.0299 98.9655 24.4549C99.1205 23.8799 99.5505 23.4949 99.9205 23.5949C100.29 23.6949 100.46 24.2449 100.305 24.8199Z" fill="#201D1D"/>
<path d="M109.471 27.8648C109.316 28.4398 108.886 28.8248 108.516 28.7248C108.146 28.6248 107.976 28.0748 108.131 27.4998C108.286 26.9248 108.716 26.5398 109.086 26.6398C109.456 26.7398 109.626 27.2898 109.471 27.8648Z" fill="#201D1D"/>
<mask id="mask1_6542_20434" style="mask-type:luminance" maskUnits="userSpaceOnUse" x="94" y="18" width="22" height="19">
<path d="M98.8551 18.3598C98.8551 18.3598 95.8851 20.3148 94.9801 24.8048C94.0751 29.2898 95.0751 33.4948 101.205 35.9198C107.335 38.3448 116.325 32.8348 115.48 24.8398L108.345 18.2148L98.8551 18.3648V18.3598Z" fill="white"/>
</mask>
<g mask="url(#mask1_6542_20434)">
<path d="M112.645 34.3997C112.58 35.9947 111.235 37.2346 109.64 37.1696C108.045 37.1046 106.81 35.7547 106.875 34.1597C106.94 32.5647 108.285 31.3247 109.88 31.3897C111.475 31.4547 112.71 32.8047 112.645 34.3997Z" fill="#F29DAA"/>
<path d="M98.0703 28.6399C98.0053 30.2349 96.6603 31.4749 95.0653 31.4099C93.4703 31.3449 92.2353 29.9949 92.3003 28.3999C92.3653 26.8049 93.7103 25.5649 95.3053 25.6299C96.9003 25.6949 98.1353 27.0399 98.0703 28.6399Z" fill="#F29DAA"/>
</g>
<path d="M100.62 29.4097C100.62 29.4097 102.475 31.4147 106.11 30.8097C106.11 30.8097 105.03 34.8847 102.59 34.5247C100.15 34.1647 100.62 29.4097 100.62 29.4097Z" fill="#F28673"/>
<path d="M96.1152 17.2299C96.1152 17.2299 94.3252 19.6449 96.5802 20.6949C98.8402 21.7499 100.905 22.0149 102.24 19.5349C102.24 19.5349 101.15 22.0949 104.265 23.5399C107.31 24.9499 109.23 24.5999 109.96 23.4349C109.96 23.4349 109.475 25.6299 112.57 27.1399C115.725 28.6849 116.515 28.9499 117.325 27.2449C118.135 25.5399 119.005 19.6049 112.76 16.2649C112.76 16.2649 100.76 9.5999 96.1152 17.2249V17.2299Z" fill="#79502A"/>
<path d="M97.0849 65.5847C97.0849 65.5847 95.5999 67.9797 95.1749 67.5397C94.7499 67.0997 96.1199 65.7397 96.1199 65.7397C96.1199 65.7397 94.2599 67.6147 93.9399 67.0047C93.6199 66.3997 95.1449 65.2797 95.1449 65.2797C95.1449 65.2797 93.0449 66.4697 92.9549 65.7747C92.8649 65.0747 94.8949 64.4797 94.8949 64.4797C94.8949 64.4797 92.8199 64.9697 92.9049 64.2697C92.9899 63.5647 95.0549 63.7997 95.0549 63.7997C95.0549 63.7997 94.0349 63.5697 94.2099 63.0997C94.3849 62.6297 95.9299 63.2397 95.9299 63.2397C95.9299 63.2397 103.16 61.8847 108.455 54.1597L111.465 55.6597C111.465 55.6597 106.46 64.0547 97.0899 65.5947L97.0849 65.5847Z" fill="#F9CAB6"/>
<path d="M117.18 45.31C114.98 53.35 110.545 58.05 110.545 58.05L106.705 55.515C110.515 50.09 111.275 46.02 111.275 46.02C111.275 46.02 112.19 41.265 114.995 41.7C117.935 42.16 117.18 45.305 117.18 45.305V45.31Z" fill="#8ACA9E"/>
<path d="M111.7 44.5601C111.505 45.0751 111.385 45.5301 111.32 45.7901C112.285 46.3151 114.47 47.4701 116.255 48.1701C116.4 47.7851 116.535 47.3901 116.67 46.9851C114.84 46.2601 112.47 44.9851 111.7 44.5601Z" fill="#64B488"/>
<path d="M114.52 52.1047C114.705 51.7447 114.895 51.3697 115.08 50.9747C113.51 50.3197 111.49 49.2047 110.465 48.6147C110.325 48.9747 110.165 49.3647 109.98 49.7897C111.045 50.3947 112.945 51.4397 114.525 52.1047H114.52Z" fill="#64B488"/>
<path d="M112.305 55.795C112.53 55.475 112.765 55.12 113.01 54.73C111.515 54.1 109.655 53.075 108.615 52.48C108.415 52.83 108.205 53.195 107.975 53.565C108.985 54.14 110.76 55.12 112.3 55.79L112.305 55.795Z" fill="#64B488"/>
<path d="M26.5455 40.6197C26.5455 40.6197 28.1155 38.2547 27.5355 38.0447C26.9555 37.8397 26.2855 39.6647 26.2855 39.6647C26.2855 39.6647 27.2205 37.1747 26.5255 37.1347C25.8355 37.0947 25.4505 38.9647 25.4505 38.9647C25.4505 38.9647 25.6605 36.5397 24.9855 36.7497C24.3105 36.9597 24.6155 39.0697 24.6155 39.0697C24.6155 39.0697 24.1955 36.9597 23.5905 37.3347C22.9855 37.7097 24.0655 39.5047 24.0655 39.5047C24.0655 39.5047 23.4305 38.6647 23.0705 39.0247C22.7105 39.3847 23.9155 40.5447 23.9155 40.5447C23.9155 40.5447 25.7055 47.7447 20.8555 55.8397L23.4855 57.9697C23.4855 57.9697 29.0705 49.8647 26.5505 40.6197H26.5455Z" fill="#F9CAB6"/>
<path d="M9.23494 65.775C21.0349 66.405 25.0149 56.25 25.0149 56.25L21.0399 53.98C16.4299 62.72 9.98994 59.68 9.98994 59.68C9.98994 59.68 6.41494 60.27 7.45994 62.94C8.55494 65.735 9.23494 65.78 9.23494 65.78V65.775Z" fill="#C7CACA"/>
<path d="M9.98477 54L9.12977 58.35L5.00977 57.45L5.85977 53.105" fill="#F9CAB6"/>
<path d="M9.27504 56.8798C9.27504 56.8798 6.68004 56.4948 5.45504 54.9448C5.45504 54.9448 2.14504 53.8798 -0.639963 57.4848C-3.41996 61.0948 -9.12996 71.0298 -9.12996 71.0298C-9.12996 71.0298 -9.58496 71.8848 -9.24996 72.2648C-8.91496 72.6448 5.59004 78.6448 5.88004 78.7048C6.17504 78.7598 10.29 65.5098 10.9 62.9398C11.51 60.3698 10.995 58.0948 9.27004 56.8798H9.27504Z" fill="#DCDDDE"/>
<path d="M5.45484 54.9447C6.67984 56.4947 9.27484 56.8797 9.27484 56.8797C10.2498 57.5697 10.8398 58.5997 11.0548 59.8297C10.1148 59.6797 8.47484 59.1647 7.89484 57.3947C7.89484 57.3947 6.21484 59.3447 3.91484 57.8897C2.92984 57.2697 2.32984 56.2647 1.96484 55.3147C3.86484 54.4297 5.45484 54.9397 5.45484 54.9397V54.9447Z" fill="white" stroke="#CACBCC" stroke-miterlimit="10"/>
<path d="M7.24995 59.5199C7.11495 59.7799 7.22995 60.1099 7.50495 60.2549C7.78495 60.4049 8.11995 60.3149 8.25495 60.0549C8.38995 59.7949 8.27995 59.4699 7.99995 59.3199C7.71995 59.1699 7.38495 59.2599 7.24995 59.5149V59.5199Z" fill="#79502A"/>
<path d="M6.57505 61.5548C6.44005 61.8148 6.55005 62.1398 6.83005 62.2898C7.11005 62.4398 7.44505 62.3498 7.58005 62.0898C7.71505 61.8298 7.60005 61.5048 7.32505 61.3548C7.04505 61.2048 6.71005 61.2948 6.57505 61.5548Z" fill="#79502A"/>
<path d="M2.81533 69.5501L-2.56967 66.7451C-2.56967 66.7451 -5.05467 71.0301 -1.85467 72.9801C0.660334 74.5151 2.81533 69.5501 2.81533 69.5501Z" stroke="#79502A" stroke-width="0.79" stroke-miterlimit="10"/>
<path d="M1.15484 47.1497C1.15484 47.1497 1.88484 49.6547 0.409838 50.3847C-1.06516 51.1147 -2.20516 50.1697 -2.20516 50.1697C-2.20516 50.1697 -4.33516 48.5147 -3.33016 47.0747C-2.33016 45.6347 -0.775162 45.0197 1.15484 47.1447V47.1497Z" fill="#79502A"/>
<path d="M16.5555 42.3897C16.5555 42.3897 16.0005 44.9397 17.5255 45.5647C19.0505 46.1897 20.1205 45.1647 20.1205 45.1647C20.1205 45.1647 22.1255 43.3647 21.0255 41.9997C19.9255 40.6347 18.3305 40.1297 16.5555 42.3897Z" fill="#79502A"/>
<path d="M19.0747 45.14C19.0747 45.14 18.0897 45.72 18.8997 47.165C19.7097 48.61 20.6947 48.03 21.6097 47.57C22.5247 47.11 22.8397 45.985 22.4647 45.355C22.0847 44.73 20.8897 43.39 19.0747 45.135V45.14Z" fill="#79502A"/>
<path d="M20.8999 46.9251C20.8999 46.9251 20.3199 48.0601 20.7149 48.8451C21.1049 49.6251 21.8199 49.9651 22.5399 49.6801C23.2599 49.3951 23.9749 48.7551 23.3899 47.5801C23.0449 46.8951 22.4899 46.2251 20.9049 46.9251H20.8999Z" fill="#79502A"/>
<path d="M18.5547 41.14L20.8997 38.855L21.9747 41.375L18.5847 41.52L18.5547 41.14Z" fill="#EA2B25"/>
<path d="M17.3455 38.1349C17.3455 38.1349 22.1455 51.7349 12.0155 54.6199C2.03046 57.4699 -1.27954 47.0399 -1.38454 43.2849C-1.48954 39.5249 5.30046 35.3999 5.30046 35.3999L17.3505 38.1299L17.3455 38.1349Z" fill="#F9CAB6"/>
<path d="M9.19043 44.1948C9.19043 44.1948 10.3454 45.4148 11.0604 45.8348C11.0604 45.8348 9.98043 46.7298 9.58043 46.8498" stroke="#B36027" stroke-width="0.69" stroke-miterlimit="10"/>
<path d="M13.7203 43.9047C13.8403 44.4897 14.2403 44.9047 14.6203 44.8297C14.9953 44.7497 15.2053 44.2147 15.0853 43.6247C14.9653 43.0397 14.5603 42.6247 14.1853 42.6997C13.8103 42.7747 13.6003 43.3147 13.7203 43.9047Z" fill="#201D1D"/>
<path d="M4.46543 46.0849C4.58543 46.6699 4.99043 47.0849 5.36543 47.0099C5.74043 46.9299 5.95043 46.3949 5.83043 45.8049C5.71043 45.2149 5.30543 44.8049 4.93043 44.8799C4.55543 44.9549 4.34543 45.4949 4.46543 46.0849Z" fill="#201D1D"/>
<path d="M12.8504 47.5C12.8504 47.5 10.9604 49.49 7.31543 48.83C7.31543 48.83 8.34043 52.94 10.8004 52.615C13.2604 52.29 12.8504 47.5 12.8504 47.5Z" fill="#F28673"/>
<path d="M3.67973 49.3847C5.24473 49.2347 6.63973 50.3847 6.78973 51.9547C6.88973 52.9997 6.41473 53.9647 5.61973 54.5397C3.80473 53.8397 2.40473 52.5597 1.34473 51.0747C1.74973 50.1647 2.61473 49.4897 3.67973 49.3847Z" fill="#F29DAA"/>
<path d="M16.8301 46.2147C17.3951 46.1597 17.9401 46.2747 18.4101 46.5197C18.2251 48.4047 17.6651 50.2947 16.4301 51.8247C15.2851 51.5447 14.3851 50.5697 14.2651 49.3247C14.1151 47.7547 15.2651 46.3597 16.8301 46.2097V46.2147Z" fill="#F29DAA"/>
<path d="M18.6051 41.1899C18.6051 41.1899 13.5251 40.9999 7.70008 38.9199C3.12508 43.1749 4.28008 42.6099 -1.08492 46.7299C-1.08492 46.7299 -4.37992 39.4899 0.240082 35.2849C5.39008 30.5949 17.2951 30.2749 18.6101 41.1899H18.6051Z" fill="#79502A"/>
<path d="M19.4002 82.43C19.4002 82.43 20.6552 84.82 21.0902 84.43C21.5252 84.04 20.3152 82.645 20.3152 82.645C20.3152 82.645 21.9602 84.565 22.3102 84.005C22.6602 83.45 21.2752 82.27 21.2752 82.27C21.2752 82.27 23.2002 83.55 23.3352 82.895C23.4702 82.235 21.5752 81.525 21.5752 81.525C21.5752 81.525 23.5202 82.14 23.4902 81.46C23.4552 80.78 21.4702 80.865 21.4702 80.865C21.4702 80.865 22.4602 80.72 22.3252 80.255C22.1902 79.79 20.6752 80.27 20.6752 80.27C20.6752 80.27 13.8602 78.475 9.34023 70.73L6.36523 71.955C6.36523 71.955 10.5652 80.32 19.4102 82.44L19.4002 82.43Z" fill="#F9CAB6"/>
<path d="M1.60495 61.6701C3.15495 69.5001 7.06495 74.3001 7.06495 74.3001L10.9099 72.1451C7.64495 66.7 7.19995 62.7601 7.19995 62.7601C7.19995 62.7601 6.65495 58.1551 3.94495 58.3801C1.10495 58.6151 1.60995 61.6751 1.60995 61.6751L1.60495 61.6701Z" fill="#C7CACA"/>
</g>
<path fill-rule="evenodd" clip-rule="evenodd" d="M88.2147 5.25501C88.2897 5.27001 88.6997 5.32501 88.8547 5.43001C89.0097 5.54001 89.1447 5.68001 89.1497 5.86001C89.1597 6.04001 88.9747 6.32501 88.5897 6.43001C88.2047 6.54001 87.9197 6.65001 87.9197 6.62001C87.9197 6.60501 87.9247 6.76001 87.9497 6.92001C87.9797 7.10001 88.0297 7.29501 88.0447 7.42001C88.0747 7.65001 88.2147 8.33001 88.1497 8.48001C88.0897 8.63501 87.5347 8.60001 87.4447 8.60001C87.3547 8.60001 85.9797 8.54501 85.8547 8.56001C85.7297 8.57501 85.1197 8.56501 85.1547 8.56501C85.1947 8.56501 84.8397 8.56501 85.0397 8.09001C85.1097 7.92001 85.1697 7.79001 85.2347 7.64501C85.3497 7.39001 85.3997 7.16501 85.3997 7.16501L85.4397 6.68001C85.4397 6.68001 85.5847 6.59501 85.0947 6.48501C84.6047 6.37501 84.2297 6.26501 84.2047 5.99001C84.1797 5.72001 84.4597 5.55501 84.6297 5.49501C84.7997 5.43501 85.4347 5.38001 85.4347 5.38001C85.4347 5.38001 85.6747 5.26501 85.6147 5.12501C85.5897 5.07001 85.5197 5.01001 85.4997 4.92501C85.4747 4.80001 85.4847 4.66501 85.5397 4.59501C85.6297 4.47001 85.6347 4.40001 85.8197 4.40001C86.0047 4.40001 86.0947 4.53001 86.0797 4.58501L86.0097 4.83001L85.9447 5.02001L85.7847 5.18001C85.7847 5.18001 85.7247 5.38001 85.8747 5.38001C85.9197 5.38001 85.9697 5.41001 86.0247 5.40001C86.1497 5.38001 86.2597 5.31001 86.3897 5.27501C86.4997 5.24501 86.6297 5.24501 86.7497 5.23001C86.7497 5.23001 86.8647 5.11001 86.7647 5.06001C86.6647 5.01001 86.6697 4.68501 86.6647 4.66001C86.6597 4.63001 86.6647 4.34001 86.9147 4.31001C87.1647 4.27501 87.1797 4.35501 87.1997 4.48001C87.1997 4.51001 87.2147 4.56001 87.2147 4.62001C87.2147 4.73501 87.1847 4.85501 87.1797 4.86501L87.1297 4.96501L87.0397 5.06001C87.0397 5.06001 86.9597 5.20001 87.0697 5.23501C87.0997 5.24501 87.1497 5.25001 87.2047 5.25501C87.2597 5.25501 87.3147 5.26001 87.3647 5.26501C87.3897 5.26501 87.4197 5.26501 87.4397 5.26501C87.4747 5.26501 87.4947 5.26501 87.4947 5.26501C87.5147 5.27001 87.5247 5.27501 87.5297 5.28001C87.5497 5.30001 87.5597 5.32501 87.5797 5.34001C87.6997 5.40501 87.8047 5.33001 87.8847 5.31001C87.8847 5.31001 87.9147 5.32001 87.9347 5.30501C87.9697 5.28001 87.9647 5.22001 87.9597 5.17501C87.9597 5.16001 87.9747 5.13001 87.9547 5.12001C87.9147 5.10001 87.9347 5.09001 87.8897 5.04001C87.8697 5.02001 87.8247 4.98001 87.7947 4.92501C87.7597 4.86501 87.7597 4.72501 87.7697 4.65001C87.7997 4.42001 88.0447 4.36501 88.1247 4.41501C88.1997 4.46001 88.3047 4.54001 88.2847 4.70001C88.2647 4.86001 88.2347 4.99001 88.2297 4.97501C88.2297 4.97501 88.2197 5.04001 88.1547 5.10001C88.1197 5.13001 88.1847 5.25001 88.2147 5.25501Z" fill="#273A8A"/>
<path fill-rule="evenodd" clip-rule="evenodd" d="M88.4553 5.60022C88.3653 5.61022 88.4353 5.67522 88.3853 5.80022C88.3703 5.84022 88.3353 5.87522 88.2903 5.94022C88.1053 6.19022 88.0303 6.36022 88.0303 6.36022C88.0303 6.36022 88.0903 6.36022 88.1753 6.33522C88.2603 6.31522 88.3553 6.28022 88.4653 6.21022C88.5353 6.16522 88.6153 6.14522 88.6753 6.11022C88.7953 6.04522 88.8903 5.97022 88.8453 5.88022C88.7853 5.74022 88.5753 5.58022 88.4553 5.59522V5.60022Z" fill="white"/>
<path fill-rule="evenodd" clip-rule="evenodd" d="M87.5503 5.85007C87.6203 5.79507 87.6853 5.72007 87.7503 5.66507C87.8003 5.62507 87.8453 5.60007 87.8953 5.59507C88.0053 5.58007 88.1203 5.66007 88.0353 5.78007C87.9503 5.90007 87.7853 6.12007 87.7703 6.13007C87.7603 6.14007 87.5753 6.31007 87.5753 6.45007C87.5753 6.50007 87.4453 6.49007 87.3153 6.48507C87.1853 6.48007 87.0703 6.49007 87.0703 6.49007C87.0703 6.49007 87.1103 6.45007 87.1503 6.38007C87.1803 6.32507 87.2053 6.25507 87.2553 6.19007C87.3603 6.04007 87.4903 5.90007 87.5503 5.85007Z" fill="#FBED20"/>
<path fill-rule="evenodd" clip-rule="evenodd" d="M86.7804 5.58517H87.1854C87.1854 5.58517 87.3154 5.58517 87.1254 5.79017C87.0904 5.82517 87.0704 5.88517 87.0154 5.94017C86.9704 5.98517 86.9404 6.04017 86.9154 6.09017C86.8854 6.14017 86.8504 6.18017 86.8354 6.21517C86.6904 6.57517 86.6804 6.43517 86.6804 6.43517C86.6804 6.43517 86.5004 6.17017 86.4254 5.86017C86.3504 5.55017 86.7504 5.58517 86.7804 5.58517Z" fill="#FD882F"/>
<path fill-rule="evenodd" clip-rule="evenodd" d="M85.59 5.96008C85.56 5.87508 85.585 5.79508 85.64 5.75008C85.675 5.72008 85.715 5.68508 85.785 5.71508C85.97 5.79008 86.055 5.97008 86.085 6.07008C86.115 6.17008 86.175 6.41008 86.175 6.41008C86.175 6.41008 85.915 6.42508 85.775 6.41008C85.635 6.39508 85.635 6.10008 85.59 5.96508V5.96008Z" fill="#1D9432"/>
<path fill-rule="evenodd" clip-rule="evenodd" d="M86.9599 6.93521C87.0399 6.87021 87.1599 6.84521 87.2249 6.81521C87.2999 6.78521 87.3649 6.74521 87.4299 6.74021C87.5399 6.73021 87.4749 6.88521 87.4849 6.98021C87.4899 7.02521 87.4949 7.12521 87.5049 7.17521C87.5199 7.23521 87.5449 7.25021 87.5499 7.34021C87.5599 7.44521 87.5749 7.55021 87.5799 7.65021C87.5899 7.76521 87.5799 7.91521 87.5899 8.00021C87.5999 8.14021 87.5899 8.20021 87.5399 8.20021C87.5099 8.20021 87.4249 8.20021 87.3199 8.21021C87.1899 8.22521 87.0299 8.24521 86.9249 8.25021C86.8449 8.25021 86.8549 8.14021 86.8549 8.18021C86.8549 8.63521 86.8599 7.83521 86.8599 7.59021C86.8599 7.45021 86.8449 7.31021 86.8649 7.19521C86.8849 7.07521 86.8949 6.98021 86.9499 6.93521H86.9599Z" fill="#FBED20"/>
<path fill-rule="evenodd" clip-rule="evenodd" d="M86.3703 7.09982C86.3703 7.12982 86.3653 7.18982 86.3753 7.25482C86.3803 7.29482 86.4053 7.32482 86.4053 7.36982C86.4053 7.41982 86.3753 7.48982 86.3703 7.53982C86.3553 7.70982 86.3553 7.86982 86.3303 7.93482C86.3053 8.00982 86.3303 8.07982 86.3153 8.14982C86.3053 8.20982 86.2853 8.24982 86.2553 8.24982H85.6703C85.6253 8.25482 85.6453 8.14482 85.7003 8.01982C85.7253 7.96982 85.7103 7.89482 85.7253 7.85482C85.7553 7.77482 85.7953 7.65982 85.8403 7.53982C85.8703 7.44982 85.9053 7.35982 85.9003 7.27482C85.8903 7.07482 85.8653 6.94482 85.8653 6.94482L85.8553 6.69482C85.8553 6.69482 85.9153 6.70982 86.0103 6.73482C86.0703 6.74982 86.1303 6.75982 86.1903 6.79982C86.3453 6.90982 86.3853 6.97482 86.3703 7.09982Z" fill="#1D9432"/>
<path fill-rule="evenodd" clip-rule="evenodd" d="M84.9951 5.66494C85.1101 5.63494 85.0951 5.70994 85.0901 5.79494C85.0901 5.86994 85.0901 5.90994 85.0901 5.91494C85.0851 5.96494 85.1001 6.01494 85.1151 6.03994C85.1951 6.13994 85.1901 6.12494 85.2451 6.19994C85.2801 6.24494 85.2851 6.24994 85.3001 6.27494C85.3351 6.34494 85.2551 6.34994 84.9651 6.24494C84.9051 6.22494 84.7801 6.18494 84.6901 6.12494C84.5951 6.05994 84.5351 5.96494 84.5751 5.88494C84.6351 5.74494 84.8851 5.69994 85.0051 5.66994L84.9951 5.66494Z" fill="white"/>
<path fill-rule="evenodd" clip-rule="evenodd" d="M92.5 5.30478V5.08979H91.705V4.90479H91.375V5.08979H90.575V5.30478H91.34C91.315 5.35478 91.23 5.39478 91.085 5.41478C90.98 5.42978 90.81 5.43979 90.575 5.44479V5.66979C90.8 5.66979 90.975 5.65978 91.095 5.64478C91.305 5.61478 91.455 5.56978 91.535 5.49478C91.615 5.56478 91.755 5.61478 91.965 5.64478C92.085 5.65978 92.26 5.66979 92.495 5.67479V5.44978C92.27 5.44978 92.1 5.43478 91.985 5.41478C91.84 5.39478 91.75 5.35978 91.725 5.30978H92.49L92.5 5.30478ZM91.685 6.07978V6.01478H92.575V5.77979H90.5V6.01478H91.385V6.07478C91.24 6.10478 91.125 6.16478 91.03 6.24978C90.93 6.34478 90.885 6.46478 90.88 6.59978C90.88 6.75978 90.945 6.88978 91.08 6.98978C91.205 7.08478 91.355 7.13479 91.53 7.13479C91.7 7.13479 91.845 7.08978 91.97 6.99478C92.105 6.88978 92.17 6.75978 92.17 6.60478C92.17 6.46978 92.12 6.35479 92.025 6.25479C91.935 6.16479 91.82 6.10478 91.68 6.07978H91.685ZM91.53 6.28978C91.62 6.28978 91.7 6.31979 91.77 6.37979C91.845 6.43979 91.885 6.51478 91.885 6.60478C91.885 6.68978 91.845 6.76478 91.77 6.82478C91.7 6.88478 91.615 6.91478 91.525 6.91478C91.43 6.91478 91.35 6.88478 91.28 6.82478C91.205 6.76478 91.165 6.68978 91.17 6.60478C91.17 6.51478 91.21 6.44479 91.285 6.37979C91.355 6.31979 91.44 6.29479 91.53 6.29479V6.28978ZM94.4 6.15978C94.505 6.15978 94.595 6.19479 94.67 6.25479C94.75 6.32479 94.79 6.40979 94.79 6.50479C94.79 6.59979 94.75 6.68479 94.665 6.75479C94.585 6.82479 94.495 6.85478 94.395 6.85478C94.295 6.85478 94.205 6.81979 94.125 6.75479C94.045 6.68479 94.005 6.60479 94.005 6.50479C94.005 6.40479 94.045 6.32479 94.13 6.25479C94.21 6.18979 94.3 6.15978 94.4 6.15978ZM94.21 5.92479C94.065 5.96479 93.945 6.02979 93.855 6.12979C93.755 6.23979 93.71 6.36479 93.705 6.50979C93.705 6.68479 93.775 6.83478 93.92 6.94978C94.05 7.05978 94.21 7.10979 94.395 7.10979C94.58 7.10979 94.735 7.05478 94.875 6.94978C95.02 6.83478 95.09 6.68979 95.09 6.50979C95.09 6.34479 95.03 6.20978 94.905 6.09478C94.79 5.98978 94.65 5.92478 94.48 5.90978V5.71978C94.325 5.70478 94.21 5.66478 94.13 5.59478C94.065 5.53978 94.025 5.45978 94.015 5.36478H94.47V5.12979H94.02V4.93979H93.715V5.12478H93.255V5.35979H93.71C93.7 5.45479 93.665 5.52979 93.6 5.58979C93.525 5.65979 93.405 5.69979 93.245 5.71479V5.96978C93.355 5.96978 93.46 5.94479 93.565 5.90479C93.695 5.85479 93.8 5.77978 93.87 5.67978C93.91 5.73978 93.965 5.78978 94.025 5.82978C94.08 5.86478 94.145 5.89479 94.215 5.91979L94.21 5.92479ZM94.555 5.36978V5.60478H94.895V5.96978H95.18V5.04479H94.895V5.36978H94.555ZM97.685 5.72478C97.74 5.72478 97.785 5.70978 97.81 5.68478C97.84 5.65478 97.855 5.60979 97.855 5.54479V5.04979H97.57V5.15978H96.215V5.04979H95.93V5.54479C95.93 5.60979 95.945 5.65478 95.975 5.68478C96 5.70978 96.045 5.72478 96.1 5.72478H97.69H97.685ZM96.215 5.37979H97.57V5.49478H96.215V5.37979ZM97.03 6.34478V6.11978H97.925V5.87979H95.85V6.11978H96.745V6.34478H95.92V6.57978H97.56V6.99978H97.845V6.34478H97.025H97.03ZM98.665 5.05478V5.90479C98.665 5.96979 98.68 6.01478 98.705 6.03978C98.73 6.06478 98.775 6.07978 98.83 6.07978H99.425V6.65978H98.53V6.89979H100.605V6.66478H99.71V6.08478H100.47V5.84978H98.955V5.29479H100.47V5.05978H98.665V5.05478ZM103.11 6.66478V5.05978H101.335V5.29979H102.825V6.66478H102.435V5.84478H102.155V6.66478H101.835V5.84478H101.55V6.66478H101.21V6.90479H103.285V6.66478H103.115H103.11ZM104.925 5.15479C105.02 5.15479 105.1 5.18478 105.17 5.24478C105.245 5.30978 105.28 5.38478 105.28 5.47478C105.28 5.55978 105.24 5.63478 105.165 5.69978C105.095 5.75978 105.01 5.78978 104.915 5.78978C104.815 5.78978 104.725 5.75979 104.65 5.69479C104.575 5.62979 104.535 5.55478 104.535 5.46978C104.535 5.37978 104.575 5.30478 104.65 5.23978C104.725 5.17978 104.815 5.14979 104.915 5.14979L104.925 5.15479ZM104.605 6.31979V6.05978H105.24V6.31979H104.605ZM105.525 6.31979V6.05978H105.96V5.81979H105.405C105.46 5.77479 105.505 5.71978 105.535 5.65978C105.565 5.59478 105.585 5.52978 105.585 5.45478C105.585 5.29478 105.515 5.16479 105.38 5.06479C105.25 4.96979 105.105 4.91979 104.93 4.91979C104.75 4.91979 104.595 4.96478 104.46 5.05978C104.32 5.15978 104.25 5.28978 104.25 5.44978C104.25 5.51978 104.265 5.58979 104.295 5.65479C104.32 5.71479 104.365 5.76979 104.42 5.81979H103.885V6.05478H104.32V6.31479H103.96V6.55478H105.6V7.00979H105.885V6.45978V6.31979H105.525ZM107.785 6.17479C107.89 6.17479 107.98 6.20978 108.055 6.26978C108.135 6.33978 108.175 6.42478 108.175 6.51978C108.175 6.61478 108.135 6.69978 108.05 6.76978C107.97 6.83478 107.88 6.86978 107.78 6.86978C107.68 6.86978 107.59 6.83478 107.51 6.76978C107.43 6.69978 107.39 6.61978 107.39 6.51978C107.39 6.41978 107.43 6.33978 107.515 6.26978C107.595 6.20478 107.685 6.17479 107.785 6.17479ZM107.595 5.93979C107.45 5.97979 107.33 6.04478 107.24 6.14478C107.14 6.25478 107.095 6.37979 107.09 6.52479C107.09 6.69979 107.16 6.84979 107.305 6.96479C107.435 7.07479 107.595 7.12478 107.78 7.12478C107.965 7.12478 108.12 7.06979 108.26 6.96479C108.405 6.84979 108.475 6.70479 108.475 6.52479C108.475 6.35979 108.415 6.22479 108.29 6.10979C108.175 6.00479 108.035 5.93979 107.865 5.92479V5.73479C107.71 5.71979 107.595 5.67979 107.515 5.60979C107.45 5.55479 107.41 5.47479 107.4 5.37979H107.855V5.14478H107.405V4.95478H107.1V5.13978H106.64V5.37478H107.095C107.085 5.46978 107.05 5.54478 106.985 5.60478C106.91 5.67478 106.79 5.71478 106.63 5.72978V5.98479C106.74 5.98479 106.845 5.95979 106.95 5.91979C107.08 5.86979 107.185 5.79479 107.255 5.69479C107.295 5.75479 107.35 5.80478 107.41 5.84478C107.465 5.87978 107.53 5.90978 107.6 5.93478L107.595 5.93979ZM107.94 5.38479V5.61978H108.28V5.98479H108.565V5.05978H108.28V5.38479H107.94Z" fill="black"/>
<path d="M91.03 7.46023C90.98 7.37523 90.91 7.33523 90.82 7.33523C90.755 7.33523 90.7 7.36023 90.65 7.40523C90.605 7.45023 90.58 7.50523 90.58 7.57023C90.58 7.63523 90.605 7.69023 90.65 7.74023C90.695 7.78523 90.75 7.81023 90.82 7.81023C90.865 7.81023 90.91 7.80023 90.945 7.77523C90.98 7.75523 91.01 7.72523 91.03 7.68523H91.125C91.1 7.75023 91.055 7.80023 91 7.83523C90.945 7.87523 90.885 7.89023 90.82 7.89023C90.73 7.89023 90.655 7.86023 90.595 7.79523C90.53 7.73023 90.5 7.65523 90.5 7.56523C90.5 7.47523 90.53 7.40023 90.595 7.33523C90.66 7.27023 90.735 7.24023 90.82 7.24023C90.885 7.24023 90.945 7.26023 91 7.29523C91.055 7.33523 91.095 7.38523 91.125 7.45023H91.03V7.46023Z" fill="black"/>
<path d="M91.5547 7.87977V7.61977C91.5547 7.58477 91.5447 7.55477 91.5197 7.52977C91.4947 7.50477 91.4697 7.49477 91.4297 7.49477C91.3947 7.49477 91.3647 7.50477 91.3397 7.52977C91.3147 7.55477 91.3047 7.58477 91.3047 7.61477V7.87477H91.2197V7.25977H91.3047V7.48477C91.3447 7.43477 91.3947 7.41477 91.4497 7.41477C91.4997 7.41477 91.5447 7.43477 91.5797 7.46977C91.6197 7.50477 91.6347 7.54977 91.6347 7.59477V7.87477H91.5447L91.5547 7.87977Z" fill="black"/>
<path d="M92.0702 7.82482C92.0352 7.86982 91.9852 7.89482 91.9202 7.89482C91.8702 7.89482 91.8302 7.87982 91.7952 7.84482C91.7602 7.80982 91.7402 7.76982 91.7402 7.72482V7.44482H91.8302V7.69982C91.8302 7.73482 91.8402 7.75982 91.8652 7.78482C91.8902 7.80982 91.9152 7.81982 91.9502 7.81982C91.9852 7.81982 92.0102 7.80982 92.0352 7.78482C92.0602 7.75982 92.0702 7.73482 92.0702 7.69982V7.44482H92.1602V7.88482H92.0702V7.82982V7.82482Z" fill="black"/>
<path d="M92.3498 7.4948C92.3798 7.4498 92.4298 7.4248 92.4998 7.4248C92.5498 7.4248 92.5898 7.4448 92.6248 7.4798C92.6598 7.5148 92.6798 7.5548 92.6798 7.5998V7.8798H92.5898V7.6198C92.5898 7.5848 92.5798 7.5598 92.5548 7.5348C92.5298 7.5098 92.5048 7.4998 92.4698 7.4998C92.4348 7.4998 92.4098 7.5098 92.3848 7.5348C92.3598 7.5598 92.3498 7.5848 92.3498 7.6198V7.8798H92.2598V7.4398H92.3498V7.4948Z" fill="black"/>
<path d="M93.0303 8.03002C92.9053 8.03002 92.8253 7.97502 92.7853 7.87002H92.8803C92.9003 7.92502 92.9503 7.95502 93.0253 7.95502C93.0703 7.95502 93.1103 7.94002 93.1403 7.91502C93.1703 7.89002 93.1853 7.85502 93.1853 7.81502V7.80002C93.1403 7.85002 93.0803 7.87502 93.0103 7.87502C92.9503 7.87502 92.8953 7.85002 92.8503 7.80502C92.8053 7.76002 92.7803 7.70002 92.7803 7.63502C92.7803 7.57002 92.8053 7.51502 92.8503 7.46502C92.8953 7.42002 92.9503 7.39502 93.0103 7.39502C93.0803 7.39502 93.1353 7.42002 93.1853 7.47002V7.41002H93.2753V7.81502C93.2753 7.87002 93.2503 7.92002 93.2053 7.96502C93.1603 8.00502 93.1003 8.02502 93.0353 8.02502L93.0303 8.03002ZM93.0303 7.48002C92.9853 7.48002 92.9503 7.49502 92.9203 7.52502C92.8903 7.55502 92.8753 7.59502 92.8753 7.63502C92.8753 7.68002 92.8903 7.72002 92.9203 7.75002C92.9503 7.78002 92.9853 7.80002 93.0303 7.80002C93.0753 7.80002 93.1103 7.78502 93.1453 7.75502C93.1753 7.72502 93.1903 7.68502 93.1903 7.64002C93.1903 7.59502 93.1753 7.56002 93.1453 7.52502C93.1153 7.49502 93.0753 7.48002 93.0353 7.48002H93.0303Z" fill="black"/>
<path d="M93.7352 7.59006C93.7352 7.59006 93.7052 7.55006 93.6802 7.53506C93.6552 7.52006 93.6302 7.51506 93.6002 7.51506C93.5602 7.51506 93.5252 7.53006 93.4952 7.56006C93.4652 7.59006 93.4502 7.62506 93.4502 7.67006C93.4502 7.71506 93.4652 7.75006 93.4952 7.78006C93.5252 7.81006 93.5602 7.82506 93.6002 7.82506C93.6552 7.82506 93.7002 7.80006 93.7302 7.74506H93.8202C93.8002 7.79506 93.7702 7.83506 93.7302 7.86506C93.6902 7.89506 93.6452 7.90506 93.6002 7.90506C93.5352 7.90506 93.4802 7.88006 93.4352 7.83506C93.3902 7.79006 93.3652 7.73506 93.3652 7.67006C93.3652 7.60506 93.3902 7.55006 93.4352 7.50506C93.4802 7.46006 93.5352 7.43506 93.6002 7.43506C93.6502 7.43506 93.6952 7.45006 93.7352 7.48006C93.7752 7.51006 93.8052 7.55006 93.8202 7.59506H93.7302L93.7352 7.59006Z" fill="black"/>
<path d="M94.2549 7.88514V7.62514C94.2549 7.59014 94.2449 7.56014 94.2199 7.53514C94.1949 7.51014 94.1699 7.50014 94.1299 7.50014C94.0899 7.50014 94.0649 7.51014 94.0399 7.53514C94.0149 7.56014 94.0049 7.59014 94.0049 7.62014V7.88014H93.9199V7.26514H94.0049V7.49014C94.0449 7.44014 94.0949 7.42014 94.1499 7.42014C94.1999 7.42014 94.2449 7.44014 94.2799 7.47514C94.3199 7.51014 94.3349 7.55514 94.3349 7.60014V7.88014H94.2449L94.2549 7.88514Z" fill="black"/>
<path d="M94.6803 7.90518C94.6153 7.90518 94.5603 7.88018 94.5153 7.83518C94.4703 7.79018 94.4453 7.73018 94.4453 7.66518C94.4453 7.60018 94.4703 7.54518 94.5153 7.50018C94.5603 7.45518 94.6153 7.43018 94.6853 7.43018C94.7503 7.43018 94.8053 7.45518 94.8553 7.50018C94.9003 7.54518 94.9253 7.60018 94.9253 7.66518C94.9253 7.73018 94.9003 7.78518 94.8553 7.83018C94.8103 7.87518 94.7503 7.90018 94.6853 7.90018L94.6803 7.90518ZM94.6803 7.51518C94.6353 7.51518 94.6003 7.53018 94.5703 7.56018C94.5403 7.59018 94.5253 7.62518 94.5253 7.67018C94.5253 7.71518 94.5403 7.75018 94.5703 7.78018C94.6003 7.81018 94.6353 7.82518 94.6803 7.82518C94.7253 7.82518 94.7603 7.81018 94.7903 7.78018C94.8203 7.75018 94.8353 7.71518 94.8353 7.67018C94.8353 7.63018 94.8203 7.59018 94.7903 7.56018C94.7603 7.53018 94.7253 7.51518 94.6803 7.51518Z" fill="black"/>
<path d="M95.1095 7.4948C95.1395 7.4498 95.1895 7.4248 95.2595 7.4248C95.3095 7.4248 95.3495 7.4448 95.3845 7.4748C95.4195 7.5098 95.4395 7.5498 95.4395 7.5948V7.8748H95.3495V7.6148C95.3495 7.5798 95.3395 7.5548 95.3145 7.5298C95.2895 7.5048 95.2645 7.4948 95.2295 7.4948C95.1945 7.4948 95.1695 7.5048 95.1445 7.5298C95.1195 7.5548 95.1095 7.5798 95.1095 7.6148V7.8748H95.0195V7.4348H95.1095V7.4898V7.4948Z" fill="black"/>
<path d="M95.79 8.03002C95.665 8.03002 95.585 7.97502 95.545 7.87002H95.64C95.66 7.92502 95.71 7.95502 95.785 7.95502C95.83 7.95502 95.87 7.94002 95.9 7.91502C95.93 7.89002 95.945 7.85502 95.945 7.81502V7.80002C95.9 7.85002 95.84 7.87502 95.77 7.87502C95.71 7.87502 95.655 7.85002 95.61 7.80502C95.565 7.76002 95.54 7.70002 95.54 7.63502C95.54 7.57002 95.565 7.51502 95.61 7.46502C95.655 7.42002 95.71 7.39502 95.77 7.39502C95.84 7.39502 95.9 7.42002 95.945 7.47002V7.41002H96.035V7.81502C96.035 7.87002 96.01 7.92002 95.965 7.96502C95.92 8.00502 95.86 8.02502 95.795 8.02502L95.79 8.03002ZM95.79 7.48002C95.745 7.48002 95.71 7.49502 95.68 7.52502C95.65 7.55502 95.635 7.59502 95.635 7.63502C95.635 7.68002 95.65 7.72002 95.68 7.75002C95.71 7.78002 95.745 7.80002 95.79 7.80002C95.835 7.80002 95.87 7.78502 95.905 7.75502C95.935 7.72502 95.95 7.68502 95.95 7.64002C95.95 7.59502 95.935 7.56002 95.905 7.52502C95.875 7.49502 95.835 7.48002 95.795 7.48002H95.79Z" fill="black"/>
<path d="M96.39 7.90002C96.32 7.90002 96.265 7.87502 96.215 7.82502V7.88502H96.125V7.27002H96.215V7.50002C96.26 7.45002 96.32 7.42502 96.39 7.42502C96.45 7.42502 96.505 7.45002 96.55 7.49502C96.595 7.54002 96.62 7.60002 96.62 7.66502C96.62 7.73002 96.595 7.78502 96.55 7.83002C96.505 7.87502 96.45 7.90002 96.39 7.90002ZM96.37 7.50502C96.325 7.50502 96.29 7.52002 96.26 7.55002C96.23 7.58002 96.215 7.62002 96.215 7.66502C96.215 7.71002 96.23 7.74502 96.26 7.78002C96.29 7.81002 96.33 7.82502 96.375 7.82502C96.42 7.82502 96.455 7.81002 96.485 7.77502C96.515 7.74502 96.53 7.70502 96.53 7.66002C96.53 7.61502 96.515 7.58002 96.485 7.55002C96.455 7.52002 96.415 7.50502 96.375 7.50502H96.37Z" fill="black"/>
<path d="M97.0497 7.8302C97.0147 7.8752 96.9647 7.9002 96.8997 7.9002C96.8497 7.9002 96.8097 7.8852 96.7747 7.8502C96.7397 7.8152 96.7197 7.7752 96.7197 7.7302V7.4502H96.8097V7.7052C96.8097 7.7402 96.8197 7.7652 96.8447 7.7902C96.8697 7.8152 96.8947 7.8252 96.9297 7.8252C96.9597 7.8252 96.9897 7.8152 97.0147 7.7902C97.0397 7.7652 97.0497 7.7402 97.0497 7.7052V7.4502H97.1397V7.8902H97.0497V7.8352V7.8302Z" fill="black"/>
<path d="M97.5652 7.8899L97.3302 7.6899V7.8899H97.2402V7.2749H97.3302V7.6449L97.5502 7.4499H97.6752L97.4302 7.6699L97.6852 7.8949H97.5602L97.5652 7.8899Z" fill="black"/>
<path d="M97.8301 7.61992V7.54492H98.2201V7.61992H97.8301Z" fill="black"/>
<path d="M98.7654 7.8899V7.8299C98.7204 7.8799 98.6603 7.9049 98.5903 7.9049C98.5303 7.9049 98.4754 7.8799 98.4304 7.8349C98.3854 7.7899 98.3604 7.7299 98.3604 7.6699C98.3604 7.6049 98.3854 7.5499 98.4304 7.4999C98.4754 7.4549 98.5303 7.4299 98.5903 7.4299C98.6603 7.4299 98.7204 7.4549 98.7654 7.5049V7.2749H98.8554V7.8899H98.7604H98.7654ZM98.6153 7.5099C98.5703 7.5099 98.5353 7.5249 98.5053 7.5549C98.4753 7.5849 98.4604 7.6249 98.4604 7.6649C98.4604 7.7099 98.4753 7.7449 98.5053 7.7799C98.5353 7.8099 98.5753 7.8299 98.6153 7.8299C98.6603 7.8299 98.6954 7.8149 98.7304 7.7849C98.7604 7.7549 98.7754 7.7149 98.7754 7.6699C98.7754 7.6249 98.7604 7.5899 98.7304 7.5549C98.7004 7.5249 98.6604 7.5099 98.6204 7.5099H98.6153Z" fill="black"/>
<path d="M99.195 7.91006C99.13 7.91006 99.075 7.88506 99.03 7.84006C98.985 7.79506 98.96 7.73506 98.96 7.67006C98.96 7.60506 98.985 7.55006 99.03 7.50506C99.075 7.46006 99.13 7.43506 99.195 7.43506C99.26 7.43506 99.315 7.46006 99.365 7.50506C99.41 7.55006 99.435 7.60506 99.435 7.67006C99.435 7.73506 99.41 7.79006 99.365 7.83506C99.32 7.88006 99.26 7.90506 99.195 7.90506V7.91006ZM99.195 7.52006C99.15 7.52006 99.115 7.53506 99.085 7.56506C99.055 7.59506 99.04 7.63006 99.04 7.67506C99.04 7.72006 99.055 7.75506 99.085 7.78506C99.115 7.81506 99.15 7.83006 99.195 7.83006C99.24 7.83006 99.275 7.81506 99.305 7.78506C99.335 7.75506 99.35 7.72006 99.35 7.67506C99.35 7.63506 99.335 7.59506 99.305 7.56506C99.275 7.53506 99.24 7.52006 99.195 7.52006Z" fill="black"/>
<path d="M100.17 7.90488C100.08 7.90488 100.005 7.87488 99.9446 7.80988C99.8796 7.74488 99.8496 7.66988 99.8496 7.57988C99.8496 7.48988 99.8796 7.41488 99.9446 7.34988C100.01 7.28488 100.085 7.25488 100.175 7.25488C100.265 7.25488 100.34 7.28488 100.405 7.34988C100.47 7.41488 100.5 7.48988 100.5 7.57988C100.5 7.66988 100.47 7.74488 100.405 7.80988C100.34 7.87488 100.265 7.90488 100.175 7.90488H100.17ZM100.17 7.34488C100.105 7.34488 100.05 7.36988 99.9996 7.41488C99.9546 7.45988 99.9296 7.51488 99.9296 7.57988C99.9296 7.64488 99.9546 7.70488 99.9996 7.74988C100.045 7.79488 100.1 7.81988 100.17 7.81988C100.235 7.81988 100.29 7.79488 100.34 7.74988C100.385 7.70488 100.41 7.64488 100.41 7.57988C100.41 7.51488 100.385 7.45988 100.34 7.40988C100.295 7.36488 100.235 7.33988 100.17 7.33988V7.34488Z" fill="black"/>
<path d="M100.78 7.5249V7.8949H100.69V7.5249H100.59V7.4499H100.69C100.69 7.3999 100.705 7.3599 100.73 7.3299C100.75 7.3099 100.77 7.2949 100.795 7.2849C100.81 7.2799 100.835 7.2749 100.87 7.2749V7.3599C100.835 7.3599 100.815 7.3649 100.8 7.3799C100.785 7.3899 100.78 7.4149 100.78 7.4449H100.885V7.5199H100.775L100.78 7.5249Z" fill="black"/>
<path d="M101.175 7.5249V7.8949H101.085V7.5249H100.985V7.4499H101.085C101.085 7.3999 101.1 7.3599 101.125 7.3299C101.145 7.3099 101.165 7.2949 101.19 7.2849C101.205 7.2799 101.23 7.2749 101.265 7.2749V7.3599C101.23 7.3599 101.21 7.3649 101.195 7.3799C101.18 7.3899 101.175 7.4149 101.175 7.4449H101.28V7.5199H101.17L101.175 7.5249Z" fill="black"/>
<path d="M101.38 7.35478V7.27979H101.455V7.35478H101.38ZM101.38 7.89478V7.44978H101.455V7.89478H101.38Z" fill="black"/>
<path d="M101.92 7.59982C101.92 7.59982 101.89 7.55982 101.865 7.54482C101.84 7.52982 101.815 7.52482 101.785 7.52482C101.745 7.52482 101.71 7.53982 101.68 7.56982C101.65 7.59982 101.635 7.63482 101.635 7.67982C101.635 7.72482 101.65 7.75982 101.68 7.78982C101.71 7.81982 101.745 7.83482 101.785 7.83482C101.84 7.83482 101.885 7.80982 101.92 7.75482H102.01C101.99 7.80482 101.96 7.84482 101.92 7.87482C101.88 7.90482 101.835 7.91482 101.79 7.91482C101.725 7.91482 101.67 7.88982 101.625 7.84482C101.58 7.79982 101.555 7.74482 101.555 7.67982C101.555 7.61482 101.58 7.55982 101.625 7.51482C101.67 7.46982 101.725 7.44482 101.79 7.44482C101.84 7.44482 101.885 7.45982 101.925 7.48982C101.965 7.51982 101.995 7.55982 102.01 7.60482H101.92V7.59982Z" fill="black"/>
<path d="M102.575 7.70994H102.19C102.2 7.74494 102.215 7.77494 102.245 7.79494C102.27 7.81494 102.305 7.82994 102.34 7.82994C102.4 7.82994 102.445 7.80494 102.475 7.74994H102.56C102.515 7.85494 102.44 7.90994 102.335 7.90994C102.27 7.90994 102.215 7.88494 102.17 7.83994C102.125 7.79494 102.1 7.73994 102.1 7.67494C102.1 7.60994 102.125 7.55494 102.17 7.50994C102.215 7.46494 102.27 7.43994 102.335 7.43994C102.4 7.43994 102.455 7.46494 102.5 7.50994C102.545 7.55494 102.565 7.61494 102.565 7.67994C102.565 7.68994 102.565 7.69994 102.565 7.70994H102.575ZM102.34 7.51994C102.305 7.51994 102.27 7.52994 102.245 7.55494C102.22 7.57494 102.2 7.60494 102.19 7.64494H102.49C102.48 7.60994 102.465 7.57994 102.435 7.55494C102.405 7.53494 102.375 7.51994 102.34 7.51994Z" fill="black"/>
<path d="M103.23 7.91494C103.165 7.91494 103.11 7.88994 103.065 7.84494C103.02 7.79994 102.995 7.73994 102.995 7.67494C102.995 7.60994 103.02 7.55494 103.065 7.50994C103.11 7.46494 103.165 7.43994 103.23 7.43994C103.295 7.43994 103.35 7.46494 103.4 7.50994C103.445 7.55494 103.47 7.60994 103.47 7.67494C103.47 7.73994 103.445 7.79494 103.4 7.83994C103.355 7.88494 103.295 7.90994 103.23 7.90994V7.91494ZM103.23 7.52494C103.19 7.52494 103.15 7.53994 103.12 7.56994C103.09 7.59994 103.075 7.63494 103.075 7.67994C103.075 7.72494 103.09 7.75994 103.12 7.78994C103.15 7.81994 103.185 7.83494 103.23 7.83494C103.275 7.83494 103.31 7.81994 103.34 7.78994C103.37 7.75994 103.385 7.72494 103.385 7.67994C103.385 7.63494 103.37 7.59994 103.34 7.56994C103.31 7.53994 103.275 7.52494 103.23 7.52494Z" fill="black"/>
<path d="M103.755 7.5249V7.8949H103.665V7.5249H103.565V7.4499H103.665C103.665 7.3999 103.68 7.3599 103.705 7.3299C103.725 7.3099 103.745 7.2949 103.77 7.2849C103.785 7.2799 103.81 7.2749 103.845 7.2749V7.3599C103.81 7.3599 103.79 7.3649 103.775 7.3799C103.76 7.3899 103.755 7.4149 103.755 7.4449H103.86V7.5199H103.75L103.755 7.5249Z" fill="black"/>
<path d="M104.275 7.89478V7.27979H104.7V7.35478H104.365V7.53478H104.69V7.61478H104.365V7.81479H104.705V7.89478H104.275Z" fill="black"/>
<path d="M105.205 7.89478V7.83478C105.16 7.88478 105.1 7.90978 105.03 7.90978C104.97 7.90978 104.915 7.88479 104.87 7.83979C104.825 7.79479 104.8 7.73979 104.8 7.67479C104.8 7.60979 104.825 7.55479 104.87 7.50479C104.915 7.45979 104.97 7.43478 105.03 7.43478C105.1 7.43478 105.16 7.45979 105.205 7.50979V7.27979H105.295V7.89478H105.2H105.205ZM105.055 7.51478C105.01 7.51478 104.975 7.52978 104.945 7.55978C104.915 7.58978 104.9 7.62979 104.9 7.66979C104.9 7.70979 104.915 7.74978 104.945 7.78478C104.975 7.81478 105.01 7.83478 105.055 7.83478C105.1 7.83478 105.135 7.81978 105.17 7.78978C105.2 7.75978 105.215 7.71979 105.215 7.67479C105.215 7.62979 105.2 7.59478 105.17 7.55978C105.14 7.52978 105.1 7.51478 105.055 7.51478Z" fill="black"/>
<path d="M105.725 7.83996C105.695 7.88496 105.64 7.90996 105.575 7.90996C105.525 7.90996 105.485 7.89496 105.45 7.85996C105.415 7.82496 105.395 7.78496 105.4 7.73996V7.45996H105.49V7.71496C105.49 7.74996 105.5 7.77496 105.525 7.79996C105.55 7.82496 105.575 7.83496 105.61 7.83496C105.64 7.83496 105.67 7.82496 105.695 7.79996C105.72 7.77496 105.73 7.74996 105.73 7.71496V7.45996H105.82V7.89996H105.73V7.84496L105.725 7.83996Z" fill="black"/>
<path d="M106.285 7.6052C106.285 7.6052 106.255 7.5652 106.23 7.5502C106.205 7.5352 106.18 7.5302 106.15 7.5302C106.11 7.5302 106.075 7.5452 106.045 7.5752C106.015 7.6052 106 7.6402 106 7.6852C106 7.7302 106.015 7.7652 106.045 7.7952C106.075 7.8252 106.11 7.8402 106.15 7.8402C106.205 7.8402 106.25 7.8152 106.285 7.7602H106.375C106.355 7.8102 106.325 7.8502 106.285 7.8802C106.245 7.9102 106.2 7.9202 106.155 7.9202C106.09 7.9202 106.035 7.8952 105.99 7.8502C105.945 7.8052 105.92 7.7502 105.92 7.6852C105.92 7.6202 105.945 7.5652 105.99 7.5202C106.035 7.4752 106.09 7.4502 106.155 7.4502C106.205 7.4502 106.25 7.4652 106.29 7.4952C106.33 7.5252 106.36 7.5652 106.375 7.6102H106.285V7.6052Z" fill="black"/>
<path d="M106.87 7.89982V7.83982C106.825 7.88982 106.765 7.91482 106.695 7.91482C106.635 7.91482 106.58 7.88982 106.535 7.84482C106.49 7.79982 106.465 7.74482 106.465 7.67982C106.465 7.61482 106.49 7.55982 106.535 7.51482C106.58 7.46982 106.635 7.44482 106.695 7.44482C106.765 7.44482 106.825 7.46982 106.87 7.51982V7.45982H106.96V7.89982H106.87ZM106.72 7.51982C106.675 7.51982 106.64 7.53482 106.61 7.56482C106.58 7.59482 106.565 7.62982 106.565 7.67482C106.565 7.71982 106.58 7.75482 106.61 7.78982C106.64 7.81982 106.675 7.83482 106.72 7.83482C106.765 7.83482 106.8 7.81982 106.835 7.78982C106.865 7.75982 106.88 7.71982 106.885 7.67982C106.885 7.63482 106.87 7.59982 106.84 7.56982C106.81 7.53982 106.77 7.52482 106.725 7.52482L106.72 7.51982Z" fill="black"/>
<path d="M107.255 7.53016V7.90016H107.165V7.53016H107.065V7.45516H107.17V7.28516H107.26V7.45516H107.365V7.53016H107.26H107.255Z" fill="black"/>
<path d="M107.46 7.36016V7.28516H107.535V7.36016H107.46ZM107.46 7.90016V7.45516H107.535V7.90016H107.46Z" fill="black"/>
<path d="M107.87 7.91982C107.805 7.91982 107.75 7.89482 107.705 7.84982C107.66 7.80482 107.635 7.74482 107.635 7.67982C107.635 7.61482 107.66 7.55982 107.705 7.51482C107.75 7.46982 107.805 7.44482 107.87 7.44482C107.935 7.44482 107.99 7.46982 108.04 7.51482C108.085 7.55982 108.11 7.61482 108.11 7.67982C108.11 7.74482 108.085 7.79982 108.04 7.84482C107.995 7.88982 107.935 7.91482 107.87 7.91482V7.91982ZM107.87 7.52982C107.825 7.52982 107.79 7.54482 107.76 7.57482C107.73 7.60482 107.715 7.63982 107.715 7.68482C107.715 7.72982 107.73 7.76482 107.76 7.79482C107.79 7.82482 107.825 7.83982 107.87 7.83982C107.915 7.83982 107.95 7.82482 107.98 7.79482C108.01 7.76482 108.025 7.72982 108.025 7.68482C108.025 7.63982 108.01 7.60482 107.98 7.57482C107.95 7.54482 107.915 7.52982 107.87 7.52982Z" fill="black"/>
<path d="M108.3 7.51482C108.33 7.46982 108.38 7.44482 108.45 7.44482C108.5 7.44482 108.54 7.46482 108.575 7.49482C108.61 7.52982 108.63 7.56982 108.63 7.61482V7.89482H108.54V7.63482C108.54 7.59982 108.53 7.57482 108.505 7.54982C108.48 7.52482 108.455 7.51482 108.42 7.51482C108.385 7.51482 108.36 7.52482 108.335 7.54982C108.31 7.57482 108.3 7.59982 108.3 7.63482V7.89482H108.21V7.45482H108.3V7.50982V7.51482Z" fill="black"/>
<path fill-rule="evenodd" clip-rule="evenodd" d="M14.2298 4.84521H13.6298V6.09521H11.1848V4.84521H10.5848C10.4448 4.84521 10.3298 4.96021 10.3298 5.10021V7.82022C10.3298 7.96022 10.4448 8.07521 10.5848 8.07521H11.1848V6.72521H13.6298V8.07521H14.2298C14.3698 8.07521 14.4848 7.96022 14.4848 7.82022V5.10021C14.4848 4.96021 14.3698 4.84521 14.2298 4.84521ZM9.37977 4.84521H8.77977V7.22521L6.89477 5.34521C6.59477 5.05521 6.38977 4.84521 5.90977 4.84521H5.38477V7.82022C5.38477 7.96022 5.49977 8.07521 5.64477 8.07521H6.24477V5.68521L8.11477 7.55521C8.41977 7.85021 8.69477 8.08021 9.13477 8.08021H9.63977V5.10522C9.63977 4.96522 9.52477 4.85021 9.38477 4.85021L9.37977 4.84521ZM21.1698 6.66021L21.9198 5.95521H21.6548C21.5248 5.95521 21.4498 6.02522 21.3898 6.08522C21.3898 6.08522 20.9498 6.50521 20.8698 6.58021V5.27522H20.7248C20.6348 5.27522 20.5648 5.34521 20.5648 5.43521V7.38022C20.5648 7.46522 20.6348 7.54022 20.7248 7.54022H20.8698V6.74521C20.8948 6.77521 21.4948 7.42022 21.4948 7.42022C21.5598 7.49022 21.6048 7.54022 21.7398 7.54022H22.0148C22.0148 7.54022 21.1848 6.67021 21.1748 6.66021H21.1698ZM19.5948 5.95521H18.8548V7.38022C18.8548 7.46522 18.9248 7.54022 19.0148 7.54022H19.1648V6.20521H19.5598C19.8048 6.22021 19.8898 6.36022 19.8898 6.73522V7.54022H20.0348C20.1248 7.54022 20.1948 7.47022 20.1948 7.38022V6.63522C20.1948 6.19022 19.9848 5.95521 19.5898 5.95521H19.5948ZM16.4598 6.44022C16.6998 6.34522 16.8448 6.19522 16.8448 5.92522C16.8448 5.56022 16.5848 5.37522 16.0698 5.37522H15.6348C15.5448 5.37522 15.4748 5.44521 15.4748 5.53521V7.38022C15.4748 7.46522 15.5448 7.54022 15.6348 7.54022H16.0598C16.6248 7.54022 16.8998 7.35022 16.8998 6.96022C16.8998 6.67522 16.7098 6.49022 16.4598 6.44022ZM15.7998 5.64522H16.1198C16.2398 5.64522 16.5148 5.67521 16.5148 5.95521C16.5148 6.26521 16.2648 6.29022 15.9648 6.29022H15.7998V5.64021V5.64522ZM16.0248 7.27022H15.7998V6.56021H15.9948C16.2548 6.56021 16.5548 6.60021 16.5548 6.93021C16.5548 7.16521 16.3948 7.27022 16.0298 7.27022H16.0248ZM17.8498 5.91522C17.6748 5.91522 17.4998 5.96021 17.3398 6.05521V6.33021L17.3548 6.32022C17.4698 6.22522 17.6498 6.16021 17.8098 6.16021C18.0798 6.16021 18.1948 6.27521 18.1948 6.55521C18.0848 6.55021 18.0048 6.55022 17.8898 6.55022C17.6298 6.55022 17.1448 6.65521 17.1448 7.06021C17.1448 7.36522 17.3548 7.53521 17.7348 7.53521H18.3398C18.4298 7.53521 18.4998 7.46522 18.4998 7.37522V6.57022C18.4998 6.12022 18.2948 5.91522 17.8498 5.91522ZM18.1898 7.30022H17.7548C17.6148 7.30022 17.4648 7.21022 17.4648 7.06522C17.4648 6.81522 17.8448 6.78521 18.0098 6.78521H18.1898V7.30022Z" fill="#045BA9"/>
<path fill-rule="evenodd" clip-rule="evenodd" d="M14.4002 58.2902C13.9402 58.2902 13.5652 58.4302 13.2702 58.7102C12.9752 58.9902 12.8252 59.3752 12.8252 59.8602C12.8252 60.3102 12.9602 60.6752 13.2352 60.9602C13.4902 61.2252 13.8002 61.3552 14.1552 61.3552C14.2152 61.3552 14.2802 61.3552 14.3452 61.3402C14.4102 61.3302 14.4752 61.3152 14.5302 61.2952L13.4802 63.3852H14.4802L15.5502 61.1952C15.7252 60.8352 15.8402 60.5602 15.8902 60.3702C15.9402 60.1802 15.9702 60.0052 15.9702 59.8452C15.9702 59.3552 15.8202 58.9752 15.5252 58.7002C15.2302 58.4252 14.8502 58.2852 14.3952 58.2852L14.4002 58.2902ZM14.8702 60.3952C14.7502 60.5252 14.5902 60.5902 14.4002 60.5902C14.2102 60.5902 14.0452 60.5252 13.9252 60.3902C13.8052 60.2602 13.7502 60.0802 13.7502 59.8552C13.7502 59.6302 13.8102 59.4452 13.9302 59.3152C14.0502 59.1852 14.2102 59.1202 14.4002 59.1202C14.5902 59.1202 14.7502 59.1852 14.8702 59.3152C14.9902 59.4452 15.0502 59.6252 15.0502 59.8552C15.0502 60.0852 14.9902 60.2652 14.8702 60.3952ZM20.0152 60.8502H19.1302V61.7952H18.0752L19.8052 58.3302H18.8002L17.0702 61.7952V62.6702H19.1352V63.3852H20.0202V62.6702H20.4802V61.7952H20.0202V60.8502H20.0152ZM24.1352 60.7802C24.2952 60.6652 24.4252 60.5352 24.5202 60.3902C24.6452 60.1952 24.7052 59.9752 24.7052 59.7302C24.7052 59.2902 24.5552 58.9402 24.2602 58.6802C23.9652 58.4202 23.5952 58.2902 23.1552 58.2902C22.7152 58.2902 22.3452 58.4202 22.0502 58.6852C21.7502 58.9502 21.6052 59.2952 21.6052 59.7352C21.6052 59.9802 21.6702 60.2052 21.7952 60.4052C21.8902 60.5502 22.0152 60.6802 22.1702 60.7902C21.9902 60.9102 21.8502 61.0452 21.7502 61.1952C21.6102 61.4102 21.5352 61.6502 21.5352 61.9252C21.5352 62.4052 21.6952 62.7802 22.0102 63.0552C22.3052 63.3102 22.6852 63.4402 23.1502 63.4402C23.6152 63.4402 24.0052 63.3052 24.3102 63.0402C24.6152 62.7702 24.7652 62.4002 24.7652 61.9302C24.7652 61.6552 24.6902 61.4102 24.5452 61.2002C24.4402 61.0502 24.3002 60.9152 24.1252 60.7952L24.1352 60.7802ZM22.7052 59.3002C22.8252 59.1802 22.9752 59.1202 23.1552 59.1202C23.3352 59.1202 23.4852 59.1802 23.6002 59.3052C23.7202 59.4302 23.7752 59.5802 23.7752 59.7602C23.7752 59.9402 23.7152 60.0952 23.6002 60.2202C23.4852 60.3402 23.3352 60.4002 23.1502 60.4002C22.9652 60.4002 22.8202 60.3402 22.7002 60.2202C22.5802 60.1002 22.5202 59.9452 22.5202 59.7602C22.5202 59.5752 22.5802 59.4252 22.7002 59.3002H22.7052ZM23.6502 62.4002C23.5202 62.5352 23.3502 62.6002 23.1552 62.6002C22.9602 62.6002 22.7902 62.5352 22.6602 62.4002C22.5302 62.2652 22.4602 62.1002 22.4602 61.9052C22.4602 61.7102 22.5252 61.5402 22.6602 61.4052C22.7952 61.2702 22.9602 61.2052 23.1552 61.2052C23.3502 61.2052 23.5202 61.2752 23.6502 61.4102C23.7802 61.5452 23.8502 61.7152 23.8502 61.9052C23.8502 62.0952 23.7852 62.2702 23.6502 62.4002ZM28.4652 60.7752C28.6452 60.6802 28.7852 60.5502 28.8902 60.3802C28.9952 60.2102 29.0452 60.0002 29.0452 59.7352C29.0452 59.3102 28.9002 58.9602 28.6102 58.6902C28.3202 58.4202 27.9552 58.2852 27.5052 58.2852C27.0552 58.2852 26.7002 58.4152 26.4002 58.6802C26.1052 58.9452 25.9552 59.2902 25.9552 59.7302H26.8752C26.8752 59.5402 26.9352 59.3902 27.0502 59.2802C27.1702 59.1702 27.3152 59.1152 27.4952 59.1152C27.6752 59.1152 27.8152 59.1702 27.9352 59.2852C28.0552 59.4002 28.1102 59.5552 28.1102 59.7602C28.1102 59.9502 28.0552 60.1002 27.9502 60.2202C27.8452 60.3352 27.6852 60.3952 27.4702 60.3952H27.3352V61.2002H27.4702C27.6902 61.2002 27.8652 61.2652 27.9902 61.3902C28.1152 61.5152 28.1802 61.6852 28.1802 61.9002C28.1802 62.1252 28.1152 62.3002 27.9902 62.4202C27.8652 62.5402 27.7002 62.6002 27.4952 62.6002C27.2902 62.6002 27.1402 62.5452 27.0052 62.4302C26.8752 62.3152 26.8052 62.1552 26.8052 61.9402H25.8852C25.8852 62.4352 26.0502 62.8202 26.3802 63.0852C26.6702 63.3152 27.0402 63.4352 27.4952 63.4352C27.9502 63.4352 28.3302 63.3102 28.6252 63.0602C28.9402 62.7852 29.1002 62.4102 29.1002 61.9302C29.1002 61.6402 29.0352 61.3952 28.9102 61.1902C28.8052 61.0252 28.6502 60.8852 28.4502 60.7802L28.4652 60.7752ZM37.2502 59.2252V60.2202L38.2802 59.3252V63.3902H39.2002V58.3352H38.2752L37.2452 59.2302L37.2502 59.2252ZM41.6302 59.2252V60.2202L42.6602 59.3252V63.3902H43.5802V58.3352H42.6552L41.6252 59.2302L41.6302 59.2252ZM46.0152 59.2252V60.2202L47.0452 59.3252V63.3902H47.9652V58.3352H47.0402L46.0102 59.2302L46.0152 59.2252ZM50.0252 59.9602H50.9052V59.1652H52.2402L50.6002 63.3902H51.6002L53.2402 59.1652V58.3352H50.0302V59.9602H50.0252ZM60.9402 59.9602H61.8202V59.1652H63.1552L61.5152 63.3902H62.5152L64.1552 59.1652V58.3352H60.9452V59.9602H60.9402ZM67.1302 60.3602C67.0702 60.3602 67.0052 60.3602 66.9402 60.3752C66.8752 60.3852 66.8102 60.4002 66.7552 60.4252L67.8052 58.3352H66.8002L65.7352 60.5252C65.5502 60.9002 65.4352 61.1752 65.3852 61.3552C65.3352 61.5352 65.3102 61.7102 65.3102 61.8752C65.3102 62.3652 65.4602 62.7502 65.7652 63.0352C66.0552 63.3052 66.4252 63.4402 66.8852 63.4402C67.3452 63.4402 67.7202 63.3002 68.0152 63.0152C68.3102 62.7352 68.4602 62.3502 68.4602 61.8602C68.4602 61.4102 68.3252 61.0452 68.0502 60.7602C67.7952 60.4952 67.4902 60.3602 67.1352 60.3602H67.1302ZM67.3552 62.4102C67.2352 62.5402 67.0752 62.6052 66.8852 62.6052C66.6952 62.6052 66.5352 62.5402 66.4152 62.4102C66.2952 62.2802 66.2352 62.1002 66.2352 61.8652C66.2352 61.6302 66.2952 61.4502 66.4152 61.3202C66.5352 61.1902 66.6952 61.1252 66.8852 61.1252C67.0752 61.1252 67.2402 61.1902 67.3602 61.3252C67.4802 61.4602 67.5352 61.6402 67.5352 61.8652C67.5352 62.0902 67.4752 62.2802 67.3552 62.4102ZM72.2602 60.7852C72.4202 60.6702 72.5502 60.5402 72.6452 60.3952C72.7702 60.2002 72.8302 59.9802 72.8302 59.7352C72.8302 59.2952 72.6802 58.9452 72.3852 58.6852C72.0902 58.4252 71.7202 58.2952 71.2802 58.2952C70.8402 58.2952 70.4702 58.4252 70.1752 58.6902C69.8752 58.9552 69.7302 59.3002 69.7302 59.7402C69.7302 59.9852 69.7952 60.2102 69.9202 60.4102C70.0152 60.5552 70.1402 60.6852 70.2952 60.7952C70.1152 60.9152 69.9752 61.0502 69.8752 61.2002C69.7352 61.4152 69.6602 61.6552 69.6602 61.9302C69.6602 62.4102 69.8202 62.7852 70.1352 63.0602C70.4302 63.3152 70.8102 63.4452 71.2752 63.4452C71.7402 63.4452 72.1302 63.3102 72.4352 63.0452C72.7402 62.7752 72.8902 62.4052 72.8902 61.9352C72.8902 61.6602 72.8152 61.4152 72.6702 61.2052C72.5652 61.0552 72.4252 60.9202 72.2502 60.8002L72.2602 60.7852ZM70.8302 59.3052C70.9502 59.1852 71.1002 59.1252 71.2802 59.1252C71.4602 59.1252 71.6102 59.1852 71.7252 59.3102C71.8452 59.4352 71.9002 59.5852 71.9002 59.7652C71.9002 59.9452 71.8402 60.1002 71.7252 60.2252C71.6102 60.3452 71.4602 60.4052 71.2752 60.4052C71.0902 60.4052 70.9452 60.3452 70.8252 60.2252C70.7052 60.1052 70.6452 59.9502 70.6452 59.7652C70.6452 59.5802 70.7052 59.4302 70.8252 59.3052H70.8302ZM71.7752 62.4052C71.6452 62.5402 71.4752 62.6052 71.2802 62.6052C71.0852 62.6052 70.9152 62.5402 70.7852 62.4052C70.6552 62.2702 70.5852 62.1052 70.5852 61.9102C70.5852 61.7152 70.6502 61.5452 70.7852 61.4102C70.9202 61.2752 71.0852 61.2102 71.2802 61.2102C71.4752 61.2102 71.6452 61.2802 71.7752 61.4152C71.9052 61.5502 71.9752 61.7202 71.9752 61.9102C71.9752 62.1002 71.9102 62.2752 71.7752 62.4052ZM76.9002 60.8552H76.0152V61.8002H74.9602L76.6902 58.3352H75.6852L73.9552 61.8002V62.6752H76.0202V63.3902H76.9052V62.6752H77.3652V61.8002H76.9052V60.8552H76.9002ZM87.5502 60.7852C87.7102 60.6702 87.8402 60.5402 87.9352 60.3952C88.0602 60.2002 88.1202 59.9802 88.1202 59.7352C88.1202 59.2952 87.9702 58.9452 87.6752 58.6852C87.3802 58.4252 87.0102 58.2952 86.5702 58.2952C86.1302 58.2952 85.7602 58.4252 85.4652 58.6902C85.1652 58.9552 85.0202 59.3002 85.0202 59.7402C85.0202 59.9852 85.0852 60.2102 85.2102 60.4102C85.3052 60.5552 85.4302 60.6852 85.5852 60.7952C85.4052 60.9152 85.2652 61.0502 85.1652 61.2002C85.0252 61.4152 84.9502 61.6552 84.9502 61.9302C84.9502 62.4102 85.1102 62.7852 85.4252 63.0602C85.7202 63.3152 86.1002 63.4452 86.5652 63.4452C87.0302 63.4452 87.4202 63.3102 87.7252 63.0452C88.0302 62.7752 88.1802 62.4052 88.1802 61.9352C88.1802 61.6602 88.1052 61.4152 87.9602 61.2052C87.8552 61.0552 87.7152 60.9202 87.5402 60.8002L87.5502 60.7852ZM86.1202 59.3052C86.2402 59.1852 86.3902 59.1252 86.5702 59.1252C86.7502 59.1252 86.9002 59.1852 87.0152 59.3102C87.1352 59.4352 87.1902 59.5852 87.1902 59.7652C87.1902 59.9452 87.1302 60.1002 87.0152 60.2252C86.9002 60.3452 86.7502 60.4052 86.5652 60.4052C86.3802 60.4052 86.2352 60.3452 86.1152 60.2252C85.9952 60.1052 85.9352 59.9502 85.9352 59.7652C85.9352 59.5802 85.9952 59.4302 86.1152 59.3052H86.1202ZM87.0652 62.4052C86.9352 62.5402 86.7652 62.6052 86.5702 62.6052C86.3752 62.6052 86.2052 62.5402 86.0752 62.4052C85.9452 62.2702 85.8752 62.1052 85.8752 61.9102C85.8752 61.7152 85.9402 61.5452 86.0752 61.4102C86.2102 61.2752 86.3752 61.2102 86.5702 61.2102C86.7652 61.2102 86.9352 61.2802 87.0652 61.4152C87.1952 61.5502 87.2652 61.7202 87.2652 61.9102C87.2652 62.1002 87.2002 62.2752 87.0652 62.4052ZM92.3752 60.3752C92.4652 60.2002 92.5102 59.9952 92.5102 59.7652C92.5102 59.3152 92.3702 58.9552 92.0852 58.6902C91.8002 58.4252 91.4352 58.2902 90.9802 58.2902C90.5252 58.2902 90.1602 58.4252 89.8752 58.6902C89.5852 58.9552 89.4402 59.3152 89.4402 59.7702H90.3602C90.3602 59.5402 90.4252 59.3702 90.5502 59.2602C90.6552 59.1702 90.7952 59.1252 90.9752 59.1252C91.1702 59.1252 91.3202 59.1852 91.4252 59.3002C91.5302 59.4152 91.5852 59.5702 91.5852 59.7602C91.5852 59.8752 91.5652 59.9752 91.5252 60.0652C91.4852 60.1552 91.4152 60.2552 91.3252 60.3702L89.4402 62.5652V63.3952H92.5102V62.5652H90.5602L91.9702 60.9252C92.1752 60.6902 92.3102 60.5052 92.3752 60.3802V60.3752ZM95.3302 58.2952C94.9002 58.2952 94.5402 58.4252 94.2502 58.6852C93.9452 58.9652 93.7902 59.3352 93.7902 59.8002V61.9302C93.7902 62.3952 93.9452 62.7652 94.2502 63.0452C94.5402 63.3052 94.9002 63.4352 95.3302 63.4352C95.7602 63.4352 96.1252 63.3052 96.4102 63.0452C96.7102 62.7702 96.8652 62.4002 96.8652 61.9302V59.8002C96.8652 59.3352 96.7102 58.9652 96.4052 58.6852C96.1202 58.4252 95.7652 58.2952 95.3352 58.2952H95.3302ZM95.9402 61.9252C95.9402 62.1402 95.8852 62.3052 95.7752 62.4252C95.6652 62.5452 95.5152 62.6052 95.3302 62.6052C95.1452 62.6052 94.9952 62.5452 94.8852 62.4202C94.7702 62.2952 94.7152 62.1302 94.7152 61.9252V59.8152C94.7152 59.6002 94.7702 59.4352 94.8852 59.3102C95.0002 59.1852 95.1452 59.1252 95.3302 59.1252C95.5152 59.1252 95.6602 59.1902 95.7752 59.3152C95.8852 59.4402 95.9402 59.6052 95.9402 59.8152V61.9252ZM100.785 58.6852C100.5 58.4252 100.145 58.2952 99.7152 58.2952C99.2852 58.2952 98.9252 58.4252 98.6352 58.6852C98.3302 58.9652 98.1752 59.3352 98.1752 59.8002V61.9302C98.1752 62.3952 98.3302 62.7652 98.6352 63.0452C98.9252 63.3052 99.2852 63.4352 99.7152 63.4352C100.145 63.4352 100.51 63.3052 100.795 63.0452C101.095 62.7702 101.25 62.4002 101.25 61.9302V59.8002C101.25 59.3352 101.095 58.9652 100.79 58.6852H100.785ZM100.325 61.9252C100.325 62.1402 100.27 62.3052 100.16 62.4252C100.05 62.5452 99.9002 62.6052 99.7152 62.6052C99.5302 62.6052 99.3802 62.5452 99.2702 62.4202C99.1552 62.2952 99.1002 62.1302 99.1002 61.9252V59.8152C99.1002 59.6002 99.1552 59.4352 99.2702 59.3102C99.3852 59.1852 99.5302 59.1252 99.7152 59.1252C99.9002 59.1252 100.045 59.1902 100.16 59.3152C100.27 59.4402 100.325 59.6052 100.325 59.8152V61.9252Z" fill="#202020"/>
<path d="M24.9801 6.79504C24.9801 6.79504 25.0151 6.75504 25.0301 6.73504C25.0451 6.71004 25.0601 6.69504 25.0651 6.68504V5.71004C25.0651 5.71004 25.0401 5.71504 25.0251 5.71004C25.0151 5.71004 25.0001 5.71004 24.9851 5.71004H24.8701C24.7701 5.71004 24.6851 5.71004 24.6101 5.71004C24.5351 5.71004 24.4901 5.70504 24.4701 5.69504C24.4201 5.68504 24.3751 5.66504 24.3401 5.63504C24.3051 5.61004 24.2801 5.57004 24.2601 5.51504C24.2551 5.49504 24.2501 5.47504 24.2451 5.46004C24.2451 5.44504 24.2451 5.42504 24.2451 5.40004C24.2451 5.37004 24.2601 5.33504 24.2901 5.29004C24.3001 5.27504 24.3101 5.26504 24.3301 5.25004C24.3451 5.24004 24.3651 5.23004 24.3801 5.22004C24.3951 5.20504 24.4151 5.19504 24.4301 5.19004C24.4451 5.19004 24.4651 5.18004 24.4801 5.17504H25.0451C25.0451 5.14504 25.0451 5.10004 25.0451 5.05004C25.0451 4.99504 25.0451 4.95504 25.0451 4.93004C25.0501 4.89504 25.0601 4.86004 25.0701 4.83004C25.0801 4.80004 25.0951 4.77004 25.1101 4.74504C25.1451 4.69004 25.1951 4.65504 25.2601 4.63504C25.2901 4.62004 25.3251 4.61504 25.3551 4.62004C25.3901 4.62004 25.4201 4.63004 25.4501 4.64504C25.4751 4.65504 25.4951 4.66504 25.5101 4.68004C25.5251 4.69504 25.5401 4.71504 25.5501 4.73504C25.5851 4.77504 25.6051 4.81504 25.6151 4.85504C25.6201 4.88004 25.6251 4.90004 25.6301 4.93004C25.6301 4.95504 25.6301 4.98004 25.6301 5.01004V5.18004H25.9201C25.9751 5.18004 26.0301 5.18004 26.0751 5.18004C26.1201 5.18004 26.1651 5.18504 26.2051 5.19504C26.2451 5.20504 26.2801 5.22004 26.3151 5.24004C26.3501 5.26004 26.3751 5.29004 26.4001 5.33004C26.4251 5.36504 26.4351 5.40504 26.4351 5.45004C26.4451 5.48004 26.4351 5.51504 26.4201 5.56004C26.3851 5.62504 26.3201 5.67004 26.2201 5.69504C26.1901 5.70004 26.1551 5.70504 26.1151 5.70504C26.0751 5.70504 26.0351 5.70504 25.9901 5.71504C25.9451 5.71504 25.8901 5.71504 25.8301 5.71504C25.7701 5.71504 25.7051 5.71504 25.6301 5.71504C25.6301 5.74004 25.6301 5.76504 25.6301 5.79504C25.6301 5.82504 25.6301 5.86004 25.6301 5.89004V5.98004C25.6301 6.00504 25.6301 6.03004 25.6301 6.04504V6.52004C25.6301 6.52004 25.6301 6.55004 25.6301 6.56004C25.6301 6.57504 25.6301 6.59004 25.6301 6.60504V6.67504C25.6301 6.67504 25.6601 6.70004 25.6701 6.72004C25.6851 6.74004 25.7001 6.76004 25.7251 6.78004C25.7451 6.79504 25.7601 6.81504 25.7751 6.83004C25.7901 6.84504 25.8001 6.86504 25.8151 6.87504C25.8301 6.89004 25.8451 6.91004 25.8551 6.92504C25.8651 6.94004 25.8851 6.96004 25.9001 6.97504C25.9151 6.99004 25.9301 7.00504 25.9451 7.02504C25.9601 7.04504 25.9751 7.06504 25.9901 7.08004C26.0001 7.09504 26.0051 7.10504 26.0151 7.12004C26.0251 7.13004 26.0301 7.14004 26.0401 7.15004C26.0551 7.17504 26.0701 7.20004 26.0851 7.22504C26.1151 7.26004 26.1401 7.29504 26.1651 7.33004C26.1901 7.36504 26.2151 7.40504 26.2401 7.45504C26.2701 7.49504 26.2951 7.53504 26.3151 7.58004C26.3351 7.62004 26.3451 7.66504 26.3551 7.70504C26.3651 7.74504 26.3651 7.78504 26.3551 7.83004C26.3451 7.87504 26.3251 7.91004 26.2951 7.94504C26.2551 7.98004 26.2001 7.99504 26.1351 7.99504C26.1051 7.99504 26.0751 7.99504 26.0451 7.98504C26.0201 7.98004 25.9901 7.96504 25.9551 7.95504C25.9251 7.94004 25.9001 7.92004 25.8801 7.90004C25.8601 7.88004 25.8351 7.86504 25.8151 7.84504C25.7901 7.82004 25.7651 7.79004 25.7401 7.76004C25.7151 7.73004 25.6951 7.70004 25.6701 7.67504C25.6451 7.65004 25.6251 7.62004 25.6051 7.59004C25.5851 7.56004 25.5601 7.53004 25.5401 7.49504C25.5101 7.46504 25.4751 7.42004 25.4351 7.37004C25.4201 7.34504 25.4001 7.32004 25.3751 7.30504C25.3551 7.28504 25.3351 7.27004 25.3151 7.25004C25.3001 7.27504 25.2801 7.29504 25.2651 7.31504C25.2501 7.33504 25.2301 7.36004 25.2151 7.38004C25.1951 7.40504 25.1751 7.42504 25.1601 7.44504C25.1451 7.46504 25.1251 7.48504 25.1101 7.51004C25.0951 7.54004 25.0751 7.56504 25.0501 7.59504C25.0301 7.62504 25.0051 7.65004 24.9851 7.67504C24.9701 7.70504 24.9501 7.73004 24.9251 7.76004C24.9001 7.79004 24.8801 7.81504 24.8501 7.84004C24.7951 7.89504 24.7401 7.93504 24.6901 7.96004C24.6401 7.98004 24.5901 7.99004 24.5351 7.99004H24.4951C24.4951 7.99004 24.4701 7.99004 24.4551 7.98004C24.3951 7.96504 24.3501 7.92504 24.3201 7.86504C24.3001 7.82004 24.2951 7.77504 24.3051 7.72504C24.3101 7.69504 24.3151 7.67004 24.3201 7.64504C24.3251 7.62004 24.3351 7.60004 24.3501 7.58504C24.3601 7.56004 24.3701 7.54004 24.3801 7.52004C24.3901 7.50004 24.4051 7.47504 24.4201 7.45504C24.4351 7.44004 24.4501 7.42004 24.4601 7.40004C24.4751 7.38004 24.4901 7.36004 24.5101 7.34004C24.5201 7.33004 24.5251 7.32004 24.5351 7.31004C24.5451 7.30004 24.5501 7.29004 24.5601 7.28004L24.6101 7.20504C24.6101 7.20504 24.6301 7.17004 24.6401 7.15504C24.6501 7.14004 24.6701 7.12004 24.6901 7.09004C24.7151 7.06504 24.7351 7.04004 24.7551 7.01004C24.7751 6.98504 24.7951 6.96004 24.8101 6.93504C24.8351 6.91004 24.8551 6.88504 24.8751 6.85504C24.8951 6.83004 24.9151 6.80504 24.9351 6.78004L24.9801 6.79504ZM27.3301 7.88004C27.3301 7.88004 27.3201 7.91504 27.3201 7.93004C27.3201 7.94504 27.3201 7.96504 27.3101 7.98004C27.3101 8.02504 27.3001 8.07504 27.2751 8.12504C27.2501 8.17504 27.2201 8.21504 27.1801 8.23504C27.1501 8.25004 27.1151 8.26004 27.0801 8.26504C27.0451 8.26504 27.0101 8.26504 26.9801 8.26504C26.9151 8.25004 26.8701 8.22004 26.8401 8.17004C26.8101 8.12504 26.7951 8.07004 26.7851 8.01504C26.7801 7.99004 26.7751 7.97004 26.7751 7.95004C26.7751 7.93004 26.7751 7.91004 26.7651 7.88504C26.7651 7.84504 26.7651 7.80004 26.7651 7.75004C26.7651 7.70004 26.7651 7.65004 26.7651 7.60004C26.7601 7.49504 26.7601 7.39004 26.7651 7.29004C26.7651 7.19004 26.7651 7.08504 26.7651 6.97504C26.7651 6.85004 26.7651 6.72504 26.7651 6.60504C26.7651 6.48004 26.7651 6.35504 26.7651 6.23004V5.04504C26.7651 5.04504 26.7751 5.00004 26.7801 4.98504C26.7801 4.97004 26.7851 4.95004 26.7951 4.93504C26.8051 4.92004 26.8101 4.90004 26.8151 4.89004C26.8201 4.87504 26.8301 4.86504 26.8451 4.85504C26.8601 4.84004 26.8751 4.83004 26.8901 4.82004C26.9051 4.81004 26.9251 4.80504 26.9401 4.80504C26.9551 4.80004 26.9751 4.79504 26.9901 4.79004C27.0051 4.79004 27.0251 4.79004 27.0401 4.79004C27.0901 4.79004 27.1351 4.80504 27.1751 4.83504C27.2201 4.86004 27.2501 4.90004 27.2651 4.95004C27.2951 5.00504 27.3101 5.07004 27.3101 5.13504C27.3151 5.22504 27.3201 5.31004 27.3201 5.39504V5.65504C27.3301 5.77504 27.3301 5.89504 27.3201 6.01504V7.89004L27.3301 7.88004Z" fill="white"/>
<path d="M30.5847 7.4698C30.5847 7.4698 30.5997 7.4698 30.6097 7.4698C30.6197 7.4698 30.6247 7.4698 30.6347 7.4698C30.6847 7.4748 30.7297 7.4848 30.7697 7.4998C30.8097 7.5148 30.8497 7.5398 30.8947 7.5748C30.9347 7.6098 30.9547 7.6598 30.9547 7.7198C30.9547 7.7498 30.9497 7.7848 30.9397 7.8198C30.9297 7.8548 30.9147 7.8848 30.8997 7.9048C30.8747 7.9298 30.8497 7.9448 30.8147 7.9548C30.7797 7.9648 30.7497 7.9748 30.7147 7.9798C30.6797 7.9798 30.6547 7.9848 30.6297 7.9848H28.2247C28.2247 7.9848 28.1947 7.9848 28.1847 7.9848C28.1697 7.9848 28.1597 7.9848 28.1447 7.9848C28.0797 7.9848 28.0147 7.9848 27.9447 7.9848C27.8747 7.9848 27.8197 7.9598 27.7697 7.9198C27.7097 7.8648 27.6797 7.8048 27.6797 7.7348C27.6797 7.6898 27.6947 7.6498 27.7197 7.5998C27.7447 7.5548 27.7797 7.5198 27.8247 7.5048C27.8797 7.4798 27.9397 7.4698 28.0047 7.4698C28.0697 7.4698 28.1297 7.4698 28.1897 7.4698H28.2097C28.2447 7.4698 28.2897 7.4698 28.3397 7.4698C28.3897 7.4698 28.4347 7.4698 28.4747 7.4698C28.4747 7.4398 28.4747 7.4098 28.4747 7.3798C28.4747 7.3548 28.4747 7.3298 28.4747 7.3098C28.4747 7.2848 28.4747 7.2648 28.4747 7.2498V7.0698C28.4347 7.0698 28.3947 7.0698 28.3497 7.0698C28.3047 7.0698 28.2697 7.0698 28.2247 7.0698C28.1647 7.0648 28.1147 7.0348 28.0747 6.9798C28.0347 6.9248 28.0097 6.8598 28.0047 6.7848C28.0047 6.7598 27.9997 6.7148 27.9997 6.6598C27.9997 6.5998 27.9997 6.5398 27.9997 6.4798C27.9997 6.4198 27.9997 6.3598 27.9997 6.3048V6.0848C27.9997 6.0498 27.9997 6.0148 27.9997 5.9748C27.9997 5.9348 28.0197 5.8998 28.0447 5.8698C28.0797 5.8198 28.1347 5.7898 28.1997 5.7748C28.2647 5.7598 28.3297 5.7548 28.3947 5.7548C28.4097 5.7548 28.4347 5.7548 28.4647 5.7548C28.4997 5.7548 28.5247 5.7548 28.5447 5.7548H30.1547V5.4398H28.4997C28.4997 5.4398 28.4697 5.4398 28.4547 5.4398C28.4397 5.4398 28.4197 5.4398 28.4097 5.4398C28.3947 5.4398 28.3747 5.4398 28.3547 5.4398C28.3347 5.4398 28.3197 5.4398 28.2997 5.4398C28.2397 5.4398 28.1897 5.4348 28.1547 5.4248C28.1047 5.4148 28.0647 5.3798 28.0347 5.3248C28.0147 5.2898 28.0047 5.2548 27.9997 5.2148C27.9997 5.1748 27.9997 5.1348 28.0047 5.0948C28.0197 5.0448 28.0497 5.0048 28.1047 4.9798C28.1547 4.9548 28.1997 4.9398 28.2297 4.9348C28.2547 4.9298 28.2747 4.9248 28.2947 4.9248H28.5147C28.5597 4.9248 28.6147 4.9248 28.6847 4.9248C28.7497 4.9248 28.8247 4.9248 28.8997 4.9248C28.9747 4.9248 29.0497 4.9248 29.1247 4.9248C29.1997 4.9248 29.2697 4.9248 29.3347 4.9248H30.2047C30.2547 4.9248 30.2997 4.9248 30.3497 4.9248C30.3997 4.9248 30.4447 4.9348 30.4897 4.9498C30.5247 4.9598 30.5497 4.9748 30.5747 4.9998C30.5947 5.0248 30.6147 5.0548 30.6247 5.0898C30.6347 5.1248 30.6447 5.1598 30.6497 5.1948C30.6497 5.2298 30.6547 5.2648 30.6547 5.2948V5.8148C30.6547 5.8148 30.6547 5.8698 30.6497 5.9048C30.6497 5.9398 30.6397 5.9798 30.6297 6.0198C30.6197 6.0598 30.6097 6.0998 30.5947 6.1348C30.5797 6.1698 30.5597 6.1948 30.5347 6.2098C30.4947 6.2348 30.4547 6.2448 30.4197 6.2498C30.3847 6.2498 30.3447 6.2548 30.3147 6.2498H28.5297V6.5848H30.3947C30.3947 6.5848 30.4447 6.5848 30.4647 6.5848C30.5097 6.5848 30.5447 6.5998 30.5847 6.6198C30.6197 6.6398 30.6447 6.6748 30.6597 6.7248C30.6747 6.7798 30.6697 6.8398 30.6547 6.8948C30.6347 6.9498 30.5997 6.9898 30.5497 7.0148C30.5147 7.0298 30.4797 7.0398 30.4447 7.0448C30.4097 7.0448 30.3747 7.0498 30.3447 7.0498H30.1397C30.1397 7.1248 30.1397 7.1898 30.1397 7.2448C30.1397 7.2998 30.1397 7.3698 30.1397 7.4598H30.3047C30.3547 7.4598 30.4047 7.4598 30.4547 7.4598C30.5047 7.4598 30.5497 7.4598 30.5947 7.4598L30.5847 7.4698ZM29.4997 7.4698H29.5947C29.5947 7.4398 29.5947 7.4098 29.5947 7.3798C29.5947 7.3498 29.5947 7.3248 29.5947 7.3048C29.5947 7.2798 29.5947 7.2598 29.5947 7.2448V7.0648H29.0047C29.0047 7.1398 29.0047 7.2048 29.0047 7.2598C29.0047 7.3148 29.0047 7.3848 29.0047 7.4748H29.4997V7.4698Z" fill="white"/>
<path d="M32.8404 4.9749C32.9554 4.9749 33.0604 4.9849 33.1404 5.0049C33.2254 5.0249 33.2904 5.0749 33.3404 5.1599C33.3854 5.2349 33.3954 5.3149 33.3604 5.3899C33.3204 5.4699 33.2504 5.5199 33.1454 5.5299C33.0754 5.5399 32.9954 5.5499 32.9104 5.5499C32.8204 5.5499 32.7054 5.5499 32.5604 5.5449C32.5604 5.5949 32.5604 5.6449 32.5604 5.6999V5.8449C32.5604 5.8899 32.5604 5.9299 32.5604 5.9599C32.5604 5.9899 32.5604 6.0099 32.5604 6.0199V6.4999C32.5604 6.4999 32.5604 6.5549 32.5604 6.5949C32.5604 6.6349 32.5654 6.6649 32.5704 6.6849C32.5954 6.7099 32.6254 6.7399 32.6654 6.7849C32.7054 6.8299 32.7354 6.8649 32.7604 6.8949C32.7904 6.9299 32.8204 6.9649 32.8504 7.0049C32.8804 7.0399 32.9104 7.0849 32.9404 7.1299C32.9654 7.1549 32.9854 7.1799 33.0004 7.2099C33.0154 7.2349 33.0354 7.2599 33.0454 7.2799C33.1004 7.3549 33.1554 7.4399 33.2154 7.5349C33.2704 7.6249 33.3104 7.7199 33.3304 7.8099C33.3404 7.8499 33.3404 7.8949 33.3304 7.9399C33.3254 7.9849 33.3004 8.0249 33.2704 8.0599C33.2204 8.1049 33.1654 8.1249 33.1054 8.1249C33.0404 8.1249 32.9754 8.1049 32.9154 8.0699C32.8554 8.0349 32.8054 7.9949 32.7704 7.9549C32.7154 7.8999 32.6654 7.8349 32.6154 7.7749C32.5704 7.7099 32.5204 7.6499 32.4754 7.5899C32.4454 7.5449 32.4104 7.4999 32.3754 7.4549C32.3404 7.4099 32.3054 7.3649 32.2704 7.3249C32.2654 7.3149 32.2604 7.3049 32.2554 7.3049C32.2404 7.3299 32.2254 7.3499 32.2054 7.3699C32.1854 7.3899 32.1704 7.4149 32.1554 7.4349C32.1304 7.4599 32.1104 7.4849 32.0954 7.5149C32.0754 7.5399 32.0604 7.5699 32.0404 7.5949C32.0004 7.6549 31.9604 7.7149 31.9204 7.7749C31.8804 7.8349 31.8354 7.8899 31.7804 7.9399C31.6554 8.0649 31.5404 8.1249 31.4304 8.1249C31.4004 8.1249 31.3754 8.1249 31.3504 8.1099C31.2854 8.0949 31.2404 8.0549 31.2154 7.9899C31.1904 7.9399 31.1854 7.8899 31.1904 7.8299C31.1954 7.7749 31.2104 7.7199 31.2304 7.6799C31.2554 7.6299 31.2804 7.5849 31.3054 7.5399C31.3354 7.4949 31.3654 7.4549 31.3954 7.4099C31.4154 7.3849 31.4354 7.3599 31.4554 7.3299C31.4754 7.3049 31.4904 7.2799 31.5054 7.2549C31.5304 7.2099 31.5654 7.1599 31.6104 7.0999C31.6554 7.0399 31.7004 6.9849 31.7454 6.9299C31.7904 6.8749 31.8304 6.8249 31.8704 6.7749C31.9054 6.7299 31.9354 6.6949 31.9454 6.6749V5.5399H31.6854C31.5754 5.5399 31.5004 5.5399 31.4604 5.5399C31.4204 5.5399 31.3904 5.5399 31.3704 5.5299C31.2604 5.5149 31.1904 5.4499 31.1504 5.3449C31.1204 5.2549 31.1304 5.1749 31.1854 5.1049C31.2354 5.0349 31.3004 4.9949 31.3904 4.9749C31.4054 4.9749 31.4204 4.9749 31.4354 4.9699C31.4504 4.9699 31.4654 4.9699 31.4804 4.9699C31.5104 4.9699 31.5304 4.9699 31.5404 4.9699H32.8404V4.9749ZM34.2904 7.8749C34.2854 7.9099 34.2804 7.9449 34.2754 7.9749C34.2754 8.0099 34.2654 8.0399 34.2554 8.0749C34.2504 8.0849 34.2454 8.0949 34.2404 8.1049C34.2404 8.1149 34.2354 8.1249 34.2254 8.1349C34.2054 8.1749 34.1804 8.2049 34.1504 8.2299C34.0854 8.2699 34.0104 8.2799 33.9304 8.2599C33.8854 8.2499 33.8454 8.2349 33.8204 8.2099C33.7954 8.1849 33.7754 8.1599 33.7604 8.1199C33.7454 8.0849 33.7354 8.0499 33.7304 8.0149C33.7254 7.9799 33.7204 7.9499 33.7204 7.9249V5.1549C33.7204 5.1149 33.7204 5.0749 33.7304 5.0349C33.7354 4.9949 33.7454 4.9599 33.7554 4.9249C33.7654 4.8899 33.7804 4.8649 33.8004 4.8449C33.8304 4.8149 33.8654 4.7949 33.9004 4.7849C33.9354 4.7799 33.9704 4.7749 34.0104 4.7749C34.0604 4.7749 34.1054 4.7899 34.1454 4.8149C34.1854 4.8399 34.2154 4.8799 34.2354 4.9299C34.2604 4.9899 34.2754 5.0549 34.2804 5.1199C34.2804 5.1849 34.2854 5.2499 34.2904 5.3199V5.3399C34.2954 5.5599 34.2954 5.7899 34.2904 6.0199C34.2904 6.2499 34.2904 6.4699 34.2904 6.6799V7.7199C34.2904 7.7449 34.2904 7.7699 34.2904 7.7999C34.2904 7.8249 34.2904 7.8499 34.2904 7.8749Z" fill="white"/>
<path d="M35.8397 4.74512C35.9847 4.75512 36.1197 4.77512 36.2397 4.81012C36.3597 4.84512 36.4597 4.89512 36.5397 4.96512C36.6197 5.03012 36.6847 5.11012 36.7247 5.20512C36.7647 5.30012 36.7797 5.40512 36.7697 5.53012C36.7497 5.73512 36.6597 5.89512 36.4997 6.01012C36.3397 6.12012 36.1197 6.18012 35.8447 6.18012C35.7697 6.18012 35.6997 6.18012 35.6297 6.18012C35.5647 6.18012 35.4947 6.17512 35.4297 6.16512C35.3647 6.16012 35.2997 6.14512 35.2347 6.13012C35.1697 6.11512 35.1047 6.09012 35.0397 6.05512C34.9147 5.99012 34.8297 5.90012 34.7847 5.79512C34.7397 5.68512 34.7197 5.58012 34.7197 5.46512C34.7197 5.22012 34.8147 5.03512 35.0097 4.92512C35.2047 4.81012 35.4797 4.75512 35.8347 4.75512L35.8397 4.74512ZM36.0997 6.86512C36.0997 6.99512 36.0997 7.10512 36.0797 7.19512C36.0647 7.28512 36.0247 7.35512 35.9547 7.39512C35.9197 7.41512 35.8797 7.42512 35.8347 7.43012C35.7897 7.43012 35.7497 7.43012 35.7047 7.42012C35.6647 7.41012 35.6297 7.39012 35.5997 7.36512C35.5697 7.34012 35.5547 7.31012 35.5497 7.27512C35.5447 7.24012 35.5397 7.18012 35.5397 7.10512C35.5397 7.03012 35.5397 6.94512 35.5397 6.85512C35.4697 6.85512 35.3797 6.85012 35.2797 6.84512C35.1797 6.84512 35.0897 6.84012 35.0197 6.84012C34.9797 6.83512 34.9397 6.83012 34.8997 6.82012C34.8597 6.81512 34.8247 6.79012 34.7897 6.75512C34.7547 6.72012 34.7397 6.67012 34.7397 6.60512C34.7397 6.54512 34.7547 6.49512 34.7897 6.45512C34.8097 6.43012 34.8347 6.41512 34.8647 6.40512C34.8947 6.39512 34.9247 6.38512 34.9547 6.38012C34.9847 6.37512 35.0097 6.37012 35.0297 6.37012H36.5347C36.5897 6.36512 36.6497 6.36512 36.7147 6.37012C36.7747 6.37512 36.8297 6.40012 36.8697 6.44012C36.9247 6.49512 36.9497 6.55512 36.9497 6.62512C36.9497 6.67012 36.9397 6.71012 36.9147 6.74512C36.8897 6.78012 36.8597 6.80512 36.8197 6.82012C36.7697 6.84512 36.7097 6.85512 36.6497 6.86512C36.5897 6.87012 36.5297 6.87012 36.4747 6.86512H36.0947H36.0997ZM37.6547 7.77512C37.6547 7.77512 37.6697 7.77512 37.6847 7.78512C37.6997 7.79012 37.7197 7.80012 37.7447 7.81512C37.7697 7.83012 37.7847 7.84512 37.8047 7.86512C37.8247 7.88512 37.8347 7.91012 37.8397 7.94012C37.8547 8.05012 37.8397 8.13512 37.7897 8.19512C37.7597 8.23512 37.7247 8.26012 37.6847 8.27012C37.6497 8.28012 37.6297 8.28512 37.6247 8.28512H35.3797C35.2697 8.28512 35.1847 8.26512 35.1197 8.23012C35.0547 8.19512 35.0247 8.14512 35.0247 8.07512V7.69012C35.0197 7.62512 35.0197 7.56012 35.0247 7.49512C35.0297 7.43512 35.0547 7.38512 35.0947 7.35012C35.1347 7.31512 35.1847 7.29512 35.2447 7.29512C35.2597 7.29512 35.2797 7.29512 35.3047 7.29512C35.3297 7.29512 35.3497 7.30012 35.3647 7.30512C35.3997 7.31512 35.4297 7.33512 35.4497 7.35512C35.4697 7.38012 35.4847 7.40512 35.4947 7.43512C35.5047 7.46512 35.5147 7.49512 35.5147 7.53012C35.5147 7.56512 35.5197 7.59512 35.5247 7.62512C35.5247 7.65012 35.5247 7.67012 35.5247 7.69512C35.5247 7.72012 35.5297 7.74012 35.5397 7.76012C35.5447 7.76012 35.5697 7.76512 35.6197 7.77012C35.6647 7.77012 35.7397 7.77512 35.8397 7.77512C35.9247 7.77512 36.0047 7.77512 36.0697 7.77512C36.1347 7.77512 36.1697 7.77512 36.1747 7.77512H37.6497H37.6547ZM36.2097 5.55012C36.2247 5.46512 36.2097 5.39512 36.1597 5.34012C36.1147 5.28512 36.0447 5.24512 35.9497 5.21512C35.8897 5.20012 35.8197 5.18512 35.7447 5.18512C35.6697 5.18512 35.5947 5.18512 35.5247 5.20012C35.4547 5.21512 35.3947 5.24012 35.3397 5.27512C35.2897 5.31012 35.2547 5.36012 35.2447 5.42512C35.2297 5.51012 35.2447 5.58512 35.3047 5.65012C35.3597 5.71512 35.4697 5.75012 35.6397 5.76512C35.6947 5.77012 35.7547 5.77512 35.8147 5.77512C35.8747 5.77512 35.9297 5.77012 35.9847 5.75512C36.0397 5.74012 36.0847 5.72012 36.1247 5.69512C36.1647 5.67012 36.1897 5.63012 36.2047 5.57512V5.55012H36.2097ZM37.7547 6.95512C37.7547 6.95512 37.7497 6.99512 37.7447 7.02012C37.7447 7.04512 37.7347 7.07512 37.7297 7.10512C37.7297 7.13512 37.7197 7.16012 37.7147 7.18512C37.7097 7.21012 37.7047 7.23012 37.6997 7.24512C37.6847 7.28012 37.6647 7.31012 37.6297 7.34012C37.5997 7.36012 37.5647 7.37012 37.5297 7.37512C37.4947 7.37512 37.4597 7.37512 37.4297 7.37512C37.4097 7.37012 37.3897 7.36512 37.3747 7.36012C37.3597 7.36012 37.3447 7.35012 37.3297 7.33512C37.2547 7.25512 37.2197 7.15012 37.2247 7.01012L37.2347 6.17512C37.1297 6.17512 37.0347 6.16512 36.9447 6.15012C36.8547 6.13512 36.7897 6.10012 36.7547 6.05512C36.7347 6.02512 36.7247 5.99512 36.7247 5.95512C36.7247 5.91512 36.7347 5.88012 36.7497 5.84512C36.7647 5.81012 36.7897 5.78012 36.8197 5.75512C36.8497 5.73012 36.8797 5.71512 36.9147 5.71512C36.9497 5.71512 36.9947 5.71512 37.0547 5.71512C37.1097 5.71512 37.1747 5.71512 37.2397 5.71512V5.13512C37.2397 5.09512 37.2397 5.05512 37.2447 5.01512C37.2497 4.97512 37.2547 4.94012 37.2697 4.90512C37.2797 4.87012 37.2947 4.84512 37.3147 4.82512C37.3447 4.79512 37.3797 4.77512 37.4097 4.77012C37.4397 4.76512 37.4747 4.76012 37.5097 4.76012C37.6097 4.76012 37.6797 4.81012 37.7147 4.90512C37.7397 4.97012 37.7497 5.03012 37.7547 5.09512C37.7547 5.16012 37.7597 5.22512 37.7647 5.29012V5.31012C37.7697 5.53012 37.7697 5.74512 37.7647 5.96012C37.7647 6.17512 37.7647 6.38512 37.7647 6.58512V6.97012L37.7547 6.95512Z" fill="white"/>
<path d="M39.4595 7.49502C39.4595 7.46002 39.4595 7.42502 39.4595 7.39002V6.66502C39.3795 6.66502 39.3045 6.66502 39.2345 6.66502C39.1645 6.66502 39.0995 6.66502 39.0495 6.66002H38.6895C38.6095 6.66002 38.5345 6.65502 38.4595 6.64002C38.3895 6.62502 38.3195 6.59002 38.2545 6.53002C38.2095 6.49002 38.1845 6.44502 38.1695 6.40002C38.1545 6.35502 38.1695 6.30502 38.1995 6.25502C38.2395 6.19502 38.2895 6.15502 38.3495 6.13502C38.4095 6.11502 38.4695 6.10502 38.5345 6.09502C38.5695 6.09002 38.5995 6.08502 38.6145 6.08502C38.6295 6.08502 38.6545 6.08502 38.6945 6.08502H39.4595V5.77502C39.4595 5.70502 39.4595 5.64502 39.4495 5.59502C39.4495 5.58002 39.4445 5.56002 39.4395 5.53502C39.4395 5.51002 39.4245 5.49502 39.4095 5.49002C39.3945 5.48002 39.3795 5.48002 39.3595 5.48002C39.3395 5.48002 39.3245 5.48002 39.3045 5.48002C39.2845 5.48002 39.2645 5.48002 39.2445 5.48002C39.2245 5.48002 39.2045 5.48002 39.1845 5.48002H38.8495C38.7995 5.48002 38.7545 5.48002 38.7045 5.48002C38.6545 5.48002 38.6095 5.48002 38.5595 5.48002C38.5345 5.48002 38.5145 5.48002 38.4995 5.48002C38.4795 5.48002 38.4595 5.48002 38.4395 5.48002C38.4095 5.48002 38.3745 5.48002 38.3395 5.48002C38.3045 5.48002 38.2745 5.46502 38.2445 5.44502C38.2045 5.41502 38.1795 5.38002 38.1645 5.33502C38.1495 5.29002 38.1445 5.24502 38.1445 5.20002C38.1445 5.14502 38.1545 5.09002 38.1795 5.03502C38.1945 5.00002 38.2145 4.97502 38.2345 4.96002C38.2495 4.94502 38.2695 4.93502 38.2945 4.92502C38.3195 4.91502 38.3445 4.90502 38.3645 4.90002C38.4245 4.88502 38.4895 4.88002 38.5545 4.87502C38.6195 4.87502 38.6845 4.87502 38.7495 4.87502H39.6295C39.6645 4.88002 39.7045 4.88502 39.7495 4.89002C39.7895 4.89002 39.8295 4.90502 39.8645 4.92002C39.8895 4.93002 39.9095 4.94002 39.9295 4.95502C39.9495 4.97002 39.9695 4.98502 39.9845 5.00502C40.0095 5.04502 40.0245 5.08502 40.0295 5.12502C40.0345 5.16502 40.0395 5.21002 40.0445 5.26002C40.0495 5.34002 40.0545 5.42002 40.0545 5.50002V7.19002C40.0545 7.19002 40.0545 7.21502 40.0545 7.25502C40.0545 7.29502 40.0545 7.34502 40.0545 7.40002V7.57502C40.0545 7.63502 40.0545 7.69002 40.0545 7.73502C40.0545 7.76502 40.0495 7.79502 40.0395 7.82502C40.0345 7.85502 40.0245 7.88502 40.0095 7.91502C39.9945 7.94502 39.9795 7.97002 39.9545 7.99002C39.9295 8.01502 39.8995 8.03002 39.8645 8.04502C39.8145 8.06502 39.7695 8.07502 39.7195 8.07502C39.6845 8.07502 39.6445 8.06502 39.6095 8.05002C39.5745 8.03502 39.5445 8.01002 39.5345 7.98002C39.4895 7.89002 39.4645 7.78502 39.4645 7.67502V7.48502L39.4595 7.49502ZM41.2295 6.11502C41.2295 6.11502 41.2595 6.11502 41.2695 6.11502C41.2845 6.11502 41.2945 6.11502 41.3095 6.11502C41.3245 6.11502 41.3395 6.12002 41.3545 6.12002C41.3695 6.12002 41.3895 6.12002 41.4045 6.12502C41.4345 6.13002 41.4695 6.14002 41.4995 6.15502C41.5295 6.17002 41.5545 6.19502 41.5695 6.22502C41.5895 6.25502 41.5995 6.29502 41.5995 6.33502C41.5995 6.36002 41.5995 6.38002 41.5995 6.39502C41.5995 6.41502 41.5945 6.43502 41.5895 6.45502C41.5845 6.48002 41.5795 6.50002 41.5695 6.53002C41.5645 6.55502 41.5495 6.57502 41.5295 6.59002C41.4895 6.62002 41.4495 6.63502 41.4145 6.64502C41.3695 6.65002 41.3145 6.65002 41.2445 6.64502C41.1795 6.64502 41.1245 6.64502 41.0745 6.64502C41.0745 6.64502 41.0695 6.64502 41.0645 6.64502H41.0545V7.20502C41.0595 7.35502 41.0595 7.50002 41.0545 7.64502V7.70502C41.0545 7.74002 41.0545 7.78502 41.0545 7.83002C41.0545 7.87502 41.0495 7.92002 41.0445 7.96002C41.0395 8.00502 41.0295 8.04502 41.0145 8.08502C40.9995 8.12502 40.9795 8.15502 40.9545 8.18002C40.9195 8.22002 40.8745 8.24002 40.8145 8.24002H40.8045C40.7345 8.23502 40.6795 8.21502 40.6395 8.17502C40.5995 8.14002 40.5645 8.09002 40.5445 8.03502C40.5245 7.98002 40.5095 7.92502 40.5045 7.86502C40.4995 7.80502 40.4945 7.75502 40.4945 7.71002V5.11002C40.4945 5.11002 40.4945 5.05502 40.5045 5.02502C40.5095 4.99002 40.5195 4.96002 40.5345 4.92002C40.5495 4.88502 40.5645 4.85502 40.5895 4.83002C40.6095 4.81002 40.6395 4.79502 40.6795 4.78502C40.7195 4.77502 40.7545 4.77002 40.7845 4.77002C40.8495 4.77002 40.8995 4.79002 40.9445 4.83502C40.9845 4.87502 41.0095 4.92002 41.0145 4.96002C41.0195 5.00502 41.0295 5.05002 41.0345 5.10002C41.0345 5.11002 41.0345 5.13002 41.0345 5.15002C41.0395 5.20002 41.0445 5.25002 41.0445 5.30002C41.0445 5.35002 41.0445 5.40502 41.0495 5.45502C41.0495 5.48502 41.0495 5.51502 41.0495 5.55002C41.0495 5.58002 41.0495 5.61002 41.0495 5.64502C41.0495 5.66002 41.0495 5.68002 41.0495 5.69502C41.0495 5.71002 41.0495 5.72502 41.0495 5.74002V6.03002C41.0495 6.03002 41.0495 6.06502 41.0595 6.07502C41.0595 6.07502 41.0745 6.07502 41.1045 6.07502H41.1495C41.1745 6.08002 41.1945 6.08002 41.2095 6.07502H41.2195L41.2295 6.11502Z" fill="white"/>
<path d="M42.0546 7.97012C42.0096 7.97012 41.9646 7.96012 41.9196 7.95012C41.8746 7.94012 41.8346 7.92512 41.7996 7.90512C41.7646 7.88512 41.7396 7.86012 41.7146 7.82512C41.6946 7.79012 41.6846 7.74512 41.6846 7.68512C41.6846 7.62512 41.7046 7.57512 41.7396 7.53512C41.7646 7.51012 41.7896 7.49512 41.8246 7.48512C41.8596 7.47512 41.8896 7.46512 41.9246 7.46012C41.9546 7.45512 41.9846 7.45012 42.0096 7.45012H44.3996C44.4746 7.45012 44.5396 7.45512 44.6046 7.45512C44.6646 7.45512 44.7196 7.47512 44.7696 7.51512C44.8296 7.57012 44.8596 7.63012 44.8596 7.70012C44.8596 7.74512 44.8446 7.78012 44.8196 7.82012C44.7946 7.86012 44.7596 7.88012 44.7146 7.89512C44.6596 7.92012 44.5996 7.93512 44.5346 7.94012C44.4746 7.95012 44.4146 7.95512 44.3496 7.95512C44.1396 7.96512 43.9346 7.96512 43.7296 7.96512C43.5246 7.96512 43.3296 7.96512 43.1346 7.96512C42.9296 7.96512 42.7246 7.96512 42.5296 7.96512C42.3346 7.96512 42.1696 7.96512 42.0396 7.96512L42.0546 7.97012ZM44.4596 6.44512C44.4896 6.46012 44.5146 6.48512 44.5346 6.51512C44.5546 6.55012 44.5646 6.58012 44.5746 6.61012C44.5896 6.67512 44.5746 6.73012 44.5296 6.78012C44.4896 6.83012 44.4396 6.86512 44.3846 6.89012C44.3296 6.91512 44.2696 6.93512 44.2046 6.94512C44.1396 6.95512 44.0796 6.96012 44.0096 6.96012H43.8246C43.5946 6.96012 43.3646 6.96012 43.1296 6.96512C42.8946 6.96512 42.6646 6.96512 42.4296 6.96512C42.3896 6.96512 42.3496 6.96512 42.3046 6.96012C42.2596 6.96012 42.2196 6.94512 42.1796 6.93512C42.1396 6.92012 42.1046 6.90512 42.0696 6.87512C42.0346 6.85012 42.0096 6.81512 41.9896 6.77512C41.9646 6.72512 41.9446 6.66512 41.9346 6.60012C41.9246 6.53512 41.9196 6.46512 41.9146 6.39512C41.9146 6.32512 41.9146 6.25512 41.9146 6.18512C41.9146 6.11512 41.9146 6.05512 41.9146 6.00012V5.58012C41.9146 5.58012 41.9146 5.55512 41.9146 5.51512C41.9146 5.48012 41.9146 5.43512 41.9146 5.39012C41.9146 5.34512 41.9196 5.29512 41.9296 5.24512C41.9346 5.19512 41.9496 5.15012 41.9746 5.12012C41.9896 5.09012 42.0196 5.07012 42.0546 5.05012C42.0896 5.03512 42.1296 5.02012 42.1696 5.01012C42.2096 5.00012 42.2446 4.99512 42.2746 4.99512C42.3046 4.99512 42.3246 4.99512 42.3346 4.99512H44.0546C44.0546 4.99512 44.0796 4.99512 44.1246 4.99512C44.1696 4.99512 44.2146 5.00012 44.2646 5.01012C44.3146 5.02012 44.3646 5.03512 44.4146 5.05512C44.4646 5.08012 44.4946 5.11012 44.5096 5.16012C44.5096 5.17512 44.5146 5.20012 44.5196 5.22012C44.5196 5.24512 44.5196 5.27012 44.5196 5.29512C44.5196 5.32012 44.5196 5.34512 44.5146 5.37012C44.5146 5.39512 44.5046 5.41012 44.4996 5.42012C44.4896 5.44012 44.4696 5.45512 44.4396 5.47012C44.4096 5.48512 44.3846 5.49012 44.3646 5.50012C44.3396 5.50512 44.3046 5.51012 44.2646 5.51512C44.2246 5.52012 44.1796 5.52512 44.1246 5.52512H43.9896C43.8796 5.52012 43.7746 5.51512 43.6846 5.51512C43.5946 5.51512 43.4996 5.51512 43.4096 5.51512C43.3196 5.51512 43.2246 5.51512 43.1296 5.51512C43.0346 5.51512 42.9196 5.51512 42.7896 5.52012C42.7646 5.52012 42.7396 5.52012 42.7146 5.52012C42.6896 5.52012 42.6596 5.52012 42.6346 5.52012C42.6096 5.52012 42.5846 5.53012 42.5596 5.53512C42.5346 5.54012 42.5246 5.56012 42.5196 5.58012C42.5096 5.63012 42.5046 5.69012 42.5046 5.76012C42.5046 5.83012 42.5046 5.89512 42.5046 5.94512C42.5046 5.96512 42.5046 5.99512 42.5046 6.03512C42.5046 6.07512 42.5046 6.11512 42.5046 6.16012C42.5046 6.20512 42.5096 6.24512 42.5196 6.28012C42.5296 6.31512 42.5446 6.34012 42.5646 6.35512C42.5896 6.37012 42.6196 6.37512 42.6546 6.37512H42.7446C42.9746 6.38512 43.2046 6.38512 43.4346 6.38012C43.6596 6.38012 43.8896 6.37512 44.1146 6.37512C44.2546 6.37512 44.3696 6.39512 44.4646 6.44012L44.4596 6.44512Z" fill="white"/>
</g>
<defs>
<clipPath id="clip0_6542_20434">
<rect width="114" height="72" fill="white"/>
</clipPath>
</defs>
</svg>
