<svg width="114" height="72" viewBox="0 0 114 72" fill="none" xmlns="http://www.w3.org/2000/svg">
<g clip-path="url(#clip0_6542_40035)">
<path d="M113.751 67.7791C113.751 69.9738 111.979 71.7515 109.794 71.7515H4.20667C2.02125 71.7515 0.249023 69.9738 0.249023 67.7791V4.22046C0.249023 2.0257 2.02125 0.248047 4.20667 0.248047H109.789C111.974 0.248047 113.746 2.0257 113.746 4.22046V67.7791H113.751Z" fill="white" stroke="#B5B5B5" stroke-miterlimit="10"/>
<path d="M12.3114 68.0024H3.77887C3.62216 68.0024 3.49512 68.1292 3.49512 68.2855V68.8565C3.49512 69.0128 3.62216 69.1395 3.77887 69.1395H12.3114C12.4682 69.1395 12.5952 69.0128 12.5952 68.8565V68.2855C12.5952 68.1292 12.4682 68.0024 12.3114 68.0024Z" fill="#B1B1B1"/>
<path d="M12.3114 65.7334H3.77887C3.62216 65.7334 3.49512 65.8601 3.49512 66.0164V66.5875C3.49512 66.7438 3.62216 66.8705 3.77887 66.8705H12.3114C12.4682 66.8705 12.5952 66.7438 12.5952 66.5875V66.0164C12.5952 65.8601 12.4682 65.7334 12.3114 65.7334Z" fill="#B1B1B1"/>
<path d="M12.3114 63.459H3.77887C3.62216 63.459 3.49512 63.5857 3.49512 63.742V64.3131C3.49512 64.4694 3.62216 64.5961 3.77887 64.5961H12.3114C12.4682 64.5961 12.5952 64.4694 12.5952 64.3131V63.742C12.5952 63.5857 12.4682 63.459 12.3114 63.459Z" fill="#76B72A"/>
<path d="M12.3114 61.1899H3.77887C3.62216 61.1899 3.49512 61.3167 3.49512 61.473V62.044C3.49512 62.2003 3.62216 62.327 3.77887 62.327H12.3114C12.4682 62.327 12.5952 62.2003 12.5952 62.044V61.473C12.5952 61.3167 12.4682 61.1899 12.3114 61.1899Z" fill="#B1B1B1"/>
<path d="M12.3114 58.9204H3.77887C3.62216 58.9204 3.49512 59.0471 3.49512 59.2034V59.7745C3.49512 59.9308 3.62216 60.0575 3.77887 60.0575H12.3114C12.4682 60.0575 12.5952 59.9308 12.5952 59.7745V59.2034C12.5952 59.0471 12.4682 58.9204 12.3114 58.9204Z" fill="#009EE2"/>
<path d="M12.3114 56.6514H3.77887C3.62216 56.6514 3.49512 56.7781 3.49512 56.9344V57.5054C3.49512 57.6618 3.62216 57.7885 3.77887 57.7885H12.3114C12.4682 57.7885 12.5952 57.6618 12.5952 57.5054V56.9344C12.5952 56.7781 12.4682 56.6514 12.3114 56.6514Z" fill="#B1B1B1"/>
<path d="M12.3114 54.3823H3.77887C3.62216 54.3823 3.49512 54.509 3.49512 54.6654V55.2364C3.49512 55.3927 3.62216 55.5194 3.77887 55.5194H12.3114C12.4682 55.5194 12.5952 55.3927 12.5952 55.2364V54.6654C12.5952 54.509 12.4682 54.3823 12.3114 54.3823Z" fill="#B1B1B1"/>
<path d="M12.3114 52.1128H3.77887C3.62216 52.1128 3.49512 52.2395 3.49512 52.3958V52.9669C3.49512 53.1232 3.62216 53.2499 3.77887 53.2499H12.3114C12.4682 53.2499 12.5952 53.1232 12.5952 52.9669V52.3958C12.5952 52.2395 12.4682 52.1128 12.3114 52.1128Z" fill="#009EE2"/>
<path d="M12.3114 49.8438H3.77887C3.62216 49.8438 3.49512 49.9705 3.49512 50.1268V50.6978C3.49512 50.8541 3.62216 50.9809 3.77887 50.9809H12.3114C12.4682 50.9809 12.5952 50.8541 12.5952 50.6978V50.1268C12.5952 49.9705 12.4682 49.8438 12.3114 49.8438Z" fill="#B1B1B1"/>
<path d="M31.9501 68.0024H23.4175C23.2608 68.0024 23.1338 68.1292 23.1338 68.2855V68.8565C23.1338 69.0128 23.2608 69.1395 23.4175 69.1395H31.9501C32.1068 69.1395 32.2339 69.0128 32.2339 68.8565V68.2855C32.2339 68.1292 32.1068 68.0024 31.9501 68.0024Z" fill="#EE7D00"/>
<path d="M31.9501 65.7334H23.4175C23.2608 65.7334 23.1338 65.8601 23.1338 66.0164V66.5875C23.1338 66.7438 23.2608 66.8705 23.4175 66.8705H31.9501C32.1068 66.8705 32.2339 66.7438 32.2339 66.5875V66.0164C32.2339 65.8601 32.1068 65.7334 31.9501 65.7334Z" fill="#B1B1B1"/>
<path d="M31.9501 63.459H23.4175C23.2608 63.459 23.1338 63.5857 23.1338 63.742V64.3131C23.1338 64.4694 23.2608 64.5961 23.4175 64.5961H31.9501C32.1068 64.5961 32.2339 64.4694 32.2339 64.3131V63.742C32.2339 63.5857 32.1068 63.459 31.9501 63.459Z" fill="#B1B1B1"/>
<path d="M31.9501 61.1899H23.4175C23.2608 61.1899 23.1338 61.3167 23.1338 61.473V62.044C23.1338 62.2003 23.2608 62.327 23.4175 62.327H31.9501C32.1068 62.327 32.2339 62.2003 32.2339 62.044V61.473C32.2339 61.3167 32.1068 61.1899 31.9501 61.1899Z" fill="#009EE2"/>
<path d="M31.9501 58.9204H23.4175C23.2608 58.9204 23.1338 59.0471 23.1338 59.2034V59.7745C23.1338 59.9308 23.2608 60.0575 23.4175 60.0575H31.9501C32.1068 60.0575 32.2339 59.9308 32.2339 59.7745V59.2034C32.2339 59.0471 32.1068 58.9204 31.9501 58.9204Z" fill="#B1B1B1"/>
<path d="M31.9501 56.6514H23.4175C23.2608 56.6514 23.1338 56.7781 23.1338 56.9344V57.5054C23.1338 57.6618 23.2608 57.7885 23.4175 57.7885H31.9501C32.1068 57.7885 32.2339 57.6618 32.2339 57.5054V56.9344C32.2339 56.7781 32.1068 56.6514 31.9501 56.6514Z" fill="#B1B1B1"/>
<path d="M31.9501 54.3823H23.4175C23.2608 54.3823 23.1338 54.509 23.1338 54.6654V55.2364C23.1338 55.3927 23.2608 55.5194 23.4175 55.5194H31.9501C32.1068 55.5194 32.2339 55.3927 32.2339 55.2364V54.6654C32.2339 54.509 32.1068 54.3823 31.9501 54.3823Z" fill="#76B72A"/>
<path d="M31.9501 52.1128H23.4175C23.2608 52.1128 23.1338 52.2395 23.1338 52.3958V52.9669C23.1338 53.1232 23.2608 53.2499 23.4175 53.2499H31.9501C32.1068 53.2499 32.2339 53.1232 32.2339 52.9669V52.3958C32.2339 52.2395 32.1068 52.1128 31.9501 52.1128Z" fill="#B1B1B1"/>
<path d="M31.9501 49.8438H23.4175C23.2608 49.8438 23.1338 49.9705 23.1338 50.1268V50.6978C23.1338 50.8541 23.2608 50.9809 23.4175 50.9809H31.9501C32.1068 50.9809 32.2339 50.8541 32.2339 50.6978V50.1268C32.2339 49.9705 32.1068 49.8438 31.9501 49.8438Z" fill="#B1B1B1"/>
<path d="M31.9501 47.5742H23.4175C23.2608 47.5742 23.1338 47.7009 23.1338 47.8573V48.4283C23.1338 48.5846 23.2608 48.7113 23.4175 48.7113H31.9501C32.1068 48.7113 32.2339 48.5846 32.2339 48.4283V47.8573C32.2339 47.7009 32.1068 47.5742 31.9501 47.5742Z" fill="#B1B1B1"/>
<path d="M31.9501 45.3052H23.4175C23.2608 45.3052 23.1338 45.4319 23.1338 45.5882V46.1592C23.1338 46.3156 23.2608 46.4423 23.4175 46.4423H31.9501C32.1068 46.4423 32.2339 46.3156 32.2339 46.1592V45.5882C32.2339 45.4319 32.1068 45.3052 31.9501 45.3052Z" fill="#B1B1B1"/>
<path d="M31.9501 43.0361H23.4175C23.2608 43.0361 23.1338 43.1629 23.1338 43.3192V43.8902C23.1338 44.0465 23.2608 44.1732 23.4175 44.1732H31.9501C32.1068 44.1732 32.2339 44.0465 32.2339 43.8902V43.3192C32.2339 43.1629 32.1068 43.0361 31.9501 43.0361Z" fill="#B1B1B1"/>
<path d="M22.1279 69.1348H13.5953C13.4386 69.1348 13.3115 69.2615 13.3115 69.4178V69.9888C13.3115 70.1452 13.4386 70.2719 13.5953 70.2719H22.1279C22.2846 70.2719 22.4116 70.1452 22.4116 69.9888V69.4178C22.4116 69.2615 22.2846 69.1348 22.1279 69.1348Z" fill="#B1B1B1"/>
<path d="M22.1279 66.8652H13.5953C13.4386 66.8652 13.3115 66.9919 13.3115 67.1483V67.7193C13.3115 67.8756 13.4386 68.0023 13.5953 68.0023H22.1279C22.2846 68.0023 22.4116 67.8756 22.4116 67.7193V67.1483C22.4116 66.9919 22.2846 66.8652 22.1279 66.8652Z" fill="#B1B1B1"/>
<path d="M22.1279 64.5962H13.5953C13.4386 64.5962 13.3115 64.7229 13.3115 64.8792V65.4503C13.3115 65.6066 13.4386 65.7333 13.5953 65.7333H22.1279C22.2846 65.7333 22.4116 65.6066 22.4116 65.4503V64.8792C22.4116 64.7229 22.2846 64.5962 22.1279 64.5962Z" fill="#EE7D00"/>
<path d="M22.1279 62.3271H13.5953C13.4386 62.3271 13.3115 62.4539 13.3115 62.6102V63.1812C13.3115 63.3375 13.4386 63.4643 13.5953 63.4643H22.1279C22.2846 63.4643 22.4116 63.3375 22.4116 63.1812V62.6102C22.4116 62.4539 22.2846 62.3271 22.1279 62.3271Z" fill="#B1B1B1"/>
<path d="M22.1279 60.0576H13.5953C13.4386 60.0576 13.3115 60.1843 13.3115 60.3407V60.9117C13.3115 61.068 13.4386 61.1947 13.5953 61.1947H22.1279C22.2846 61.1947 22.4116 61.068 22.4116 60.9117V60.3407C22.4116 60.1843 22.2846 60.0576 22.1279 60.0576Z" fill="#B1B1B1"/>
<path d="M22.1279 57.7886H13.5953C13.4386 57.7886 13.3115 57.9153 13.3115 58.0716V58.6426C13.3115 58.799 13.4386 58.9257 13.5953 58.9257H22.1279C22.2846 58.9257 22.4116 58.799 22.4116 58.6426V58.0716C22.4116 57.9153 22.2846 57.7886 22.1279 57.7886Z" fill="#009EE2"/>
<path d="M22.1279 55.519H13.5953C13.4386 55.519 13.3115 55.6458 13.3115 55.8021V56.3731C13.3115 56.5294 13.4386 56.6561 13.5953 56.6561H22.1279C22.2846 56.6561 22.4116 56.5294 22.4116 56.3731V55.8021C22.4116 55.6458 22.2846 55.519 22.1279 55.519Z" fill="#B1B1B1"/>
<path d="M22.1279 53.25H13.5953C13.4386 53.25 13.3115 53.3767 13.3115 53.533V54.1041C13.3115 54.2604 13.4386 54.3871 13.5953 54.3871H22.1279C22.2846 54.3871 22.4116 54.2604 22.4116 54.1041V53.533C22.4116 53.3767 22.2846 53.25 22.1279 53.25Z" fill="#76B72A"/>
<path d="M22.1279 50.9756H13.5953C13.4386 50.9756 13.3115 51.1023 13.3115 51.2586V51.8297C13.3115 51.986 13.4386 52.1127 13.5953 52.1127H22.1279C22.2846 52.1127 22.4116 51.986 22.4116 51.8297V51.2586C22.4116 51.1023 22.2846 50.9756 22.1279 50.9756Z" fill="#B1B1B1"/>
<path d="M22.1279 48.7065H13.5953C13.4386 48.7065 13.3115 48.8333 13.3115 48.9896V49.5606C13.3115 49.7169 13.4386 49.8436 13.5953 49.8436H22.1279C22.2846 49.8436 22.4116 49.7169 22.4116 49.5606V48.9896C22.4116 48.8333 22.2846 48.7065 22.1279 48.7065Z" fill="#B1B1B1"/>
<path d="M51.5839 68.0024H43.0513C42.8946 68.0024 42.7676 68.1292 42.7676 68.2855V68.8565C42.7676 69.0128 42.8946 69.1395 43.0513 69.1395H51.5839C51.7406 69.1395 51.8677 69.0128 51.8677 68.8565V68.2855C51.8677 68.1292 51.7406 68.0024 51.5839 68.0024Z" fill="#B1B1B1"/>
<path d="M51.5839 65.7334H43.0513C42.8946 65.7334 42.7676 65.8601 42.7676 66.0164V66.5875C42.7676 66.7438 42.8946 66.8705 43.0513 66.8705H51.5839C51.7406 66.8705 51.8677 66.7438 51.8677 66.5875V66.0164C51.8677 65.8601 51.7406 65.7334 51.5839 65.7334Z" fill="#B1B1B1"/>
<path d="M51.5839 63.459H43.0513C42.8946 63.459 42.7676 63.5857 42.7676 63.742V64.3131C42.7676 64.4694 42.8946 64.5961 43.0513 64.5961H51.5839C51.7406 64.5961 51.8677 64.4694 51.8677 64.3131V63.742C51.8677 63.5857 51.7406 63.459 51.5839 63.459Z" fill="#B1B1B1"/>
<path d="M51.5839 61.1899H43.0513C42.8946 61.1899 42.7676 61.3167 42.7676 61.473V62.044C42.7676 62.2003 42.8946 62.327 43.0513 62.327H51.5839C51.7406 62.327 51.8677 62.2003 51.8677 62.044V61.473C51.8677 61.3167 51.7406 61.1899 51.5839 61.1899Z" fill="#76B72A"/>
<path d="M51.5839 58.9204H43.0513C42.8946 58.9204 42.7676 59.0471 42.7676 59.2034V59.7745C42.7676 59.9308 42.8946 60.0575 43.0513 60.0575H51.5839C51.7406 60.0575 51.8677 59.9308 51.8677 59.7745V59.2034C51.8677 59.0471 51.7406 58.9204 51.5839 58.9204Z" fill="#B1B1B1"/>
<path d="M51.5839 56.6514H43.0513C42.8946 56.6514 42.7676 56.7781 42.7676 56.9344V57.5054C42.7676 57.6618 42.8946 57.7885 43.0513 57.7885H51.5839C51.7406 57.7885 51.8677 57.6618 51.8677 57.5054V56.9344C51.8677 56.7781 51.7406 56.6514 51.5839 56.6514Z" fill="#B1B1B1"/>
<path d="M51.5839 54.3823H43.0513C42.8946 54.3823 42.7676 54.509 42.7676 54.6654V55.2364C42.7676 55.3927 42.8946 55.5194 43.0513 55.5194H51.5839C51.7406 55.5194 51.8677 55.3927 51.8677 55.2364V54.6654C51.8677 54.509 51.7406 54.3823 51.5839 54.3823Z" fill="#B1B1B1"/>
<path d="M51.5839 52.1128H43.0513C42.8946 52.1128 42.7676 52.2395 42.7676 52.3958V52.9669C42.7676 53.1232 42.8946 53.2499 43.0513 53.2499H51.5839C51.7406 53.2499 51.8677 53.1232 51.8677 52.9669V52.3958C51.8677 52.2395 51.7406 52.1128 51.5839 52.1128Z" fill="#B1B1B1"/>
<path d="M51.5839 49.8438H43.0513C42.8946 49.8438 42.7676 49.9705 42.7676 50.1268V50.6978C42.7676 50.8541 42.8946 50.9809 43.0513 50.9809H51.5839C51.7406 50.9809 51.8677 50.8541 51.8677 50.6978V50.1268C51.8677 49.9705 51.7406 49.8438 51.5839 49.8438Z" fill="#76B72A"/>
<path d="M51.5839 47.5742H43.0513C42.8946 47.5742 42.7676 47.7009 42.7676 47.8573V48.4283C42.7676 48.5846 42.8946 48.7113 43.0513 48.7113H51.5839C51.7406 48.7113 51.8677 48.5846 51.8677 48.4283V47.8573C51.8677 47.7009 51.7406 47.5742 51.5839 47.5742Z" fill="#B1B1B1"/>
<path d="M51.5839 45.3052H43.0513C42.8946 45.3052 42.7676 45.4319 42.7676 45.5882V46.1592C42.7676 46.3156 42.8946 46.4423 43.0513 46.4423H51.5839C51.7406 46.4423 51.8677 46.3156 51.8677 46.1592V45.5882C51.8677 45.4319 51.7406 45.3052 51.5839 45.3052Z" fill="#B1B1B1"/>
<path d="M51.5839 43.0361H43.0513C42.8946 43.0361 42.7676 43.1629 42.7676 43.3192V43.8902C42.7676 44.0465 42.8946 44.1732 43.0513 44.1732H51.5839C51.7406 44.1732 51.8677 44.0465 51.8677 43.8902V43.3192C51.8677 43.1629 51.7406 43.0361 51.5839 43.0361Z" fill="#B1B1B1"/>
<path d="M51.5839 40.7617H43.0513C42.8946 40.7617 42.7676 40.8884 42.7676 41.0448V41.6158C42.7676 41.7721 42.8946 41.8988 43.0513 41.8988H51.5839C51.7406 41.8988 51.8677 41.7721 51.8677 41.6158V41.0448C51.8677 40.8884 51.7406 40.7617 51.5839 40.7617Z" fill="#B1B1B1"/>
<path d="M51.5839 38.4927H43.0513C42.8946 38.4927 42.7676 38.6194 42.7676 38.7757V39.3467C42.7676 39.5031 42.8946 39.6298 43.0513 39.6298H51.5839C51.7406 39.6298 51.8677 39.5031 51.8677 39.3467V38.7757C51.8677 38.6194 51.7406 38.4927 51.5839 38.4927Z" fill="#B1B1B1"/>
<path d="M51.5839 36.2231H43.0513C42.8946 36.2231 42.7676 36.3499 42.7676 36.5062V37.0772C42.7676 37.2335 42.8946 37.3602 43.0513 37.3602H51.5839C51.7406 37.3602 51.8677 37.2335 51.8677 37.0772V36.5062C51.8677 36.3499 51.7406 36.2231 51.5839 36.2231Z" fill="#B1B1B1"/>
<path d="M51.5839 33.9541H43.0513C42.8946 33.9541 42.7676 34.0808 42.7676 34.2371V34.8082C42.7676 34.9645 42.8946 35.0912 43.0513 35.0912H51.5839C51.7406 35.0912 51.8677 34.9645 51.8677 34.8082V34.2371C51.8677 34.0808 51.7406 33.9541 51.5839 33.9541Z" fill="#009EE2"/>
<path d="M51.5839 31.6846H43.0513C42.8946 31.6846 42.7676 31.8113 42.7676 31.9676V32.5386C42.7676 32.695 42.8946 32.8217 43.0513 32.8217H51.5839C51.7406 32.8217 51.8677 32.695 51.8677 32.5386V31.9676C51.8677 31.8113 51.7406 31.6846 51.5839 31.6846Z" fill="#B1B1B1"/>
<path d="M51.5839 29.4155H43.0513C42.8946 29.4155 42.7676 29.5422 42.7676 29.6986V30.2696C42.7676 30.4259 42.8946 30.5526 43.0513 30.5526H51.5839C51.7406 30.5526 51.8677 30.4259 51.8677 30.2696V29.6986C51.8677 29.5422 51.7406 29.4155 51.5839 29.4155Z" fill="#B1B1B1"/>
<path d="M41.7665 69.1348H33.234C33.0772 69.1348 32.9502 69.2615 32.9502 69.4178V69.9888C32.9502 70.1452 33.0772 70.2719 33.234 70.2719H41.7665C41.9232 70.2719 42.0503 70.1452 42.0503 69.9888V69.4178C42.0503 69.2615 41.9232 69.1348 41.7665 69.1348Z" fill="#B1B1B1"/>
<path d="M41.7665 66.8652H33.234C33.0772 66.8652 32.9502 66.9919 32.9502 67.1483V67.7193C32.9502 67.8756 33.0772 68.0023 33.234 68.0023H41.7665C41.9232 68.0023 42.0503 67.8756 42.0503 67.7193V67.1483C42.0503 66.9919 41.9232 66.8652 41.7665 66.8652Z" fill="#B1B1B1"/>
<path d="M41.7665 64.5962H33.234C33.0772 64.5962 32.9502 64.7229 32.9502 64.8792V65.4503C32.9502 65.6066 33.0772 65.7333 33.234 65.7333H41.7665C41.9232 65.7333 42.0503 65.6066 42.0503 65.4503V64.8792C42.0503 64.7229 41.9232 64.5962 41.7665 64.5962Z" fill="#B1B1B1"/>
<path d="M41.7665 62.3271H33.234C33.0772 62.3271 32.9502 62.4539 32.9502 62.6102V63.1812C32.9502 63.3375 33.0772 63.4643 33.234 63.4643H41.7665C41.9232 63.4643 42.0503 63.3375 42.0503 63.1812V62.6102C42.0503 62.4539 41.9232 62.3271 41.7665 62.3271Z" fill="#B1B1B1"/>
<path d="M41.7665 60.0576H33.234C33.0772 60.0576 32.9502 60.1843 32.9502 60.3407V60.9117C32.9502 61.068 33.0772 61.1947 33.234 61.1947H41.7665C41.9232 61.1947 42.0503 61.068 42.0503 60.9117V60.3407C42.0503 60.1843 41.9232 60.0576 41.7665 60.0576Z" fill="#76B72A"/>
<path d="M41.7665 57.7886H33.234C33.0772 57.7886 32.9502 57.9153 32.9502 58.0716V58.6426C32.9502 58.799 33.0772 58.9257 33.234 58.9257H41.7665C41.9232 58.9257 42.0503 58.799 42.0503 58.6426V58.0716C42.0503 57.9153 41.9232 57.7886 41.7665 57.7886Z" fill="#009EE2"/>
<path d="M41.7665 55.519H33.234C33.0772 55.519 32.9502 55.6458 32.9502 55.8021V56.3731C32.9502 56.5294 33.0772 56.6561 33.234 56.6561H41.7665C41.9232 56.6561 42.0503 56.5294 42.0503 56.3731V55.8021C42.0503 55.6458 41.9232 55.519 41.7665 55.519Z" fill="#B1B1B1"/>
<path d="M41.7665 53.25H33.234C33.0772 53.25 32.9502 53.3767 32.9502 53.533V54.1041C32.9502 54.2604 33.0772 54.3871 33.234 54.3871H41.7665C41.9232 54.3871 42.0503 54.2604 42.0503 54.1041V53.533C42.0503 53.3767 41.9232 53.25 41.7665 53.25Z" fill="#B1B1B1"/>
<path d="M41.7665 50.9756H33.234C33.0772 50.9756 32.9502 51.1023 32.9502 51.2586V51.8297C32.9502 51.986 33.0772 52.1127 33.234 52.1127H41.7665C41.9232 52.1127 42.0503 51.986 42.0503 51.8297V51.2586C42.0503 51.1023 41.9232 50.9756 41.7665 50.9756Z" fill="#009EE2"/>
<path d="M41.7665 48.7065H33.234C33.0772 48.7065 32.9502 48.8333 32.9502 48.9896V49.5606C32.9502 49.7169 33.0772 49.8436 33.234 49.8436H41.7665C41.9232 49.8436 42.0503 49.7169 42.0503 49.5606V48.9896C42.0503 48.8333 41.9232 48.7065 41.7665 48.7065Z" fill="#B1B1B1"/>
<path d="M41.7665 46.4375H33.234C33.0772 46.4375 32.9502 46.5642 32.9502 46.7205V47.2916C32.9502 47.4479 33.0772 47.5746 33.234 47.5746H41.7665C41.9232 47.5746 42.0503 47.4479 42.0503 47.2916V46.7205C42.0503 46.5642 41.9232 46.4375 41.7665 46.4375Z" fill="#B1B1B1"/>
<path d="M41.7665 44.168H33.234C33.0772 44.168 32.9502 44.2947 32.9502 44.451V45.022C32.9502 45.1784 33.0772 45.3051 33.234 45.3051H41.7665C41.9232 45.3051 42.0503 45.1784 42.0503 45.022V44.451C42.0503 44.2947 41.9232 44.168 41.7665 44.168Z" fill="#B1B1B1"/>
<path d="M41.7665 41.8989H33.234C33.0772 41.8989 32.9502 42.0256 32.9502 42.182V42.753C32.9502 42.9093 33.0772 43.036 33.234 43.036H41.7665C41.9232 43.036 42.0503 42.9093 42.0503 42.753V42.182C42.0503 42.0256 41.9232 41.8989 41.7665 41.8989Z" fill="#B1B1B1"/>
<path d="M41.7665 39.6294H33.234C33.0772 39.6294 32.9502 39.7561 32.9502 39.9124V40.4835C32.9502 40.6398 33.0772 40.7665 33.234 40.7665H41.7665C41.9232 40.7665 42.0503 40.6398 42.0503 40.4835V39.9124C42.0503 39.7561 41.9232 39.6294 41.7665 39.6294Z" fill="#B1B1B1"/>
<path d="M41.7665 37.3604H33.234C33.0772 37.3604 32.9502 37.4871 32.9502 37.6434V38.2144C32.9502 38.3707 33.0772 38.4975 33.234 38.4975H41.7665C41.9232 38.4975 42.0503 38.3707 42.0503 38.2144V37.6434C42.0503 37.4871 41.9232 37.3604 41.7665 37.3604Z" fill="#EE7D00"/>
<path d="M41.7665 35.0913H33.234C33.0772 35.0913 32.9502 35.218 32.9502 35.3743V35.9454C32.9502 36.1017 33.0772 36.2284 33.234 36.2284H41.7665C41.9232 36.2284 42.0503 36.1017 42.0503 35.9454V35.3743C42.0503 35.218 41.9232 35.0913 41.7665 35.0913Z" fill="#B1B1B1"/>
<path d="M71.2226 68.0024H62.69C62.5333 68.0024 62.4062 68.1292 62.4062 68.2855V68.8565C62.4062 69.0128 62.5333 69.1395 62.69 69.1395H71.2226C71.3793 69.1395 71.5063 69.0128 71.5063 68.8565V68.2855C71.5063 68.1292 71.3793 68.0024 71.2226 68.0024Z" fill="#B1B1B1"/>
<path d="M71.2226 65.7334H62.69C62.5333 65.7334 62.4062 65.8601 62.4062 66.0164V66.5875C62.4062 66.7438 62.5333 66.8705 62.69 66.8705H71.2226C71.3793 66.8705 71.5063 66.7438 71.5063 66.5875V66.0164C71.5063 65.8601 71.3793 65.7334 71.2226 65.7334Z" fill="#B1B1B1"/>
<path d="M71.2226 63.459H62.69C62.5333 63.459 62.4062 63.5857 62.4062 63.742V64.3131C62.4062 64.4694 62.5333 64.5961 62.69 64.5961H71.2226C71.3793 64.5961 71.5063 64.4694 71.5063 64.3131V63.742C71.5063 63.5857 71.3793 63.459 71.2226 63.459Z" fill="#B1B1B1"/>
<path d="M71.2226 61.1899H62.69C62.5333 61.1899 62.4062 61.3167 62.4062 61.473V62.044C62.4062 62.2003 62.5333 62.327 62.69 62.327H71.2226C71.3793 62.327 71.5063 62.2003 71.5063 62.044V61.473C71.5063 61.3167 71.3793 61.1899 71.2226 61.1899Z" fill="#B1B1B1"/>
<path d="M71.2226 58.9204H62.69C62.5333 58.9204 62.4062 59.0471 62.4062 59.2034V59.7745C62.4062 59.9308 62.5333 60.0575 62.69 60.0575H71.2226C71.3793 60.0575 71.5063 59.9308 71.5063 59.7745V59.2034C71.5063 59.0471 71.3793 58.9204 71.2226 58.9204Z" fill="#B1B1B1"/>
<path d="M71.2226 56.6514H62.69C62.5333 56.6514 62.4062 56.7781 62.4062 56.9344V57.5054C62.4062 57.6618 62.5333 57.7885 62.69 57.7885H71.2226C71.3793 57.7885 71.5063 57.6618 71.5063 57.5054V56.9344C71.5063 56.7781 71.3793 56.6514 71.2226 56.6514Z" fill="#009EE2"/>
<path d="M71.2226 54.3823H62.69C62.5333 54.3823 62.4062 54.509 62.4062 54.6654V55.2364C62.4062 55.3927 62.5333 55.5194 62.69 55.5194H71.2226C71.3793 55.5194 71.5063 55.3927 71.5063 55.2364V54.6654C71.5063 54.509 71.3793 54.3823 71.2226 54.3823Z" fill="#B1B1B1"/>
<path d="M71.2226 52.1128H62.69C62.5333 52.1128 62.4062 52.2395 62.4062 52.3958V52.9669C62.4062 53.1232 62.5333 53.2499 62.69 53.2499H71.2226C71.3793 53.2499 71.5063 53.1232 71.5063 52.9669V52.3958C71.5063 52.2395 71.3793 52.1128 71.2226 52.1128Z" fill="#EE7D00"/>
<path d="M71.2226 49.8438H62.69C62.5333 49.8438 62.4062 49.9705 62.4062 50.1268V50.6978C62.4062 50.8541 62.5333 50.9809 62.69 50.9809H71.2226C71.3793 50.9809 71.5063 50.8541 71.5063 50.6978V50.1268C71.5063 49.9705 71.3793 49.8438 71.2226 49.8438Z" fill="#B1B1B1"/>
<path d="M71.2226 47.5742H62.69C62.5333 47.5742 62.4062 47.7009 62.4062 47.8573V48.4283C62.4062 48.5846 62.5333 48.7113 62.69 48.7113H71.2226C71.3793 48.7113 71.5063 48.5846 71.5063 48.4283V47.8573C71.5063 47.7009 71.3793 47.5742 71.2226 47.5742Z" fill="#B1B1B1"/>
<path d="M71.2226 45.3052H62.69C62.5333 45.3052 62.4062 45.4319 62.4062 45.5882V46.1592C62.4062 46.3156 62.5333 46.4423 62.69 46.4423H71.2226C71.3793 46.4423 71.5063 46.3156 71.5063 46.1592V45.5882C71.5063 45.4319 71.3793 45.3052 71.2226 45.3052Z" fill="#009EE2"/>
<path d="M61.4062 69.1348H52.8736C52.7169 69.1348 52.5898 69.2615 52.5898 69.4178V69.9888C52.5898 70.1452 52.7169 70.2719 52.8736 70.2719H61.4062C61.5629 70.2719 61.6899 70.1452 61.6899 69.9888V69.4178C61.6899 69.2615 61.5629 69.1348 61.4062 69.1348Z" fill="#B1B1B1"/>
<path d="M61.4062 66.8652H52.8736C52.7169 66.8652 52.5898 66.9919 52.5898 67.1483V67.7193C52.5898 67.8756 52.7169 68.0023 52.8736 68.0023H61.4062C61.5629 68.0023 61.6899 67.8756 61.6899 67.7193V67.1483C61.6899 66.9919 61.5629 66.8652 61.4062 66.8652Z" fill="#EE7D00"/>
<path d="M61.4062 64.5962H52.8736C52.7169 64.5962 52.5898 64.7229 52.5898 64.8792V65.4503C52.5898 65.6066 52.7169 65.7333 52.8736 65.7333H61.4062C61.5629 65.7333 61.6899 65.6066 61.6899 65.4503V64.8792C61.6899 64.7229 61.5629 64.5962 61.4062 64.5962Z" fill="#009EE2"/>
<path d="M61.4062 62.3271H52.8736C52.7169 62.3271 52.5898 62.4539 52.5898 62.6102V63.1812C52.5898 63.3375 52.7169 63.4643 52.8736 63.4643H61.4062C61.5629 63.4643 61.6899 63.3375 61.6899 63.1812V62.6102C61.6899 62.4539 61.5629 62.3271 61.4062 62.3271Z" fill="#B1B1B1"/>
<path d="M61.4062 60.0576H52.8736C52.7169 60.0576 52.5898 60.1843 52.5898 60.3407V60.9117C52.5898 61.068 52.7169 61.1947 52.8736 61.1947H61.4062C61.5629 61.1947 61.6899 61.068 61.6899 60.9117V60.3407C61.6899 60.1843 61.5629 60.0576 61.4062 60.0576Z" fill="#B1B1B1"/>
<path d="M61.4062 57.7886H52.8736C52.7169 57.7886 52.5898 57.9153 52.5898 58.0716V58.6426C52.5898 58.799 52.7169 58.9257 52.8736 58.9257H61.4062C61.5629 58.9257 61.6899 58.799 61.6899 58.6426V58.0716C61.6899 57.9153 61.5629 57.7886 61.4062 57.7886Z" fill="#B1B1B1"/>
<path d="M61.4062 55.519H52.8736C52.7169 55.519 52.5898 55.6458 52.5898 55.8021V56.3731C52.5898 56.5294 52.7169 56.6561 52.8736 56.6561H61.4062C61.5629 56.6561 61.6899 56.5294 61.6899 56.3731V55.8021C61.6899 55.6458 61.5629 55.519 61.4062 55.519Z" fill="#76B72A"/>
<path d="M61.4062 53.25H52.8736C52.7169 53.25 52.5898 53.3767 52.5898 53.533V54.1041C52.5898 54.2604 52.7169 54.3871 52.8736 54.3871H61.4062C61.5629 54.3871 61.6899 54.2604 61.6899 54.1041V53.533C61.6899 53.3767 61.5629 53.25 61.4062 53.25Z" fill="#B1B1B1"/>
<path d="M61.4062 50.9756H52.8736C52.7169 50.9756 52.5898 51.1023 52.5898 51.2586V51.8297C52.5898 51.986 52.7169 52.1127 52.8736 52.1127H61.4062C61.5629 52.1127 61.6899 51.986 61.6899 51.8297V51.2586C61.6899 51.1023 61.5629 50.9756 61.4062 50.9756Z" fill="#B1B1B1"/>
<path d="M61.4062 48.7065H52.8736C52.7169 48.7065 52.5898 48.8333 52.5898 48.9896V49.5606C52.5898 49.7169 52.7169 49.8436 52.8736 49.8436H61.4062C61.5629 49.8436 61.6899 49.7169 61.6899 49.5606V48.9896C61.6899 48.8333 61.5629 48.7065 61.4062 48.7065Z" fill="#B1B1B1"/>
<path d="M90.8613 68.0024H82.3287C82.172 68.0024 82.0449 68.1292 82.0449 68.2855V68.8565C82.0449 69.0128 82.172 69.1395 82.3287 69.1395H90.8613C91.018 69.1395 91.145 69.0128 91.145 68.8565V68.2855C91.145 68.1292 91.018 68.0024 90.8613 68.0024Z" fill="#EE7D00"/>
<path d="M90.8613 65.7334H82.3287C82.172 65.7334 82.0449 65.8601 82.0449 66.0164V66.5875C82.0449 66.7438 82.172 66.8705 82.3287 66.8705H90.8613C91.018 66.8705 91.145 66.7438 91.145 66.5875V66.0164C91.145 65.8601 91.018 65.7334 90.8613 65.7334Z" fill="#B1B1B1"/>
<path d="M90.8613 63.459H82.3287C82.172 63.459 82.0449 63.5857 82.0449 63.742V64.3131C82.0449 64.4694 82.172 64.5961 82.3287 64.5961H90.8613C91.018 64.5961 91.145 64.4694 91.145 64.3131V63.742C91.145 63.5857 91.018 63.459 90.8613 63.459Z" fill="#B1B1B1"/>
<path d="M90.8613 61.1899H82.3287C82.172 61.1899 82.0449 61.3167 82.0449 61.473V62.044C82.0449 62.2003 82.172 62.327 82.3287 62.327H90.8613C91.018 62.327 91.145 62.2003 91.145 62.044V61.473C91.145 61.3167 91.018 61.1899 90.8613 61.1899Z" fill="#009EE2"/>
<path d="M90.8613 58.9204H82.3287C82.172 58.9204 82.0449 59.0471 82.0449 59.2034V59.7745C82.0449 59.9308 82.172 60.0575 82.3287 60.0575H90.8613C91.018 60.0575 91.145 59.9308 91.145 59.7745V59.2034C91.145 59.0471 91.018 58.9204 90.8613 58.9204Z" fill="#B1B1B1"/>
<path d="M90.8613 56.6514H82.3287C82.172 56.6514 82.0449 56.7781 82.0449 56.9344V57.5054C82.0449 57.6618 82.172 57.7885 82.3287 57.7885H90.8613C91.018 57.7885 91.145 57.6618 91.145 57.5054V56.9344C91.145 56.7781 91.018 56.6514 90.8613 56.6514Z" fill="#B1B1B1"/>
<path d="M90.8613 54.3823H82.3287C82.172 54.3823 82.0449 54.509 82.0449 54.6654V55.2364C82.0449 55.3927 82.172 55.5194 82.3287 55.5194H90.8613C91.018 55.5194 91.145 55.3927 91.145 55.2364V54.6654C91.145 54.509 91.018 54.3823 90.8613 54.3823Z" fill="#009EE2"/>
<path d="M90.8613 52.1128H82.3287C82.172 52.1128 82.0449 52.2395 82.0449 52.3958V52.9669C82.0449 53.1232 82.172 53.2499 82.3287 53.2499H90.8613C91.018 53.2499 91.145 53.1232 91.145 52.9669V52.3958C91.145 52.2395 91.018 52.1128 90.8613 52.1128Z" fill="#B1B1B1"/>
<path d="M81.04 69.1348H72.5074C72.3507 69.1348 72.2236 69.2615 72.2236 69.4178V69.9888C72.2236 70.1452 72.3507 70.2719 72.5074 70.2719H81.04C81.1967 70.2719 81.3237 70.1452 81.3237 69.9888V69.4178C81.3237 69.2615 81.1967 69.1348 81.04 69.1348Z" fill="#B1B1B1"/>
<path d="M81.04 66.8652H72.5074C72.3507 66.8652 72.2236 66.9919 72.2236 67.1483V67.7193C72.2236 67.8756 72.3507 68.0023 72.5074 68.0023H81.04C81.1967 68.0023 81.3237 67.8756 81.3237 67.7193V67.1483C81.3237 66.9919 81.1967 66.8652 81.04 66.8652Z" fill="#B1B1B1"/>
<path d="M81.04 64.5962H72.5074C72.3507 64.5962 72.2236 64.7229 72.2236 64.8792V65.4503C72.2236 65.6066 72.3507 65.7333 72.5074 65.7333H81.04C81.1967 65.7333 81.3237 65.6066 81.3237 65.4503V64.8792C81.3237 64.7229 81.1967 64.5962 81.04 64.5962Z" fill="#EE7D00"/>
<path d="M81.04 62.3271H72.5074C72.3507 62.3271 72.2236 62.4539 72.2236 62.6102V63.1812C72.2236 63.3375 72.3507 63.4643 72.5074 63.4643H81.04C81.1967 63.4643 81.3237 63.3375 81.3237 63.1812V62.6102C81.3237 62.4539 81.1967 62.3271 81.04 62.3271Z" fill="#B1B1B1"/>
<path d="M81.04 60.0576H72.5074C72.3507 60.0576 72.2236 60.1843 72.2236 60.3407V60.9117C72.2236 61.068 72.3507 61.1947 72.5074 61.1947H81.04C81.1967 61.1947 81.3237 61.068 81.3237 60.9117V60.3407C81.3237 60.1843 81.1967 60.0576 81.04 60.0576Z" fill="#76B72A"/>
<path d="M81.04 57.7886H72.5074C72.3507 57.7886 72.2236 57.9153 72.2236 58.0716V58.6426C72.2236 58.799 72.3507 58.9257 72.5074 58.9257H81.04C81.1967 58.9257 81.3237 58.799 81.3237 58.6426V58.0716C81.3237 57.9153 81.1967 57.7886 81.04 57.7886Z" fill="#B1B1B1"/>
<path d="M81.04 55.519H72.5074C72.3507 55.519 72.2236 55.6458 72.2236 55.8021V56.3731C72.2236 56.5294 72.3507 56.6561 72.5074 56.6561H81.04C81.1967 56.6561 81.3237 56.5294 81.3237 56.3731V55.8021C81.3237 55.6458 81.1967 55.519 81.04 55.519Z" fill="#B1B1B1"/>
<path d="M81.04 53.25H72.5074C72.3507 53.25 72.2236 53.3767 72.2236 53.533V54.1041C72.2236 54.2604 72.3507 54.3871 72.5074 54.3871H81.04C81.1967 54.3871 81.3237 54.2604 81.3237 54.1041V53.533C81.3237 53.3767 81.1967 53.25 81.04 53.25Z" fill="#B1B1B1"/>
<path d="M81.04 50.9756H72.5074C72.3507 50.9756 72.2236 51.1023 72.2236 51.2586V51.8297C72.2236 51.986 72.3507 52.1127 72.5074 52.1127H81.04C81.1967 52.1127 81.3237 51.986 81.3237 51.8297V51.2586C81.3237 51.1023 81.1967 50.9756 81.04 50.9756Z" fill="#B1B1B1"/>
<path d="M81.04 48.7065H72.5074C72.3507 48.7065 72.2236 48.8333 72.2236 48.9896V49.5606C72.2236 49.7169 72.3507 49.8436 72.5074 49.8436H81.04C81.1967 49.8436 81.3237 49.7169 81.3237 49.5606V48.9896C81.3237 48.8333 81.1967 48.7065 81.04 48.7065Z" fill="#009EE2"/>
<path d="M81.04 46.4375H72.5074C72.3507 46.4375 72.2236 46.5642 72.2236 46.7205V47.2916C72.2236 47.4479 72.3507 47.5746 72.5074 47.5746H81.04C81.1967 47.5746 81.3237 47.4479 81.3237 47.2916V46.7205C81.3237 46.5642 81.1967 46.4375 81.04 46.4375Z" fill="#B1B1B1"/>
<path d="M81.04 44.168H72.5074C72.3507 44.168 72.2236 44.2947 72.2236 44.451V45.022C72.2236 45.1784 72.3507 45.3051 72.5074 45.3051H81.04C81.1967 45.3051 81.3237 45.1784 81.3237 45.022V44.451C81.3237 44.2947 81.1967 44.168 81.04 44.168Z" fill="#B1B1B1"/>
<path d="M110.495 68.0024H101.962C101.806 68.0024 101.679 68.1292 101.679 68.2855V68.8565C101.679 69.0128 101.806 69.1395 101.962 69.1395H110.495C110.652 69.1395 110.779 69.0128 110.779 68.8565V68.2855C110.779 68.1292 110.652 68.0024 110.495 68.0024Z" fill="#B1B1B1"/>
<path d="M110.495 65.7334H101.962C101.806 65.7334 101.679 65.8601 101.679 66.0164V66.5875C101.679 66.7438 101.806 66.8705 101.962 66.8705H110.495C110.652 66.8705 110.779 66.7438 110.779 66.5875V66.0164C110.779 65.8601 110.652 65.7334 110.495 65.7334Z" fill="#B1B1B1"/>
<path d="M110.495 63.459H101.962C101.806 63.459 101.679 63.5857 101.679 63.742V64.3131C101.679 64.4694 101.806 64.5961 101.962 64.5961H110.495C110.652 64.5961 110.779 64.4694 110.779 64.3131V63.742C110.779 63.5857 110.652 63.459 110.495 63.459Z" fill="#B1B1B1"/>
<path d="M110.495 61.1899H101.962C101.806 61.1899 101.679 61.3167 101.679 61.473V62.044C101.679 62.2003 101.806 62.327 101.962 62.327H110.495C110.652 62.327 110.779 62.2003 110.779 62.044V61.473C110.779 61.3167 110.652 61.1899 110.495 61.1899Z" fill="#B1B1B1"/>
<path d="M110.495 58.9204H101.962C101.806 58.9204 101.679 59.0471 101.679 59.2034V59.7745C101.679 59.9308 101.806 60.0575 101.962 60.0575H110.495C110.652 60.0575 110.779 59.9308 110.779 59.7745V59.2034C110.779 59.0471 110.652 58.9204 110.495 58.9204Z" fill="#B1B1B1"/>
<path d="M110.495 56.6514H101.962C101.806 56.6514 101.679 56.7781 101.679 56.9344V57.5054C101.679 57.6618 101.806 57.7885 101.962 57.7885H110.495C110.652 57.7885 110.779 57.6618 110.779 57.5054V56.9344C110.779 56.7781 110.652 56.6514 110.495 56.6514Z" fill="#76B72A"/>
<path d="M110.495 54.3823H101.962C101.806 54.3823 101.679 54.509 101.679 54.6654V55.2364C101.679 55.3927 101.806 55.5194 101.962 55.5194H110.495C110.652 55.5194 110.779 55.3927 110.779 55.2364V54.6654C110.779 54.509 110.652 54.3823 110.495 54.3823Z" fill="#B1B1B1"/>
<path d="M110.495 52.1128H101.962C101.806 52.1128 101.679 52.2395 101.679 52.3958V52.9669C101.679 53.1232 101.806 53.2499 101.962 53.2499H110.495C110.652 53.2499 110.779 53.1232 110.779 52.9669V52.3958C110.779 52.2395 110.652 52.1128 110.495 52.1128Z" fill="#B1B1B1"/>
<path d="M110.495 49.8438H101.962C101.806 49.8438 101.679 49.9705 101.679 50.1268V50.6978C101.679 50.8541 101.806 50.9809 101.962 50.9809H110.495C110.652 50.9809 110.779 50.8541 110.779 50.6978V50.1268C110.779 49.9705 110.652 49.8438 110.495 49.8438Z" fill="#EE7D00"/>
<path d="M110.495 47.5742H101.962C101.806 47.5742 101.679 47.7009 101.679 47.8573V48.4283C101.679 48.5846 101.806 48.7113 101.962 48.7113H110.495C110.652 48.7113 110.779 48.5846 110.779 48.4283V47.8573C110.779 47.7009 110.652 47.5742 110.495 47.5742Z" fill="#B1B1B1"/>
<path d="M110.495 45.3052H101.962C101.806 45.3052 101.679 45.4319 101.679 45.5882V46.1592C101.679 46.3156 101.806 46.4423 101.962 46.4423H110.495C110.652 46.4423 110.779 46.3156 110.779 46.1592V45.5882C110.779 45.4319 110.652 45.3052 110.495 45.3052Z" fill="#B1B1B1"/>
<path d="M110.495 43.0361H101.962C101.806 43.0361 101.679 43.1629 101.679 43.3192V43.8902C101.679 44.0465 101.806 44.1732 101.962 44.1732H110.495C110.652 44.1732 110.779 44.0465 110.779 43.8902V43.3192C110.779 43.1629 110.652 43.0361 110.495 43.0361Z" fill="#B1B1B1"/>
<path d="M110.495 40.7617H101.962C101.806 40.7617 101.679 40.8884 101.679 41.0448V41.6158C101.679 41.7721 101.806 41.8988 101.962 41.8988H110.495C110.652 41.8988 110.779 41.7721 110.779 41.6158V41.0448C110.779 40.8884 110.652 40.7617 110.495 40.7617Z" fill="#B1B1B1"/>
<path d="M100.679 69.1348H92.1461C91.9893 69.1348 91.8623 69.2615 91.8623 69.4178V69.9888C91.8623 70.1452 91.9893 70.2719 92.1461 70.2719H100.679C100.835 70.2719 100.962 70.1452 100.962 69.9888V69.4178C100.962 69.2615 100.835 69.1348 100.679 69.1348Z" fill="#B1B1B1"/>
<path d="M100.679 66.8652H92.1461C91.9893 66.8652 91.8623 66.9919 91.8623 67.1483V67.7193C91.8623 67.8756 91.9893 68.0023 92.1461 68.0023H100.679C100.835 68.0023 100.962 67.8756 100.962 67.7193V67.1483C100.962 66.9919 100.835 66.8652 100.679 66.8652Z" fill="#76B72A"/>
<path d="M100.679 64.5962H92.1461C91.9893 64.5962 91.8623 64.7229 91.8623 64.8792V65.4503C91.8623 65.6066 91.9893 65.7333 92.1461 65.7333H100.679C100.835 65.7333 100.962 65.6066 100.962 65.4503V64.8792C100.962 64.7229 100.835 64.5962 100.679 64.5962Z" fill="#B1B1B1"/>
<path d="M100.679 62.3271H92.1461C91.9893 62.3271 91.8623 62.4539 91.8623 62.6102V63.1812C91.8623 63.3375 91.9893 63.4643 92.1461 63.4643H100.679C100.835 63.4643 100.962 63.3375 100.962 63.1812V62.6102C100.962 62.4539 100.835 62.3271 100.679 62.3271Z" fill="#B1B1B1"/>
<path d="M100.679 60.0576H92.1461C91.9893 60.0576 91.8623 60.1843 91.8623 60.3407V60.9117C91.8623 61.068 91.9893 61.1947 92.1461 61.1947H100.679C100.835 61.1947 100.962 61.068 100.962 60.9117V60.3407C100.962 60.1843 100.835 60.0576 100.679 60.0576Z" fill="#B1B1B1"/>
<path d="M100.679 57.7886H92.1461C91.9893 57.7886 91.8623 57.9153 91.8623 58.0716V58.6426C91.8623 58.799 91.9893 58.9257 92.1461 58.9257H100.679C100.835 58.9257 100.962 58.799 100.962 58.6426V58.0716C100.962 57.9153 100.835 57.7886 100.679 57.7886Z" fill="#B1B1B1"/>
<path d="M100.679 55.519H92.1461C91.9893 55.519 91.8623 55.6458 91.8623 55.8021V56.3731C91.8623 56.5294 91.9893 56.6561 92.1461 56.6561H100.679C100.835 56.6561 100.962 56.5294 100.962 56.3731V55.8021C100.962 55.6458 100.835 55.519 100.679 55.519Z" fill="#B1B1B1"/>
<path d="M100.679 53.25H92.1461C91.9893 53.25 91.8623 53.3767 91.8623 53.533V54.1041C91.8623 54.2604 91.9893 54.3871 92.1461 54.3871H100.679C100.835 54.3871 100.962 54.2604 100.962 54.1041V53.533C100.962 53.3767 100.835 53.25 100.679 53.25Z" fill="#76B72A"/>
<path d="M100.679 50.9756H92.1461C91.9893 50.9756 91.8623 51.1023 91.8623 51.2586V51.8297C91.8623 51.986 91.9893 52.1127 92.1461 52.1127H100.679C100.835 52.1127 100.962 51.986 100.962 51.8297V51.2586C100.962 51.1023 100.835 50.9756 100.679 50.9756Z" fill="#B1B1B1"/>
<path d="M100.679 48.7065H92.1461C91.9893 48.7065 91.8623 48.8333 91.8623 48.9896V49.5606C91.8623 49.7169 91.9893 49.8436 92.1461 49.8436H100.679C100.835 49.8436 100.962 49.7169 100.962 49.5606V48.9896C100.962 48.8333 100.835 48.7065 100.679 48.7065Z" fill="#B1B1B1"/>
<path d="M100.679 46.4375H92.1461C91.9893 46.4375 91.8623 46.5642 91.8623 46.7205V47.2916C91.8623 47.4479 91.9893 47.5746 92.1461 47.5746H100.679C100.835 47.5746 100.962 47.4479 100.962 47.2916V46.7205C100.962 46.5642 100.835 46.4375 100.679 46.4375Z" fill="#B1B1B1"/>
<path d="M16.1888 40.459H14.9492V47.9122H16.1888V40.459Z" fill="#B1B1B1"/>
<path d="M20.7786 40.459H19.5391V47.9122H20.7786V40.459Z" fill="#B1B1B1"/>
<path d="M20.1563 45.8018H15.5664V47.0382H20.1563V45.8018Z" fill="#B1B1B1"/>
<path d="M20.1563 43.5674H15.5664V44.8038H20.1563V43.5674Z" fill="#B1B1B1"/>
<path d="M20.1563 41.3325H15.5664V42.5689H20.1563V41.3325Z" fill="#B1B1B1"/>
<path d="M93.9775 28.4272H92.3496V29.2366H93.9775V28.4272Z" fill="#B1B1B1"/>
<path d="M96.8202 31.2676H96.0088V32.8913H96.8202V31.2676Z" fill="#B1B1B1"/>
<path d="M96.8202 24.7827H96.0088V26.4064H96.8202V24.7827Z" fill="#B1B1B1"/>
<path d="M98.4205 30.2714L97.8467 30.8438L98.9978 31.9919L99.5715 31.4196L98.4205 30.2714Z" fill="#B1B1B1"/>
<path d="M93.8287 25.6835L93.2549 26.2559L94.406 27.404L94.9797 26.8317L93.8287 25.6835Z" fill="#B1B1B1"/>
<path d="M100.479 28.4272H98.8516V29.2366H100.479V28.4272Z" fill="#B1B1B1"/>
<path d="M98.9997 25.678L97.8486 26.8262L98.4224 27.3985L99.5735 26.2503L98.9997 25.678Z" fill="#B1B1B1"/>
<path d="M94.405 30.2747L93.2539 31.4229L93.8277 31.9952L94.9788 30.847L94.405 30.2747Z" fill="#B1B1B1"/>
<path d="M96.4119 30.6715C97.4225 30.6715 98.2389 29.8572 98.2389 28.8492C98.2389 27.8412 97.4225 27.0269 96.4119 27.0269C95.4014 27.0269 94.585 27.8412 94.585 28.8492C94.585 29.8572 95.4014 30.6715 96.4119 30.6715Z" fill="#B1B1B1"/>
<path d="M15.1143 34.0783L15.0147 34.5451C15.0147 34.5451 14.7409 34.5798 14.7608 34.8132C14.7807 35.0466 15.5623 34.8827 15.6071 34.5848C15.6469 34.2918 15.6071 33.7158 15.6071 33.7158L15.1143 34.0833V34.0783Z" fill="#B1B1B1"/>
<path d="M17.7079 40.4984L18.9126 40.5679L19.9431 34.5547L19.9879 31.3221L22.0787 28.1392L21.2026 27.6775L18.9723 30.1801L18.5243 30.1006V29.6885C18.5243 29.6885 19.6195 29.4452 19.6095 28.7103C19.5996 27.9754 19.3855 27.6775 19.3855 27.6775C19.3855 27.6775 19.2113 26.9277 19.5349 26.8681C19.8585 26.8135 19.7987 25.9693 18.8977 25.587C17.9966 25.2096 17.3196 24.8223 16.095 25.8055C14.8703 26.7886 14.9599 28.4024 15.7614 29.3459C16.5629 30.2893 17.0259 29.9517 17.0259 29.9517C17.0259 29.9517 17.5735 30.1404 17.3843 30.3737C17.3843 30.3737 15.1491 30.7064 15.1143 34.073H15.7963C15.7963 34.073 15.9257 32.0819 16.8317 31.8932L16.4534 34.8526H16.9412L16.1049 40.4935L17.3096 40.563L18.1012 36.2628L17.7029 40.4984H17.7079Z" fill="#B1B1B1"/>
<path d="M21.8994 28.0449C21.8994 28.0449 22.462 27.7023 22.442 27.4689C22.4221 27.2355 22.3027 27.1313 22.1732 27.0866C22.0438 27.0419 22.1732 26.5404 22.1732 26.5404C22.1732 26.5404 22.0438 26.2027 21.6605 26.6446C21.2821 27.0866 21.3767 27.7668 21.3767 27.7668L21.8994 28.0399V28.0449Z" fill="#B1B1B1"/>
<path d="M17.8919 40.5085C17.8919 40.5085 17.7674 40.861 17.7873 41.159C17.8072 41.4519 18.315 41.8988 18.7381 42.023C19.1613 42.1471 19.6043 42.023 19.5197 41.6208C19.4351 41.2185 18.8029 40.8412 18.8029 40.8412L18.7829 40.146L17.8968 40.5085H17.8919Z" fill="#B1B1B1"/>
<path d="M16.2639 40.5085C16.2639 40.5085 16.1395 40.861 16.1594 41.159C16.1793 41.4519 16.6871 41.8988 17.1102 42.023C17.5334 42.1471 17.9764 42.023 17.8918 41.6208C17.8072 41.2185 17.1749 40.8412 17.1749 40.8412L17.155 40.146L16.2689 40.5085H16.2639Z" fill="#B1B1B1"/>
<path d="M22.5314 25.6963H22.1133V28.2287H22.5314V25.6963Z" fill="#B1B1B1"/>
<path d="M22.7508 25.4433C22.7508 25.1156 22.3227 24.6836 22.3227 24.6836C22.3227 24.6836 21.8945 25.1106 21.8945 25.4433C21.8945 25.776 22.0837 25.8803 22.3227 25.8803C22.5616 25.8803 22.7508 25.776 22.7508 25.4433Z" fill="#B1B1B1"/>
<path d="M41.7325 29.3708C41.5433 29.2119 41.2596 29.0977 40.9957 29.0133L41.1003 28.8693C41.1003 28.8693 39.6068 27.4045 39.1438 26.615C38.6809 25.8304 38.1631 25.89 38.1631 25.89L38.2776 25.5871L39.7064 25.3835C39.5769 25.1799 39.8109 24.0726 39.7064 23.1044C39.6018 22.1361 38.9148 21.1678 37.4314 21.3068C35.9479 21.4459 35.6392 22.429 35.7786 22.9703C35.918 23.5066 35.8533 25.4928 35.8533 25.4928C36.3013 25.7311 37.0729 25.5673 37.0729 25.5673C37.0729 25.5673 37.3915 25.9049 37.0729 25.9844C36.2814 26.173 35.3405 26.5355 35.3405 26.5355L34.8875 25.4928C34.9721 25.0906 35.1065 24.2861 34.8377 24.3606C34.4793 24.4649 34.6087 24.6139 34.4046 24.589C34.2005 24.5642 33.1601 24.3706 33.7127 25.0359C33.9765 25.3537 34.1756 25.5573 34.315 25.6815L34.2652 25.6964C34.2652 25.6964 34.4693 27.3201 34.9622 27.5187C35.455 27.7124 36.4307 27.0271 36.4307 27.0271L35.7985 31.501L36.3312 31.4762L35.694 33.6213C35.694 33.6213 35.1165 33.6064 35.0568 33.81C34.997 34.0186 35.9727 34.4009 36.2067 34.1874C36.366 34.0434 36.9136 32.4495 37.2472 31.4365L37.8545 31.4117C37.8694 32.4793 37.9093 34.103 38.0138 34.2867C38.1681 34.5598 39.2185 34.4903 39.2235 34.2768C39.2235 34.0583 38.6709 33.9044 38.6709 33.9044L38.7157 31.3769L39.7263 31.3322L38.7655 27.2158L40.4183 29.2864C40.4581 29.4602 40.5427 29.7581 40.6721 29.8525C40.8513 29.9816 40.7518 29.6241 41.0555 29.6737C41.3641 29.7234 42.1805 29.7234 41.7474 29.3659L41.7325 29.3708Z" fill="#B1B1B1"/>
<path d="M63.2233 44.4661C63.2233 44.4661 63.0391 43.324 62.606 42.887C62.1729 42.4501 60.7691 43.4531 60.7691 43.4531C60.7342 43.1055 60.4405 41.8145 60.4405 41.8145C60.8139 41.7251 63.0391 39.9723 63.0391 39.9723L62.4069 39.3218L60.0074 40.7072C60.0074 40.7072 59.6639 40.4787 59.3453 40.3894C59.0267 40.3 58.4243 40.4738 58.2949 40.7072C58.1655 40.9405 57.5233 43.1303 57.5382 43.4481C57.5532 43.7659 57.9912 43.9049 57.9912 43.9049C57.9713 44.1185 58.1655 44.7143 58.1655 44.7143L57.4287 47.5397L58.1555 47.6936L60.0024 45.0222C61.3814 44.9974 62.1629 43.9099 62.1629 43.9099C62.3471 44.4313 62.5861 44.908 62.83 45.0222L63.2183 44.4611L63.2233 44.4661Z" fill="#B1B1B1"/>
<path d="M62.8044 39.8132C62.8044 39.8132 63.3968 39.5301 63.2724 39.0485C63.1429 38.5619 63.0483 38.7158 63.0483 38.7158C63.0483 38.7158 63.4117 38.1795 63.2923 38.1299C63.1728 38.0802 62.4111 39.3266 62.4111 39.3266L62.8094 39.8132H62.8044Z" fill="#B1B1B1"/>
<path d="M57.5578 47.5692L57.1396 48.1949C57.1396 48.1949 58.6331 48.458 58.9119 47.9962C59.1956 47.5345 58.1602 47.6983 58.1602 47.6983L58.19 47.4302L57.5578 47.5742V47.5692Z" fill="#B1B1B1"/>
<path d="M63.1932 44.4264C63.1932 44.4264 63.6861 43.5922 63.9748 43.8355C64.2636 44.0788 63.5616 45.0024 63.1833 44.8932C62.8099 44.7839 62.7402 44.5605 62.7402 44.5605L63.1932 44.4214V44.4264Z" fill="#B1B1B1"/>
<path d="M58.2445 41.035C58.2346 40.9257 58.1798 40.8264 58.0952 40.7569C57.8911 40.593 57.4928 40.3795 57.219 40.881C57.0249 41.2286 57.0249 41.4074 57.0746 41.5017C57.1394 41.6209 57.1145 41.7748 57.0448 41.894L56.7461 42.4055C56.6017 42.6537 56.7461 42.9715 57.0348 43.0162C57.3385 43.0659 57.682 43.1155 57.8313 43.1155C58.1051 43.1155 58.2744 42.0579 58.3092 41.8096C58.3142 41.7748 58.3142 41.7401 58.3092 41.7103L58.2395 41.0399L58.2445 41.035Z" fill="#B1B1B1"/>
<path d="M59.0116 40.7615L59.0216 40.1309C59.0216 40.1309 58.0309 40.0664 57.4833 39.1726C57.4833 39.1726 56.9506 38.964 57.1498 38.4575C57.1498 38.4575 56.5026 36.9282 57.3141 36.3522C58.1255 35.7762 58.5287 35.3938 58.3545 34.9866C58.1803 34.5745 59.5492 34.6738 59.8977 35.0462C60.2462 35.4186 60.296 35.7215 60.296 35.7215C60.296 35.7215 61.207 36.0294 61.1024 37.7226C61.1024 37.7226 61.5754 38.0901 61.3912 38.825C61.207 39.5599 59.8778 40.1557 59.8778 40.1557L59.6538 40.841L59.0016 40.7665L59.0116 40.7615Z" fill="#B1B1B1"/>
<path d="M87.8595 48.8109C87.526 48.3342 87.3866 49.0244 87.1626 48.9301C87.0381 48.8804 86.5801 48.8456 86.1968 48.8308C86.4955 48.5924 86.7295 48.3193 86.8539 48.0065C86.8539 48.0065 85.3306 47.1276 84.9075 46.4721C84.8179 46.1543 84.7581 45.7968 84.7731 45.4145C84.783 45.1662 84.783 44.9179 84.7731 44.6746C84.8876 44.7292 85.022 44.769 85.1912 44.769C86.0724 44.769 86.0126 43.8603 85.8085 43.6567C85.6044 43.4531 85.699 44.0539 85.4003 43.9745C85.1016 43.8901 84.783 42.7778 85.1016 42.2514C85.4252 41.7251 85.4003 40.4688 84.4296 40.7568C84.4296 40.7568 84.7781 38.9742 82.9909 38.9146C81.2037 38.855 81.0245 40.5532 81.0245 40.5532L81.2684 40.727C81.2684 40.727 81.1838 41.8393 81.2684 42.1621C81.2684 42.1621 81.2983 42.5692 81.6219 42.892C80.9548 42.7579 79.8945 42.5742 79.5012 42.6288C78.9237 42.7132 78.8889 43.0559 79.083 43.1502C78.4458 43.2545 77.7987 43.4829 78.6101 43.9397C79.3469 44.3171 80.9797 44.0788 81.2336 43.9695C81.7215 43.756 81.5024 44.6498 81.7961 44.764C81.8459 44.7839 81.9007 44.7888 81.9554 44.7839C81.9156 45.1463 81.8658 45.7323 81.8658 46.343C81.8658 46.5714 81.8758 46.8048 81.8907 47.0283L82.0152 50.2459C82.0152 50.2459 82.4134 50.2012 82.9859 50.0821L83.1552 51.2837C83.1552 51.2837 82.4184 51.4029 82.5229 51.6363C82.6275 51.8697 83.6878 51.7356 83.9517 51.6363C84.1458 51.5618 84.0562 50.4445 83.9965 49.8388C84.2304 49.7742 84.4694 49.6948 84.7034 49.6103C84.8328 49.7494 85.1564 49.9182 85.9429 49.8189C87.2024 49.655 87.2671 49.4564 87.2671 49.4564C87.2671 49.4564 87.3319 50.1168 87.6654 50.2509C87.9989 50.385 88.1981 49.2876 87.8645 48.8109H87.8595ZM83.887 42.6388C84.1259 42.3061 84.2255 41.9386 84.2255 41.7797C84.2255 41.7797 84.5092 41.889 84.4843 42.5097L83.887 42.6338V42.6388Z" fill="#B1B1B1"/>
<path d="M109.147 33.4127C109.386 33.2439 109.6 33.0105 109.744 32.6878C109.859 32.4246 109.908 32.1167 109.894 31.8138C110.013 31.5109 110.098 31.0839 109.894 30.6668C109.525 29.912 108.669 30.0858 108.669 30.0858C108.669 30.0858 107.509 29.1076 106.588 30.5526C106.588 30.5526 106.105 30.9449 106.105 31.3769C106.105 31.8089 106.016 31.9678 106.016 31.9678C106.016 31.9678 106.249 32.1267 106.474 31.9529C106.518 32.1217 106.573 32.2558 106.613 32.3203C106.772 32.5934 106.429 32.8715 106.613 33.5071C106.797 34.1427 107.808 33.8447 107.808 33.8447C107.808 33.8447 107.862 33.8447 107.957 33.8348L108.042 34.1576C108.042 34.1576 107.33 35.5082 107.26 36.0693C107.19 36.6304 106.678 36.0147 106.598 35.8309C106.523 35.6472 106.409 35.0712 106.016 35.096C105.622 35.1209 103.805 32.2955 103.805 32.2955L102.999 33.0304L104.423 35.2549C104.423 35.2549 102.765 37.5639 102.167 38.1101C101.57 38.6513 102.028 38.5918 102.028 38.5918C102.028 38.5918 101.222 38.9046 100.624 38.7308C100.027 38.557 99.982 38.9344 100.624 39.3565C101.266 39.7736 102.028 39.9076 102.302 39.6097L102.576 39.3167L102.805 39.4558L105.149 37.3206C105.149 37.3206 105.792 39.3862 106.852 39.8679C107.912 40.3496 108.669 40.0963 109.177 39.7289C109.684 39.3614 110.187 36.5907 110.257 36.0693C110.411 34.9073 109.645 33.9291 109.132 33.4177L109.147 33.4127Z" fill="#B1B1B1"/>
<path d="M66.6673 32.082H64.7656L66.6673 34.8131V32.082Z" fill="#B1B1B1"/>
<path d="M63.9297 34.813V36.7098L66.6677 34.813H63.9297Z" fill="#B1B1B1"/>
<path d="M66.668 37.544H68.5696L66.668 34.813V37.544Z" fill="#B1B1B1"/>
<path d="M69.406 34.8128V32.916L66.668 34.8128H69.406Z" fill="#B1B1B1"/>
<path d="M64.7308 32.8813L63.3867 34.222L66.6673 34.8129L64.7308 32.8813Z" fill="#B1B1B1"/>
<path d="M64.7314 36.7446L66.0755 38.0853L66.668 34.813L64.7314 36.7446Z" fill="#B1B1B1"/>
<path d="M68.6045 36.7446L69.9486 35.4039L66.668 34.813L68.6045 36.7446Z" fill="#B1B1B1"/>
<path d="M68.6045 32.8812L67.2604 31.5405L66.668 34.8128L68.6045 32.8812Z" fill="#B1B1B1"/>
<path d="M19.5345 5.06445H18.8276V6.52928H15.9403V5.06445H15.2334C15.0641 5.06445 14.9297 5.19852 14.9297 5.36238V8.54528C14.9297 8.70914 15.0641 8.84321 15.2334 8.84321H15.9403V7.26418H18.8276V8.84321H19.5345C19.7037 8.84321 19.8382 8.70914 19.8382 8.54528V5.36238C19.8382 5.19852 19.7037 5.06445 19.5345 5.06445Z" fill="#282425"/>
<path d="M13.8147 5.06445H13.1078V7.85011L10.8876 5.65038C10.5341 5.31273 10.2902 5.06942 9.72764 5.06942H9.11035V8.55025C9.11035 8.71411 9.24476 8.84818 9.41402 8.84818H10.1209V6.04763L12.3213 8.23742C12.6797 8.58501 13.0033 8.84818 13.526 8.84818H14.1184V5.36735C14.1184 5.20349 13.984 5.06942 13.8147 5.06942V5.06445Z" fill="#282425"/>
<path d="M27.714 7.19005L28.5952 6.36577H28.2815C28.1272 6.36577 28.0426 6.44522 27.9679 6.5197C27.9679 6.5197 27.4502 7.01129 27.3556 7.10067V5.57129H27.1814C27.0768 5.57129 26.9922 5.6557 26.9922 5.75501V8.03419C26.9922 8.13846 27.0768 8.21791 27.1814 8.21791H27.3556V7.28936C27.3855 7.32412 28.0924 8.07888 28.0924 8.07888C28.167 8.16329 28.2218 8.21791 28.3811 8.21791H28.7047C28.7047 8.21791 27.724 7.19998 27.714 7.18508V7.19005Z" fill="#282425"/>
<path d="M25.8565 6.36581H24.9854V8.03422C24.9854 8.13849 25.07 8.21794 25.1745 8.21794H25.3488V6.65877H25.8167C26.1054 6.67367 26.205 6.83753 26.205 7.27946V8.21794H26.3792C26.4838 8.21794 26.5684 8.13353 26.5684 8.03422V7.16029C26.5684 6.63891 26.3195 6.36084 25.8565 6.36084V6.36581Z" fill="#282425"/>
<path d="M22.1628 6.93181C22.4466 6.82257 22.6159 6.64381 22.6159 6.33098C22.6159 5.90395 22.3072 5.69043 21.7049 5.69043H21.1921C21.0876 5.69043 21.0029 5.77484 21.0029 5.87912V8.03912C21.0029 8.1434 21.0876 8.22284 21.1921 8.22284H21.6949C22.362 8.22284 22.6856 7.99939 22.6856 7.54257C22.6856 7.20491 22.4615 6.9914 22.1678 6.93181H22.1628ZM21.5804 6.76298H21.3862V6.00326H21.7646C21.904 6.00326 22.2325 6.03802 22.2325 6.37071C22.2325 6.73319 21.9388 6.76298 21.5804 6.76298ZM22.2724 7.50781C22.2724 7.78091 22.0832 7.90505 21.6501 7.90505H21.3862V7.07084H21.6152C21.9189 7.07084 22.2724 7.1205 22.2724 7.50284V7.50781Z" fill="#282425"/>
<path d="M23.6916 7.93956C23.5273 7.93956 23.353 7.83528 23.353 7.66149C23.353 7.36853 23.8011 7.33377 23.9952 7.33377H24.2043V7.93956H23.6916ZM24.3785 8.21763C24.4831 8.21763 24.5677 8.13322 24.5677 8.0339V7.09046C24.5677 6.56411 24.3238 6.3208 23.8061 6.3208C23.597 6.3208 23.3929 6.37542 23.2037 6.48466V6.80742L23.2186 6.79749C23.358 6.68328 23.5621 6.61377 23.7563 6.61377C24.0749 6.61377 24.2093 6.74784 24.2093 7.07556C24.0799 7.07059 23.9803 7.07059 23.8509 7.07059C23.5472 7.07059 22.9697 7.19473 22.9697 7.66646C22.9697 8.02397 23.2186 8.22259 23.6667 8.22259H24.3835L24.3785 8.21763Z" fill="#282425"/>
<path d="M4.63965 6.88691L7.51205 5.55615V8.2127L4.63965 6.88691Z" fill="#231F20"/>
<path d="M46.0332 20.4972L44.9828 22.1507L44.251 21.679L45.4557 19.7722H44.5198V18.9281H47.5515V19.7722H46.6156L47.8104 21.6393L47.0786 22.1408L46.0381 20.5022L46.0332 20.4972ZM48.5222 20.9093H47.5714V20.0751H48.5222V18.8188H49.3934V24.1071H48.5222V20.9044V20.9093ZM51.1159 24.1121H50.2148V18.8238H51.1159V24.1121Z" fill="black"/>
<path d="M54.5563 22.5831H52.0771V21.7489H57.8518V22.5831H55.4772V25.4532H54.5513V22.5831H54.5563ZM54.9695 19.3307L53.6453 20.865L52.9284 20.3039L54.1978 18.8043H53.1475V17.9453H56.7666V18.8043H55.7162L57.0404 20.2642L56.3484 20.865L54.9744 19.3307H54.9695Z" fill="black"/>
<path d="M59.126 21.7536H63.3873V22.5878H59.126V21.7536ZM60.7289 16.7335V15.7603H61.6648V16.7335H63.0139V17.5379H59.4197V16.7335H60.7289ZM61.2168 17.7812C62.0531 17.7812 62.7202 18.4615 62.7202 19.2808C62.7202 20.1001 62.0531 20.7804 61.2168 20.7804C60.3805 20.7804 59.7134 20.1001 59.7134 19.2808C59.7134 18.4615 60.3805 17.7812 61.2168 17.7812ZM61.2168 18.6154C60.8434 18.6154 60.5497 18.9233 60.5497 19.2808C60.5497 19.6383 60.8434 19.9462 61.2168 19.9462C61.5902 19.9462 61.8839 19.6383 61.8839 19.2808C61.8839 18.9233 61.5902 18.6154 61.2168 18.6154ZM64.9255 24.0676H64.0145V18.7793H64.9255V24.0676Z" fill="#027ABF"/>
<path d="M66.125 19.0228H69.1916V22.1709H66.125V19.0228ZM67.036 19.8421V21.3417H68.2805V19.8421H67.036ZM69.4255 22.9555C70.3614 22.9555 71.133 23.6854 71.133 24.609C71.133 25.5326 70.3614 26.2625 69.4255 26.2625C68.4896 26.2625 67.718 25.5326 67.718 24.609C67.718 23.6854 68.4896 22.9555 69.4255 22.9555ZM69.4006 23.8393C68.9626 23.8393 68.6041 24.1869 68.6041 24.6189C68.6041 25.0509 68.9626 25.3985 69.4006 25.3985C69.8387 25.3985 70.1971 25.0509 70.1971 24.6189C70.1971 24.1869 69.8238 23.8393 69.4006 23.8393ZM71.133 21.0884V22.3447H70.222V18.7993H71.133V20.2592H72.1585V21.0934H71.133V21.0884Z" fill="#027ABF"/>
<path d="M76.4594 21.9969H73.5322V18.9729H74.4582V21.1478H76.4594V21.9919V21.9969ZM78.2067 20.9094V24.0973H77.2957V18.7842H78.2067V20.0752H79.3368V20.9094H78.2067Z" fill="#ED4380"/>
<path d="M82.7874 21.0983H80.3232V20.2641H86.0979V21.0983H83.6984V22.3893H82.7874V21.0983ZM84.8534 19.2412H81.5429V16.8081H82.439V18.3971H84.8534V19.2412ZM81.6723 22.7618H84.7936V25.5772H81.6723V22.7618ZM82.6082 23.596V24.7331H83.8528V23.596H82.6082Z" fill="#ED4380"/>
<path d="M89.1296 20.8798H87.1782V20.0356H89.1296V19.112H87.1533V18.2778H90.0407V22.2205H89.1296V20.8748V20.8798ZM92.3256 20.9046V24.0925H91.4146V18.7793H92.3256V20.0704H93.4557V20.9046H92.3256Z" fill="black"/>
<path d="M100.221 22.5831H94.4463V21.7389H100.221V22.5831ZM95.7008 20.6217V17.8311H98.9217V18.6653H96.6217V19.8024H98.9217V20.6217H95.7008Z" fill="black"/>
<path d="M71.5913 14.6084C71.5913 14.6084 71.5515 14.5786 71.5266 14.5737C71.427 14.5538 71.3274 14.6233 71.1781 14.7475L71.0586 14.8368C70.6454 15.0553 70.3318 16.0832 70.2621 16.5053C70.2472 16.5102 70.2422 16.5152 70.2173 16.5301C69.9634 16.0931 69.5005 15.6859 69.0176 15.6264C69.2117 16.3563 69.8539 18.5659 70.7151 18.3723C71.1532 18.273 72.0592 16.4457 72.0692 15.4377V15.4029C72.0642 14.8666 71.8153 14.6779 71.5963 14.6134L71.5913 14.6084Z" fill="#F08300"/>
<path d="M13.6754 57.8184C13.8098 57.8333 13.9641 57.8184 14.1732 57.7986C14.5317 57.7489 14.8702 57.5999 15.129 57.3566C15.4327 57.0835 15.6468 56.6863 15.7314 56.145H15.7115C15.4576 56.4529 15.0942 56.6366 14.6362 56.6366C13.8148 56.6366 13.2871 56.0209 13.2871 55.2413C13.2871 54.3773 13.9144 53.6226 14.8453 53.6226C15.7762 53.6226 16.3586 54.3773 16.3586 55.5442C16.3586 56.5472 16.0201 57.2474 15.5721 57.6794C15.2186 58.022 14.7358 58.2355 14.2429 58.2901C14.0189 58.3249 13.8198 58.3299 13.6754 58.3249V57.8184ZM13.8994 55.1966C13.8994 55.7627 14.2429 56.1649 14.7756 56.1649C15.1888 56.1649 15.5123 55.9613 15.6766 55.6882C15.7115 55.6336 15.7314 55.5641 15.7314 55.4648C15.7314 54.6852 15.4427 54.0893 14.7955 54.0893C14.2678 54.0893 13.8944 54.5511 13.8944 55.1966H13.8994Z" fill="#231F20"/>
<path d="M19.3551 58.2502V57.0089H17.2344V56.6017L19.2704 53.6919H19.9375V56.5222H20.5747V57.0039H19.9375V58.2453H19.3551V58.2502ZM19.3551 56.5272V55.0078C19.3551 54.7694 19.3601 54.5311 19.375 54.2927H19.3551C19.2157 54.5609 19.1012 54.7545 18.9767 54.9631L17.8616 56.5123V56.5272H19.3601H19.3551Z" fill="#231F20"/>
<path d="M21.5205 57.093C21.5205 56.517 21.864 56.1099 22.4265 55.8715V55.8517C21.9138 55.6133 21.6947 55.221 21.6947 54.8288C21.6947 54.1088 22.3071 53.6172 23.1085 53.6172C23.9947 53.6172 24.4377 54.1733 24.4377 54.7394C24.4377 55.1267 24.2485 55.5388 23.686 55.807V55.8268C24.2535 56.0503 24.607 56.4525 24.607 57.0037C24.607 57.7982 23.925 58.3295 23.0538 58.3295C22.098 58.3295 21.5205 57.7634 21.5205 57.098V57.093ZM23.9797 57.0633C23.9797 56.5121 23.5914 56.2439 22.9741 56.0702C22.4415 56.2241 22.1527 56.5766 22.1527 57.0086C22.1328 57.4704 22.4813 57.8776 23.0637 57.8776C23.6462 57.8776 23.9747 57.535 23.9747 57.0633H23.9797ZM22.2772 54.7841C22.2772 55.2409 22.6207 55.4842 23.1484 55.6233C23.5416 55.4892 23.8453 55.2111 23.8453 54.794C23.8453 54.4315 23.6263 54.0492 23.0737 54.0492C22.5609 54.0492 22.2822 54.3868 22.2822 54.7791L22.2772 54.7841Z" fill="#231F20"/>
<path d="M25.8517 57.5452C26.0259 57.6594 26.4341 57.8332 26.8623 57.8332C27.6538 57.8332 27.9027 57.3268 27.8977 56.9494C27.8927 56.3088 27.3153 56.0407 26.7179 56.0407H26.3744V55.5789H26.7179C27.1659 55.5789 27.7384 55.3455 27.7384 54.8092C27.7384 54.4468 27.5044 54.124 26.9369 54.124C26.5735 54.124 26.2201 54.2829 26.0259 54.4269L25.8616 53.98C26.1006 53.8062 26.5636 53.6274 27.0564 53.6274C27.9574 53.6274 28.3657 54.1588 28.3657 54.7149C28.3657 55.1866 28.0869 55.5839 27.5243 55.7874V55.8023C28.0869 55.9165 28.5449 56.3336 28.5449 56.9742C28.5449 57.7041 27.9774 58.3397 26.8822 58.3397C26.3694 58.3397 25.9214 58.1808 25.6924 58.0319L25.8616 57.5552L25.8517 57.5452Z" fill="#231F20"/>
<path d="M37.2267 54.2728H37.2118L36.4203 54.6998L36.3008 54.2281L37.2964 53.6968H37.8241V58.2502H37.2267V54.2678V54.2728Z" fill="#231F20"/>
<path d="M41.3586 54.2728H41.3436L40.5521 54.6998L40.4326 54.2281L41.4283 53.6968H41.9559V58.2502H41.3586V54.2678V54.2728Z" fill="#231F20"/>
<path d="M45.4855 54.2728H45.4706L44.679 54.6998L44.5596 54.2281L45.5552 53.6968H46.0829V58.2502H45.4855V54.2678V54.2728Z" fill="#231F20"/>
<path d="M51.2408 53.6968V54.1039L49.2495 58.2551H48.6123L50.5936 54.2231V54.2082H48.3584V53.6968H51.2408Z" fill="#231F20"/>
<path d="M61.4204 53.6968V54.1039L59.4292 58.2551H58.792L60.7733 54.2231V54.2082H58.5381V53.6968H61.4204Z" fill="#231F20"/>
<path d="M65.194 54.1339C65.0695 54.129 64.9052 54.1339 64.731 54.1637C63.7603 54.3276 63.2475 55.0327 63.143 55.7825H63.1629C63.3819 55.4945 63.7603 55.2561 64.268 55.2561C65.0745 55.2561 65.647 55.8371 65.647 56.7259C65.647 57.5601 65.0795 58.3298 64.1286 58.3298C63.1778 58.3298 62.5107 57.575 62.5107 56.3883C62.5107 55.4895 62.8343 54.7844 63.2824 54.3375C63.6607 53.9651 64.1685 53.7367 64.7459 53.6622C64.9301 53.6324 65.0845 53.6274 65.194 53.6274V54.1339ZM65.0197 56.7607C65.0197 56.1102 64.6464 55.7179 64.0789 55.7179C63.7055 55.7179 63.362 55.9513 63.1928 56.279C63.1529 56.3485 63.1231 56.4429 63.1231 56.5521C63.138 57.3019 63.4815 57.8531 64.1286 57.8531C64.6613 57.8531 65.0197 57.4112 65.0197 56.7607Z" fill="#231F20"/>
<path d="M66.6582 57.093C66.6582 56.517 67.0017 56.1099 67.5642 55.8715V55.8517C67.0515 55.6133 66.8324 55.221 66.8324 54.8288C66.8324 54.1088 67.4448 53.6172 68.2462 53.6172C69.1324 53.6172 69.5754 54.1733 69.5754 54.7394C69.5754 55.1267 69.3862 55.5388 68.8237 55.807V55.8268C69.3912 56.0503 69.7447 56.4525 69.7447 57.0037C69.7447 57.7982 69.0627 58.3295 68.1915 58.3295C67.2357 58.3295 66.6582 57.7634 66.6582 57.098V57.093ZM69.1174 57.0633C69.1174 56.5121 68.7291 56.2439 68.1118 56.0702C67.5792 56.2241 67.2904 56.5766 67.2904 57.0086C67.2705 57.4704 67.619 57.8776 68.2014 57.8776C68.7839 57.8776 69.1124 57.535 69.1124 57.0633H69.1174ZM67.4149 54.7841C67.4149 55.2409 67.7584 55.4842 68.2861 55.6233C68.6793 55.4892 68.983 55.2111 68.983 54.794C68.983 54.4315 68.764 54.0492 68.2114 54.0492C67.6986 54.0492 67.4199 54.3868 67.4199 54.7791L67.4149 54.7841Z" fill="#231F20"/>
<path d="M72.7564 58.2502V57.0089H70.6357V56.6017L72.6718 53.6919H73.3389V56.5222H73.9761V57.0039H73.3389V58.2453H72.7564V58.2502ZM72.7564 56.5272V55.0078C72.7564 54.7694 72.7614 54.5311 72.7764 54.2927H72.7564C72.617 54.5609 72.5026 54.7545 72.3781 54.9631L71.263 56.5123V56.5272H72.7614H72.7564Z" fill="#231F20"/>
<path d="M80.9697 57.093C80.9697 56.517 81.3132 56.1099 81.8758 55.8715V55.8517C81.363 55.6133 81.144 55.221 81.144 54.8288C81.144 54.1088 81.7563 53.6172 82.5578 53.6172C83.4439 53.6172 83.8869 54.1733 83.8869 54.7394C83.8869 55.1267 83.6978 55.5388 83.1352 55.807V55.8268C83.7027 56.0503 84.0562 56.4525 84.0562 57.0037C84.0562 57.7982 83.3742 58.3295 82.503 58.3295C81.5472 58.3295 80.9697 57.7634 80.9697 57.098V57.093ZM83.4289 57.0633C83.4289 56.5121 83.0407 56.2439 82.4234 56.0702C81.8907 56.2241 81.602 56.5766 81.602 57.0086C81.582 57.4704 81.9305 57.8776 82.513 57.8776C83.0954 57.8776 83.424 57.535 83.424 57.0633H83.4289ZM81.7264 54.7841C81.7264 55.2409 82.0699 55.4842 82.5976 55.6233C82.9909 55.4892 83.2945 55.2111 83.2945 54.794C83.2945 54.4315 83.0755 54.0492 82.5229 54.0492C82.0102 54.0492 81.7314 54.3868 81.7314 54.7791L81.7264 54.7841Z" fill="#231F20"/>
<path d="M85.1562 58.25V57.8726L85.6391 57.4009C86.804 56.2936 87.3317 55.7027 87.3417 55.0175C87.3417 54.5557 87.1177 54.1286 86.4356 54.1286C86.0225 54.1286 85.679 54.3372 85.4649 54.5159L85.2707 54.079C85.5844 53.8108 86.0374 53.6172 86.5651 53.6172C87.5507 53.6172 87.9639 54.2925 87.9639 54.943C87.9639 55.7822 87.3516 56.4624 86.3908 57.391L86.0274 57.7286V57.7435H88.0784V58.255H85.1612L85.1562 58.25Z" fill="#231F20"/>
<path d="M92.3201 55.9266C92.3201 57.4758 91.7427 58.3299 90.7321 58.3299C89.841 58.3299 89.2337 57.4957 89.2188 55.9911C89.2188 54.4617 89.8808 53.6226 90.8068 53.6226C91.7327 53.6226 92.3152 54.4766 92.3152 55.9266H92.3201ZM89.841 55.9961C89.841 57.1828 90.2044 57.8532 90.767 57.8532C91.3992 57.8532 91.7029 57.1183 91.7029 55.9514C91.7029 54.7845 91.4141 54.0943 90.7769 54.0943C90.2343 54.0943 89.841 54.7547 89.841 55.9961Z" fill="#231F20"/>
<path d="M96.452 55.9266C96.452 57.4758 95.8745 58.3299 94.8639 58.3299C93.9729 58.3299 93.3655 57.4957 93.3506 55.9911C93.3506 54.4617 94.0127 53.6226 94.9386 53.6226C95.8646 53.6226 96.447 54.4766 96.447 55.9266H96.452ZM93.9729 55.9961C93.9729 57.1828 94.3363 57.8532 94.8988 57.8532C95.531 57.8532 95.8347 57.1183 95.8347 55.9514C95.8347 54.7845 95.546 54.0943 94.9087 54.0943C94.3661 54.0943 93.9729 54.7547 93.9729 55.9961Z" fill="#231F20"/>
<path d="M68.2256 6.5594L68.1808 6.79774L68.6687 7.23471L68.7682 7.89512L68.9226 7.9845L68.9674 7.95471L68.8579 7.11553L68.2306 6.56436L68.2256 6.5594ZM69.8784 5.99333L69.2611 6.21678L68.6338 5.98836L68.4845 6.13733L69.276 6.43526L70.0626 6.14229L69.8734 5.99333H69.8784ZM70.3364 6.65374V6.64381L69.6743 7.17015L69.5249 7.99443L69.7489 7.91002L69.8684 7.26947L70.3861 6.84243L70.3364 6.65374ZM69.744 6.89705C69.744 6.64381 69.5349 6.43526 69.281 6.43526C69.0271 6.43526 68.818 6.64381 68.818 6.89705C68.818 7.15029 69.0271 7.35884 69.281 7.35884C69.5349 7.35884 69.744 7.15029 69.744 6.89705ZM70.9238 6.97153C70.884 7.80078 70.2268 8.47112 69.4005 8.53071C69.4005 8.48105 69.4005 8.4165 69.4104 8.36685C70.1671 8.30229 70.7645 7.66671 70.7645 6.89705C70.7645 6.1274 70.1621 5.48188 69.3955 5.42229C69.3855 5.37264 69.3756 5.31305 69.3756 5.25843C70.2069 5.30312 70.874 5.96353 70.9238 6.79278H71.108C71.0532 5.83443 70.2617 5.07471 69.286 5.07471C68.3102 5.07471 67.5187 5.83443 67.464 6.79278H67.6482C67.6979 5.9834 68.3351 5.33291 69.1366 5.2634C69.1366 5.31802 69.1366 5.38753 69.1167 5.42726C68.3799 5.51167 67.8025 6.13733 67.8025 6.89705C67.8025 7.65678 68.3899 8.29733 69.1466 8.36685C69.1565 8.4165 69.1665 8.47609 69.1615 8.53071C68.3351 8.47112 67.678 7.80078 67.6432 6.97153H67.459C67.4988 7.93981 68.3003 8.71443 69.281 8.71443C70.2617 8.71443 71.0632 7.93981 71.103 6.97153H70.9188H70.9238ZM69.2661 8.29733L69.1814 8.16822C68.5193 8.11857 68.0016 7.5674 68.0016 6.89705C68.0016 6.22671 68.5243 5.67553 69.1814 5.62588L69.2561 5.50671L69.3308 5.62091C70.0128 5.65071 70.5604 6.20685 70.5604 6.89705C70.5604 7.58726 70.0227 8.13843 69.3457 8.17319L69.2661 8.29733Z" fill="#464092"/>
<path d="M72.7605 5.35277C72.7605 5.74008 72.8004 6.02311 72.885 6.20187C72.9447 6.33098 73.0294 6.40546 73.1339 6.42532V6.71332C73.0443 6.70835 72.9597 6.6736 72.88 6.61898C72.7705 6.53953 72.6809 6.41539 72.6261 6.25153C72.5614 6.41539 72.4768 6.53456 72.3623 6.61401C72.2826 6.6736 72.193 6.70339 72.1084 6.71332V6.43029C72.2179 6.40546 72.3025 6.33098 72.3623 6.20187C72.4419 6.02311 72.4867 5.74504 72.4867 5.35277H72.1283V5.10449H73.119V5.35277H72.7655H72.7605ZM73.0493 5.67553H73.328V5.10946H73.5919V7.14532H73.328V5.9387H73.0493V5.68049V5.67553ZM73.7661 5.10946H74.0349V7.14532H73.7661V5.10946Z" fill="#1D1D1B"/>
<path d="M75.2206 7.1502V6.48482H74.3594V6.23655H76.3606V6.48482H75.4944V7.1502H75.2206ZM75.5392 5.35765C75.5392 5.48675 75.6189 5.5811 75.7682 5.64069C75.8827 5.68537 76.0569 5.7102 76.2859 5.72013V5.96344C76.0818 5.95848 75.9175 5.93862 75.7831 5.90882C75.579 5.85917 75.4347 5.77972 75.355 5.67048C75.2754 5.77972 75.131 5.85917 74.9219 5.90882C74.7875 5.93862 74.6232 5.95848 74.4291 5.96344V5.72013C74.6581 5.71517 74.8273 5.68537 74.9468 5.64069C75.0961 5.5811 75.1708 5.48675 75.1758 5.35765H74.4291V5.10938H76.2859V5.35765H75.5392Z" fill="#1D1D1B"/>
<path d="M78.6155 6.13724V6.38055H76.6143V6.13724H78.6155ZM77.4406 6.0131H76.8482C76.7935 6.0131 76.7537 5.9982 76.7288 5.97337C76.7039 5.94855 76.6889 5.89889 76.6889 5.82937V5.10938H78.5458V5.34772H76.9677V5.44703H78.5458V5.67544H76.9677V5.77475H78.5458V6.00813H77.4406V6.0131ZM78.267 6.75793H76.684V6.51958H78.5408V7.14524H78.262V6.75793H78.267Z" fill="#1D1D1B"/>
<path d="M80.0984 5.76491C80.0984 5.83442 80.0834 5.88408 80.0536 5.91387C80.0287 5.94366 79.9889 5.9536 79.9341 5.9536H79.0978C79.043 5.9536 79.0032 5.9387 78.9783 5.91387C78.9534 5.88408 78.9385 5.83442 78.9385 5.76491V5.10946H79.2173V5.28325H79.8296V5.10946H80.1034V5.76491H80.0984ZM80.5215 6.3558H79.0331V6.11249H80.8003V6.73815H79.3118V6.88215H80.8003V7.12546H79.1973C79.1426 7.12546 79.1028 7.11056 79.0729 7.08573C79.043 7.05594 79.0281 7.01125 79.0281 6.9467V6.4998H80.5166V6.35084L80.5215 6.3558ZM79.2173 5.70532H79.8296V5.5216H79.2173V5.70532ZM80.5215 5.2187V5.10449H80.8003V5.97346H80.5215V5.8096H80.0138V5.56629H80.5215V5.46698H80.0138V5.22366H80.5215V5.2187Z" fill="#1D1D1B"/>
<path d="M82.4037 5.35277H81.9358C81.9358 5.69539 81.9806 5.95856 82.0752 6.13732C82.1548 6.30118 82.2793 6.39553 82.4386 6.42532V6.71332C82.2942 6.69346 82.1698 6.6438 82.0652 6.55939C81.9557 6.47001 81.8661 6.33098 81.7964 6.15222C81.7217 6.32601 81.6271 6.46504 81.5076 6.55939C81.4031 6.6438 81.2886 6.69346 81.1592 6.71332V6.43029C81.3135 6.40049 81.433 6.30118 81.5176 6.13732C81.6072 5.95856 81.652 5.69539 81.657 5.35773H81.189V5.10946H82.4087V5.35773L82.4037 5.35277ZM83.0459 6.07773V7.14035H82.7671V5.10449H83.0459V5.82946H83.3247V6.07773H83.0459Z" fill="#1D1D1B"/>
<path d="M84.2256 5.43705H84.1957C84.2057 5.74988 84.2505 5.98822 84.3401 6.15705C84.4247 6.31098 84.5392 6.40036 84.6935 6.43015V6.71815C84.5492 6.69829 84.4247 6.6536 84.3202 6.56919C84.2107 6.48477 84.1211 6.35567 84.0514 6.18188C83.9767 6.34574 83.8821 6.47484 83.7626 6.56422C83.6581 6.64367 83.5386 6.69332 83.4092 6.71319V6.43015C83.5585 6.40036 83.673 6.30601 83.7576 6.15208C83.8473 5.98326 83.897 5.74491 83.907 5.43705H83.439V5.18877H83.907V4.99512H84.2007V5.18877H84.6637V5.43705H84.2306H84.2256ZM85.0271 5.10932H85.3059V7.16505H85.0271V5.10932Z" fill="#1D1D1B"/>
<path d="M86.76 6.17167V6.78243H87.6262V7.03071H85.625V6.78243H86.4912V6.17167H86.76ZM87.4968 5.10409V5.3474H86.0332V5.9234H87.4968V6.16671H85.9187C85.864 6.16671 85.8191 6.15181 85.7943 6.12698C85.7694 6.10216 85.7544 6.0525 85.7544 5.98795V5.09912H87.4968V5.10409Z" fill="#1D1D1B"/>
<path d="M88.4822 6.78275H88.7909V5.92869H89.0647V6.78275H89.8811V7.03103H87.8799V6.78275H88.2084V5.92869H88.4822V6.78275ZM89.4381 6.91186V5.35765H87.9994V5.10938H89.7119V6.91186H89.4331H89.4381Z" fill="#1D1D1B"/>
<path d="M90.553 6.15209H90.1299V5.90381H92.1311V6.15209H91.7129V6.45002H91.4391V6.15209H90.8268V6.45002H90.553V6.15209ZM91.7826 6.67347H90.1996V6.42519H92.0564V7.14519H91.7777V6.67347H91.7826ZM91.5636 5.1143C91.698 5.21857 91.7627 5.35761 91.7627 5.52147C91.7627 5.68533 91.698 5.82437 91.5636 5.93361C91.4391 6.03292 91.2948 6.08754 91.1305 6.08754C90.9563 6.08754 90.8069 6.03788 90.6775 5.93361C90.5431 5.82437 90.4784 5.68533 90.4784 5.52147C90.4784 5.35761 90.5431 5.21857 90.6775 5.1143C90.8019 5.01499 90.9513 4.96533 91.1305 4.96533C91.2948 4.96533 91.4391 5.01499 91.5636 5.1143ZM90.8766 5.29802C90.8019 5.36257 90.7671 5.44202 90.7671 5.53637C90.7671 5.63071 90.8019 5.70519 90.8766 5.76975C90.9513 5.8343 91.0359 5.86409 91.1305 5.86409C91.2201 5.86409 91.2997 5.8343 91.3694 5.76975C91.4441 5.70023 91.479 5.62575 91.479 5.53637C91.479 5.44202 91.4441 5.36257 91.3694 5.29802C91.2997 5.23347 91.2201 5.20368 91.1305 5.20368C91.0309 5.20368 90.9463 5.23347 90.8766 5.29802Z" fill="#1D1D1B"/>
<path d="M93.6292 5.43217H93.1912C93.2011 5.53148 93.2409 5.61092 93.3007 5.67051C93.3753 5.74003 93.4898 5.78472 93.6392 5.79961V6.06279C93.5247 6.06279 93.4202 6.03796 93.3206 5.9883C93.2011 5.93368 93.1115 5.8592 93.0418 5.75989C92.9721 5.8592 92.8775 5.93865 92.7481 5.99327C92.6436 6.03796 92.544 6.05782 92.4395 6.06279V5.79961C92.5938 5.77975 92.7083 5.74003 92.7829 5.66554C92.8427 5.60596 92.8775 5.52651 92.8875 5.4272H92.4494V5.18389H92.8925V4.99023H93.1862V5.18389H93.6193V5.4272L93.6292 5.43217ZM94.0225 6.17203C94.1619 6.2912 94.2316 6.44513 94.2316 6.62886C94.2316 6.81258 94.1619 6.96651 94.0225 7.08568C93.8931 7.19989 93.7388 7.25451 93.5595 7.25451C93.3803 7.25451 93.231 7.19989 93.1016 7.08568C92.9622 6.96651 92.8974 6.81258 92.8974 6.62886C92.8974 6.44513 92.9671 6.2912 93.1016 6.17203C93.231 6.05782 93.3803 6.0032 93.5595 6.0032C93.7338 6.0032 93.8881 6.05782 94.0225 6.17203ZM93.3056 6.36568C93.226 6.44017 93.1862 6.52458 93.1862 6.62886C93.1862 6.73313 93.226 6.81754 93.3056 6.88706C93.3803 6.95658 93.4699 6.99134 93.5645 6.99134C93.6591 6.99134 93.7487 6.95658 93.8284 6.88706C93.908 6.81258 93.9478 6.72817 93.9478 6.62886C93.9478 6.52954 93.908 6.44017 93.8284 6.36568C93.7537 6.29617 93.6641 6.26637 93.5645 6.26637C93.465 6.26637 93.3803 6.30113 93.3056 6.36568ZM94.0374 5.4421V5.10444H94.3162V6.06775H94.0374V5.68541H93.7089V5.4421H94.0374Z" fill="#1D1D1B"/>
<path d="M72.2824 7.80566H72.3619V8.22277C72.3619 8.38663 72.2824 8.43628 72.1782 8.43628C72.1484 8.43628 72.1136 8.43132 72.0938 8.42139L72.1037 8.35684C72.1037 8.35684 72.1434 8.36677 72.1682 8.36677C72.2377 8.36677 72.2775 8.33697 72.2775 8.21284V7.80566H72.2824Z" fill="#1D1D1B"/>
<path d="M72.5969 8.21792C72.5969 8.32716 72.6665 8.37185 72.7459 8.37185C72.8005 8.37185 72.8403 8.36192 72.8651 8.35199L72.88 8.41158C72.8502 8.42647 72.8055 8.44137 72.736 8.44137C72.6019 8.44137 72.5225 8.35199 72.5225 8.21792C72.5225 8.08385 72.6019 7.97461 72.726 7.97461C72.87 7.97461 72.9048 8.10371 72.9048 8.18316C72.9048 8.19806 72.9048 8.21295 72.9048 8.22289H72.5969V8.21792ZM72.8303 8.15833C72.8303 8.10868 72.8105 8.02426 72.7211 8.02426C72.6416 8.02426 72.6069 8.09875 72.5969 8.15833H72.8303Z" fill="#1D1D1B"/>
<path d="M72.9249 8.55522C72.9597 8.55522 72.9944 8.54032 73.0093 8.52046C73.0292 8.49563 73.0391 8.46087 73.0391 8.35163V7.97425H73.1185V8.38142C73.1185 8.46584 73.1037 8.52542 73.0639 8.56515C73.0292 8.59991 72.9696 8.6148 72.9299 8.6148L72.9199 8.55025L72.9249 8.55522ZM73.0788 7.8948C73.049 7.8948 73.0292 7.86998 73.0292 7.84018C73.0292 7.81039 73.049 7.79053 73.0788 7.79053C73.1086 7.79053 73.1285 7.81536 73.1285 7.84018C73.1285 7.86501 73.1086 7.8948 73.0788 7.8948Z" fill="#1D1D1B"/>
<path d="M73.5618 8.30233C73.5618 8.34702 73.5618 8.38675 73.5618 8.42151H73.4923V8.34702H73.4873C73.4674 8.38178 73.4228 8.43144 73.3433 8.43144C73.2738 8.43144 73.1943 8.39171 73.1943 8.23778V7.97461H73.2738V8.22289C73.2738 8.3073 73.2986 8.36689 73.3731 8.36689C73.4277 8.36689 73.4625 8.32716 73.4774 8.2924C73.4774 8.28247 73.4823 8.26758 73.4823 8.25268V7.97958H73.5618V8.30233Z" fill="#1D1D1B"/>
<path d="M73.9407 8.3268C73.9754 8.35163 74.0251 8.36653 74.0797 8.36653C74.1592 8.36653 74.2088 8.32184 74.2088 8.26225C74.2088 8.20267 74.1741 8.17287 74.0946 8.13811C73.9953 8.10335 73.9357 8.04873 73.9357 7.95936C73.9357 7.86501 74.0152 7.79053 74.1343 7.79053C74.1939 7.79053 74.2436 7.80542 74.2684 7.82032L74.2485 7.88487C74.2485 7.88487 74.189 7.85508 74.1343 7.85508C74.0499 7.85508 74.0201 7.90473 74.0201 7.94942C74.0201 8.00901 74.0549 8.03384 74.1393 8.0686C74.2436 8.10832 74.2932 8.15798 74.2932 8.25232C74.2932 8.34667 74.2237 8.43108 74.0797 8.43108C74.0201 8.43108 73.9556 8.41122 73.9258 8.39135L73.9456 8.32184L73.9407 8.3268Z" fill="#1D1D1B"/>
<path d="M74.4688 8.12317C74.4688 8.06358 74.4688 8.01889 74.4688 7.97917H74.5384V8.05365H74.5434C74.5733 7.99903 74.6281 7.96924 74.6977 7.96924C74.8023 7.96924 74.8819 8.05862 74.8819 8.19765C74.8819 8.35655 74.7874 8.436 74.6828 8.436C74.6231 8.436 74.5733 8.41117 74.5484 8.36648V8.60979H74.4688V8.12814V8.12317ZM74.5484 8.24234C74.5484 8.24234 74.5484 8.26717 74.5484 8.2771C74.5633 8.33172 74.6131 8.37145 74.6679 8.37145C74.7525 8.37145 74.8023 8.30193 74.8023 8.19765C74.8023 8.10827 74.7575 8.03379 74.6729 8.03379C74.6181 8.03379 74.5683 8.07351 74.5534 8.1331C74.5534 8.14303 74.5534 8.15793 74.5534 8.16786V8.24731L74.5484 8.24234Z" fill="#1D1D1B"/>
<path d="M75.011 8.21792C75.011 8.32716 75.0805 8.37185 75.16 8.37185C75.2146 8.37185 75.2543 8.36192 75.2791 8.35199L75.294 8.41158C75.2642 8.42647 75.2196 8.44137 75.15 8.44137C75.016 8.44137 74.9365 8.35199 74.9365 8.21792C74.9365 8.08385 75.016 7.97461 75.1401 7.97461C75.2841 7.97461 75.3189 8.10371 75.3189 8.18316C75.3189 8.19806 75.3189 8.21295 75.3189 8.22289H75.011V8.21792ZM75.2444 8.15833C75.2444 8.10868 75.2245 8.02426 75.1351 8.02426C75.0557 8.02426 75.0209 8.09875 75.011 8.15833H75.2444Z" fill="#1D1D1B"/>
<path d="M75.742 8.41117C75.742 8.41117 75.6775 8.436 75.6179 8.436C75.4838 8.436 75.3994 8.34662 75.3994 8.20758C75.3994 8.06855 75.4938 7.96924 75.6328 7.96924C75.6775 7.96924 75.7222 7.97917 75.742 7.99407L75.7222 8.05365C75.7222 8.05365 75.6725 8.03379 75.6278 8.03379C75.5285 8.03379 75.4739 8.10827 75.4739 8.20262C75.4739 8.30689 75.5384 8.37145 75.6278 8.37145C75.6725 8.37145 75.7023 8.36151 75.7271 8.35158L75.742 8.41117Z" fill="#1D1D1B"/>
<path d="M75.9373 7.89969C75.9076 7.89969 75.8877 7.87486 75.8877 7.84507C75.8877 7.81527 75.9076 7.79541 75.9373 7.79541C75.9671 7.79541 75.987 7.82024 75.987 7.84507C75.987 7.86989 75.9671 7.89969 75.9373 7.89969ZM75.8976 8.42603V7.97913H75.9771V8.42603H75.8976Z" fill="#1D1D1B"/>
<path d="M76.3739 8.31682C76.3739 8.35655 76.3739 8.39131 76.3788 8.42607H76.3093V8.37145H76.2994C76.2746 8.4062 76.2299 8.436 76.1653 8.436C76.0759 8.436 76.0312 8.37145 76.0312 8.30689C76.0312 8.19765 76.1256 8.13807 76.2944 8.14303V8.1331C76.2944 8.09834 76.2845 8.02882 76.1951 8.02882C76.1554 8.02882 76.1107 8.03876 76.0809 8.06358L76.061 8.00896C76.0958 7.98413 76.1504 7.96924 76.205 7.96924C76.3391 7.96924 76.3739 8.06358 76.3739 8.15296V8.32179V8.31682ZM76.2944 8.19765C76.21 8.19765 76.1107 8.21255 76.1107 8.29696C76.1107 8.35158 76.1455 8.37641 76.1852 8.37641C76.2448 8.37641 76.2795 8.34165 76.2944 8.30193C76.2944 8.292 76.2944 8.28207 76.2944 8.2771V8.19765Z" fill="#1D1D1B"/>
<path d="M76.5342 7.771H76.6136V8.42644H76.5342V7.771Z" fill="#1D1D1B"/>
<path d="M76.9729 8.3268C77.0077 8.35163 77.0573 8.36653 77.1119 8.36653C77.1914 8.36653 77.241 8.32184 77.241 8.26225C77.241 8.20267 77.2063 8.17287 77.1268 8.13811C77.0275 8.10335 76.9679 8.04873 76.9679 7.95936C76.9679 7.86501 77.0474 7.79053 77.1666 7.79053C77.2261 7.79053 77.2758 7.80542 77.3006 7.82032L77.2808 7.88487C77.2808 7.88487 77.2212 7.85508 77.1666 7.85508C77.0821 7.85508 77.0524 7.90473 77.0524 7.94942C77.0524 8.00901 77.0871 8.03384 77.1715 8.0686C77.2758 8.10832 77.3255 8.15798 77.3255 8.25232C77.3255 8.34667 77.2559 8.43108 77.1119 8.43108C77.0524 8.43108 76.9878 8.41122 76.958 8.39135L76.9779 8.32184L76.9729 8.3268Z" fill="#1D1D1B"/>
<path d="M77.5501 8.21792C77.5501 8.32716 77.6196 8.37185 77.699 8.37185C77.7537 8.37185 77.7934 8.36192 77.8182 8.35199L77.8331 8.41158C77.8033 8.42647 77.7586 8.44137 77.6891 8.44137C77.555 8.44137 77.4756 8.35199 77.4756 8.21792C77.4756 8.08385 77.555 7.97461 77.6792 7.97461C77.8232 7.97461 77.8579 8.10371 77.8579 8.18316C77.8579 8.19806 77.8579 8.21295 77.8579 8.22289H77.5501V8.21792ZM77.7834 8.15833C77.7834 8.10868 77.7636 8.02426 77.6742 8.02426C77.5948 8.02426 77.56 8.09875 77.5501 8.15833H77.7834Z" fill="#1D1D1B"/>
<path d="M77.9629 7.771H78.0423V8.42644H77.9629V7.771Z" fill="#1D1D1B"/>
<path d="M78.127 8.42644V8.0441H78.0674V7.98451H78.127V7.96465C78.127 7.9001 78.1419 7.84548 78.1766 7.81072C78.2064 7.78093 78.2461 7.771 78.2809 7.771C78.3107 7.771 78.3355 7.77596 78.3504 7.78589L78.3405 7.85044C78.3405 7.85044 78.3107 7.84051 78.2908 7.84051C78.2263 7.84051 78.2064 7.9001 78.2064 7.96962V7.99444H78.3107V8.05403H78.2064V8.43638H78.127V8.42644Z" fill="#1D1D1B"/>
<path d="M78.5653 8.14795V8.20754H78.3418V8.14795H78.5653Z" fill="#1D1D1B"/>
<path d="M79.367 8.39632C79.3322 8.41122 79.2625 8.43108 79.1779 8.43108C79.0833 8.43108 79.0086 8.40625 78.9489 8.34667C78.8941 8.29701 78.8643 8.2126 78.8643 8.11329C78.8643 7.92956 78.9887 7.79053 79.1928 7.79053C79.2625 7.79053 79.3173 7.80542 79.3471 7.82032L79.3272 7.88487C79.2924 7.86998 79.2526 7.86004 79.1928 7.86004C79.0435 7.86004 78.9489 7.95439 78.9489 8.10832C78.9489 8.26225 79.0435 8.3566 79.1829 8.3566C79.2326 8.3566 79.2675 8.35163 79.2874 8.3417V8.15798H79.163V8.09342H79.3621V8.39135L79.367 8.39632Z" fill="#1D1D1B"/>
<path d="M79.7208 8.436C79.6013 8.436 79.5117 8.34662 79.5117 8.20758C79.5117 8.05862 79.6063 7.96924 79.7308 7.96924C79.8552 7.96924 79.9398 8.06358 79.9398 8.19765C79.9398 8.36151 79.8253 8.436 79.7208 8.436ZM79.7208 8.37641C79.7955 8.37641 79.8552 8.30193 79.8552 8.20262C79.8552 8.12814 79.8204 8.03379 79.7258 8.03379C79.6312 8.03379 79.5914 8.12317 79.5914 8.20758C79.5914 8.30689 79.6461 8.38138 79.7208 8.38138V8.37641Z" fill="#1D1D1B"/>
<path d="M80.0837 7.97949L80.1684 8.22777C80.1833 8.26749 80.1933 8.30722 80.2032 8.34197C80.2132 8.30722 80.2281 8.26749 80.2381 8.22777L80.3227 7.97949H80.4073L80.2331 8.42639H80.1584L79.9941 7.97949H80.0788H80.0837Z" fill="#1D1D1B"/>
<path d="M80.512 8.21792C80.512 8.32716 80.5815 8.37185 80.6609 8.37185C80.7156 8.37185 80.7553 8.36192 80.7801 8.35199L80.795 8.41158C80.7652 8.42647 80.7205 8.44137 80.651 8.44137C80.5169 8.44137 80.4375 8.35199 80.4375 8.21792C80.4375 8.08385 80.517 7.97461 80.6411 7.97461C80.7851 7.97461 80.8198 8.10371 80.8198 8.18316C80.8198 8.19806 80.8198 8.21295 80.8198 8.22289H80.512V8.21792ZM80.7454 8.15833C80.7454 8.10868 80.7255 8.02426 80.6361 8.02426C80.5567 8.02426 80.5219 8.09875 80.512 8.15833H80.7454Z" fill="#1D1D1B"/>
<path d="M80.9248 8.1182C80.9248 8.06358 80.9248 8.01889 80.9248 7.97917H80.9943V8.06855H80.9993C81.0192 8.00896 81.0688 7.96924 81.1234 7.96924C81.1334 7.96924 81.1383 7.96924 81.1433 7.96924V8.04372C81.1433 8.04372 81.1284 8.04372 81.1135 8.04372C81.0589 8.04372 81.0191 8.08841 81.0092 8.148C81.0092 8.15793 81.0092 8.17282 81.0092 8.18772V8.42607H80.9298V8.1182H80.9248Z" fill="#1D1D1B"/>
<path d="M81.1787 8.09834C81.1787 8.05365 81.1787 8.01393 81.1787 7.97917H81.2482V8.05365H81.2532C81.2731 8.01393 81.3277 7.96924 81.3972 7.96924C81.4568 7.96924 81.5511 8.004 81.5511 8.15793V8.42607H81.4717V8.16786C81.4717 8.09834 81.4468 8.03379 81.3724 8.03379C81.3227 8.03379 81.278 8.07351 81.2681 8.1182C81.2681 8.12814 81.2631 8.14303 81.2631 8.15793V8.42607H81.1837V8.10331L81.1787 8.09834Z" fill="#1D1D1B"/>
<path d="M81.6815 7.89969C81.6517 7.89969 81.6318 7.87486 81.6318 7.84507C81.6318 7.81527 81.6517 7.79541 81.6815 7.79541C81.7113 7.79541 81.7311 7.82024 81.7311 7.84507C81.7311 7.86989 81.7113 7.89969 81.6815 7.89969ZM81.6418 8.42603V7.97913H81.7212V8.42603H81.6418Z" fill="#1D1D1B"/>
<path d="M81.8066 8.09834C81.8066 8.05365 81.8066 8.01393 81.8066 7.97917H81.8762V8.05365H81.8811C81.901 8.01393 81.9556 7.96924 82.0251 7.96924C82.0847 7.96924 82.1791 8.004 82.1791 8.15793V8.42607H82.0996V8.16786C82.0996 8.09834 82.0748 8.03379 82.0003 8.03379C81.9506 8.03379 81.9059 8.07351 81.896 8.1182C81.896 8.12814 81.8911 8.14303 81.8911 8.15793V8.42607H81.8116V8.10331L81.8066 8.09834Z" fill="#1D1D1B"/>
<path d="M82.6523 8.3616C82.6523 8.46587 82.6323 8.52546 82.5875 8.56518C82.5427 8.60491 82.483 8.6198 82.4282 8.6198C82.3735 8.6198 82.3187 8.60491 82.2839 8.58505L82.3038 8.52049C82.3337 8.54035 82.3785 8.55525 82.4332 8.55525C82.5129 8.55525 82.5726 8.51056 82.5726 8.39635V8.3467C82.5477 8.38642 82.5029 8.42118 82.4332 8.42118C82.3237 8.42118 82.249 8.32684 82.249 8.2027C82.249 8.05373 82.3436 7.96436 82.4481 7.96436C82.5228 7.96436 82.5626 8.00408 82.5826 8.03884V7.97429H82.6572C82.6572 8.00408 82.6572 8.0438 82.6572 8.09346V8.35167L82.6523 8.3616ZM82.5726 8.15801C82.5726 8.15801 82.5726 8.13318 82.5726 8.12325C82.5577 8.0736 82.5178 8.03884 82.4631 8.03884C82.3884 8.03884 82.3337 8.10339 82.3337 8.20767C82.3337 8.29208 82.3785 8.36656 82.4631 8.36656C82.5129 8.36656 82.5577 8.33677 82.5726 8.28215C82.5726 8.26725 82.5776 8.25236 82.5776 8.23746V8.15801H82.5726Z" fill="#1D1D1B"/>
<path d="M83.0753 7.81568C83.115 7.81071 83.1647 7.80078 83.2242 7.80078C83.3037 7.80078 83.3583 7.82064 83.3931 7.85044C83.4278 7.88023 83.4477 7.92492 83.4477 7.97954C83.4477 8.03416 83.4328 8.07885 83.398 8.11361C83.3583 8.1583 83.2888 8.18313 83.2143 8.18313C83.1895 8.18313 83.1696 8.18313 83.1498 8.17816V8.42644H83.0703V7.81568H83.0753ZM83.1547 8.11361C83.1547 8.11361 83.1945 8.11857 83.2193 8.11857C83.3136 8.11857 83.3732 8.06892 83.3732 7.98451C83.3732 7.90009 83.3186 7.86037 83.2292 7.86037C83.1945 7.86037 83.1696 7.86037 83.1547 7.86533V8.10864V8.11361Z" fill="#1D1D1B"/>
<path d="M83.5986 8.1182C83.5986 8.06358 83.5986 8.01889 83.5986 7.97917H83.6682V8.06855H83.6731C83.693 8.00896 83.7426 7.96924 83.7973 7.96924C83.8072 7.96924 83.8122 7.96924 83.8171 7.96924V8.04372C83.8171 8.04372 83.8022 8.04372 83.7873 8.04372C83.7327 8.04372 83.693 8.08841 83.6831 8.148C83.6831 8.15793 83.6831 8.17282 83.6831 8.18772V8.42607H83.6036V8.1182H83.5986Z" fill="#1D1D1B"/>
<path d="M84.0362 8.436C83.9168 8.436 83.8271 8.34662 83.8271 8.20758C83.8271 8.05862 83.9217 7.96924 84.0462 7.96924C84.1706 7.96924 84.2553 8.06358 84.2553 8.19765C84.2553 8.36151 84.1408 8.436 84.0362 8.436ZM84.0362 8.37641C84.1109 8.37641 84.1706 8.30193 84.1706 8.20262C84.1706 8.12814 84.1358 8.03379 84.0412 8.03379C83.9466 8.03379 83.9068 8.12317 83.9068 8.20758C83.9068 8.30689 83.9616 8.38138 84.0362 8.38138V8.37641Z" fill="#1D1D1B"/>
<path d="M84.405 7.97949L84.4897 8.22777C84.5046 8.26749 84.5146 8.30722 84.5245 8.34197C84.5345 8.30722 84.5494 8.26749 84.5594 8.22777L84.644 7.97949H84.7286L84.5544 8.42639H84.4797L84.3154 7.97949H84.4001H84.405Z" fill="#1D1D1B"/>
<path d="M84.8133 7.89969C84.7835 7.89969 84.7637 7.87486 84.7637 7.84507C84.7637 7.81527 84.7835 7.79541 84.8133 7.79541C84.8431 7.79541 84.863 7.82024 84.863 7.84507C84.863 7.86989 84.8431 7.89969 84.8133 7.89969ZM84.7736 8.42603V7.97913H84.853V8.42603H84.7736Z" fill="#1D1D1B"/>
<path d="M84.9375 8.09834C84.9375 8.05365 84.9375 8.01393 84.9375 7.97917H85.007V8.05365H85.012C85.0318 8.01393 85.0865 7.96924 85.156 7.96924C85.2156 7.96924 85.3099 8.004 85.3099 8.15793V8.42607H85.2305V8.16786C85.2305 8.09834 85.2056 8.03379 85.1312 8.03379C85.0815 8.03379 85.0368 8.07351 85.0269 8.1182C85.0269 8.12814 85.0219 8.14303 85.0219 8.15793V8.42607H84.9425V8.10331L84.9375 8.09834Z" fill="#1D1D1B"/>
<path d="M85.7186 8.41117C85.7186 8.41117 85.654 8.436 85.5945 8.436C85.4604 8.436 85.376 8.34662 85.376 8.20758C85.376 8.06855 85.4703 7.96924 85.6094 7.96924C85.654 7.96924 85.6987 7.97917 85.7186 7.99407L85.6987 8.05365C85.6987 8.05365 85.6491 8.03379 85.6044 8.03379C85.5051 8.03379 85.4505 8.10827 85.4505 8.20262C85.4505 8.30689 85.515 8.37145 85.6044 8.37145C85.6491 8.37145 85.6789 8.36151 85.7037 8.35158L85.7186 8.41117Z" fill="#1D1D1B"/>
<path d="M85.9129 7.89969C85.8831 7.89969 85.8633 7.87486 85.8633 7.84507C85.8633 7.81527 85.8831 7.79541 85.9129 7.79541C85.9427 7.79541 85.9626 7.82024 85.9626 7.84507C85.9626 7.86989 85.9427 7.89969 85.9129 7.89969ZM85.8732 8.42603V7.97913H85.9527V8.42603H85.8732Z" fill="#1D1D1B"/>
<path d="M86.3504 8.31682C86.3504 8.35655 86.3504 8.39131 86.3554 8.42607H86.2859V8.37145H86.2759C86.2511 8.4062 86.2064 8.436 86.1419 8.436C86.0525 8.436 86.0078 8.37145 86.0078 8.30689C86.0078 8.19765 86.1022 8.13807 86.271 8.14303V8.1331C86.271 8.09834 86.2611 8.02882 86.1717 8.02882C86.132 8.02882 86.0873 8.03876 86.0575 8.06358L86.0376 8.00896C86.0724 7.98413 86.127 7.96924 86.1816 7.96924C86.3157 7.96924 86.3504 8.06358 86.3504 8.15296V8.32179V8.31682ZM86.271 8.19765C86.1866 8.19765 86.0873 8.21255 86.0873 8.29696C86.0873 8.35158 86.122 8.37641 86.1617 8.37641C86.2213 8.37641 86.2561 8.34165 86.271 8.30193C86.271 8.292 86.271 8.28207 86.271 8.2771V8.19765Z" fill="#1D1D1B"/>
<path d="M86.5107 7.771H86.5902V8.42644H86.5107V7.771Z" fill="#1D1D1B"/>
<path d="M87.1927 8.43596C87.0285 8.43596 86.9189 8.30686 86.9189 8.12313C86.9189 7.92451 87.0384 7.79541 87.2027 7.79541C87.367 7.79541 87.4765 7.92451 87.4765 8.10824C87.4765 8.32176 87.3471 8.43596 87.1927 8.43596ZM87.1927 8.37141C87.3172 8.37141 87.3869 8.25224 87.3869 8.1132C87.3869 7.98907 87.3222 7.85996 87.1927 7.85996C87.0633 7.85996 86.9986 7.9841 86.9986 8.11817C86.9986 8.25224 87.0683 8.37141 87.1927 8.37141Z" fill="#1D1D1B"/>
<path d="M87.6104 8.42644V8.0441H87.5508V7.98451H87.6104V7.96465C87.6104 7.9001 87.6253 7.84548 87.66 7.81072C87.6898 7.78093 87.7295 7.771 87.7643 7.771C87.7941 7.771 87.8189 7.77596 87.8338 7.78589L87.8239 7.85044C87.8239 7.85044 87.7941 7.84051 87.7742 7.84051C87.7097 7.84051 87.6898 7.9001 87.6898 7.96962V7.99444H87.7941V8.05403H87.6898V8.43638H87.6104V8.42644Z" fill="#1D1D1B"/>
<path d="M87.8799 8.42644V8.0441H87.8203V7.98451H87.8799V7.96465C87.8799 7.9001 87.8948 7.84548 87.9296 7.81072C87.9593 7.78093 87.9991 7.771 88.0338 7.771C88.0636 7.771 88.0884 7.77596 88.1033 7.78589L88.0934 7.85044C88.0934 7.85044 88.0636 7.84051 88.0438 7.84051C87.9792 7.84051 87.9593 7.9001 87.9593 7.96962V7.99444H88.0636V8.05403H87.9593V8.43638H87.8799V8.42644Z" fill="#1D1D1B"/>
<path d="M88.1737 7.89969C88.1439 7.89969 88.124 7.87486 88.124 7.84507C88.124 7.81527 88.1439 7.79541 88.1737 7.79541C88.2035 7.79541 88.2233 7.82024 88.2233 7.84507C88.2233 7.86989 88.2035 7.89969 88.1737 7.89969ZM88.1339 8.42603V7.97913H88.2134V8.42603H88.1339Z" fill="#1D1D1B"/>
<path d="M88.6161 8.41117C88.6161 8.41117 88.5515 8.436 88.4919 8.436C88.3578 8.436 88.2734 8.34662 88.2734 8.20758C88.2734 8.06855 88.3678 7.96924 88.5068 7.96924C88.5515 7.96924 88.5962 7.97917 88.6161 7.99407L88.5962 8.05365C88.5962 8.05365 88.5465 8.03379 88.5018 8.03379C88.4025 8.03379 88.3479 8.10827 88.3479 8.20262C88.3479 8.30689 88.4125 8.37145 88.5018 8.37145C88.5465 8.37145 88.5763 8.36151 88.6012 8.35158L88.6161 8.41117Z" fill="#1D1D1B"/>
<path d="M88.8206 8.21792C88.8206 8.32716 88.8901 8.37185 88.9695 8.37185C89.0242 8.37185 89.0639 8.36192 89.0887 8.35199L89.1036 8.41158C89.0738 8.42647 89.0291 8.44137 88.9596 8.44137C88.8255 8.44137 88.7461 8.35199 88.7461 8.21792C88.7461 8.08385 88.8255 7.97461 88.9497 7.97461C89.0937 7.97461 89.1284 8.10371 89.1284 8.18316C89.1284 8.19806 89.1284 8.21295 89.1284 8.22289H88.8206V8.21792ZM89.054 8.15833C89.054 8.10868 89.0341 8.02426 88.9447 8.02426C88.8653 8.02426 88.8305 8.09875 88.8206 8.15833H89.054Z" fill="#1D1D1B"/>
<path d="M89.7071 8.436C89.5877 8.436 89.498 8.34662 89.498 8.20758C89.498 8.05862 89.5926 7.96924 89.7171 7.96924C89.8415 7.96924 89.9262 8.06358 89.9262 8.19765C89.9262 8.36151 89.8117 8.436 89.7071 8.436ZM89.7071 8.37641C89.7818 8.37641 89.8415 8.30193 89.8415 8.20262C89.8415 8.12814 89.8067 8.03379 89.7121 8.03379C89.6175 8.03379 89.5777 8.12317 89.5777 8.20758C89.5777 8.30689 89.6325 8.38138 89.7071 8.38138V8.37641Z" fill="#1D1D1B"/>
<path d="M90.0352 8.42644V8.0441H89.9756V7.98451H90.0352V7.96465C90.0352 7.9001 90.0501 7.84548 90.0848 7.81072C90.1146 7.78093 90.1543 7.771 90.1891 7.771C90.2189 7.771 90.2437 7.77596 90.2586 7.78589L90.2487 7.85044C90.2487 7.85044 90.2189 7.84051 90.199 7.84051C90.1345 7.84051 90.1146 7.9001 90.1146 7.96962V7.99444H90.2189V8.05403H90.1146V8.43638H90.0352V8.42644Z" fill="#1D1D1B"/>
<path d="M90.891 8.13339H90.6576V8.35684H90.9207V8.42635H90.5781V7.80566H90.9059V7.87518H90.6576V8.0738H90.891V8.13835V8.13339Z" fill="#1D1D1B"/>
<path d="M91.4786 7.771V8.31224C91.4786 8.35196 91.4786 8.39665 91.4786 8.42644H91.4089V8.347H91.4039C91.3791 8.39665 91.3293 8.43638 91.2546 8.43638C91.1501 8.43638 91.0654 8.347 91.0654 8.20796C91.0654 8.059 91.155 7.96962 91.2596 7.96962C91.3293 7.96962 91.3741 7.99941 91.394 8.03913V7.77596H91.4736L91.4786 7.771ZM91.399 8.15831C91.399 8.15831 91.399 8.13348 91.399 8.12355C91.389 8.07389 91.3442 8.0292 91.2845 8.0292C91.1998 8.0292 91.155 8.10369 91.155 8.203C91.155 8.29238 91.1998 8.36686 91.2845 8.36686C91.3392 8.36686 91.389 8.3321 91.399 8.27251C91.399 8.26258 91.399 8.25265 91.399 8.23776V8.15831Z" fill="#1D1D1B"/>
<path d="M91.9505 8.30233C91.9505 8.34702 91.9505 8.38675 91.9505 8.42151H91.8809V8.34702H91.876C91.8561 8.38178 91.8114 8.43144 91.732 8.43144C91.6625 8.43144 91.583 8.39171 91.583 8.23778V7.97461H91.6625V8.22289C91.6625 8.3073 91.6873 8.36689 91.7618 8.36689C91.8164 8.36689 91.8511 8.32716 91.866 8.2924C91.866 8.28247 91.871 8.26758 91.871 8.25268V7.97958H91.9505V8.30233Z" fill="#1D1D1B"/>
<path d="M92.3543 8.41117C92.3543 8.41117 92.2898 8.436 92.2302 8.436C92.0961 8.436 92.0117 8.34662 92.0117 8.20758C92.0117 8.06855 92.1061 7.96924 92.2451 7.96924C92.2898 7.96924 92.3345 7.97917 92.3543 7.99407L92.3345 8.05365C92.3345 8.05365 92.2848 8.03379 92.2401 8.03379C92.1408 8.03379 92.0862 8.10827 92.0862 8.20262C92.0862 8.30689 92.1507 8.37145 92.2401 8.37145C92.2848 8.37145 92.3146 8.36151 92.3394 8.35158L92.3543 8.41117Z" fill="#1D1D1B"/>
<path d="M92.827 8.31682C92.827 8.35655 92.827 8.39131 92.832 8.42607H92.7624V8.37145H92.7525C92.7277 8.4062 92.683 8.436 92.6184 8.436C92.5291 8.436 92.4844 8.37145 92.4844 8.30689C92.4844 8.19765 92.5787 8.13807 92.7475 8.14303V8.1331C92.7475 8.09834 92.7376 8.02882 92.6482 8.02882C92.6085 8.02882 92.5638 8.03876 92.534 8.06358L92.5142 8.00896C92.5489 7.98413 92.6036 7.96924 92.6582 7.96924C92.7922 7.96924 92.827 8.06358 92.827 8.15296V8.32179V8.31682ZM92.7475 8.19765C92.6631 8.19765 92.5638 8.21255 92.5638 8.29696C92.5638 8.35158 92.5986 8.37641 92.6383 8.37641C92.6979 8.37641 92.7327 8.34165 92.7475 8.30193C92.7475 8.292 92.7475 8.28207 92.7475 8.2771V8.19765Z" fill="#1D1D1B"/>
<path d="M93.0913 7.87517V7.98441H93.2055V8.04399H93.0913V8.28234C93.0913 8.33696 93.1062 8.36675 93.1508 8.36675C93.1707 8.36675 93.1856 8.36675 93.1955 8.36179V8.42137C93.1955 8.42137 93.1608 8.4313 93.131 8.4313C93.0962 8.4313 93.0664 8.41641 93.0466 8.39654C93.0267 8.37172 93.0168 8.33199 93.0168 8.27737V8.03406H92.9473V7.97448H93.0168V7.89006L93.0962 7.86523L93.0913 7.87517Z" fill="#1D1D1B"/>
<path d="M93.2762 7.89969C93.2464 7.89969 93.2266 7.87486 93.2266 7.84507C93.2266 7.81527 93.2464 7.79541 93.2762 7.79541C93.306 7.79541 93.3259 7.82024 93.3259 7.84507C93.3259 7.86989 93.306 7.89969 93.2762 7.89969ZM93.2365 8.42603V7.97913H93.3159V8.42603H93.2365Z" fill="#1D1D1B"/>
<path d="M93.5792 8.436C93.4597 8.436 93.3701 8.34662 93.3701 8.20758C93.3701 8.05862 93.4647 7.96924 93.5892 7.96924C93.7136 7.96924 93.7982 8.06358 93.7982 8.19765C93.7982 8.36151 93.6837 8.436 93.5792 8.436ZM93.5792 8.37641C93.6539 8.37641 93.7136 8.30193 93.7136 8.20262C93.7136 8.12814 93.6788 8.03379 93.5842 8.03379C93.4896 8.03379 93.4498 8.12317 93.4498 8.20758C93.4498 8.30689 93.5045 8.38138 93.5792 8.38138V8.37641Z" fill="#1D1D1B"/>
<path d="M93.8984 8.09834C93.8984 8.05365 93.8984 8.01393 93.8984 7.97917H93.968V8.05365H93.9729C93.9928 8.01393 94.0474 7.96924 94.1169 7.96924C94.1765 7.96924 94.2709 8.004 94.2709 8.15793V8.42607H94.1914V8.16786C94.1914 8.09834 94.1666 8.03379 94.0921 8.03379C94.0424 8.03379 93.9978 8.07351 93.9878 8.1182C93.9878 8.12814 93.9829 8.14303 93.9829 8.15793V8.42607H93.9034V8.10331L93.8984 8.09834Z" fill="#1D1D1B"/>
<path d="M96.7305 4.5083V9.17092" stroke="#1D1D1B" stroke-miterlimit="10"/>
<path d="M103.526 8.45124V8.06889H104.835C104.885 8.06889 104.925 8.02917 104.925 7.97951V7.07082C104.925 7.02117 104.88 6.98145 104.835 6.98145H103.257C103.207 6.98145 103.168 7.02117 103.168 7.07082V7.24462C103.168 7.29427 103.207 7.334 103.257 7.334H104.532V7.71634H103.222C103.173 7.71634 103.133 7.75607 103.133 7.80572V8.71441C103.133 8.76407 103.173 8.80379 103.222 8.80379H104.91C104.96 8.80379 105 8.76407 105 8.71441V8.54062C105 8.49096 104.96 8.45124 104.91 8.45124H103.526Z" fill="#1D1D1B"/>
<path d="M101.33 6.5244V6.35061C101.33 6.30095 101.291 6.26123 101.241 6.26123H100.434C100.385 6.26123 100.345 6.30095 100.345 6.35061V7.5324C100.345 7.58206 100.385 7.62178 100.434 7.62178H101.241C101.291 7.62178 101.33 7.58206 101.33 7.5324V7.35861C101.33 7.30895 101.291 7.26923 101.241 7.26923H100.738V6.61378H101.241C101.291 6.61378 101.33 6.57406 101.33 6.5244Z" fill="#1D1D1B"/>
<path d="M99.21 6.35061V7.5324C99.21 7.58206 99.2498 7.62178 99.2996 7.62178H100.106C100.156 7.62178 100.196 7.58206 100.196 7.5324V7.35861C100.196 7.30895 100.156 7.26923 100.106 7.26923H99.6032V6.61378H100.106C100.156 6.61378 100.196 6.57406 100.196 6.5244V6.35061C100.196 6.30095 100.156 6.26123 100.106 6.26123H99.2996C99.2498 6.26123 99.21 6.30095 99.21 6.35061Z" fill="#1D1D1B"/>
<path d="M100.465 8.29736V9.10178C100.465 9.14151 100.43 9.17626 100.39 9.17626H100.141C100.101 9.17626 100.067 9.14151 100.067 9.10178V8.29736H100.46H100.465Z" fill="#1D1D1B"/>
<path d="M104.796 5.52118H103.521V4.60256C103.521 4.55291 103.481 4.51318 103.432 4.51318H103.213C103.163 4.51318 103.123 4.55291 103.123 4.60256V5.78436C103.123 5.83401 103.163 5.87374 103.213 5.87374H103.865V6.2958H104.258V5.87374H104.791C104.841 5.87374 104.88 5.83401 104.88 5.78436V5.61056C104.88 5.56091 104.841 5.52118 104.791 5.52118H104.796Z" fill="#1D1D1B"/>
<path d="M102.192 6.01807H101.978C101.929 6.01807 101.889 6.05808 101.889 6.10745V8.36676C101.889 8.41612 101.929 8.45614 101.978 8.45614H102.192C102.241 8.45614 102.281 8.41612 102.281 8.36676V6.10745C102.281 6.05808 102.241 6.01807 102.192 6.01807Z" fill="#1D1D1B"/>
<path d="M106.224 6.95624V6.30079H107.056C107.106 6.30079 107.145 6.26107 107.145 6.21141V6.03762C107.145 5.98797 107.106 5.94824 107.056 5.94824H105.916C105.866 5.94824 105.826 5.98797 105.826 6.03762V7.21941C105.826 7.26907 105.866 7.30879 105.916 7.30879H107.23C107.28 7.30879 107.32 7.26907 107.32 7.21941V7.04562C107.32 6.99597 107.28 6.95624 107.23 6.95624H106.219H106.224Z" fill="#1D1D1B"/>
<path d="M109.007 6.12231H108.624V5.3179C108.624 5.26824 108.584 5.22852 108.534 5.22852H108.315C108.265 5.22852 108.226 5.26824 108.226 5.3179V7.27927C108.226 7.32893 108.265 7.36865 108.315 7.36865H108.534C108.584 7.36865 108.624 7.32893 108.624 7.27927V6.47486H109.007C109.057 6.47486 109.097 6.43514 109.097 6.38548V6.21169C109.097 6.16203 109.057 6.12231 109.007 6.12231Z" fill="#1D1D1B"/>
<path d="M106.866 7.74612V8.92791C106.866 8.97757 106.906 9.01729 106.956 9.01729H108.534C108.584 9.01729 108.624 8.97757 108.624 8.92791V7.74612C108.624 7.69646 108.584 7.65674 108.534 7.65674H106.956C106.906 7.65674 106.866 7.69646 106.866 7.74612ZM108.225 8.66474H107.259V8.00929H108.225V8.66474Z" fill="#1D1D1B"/>
<path d="M101.584 7.98438H98.9558C98.9063 7.98438 98.8662 8.02439 98.8662 8.07375V8.24258C98.8662 8.29194 98.9063 8.33196 98.9558 8.33196H101.584C101.634 8.33196 101.674 8.29194 101.674 8.24258V8.07375C101.674 8.02439 101.634 7.98438 101.584 7.98438Z" fill="#009EE2"/>
<path d="M105.353 6.271H102.724C102.675 6.271 102.635 6.31101 102.635 6.36038V6.5292C102.635 6.57857 102.675 6.61858 102.724 6.61858H105.353C105.402 6.61858 105.442 6.57857 105.442 6.5292V6.36038C105.442 6.31101 105.402 6.271 105.353 6.271Z" fill="#EE7D00"/>
<path d="M108.559 4.5083H105.901C105.86 4.5083 105.826 4.54165 105.826 4.58278V4.7814C105.826 4.82254 105.86 4.85589 105.901 4.85589H108.559C108.6 4.85589 108.634 4.82254 108.634 4.7814V4.58278C108.634 4.54165 108.6 4.5083 108.559 4.5083Z" fill="#76B72A"/>
<path d="M99.4137 4.76194C99.4137 4.90097 99.4585 5.03504 99.563 5.0996L99.5132 5.16415C99.4435 5.11946 99.3987 5.04001 99.3738 4.94566C99.3489 5.04497 99.3041 5.13435 99.2295 5.18401L99.1797 5.11449C99.2842 5.04497 99.329 4.90097 99.329 4.75697V4.69739H99.1996V4.62291H99.5282V4.69739H99.4087V4.75697L99.4137 4.76194ZM99.5879 4.55835H99.6676V5.30815H99.5879V4.90097H99.4834V4.82649H99.5879V4.55835ZM99.8119 4.54346V5.34291H99.7323V4.54346H99.8119Z" fill="#1D1D1B"/>
<path d="M100.549 5.06466H100.26V5.34273H100.175V5.06466H99.8916V4.99018H100.549V5.06466ZM99.9314 4.86108C100.071 4.84121 100.17 4.75184 100.175 4.65749H99.9563V4.58301H100.489V4.65749H100.27C100.27 4.75184 100.374 4.83625 100.514 4.86108L100.484 4.93059C100.365 4.91073 100.265 4.84618 100.22 4.7568C100.175 4.84618 100.076 4.91073 99.9613 4.93059L99.9314 4.86108Z" fill="#1D1D1B"/>
<path d="M100.793 4.87109C100.828 4.87109 100.853 4.90089 100.853 4.93565C100.853 4.9704 100.828 5.0002 100.793 5.0002C100.758 5.0002 100.733 4.9704 100.733 4.93565C100.733 4.90089 100.758 4.87109 100.793 4.87109Z" fill="#1D1D1B"/>
<path d="M101.654 5.16388V5.23837H101.002V5.16388H101.151V4.90568H101.231V5.16388H101.326V4.90568H101.405V5.16388H101.649H101.654ZM101.505 4.69216H101.067V4.61768H101.589V4.70209C101.589 4.8014 101.589 4.91064 101.564 5.06457L101.48 5.05464C101.505 4.90568 101.505 4.8014 101.505 4.70209V4.69216Z" fill="#1D1D1B"/>
<path d="M102.187 4.99507V5.08445H102.272V5.34266H102.187V5.15397H101.769V5.07948H101.859V4.99011H101.694V4.91562H102.351V4.99011H102.187V4.99507ZM101.769 4.71204C101.769 4.61769 101.869 4.55811 102.028 4.55811C102.187 4.55811 102.287 4.61769 102.287 4.71204C102.287 4.80638 102.187 4.86597 102.028 4.86597C101.869 4.86597 101.769 4.80638 101.769 4.71204ZM101.854 4.71204C101.854 4.76666 101.918 4.79645 102.028 4.79645C102.137 4.79645 102.202 4.76666 102.202 4.71204C102.202 4.65742 102.137 4.62762 102.028 4.62762C101.918 4.62762 101.854 4.65742 101.854 4.71204ZM102.108 4.99507H101.948V5.08445H102.108V4.99507Z" fill="#1D1D1B"/>
</g>
<defs>
<clipPath id="clip0_6542_40035">
<rect width="114" height="72" fill="white"/>
</clipPath>
</defs>
</svg>
