<svg width="114" height="72" viewBox="0 0 114 72" fill="none" xmlns="http://www.w3.org/2000/svg">
<g clip-path="url(#clip0_6542_40537)">
<mask id="mask0_6542_40537" style="mask-type:luminance" maskUnits="userSpaceOnUse" x="0" y="0" width="114" height="72">
<path d="M109.99 0H4.01C1.79534 0 0 1.79534 0 4.01V67.99C0 70.2047 1.79534 72 4.01 72H109.99C112.205 72 114 70.2047 114 67.99V4.01C114 1.79534 112.205 0 109.99 0Z" fill="white"/>
</mask>
<g mask="url(#mask0_6542_40537)">
<path d="M118.171 -3.92969H-4.19434V75.9053H118.171V-3.92969Z" fill="#E3E9AE"/>
<path d="M39.5653 14.6804H42.2803C42.3603 14.6904 42.4404 14.6904 42.5254 14.6904C43.7704 14.6904 44.7854 13.8354 44.7854 12.7754C44.7854 11.7154 43.8204 10.9004 42.6104 10.8654C42.5654 9.84039 41.5704 9.02539 40.3554 9.02539C40.0854 9.02539 39.8304 9.06539 39.5904 9.14039C39.5854 9.14039 39.5754 9.14539 39.5704 9.14539C39.0954 9.29539 38.6954 9.57039 38.4354 9.93039C38.1204 9.71039 37.7154 9.58039 37.2754 9.58039C36.2654 9.58039 35.4454 10.2754 35.4454 11.1304C35.4454 11.2304 35.4554 11.3304 35.4804 11.4254C34.6854 11.6454 34.1104 12.2754 34.1104 13.0204C34.1104 13.9454 34.9954 14.6954 36.0904 14.6954C36.1854 14.6954 36.2753 14.6904 36.3703 14.6804H39.5704H39.5653Z" fill="white"/>
<path d="M21.0352 21.8954H23.3102C23.3752 21.9004 23.4452 21.9054 23.5152 21.9054C24.5602 21.9054 25.4102 21.1854 25.4102 20.3004C25.4102 19.4154 24.6002 18.7304 23.5852 18.6954C23.5452 17.8354 22.7152 17.1504 21.6902 17.1504C21.4652 17.1504 21.2502 17.1854 21.0502 17.2454C21.0452 17.2454 21.0402 17.2454 21.0302 17.2504C20.6352 17.3754 20.3002 17.6104 20.0752 17.9104C19.8102 17.7254 19.4702 17.6154 19.1052 17.6154C18.2552 17.6154 17.5702 18.1954 17.5702 18.9154C17.5702 19.0004 17.5802 19.0804 17.6002 19.1604C16.9352 19.3454 16.4502 19.8704 16.4502 20.5004C16.4502 21.2754 17.1952 21.9054 18.1102 21.9054C18.1902 21.9054 18.2652 21.9004 18.3452 21.8904H21.0302L21.0352 21.8954Z" fill="white"/>
<path d="M18.4404 4.51514H17.7304V5.99514H14.8304V4.51514H14.1204C13.9504 4.51514 13.8154 4.65014 13.8154 4.81514V8.02514C13.8154 8.19014 13.9504 8.32514 14.1204 8.32514H14.8304V6.73514H17.7304V8.32514H18.4404C18.6104 8.32514 18.7454 8.19014 18.7454 8.02514V4.81514C18.7454 4.65014 18.6104 4.51514 18.4404 4.51514Z" fill="#292122"/>
<path d="M12.6909 4.51514H11.9809V7.32014L9.74594 5.10014C9.39094 4.76014 9.14594 4.51514 8.58094 4.51514H7.96094V8.02514C7.96094 8.19014 8.09594 8.32514 8.26594 8.32514H8.97594V5.50514L11.1909 7.71014C11.5509 8.06014 11.8759 8.32514 12.4009 8.32514H12.9959V4.81514C12.9959 4.65014 12.8609 4.51514 12.6909 4.51514Z" fill="#292122"/>
<path d="M26.6605 6.65539L27.5455 5.82539H27.2305C27.0755 5.82539 26.9905 5.90539 26.9155 5.98039C26.9155 5.98039 26.3955 6.48039 26.3005 6.56539V5.02539H26.1255C26.0205 5.02539 25.9355 5.11039 25.9355 5.21039V7.50539C25.9355 7.61039 26.0205 7.69039 26.1255 7.69039H26.3005V6.75539C26.3305 6.79039 27.0405 7.55039 27.0405 7.55039C27.1155 7.63539 27.1705 7.69039 27.3305 7.69039H27.6555C27.6555 7.69039 26.6705 6.66539 26.6605 6.65039V6.65539Z" fill="#292122"/>
<path d="M24.7959 5.82531H23.9209V7.51031C23.9209 7.61531 24.0059 7.69531 24.1109 7.69531H24.2859V6.12031H24.7559C25.0459 6.13531 25.1459 6.30031 25.1459 6.74531V7.69031H25.3209C25.4259 7.69031 25.5109 7.60531 25.5109 7.50531V6.62531C25.5109 6.10031 25.2609 5.82031 24.7959 5.82031V5.82531Z" fill="#292122"/>
<path d="M21.08 6.39514C21.365 6.28514 21.535 6.10514 21.535 5.79014C21.535 5.36014 21.225 5.14014 20.62 5.14014H20.105C20 5.14014 19.915 5.22514 19.915 5.33014V7.50514C19.915 7.61014 20 7.69014 20.105 7.69014H20.61C21.28 7.69014 21.605 7.46514 21.605 7.00514C21.605 6.66514 21.38 6.45014 21.085 6.39014L21.08 6.39514ZM20.495 6.22514H20.3V5.46014H20.68C20.82 5.46014 21.15 5.49514 21.15 5.83014C21.15 6.20014 20.855 6.22514 20.495 6.22514ZM21.195 6.98014C21.195 7.26014 21.005 7.38014 20.57 7.38014H20.305V6.54014H20.535C20.84 6.54014 21.195 6.59014 21.195 6.97514V6.98014Z" fill="#292122"/>
<path d="M22.6156 7.41516C22.4506 7.41516 22.2756 7.31016 22.2756 7.13516C22.2756 6.83516 22.7256 6.80516 22.9206 6.80516H23.1306V7.41516H22.6156ZM23.3056 7.69516C23.4106 7.69516 23.4956 7.61016 23.4956 7.51016V6.56016C23.4956 6.03016 23.2506 5.78516 22.7306 5.78516C22.5206 5.78516 22.3156 5.84016 22.1256 5.95016V6.27516L22.1406 6.26516C22.2806 6.15016 22.4856 6.08016 22.6806 6.08016C23.0006 6.08016 23.1356 6.21516 23.1356 6.54516C23.0056 6.54016 22.9056 6.54016 22.7756 6.54016C22.4706 6.54016 21.8906 6.66516 21.8906 7.14016C21.8906 7.50016 22.1406 7.70016 22.5906 7.70016H23.3106L23.3056 7.69516Z" fill="#292122"/>
<path d="M3.4707 6.35025L6.3607 5.01025V7.68525L3.4707 6.35025Z" fill="#231C1C"/>
<path d="M100.11 29.6304H102.265C102.945 29.6304 103.495 30.1154 103.495 30.7104L103.155 31.6854C102.95 32.3204 102.365 32.4804 101.75 32.5054" fill="white"/>
<path d="M101.755 32.9654C101.51 32.9654 101.305 32.7704 101.295 32.5204C101.285 32.2654 101.485 32.0504 101.74 32.0404C102.47 32.0104 102.645 31.7804 102.725 31.5404L103.035 30.6404C102.995 30.3304 102.665 30.0904 102.27 30.0904H100.115C99.8603 30.0904 99.6553 29.8854 99.6553 29.6304C99.6553 29.3754 99.8603 29.1704 100.115 29.1704H102.27C103.205 29.1704 103.96 29.8604 103.96 30.7104C103.96 30.7604 103.95 30.8154 103.935 30.8604L103.595 31.8354C103.365 32.5454 102.75 32.9254 101.77 32.9654C101.765 32.9654 101.76 32.9654 101.75 32.9654H101.755Z" fill="#30323A"/>
<path d="M79.0253 29.6304H76.4953C75.7753 29.6304 75.1953 30.1154 75.1953 30.7104L75.5503 31.6854C75.7903 32.3854 76.5153 32.5104 77.2303 32.5104" fill="white"/>
<path d="M77.2305 32.97C76.8055 32.97 75.5055 32.97 75.1155 31.835L74.7605 30.865C74.7405 30.815 74.7305 30.76 74.7305 30.705C74.7305 29.855 75.5205 29.165 76.4905 29.165H79.0205C79.2755 29.165 79.4805 29.37 79.4805 29.625C79.4805 29.88 79.2755 30.085 79.0205 30.085H76.4905C76.0655 30.085 75.7055 30.33 75.6605 30.635L75.9855 31.52C76.0755 31.78 76.2905 32.04 77.2355 32.04C77.4905 32.04 77.6955 32.245 77.6955 32.5C77.6955 32.755 77.4905 32.96 77.2355 32.96L77.2305 32.97Z" fill="#30323A"/>
<path d="M100.886 31.9554L99.5207 25.8204C99.3707 25.2154 98.9907 23.6404 97.2757 23.6804H80.9457C80.3157 23.6804 79.2707 24.4654 79.0457 25.9954L78.1807 32.0104" fill="white"/>
<path d="M78.1802 32.4703C78.1802 32.4703 78.1352 32.4703 78.1152 32.4653C77.8652 32.4303 77.6902 32.1953 77.7252 31.9403L78.5902 25.9253C78.8402 24.2503 80.0102 23.2153 80.9502 23.2153H97.2802C97.3102 23.2153 97.3352 23.2153 97.3652 23.2153C99.3652 23.2153 99.8252 25.0853 99.9752 25.7053L101.34 31.8553C101.395 32.1053 101.24 32.3503 100.99 32.4053C100.74 32.4603 100.495 32.3053 100.44 32.0553L99.0752 25.9203C98.8552 25.0253 98.4752 24.1253 97.2902 24.1453H80.9502C80.6102 24.1453 79.7102 24.7003 79.5052 26.0653L78.6402 32.0753C78.6052 32.3053 78.4102 32.4703 78.1852 32.4703H78.1802Z" fill="#30323A"/>
<path d="M98.7002 31.6803L97.6102 26.5353C97.6102 26.0503 97.1502 25.6553 96.5852 25.6553H82.1102C81.5452 25.6553 81.0902 26.0503 81.0902 26.5353L80.3252 31.6803" fill="white"/>
<path d="M98.7007 32.1452C98.4857 32.1452 98.2957 31.9952 98.2507 31.7802L97.1607 26.6352C97.1557 26.6052 97.1507 26.5702 97.1507 26.5402C97.1507 26.3102 96.8907 26.1202 96.5857 26.1202H82.1107C81.8057 26.1202 81.5507 26.3102 81.5507 26.5402C81.5507 26.5652 81.5507 26.5852 81.5507 26.6102L80.7857 31.7552C80.7457 32.0052 80.5157 32.1852 80.2607 32.1452C80.0107 32.1102 79.8357 31.8752 79.8707 31.6202L80.6307 26.5052C80.6557 25.7802 81.3107 25.2002 82.1157 25.2002H96.5907C97.3907 25.2002 98.0457 25.7752 98.0757 26.4902L99.1557 31.5952C99.2107 31.8452 99.0507 32.0902 98.8007 32.1402C98.7707 32.1452 98.7357 32.1502 98.7057 32.1502L98.7007 32.1452Z" fill="#30323A"/>
<path d="M93.2306 28.4004C91.2506 28.4004 89.6406 30.0104 89.6406 31.9904C89.6406 33.9704 91.2506 35.5804 93.2306 35.5804C95.2106 35.5804 96.8206 33.9704 96.8206 31.9904C96.8206 30.0104 95.2156 28.4004 93.2306 28.4004ZM93.2156 34.8004C91.6706 34.8004 90.4206 33.5504 90.4206 32.0054C90.4206 30.4604 91.6706 29.2104 93.2156 29.2104C94.7606 29.2104 96.0106 30.4604 96.0106 32.0054C96.0106 33.5504 94.7606 34.8004 93.2156 34.8004Z" fill="#30323A"/>
<path d="M78.6201 42.8154V44.9604C78.6201 45.5304 79.1051 45.9904 79.7001 45.9904H81.6401C82.2351 45.9904 82.7201 45.5304 82.7201 44.9604V42.8154H78.6201Z" fill="#6C6C69"/>
<path d="M81.6402 46.4505H79.7001C78.8501 46.4505 78.1602 45.7805 78.1602 44.9605V42.8155C78.1602 42.5605 78.3652 42.3555 78.6202 42.3555H82.7202C82.9752 42.3555 83.1802 42.5605 83.1802 42.8155V44.9605C83.1802 45.7805 82.4902 46.4505 81.6402 46.4505ZM79.0802 43.2755V44.9605C79.0802 45.2755 79.3601 45.5255 79.7001 45.5255H81.6402C81.9802 45.5255 82.2602 45.2705 82.2602 44.9605V43.2755H79.0802Z" fill="#30323A"/>
<path d="M96.5508 42.8154V44.9604C96.5508 45.5304 97.0358 45.9904 97.6308 45.9904H99.5758C100.171 45.9904 100.656 45.5304 100.656 44.9604V42.8154H96.5558H96.5508Z" fill="#6C6C69"/>
<path d="M99.5709 46.4505H97.6259C96.7759 46.4505 96.0859 45.7805 96.0859 44.9605V42.8155C96.0859 42.5605 96.2909 42.3555 96.5459 42.3555H100.646C100.901 42.3555 101.106 42.5605 101.106 42.8155V44.9605C101.106 45.7805 100.416 46.4505 99.5659 46.4505H99.5709ZM97.0109 43.2755V44.9605C97.0109 45.2755 97.2859 45.5255 97.6259 45.5255H99.5709C99.9109 45.5255 100.191 45.2705 100.191 44.9605V43.2755H97.0109Z" fill="#30323A"/>
<path d="M76.1709 39.8203C76.2359 40.2753 76.3159 40.7603 76.4209 41.2653C76.4209 41.2653 76.7459 42.9003 78.3709 43.0253H100.536C100.536 43.0253 103.056 42.9603 103.056 39.8953C103.056 39.8953 103.021 39.1453 103.031 38.7803" fill="white"/>
<path d="M78.3754 43.4854C76.7804 43.3604 76.1054 42.0354 75.9704 41.3554C75.8704 40.8654 75.7804 40.3654 75.7154 39.8854C75.6804 39.6304 75.8554 39.4004 76.1104 39.3654C76.3654 39.3254 76.5954 39.5054 76.6304 39.7604C76.6954 40.2254 76.7754 40.7004 76.8754 41.1754C76.8854 41.2304 77.1654 42.4704 78.4104 42.5654H100.54C100.74 42.5554 102.595 42.4154 102.595 39.8954C102.595 39.8854 102.56 39.1454 102.57 38.7704C102.575 38.5154 102.78 38.3154 103.045 38.3204C103.3 38.3254 103.5 38.5404 103.495 38.7954C103.485 39.1404 103.515 39.8704 103.515 39.8754C103.515 43.3704 100.575 43.4854 100.545 43.4854H78.3704H78.3754Z" fill="#30323A"/>
<path d="M86.2656 31.7804H77.9856C77.9856 31.7804 74.8256 33.5154 76.1856 39.8054C76.1856 39.8054 77.0756 40.6954 78.3706 40.9054H100.536C100.536 40.9054 103.056 40.8554 103.056 38.3204C103.056 38.3204 103.561 32.9404 100.701 31.7754H93.2606" fill="white"/>
<path d="M100.875 31.3451C100.82 31.3201 100.76 31.3101 100.7 31.3101H85.8751C85.8751 31.3101 85.8651 31.3151 85.8551 31.3151H77.9851C77.9101 31.3151 77.8301 31.3351 77.7651 31.3751C77.6251 31.4501 74.3151 33.3501 75.7351 39.9001C75.7551 39.9851 75.7951 40.0651 75.8601 40.1301C75.9001 40.1701 76.8701 41.1301 78.3001 41.3601C78.3251 41.3601 78.3501 41.3651 78.3751 41.3651H100.55C101.58 41.3451 103.52 40.6801 103.52 38.3601C103.54 38.1251 104.02 32.6251 100.875 31.3451ZM102.595 38.3151C102.595 40.3251 100.74 40.4351 100.54 40.4401H78.4101C77.5251 40.2901 76.8451 39.7651 76.6051 39.5601C75.5251 34.3601 77.6401 32.5701 78.1151 32.2401H86.2601C86.2601 32.2401 86.2701 32.2401 86.2801 32.2401H100.6C103.02 33.3301 102.595 38.2301 102.59 38.3201L102.595 38.3151Z" fill="#30323A"/>
<path d="M101.07 36.6903C101.07 37.5253 100.39 38.2053 99.555 38.2053C98.72 38.2053 98.04 37.5253 98.04 36.6903C98.04 35.8553 98.72 35.1753 99.555 35.1753C100.39 35.1753 101.07 35.8553 101.07 36.6903Z" fill="white"/>
<path d="M99.5551 38.6653C98.4651 38.6653 97.5801 37.7803 97.5801 36.6903C97.5801 35.6003 98.4651 34.7153 99.5551 34.7153C100.645 34.7153 101.53 35.6003 101.53 36.6903C101.53 37.7803 100.645 38.6653 99.5551 38.6653ZM99.5551 35.6353C98.9751 35.6353 98.5001 36.1053 98.5001 36.6903C98.5001 37.2753 98.9751 37.7453 99.5551 37.7453C100.135 37.7453 100.61 37.2753 100.61 36.6903C100.61 36.1053 100.14 35.6353 99.5551 35.6353Z" fill="#30323A"/>
<path d="M81.2458 36.765C81.2458 37.6 80.5658 38.28 79.7308 38.28C78.8958 38.28 78.2158 37.6 78.2158 36.765C78.2158 35.93 78.8958 35.25 79.7308 35.25C80.5658 35.25 81.2458 35.93 81.2458 36.765Z" fill="white"/>
<path d="M79.7357 38.745C78.6457 38.745 77.7607 37.86 77.7607 36.77C77.7607 35.68 78.6457 34.79 79.7357 34.79C80.8257 34.79 81.7107 35.675 81.7107 36.77C81.7107 37.865 80.8257 38.745 79.7357 38.745ZM79.7357 35.715C79.1557 35.715 78.6807 36.19 78.6807 36.77C78.6807 37.35 79.1557 37.825 79.7357 37.825C80.3157 37.825 80.7907 37.35 80.7907 36.77C80.7907 36.19 80.3207 35.715 79.7357 35.715Z" fill="#30323A"/>
<path d="M95.2555 20.9754C95.2555 19.8904 94.2505 19.0054 93.0055 19.0054H85.6055C84.3605 19.0054 83.3555 19.8854 83.3555 20.9754V23.5354H95.2555V20.9754Z" fill="white"/>
<path d="M95.2555 23.9954H83.3555C83.1005 23.9954 82.8955 23.7904 82.8955 23.5354V20.9754C82.8955 19.6354 84.1105 18.5454 85.6055 18.5454H93.0055C94.5005 18.5454 95.7155 19.6354 95.7155 20.9754V23.5354C95.7155 23.7904 95.5105 23.9954 95.2555 23.9954ZM83.8155 23.0704H94.7905V20.9754C94.7905 20.1454 93.9905 19.4704 93.0005 19.4704H85.6005C84.6155 19.4704 83.8155 20.1454 83.8155 20.9754V23.0704Z" fill="#30323A"/>
<path d="M85.915 20.145H87.645V20.505H86.995V22.495H86.565V20.505H85.915V20.145Z" fill="#30323A"/>
<path d="M88.6103 20.1401H89.0353L89.8203 22.4901H89.3653L89.1453 21.8051H88.4853L88.2653 22.4901H87.8203L88.6153 20.1401H88.6103ZM88.5953 21.4551H89.0353L88.8753 20.9351L88.8203 20.7501L88.7653 20.9251L88.6003 21.4551H88.5953Z" fill="#30323A"/>
<path d="M91.3307 20.1453H91.7957L91.1307 21.2853L91.8357 22.4953H91.3507L90.9357 21.7803C90.9357 21.7803 90.9207 21.7603 90.9157 21.7453C90.9157 21.7353 90.9057 21.7253 90.9007 21.7153C90.9007 21.7053 90.8907 21.7003 90.8857 21.6903C90.8857 21.6803 90.8757 21.6703 90.8707 21.6603C90.8707 21.6653 90.8657 21.6703 90.8607 21.6803C90.8607 21.6903 90.8557 21.6953 90.8507 21.7053C90.8457 21.7103 90.8407 21.7203 90.8357 21.7353C90.8307 21.7503 90.8257 21.7603 90.8157 21.7753L90.4007 22.4903H89.9307L90.6357 21.2803L89.9757 20.1403H90.4607L90.8107 20.7453L90.8857 20.9003C90.8857 20.9003 90.9007 20.8753 90.9107 20.8653C90.9207 20.8553 90.9257 20.8403 90.9357 20.8253C90.9457 20.8153 90.9507 20.8003 90.9607 20.7853C90.9657 20.7703 90.9757 20.7553 90.9807 20.7403L91.3357 20.1353L91.3307 20.1453Z" fill="#30323A"/>
<path d="M92.165 20.145H92.595V22.495H92.165V20.145Z" fill="#30323A"/>
<path d="M85.8554 46.4503H69.7354C69.4804 46.4503 69.2754 46.2453 69.2754 45.9903C69.2754 45.7353 69.4804 45.5303 69.7354 45.5303H85.8554C86.1104 45.5303 86.3154 45.7353 86.3154 45.9903C86.3154 46.2453 86.1104 46.4503 85.8554 46.4503Z" fill="#30323A"/>
<path d="M108.711 46.4503H92.5909C92.3359 46.4503 92.1309 46.2453 92.1309 45.9903C92.1309 45.7353 92.3359 45.5303 92.5909 45.5303H108.711C108.966 45.5303 109.171 45.7353 109.171 45.9903C109.171 46.2453 108.966 46.4503 108.711 46.4503Z" fill="#30323A"/>
<path d="M94.5109 35.2504C94.5109 35.6004 94.2259 35.8904 93.8709 35.8904H85.9759C85.6259 35.8904 85.3359 35.6054 85.3359 35.2504C85.3359 34.8954 85.6209 34.6104 85.9759 34.6104H93.8709C94.2259 34.6104 94.5109 34.8954 94.5109 35.2504Z" fill="#30323A"/>
<path d="M94.5402 37.6903C94.5402 38.0403 94.2552 38.3303 93.9002 38.3303H86.0052C85.6552 38.3303 85.3652 38.0453 85.3652 37.6903C85.3652 37.3353 85.6502 37.0503 86.0052 37.0503H93.9002C94.2502 37.0503 94.5402 37.3353 94.5402 37.6903Z" fill="#30323A"/>
<path d="M12.8507 56.9002C12.8657 57.2202 12.9907 57.4402 13.2207 57.5602C13.3407 57.6252 13.4707 57.6552 13.6207 57.6552C13.8957 57.6552 14.1307 57.5402 14.3257 57.3102C14.5207 57.0802 14.6607 56.6152 14.7407 55.9102C14.6107 56.1152 14.4557 56.2552 14.2657 56.3402C14.0757 56.4202 13.8707 56.4652 13.6557 56.4652C13.2107 56.4652 12.8607 56.3252 12.6057 56.0502C12.3457 55.7752 12.2207 55.4202 12.2207 54.9852C12.2207 54.5502 12.3457 54.2002 12.6007 53.8852C12.8557 53.5702 13.2307 53.4102 13.7257 53.4102C14.3957 53.4102 14.8557 53.7102 15.1107 54.3152C15.2507 54.6452 15.3207 55.0602 15.3207 55.5602C15.3207 56.1202 15.2357 56.6202 15.0657 57.0552C14.7857 57.7802 14.3107 58.1402 13.6407 58.1402C13.1907 58.1402 12.8507 58.0202 12.6157 57.7852C12.3807 57.5502 12.2657 57.2552 12.2657 56.9002H12.8507ZM14.3557 55.7302C14.5457 55.5802 14.6407 55.3152 14.6407 54.9402C14.6407 54.6052 14.5557 54.3502 14.3857 54.1852C14.2157 54.0202 14.0007 53.9352 13.7357 53.9352C13.4557 53.9352 13.2307 54.0302 13.0657 54.2202C12.9007 54.4102 12.8157 54.6602 12.8157 54.9802C12.8157 55.2802 12.8907 55.5152 13.0357 55.6952C13.1807 55.8752 13.4157 55.9602 13.7307 55.9602C13.9607 55.9602 14.1707 55.8852 14.3557 55.7352V55.7302Z" fill="#898989"/>
<path d="M18.305 58.0104V56.8854H16.29V56.3204L18.395 53.4004H18.885V56.3804H19.56V56.8854H18.885V58.0104H18.31H18.305ZM18.295 56.3854V54.3004L16.825 56.3854H18.295Z" fill="#898989"/>
<path d="M20.8956 55.3203C20.7256 55.1503 20.6406 54.9253 20.6406 54.6553C20.6406 54.3153 20.7656 54.0203 21.0106 53.7753C21.2556 53.5303 21.6106 53.4053 22.0656 53.4053C22.5206 53.4053 22.8506 53.5203 23.1006 53.7553C23.3506 53.9903 23.4756 54.2603 23.4756 54.5703C23.4756 54.8553 23.4006 55.0903 23.2556 55.2653C23.1756 55.3653 23.0506 55.4653 22.8756 55.5603C23.0656 55.6503 23.2156 55.7503 23.3256 55.8603C23.5306 56.0753 23.6306 56.3503 23.6306 56.6953C23.6306 57.1003 23.4956 57.4403 23.2256 57.7253C22.9556 58.0103 22.5706 58.1453 22.0756 58.1453C21.6306 58.1453 21.2506 58.0253 20.9406 57.7803C20.6306 57.5353 20.4756 57.1853 20.4756 56.7253C20.4756 56.4553 20.5406 56.2203 20.6756 56.0203C20.8106 55.8203 21.0056 55.6703 21.2656 55.5653C21.1056 55.4953 20.9806 55.4153 20.8906 55.3253L20.8956 55.3203ZM22.7556 57.4003C22.9306 57.2553 23.0206 57.0403 23.0206 56.7553C23.0206 56.4703 22.9306 56.2303 22.7456 56.0803C22.5606 55.9303 22.3306 55.8503 22.0456 55.8503C21.7606 55.8503 21.5456 55.9303 21.3706 56.0853C21.1956 56.2403 21.1106 56.4603 21.1106 56.7403C21.1106 56.9803 21.1906 57.1853 21.3506 57.3603C21.5106 57.5353 21.7556 57.6203 22.0906 57.6203C22.3556 57.6203 22.5806 57.5503 22.7556 57.4053V57.4003ZM22.6506 55.1303C22.7956 54.9853 22.8656 54.8203 22.8656 54.6203C22.8656 54.4503 22.7956 54.2903 22.6606 54.1453C22.5256 54.0003 22.3156 53.9303 22.0356 53.9303C21.7556 53.9303 21.5556 54.0003 21.4356 54.1453C21.3156 54.2903 21.2506 54.4553 21.2506 54.6503C21.2506 54.8653 21.3306 55.0353 21.4906 55.1603C21.6506 55.2803 21.8406 55.3453 22.0556 55.3453C22.3106 55.3453 22.5056 55.2753 22.6506 55.1303Z" fill="#898989"/>
<path d="M24.9402 57.6903C24.6952 57.3903 24.5752 57.0303 24.5752 56.6003H25.1802C25.2052 56.8953 25.2602 57.1153 25.3452 57.2503C25.4952 57.4903 25.7652 57.6153 26.1552 57.6153C26.4602 57.6153 26.7052 57.5353 26.8852 57.3703C27.0652 57.2053 27.1602 57.0003 27.1602 56.7403C27.1602 56.4253 27.0652 56.2003 26.8702 56.0753C26.6752 55.9503 26.4102 55.8853 26.0652 55.8853C26.0252 55.8853 25.9902 55.8853 25.9502 55.8853C25.9102 55.8853 25.8702 55.8853 25.8302 55.8853V55.3753C25.8902 55.3803 25.9402 55.3853 25.9802 55.3903C26.0202 55.3953 26.0652 55.3903 26.1102 55.3903C26.3252 55.3903 26.5052 55.3553 26.6402 55.2853C26.8852 55.1653 27.0052 54.9503 27.0052 54.6453C27.0052 54.4153 26.9252 54.2403 26.7602 54.1153C26.5952 53.9903 26.4102 53.9303 26.1902 53.9303C25.8052 53.9303 25.5402 54.0603 25.3902 54.3153C25.3102 54.4553 25.2652 54.6553 25.2502 54.9203H24.6802C24.6802 54.5803 24.7502 54.2853 24.8852 54.0453C25.1202 53.6153 25.5352 53.4053 26.1252 53.4053C26.5952 53.4053 26.9552 53.5103 27.2102 53.7203C27.4652 53.9303 27.5952 54.2303 27.5952 54.6253C27.5952 54.9053 27.5202 55.1353 27.3652 55.3103C27.2702 55.4203 27.1502 55.5053 27.0002 55.5653C27.2402 55.6303 27.4302 55.7603 27.5652 55.9503C27.7002 56.1403 27.7702 56.3703 27.7702 56.6453C27.7702 57.0853 27.6252 57.4403 27.3352 57.7153C27.0452 57.9903 26.6352 58.1303 26.1052 58.1303C25.5752 58.1303 25.1702 57.9803 24.9252 57.6803L24.9402 57.6903Z" fill="#898989"/>
<path d="M36.1406 54.7601V54.3151C36.5556 54.2751 36.8506 54.2051 37.0106 54.1101C37.1706 54.0151 37.3006 53.7901 37.3806 53.4351H37.8356V58.0101H37.2206V54.7551H36.1406V54.7601Z" fill="#898989"/>
<path d="M40.29 54.7601V54.3151C40.705 54.2751 41 54.2051 41.16 54.1101C41.32 54.0151 41.45 53.7901 41.53 53.4351H41.985V58.0101H41.37V54.7551H40.29V54.7601Z" fill="#898989"/>
<path d="M44.4355 54.7601V54.3151C44.8505 54.2751 45.1455 54.2051 45.3055 54.1101C45.4655 54.0151 45.5955 53.7901 45.6755 53.4351H46.1305V58.0101H45.5155V54.7551H44.4355V54.7601Z" fill="#898989"/>
<path d="M51.3855 53.4951V54.0001C51.2355 54.1451 51.0405 54.3951 50.7955 54.7501C50.5505 55.1051 50.3355 55.4901 50.1455 55.9001C49.9605 56.3001 49.8205 56.6651 49.7205 56.9951C49.6605 57.2051 49.5805 57.5501 49.4805 58.0201H48.8405C48.9855 57.1451 49.3055 56.2701 49.8005 55.4001C50.0955 54.8901 50.4005 54.4501 50.7255 54.0801H48.1855V53.5001H51.3805L51.3855 53.4951Z" fill="#898989"/>
<path d="M62.4852 53.4951V54.0001C62.3352 54.1451 62.1402 54.3951 61.8952 54.7501C61.6502 55.1051 61.4352 55.4901 61.2452 55.9001C61.0602 56.3001 60.9202 56.6651 60.8202 56.9951C60.7602 57.2051 60.6802 57.5501 60.5802 58.0201H59.9402C60.0852 57.1451 60.4052 56.2701 60.9002 55.4001C61.1952 54.8901 61.5002 54.4501 61.8252 54.0801H59.2852V53.5001H62.4802L62.4852 53.4951Z" fill="#898989"/>
<path d="M66.1904 53.7954C66.3954 54.0604 66.4954 54.3354 66.4954 54.6204H65.9254C65.8904 54.4404 65.8354 54.2954 65.7604 54.1954C65.6204 54.0004 65.4104 53.9054 65.1304 53.9054C64.8054 53.9054 64.5504 54.0554 64.3604 54.3554C64.1704 54.6554 64.0654 55.0804 64.0404 55.6354C64.1704 55.4404 64.3404 55.2954 64.5404 55.2004C64.7254 55.1154 64.9304 55.0704 65.1554 55.0704C65.5404 55.0704 65.8754 55.1954 66.1604 55.4404C66.4454 55.6854 66.5904 56.0554 66.5904 56.5404C66.5904 56.9554 66.4554 57.3254 66.1854 57.6504C65.9154 57.9754 65.5254 58.1354 65.0254 58.1354C64.5954 58.1354 64.2254 57.9704 63.9104 57.6454C63.5954 57.3204 63.4404 56.7704 63.4404 55.9954C63.4404 55.4254 63.5104 54.9404 63.6504 54.5404C63.9154 53.7804 64.4054 53.4004 65.1154 53.4004C65.6304 53.4004 65.9854 53.5354 66.1904 53.8004V53.7954ZM65.7554 57.3104C65.9054 57.1054 65.9804 56.8654 65.9804 56.5854C65.9804 56.3504 65.9154 56.1254 65.7804 55.9154C65.6454 55.7054 65.4004 55.5954 65.0454 55.5954C64.7954 55.5954 64.5804 55.6754 64.3904 55.8404C64.2054 56.0054 64.1104 56.2554 64.1104 56.5854C64.1104 56.8754 64.1954 57.1204 64.3654 57.3204C64.5354 57.5204 64.7704 57.6154 65.0704 57.6154C65.3704 57.6154 65.6004 57.5154 65.7504 57.3104H65.7554Z" fill="#898989"/>
<path d="M67.9659 55.3203C67.7959 55.1503 67.7109 54.9253 67.7109 54.6553C67.7109 54.3153 67.8359 54.0203 68.0809 53.7753C68.3259 53.5303 68.6809 53.4053 69.1359 53.4053C69.5909 53.4053 69.9209 53.5203 70.1709 53.7553C70.4209 53.9903 70.5459 54.2603 70.5459 54.5703C70.5459 54.8553 70.4709 55.0903 70.3259 55.2653C70.2459 55.3653 70.1209 55.4653 69.9459 55.5603C70.1359 55.6503 70.2859 55.7503 70.3959 55.8603C70.6009 56.0753 70.7009 56.3503 70.7009 56.6953C70.7009 57.1003 70.5659 57.4403 70.2959 57.7253C70.0259 58.0103 69.6409 58.1453 69.1459 58.1453C68.7009 58.1453 68.3209 58.0253 68.0109 57.7803C67.7009 57.5353 67.5459 57.1853 67.5459 56.7253C67.5459 56.4553 67.6109 56.2203 67.7459 56.0203C67.8809 55.8203 68.0759 55.6703 68.3359 55.5653C68.1759 55.4953 68.0509 55.4153 67.9609 55.3253L67.9659 55.3203ZM69.8259 57.4003C70.0009 57.2553 70.0909 57.0403 70.0909 56.7553C70.0909 56.4703 70.0009 56.2303 69.8159 56.0803C69.6309 55.9303 69.4009 55.8503 69.1159 55.8503C68.8309 55.8503 68.6159 55.9303 68.4409 56.0853C68.2659 56.2403 68.1809 56.4603 68.1809 56.7403C68.1809 56.9803 68.2609 57.1853 68.4209 57.3603C68.5809 57.5353 68.8259 57.6203 69.1609 57.6203C69.4259 57.6203 69.6509 57.5503 69.8259 57.4053V57.4003ZM69.7209 55.1303C69.8659 54.9853 69.9359 54.8203 69.9359 54.6203C69.9359 54.4503 69.8659 54.2903 69.7309 54.1453C69.5959 54.0003 69.3859 53.9303 69.1059 53.9303C68.8259 53.9303 68.6259 54.0003 68.5059 54.1453C68.3859 54.2903 68.3209 54.4553 68.3209 54.6503C68.3209 54.8653 68.4009 55.0353 68.5609 55.1603C68.7209 55.2803 68.9109 55.3453 69.1259 55.3453C69.3809 55.3453 69.5759 55.2753 69.7209 55.1303Z" fill="#898989"/>
<path d="M73.6703 58.0104V56.8854H71.6553V56.3204L73.7603 53.4004H74.2503V56.3804H74.9253V56.8854H74.2503V58.0104H73.6753H73.6703ZM73.6603 56.3854V54.3004L72.1903 56.3854H73.6603Z" fill="#898989"/>
<path d="M83.21 55.3203C83.04 55.1503 82.955 54.9253 82.955 54.6553C82.955 54.3153 83.08 54.0203 83.325 53.7753C83.57 53.5303 83.925 53.4053 84.38 53.4053C84.835 53.4053 85.165 53.5203 85.415 53.7553C85.665 53.9903 85.79 54.2603 85.79 54.5703C85.79 54.8553 85.715 55.0903 85.57 55.2653C85.49 55.3653 85.365 55.4653 85.19 55.5603C85.38 55.6503 85.53 55.7503 85.64 55.8603C85.845 56.0753 85.945 56.3503 85.945 56.6953C85.945 57.1003 85.81 57.4403 85.54 57.7253C85.27 58.0103 84.885 58.1453 84.39 58.1453C83.945 58.1453 83.565 58.0253 83.255 57.7803C82.945 57.5353 82.79 57.1853 82.79 56.7253C82.79 56.4553 82.855 56.2203 82.99 56.0203C83.125 55.8203 83.32 55.6703 83.58 55.5653C83.42 55.4953 83.295 55.4153 83.205 55.3253L83.21 55.3203ZM85.07 57.4003C85.245 57.2553 85.335 57.0403 85.335 56.7553C85.335 56.4703 85.245 56.2303 85.06 56.0803C84.875 55.9303 84.645 55.8503 84.36 55.8503C84.075 55.8503 83.86 55.9303 83.685 56.0853C83.51 56.2403 83.425 56.4603 83.425 56.7403C83.425 56.9803 83.505 57.1853 83.665 57.3603C83.825 57.5353 84.07 57.6203 84.405 57.6203C84.67 57.6203 84.895 57.5503 85.07 57.4053V57.4003ZM84.965 55.1303C85.11 54.9853 85.18 54.8203 85.18 54.6203C85.18 54.4503 85.11 54.2903 84.975 54.1453C84.84 54.0003 84.63 53.9303 84.35 53.9303C84.07 53.9303 83.87 54.0003 83.75 54.1453C83.63 54.2903 83.565 54.4553 83.565 54.6503C83.565 54.8653 83.645 55.0353 83.805 55.1603C83.965 55.2803 84.155 55.3453 84.37 55.3453C84.625 55.3453 84.82 55.2753 84.965 55.1303Z" fill="#898989"/>
<path d="M87.1854 56.9803C87.3254 56.6853 87.6054 56.4203 88.0154 56.1803L88.6304 55.8253C88.9054 55.6653 89.1004 55.5303 89.2104 55.4153C89.3854 55.2353 89.4754 55.0353 89.4754 54.8053C89.4754 54.5353 89.3954 54.3253 89.2354 54.1653C89.0754 54.0053 88.8604 53.9303 88.5954 53.9303C88.2004 53.9303 87.9254 54.0803 87.7754 54.3803C87.6954 54.5403 87.6504 54.7653 87.6404 55.0503H87.0554C87.0604 54.6503 87.1354 54.3253 87.2754 54.0703C87.5254 53.6253 87.9654 53.4053 88.6004 53.4053C89.1254 53.4053 89.5104 53.5453 89.7554 53.8303C89.9954 54.1153 90.1204 54.4303 90.1204 54.7803C90.1204 55.1503 89.9904 55.4603 89.7304 55.7253C89.5804 55.8753 89.3104 56.0603 88.9254 56.2753L88.4854 56.5203C88.2754 56.6353 88.1104 56.7453 87.9904 56.8503C87.7754 57.0353 87.6404 57.2453 87.5854 57.4703H90.0954V58.0153H86.9404C86.9604 57.6203 87.0454 57.2753 87.1854 56.9803Z" fill="#898989"/>
<path d="M93.9458 54.15C94.1508 54.53 94.2558 55.045 94.2558 55.705C94.2558 56.33 94.1608 56.845 93.9758 57.255C93.7058 57.84 93.2658 58.135 92.6558 58.135C92.1058 58.135 91.6958 57.895 91.4258 57.415C91.2008 57.015 91.0908 56.48 91.0908 55.805C91.0908 55.285 91.1558 54.835 91.2908 54.46C91.5408 53.765 92.0008 53.415 92.6608 53.415C93.2558 53.415 93.6858 53.66 93.9508 54.15H93.9458ZM93.3658 57.21C93.5458 56.945 93.6308 56.45 93.6308 55.73C93.6308 55.21 93.5658 54.78 93.4358 54.44C93.3058 54.105 93.0558 53.935 92.6858 53.935C92.3458 53.935 92.0958 54.095 91.9408 54.415C91.7858 54.735 91.7058 55.205 91.7058 55.83C91.7058 56.3 91.7558 56.675 91.8558 56.96C92.0108 57.395 92.2708 57.61 92.6458 57.61C92.9458 57.61 93.1858 57.475 93.3608 57.21H93.3658Z" fill="#898989"/>
<path d="M98.0903 54.15C98.2953 54.53 98.4004 55.045 98.4004 55.705C98.4004 56.33 98.3054 56.845 98.1204 57.255C97.8504 57.84 97.4104 58.135 96.8004 58.135C96.2504 58.135 95.8404 57.895 95.5704 57.415C95.3454 57.015 95.2354 56.48 95.2354 55.805C95.2354 55.285 95.3003 54.835 95.4353 54.46C95.6853 53.765 96.1454 53.415 96.8054 53.415C97.4004 53.415 97.8304 53.66 98.0954 54.15H98.0903ZM97.5104 57.21C97.6904 56.945 97.7754 56.45 97.7754 55.73C97.7754 55.21 97.7104 54.78 97.5804 54.44C97.4504 54.105 97.2004 53.935 96.8304 53.935C96.4904 53.935 96.2404 54.095 96.0854 54.415C95.9304 54.735 95.8503 55.205 95.8503 55.83C95.8503 56.3 95.9004 56.675 96.0004 56.96C96.1554 57.395 96.4154 57.61 96.7904 57.61C97.0904 57.61 97.3303 57.475 97.5053 57.21H97.5104Z" fill="#898989"/>
<path d="M-5.51953 -5.25977V77.2352H119.505V-5.25977H-5.51953ZM113.92 67.9202C113.92 70.1252 112.135 71.9102 109.93 71.9102H4.05547C1.85047 71.9102 0.0654688 70.1252 0.0654688 67.9202V4.05023C0.0654688 1.84523 1.85047 0.0602345 4.05547 0.0602345H109.925C112.13 0.0602345 113.915 1.84523 113.915 4.05023V67.9152L113.92 67.9202Z" fill="white"/>
<path d="M4.05543 0.0600586H109.925C112.125 0.0600586 113.915 1.85006 113.915 4.05006V67.9201C113.915 70.1251 112.125 71.9101 109.925 71.9101H4.05543C1.85543 71.9101 0.0654297 70.1201 0.0654297 67.9201V4.05006C0.0654297 1.85006 1.85543 0.0600586 4.05543 0.0600586Z" stroke="#9F9E9F" stroke-width="0.25"/>
<path d="M27.3301 34.4004C27.3301 35.1554 26.5751 35.7704 25.6451 35.7704H14.3901C13.4601 35.7704 12.7051 35.1554 12.7051 34.4004V26.1654C12.7051 25.4054 13.4601 24.7954 14.3901 24.7954H25.6451C26.5751 24.7954 27.3301 25.4104 27.3301 26.1654V34.4004Z" fill="url(#paint0_linear_6542_40537)"/>
<path d="M12.7002 32.075H16.3302C16.5152 32.075 16.6702 31.955 16.6702 31.8V28.935C16.6702 28.785 16.5202 28.66 16.3302 28.66H12.7002M27.3252 34.395C27.3252 35.155 26.5702 35.765 25.6402 35.765H14.3902C13.4602 35.765 12.7002 35.15 12.7002 34.395V26.16C12.7002 25.4 13.4552 24.79 14.3902 24.79H25.6402C26.5702 24.79 27.3252 25.405 27.3252 26.16V34.395Z" stroke="#7F6E3E" stroke-width="0.35"/>
<path d="M27.3255 28.6602H23.6955C23.5105 28.6602 23.3555 28.7802 23.3555 28.9352V31.8002C23.3555 31.9502 23.5055 32.0752 23.6955 32.0752H27.3255" stroke="#7F6E3E" stroke-width="0.35"/>
<path d="M18.535 24.7954V26.4704H16.665V34.0954H18.535V35.7704" stroke="#7F6E3E" stroke-width="0.35"/>
<path d="M23.3552 26.4704H21.4902V24.7954" stroke="#7F6E3E" stroke-width="0.35"/>
<path d="M21.4902 35.7704V34.0954H23.3552V29.0054" stroke="#7F6E3E" stroke-width="0.35"/>
<path d="M31.4407 33.1803C31.4407 33.1803 31.4007 33.1803 31.3807 33.1803H31.2607C31.2307 33.0903 31.2207 33.0403 31.2207 33.0353C31.2207 33.0303 31.2207 33.0053 31.2207 32.9703C31.2207 32.9303 31.2307 32.8903 31.2407 32.8453C31.2457 32.8053 31.2507 32.7703 31.2557 32.7303C31.2607 32.6953 31.2657 32.6753 31.2657 32.6653C31.3907 32.6353 31.5357 32.6053 31.7007 32.5653C31.8707 32.5253 32.0457 32.4903 32.2307 32.4553C32.4157 32.4203 32.6007 32.3953 32.7907 32.3703C32.9807 32.3503 33.1557 32.3353 33.3257 32.3353C33.3757 32.3353 33.4557 32.3353 33.5657 32.3453C33.6757 32.3503 33.7807 32.3653 33.8907 32.3953C34.0007 32.4203 34.1007 32.4603 34.1857 32.5153C34.2707 32.5753 34.3107 32.6553 34.3107 32.7553C34.3107 32.7753 34.3007 32.8253 34.2807 32.9003C34.2607 32.9753 34.2407 33.0553 34.2157 33.1403C34.2007 33.2303 34.1807 33.3103 34.1607 33.3803C34.1407 33.4503 34.1307 33.4903 34.1307 33.4953C34.1257 33.5003 34.1157 33.5103 34.1057 33.5253C34.0957 33.5403 34.0857 33.5553 34.0707 33.5803C34.0557 33.5953 34.0407 33.6153 34.0257 33.6353C34.0107 33.6553 34.0007 33.6653 33.9857 33.6753C33.9457 33.7803 33.9107 33.8653 33.8857 33.9253C33.8557 33.9853 33.8307 34.0453 33.8107 34.1003C33.7807 34.1553 33.7607 34.2203 33.7407 34.2953C33.7207 34.3703 33.7007 34.4653 33.6757 34.5803C33.6607 34.5903 33.6457 34.6053 33.6407 34.6203C33.6357 34.6353 33.6307 34.6553 33.6307 34.6703V34.7453C33.6307 34.7453 33.6057 34.8003 33.5707 34.8603C33.5357 34.9203 33.5157 34.9503 33.5107 34.9553C33.4607 35.0053 33.3807 35.0603 33.2707 35.1253C33.1607 35.1853 33.0957 35.2203 33.0707 35.2253C33.0657 35.2253 33.0507 35.1903 33.0207 35.1253C32.9907 35.0603 32.9807 34.9753 32.9807 34.8703C32.9807 34.7353 33.0007 34.5803 33.0407 34.4003C33.0807 34.2203 33.1207 34.0453 33.1657 33.8703C33.2107 33.6953 33.2557 33.5403 33.2957 33.4053C33.3357 33.2703 33.3607 33.1703 33.3607 33.1053V32.9603C33.0907 32.9303 32.8507 32.9303 32.6407 32.9503C32.4307 32.9753 32.2357 33.0103 32.0557 33.0603C32.0057 33.0703 31.9607 33.0853 31.9157 33.1003C31.8757 33.1153 31.8357 33.1253 31.8007 33.1403C31.7657 33.1553 31.7407 33.1703 31.7157 33.1753C31.6907 33.1803 31.6807 33.1853 31.6757 33.1853H31.6457C31.6457 33.1853 31.6157 33.1853 31.6007 33.1753C31.5857 33.1753 31.5657 33.1753 31.5457 33.1753C31.5257 33.1753 31.5057 33.1753 31.4907 33.1753C31.4707 33.1753 31.4457 33.1753 31.4257 33.1753L31.4407 33.1803ZM36.4257 35.9603C36.4807 36.0053 36.5357 36.0603 36.5907 36.1203C36.6407 36.1753 36.6857 36.2353 36.7257 36.2953C36.7657 36.3553 36.7857 36.4003 36.7857 36.4353C36.7857 36.5403 36.7257 36.6553 36.6107 36.7753C36.4907 36.8953 36.3607 37.0103 36.2157 37.1153C36.0707 37.2153 35.9257 37.3003 35.7857 37.3653C35.6457 37.4303 35.5507 37.4653 35.5007 37.4653C35.2707 37.4653 35.0957 37.3753 34.9807 37.1953C34.8607 37.0153 34.8057 36.8253 34.8057 36.6253C34.8057 36.5353 34.8257 36.4303 34.8707 36.3153C34.9157 36.1953 34.9707 36.0853 35.0407 35.9803C35.1057 35.8803 35.1807 35.7903 35.2607 35.7203C35.3407 35.6453 35.4107 35.6103 35.4807 35.6103C35.5407 35.6103 35.6107 35.6253 35.6807 35.6553C35.7557 35.6853 35.8257 35.7203 35.8907 35.7503C35.9557 35.7903 36.0207 35.8253 36.0757 35.8503C36.1307 35.8803 36.1757 35.8903 36.2107 35.8903C36.2607 35.8903 36.2957 35.8853 36.3107 35.8753C36.3407 35.8853 36.3807 35.9153 36.4307 35.9603H36.4257ZM35.7507 36.9303C35.8207 36.9003 35.8907 36.8703 35.9657 36.8303C36.0407 36.7853 36.1057 36.7403 36.1657 36.6903C36.2257 36.6403 36.2557 36.5953 36.2557 36.5503C36.2557 36.5353 36.2457 36.5003 36.2207 36.4553C36.1957 36.4053 36.1707 36.3603 36.1457 36.3103C36.1107 36.2603 36.0757 36.2153 36.0357 36.1753C35.9957 36.1353 35.9557 36.1153 35.9157 36.1153C35.8157 36.1153 35.7307 36.1453 35.6607 36.2053C35.5907 36.2653 35.5307 36.3353 35.4857 36.4153C35.4407 36.4953 35.4107 36.5703 35.3907 36.6503C35.3707 36.7303 35.3607 36.7853 35.3607 36.8203C35.3607 36.8853 35.3907 36.9303 35.4457 36.9453C35.5007 36.9603 35.5557 36.9703 35.6157 36.9703C35.6357 36.9703 35.6857 36.9553 35.7557 36.9303H35.7507ZM37.9907 33.4853C37.9307 33.5553 37.8857 33.6203 37.8507 33.6853C37.7657 33.7353 37.6607 33.7903 37.5257 33.8553C37.3957 33.9153 37.2757 33.9603 37.1757 33.9903C37.1657 33.9953 37.1307 34.0053 37.0757 34.0153C37.0207 34.0253 36.9507 34.0453 36.8657 34.0653C36.7807 34.0953 36.6907 34.1253 36.5857 34.1553C36.4857 34.1903 36.3857 34.2303 36.2807 34.2803C36.2707 34.3103 36.2607 34.3353 36.2557 34.3603C36.2507 34.3853 36.2457 34.4103 36.2407 34.4303C36.2357 34.4503 36.2307 34.4753 36.2257 34.4953C36.2207 34.5153 36.2157 34.5303 36.2157 34.5403C36.2057 34.5453 36.1957 34.5553 36.1957 34.5703C36.1957 34.5853 36.1957 34.6003 36.1957 34.6153C36.1957 34.6353 36.1957 34.6653 36.1957 34.6953C36.1957 34.7253 36.2007 34.7603 36.2107 34.7903C36.2107 34.8553 36.1707 34.9203 36.0957 34.9803C36.0207 35.0403 35.9557 35.0603 35.9057 35.0453C35.8907 35.0453 35.8457 35.0353 35.7757 35.0153C35.7057 34.9953 35.6607 34.9753 35.6457 34.9603C35.6307 34.9403 35.6107 34.8953 35.5957 34.8353C35.5807 34.7753 35.5607 34.7053 35.5457 34.6253C35.5307 34.5453 35.5157 34.4653 35.5057 34.3753C35.4957 34.2903 35.4907 34.2103 35.4907 34.1453C35.4907 34.0203 35.5007 33.8703 35.5257 33.6953C35.5457 33.5203 35.5757 33.3303 35.6107 33.1353C35.6507 32.9403 35.6907 32.7403 35.7307 32.5403C35.7707 32.3403 35.8157 32.1503 35.8607 31.9703C35.8607 31.9653 35.8807 31.9453 35.9157 31.9103C35.9507 31.8753 35.9957 31.8453 36.0457 31.8103C36.0907 31.7753 36.1357 31.7453 36.1757 31.7153C36.2157 31.6853 36.2457 31.6753 36.2557 31.6753C36.3057 31.6753 36.3807 31.6953 36.4757 31.7353C36.5707 31.7753 36.6207 31.8153 36.6207 31.8553C36.6107 31.8903 36.6057 31.9153 36.6057 31.9303C36.5907 31.9803 36.5857 32.0303 36.5907 32.0753C36.6007 32.1253 36.6107 32.1653 36.6207 32.2053C36.6307 32.2453 36.6457 32.2803 36.6607 32.3053C36.6757 32.3353 36.6807 32.3553 36.6807 32.3653C36.6407 32.4703 36.6057 32.5853 36.5707 32.7103C36.5357 32.8353 36.5107 32.9503 36.4857 33.0653C36.4657 33.1703 36.4457 33.2653 36.4257 33.3453C36.4107 33.4253 36.4007 33.4703 36.4007 33.4803C36.4057 33.4903 36.4157 33.5053 36.4257 33.5153C36.4307 33.5253 36.4407 33.5403 36.4507 33.5553C36.4607 33.5703 36.4807 33.5903 36.5107 33.6053L37.1057 33.4453C37.2757 33.4003 37.4257 33.3653 37.5707 33.3353C37.7107 33.3053 37.8007 33.2953 37.8407 33.2953C37.8507 33.2953 37.8657 33.2953 37.8857 33.3103C37.9057 33.3203 37.9257 33.3303 37.9507 33.3403C37.9757 33.3503 37.9957 33.3603 38.0207 33.3653C38.0457 33.3703 38.0657 33.3753 38.0857 33.3753C38.0807 33.3803 38.0457 33.4203 37.9907 33.4903V33.4853Z" fill="#ECAA16"/>
<path d="M39.7407 36.0704C39.7507 36.0204 39.7557 35.9754 39.7607 35.9354C39.7707 35.8954 39.7807 35.8604 39.7957 35.8204C39.8057 35.7854 39.8207 35.7404 39.8357 35.6904C39.8507 35.6054 39.8807 35.5154 39.9207 35.4154C39.9607 35.3154 40.0007 35.2204 40.0457 35.1254C40.0907 35.0354 40.1307 34.9504 40.1707 34.8754C40.2107 34.7954 40.2457 34.7354 40.2707 34.6904C40.1507 34.7004 40.0157 34.7254 39.8607 34.7604C39.7057 34.7954 39.5457 34.8354 39.3907 34.8804C39.2257 34.9254 39.0757 34.9754 38.9357 35.0304C38.7957 35.0854 38.6857 35.1404 38.6057 35.1904C38.5307 35.2304 38.4857 35.2554 38.4607 35.2754C38.4357 35.2904 38.4207 35.3154 38.4007 35.3504C38.3707 35.3604 38.3307 35.3654 38.2807 35.3504C38.2257 35.3404 38.1857 35.3304 38.1507 35.3104C38.1207 35.3004 38.1057 35.2654 38.0957 35.2104C38.0857 35.1554 38.0957 35.1004 38.1157 35.0504C38.1357 34.9954 38.2107 34.9154 38.3357 34.8154C38.4607 34.7154 38.7207 34.5904 39.1257 34.4354C39.2357 34.4004 39.3757 34.3604 39.5357 34.3154C39.6957 34.2654 39.8557 34.2254 40.0207 34.1854C40.1807 34.1404 40.3357 34.1004 40.4757 34.0654C40.6157 34.0304 40.7257 34.0104 40.8057 34.0004C40.8707 34.0004 40.9407 34.0204 41.0057 34.0654C41.0707 34.1054 41.1257 34.1554 41.1707 34.2104C41.2107 34.2654 41.2357 34.3204 41.2507 34.3754C41.2657 34.4304 41.2557 34.4654 41.2307 34.4804C41.2307 34.4854 41.2257 34.4954 41.2157 34.5104C41.2057 34.5254 41.1957 34.5404 41.1907 34.5554C41.1807 34.5704 41.1707 34.5904 41.1607 34.6104C41.1507 34.6304 41.1457 34.6454 41.1457 34.6554C41.1357 34.6704 41.1007 34.6954 41.0507 34.7304C40.9957 34.7654 40.9557 34.7854 40.9307 34.7954C40.8957 34.8254 40.8707 34.8504 40.8507 34.8754C40.8307 34.9004 40.8107 34.9254 40.7957 34.9554C40.7807 34.9754 40.7657 35.0054 40.7507 35.0354C40.7357 35.0654 40.7207 35.1004 40.7057 35.1304C40.6757 35.1804 40.6457 35.2504 40.6107 35.3304C40.5757 35.4154 40.5407 35.5004 40.5157 35.5804C40.4807 35.6654 40.4557 35.7454 40.4357 35.8154C40.4157 35.8904 40.4057 35.9404 40.4057 35.9754C40.3607 36.0754 40.3057 36.1554 40.2407 36.2054C40.1757 36.2604 40.1107 36.2904 40.0407 36.3004C39.9807 36.3154 39.9207 36.3154 39.8657 36.3004C39.8107 36.2854 39.7657 36.2604 39.7407 36.2254C39.7407 36.1604 39.7407 36.1004 39.7557 36.0504L39.7407 36.0704ZM41.0507 31.7854C41.1757 31.8204 41.2807 31.8604 41.3657 31.9104C41.4507 31.9604 41.5107 32.0304 41.5507 32.1104C41.5907 32.1954 41.6007 32.3104 41.5757 32.4554C41.5457 32.5854 41.4807 32.6954 41.3707 32.7904C41.2607 32.8854 41.1357 32.9604 40.9957 33.0304C40.8607 33.0954 40.7257 33.1554 40.5957 33.2054C40.4657 33.2554 40.3657 33.3054 40.2957 33.3504C40.2807 33.3654 40.2207 33.3954 40.1207 33.4404C40.0207 33.4804 39.9307 33.5004 39.8607 33.4954C39.7757 33.4904 39.7007 33.4804 39.6307 33.4604C39.5607 33.4454 39.4957 33.4254 39.4407 33.4004C39.3907 33.3854 39.3457 33.3654 39.3107 33.3504C39.2757 33.3354 39.2457 33.3204 39.2307 33.3154C39.1907 33.3054 39.1457 33.2754 39.1007 33.2304C39.0507 33.1854 39.0107 33.1354 38.9707 33.0804C38.9257 33.0254 38.8907 32.9654 38.8607 32.9054C38.8307 32.8454 38.8257 32.7854 38.8357 32.7354C38.8507 32.6304 38.9257 32.4954 39.0557 32.3404C39.1857 32.1854 39.3307 32.0354 39.4907 31.8954C39.6607 31.7504 39.8207 31.6254 39.9807 31.5304C40.1357 31.4304 40.2507 31.3904 40.3257 31.4004C40.3657 31.4054 40.3957 31.4204 40.4157 31.4404C40.4357 31.4604 40.4557 31.4904 40.4757 31.5154C40.5007 31.5454 40.5207 31.5704 40.5407 31.6004C40.5607 31.6304 40.5957 31.6454 40.6407 31.6504C40.7857 31.7054 40.9207 31.7504 41.0507 31.7854ZM40.0357 32.8204C40.1707 32.7904 40.3107 32.7554 40.4557 32.7104C40.6007 32.6704 40.7357 32.6254 40.8507 32.5654C40.9707 32.5104 41.0357 32.4554 41.0507 32.4054C41.0507 32.3904 41.0407 32.3554 41.0257 32.3104C41.0107 32.2604 40.9857 32.2154 40.9607 32.1654C40.9307 32.1154 40.9007 32.0704 40.8607 32.0304C40.8207 31.9904 40.7807 31.9704 40.7407 31.9654C40.7107 31.9604 40.6657 31.9654 40.6057 31.9904C40.5457 32.0154 40.4807 32.0404 40.4107 32.0654C40.3357 32.1004 40.2657 32.1304 40.1957 32.1654C40.1257 32.2004 40.0657 32.2254 40.0157 32.2404C39.9907 32.2454 39.9557 32.2704 39.9107 32.3054C39.8607 32.3454 39.8157 32.3904 39.7657 32.4404C39.7157 32.4904 39.6707 32.5404 39.6257 32.5904C39.5857 32.6404 39.5607 32.6804 39.5557 32.7104C39.5557 32.7304 39.5607 32.7504 39.5757 32.7654C39.5907 32.7804 39.6057 32.7904 39.6307 32.8054C39.6507 32.8204 39.6757 32.8354 39.7007 32.8454C39.7257 32.8554 39.7507 32.8604 39.7707 32.8654C39.8107 32.8654 39.8957 32.8504 40.0307 32.8254L40.0357 32.8204ZM43.0207 33.4254C42.9857 33.4254 42.9307 33.4404 42.8557 33.4654C42.7807 33.4904 42.7007 33.5154 42.6157 33.5454C42.5357 33.5754 42.4607 33.6004 42.3907 33.6204C42.3207 33.6404 42.2757 33.6554 42.2607 33.6554C42.2357 33.6604 42.2157 33.6654 42.1907 33.6704C42.1657 33.6704 42.1357 33.6754 42.1007 33.6854C42.0707 33.6904 42.0457 33.6954 42.0107 33.7004C41.9807 33.7004 41.9507 33.7004 41.9207 33.7004C41.8607 33.7154 41.8157 33.7304 41.7957 33.7404C41.7657 33.7404 41.7157 33.7104 41.6407 33.6554C41.5657 33.6004 41.5257 33.5454 41.5257 33.4854C41.5257 33.4804 41.5407 33.4554 41.5707 33.4154C41.6007 33.3754 41.6207 33.3504 41.6257 33.3454C41.6707 33.3254 41.7207 33.3004 41.7807 33.2804C41.8407 33.2604 41.9007 33.2354 41.9607 33.2154C42.0257 33.1954 42.0957 33.1704 42.1657 33.1504C42.2357 33.1304 42.3057 33.1004 42.3807 33.0754C42.4907 33.0354 42.6207 32.9954 42.7607 32.9504C42.9007 32.9054 43.0107 32.8704 43.0957 32.8504C43.1257 32.6204 43.1607 32.4154 43.2107 32.2304C43.2557 32.0504 43.3157 31.9554 43.3807 31.9504C43.3857 31.9554 43.4107 31.9704 43.4557 31.9904C43.5007 32.0154 43.5507 32.0404 43.6007 32.0754C43.6557 32.1104 43.7107 32.1404 43.7557 32.1754C43.8057 32.2104 43.8307 32.2404 43.8457 32.2654C43.8557 32.3004 43.8607 32.3354 43.8607 32.3704C43.8607 32.4054 43.8607 32.4454 43.8507 32.4854C43.8457 32.5304 43.8357 32.5804 43.8257 32.6304C43.8157 32.6804 43.8057 32.7404 43.8007 32.8054V33.1654C43.8007 33.2554 43.8007 33.3404 43.8107 33.4254C43.8157 33.5104 43.8257 33.5704 43.8357 33.6004C43.8307 33.6154 43.8207 33.6904 43.8007 33.8204C43.7857 33.9504 43.7607 34.0954 43.7257 34.2554C43.6907 34.4254 43.6507 34.5904 43.5957 34.7504C43.5407 34.9154 43.4807 35.0354 43.4157 35.1104C43.3707 35.1204 43.3307 35.1354 43.3007 35.1454C43.2707 35.1554 43.2457 35.1654 43.2207 35.1804C43.1957 35.1904 43.1757 35.2004 43.1557 35.2154C43.1407 35.2154 43.1157 35.2154 43.0807 35.2154C43.0457 35.2154 43.0157 35.2104 42.9807 35.2004C42.9457 35.1954 42.9157 35.1854 42.8907 35.1804C42.8657 35.1704 42.8507 35.1604 42.8507 35.1404C42.8457 35.1354 42.8507 35.1104 42.8657 35.0654C42.8807 35.0204 42.8957 34.9654 42.9107 34.8954C42.9257 34.8354 42.9457 34.7654 42.9607 34.6904C42.9757 34.6154 42.9857 34.5404 42.9857 34.4654C42.9857 34.4154 42.9857 34.3654 42.9857 34.3104C42.9857 34.2554 42.9857 34.2054 42.9857 34.1554C42.9907 34.1054 42.9957 34.0554 42.9957 34.0004C42.9957 33.9454 42.9957 33.8954 43.0057 33.8454C43.0057 33.8404 43.0057 33.8004 43.0057 33.7254C43.0057 33.6504 43.0157 33.5554 43.0257 33.4404C43.0207 33.4404 43.0107 33.4404 43.0007 33.4304L43.0207 33.4254ZM42.9357 37.4054C42.8957 37.4104 42.8507 37.4204 42.8007 37.4304C42.7507 37.4404 42.7007 37.4504 42.6557 37.4554C42.6107 37.4654 42.5507 37.4754 42.4807 37.4904C42.4057 37.4904 42.3207 37.4754 42.2257 37.4504C42.1257 37.4204 42.0357 37.3854 41.9457 37.3304C41.8607 37.2804 41.7907 37.2154 41.7257 37.1404C41.6657 37.0654 41.6307 36.9804 41.6307 36.8854C41.6307 36.6604 41.6757 36.4454 41.7657 36.2454C41.8557 36.0454 41.9857 35.8404 42.1507 35.6404C42.1707 35.6054 42.1957 35.5754 42.2157 35.5454C42.2357 35.5154 42.2507 35.4904 42.2607 35.4754C42.2707 35.4554 42.2807 35.4354 42.2857 35.4254C42.2907 35.4154 42.3007 35.4104 42.3107 35.4104C42.3157 35.4104 42.3357 35.4304 42.3707 35.4754C42.4057 35.5204 42.4207 35.5704 42.4107 35.6254C42.4057 35.6654 42.3907 35.7204 42.3607 35.7954C42.3307 35.8704 42.3007 35.9454 42.2657 36.0304C42.2307 36.1204 42.2007 36.2104 42.1707 36.3054C42.1407 36.4004 42.1307 36.4804 42.1307 36.5554C42.1257 36.6204 42.1457 36.6804 42.1957 36.7254C42.2457 36.7704 42.3157 36.7904 42.3957 36.7904C42.5207 36.7954 42.6807 36.7704 42.8757 36.7104C43.0707 36.6504 43.2707 36.5854 43.4707 36.5104C43.6657 36.4354 43.8457 36.3704 44.0107 36.3104C44.1757 36.2504 44.2907 36.2154 44.3507 36.2154C44.3507 36.2204 44.3507 36.2304 44.3507 36.2404C44.3507 36.2504 44.3557 36.2654 44.3657 36.2754C44.3707 36.2904 44.3757 36.3104 44.3807 36.3254C44.3857 36.3404 44.3907 36.3554 44.3907 36.3604C44.3907 36.3804 44.3807 36.4154 44.3557 36.4504C44.3357 36.4904 44.3057 36.5304 44.2807 36.5754C44.2507 36.6204 44.2257 36.6604 44.1957 36.6954C44.1657 36.7304 44.1457 36.7554 44.1307 36.7604C44.0707 36.7954 43.9907 36.8354 43.9007 36.8904C43.8057 36.9454 43.7157 37.0004 43.6207 37.0554C43.5257 37.1104 43.4357 37.1654 43.3557 37.2154C43.2757 37.2654 43.2157 37.3004 43.1757 37.3254C43.1607 37.3254 43.0757 37.3554 42.9257 37.4104L42.9357 37.4054Z" fill="#ECAA16"/>
<path d="M48.7803 33.5351C48.8403 33.5551 48.8953 33.5801 48.9453 33.6151C49.0003 33.6451 49.0503 33.6751 49.0903 33.7151C49.1303 33.7551 49.1503 33.7901 49.1503 33.8251C49.1453 33.8851 49.1103 33.9651 49.0503 34.0501C48.9903 34.1401 48.9203 34.2301 48.8503 34.3301C48.7703 34.4201 48.6953 34.5001 48.6253 34.5701C48.5553 34.6401 48.5103 34.6851 48.4953 34.7001C48.4353 34.7501 48.3603 34.8101 48.2803 34.8751C48.2003 34.9401 48.1153 35.0001 48.0303 35.0501C47.8853 35.1351 47.7153 35.1901 47.5303 35.2201C47.3403 35.2501 47.1903 35.2551 47.0703 35.2451C47.0453 35.2451 47.0203 35.2301 46.9803 35.2051C46.9453 35.1801 46.9253 35.1601 46.9153 35.1501C46.7603 35.1151 46.6553 35.0651 46.6003 34.9951C46.5453 34.9251 46.5303 34.8401 46.5453 34.7401C46.5503 34.6151 46.6003 34.4751 46.7003 34.3201C46.8003 34.1651 46.9103 34.0101 47.0303 33.8551C47.1553 33.7051 47.2753 33.5651 47.3953 33.4351C47.5153 33.3051 47.6003 33.2001 47.6503 33.1251C47.6453 33.1201 47.6403 33.1151 47.6353 33.1101C47.6353 33.1101 47.6303 33.1051 47.6203 33.0951C47.6103 33.0901 47.6003 33.0851 47.5953 33.0851C47.5703 33.0851 47.5453 33.0851 47.5203 33.0951C47.4903 33.1001 47.4603 33.1101 47.4203 33.1201C47.3803 33.1301 47.3403 33.1451 47.3003 33.1551C47.2603 33.1651 47.2153 33.1751 47.1803 33.1801C47.1503 33.1901 47.1103 33.2101 47.0603 33.2451C47.0053 33.2751 46.9453 33.3101 46.8703 33.3401C46.7953 33.3801 46.7203 33.4201 46.6353 33.4601C46.5503 33.5001 46.4653 33.5351 46.3753 33.5701C46.3603 33.5751 46.3403 33.5851 46.3253 33.5951C46.3103 33.6051 46.2903 33.6201 46.2753 33.6351C46.2603 33.6451 46.2403 33.6601 46.2203 33.6751C46.2003 33.6901 46.1803 33.7001 46.1653 33.7051C46.0853 33.7401 46.0053 33.7601 45.9203 33.7701C45.8353 33.7801 45.7603 33.7901 45.6953 33.7951C45.6203 33.8001 45.5603 33.8001 45.5153 33.7951C45.4653 33.7951 45.4403 33.7951 45.4353 33.7951C45.3853 33.7951 45.3353 33.7601 45.2903 33.6851C45.2403 33.6101 45.2253 33.5651 45.2353 33.5501C45.2353 33.5351 45.2453 33.5001 45.2603 33.4551C45.2753 33.4051 45.3053 33.3651 45.3453 33.3351C45.4103 33.2851 45.4753 33.2401 45.5353 33.2001C45.5953 33.1601 45.6553 33.1251 45.7153 33.0901C45.7703 33.0551 45.8303 33.0201 45.8953 32.9801C45.9603 32.9401 46.0353 32.8951 46.1203 32.8451C46.2653 32.7451 46.3753 32.6501 46.4503 32.5601C46.5253 32.4701 46.5803 32.3901 46.6153 32.3251C46.6503 32.2501 46.6703 32.1901 46.6753 32.1351C46.6803 32.0801 46.6903 32.0401 46.7003 32.0051C46.7153 31.9001 46.7353 31.7701 46.7603 31.6201C46.7803 31.4701 46.8103 31.3101 46.8453 31.1501C46.8753 30.9851 46.9103 30.8301 46.9503 30.6801C46.9903 30.5301 47.0403 30.4001 47.0903 30.2951C47.0903 30.2901 47.1003 30.2801 47.1153 30.2701C47.1303 30.2601 47.1503 30.2451 47.1653 30.2301C47.1803 30.2201 47.2003 30.2101 47.2203 30.1951C47.2403 30.1851 47.2603 30.1701 47.2753 30.1551C47.2853 30.1501 47.3153 30.1551 47.3703 30.1551C47.4203 30.1651 47.4753 30.1801 47.5303 30.2001C47.5903 30.2251 47.6453 30.2501 47.6953 30.2901C47.7453 30.3251 47.7753 30.3701 47.7903 30.4201C47.7953 30.4301 47.8003 30.4451 47.8003 30.4551V30.5351C47.8003 30.5351 47.8053 30.5601 47.8153 30.5651C47.8153 30.5801 47.8203 30.6001 47.8303 30.6201C47.8403 30.6401 47.8503 30.6601 47.8653 30.6751C47.8753 30.6951 47.8853 30.7151 47.8903 30.7351C47.8953 30.7501 47.9003 30.7651 47.9003 30.7701C47.9003 30.7751 47.8853 30.8251 47.8603 30.9201C47.8353 31.0151 47.8053 31.1251 47.7703 31.2501C47.7353 31.3801 47.7003 31.5051 47.6603 31.6251C47.6203 31.7451 47.5853 31.8301 47.5603 31.8801C47.5503 31.8901 47.5403 31.9051 47.5353 31.9251C47.5303 31.9451 47.5253 31.9651 47.5203 31.9901C47.5103 32.0151 47.4953 32.0401 47.4853 32.0651C47.4753 32.0951 47.4603 32.1201 47.4453 32.1401C47.4353 32.1551 47.4003 32.1851 47.3453 32.2301C47.2903 32.2701 47.2253 32.3201 47.1603 32.3751C47.0853 32.4301 47.0153 32.4901 46.9453 32.5501C46.8753 32.6101 46.8253 32.6701 46.7903 32.7201C46.8953 32.7051 47.0153 32.6801 47.1403 32.6551C47.2653 32.6251 47.3953 32.5951 47.5303 32.5601C47.6653 32.5301 47.8003 32.5051 47.9353 32.4701C48.0703 32.4401 48.2003 32.4151 48.3303 32.3901C48.5053 32.4051 48.6303 32.4501 48.7153 32.5251C48.7953 32.6001 48.8303 32.7201 48.8103 32.8851C48.8053 32.9151 48.7903 32.9351 48.7703 32.9501C48.7503 32.9651 48.7253 32.9751 48.7003 32.9901C48.6803 33.0051 48.6553 33.0201 48.6353 33.0351C48.6103 33.0501 48.6003 33.0651 48.6003 33.0901C48.4653 33.2201 48.3203 33.3701 48.1653 33.5351C48.0103 33.7051 47.8703 33.8651 47.7503 34.0151C47.7403 34.0251 47.7303 34.0401 47.7253 34.0601C47.7203 34.0801 47.7153 34.1001 47.7103 34.1251C47.7003 34.1501 47.6903 34.1701 47.6803 34.1901C47.6703 34.2151 47.6603 34.2301 47.6503 34.2401C47.6353 34.2701 47.6103 34.3001 47.5853 34.3301C47.5603 34.3601 47.5353 34.3951 47.5053 34.4251C47.4853 34.4651 47.4653 34.5051 47.4453 34.5451C47.4303 34.5851 47.4203 34.6201 47.4203 34.6551C47.4703 34.6751 47.5553 34.6601 47.6703 34.6051C47.7853 34.5501 47.9003 34.4801 48.0203 34.3951C48.1403 34.3151 48.2403 34.2401 48.3303 34.1601C48.4203 34.0801 48.4653 34.0351 48.4753 34.0151C48.4753 33.9851 48.4553 33.9651 48.4203 33.9451C48.3853 33.9251 48.3453 33.9051 48.3003 33.8901C48.2553 33.8701 48.2153 33.8451 48.1803 33.8201C48.1453 33.7951 48.1303 33.7601 48.1353 33.7151C48.1353 33.6701 48.1603 33.6351 48.2103 33.6051C48.2603 33.5751 48.3153 33.5551 48.3803 33.5451C48.4353 33.5301 48.4903 33.5151 48.5503 33.5101C48.6053 33.5051 48.6453 33.5001 48.6603 33.5001C48.6953 33.5051 48.7403 33.5201 48.8003 33.5401L48.7803 33.5351ZM50.8553 34.0951C50.8553 34.2851 50.8403 34.4851 50.8153 34.6901C50.7903 34.8951 50.7603 35.0901 50.7253 35.2751C50.6903 35.4651 50.6553 35.6351 50.6103 35.7851C50.5703 35.9351 50.5303 36.0451 50.4953 36.1151C50.4853 36.1301 50.4753 36.1701 50.4603 36.2351C50.4503 36.2951 50.4303 36.3601 50.4103 36.4301C50.3953 36.4951 50.3703 36.5601 50.3453 36.6151C50.3203 36.6701 50.2903 36.7001 50.2553 36.7101C50.1603 36.7451 50.0653 36.7501 49.9653 36.7251C49.8653 36.7001 49.8003 36.6351 49.7653 36.5251C49.7503 36.4851 49.7353 36.4551 49.7253 36.4301C49.7153 36.4101 49.7103 36.3901 49.7053 36.3701C49.7003 36.3501 49.6953 36.3251 49.6903 36.3051C49.6903 36.2851 49.6903 36.2551 49.6903 36.2101C49.6903 36.1801 49.6803 36.1251 49.6603 36.0401C49.6403 35.9551 49.5803 35.9001 49.4803 35.8801C49.3853 35.9101 49.2653 35.9401 49.1253 35.9701C48.9803 36.0001 48.8303 36.0351 48.6653 36.0651C48.5103 36.1051 48.3503 36.1401 48.1853 36.1751C48.0203 36.2101 47.8803 36.2401 47.7553 36.2701C47.6903 36.2851 47.6153 36.3051 47.5403 36.3251C47.4653 36.3451 47.3853 36.3651 47.3003 36.3901C47.2153 36.4151 47.1303 36.4351 47.0403 36.4551C46.9503 36.4751 46.8603 36.4951 46.7603 36.5101H46.5003C46.3703 36.5101 46.2503 36.5001 46.1403 36.4751C46.0303 36.4551 45.9703 36.4051 45.9703 36.3301V36.2551C45.9903 36.2251 46.0103 36.2051 46.0303 36.1901C46.0453 36.1751 46.0603 36.1601 46.0703 36.1501C46.0803 36.1401 46.0903 36.1301 46.1003 36.1201C46.1103 36.1101 46.1203 36.1001 46.1303 36.0801C46.3303 36.0201 46.5153 35.9651 46.6853 35.9251C46.8553 35.8851 47.0153 35.8401 47.1753 35.8051C47.3403 35.7701 47.5003 35.7351 47.6653 35.7001C47.8303 35.6651 48.0153 35.6151 48.2153 35.5551C48.3003 35.5351 48.4003 35.5051 48.5203 35.4701C48.6403 35.4351 48.7603 35.3951 48.8903 35.3501C49.0203 35.3101 49.1453 35.2701 49.2653 35.2251C49.3853 35.1801 49.4903 35.1301 49.5803 35.0801C49.6753 34.8951 49.7403 34.7301 49.7703 34.5801C49.8003 34.4301 49.8203 34.2601 49.8353 34.0701C49.8453 34.0551 49.8553 34.0101 49.8653 33.9501C49.8753 33.8851 49.8853 33.8151 49.8953 33.7351C49.9003 33.6501 49.9103 33.5651 49.9253 33.4851C49.9403 33.4001 49.9603 33.3301 49.9903 33.2651C49.9953 33.2501 50.0053 33.2301 50.0253 33.2051C50.0403 33.1851 50.0603 33.1601 50.0753 33.1401C50.0953 33.1251 50.1153 33.1051 50.1353 33.0801C50.1503 33.0601 50.1703 33.0351 50.1853 33.0151C50.1903 33.0151 50.2003 33.0101 50.2203 33.0001C50.2353 32.9901 50.2553 32.9801 50.2803 32.9751C50.2953 32.9651 50.3153 32.9551 50.3303 32.9451C50.3453 32.9351 50.3653 32.9301 50.3803 32.9301C50.4803 32.9301 50.5853 32.9701 50.6903 33.0551C50.7953 33.1401 50.8503 33.2201 50.8503 33.2901L50.8403 34.1051L50.8553 34.0951Z" fill="#149B79"/>
<path d="M55.8251 33.4203C55.8851 33.4403 55.9201 33.4703 55.9251 33.4953C55.9301 33.5303 55.8951 33.5953 55.8251 33.6903C55.7501 33.7853 55.6751 33.8703 55.5901 33.9403C55.4451 34.0703 55.2801 34.1603 55.1001 34.2103C54.9201 34.2603 54.6951 34.3053 54.4251 34.3353C54.2451 34.3553 54.1301 34.3353 54.0701 34.2653C54.0151 34.1953 53.9851 34.1403 53.9851 34.1003C53.9701 34.0203 53.9801 33.9253 54.0201 33.8153C54.0601 33.7053 54.1051 33.5903 54.1551 33.4703C54.2051 33.3503 54.2501 33.2403 54.2951 33.1353C54.3351 33.0303 54.3501 32.9403 54.3401 32.8753C54.3151 32.7953 54.2601 32.7403 54.1651 32.7003C54.0701 32.6603 53.9651 32.6353 53.8451 32.6153C53.7351 32.6003 53.6301 32.5903 53.5301 32.5953C53.4301 32.5953 53.3751 32.5953 53.3601 32.5953C53.3451 32.6003 53.3201 32.6053 53.2951 32.6103C53.2651 32.6103 53.2401 32.6203 53.2101 32.6303C53.1801 32.6353 53.1601 32.6453 53.1451 32.6653C53.1301 32.6803 53.1251 32.7053 53.1351 32.7303C53.1351 32.7453 53.1401 32.7603 53.1501 32.7753C53.1601 32.7903 53.1751 32.8053 53.1901 32.8203C53.2001 32.8303 53.2101 32.8453 53.2251 32.8553C53.2351 32.8653 53.2451 32.8803 53.2501 32.8903C53.2001 33.1803 53.1801 33.4503 53.1901 33.6953C53.2001 33.9403 53.2401 34.1753 53.3001 34.4053C53.3001 34.4203 53.3051 34.4403 53.3151 34.4603C53.3251 34.4803 53.3401 34.5003 53.3551 34.5253C53.3701 34.5403 53.3851 34.5603 53.4001 34.5803C53.4151 34.6003 53.4251 34.6203 53.4301 34.6353C53.4351 34.6853 53.4201 34.7303 53.3901 34.7703C53.3551 34.8103 53.3151 34.8453 53.2701 34.8803C53.2251 34.9153 53.1801 34.9403 53.1351 34.9603C53.0901 34.9803 53.0551 34.9903 53.0351 35.0003C52.8551 35.0153 52.7051 34.9603 52.5801 34.8303C52.4551 34.7003 52.3551 34.5503 52.2751 34.3853C52.2001 34.2153 52.1501 34.0603 52.1151 33.9103C52.0801 33.7603 52.0651 33.6753 52.0651 33.6553C52.0551 33.5053 52.0551 33.3153 52.0651 33.0853C52.0801 32.8603 52.1051 32.6353 52.1451 32.4153C52.1901 32.2003 52.2501 32.0153 52.3251 31.8553C52.4001 31.6953 52.5051 31.6003 52.6301 31.5753C52.7551 31.5653 52.8451 31.5753 52.9051 31.6203C52.9651 31.6603 53.0051 31.7103 53.0351 31.7603C53.0651 31.8153 53.0851 31.8703 53.1001 31.9253C53.1151 31.9803 53.1401 32.0103 53.1801 32.0153C53.2451 32.0303 53.3251 32.0403 53.4051 32.0403H53.9201C54.0051 32.0403 54.0801 32.0503 54.1451 32.0653C54.1551 32.0653 54.2051 32.0753 54.2951 32.0953C54.3851 32.1153 54.4851 32.1403 54.5901 32.1753C54.7001 32.2103 54.8101 32.2553 54.9101 32.3103C55.0101 32.3653 55.0801 32.4303 55.1201 32.5053C55.1251 32.5603 55.1201 32.6403 55.0951 32.7353C55.0751 32.8353 55.0451 32.9353 55.0101 33.0403C54.9751 33.1453 54.9451 33.2503 54.9101 33.3453C54.8751 33.4403 54.8501 33.5153 54.8351 33.5653C54.8401 33.5953 54.8551 33.6103 54.8801 33.6103C54.9051 33.6103 54.9351 33.6103 54.9701 33.6103C54.9901 33.6103 55.0351 33.6003 55.1001 33.5753C55.1651 33.5553 55.2351 33.5303 55.3151 33.5103C55.3901 33.4803 55.4551 33.4553 55.5201 33.4353C55.5851 33.4153 55.6301 33.4003 55.6601 33.3953C55.7001 33.3953 55.7501 33.4053 55.8101 33.4303L55.8251 33.4203ZM57.2551 35.8803C57.3201 35.9303 57.3901 35.9853 57.4551 36.0503C57.5151 36.1153 57.5751 36.1853 57.6251 36.2553C57.6751 36.3253 57.7001 36.3853 57.7001 36.4303C57.7001 36.5403 57.6401 36.6653 57.5201 36.7903C57.4001 36.9203 57.2601 37.0353 57.1051 37.1453C56.9501 37.2503 56.7901 37.3403 56.6401 37.4103C56.4851 37.4803 56.3801 37.5153 56.3151 37.5153C56.0401 37.5153 55.8401 37.4203 55.7101 37.2353C55.5801 37.0453 55.5151 36.8453 55.5151 36.6253C55.5151 36.5253 55.5351 36.4103 55.5801 36.2903C55.6251 36.1653 55.6851 36.0503 55.7551 35.9453C55.8351 35.8353 55.9201 35.7403 56.0051 35.6653C56.0951 35.5903 56.1851 35.5553 56.2851 35.5553C56.3651 35.5553 56.4451 35.5703 56.5251 35.6003C56.6051 35.6303 56.6801 35.6653 56.7501 35.6953C56.8151 35.7353 56.8751 35.7703 56.9201 35.7953C56.9701 35.8253 57.0001 35.8353 57.0151 35.8353C57.0251 35.8353 57.0351 35.8353 57.0351 35.8353C57.0351 35.8353 57.0401 35.8303 57.0501 35.8203C57.0551 35.8203 57.0601 35.8203 57.0601 35.8103C57.0601 35.8053 57.0751 35.8003 57.0901 35.8003C57.1301 35.8003 57.1851 35.8253 57.2501 35.8703L57.2551 35.8803ZM58.8801 33.4653C58.8401 33.5653 58.8051 33.6403 58.7701 33.6953C58.6851 33.7453 58.5751 33.8053 58.4351 33.8753C58.2951 33.9453 58.1601 33.9953 58.0301 34.0303C58.0151 34.0353 57.9751 34.0453 57.9151 34.0553C57.8551 34.0653 57.7851 34.0853 57.7101 34.1053C57.6301 34.1253 57.5451 34.1553 57.4601 34.1853C57.3701 34.2153 57.2851 34.2503 57.2001 34.2903C57.1901 34.3203 57.1801 34.3453 57.1751 34.3703C57.1701 34.3953 57.1651 34.4203 57.1601 34.4403C57.1551 34.4653 57.1501 34.4803 57.1451 34.5003C57.1401 34.5153 57.1351 34.5303 57.1351 34.5403C57.1301 34.5453 57.1251 34.5703 57.1251 34.6153C57.1251 34.6603 57.1251 34.7153 57.1351 34.7853C57.1351 34.8653 57.0801 34.9403 56.9751 35.0153C56.8701 35.0903 56.7751 35.1153 56.6951 35.0853C56.6851 35.0853 56.6651 35.0853 56.6301 35.0703C56.6001 35.0603 56.5651 35.0503 56.5351 35.0403C56.5001 35.0253 56.4701 35.0103 56.4401 35.0003C56.4101 34.9903 56.3901 34.9803 56.3851 34.9753C56.3351 34.9003 56.2951 34.7853 56.2651 34.6253C56.2351 34.4653 56.2201 34.3003 56.2201 34.1353C56.2201 33.9953 56.2301 33.8353 56.2551 33.6553C56.2751 33.4753 56.3051 33.2903 56.3401 33.1003C56.3801 32.9053 56.4201 32.7103 56.4601 32.5153C56.5001 32.3203 56.5451 32.1353 56.5901 31.9553C56.5901 31.9453 56.6101 31.9203 56.6551 31.8853C56.6951 31.8503 56.7451 31.8103 56.8001 31.7703C56.8551 31.7303 56.9101 31.6953 56.9701 31.6653C57.0251 31.6353 57.0651 31.6203 57.0901 31.6203C57.1651 31.6203 57.2601 31.6453 57.3751 31.6903C57.4951 31.7403 57.5501 31.7903 57.5501 31.8453C57.5501 31.8553 57.5501 31.8703 57.5401 31.8853C57.5351 31.9003 57.5301 31.9153 57.5301 31.9303C57.5201 31.9803 57.5151 32.0253 57.5201 32.0703C57.5251 32.1103 57.5351 32.1503 57.5451 32.1853C57.5551 32.2253 57.5701 32.2603 57.5851 32.2903C57.6001 32.3203 57.6051 32.3453 57.6051 32.3603C57.5701 32.4503 57.5401 32.5503 57.5151 32.6653C57.4851 32.7803 57.4601 32.8903 57.4401 32.9903C57.4201 33.0953 57.4001 33.1903 57.3801 33.2703C57.3651 33.3503 57.3501 33.4003 57.3451 33.4153C57.3501 33.4403 57.3551 33.4553 57.3551 33.4753C57.3601 33.4853 57.3651 33.5003 57.3701 33.5103C57.3701 33.5203 57.3751 33.5253 57.3851 33.5253L57.9051 33.3803C58.0751 33.3353 58.2251 33.3003 58.3651 33.2703C58.5001 33.2403 58.6051 33.2303 58.6701 33.2303C58.6901 33.2303 58.7201 33.2303 58.7451 33.2453C58.7751 33.2553 58.8001 33.2653 58.8301 33.2753C58.8501 33.2853 58.8701 33.2953 58.8851 33.3003C58.9001 33.3053 58.9101 33.3103 58.9151 33.3103C58.9401 33.3103 58.9301 33.3603 58.8901 33.4553L58.8801 33.4653ZM56.5401 36.8803C56.6001 36.8553 56.6601 36.8253 56.7201 36.7853C56.7801 36.7453 56.8401 36.7053 56.8901 36.6653C56.9451 36.6253 56.9701 36.5853 56.9701 36.5503C56.9701 36.5453 56.9601 36.5203 56.9401 36.4803C56.9201 36.4403 56.9001 36.3953 56.8751 36.3503C56.8451 36.3003 56.8201 36.2553 56.7951 36.2203C56.7701 36.1853 56.7501 36.1653 56.7301 36.1653C56.6551 36.1653 56.5901 36.1953 56.5351 36.2603C56.4801 36.3203 56.4301 36.3903 56.3901 36.4603C56.3501 36.5403 56.3201 36.6153 56.3001 36.6853C56.2801 36.7553 56.2701 36.8003 56.2701 36.8253C56.2701 36.8703 56.2851 36.9003 56.3201 36.9103C56.3551 36.9203 56.3851 36.9253 56.4201 36.9253C56.4301 36.9253 56.4651 36.9103 56.5251 36.8853L56.5401 36.8803Z" fill="#149B79"/>
<path d="M62.9107 32.9003C62.9507 32.7053 63.0057 32.5153 63.0707 32.3303C63.1957 32.2303 63.2957 32.1553 63.3707 32.1053C63.4457 32.0553 63.5007 32.0353 63.5357 32.0353C63.5557 32.0353 63.5807 32.0553 63.6007 32.0903C63.6207 32.1253 63.6357 32.1703 63.6457 32.2203C63.6607 32.2703 63.6757 32.3203 63.6857 32.3653C63.6957 32.4153 63.7007 32.4503 63.7007 32.4703C63.6557 32.5553 63.6207 32.6503 63.5957 32.7503C63.5707 32.8553 63.5507 32.9603 63.5407 33.0753C63.5257 33.1853 63.5107 33.3003 63.5007 33.4153C63.4907 33.5303 63.4857 33.6403 63.4807 33.7403C63.5207 33.7303 63.5557 33.7203 63.5857 33.7153C63.6157 33.7103 63.6407 33.7003 63.6657 33.6903C63.6957 33.6853 63.7157 33.6803 63.7357 33.6753C63.7557 33.6703 63.7757 33.6603 63.7907 33.6403C63.9107 33.5903 64.0257 33.5203 64.1457 33.4303C64.2657 33.3403 64.3857 33.2303 64.5007 33.1003C64.5457 32.8203 64.6057 32.5703 64.6757 32.3503C64.7507 32.1303 64.8207 32.0053 64.8957 31.9703C64.9457 31.9503 64.9957 31.9153 65.0407 31.8753C65.0857 31.8353 65.1307 31.7903 65.1757 31.7453C65.2157 31.7053 65.2557 31.6703 65.2957 31.6353C65.3357 31.6003 65.3857 31.5803 65.4357 31.5703C65.4407 31.5803 65.4457 31.5903 65.4507 31.6003C65.4557 31.6103 65.4657 31.6153 65.4757 31.6203C65.4807 31.6303 65.4857 31.6453 65.4907 31.6603C65.4957 31.6753 65.5007 31.6953 65.5007 31.7203C65.5007 31.7453 65.4957 31.7903 65.4857 31.8653C65.4757 31.9403 65.4607 32.0253 65.4507 32.1203C65.4407 32.2203 65.4257 32.3253 65.4107 32.4253C65.3957 32.5303 65.3757 32.6153 65.3607 32.6903C65.3407 32.8003 65.3157 32.8903 65.2957 32.9603C65.2757 33.0253 65.2557 33.0903 65.2407 33.1553C65.2257 33.2153 65.2107 33.2853 65.2007 33.3603C65.1907 33.4353 65.1857 33.5403 65.1857 33.6653C65.1807 33.7853 65.1607 33.9053 65.1257 34.0303C65.0907 34.1553 65.0607 34.2403 65.0307 34.2803C65.0157 34.3353 64.9857 34.3953 64.9507 34.4553C64.9157 34.5153 64.8807 34.5753 64.8457 34.6353C64.8107 34.6903 64.7857 34.7453 64.7757 34.8003C64.7607 34.8553 64.7707 34.8953 64.7957 34.9303C64.9307 34.9153 65.0307 34.9053 65.1007 34.9053C65.1107 34.9153 65.1257 34.9203 65.1407 34.9153C65.1557 34.9103 65.1757 34.9053 65.2007 34.9053C65.2157 34.9053 65.2407 34.9103 65.2657 34.9203C65.2907 34.9303 65.3207 34.9553 65.3557 34.9853C65.3757 35.0153 65.4057 35.0653 65.4457 35.1403C65.4807 35.2153 65.4907 35.2703 65.4757 35.3053C65.4907 35.4303 65.4907 35.5703 65.4607 35.7303C65.4357 35.8903 65.4007 36.0503 65.3657 36.2153C65.3257 36.3803 65.2907 36.5303 65.2607 36.6803C65.2307 36.8253 65.2207 36.9453 65.2407 37.0353C65.2407 37.0703 65.2207 37.1103 65.1757 37.1653C65.1307 37.2203 65.0807 37.2653 65.0257 37.3103C64.9707 37.3603 64.9157 37.4003 64.8557 37.4353C64.8007 37.4703 64.7657 37.4853 64.7457 37.4853C64.6607 37.4853 64.6107 37.4303 64.5857 37.3153C64.5657 37.2053 64.5557 37.1053 64.5707 37.0203C64.5857 36.8353 64.6007 36.6953 64.6107 36.6003C64.6207 36.5053 64.6357 36.4203 64.6507 36.3403C64.6607 36.2753 64.6757 36.1953 64.6907 36.1053C64.7057 36.0153 64.7207 35.8853 64.7457 35.7203C64.7457 35.6803 64.7307 35.6353 64.7007 35.5803C64.6707 35.5253 64.6107 35.5003 64.5207 35.5003C64.4407 35.5053 64.3707 35.5153 64.3007 35.5253C64.2357 35.5353 64.1707 35.5503 64.1157 35.5653C64.0557 35.5753 63.9957 35.5903 63.9407 35.6053C63.8857 35.6203 63.8357 35.6353 63.7857 35.6453C63.7357 35.6453 63.7007 35.6053 63.6857 35.5253C63.6707 35.4453 63.6857 35.3753 63.7257 35.3053C63.7257 35.2903 63.7607 35.2603 63.8257 35.2253C63.8907 35.1903 63.9707 35.1503 64.0507 35.1103C64.1357 35.0703 64.2157 35.0353 64.2857 34.9953C64.3607 34.9603 64.4007 34.9303 64.4107 34.9153C64.3757 34.8203 64.3557 34.7303 64.3457 34.6453C64.3357 34.5603 64.3407 34.4403 64.3607 34.2853C64.3607 34.2803 64.3657 34.2203 64.3757 34.1103C64.3857 34.0003 64.4007 33.9053 64.4157 33.8303C64.3307 33.8603 64.2357 33.8953 64.1257 33.9453C64.0157 33.9953 63.9107 34.0403 63.8107 34.0903C63.7107 34.1403 63.6207 34.1853 63.5507 34.2253C63.4757 34.2653 63.4357 34.2853 63.4257 34.2903C63.4157 34.3353 63.4007 34.3903 63.3857 34.4503C63.3707 34.5103 63.3507 34.5703 63.3357 34.6253C63.3207 34.6753 63.2957 34.7453 63.2707 34.8253C63.2657 34.8303 63.2407 34.8503 63.2057 34.8803C63.1657 34.9103 63.1357 34.9253 63.1107 34.9253C63.0457 34.9303 62.9907 34.9103 62.9457 34.8703C62.9057 34.8303 62.8707 34.7753 62.8407 34.7153C62.8157 34.6503 62.8007 34.5803 62.7957 34.5103C62.7857 34.4403 62.7807 34.3803 62.7807 34.3303V33.9203C62.6607 34.0403 62.5307 34.1553 62.3907 34.2703C62.2457 34.3853 62.1007 34.4953 61.9557 34.5953C61.8157 34.6953 61.6807 34.7853 61.5507 34.8703C61.4207 34.9503 61.3157 35.0153 61.2407 35.0703C61.1507 35.1253 61.0357 35.1853 60.8957 35.2403C60.7557 35.3003 60.6107 35.3553 60.4607 35.4053C60.3157 35.4553 60.1707 35.4953 60.0307 35.5253C59.8907 35.5553 59.7757 35.5653 59.6857 35.5553C59.6357 35.5553 59.5707 35.5103 59.4857 35.4203C59.4057 35.3303 59.3657 35.2353 59.3707 35.1353C59.3757 34.9153 59.4607 34.6703 59.6207 34.3953C59.7857 34.1203 59.9557 33.8653 60.1357 33.6303C59.9807 33.6753 59.7957 33.7053 59.5807 33.7253C59.5357 33.7253 59.4857 33.7053 59.4307 33.6603C59.3757 33.6203 59.3457 33.5703 59.3457 33.5203C59.3507 33.4753 59.3957 33.4353 59.4757 33.3953C59.5557 33.3553 59.6107 33.3353 59.6307 33.3303C59.7507 33.2953 59.9007 33.2553 60.0857 33.2053C60.2707 33.1553 60.4607 33.1103 60.6507 33.0703C60.8357 33.0253 61.0057 32.9903 61.1657 32.9653C61.3257 32.9403 61.4407 32.9253 61.5057 32.9253C61.5357 32.9253 61.5657 32.9353 61.6057 32.9603C61.6457 32.9853 61.6807 33.0003 61.7157 33.0203C61.7057 33.0353 61.6907 33.0703 61.6757 33.1153C61.6607 33.1603 61.6457 33.2003 61.6307 33.2403C61.6157 33.2853 61.5957 33.3253 61.5757 33.3603C61.5557 33.3953 61.5457 33.4103 61.5357 33.4103C61.5157 33.4103 61.4857 33.4103 61.4607 33.4203C61.4307 33.4253 61.4057 33.4303 61.3857 33.4353C61.3557 33.4453 61.3257 33.4553 61.2857 33.4603C61.1907 33.4853 61.0957 33.5503 60.9957 33.6603C60.8957 33.7703 60.8057 33.8953 60.7157 34.0353C60.6207 34.1753 60.5357 34.3153 60.4657 34.4503C60.3907 34.5903 60.3357 34.6903 60.2957 34.7553C60.2957 34.7903 60.3007 34.8153 60.3157 34.8253C60.3307 34.8403 60.3457 34.8503 60.3607 34.8553C60.3807 34.8603 60.4007 34.8603 60.4207 34.8553C60.4357 34.8553 60.4507 34.8553 60.4557 34.8553C60.5157 34.8653 60.6407 34.8303 60.8307 34.7453C61.0207 34.6603 61.2307 34.5503 61.4657 34.4153C61.7007 34.2803 61.9407 34.1303 62.1857 33.9603C62.4307 33.7903 62.6407 33.6203 62.8207 33.4453C62.8357 33.2653 62.8657 33.0803 62.9057 32.8803L62.9107 32.9003ZM61.4407 32.3753C61.4407 32.3753 61.4007 32.3453 61.3857 32.3453C61.3457 32.3153 61.2557 32.3503 61.1107 32.4453C61.0957 32.4503 61.0507 32.4553 60.9907 32.4603C60.9257 32.4653 60.8557 32.4703 60.7857 32.4753C60.7107 32.4753 60.6457 32.4753 60.5907 32.4753C60.5357 32.4753 60.5057 32.4753 60.4957 32.4753C60.4207 32.4853 60.3357 32.4953 60.2407 32.5053C60.1407 32.5153 60.0507 32.5203 59.9657 32.5253C59.8757 32.5303 59.8007 32.5353 59.7407 32.5403C59.6807 32.5403 59.6457 32.5403 59.6457 32.5403C59.5957 32.5403 59.5607 32.5303 59.5457 32.5053C59.5307 32.4803 59.5257 32.4353 59.5357 32.3603C59.5357 32.3003 59.5757 32.2453 59.6607 32.1953C59.7457 32.1503 59.8007 32.1203 59.8307 32.1053C59.9407 32.0603 60.0657 32.0153 60.2007 31.9753C60.3357 31.9353 60.4707 31.8953 60.6057 31.8603C60.7407 31.8303 60.8707 31.8103 60.9907 31.7953C61.1157 31.7803 61.2207 31.7703 61.3107 31.7803C61.3257 31.7953 61.3557 31.8053 61.3957 31.8053H61.4607C61.4707 31.8353 61.4857 31.8603 61.5057 31.8853C61.5257 31.9103 61.5457 31.9353 61.5707 31.9553C61.5857 31.9803 61.6007 31.9953 61.6157 32.0153C61.6307 32.0303 61.6407 32.0453 61.6457 32.0503C61.6457 32.0603 61.6357 32.0853 61.6207 32.1153C61.6057 32.1503 61.5857 32.1853 61.5707 32.2253C61.5557 32.2653 61.5307 32.3203 61.4957 32.3853L61.4807 32.4003C61.4807 32.4003 61.4607 32.3803 61.4407 32.3603V32.3753Z" fill="#ECAA16"/>
<path d="M69.2054 34.6254C69.2904 34.6504 69.3654 34.6754 69.4304 34.7104C69.4954 34.7454 69.5504 34.7854 69.5904 34.8404C69.6304 34.8954 69.6454 34.9604 69.6304 35.0404C69.5954 35.0704 69.5404 35.1004 69.4604 35.1404L68.8704 35.1004C68.7954 35.0954 68.7054 35.0854 68.5904 35.0704C68.4754 35.0554 68.3554 35.0454 68.2304 35.0304C68.1054 35.0204 67.9904 35.0104 67.8804 35.0054C67.7704 35.0004 67.6904 35.0004 67.6304 35.0054C67.5954 35.0104 67.5504 35.0254 67.4854 35.0454C67.4254 35.0654 67.3654 35.0954 67.3104 35.1404C67.3004 35.1504 67.2754 35.1804 67.2454 35.2254C67.2104 35.2704 67.1754 35.3154 67.1354 35.3704C67.0954 35.4254 67.0604 35.4804 67.0304 35.5254C67.0004 35.5754 66.9804 35.6004 66.9754 35.6154C66.9654 35.6504 66.9154 35.7354 66.8254 35.8754C66.7354 36.0154 66.6354 36.1554 66.5204 36.2854C66.5104 36.3004 66.4804 36.3204 66.4254 36.3454C66.3754 36.3654 66.3354 36.3804 66.3004 36.3854C66.2954 36.3854 66.2504 36.3854 66.1604 36.3754C66.0754 36.3654 66.0204 36.3554 66.0054 36.3354C65.9854 36.3254 65.9654 36.2854 65.9554 36.2204C65.9454 36.1554 65.9404 36.1154 65.9404 36.1004C65.9604 36.0704 65.9804 36.0454 66.0004 36.0254C66.0154 36.0054 66.0354 35.9754 66.0554 35.9404C66.0754 35.9054 66.0904 35.8654 66.1004 35.8204C66.2004 35.5854 66.3004 35.3654 66.4004 35.1604C66.5004 34.9554 66.6104 34.7504 66.7304 34.5404C66.8504 34.3304 66.9804 34.1154 67.1304 33.8904C67.2804 33.6654 67.4554 33.4104 67.6554 33.1254C67.6754 33.0954 67.7254 33.0454 67.8004 32.9704C67.8754 32.8954 67.9354 32.8304 67.9954 32.7704C68.0804 32.7054 68.1654 32.6404 68.2554 32.5804C68.3454 32.5204 68.4204 32.4904 68.4804 32.4904C68.5104 32.5054 68.5304 32.5204 68.5454 32.5304C68.5654 32.5354 68.5854 32.5454 68.6054 32.5554C68.6204 32.5654 68.6354 32.5704 68.6454 32.5704L68.7804 33.0654C68.7804 33.0654 68.7804 33.0854 68.7704 33.1054C68.7654 33.1254 68.7604 33.1504 68.7554 33.1754C68.7504 33.2054 68.7404 33.2304 68.7354 33.2604C68.7254 33.2904 68.7204 33.3154 68.7204 33.3354C68.7104 33.3604 68.6904 33.3804 68.6554 33.4004C68.6254 33.4204 68.5904 33.4404 68.5604 33.4654C68.5204 33.4904 68.4854 33.5104 68.4554 33.5354C68.4254 33.5604 68.4054 33.5854 68.3904 33.6154C68.3604 33.6604 68.3304 33.7154 68.2954 33.7754C68.2604 33.8354 68.2304 33.8954 68.1954 33.9504C68.1604 34.0104 68.1354 34.0704 68.1154 34.1254C68.0954 34.1804 68.0854 34.2154 68.0854 34.2404C68.1154 34.2854 68.1504 34.3204 68.2054 34.3504C68.2554 34.3804 68.3154 34.4054 68.3904 34.4254C68.4554 34.4454 68.5354 34.4704 68.6304 34.4904C68.7204 34.5154 68.8304 34.5354 68.9454 34.5554C69.0254 34.5704 69.1054 34.5904 69.1904 34.6154L69.2054 34.6254ZM71.7554 32.8554C71.7654 32.9704 71.7754 33.0954 71.7804 33.2304C71.7854 33.3654 71.7904 33.4904 71.7904 33.6054C71.7904 33.7204 71.7904 33.7904 71.7804 33.8104C71.7704 33.9204 71.7554 34.0654 71.7354 34.2454C71.7154 34.4204 71.6954 34.5954 71.6804 34.7604C71.6654 34.9304 71.6504 35.0754 71.6354 35.2004C71.6204 35.3254 71.6154 35.3954 71.6154 35.4054C71.6154 35.4154 71.6054 35.4354 71.5904 35.4704C71.5754 35.5004 71.5554 35.5354 71.5304 35.5654C71.5104 35.6004 71.4904 35.6304 71.4754 35.6654C71.4604 35.7004 71.4554 35.7254 71.4554 35.7404C71.4154 35.8754 71.3754 35.9904 71.3304 36.0804C71.2854 36.1704 71.2154 36.2204 71.1204 36.2204C71.0554 36.2204 71.0004 36.1904 70.9604 36.1304C70.9204 36.0704 70.8904 36.0054 70.8654 35.9254C70.8454 35.8454 70.8304 35.7704 70.8254 35.7004C70.8254 35.6254 70.8254 35.5754 70.8254 35.5504C70.8254 35.5404 70.8254 35.5204 70.8254 35.4904C70.8254 35.4604 70.8254 35.4254 70.8254 35.3704C70.8254 35.3154 70.8254 35.2404 70.8254 35.1504C70.8254 35.0604 70.8354 34.9504 70.8454 34.8154C70.8554 34.6604 70.8754 34.4604 70.9054 34.2204C70.9354 33.9804 70.9654 33.7904 71.0054 33.6454C71.0154 33.5854 71.0354 33.4904 71.0604 33.3654C71.0854 33.2404 71.1204 33.1104 71.1554 32.9804C71.1904 32.8454 71.2304 32.7254 71.2754 32.6204C71.3204 32.5154 71.3754 32.4454 71.4354 32.4204C71.4354 32.4254 71.4454 32.4354 71.4654 32.4504C71.4854 32.4654 71.5104 32.4804 71.5454 32.5054C71.5754 32.5204 71.6004 32.5454 71.6354 32.5704C71.6654 32.5954 71.6954 32.6204 71.7154 32.6404C71.7304 32.6704 71.7454 32.7404 71.7554 32.8554Z" fill="#ECAA16"/>
<path d="M57.1509 31.5951C57.1509 31.5951 53.9259 31.8351 53.6309 28.1901C53.6309 28.1901 56.8959 28.0051 57.1509 31.5951Z" fill="#149B79"/>
<path d="M57.1504 31.595C57.1504 31.595 58.0404 29.565 60.1104 30.16C60.1104 30.16 59.7804 31.92 57.1504 31.595Z" fill="#149B79"/>
<path d="M92.9503 7.13018C92.9503 7.13018 92.9603 7.15018 92.9703 7.15018H93.9303C93.9303 7.15018 93.9503 7.14018 93.9503 7.13018V4.70018C93.9503 4.70018 93.9403 4.68018 93.9303 4.68018H93.4753C93.4753 4.68018 93.4553 4.69018 93.4553 4.70018V6.71518C93.4553 6.71518 93.4503 6.73018 93.4403 6.73018H92.9653C92.9653 6.73018 92.9453 6.74018 92.9453 6.75018V7.13518L92.9503 7.13018Z" fill="#6E6C6F"/>
<path d="M91.4502 8.0152H93.9852C93.9852 8.0152 94.0052 8.0052 94.0052 7.9952V7.5952C94.0052 7.5952 93.9952 7.5752 93.9852 7.5752H91.8902L91.4502 8.0152Z" fill="#6E6C6F"/>
<path d="M92.2802 4.51514C91.8252 4.51514 91.4502 4.84514 91.4502 5.29014C91.4502 5.73514 91.8252 6.06514 92.2802 6.06514C92.7352 6.06514 93.1102 5.73514 93.1102 5.29014C93.1102 4.84514 92.7352 4.51514 92.2802 4.51514ZM92.2802 5.64014C92.0902 5.64014 91.9302 5.49014 91.9302 5.29014C91.9302 5.09014 92.0902 4.94014 92.2802 4.94014C92.4702 4.94014 92.6302 5.09014 92.6302 5.29014C92.6302 5.49014 92.4702 5.64014 92.2802 5.64014Z" fill="#6E6C6F"/>
<path d="M91.3302 6.64533C91.3302 6.64533 91.3402 6.66533 91.3502 6.66533H92.1152C92.1152 6.66533 92.1352 6.68033 92.1252 6.69033L91.4752 7.33033C91.4752 7.33033 91.4452 7.37033 91.4452 7.39533V8.02033L93.2052 6.27033C93.2052 6.27033 93.2102 6.21533 93.1802 6.21533H91.3452C91.3452 6.21533 91.3252 6.22533 91.3252 6.23533V6.65033L91.3302 6.64533Z" fill="#D61C33"/>
<path d="M89.6907 6.15527C89.0757 6.15527 88.5957 6.61527 88.5957 7.18527C88.5957 7.75527 89.0707 8.21527 89.6907 8.21527C90.3107 8.21527 90.7857 7.75527 90.7857 7.18527C90.7857 6.61527 90.3107 6.15527 89.6907 6.15527ZM89.6907 7.76527C89.3407 7.76527 89.0807 7.50527 89.0807 7.18527C89.0807 6.86527 89.3407 6.60527 89.6907 6.60527C90.0407 6.60527 90.3007 6.86527 90.3007 7.18527C90.3007 7.50527 90.0407 7.76527 89.6907 7.76527Z" fill="#6E6C6F"/>
<path d="M88.2959 6.84045L90.0909 4.76045C90.0909 4.76045 90.0909 4.71045 90.0659 4.71045H88.3059C88.3059 4.71045 88.2859 4.72045 88.2859 4.73045V5.14545C88.2859 5.14545 88.2959 5.16545 88.3059 5.16545H89.0909C89.0909 5.16545 89.1109 5.18045 89.1059 5.19045L88.2759 6.15545C88.2759 6.15545 88.2559 6.19545 88.2559 6.21545V6.82045C88.2559 6.84545 88.2859 6.86045 88.3059 6.84045" fill="#D61C33"/>
<path d="M90.3109 6.22508H90.7659C90.7659 6.22508 90.7859 6.21508 90.7859 6.20508V5.17508C90.7859 5.17508 90.7909 5.16008 90.8009 5.16008H91.1209C91.1209 5.16008 91.1409 5.15008 91.1409 5.14008V4.72508C91.1409 4.72508 91.1309 4.70508 91.1209 4.70508H90.3159C90.3159 4.70508 90.2959 4.71508 90.2959 4.72508V6.20508C90.2959 6.20508 90.3059 6.22508 90.3159 6.22508" fill="#6E6C6F"/>
<path d="M99.0859 6.26045V4.73045C99.0859 4.73045 99.0759 4.71045 99.0659 4.71045H98.6359C98.6359 4.71045 98.6159 4.72045 98.6159 4.73045V5.05545C98.6159 5.05545 98.6109 5.07045 98.6009 5.07045H97.9559C97.9559 5.07045 97.9409 5.06545 97.9409 5.05545V4.73045C97.9409 4.73045 97.9309 4.71045 97.9209 4.71045H97.4809C97.4809 4.71045 97.4609 4.72045 97.4609 4.73045V6.26045C97.4609 6.26045 97.4709 6.28045 97.4809 6.28045H99.0609C99.0609 6.28045 99.0809 6.27045 99.0809 6.26045M98.6109 5.84545C98.6109 5.84545 98.6059 5.86045 98.5959 5.86045H97.9509C97.9509 5.86045 97.9359 5.85545 97.9359 5.84545V5.49545C97.9359 5.49545 97.9409 5.48045 97.9509 5.48045H98.5959C98.5959 5.48045 98.6109 5.48545 98.6109 5.49545V5.84545Z" fill="#6E6C6F"/>
<path d="M97.0754 6.44531H94.4204C94.4204 6.44531 94.4004 6.45531 94.4004 6.46531V6.85531C94.4004 6.85531 94.4104 6.87531 94.4204 6.87531H97.0754C97.0754 6.87531 97.0954 6.86531 97.0954 6.85531V6.46531C97.0954 6.46531 97.0854 6.44531 97.0754 6.44531Z" fill="#6E6C6F"/>
<path d="M99.2406 5.91545H99.5406C99.5406 5.91545 99.5556 5.92045 99.5556 5.93045V6.35045C99.5556 6.35045 99.5656 6.37045 99.5756 6.37045H100.031C100.031 6.37045 100.051 6.36045 100.051 6.35045V4.73045C100.051 4.73045 100.041 4.71045 100.031 4.71045H99.2456C99.2456 4.71045 99.2256 4.72045 99.2256 4.73045V5.13545C99.2256 5.13545 99.2356 5.15545 99.2456 5.15545H99.5456C99.5456 5.15545 99.5606 5.16045 99.5606 5.17045V5.45545C99.5606 5.45545 99.5556 5.47045 99.5456 5.47045H99.2456C99.2456 5.47045 99.2256 5.48045 99.2256 5.49045V5.89545C99.2256 5.89545 99.2356 5.91545 99.2456 5.91545" fill="#6E6C6F"/>
<path d="M96.9804 7.08008H94.5053C94.5053 7.08008 94.4854 7.09008 94.4854 7.10008V7.48508C94.4854 7.48508 94.4953 7.50508 94.5053 7.50508H96.4954C96.4954 7.50508 96.5104 7.51008 96.5104 7.52008V8.03508C96.5104 8.03508 96.5203 8.05508 96.5303 8.05508H96.9854C96.9854 8.05508 97.0053 8.04508 97.0053 8.03508V7.10508C97.0053 7.10508 96.9954 7.08508 96.9854 7.08508" fill="#6E6C6F"/>
<path d="M94.5151 6.24008H96.9751C96.9751 6.24008 96.9951 6.23008 96.9951 6.22008V5.85508C96.9951 5.85508 96.9851 5.83508 96.9751 5.83508H94.9901C94.9901 5.83508 94.9751 5.83008 94.9751 5.82008V5.67508C94.9751 5.67508 94.9801 5.66008 94.9901 5.66008H96.9351C96.9351 5.66008 96.9551 5.65008 96.9551 5.64008V5.30508C96.9551 5.30508 96.9451 5.28508 96.9351 5.28508H94.9901C94.9901 5.28508 94.9751 5.28008 94.9751 5.27008V5.12508C94.9751 5.12508 94.9801 5.11008 94.9901 5.11008H96.9751C96.9751 5.11008 96.9951 5.10008 96.9951 5.09008V4.72508C96.9951 4.72508 96.9851 4.70508 96.9751 4.70508H94.5151C94.5151 4.70508 94.4951 4.71508 94.4951 4.72508V6.22008C94.4951 6.22008 94.5051 6.24008 94.5151 6.24008Z" fill="#6E6C6F"/>
<path d="M105.04 6.26533C105.04 6.26533 105.03 6.25033 105.02 6.25033H104.525C104.525 6.25033 104.515 6.24533 104.515 6.23533L104.77 5.33033C104.77 5.33033 104.78 5.31533 104.79 5.31533H105.42C105.42 5.31533 105.44 5.30533 105.44 5.29533V4.88033C105.44 4.88033 105.43 4.86033 105.42 4.86033H104.79C104.79 4.86033 104.775 4.85533 104.775 4.84533V4.48533C104.775 4.48533 104.765 4.46533 104.755 4.46533H104.3C104.3 4.46533 104.28 4.47533 104.28 4.48533V4.84533C104.28 4.84533 104.275 4.86033 104.265 4.86033H103.635C103.635 4.86033 103.615 4.87033 103.615 4.88033V5.29533C103.615 5.29533 103.625 5.31533 103.635 5.31533H104.265C104.265 5.31533 104.275 5.32033 104.275 5.33033L103.54 7.95533C103.54 7.95533 103.545 7.97533 103.555 7.97533H104.01C104.01 7.97533 104.025 7.97033 104.03 7.96033L104.38 6.70533C104.38 6.70533 104.385 6.69533 104.395 6.69533H104.655C104.655 6.69533 104.665 6.69533 104.67 6.70533L105.02 7.96033C105.02 7.96033 105.03 7.97533 105.04 7.97533H105.495C105.495 7.97533 105.515 7.96533 105.51 7.95533L105.04 6.26533Z" fill="#6E6C6F"/>
<path d="M109.316 7.48512H108.211C108.211 7.48512 108.201 7.48012 108.206 7.47512L109.216 6.21012C109.216 6.21012 109.216 6.16012 109.191 6.16012H107.236C107.236 6.16012 107.221 6.15512 107.221 6.14512V5.20512C107.221 5.20512 107.226 5.19012 107.236 5.19012H109.211C109.211 5.19012 109.231 5.18012 109.231 5.17012V4.76512C109.231 4.76512 109.221 4.74512 109.211 4.74512H106.751C106.751 4.74512 106.731 4.75512 106.731 4.76512V6.58512C106.731 6.58512 106.741 6.60512 106.751 6.60512H108.276C108.276 6.60512 108.296 6.62012 108.286 6.63012L107.606 7.47512C107.606 7.47512 107.591 7.49012 107.576 7.49012H106.651C106.651 7.49012 106.631 7.50012 106.631 7.51012V7.92512C106.631 7.92512 106.641 7.94512 106.651 7.94512H109.306C109.306 7.94512 109.326 7.93512 109.326 7.92512V7.51012C109.326 7.51012 109.316 7.49012 109.306 7.49012" fill="#6E6C6F"/>
<path d="M106.175 4.68018H105.72C105.72 4.68018 105.7 4.69018 105.7 4.70018V8.00018C105.7 8.00018 105.71 8.02018 105.72 8.02018H106.175C106.175 8.02018 106.195 8.01018 106.195 8.00018V4.70018C106.195 4.70018 106.185 4.68018 106.175 4.68018Z" fill="#6E6C6F"/>
<path d="M103.31 4.71045H102.505C102.505 4.71045 102.485 4.72045 102.485 4.73045V8.00045C102.485 8.00045 102.495 8.02045 102.505 8.02045H102.96C102.96 8.02045 102.98 8.01045 102.98 8.00045V5.18045C102.98 5.18045 102.985 5.16545 102.995 5.16545H103.315C103.315 5.16545 103.335 5.15545 103.335 5.14545V4.73045C103.335 4.73045 103.325 4.71045 103.315 4.71045" fill="#6E6C6F"/>
<path d="M100.066 7.61047H98.0809C98.0809 7.61047 98.0659 7.60547 98.0659 7.59547V7.44547C98.0659 7.44547 98.0709 7.43047 98.0809 7.43047H100.026C100.026 7.43047 100.046 7.42047 100.046 7.41047V6.50047C100.046 6.50047 100.036 6.48047 100.026 6.48047H97.6059C97.6059 6.48047 97.5859 6.49047 97.5859 6.50047V6.86547C97.5859 6.86547 97.5959 6.88547 97.6059 6.88547H99.5509C99.5509 6.88547 99.5659 6.89047 99.5659 6.90047V7.04047C99.5659 7.04047 99.5609 7.05547 99.5509 7.05547H97.6059C97.6059 7.05547 97.5859 7.06547 97.5859 7.07547V7.99547C97.5859 7.99547 97.5959 8.01547 97.6059 8.01547H100.066C100.066 8.01547 100.086 8.00547 100.086 7.99547V7.63047C100.086 7.63047 100.076 7.61047 100.066 7.61047Z" fill="#6E6C6F"/>
<path d="M101.881 6.23008C101.881 6.23008 101.871 6.21508 101.861 6.21508H101.356C101.356 6.21508 101.346 6.21008 101.346 6.20008L101.611 5.17508C101.611 5.17508 101.621 5.16008 101.631 5.16008H102.236C102.236 5.16008 102.256 5.15008 102.256 5.14008V4.72508C102.256 4.72508 102.246 4.70508 102.236 4.70508H100.491C100.491 4.70508 100.471 4.71508 100.471 4.72508V5.14008C100.471 5.14008 100.481 5.16008 100.491 5.16008H101.106C101.106 5.16008 101.116 5.16508 101.116 5.17508L100.396 7.95508C100.396 7.95508 100.401 7.97508 100.411 7.97508H100.866C100.866 7.97508 100.881 7.97008 100.886 7.96008L101.221 6.67008C101.221 6.67008 101.226 6.66008 101.236 6.66008H101.486C101.486 6.66008 101.496 6.66008 101.501 6.67008L101.836 7.96008C101.836 7.96008 101.846 7.97508 101.856 7.97508H102.311C102.311 7.97508 102.331 7.96508 102.326 7.95508L101.876 6.23008H101.881Z" fill="#6E6C6F"/>
<path d="M98.0801 9.09529C97.9101 9.09529 97.7701 9.22029 97.7701 9.41529C97.7701 9.61029 97.9101 9.73029 98.0751 9.73029C98.2601 9.73029 98.3401 9.59029 98.3451 9.52029H98.0651V9.36529H98.5351C98.5351 9.36529 98.5351 9.40529 98.5351 9.42529C98.5351 9.70029 98.3501 9.89529 98.0701 9.89529C97.7901 9.89529 97.5801 9.68029 97.5801 9.41029C97.5801 9.14029 97.7951 8.92529 98.0751 8.92529C98.3101 8.92529 98.4601 9.07029 98.5151 9.22529H98.3051C98.2651 9.15029 98.1901 9.09029 98.0751 9.09029" fill="#6E6C6F"/>
<path d="M98.6006 9.88031L98.9256 8.94531H99.1456L99.4706 9.88031H99.2806L99.2156 9.69031H98.8606L98.7956 9.88031H98.6056H98.6006ZM99.0356 9.16031L98.9106 9.53031H99.1606L99.0356 9.16031Z" fill="#6E6C6F"/>
<path d="M100.196 9.58031V8.94531H100.381V9.88031H100.191L99.7856 9.24531V9.88031H99.6006V8.94531H99.7906L100.196 9.58031Z" fill="#6E6C6F"/>
<path d="M101.056 9.09529C100.886 9.09529 100.746 9.22029 100.746 9.41529C100.746 9.61029 100.886 9.73029 101.051 9.73029C101.236 9.73029 101.316 9.59029 101.321 9.52029H101.041V9.36529H101.511C101.511 9.36529 101.511 9.40529 101.511 9.42529C101.511 9.70029 101.326 9.89529 101.046 9.89529C100.766 9.89529 100.556 9.68029 100.556 9.41029C100.556 9.14029 100.771 8.92529 101.051 8.92529C101.286 8.92529 101.436 9.07029 101.491 9.22529H101.281C101.241 9.15029 101.166 9.09029 101.051 9.09029" fill="#6E6C6F"/>
<path d="M102.631 9.88031H102.416L102.236 9.21531L102.061 9.88031H101.841L101.601 8.94531H101.796L101.956 9.62531L102.141 8.94531H102.336L102.516 9.63031L102.681 8.94531H102.876L102.631 9.88031Z" fill="#6E6C6F"/>
<path d="M102.96 9.43029C102.95 9.15029 103.165 8.92529 103.445 8.92529C103.725 8.92529 103.93 9.14029 103.93 9.41029C103.93 9.68029 103.72 9.89529 103.44 9.89529C103.185 9.89529 102.965 9.68529 102.955 9.43029M103.74 9.41029C103.74 9.23029 103.61 9.09529 103.44 9.09529C103.27 9.09529 103.14 9.23029 103.14 9.41029C103.14 9.59029 103.27 9.72529 103.44 9.72529C103.61 9.72529 103.74 9.59029 103.74 9.41029Z" fill="#6E6C6F"/>
<path d="M104.705 9.58031V8.94531H104.89V9.88031H104.7L104.295 9.24531V9.88031H104.11V8.94531H104.3L104.705 9.58031Z" fill="#6E6C6F"/>
<path d="M105.796 9.90012C105.561 9.90012 105.446 9.75512 105.436 9.59512H105.621C105.631 9.68512 105.696 9.74012 105.801 9.74012C105.916 9.74012 105.976 9.69012 105.976 9.62012C105.976 9.54012 105.901 9.51012 105.786 9.48012C105.616 9.44012 105.471 9.37512 105.471 9.20012C105.471 9.05512 105.586 8.94512 105.726 8.92512C105.966 8.89512 106.131 9.01012 106.151 9.22012H105.966C105.956 9.14012 105.901 9.08512 105.796 9.08512C105.716 9.08512 105.651 9.12012 105.651 9.19012C105.651 9.24512 105.691 9.28512 105.816 9.31512C105.996 9.35012 106.156 9.41012 106.156 9.61512C106.156 9.77512 106.021 9.90512 105.796 9.90512" fill="#6E6C6F"/>
<path d="M106.68 9.10031V9.88031H106.5V9.10031H106.25V8.94531H106.93V9.10031H106.68Z" fill="#6E6C6F"/>
<path d="M106.931 9.88031L107.256 8.94531H107.476L107.801 9.88031H107.611L107.546 9.69031H107.191L107.126 9.88031H106.936H106.931ZM107.366 9.16031L107.241 9.53031H107.491L107.366 9.16031Z" fill="#6E6C6F"/>
<path d="M108.231 9.10031V9.88031H108.046V9.10031H107.801V8.94531H108.476V9.10031H108.231Z" fill="#6E6C6F"/>
<path d="M108.816 9.33031H109.151V9.48531H108.816V9.72531H109.176V9.88031H108.631V8.94531H109.176V9.10031H108.816V9.33031Z" fill="#6E6C6F"/>
</g>
</g>
<defs>
<linearGradient id="paint0_linear_6542_40537" x1="15.2901" y1="25.5554" x2="24.9251" y2="35.1954" gradientUnits="userSpaceOnUse">
<stop stop-color="#BA9E5D"/>
<stop offset="0.51" stop-color="#F8F6E4"/>
<stop offset="1" stop-color="#C0A673"/>
</linearGradient>
<clipPath id="clip0_6542_40537">
<rect width="114" height="72" fill="white"/>
</clipPath>
</defs>
</svg>
