<svg width="114" height="72" viewBox="0 0 114 72" fill="none" xmlns="http://www.w3.org/2000/svg">
<g clip-path="url(#clip0_6554_58838)">
<path d="M114 68C114 70.21 112.21 72 110.005 72H3.995C1.79 72 0 70.21 0 68V4C0 1.79 1.79 0 3.995 0H110.005C112.21 0 114 1.79 114 4V68Z" fill="#DAE07A"/>
<path d="M100.18 4.40479H99.6398V5.53978H97.4348V4.40479H96.8948C96.7648 4.40479 96.6648 4.50979 96.6648 4.63479V7.09978C96.6648 7.22478 96.7698 7.32978 96.8948 7.32978H97.4348V6.10979H99.6398V7.32978H100.18C100.31 7.32978 100.41 7.22478 100.41 7.09978V4.63479C100.41 4.50979 100.305 4.40479 100.18 4.40479ZM95.8098 4.40479H95.2698V6.55978L93.5698 4.85979C93.2998 4.59979 93.1148 4.40978 92.6848 4.40978H92.2148V7.10478C92.2148 7.22978 92.3198 7.33478 92.4448 7.33478H92.9848V5.16979L94.6698 6.85979C94.9448 7.12979 95.1898 7.33478 95.5898 7.33478H96.0448V4.64478C96.0448 4.51978 95.9398 4.41478 95.8148 4.41478L95.8098 4.40479ZM106.435 6.04479L107.11 5.40978H106.87C106.75 5.40978 106.685 5.46979 106.63 5.52479C106.63 5.52479 106.235 5.90478 106.16 5.97478V4.79479H106.025C105.945 4.79479 105.88 4.85979 105.88 4.93979V6.69978C105.88 6.77978 105.945 6.84478 106.025 6.84478H106.16V6.12478C106.185 6.14978 106.725 6.73479 106.725 6.73479C106.785 6.79979 106.825 6.83979 106.945 6.83979H107.19C107.19 6.83979 106.44 6.04978 106.43 6.03978L106.435 6.04479ZM105.015 5.40978H104.35V6.69978C104.35 6.77978 104.415 6.84478 104.495 6.84478H104.63V5.63978H104.985C105.205 5.65478 105.28 5.77978 105.28 6.11978V6.84478H105.41C105.49 6.84478 105.555 6.77978 105.555 6.69978V6.02479C105.555 5.61979 105.365 5.40978 105.01 5.40978H105.015ZM102.19 5.84978C102.405 5.76478 102.535 5.62979 102.535 5.38479C102.535 5.05479 102.3 4.88978 101.84 4.88978H101.445C101.365 4.88978 101.3 4.95478 101.3 5.03478V6.70478C101.3 6.78478 101.365 6.84978 101.445 6.84978H101.83C102.34 6.84978 102.585 6.67978 102.585 6.32478C102.585 6.06478 102.415 5.89978 102.19 5.85478V5.84978ZM101.595 5.12979H101.885C101.99 5.12979 102.24 5.15478 102.24 5.41478C102.24 5.69478 102.015 5.71978 101.745 5.71978H101.6V5.13479L101.595 5.12979ZM101.8 6.60478H101.595V5.95978H101.77C102.005 5.95978 102.275 5.99979 102.275 6.29479C102.275 6.50979 102.13 6.60478 101.8 6.60478ZM103.445 5.37979C103.285 5.37979 103.13 5.41979 102.985 5.50479V5.75479L102.995 5.74478C103.1 5.65478 103.26 5.59978 103.405 5.59978C103.65 5.59978 103.75 5.70478 103.75 5.95478C103.65 5.94978 103.575 5.94978 103.475 5.94978C103.245 5.94978 102.8 6.04478 102.8 6.40978C102.8 6.68478 102.99 6.83979 103.335 6.83979H103.88C103.96 6.83979 104.025 6.77479 104.025 6.69479V5.96479C104.025 5.55979 103.84 5.36978 103.44 5.36978L103.445 5.37979ZM103.75 6.62979H103.36C103.235 6.62979 103.1 6.54978 103.1 6.41478C103.1 6.18478 103.445 6.15978 103.59 6.15978H103.75V6.62478V6.62979Z" fill="#0D66AF"/>
<path d="M9.64535 32.8749C8.50035 32.8749 7.73535 32.2449 7.73535 31.2849C7.73535 30.3249 8.50035 29.6999 9.64535 29.6999C10.7904 29.6999 11.5554 30.3349 11.5554 31.2849C11.5554 32.2349 10.7904 32.8749 9.64535 32.8749ZM13.6304 34.4399C13.6304 35.4399 12.4404 35.7849 10.9304 35.7849C9.42035 35.7849 8.23035 35.4399 8.23035 34.4399C8.23035 33.4399 9.42035 33.0899 10.9304 33.0899C12.4404 33.0899 13.6304 33.4349 13.6304 34.4399ZM9.64535 31.9049C10.1004 31.9049 10.3754 31.6649 10.3754 31.2849C10.3754 30.9049 10.1004 30.6649 9.64535 30.6649C9.19035 30.6649 8.91535 30.9049 8.91535 31.2849C8.91535 31.6649 9.19035 31.9049 9.64535 31.9049ZM12.3504 34.4399C12.3504 34.1599 11.7104 34.0449 10.9254 34.0449C10.1404 34.0449 9.50035 34.1599 9.50035 34.4399C9.50035 34.7199 10.1404 34.8349 10.9254 34.8349C11.7104 34.8349 12.3504 34.7299 12.3504 34.4399ZM12.4054 31.5099V31.0299H11.7454L11.6754 30.0149H12.4054V29.6899H13.5704V33.0049H12.4054V32.5249H11.6754L11.7454 31.5099H12.4054Z" fill="#262A27"/>
<path d="M20.3704 34.505H17.9454V35.86H16.7404V34.505H14.3154V33.405H20.3754V34.505H20.3704ZM17.2754 31.98C16.6004 32.595 15.6004 32.96 14.5304 32.97V31.885C15.4504 31.87 16.3454 31.485 16.7054 30.85H14.6354V29.77H20.0354V30.85H18.0154C17.9954 30.935 17.9604 31.02 17.9254 31.095L20.2804 31.99L19.8304 32.98L17.2704 31.985L17.2754 31.98Z" fill="#262A27"/>
<path d="M23.6052 32.2499L25.3802 34.7349L24.4202 35.4249L23.1852 33.6249C22.6802 34.7799 21.9102 35.4249 20.9902 35.4299V34.1999C21.9502 34.0849 22.6252 32.3249 22.6302 29.8049L23.8352 29.8449C23.8352 30.7399 23.7502 31.5449 23.6052 32.2449V32.2499ZM26.7252 29.6899V35.7149H25.5402V29.6899H26.7252Z" fill="#262A27"/>
<path d="M13.3646 38.02V44.45H12.0996V41.635H11.2546C11.1446 43.42 10.3946 44.225 9.29457 44.225C8.10457 44.225 7.30957 43.275 7.30957 41.16C7.30957 39.045 8.10457 38.095 9.29457 38.095C10.3446 38.095 11.0746 38.825 11.2396 40.445H12.0996V38.02H13.3646ZM10.0196 41.16C10.0196 39.72 9.70457 39.265 9.29457 39.265C8.88457 39.265 8.55957 39.725 8.55957 41.16C8.55957 42.595 8.87457 43.055 9.29457 43.055C9.71457 43.055 10.0196 42.605 10.0196 41.16Z" fill="#097C39"/>
<path d="M20.6554 44.2249H14.1904V43.0599H20.6554V44.2249ZM20.3054 40.8449H15.7904V41.3499H20.3804V42.4649H14.5504V39.7749H19.0654V39.2849H14.5354V38.1699H20.3054V40.8449Z" fill="#097C39"/>
<path d="M21.1798 41.905V40.725C22.1898 40.605 22.8948 39.47 22.9148 38.05L24.1848 38.125C24.1848 38.635 24.0948 39.14 23.9298 39.6L25.7698 40.91L25.0298 41.815L23.4048 40.605C22.8648 41.35 22.0798 41.86 21.1748 41.905H21.1798ZM27.3698 43.305V44.45H21.5598V42.2H22.8498V43.305H27.3698ZM27.2798 42.78H26.0148V38.02H27.2798V42.78Z" fill="#097C39"/>
<path d="M30.5402 41.8798V40.7598C32.0302 40.7448 33.0652 40.2048 33.0652 39.3348V39.1898H30.5402V38.0898H34.3502V39.1198C34.3502 39.1948 34.3502 39.2698 34.3402 39.3448H35.3352V38.0098H36.6002V42.7748H35.3352V40.5148H33.9502C33.3452 41.4248 32.0802 41.8698 30.5352 41.8698L30.5402 41.8798ZM36.6952 43.3098V44.4448H30.8852V42.1948H32.1702V43.3098H36.6902H36.6952Z" fill="#BF182B"/>
<path d="M37.4854 41.5201V40.4451C39.0054 40.4301 40.0103 39.9651 40.0103 39.2651V39.1501H37.4854V38.0951H41.2953V38.9851C41.2953 40.7851 39.6854 41.5201 37.4854 41.5201ZM43.4354 43.0701C43.4354 44.1601 42.1604 44.5251 40.5554 44.5251C38.9504 44.5251 37.6754 44.1651 37.6754 43.0701C37.6754 41.9751 38.9454 41.6151 40.5554 41.6151C42.1654 41.6151 43.4354 41.9751 43.4354 43.0701ZM42.0704 43.0701C42.0704 42.7551 41.3954 42.6401 40.5504 42.6401C39.7054 42.6401 39.0303 42.7551 39.0303 43.0701C39.0303 43.3851 39.7054 43.5001 40.5504 43.5001C41.3954 43.5001 42.0704 43.3951 42.0704 43.0701ZM44.1203 39.0851V40.3201H43.3703V41.5151H42.1054V38.0151H43.3703V39.0851H44.1203Z" fill="#BF182B"/>
<path d="M50.9298 40.775V41.755H44.4648V40.775H50.9298ZM47.5248 39.915C46.8198 40.3 45.8198 40.5 44.7548 40.515V39.53C45.6448 39.515 46.6048 39.32 46.9998 38.99H44.8298V38.02H50.5648V38.99H48.4148C48.3998 39.045 48.3798 39.09 48.3548 39.14L50.7198 39.6L50.4498 40.55L47.5248 39.915ZM50.6148 43.265C50.6148 44.19 49.4198 44.52 47.6948 44.52C45.9698 44.52 44.7748 44.19 44.7748 43.265C44.7748 42.34 45.9698 42.01 47.6948 42.01C49.4198 42.01 50.6148 42.34 50.6148 43.265ZM49.2698 43.265C49.2698 43.04 48.6248 42.955 47.6998 42.955C46.7748 42.955 46.1298 43.04 46.1298 43.265C46.1298 43.49 46.7748 43.575 47.6998 43.575C48.6248 43.575 49.2698 43.5 49.2698 43.265Z" fill="#BF182B"/>
<path d="M51.6299 41.905V40.755C52.4999 40.685 53.0499 39.965 53.1649 39.18H51.7199V38.095H55.8499V39.18H54.4449C54.4299 39.37 54.3899 39.555 54.3399 39.745L56.1199 40.94L55.4249 41.85L53.8299 40.745C53.3299 41.41 52.5549 41.88 51.6299 41.905ZM57.7549 43.305V44.45H51.9449V42.2H53.2349V43.305H57.7549ZM57.6649 42.78H56.3999V38.02H57.6649V42.78Z" fill="#BF182B"/>
<path d="M58.6699 38.17H62.3449V40.095C62.3449 42.67 60.8099 44.14 58.6699 44.145V42.955C59.7099 42.945 60.5099 42.495 60.8799 41.525H58.6699V40.375H61.0899V39.315H58.6699V38.17ZM65.2399 41.605H64.4899V44.45H63.2249V38.02H64.4899V40.37H65.2399V41.605Z" fill="#BF182B"/>
<path d="M72.0148 44.2248H65.5498V43.0348H72.0148V44.2248ZM71.6648 39.3548H67.1948V40.9748H71.7398V42.1498H65.8998V38.1748H71.6648V39.3548Z" fill="#BF182B"/>
<path d="M8.29027 62.9748C8.50027 63.0948 8.73027 63.1648 9.00527 63.1648C9.44027 63.1648 9.68027 62.9398 9.71027 62.2148C9.54527 62.4098 9.24527 62.5098 8.95527 62.5098C8.30027 62.5098 7.90527 62.0798 7.90527 61.4248V61.3298C7.90527 60.6998 8.35527 60.2148 9.10027 60.2148C9.96027 60.2148 10.3053 60.7798 10.3053 61.6498V61.8648C10.3053 63.3598 9.76527 63.7098 8.97027 63.7098C8.66527 63.7098 8.32527 63.6448 8.07527 63.4748L8.29527 62.9748H8.29027ZM9.70027 61.3448C9.70027 60.9798 9.49527 60.7598 9.11027 60.7598C8.70027 60.7598 8.49027 60.9698 8.49027 61.3498V61.3998C8.49027 61.7948 8.67527 61.9848 9.09027 61.9848C9.50527 61.9848 9.70027 61.7248 9.70027 61.4148V61.3448Z" fill="#000001"/>
<path d="M13.02 61.455V62.47H13.48V62.955H13.02V63.66H12.43V62.955H10.75V62.565L12.285 60.27H12.93L11.46 62.47H12.43V61.455H13.02Z" fill="#000001"/>
<path d="M14.1496 62.9748C14.3596 63.0948 14.5896 63.1648 14.8646 63.1648C15.2996 63.1648 15.5396 62.9398 15.5696 62.2148C15.4046 62.4098 15.1046 62.5098 14.8146 62.5098C14.1596 62.5098 13.7646 62.0798 13.7646 61.4248V61.3298C13.7646 60.6998 14.2146 60.2148 14.9596 60.2148C15.8196 60.2148 16.1646 60.7798 16.1646 61.6498V61.8648C16.1646 63.3598 15.6246 63.7098 14.8296 63.7098C14.5246 63.7098 14.1846 63.6448 13.9346 63.4748L14.1546 62.9748H14.1496ZM15.5596 61.3448C15.5596 60.9798 15.3546 60.7598 14.9696 60.7598C14.5596 60.7598 14.3496 60.9698 14.3496 61.3498V61.3998C14.3496 61.7948 14.5346 61.9848 14.9496 61.9848C15.3646 61.9848 15.5596 61.7248 15.5596 61.4148V61.3448Z" fill="#000001"/>
<path d="M18.46 62.525C18.46 62.165 18.24 61.96 17.865 61.96C17.58 61.96 17.375 62.08 17.225 62.23H16.825L16.93 60.27H18.84V60.77H17.465L17.43 61.655C17.585 61.56 17.775 61.48 18.055 61.48C18.705 61.48 19.06 61.97 19.06 62.515V62.585C19.06 63.125 18.705 63.715 17.86 63.715C17.375 63.715 17 63.615 16.665 63.34L16.955 62.865C17.275 63.12 17.545 63.17 17.855 63.17C18.265 63.17 18.46 62.92 18.46 62.58V62.53V62.525Z" fill="#000001"/>
<path d="M27.2554 61.455V62.47H27.7154V62.955H27.2554V63.66H26.6654V62.955H24.9854V62.565L26.5204 60.27H27.1654L25.6954 62.47H26.6654V61.455H27.2554Z" fill="#000001"/>
<path d="M30.2103 60.9498C30.0003 60.8298 29.7703 60.7598 29.4953 60.7598C29.1503 60.7598 28.8303 60.9848 28.7903 61.7098C28.9553 61.5148 29.2603 61.4148 29.5453 61.4148C30.2003 61.4148 30.5953 61.8448 30.5953 62.5048V62.5998C30.5953 63.2298 30.1453 63.7098 29.4003 63.7098C28.5403 63.7098 28.1953 63.1448 28.1953 62.2748V62.0598C28.1953 60.5648 28.8003 60.2148 29.5303 60.2148C29.8353 60.2148 30.1753 60.2798 30.4253 60.4498L30.2053 60.9498H30.2103ZM28.8003 62.5798C28.8003 62.9448 29.0053 63.1648 29.3903 63.1648C29.8003 63.1648 30.0103 62.9548 30.0103 62.5748V62.5248C30.0103 62.1298 29.8253 61.9398 29.4103 61.9398C28.9953 61.9398 28.8003 62.1998 28.8003 62.5098V62.5798Z" fill="#000001"/>
<path d="M32.1702 63.66V60.95L31.4052 61.39L31.1152 60.9L32.2402 60.27H32.7702V63.66H32.1702Z" fill="#000001"/>
<path d="M34.7946 61.9252C35.1896 61.5202 35.2096 61.3402 35.2096 61.1502V61.1102C35.2096 60.9252 35.0746 60.7552 34.7296 60.7552C34.4846 60.7552 34.2396 60.8352 34.0196 61.2302L33.5696 60.9352C33.7296 60.6452 34.0396 60.2202 34.7246 60.2202C35.4846 60.2202 35.8146 60.6252 35.8146 61.0902V61.1352C35.8146 61.5002 35.6396 61.8402 35.3296 62.1552L34.3396 63.1602H35.9446V63.6602H33.5596V63.2102L34.7996 61.9252H34.7946Z" fill="#000001"/>
<path d="M42.0901 60.7048C42.3151 60.4148 42.6051 60.2148 43.0901 60.2148C43.7201 60.2148 44.1301 60.5548 44.1301 61.0598V61.1048C44.1301 61.3748 44.0251 61.7348 43.6451 61.8798C44.0901 61.9598 44.3001 62.2598 44.3001 62.6448V62.7148C44.3001 63.2248 43.9051 63.6998 43.0751 63.6998C42.6801 63.6998 42.3151 63.5798 41.9951 63.3248L42.2901 62.8548C42.6151 63.0948 42.8101 63.1648 43.0801 63.1648C43.5001 63.1648 43.6951 62.9798 43.6951 62.6848V62.6248C43.6951 62.2948 43.5151 62.1448 43.0851 62.1448H42.6301V61.6298H43.0301C43.4501 61.6298 43.5451 61.4298 43.5451 61.1398V61.0998C43.5451 60.8448 43.3651 60.7348 43.0851 60.7348C42.8051 60.7348 42.6401 60.8498 42.4901 61.0148L42.0851 60.6948L42.0901 60.7048Z" fill="#000001"/>
<path d="M47.0903 61.455V62.47H47.5503V62.955H47.0903V63.66H46.5003V62.955H44.8203V62.565L46.3553 60.27H47.0003L45.5303 62.47H46.5003V61.455H47.0903Z" fill="#000001"/>
<path d="M49.7403 62.525C49.7403 62.165 49.5203 61.96 49.1453 61.96C48.8603 61.96 48.6553 62.08 48.5053 62.23H48.1053L48.2103 60.27H50.1203V60.77H48.7453L48.7103 61.655C48.8653 61.56 49.0553 61.48 49.3353 61.48C49.9853 61.48 50.3403 61.97 50.3403 62.515V62.585C50.3403 63.125 49.9853 63.715 49.1403 63.715C48.6553 63.715 48.2803 63.615 47.9453 63.34L48.2353 62.865C48.5553 63.12 48.8253 63.17 49.1353 63.17C49.5453 63.17 49.7403 62.92 49.7403 62.58V62.53V62.525Z" fill="#000001"/>
<path d="M52.8998 60.9498C52.6898 60.8298 52.4598 60.7598 52.1848 60.7598C51.8398 60.7598 51.5198 60.9848 51.4798 61.7098C51.6448 61.5148 51.9498 61.4148 52.2348 61.4148C52.8898 61.4148 53.2848 61.8448 53.2848 62.5048V62.5998C53.2848 63.2298 52.8348 63.7098 52.0898 63.7098C51.2298 63.7098 50.8848 63.1448 50.8848 62.2748V62.0598C50.8848 60.5648 51.4898 60.2148 52.2198 60.2148C52.5248 60.2148 52.8648 60.2798 53.1148 60.4498L52.8948 60.9498H52.8998ZM51.4898 62.5798C51.4898 62.9448 51.6948 63.1648 52.0798 63.1648C52.4898 63.1648 52.6998 62.9548 52.6998 62.5748V62.5248C52.6998 62.1298 52.5148 61.9398 52.0998 61.9398C51.6848 61.9398 51.4898 62.1998 51.4898 62.5098V62.5798Z" fill="#000001"/>
<path d="M60.2752 63.66H59.6452L60.9402 60.78H59.1602V60.27H61.5652V60.73L60.2752 63.66Z" fill="#000001"/>
<path d="M62.0597 62.6802C62.0597 62.3102 62.3297 62.0002 62.6097 61.9152C62.2897 61.7552 62.1447 61.4252 62.1447 61.2052V61.1502C62.1447 60.6652 62.4797 60.2202 63.2197 60.2202C63.9597 60.2202 64.3047 60.6652 64.3047 61.1502V61.2052C64.3047 61.4252 64.1747 61.7252 63.8447 61.9152C64.1347 62.0052 64.3897 62.3102 64.3897 62.6802V62.7602C64.3897 63.3002 63.9847 63.7102 63.2347 63.7102C62.4847 63.7102 62.0547 63.3002 62.0547 62.7602V62.6802H62.0597ZM62.6747 62.7202C62.6747 63.0102 62.8997 63.1802 63.2347 63.1802C63.5697 63.1802 63.7747 63.0102 63.7747 62.7202V62.6752C63.7747 62.3402 63.5247 62.1902 63.2347 62.1902C62.9447 62.1902 62.6747 62.3302 62.6747 62.6752V62.7202ZM62.7597 61.2252C62.7597 61.5252 63.0097 61.6602 63.2297 61.6602C63.4497 61.6602 63.6947 61.5252 63.6947 61.2252V61.1802C63.6947 60.8902 63.5047 60.7402 63.2297 60.7402C62.9547 60.7402 62.7597 60.8902 62.7597 61.1802V61.2252Z" fill="#000001"/>
<path d="M65.2952 62.9748C65.5052 63.0948 65.7352 63.1648 66.0102 63.1648C66.4452 63.1648 66.6851 62.9398 66.7151 62.2148C66.5501 62.4098 66.2502 62.5098 65.9602 62.5098C65.3052 62.5098 64.9102 62.0798 64.9102 61.4248V61.3298C64.9102 60.6998 65.3602 60.2148 66.1052 60.2148C66.9652 60.2148 67.3102 60.7798 67.3102 61.6498V61.8648C67.3102 63.3598 66.7702 63.7098 65.9752 63.7098C65.6702 63.7098 65.3302 63.6448 65.0802 63.4748L65.3002 62.9748H65.2952ZM66.7052 61.3448C66.7052 60.9798 66.5002 60.7598 66.1152 60.7598C65.7052 60.7598 65.4952 60.9698 65.4952 61.3498V61.3998C65.4952 61.7948 65.6802 61.9848 66.0952 61.9848C66.5102 61.9848 66.7052 61.7248 66.7052 61.4148V61.3448Z" fill="#000001"/>
<path d="M70.3354 62.2252C70.3354 63.1852 69.9253 63.7102 69.1153 63.7102C68.3053 63.7102 67.8604 63.1752 67.8604 62.2252V61.7002C67.8604 60.7502 68.3204 60.2202 69.1054 60.2202C69.8904 60.2202 70.3403 60.7502 70.3403 61.7002V62.2252H70.3354ZM69.7304 61.6952C69.7304 60.9202 69.4253 60.7902 69.1003 60.7902C68.7903 60.7902 68.4604 60.9252 68.4604 61.6952V62.2302C68.4604 63.0102 68.8053 63.1402 69.1153 63.1402C69.4403 63.1402 69.7304 63.0152 69.7304 62.2302V61.6952Z" fill="#000001"/>
<g opacity="0.2">
<path d="M92.3245 57.74C97.3255 57.74 101.38 56.6744 101.38 55.36C101.38 54.0455 97.3255 52.98 92.3245 52.98C87.3236 52.98 83.2695 54.0455 83.2695 55.36C83.2695 56.6744 87.3236 57.74 92.3245 57.74Z" fill="#455149"/>
</g>
<path d="M97.0149 47.3249C95.9449 46.6549 94.4949 46.8899 92.6599 48.0249C92.5349 49.9699 92.5399 51.5349 92.6799 52.7299C94.0999 53.0449 95.6699 52.8799 97.3899 52.2149V52.1649C97.1149 50.5649 96.9899 48.9499 97.0149 47.3199V47.3249Z" fill="white"/>
<path d="M97.3897 52.2202C95.6747 52.8802 94.1047 53.0502 92.6797 52.7352C92.7897 54.4002 93.2597 55.3302 94.0897 55.5052C94.9247 55.6752 95.6697 55.6552 96.3247 55.4352C97.3247 55.0002 97.6797 53.9252 97.3847 52.2202H97.3897Z" fill="#00923D"/>
<path d="M95.145 55.9101C94.79 55.9101 94.42 55.8701 94.035 55.7951C93.06 55.5851 92.505 54.5651 92.385 52.7601C92.245 51.5351 92.24 49.9401 92.365 48.0101C92.37 47.9151 92.425 47.8301 92.505 47.7751C94.435 46.5801 96.005 46.3451 97.17 47.0751C97.26 47.1301 97.31 47.2251 97.31 47.3301C97.28 48.9201 97.405 50.5301 97.68 52.1201C97.68 52.1351 97.68 52.1551 97.68 52.1701V52.1951C97.99 54.0351 97.575 55.2151 96.445 55.7101C96.435 55.7101 96.43 55.7151 96.42 55.7201C96.025 55.8501 95.6 55.9151 95.145 55.9151V55.9101ZM93.005 53.0951C93.14 54.3701 93.525 55.0801 94.15 55.2151C94.925 55.3701 95.625 55.3501 96.22 55.1601C97.01 54.8101 97.315 53.9801 97.145 52.6251C95.67 53.1451 94.28 53.3051 93 53.1001L93.005 53.0951ZM92.95 52.4851C94.2 52.7151 95.58 52.5601 97.065 52.0251C96.82 50.5201 96.7 49.0001 96.72 47.4951C95.795 47.0101 94.525 47.2501 92.945 48.2001C92.835 49.9201 92.84 51.3601 92.95 52.4851Z" fill="black"/>
<path d="M91.8755 48.285C89.9255 47.23 88.4505 47.06 87.4805 47.78C87.7055 49.41 87.7755 51.035 87.7055 52.645C87.7055 52.665 87.7055 52.685 87.7155 52.695C89.4005 53.355 90.9805 53.465 92.4405 53C92.4405 51.805 92.2555 50.23 91.8705 48.285H91.8755Z" fill="white"/>
<path d="M91.3945 55.8398C92.1895 55.6348 92.5345 54.6848 92.4445 52.9998C90.9845 53.4648 89.4045 53.3548 87.7195 52.6948C87.6395 54.4198 88.1195 55.4848 89.1495 55.8698C89.8445 56.0548 90.5895 56.0498 91.3945 55.8398Z" fill="#00923D"/>
<path d="M90.1754 56.3C89.7954 56.3 89.4253 56.25 89.0753 56.155C89.0653 56.155 89.0554 56.15 89.0504 56.145C87.9004 55.715 87.3554 54.565 87.4254 52.735C87.4154 52.695 87.4154 52.665 87.4154 52.645C87.4854 51.01 87.4104 49.39 87.1904 47.825C87.1754 47.715 87.2204 47.61 87.3054 47.545C88.3754 46.755 89.9604 46.915 92.0104 48.025C92.0854 48.065 92.1404 48.14 92.1604 48.23C92.5404 50.165 92.7354 51.765 92.7354 52.995C92.8304 54.855 92.4153 55.88 91.4653 56.13C91.0203 56.245 90.5903 56.3 90.1703 56.3H90.1754ZM89.2403 55.59C89.8853 55.76 90.5703 55.75 91.3253 55.555C91.9003 55.405 92.1854 54.675 92.1654 53.39C90.8704 53.715 89.4753 53.625 88.0053 53.115C88.0203 54.45 88.4353 55.28 89.2403 55.59ZM88.0104 52.49C89.4854 53.035 90.8754 53.13 92.1504 52.78C92.1304 51.65 91.9503 50.205 91.6153 48.48C89.9353 47.595 88.6554 47.41 87.8004 47.925C87.9954 49.415 88.0654 50.95 88.0104 52.49Z" fill="black"/>
<path d="M85.7551 25.3699C85.7651 25.0249 85.7751 24.6799 85.7951 24.3149C85.8351 23.8299 85.8851 23.3399 85.9501 22.8249C85.8801 23.3399 85.8301 23.8299 85.7951 24.3149C85.7751 24.6799 85.7651 25.0249 85.7551 25.3699C85.7251 26.3449 85.7851 27.2049 85.9201 27.9549L86.8051 27.6999C88.7751 25.2849 88.6201 22.3049 86.3251 18.7549C83.5301 21.4799 83.1001 24.6249 85.0301 28.1949L85.9201 27.9599C85.7851 27.2099 85.7251 26.3499 85.7551 25.3749V25.3699Z" fill="#00923D"/>
<path d="M85.9254 28.1498C85.8304 28.1498 85.7504 28.0848 85.7304 27.9898C85.5904 27.2398 85.5354 26.3848 85.5604 25.4498L84.5504 24.4348C84.4754 24.3598 84.4754 24.2348 84.5504 24.1548C84.6254 24.0798 84.7504 24.0798 84.8254 24.1548L85.5754 24.9048C85.5804 24.7098 85.5904 24.5098 85.6004 24.2998C85.6004 24.2998 85.6004 24.2998 85.6004 24.2948C85.6404 23.7798 85.6904 23.3148 85.7504 22.8748L85.1604 22.0698C85.0954 21.9798 85.1154 21.8598 85.2004 21.7948C85.2854 21.7298 85.4104 21.7498 85.4754 21.8348L85.8254 22.3098C85.8704 21.9998 85.9254 21.6598 85.9854 21.2848C86.0054 21.1798 86.1054 21.1048 86.2104 21.1248C86.3154 21.1448 86.3904 21.2448 86.3704 21.3548C86.2704 21.9248 86.2004 22.4148 86.1454 22.8448C86.1004 23.1698 86.0654 23.5098 86.0304 23.8698L86.7354 23.3148C86.8204 23.2498 86.9454 23.2598 87.0104 23.3498C87.0754 23.4398 87.0604 23.5598 86.9754 23.6248L85.9854 24.4098C85.9704 24.7498 85.9604 25.0798 85.9504 25.3698C85.9204 26.3098 85.9754 27.1648 86.1154 27.9148C86.1354 28.0198 86.0654 28.1248 85.9554 28.1448C85.9454 28.1448 85.9304 28.1448 85.9204 28.1448L85.9254 28.1498Z" fill="black"/>
<path d="M85.0302 28.485C84.9252 28.485 84.8252 28.425 84.7702 28.33C82.7752 24.645 83.2302 21.35 86.1202 18.535C86.1852 18.475 86.2702 18.445 86.3602 18.455C86.4502 18.465 86.5252 18.515 86.5752 18.59C88.9352 22.24 89.0902 25.37 87.0352 27.885C86.9952 27.93 86.9452 27.965 86.8902 27.98L86.0052 28.235L85.1052 28.475C85.1052 28.475 85.0552 28.485 85.0302 28.485ZM86.2752 19.22C83.8452 21.745 83.4852 24.57 85.1802 27.845L85.8452 27.67L86.6302 27.44C88.4102 25.195 88.2952 22.505 86.2702 19.22H86.2752Z" fill="black"/>
<path d="M89.68 24.6849C87.415 24.9099 85.445 26.0649 83.765 28.1499C81.715 30.7249 80.115 34.7199 78.95 40.1249C78.85 40.5899 78.755 41.0499 78.665 41.5149C80.305 41.2199 81.675 41.6849 82.785 42.9049C84.405 42.0449 85.965 42.2949 87.485 43.6449C89.985 41.7099 92.595 41.4649 95.29 42.8949C96.535 41.4249 98.035 40.9299 99.78 41.4049C100.89 40.1149 102.175 39.3999 103.655 39.2949C103.39 38.6349 103.125 37.9849 102.86 37.3599C102.78 37.1749 102.705 36.9849 102.615 36.7999C100.32 31.6099 97.84 28.0799 95.16 26.2149C93.405 25.0099 91.57 24.4999 89.68 24.6849Z" fill="white"/>
<path d="M103.655 39.2952C102.175 39.4052 100.89 40.1152 99.7803 41.4052C98.0353 40.9302 96.5353 41.4252 95.2903 42.8952C92.5953 41.4652 89.9853 41.7102 87.4853 43.6452C85.9653 42.2952 84.4054 42.0452 82.7854 42.9052C81.6754 41.6802 80.3053 41.2202 78.6653 41.5152C78.4803 41.5552 78.2853 41.6052 78.0653 41.6552C78.2803 41.6052 78.4753 41.5552 78.6653 41.5152C78.7553 41.0502 78.8503 40.5902 78.9503 40.1252C77.7053 40.3802 77.0003 41.1502 76.8203 42.4252C76.6553 43.5602 77.1053 44.3602 78.1553 44.8202C77.6353 45.2852 77.4203 45.8452 77.5103 46.4952C77.7653 49.2452 80.8253 50.7652 86.6903 51.0452C90.4853 51.2502 94.1953 50.8952 97.7903 49.9602C104.82 47.6202 107.41 44.9202 105.555 41.8602C106.33 40.7652 106.38 39.7002 105.7 38.6452C105.045 37.6102 104.09 37.1752 102.855 37.3652C103.12 37.9852 103.385 38.6402 103.65 39.3002L103.655 39.2952Z" fill="#00923D"/>
<path d="M88.7501 51.4C88.0601 51.4 87.3651 51.38 86.6701 51.345C80.6651 51.06 77.4851 49.44 77.2151 46.53C77.1351 45.925 77.2851 45.375 77.6701 44.905C76.7601 44.365 76.3701 43.5 76.5301 42.385C76.7151 41.045 77.4451 40.205 78.7001 39.885C79.8701 34.535 81.5001 30.53 83.5351 27.97C85.2551 25.835 87.3151 24.63 89.6501 24.4C91.6051 24.205 93.5151 24.74 95.3251 25.98C98.0301 27.865 100.57 31.465 102.88 36.69C102.935 36.81 102.99 36.935 103.04 37.05C104.285 36.93 105.265 37.415 105.95 38.495C106.66 39.6 106.645 40.74 105.905 41.88C106.47 42.89 106.58 43.885 106.235 44.835C105.5 46.855 102.765 48.625 97.8851 50.245C94.9301 51.015 91.8701 51.4 88.7551 51.4H88.7501ZM78.5601 40.545C77.7251 40.85 77.2501 41.485 77.1101 42.47C76.9651 43.465 77.3451 44.145 78.2701 44.555C78.3601 44.595 78.4251 44.68 78.4401 44.78C78.4551 44.88 78.4201 44.98 78.3451 45.045C77.9001 45.445 77.7201 45.905 77.7951 46.46C78.0351 49.045 81.0301 50.485 86.6951 50.75C90.4701 50.955 94.1751 50.595 97.7101 49.675C102.33 48.14 105.015 46.44 105.675 44.625C105.98 43.79 105.86 42.935 105.3 42.015C105.24 41.915 105.245 41.785 105.31 41.69C106.01 40.7 106.06 39.755 105.45 38.805C104.92 37.97 104.21 37.585 103.28 37.62C103.445 38.015 103.625 38.455 103.84 38.985C104.055 38.975 104.28 38.975 104.52 38.99C104.68 39 104.805 39.145 104.795 39.305C104.785 39.47 104.645 39.59 104.48 39.58C104.195 39.56 103.935 39.565 103.685 39.59C103.68 39.59 103.67 39.59 103.665 39.59C102.4 39.685 101.295 40.235 100.3 41.265C100.315 41.265 100.33 41.275 100.345 41.28C100.5 41.33 100.585 41.495 100.54 41.65C100.49 41.805 100.325 41.895 100.17 41.845C100.1 41.825 100.03 41.8 99.9601 41.775C99.8751 41.745 99.7901 41.715 99.7001 41.69C99.7001 41.69 99.7001 41.69 99.6951 41.69C98.0501 41.245 96.6851 41.705 95.5101 43.09C95.4201 43.195 95.2701 43.225 95.1501 43.16C92.5351 41.775 90.0851 42.01 87.6601 43.885C87.5501 43.97 87.3901 43.965 87.2851 43.87C85.8601 42.6 84.4351 42.37 82.9301 43.165C82.7551 43.27 82.5901 43.375 82.4251 43.495C82.2951 43.59 82.1101 43.56 82.0151 43.43C81.9201 43.295 81.9501 43.11 82.0801 43.015C82.1601 42.955 82.2401 42.905 82.3151 42.855C81.3201 41.895 80.1451 41.555 78.7201 41.81C78.6101 41.835 78.4951 41.86 78.3751 41.89C78.2951 41.91 78.2151 41.93 78.1301 41.945C77.9701 41.98 77.8151 41.88 77.7801 41.72C77.7451 41.56 77.8451 41.4 78.0001 41.365C78.0851 41.345 78.1651 41.325 78.2401 41.31C78.3001 41.295 78.3551 41.285 78.4101 41.27C78.4601 41.025 78.5101 40.785 78.5601 40.54V40.545ZM84.6401 42.115C85.6101 42.115 86.5651 42.5 87.4901 43.27C89.9601 41.45 92.5551 41.2 95.2151 42.53C96.4601 41.16 97.9601 40.67 99.6751 41.075C100.71 39.92 101.905 39.24 103.23 39.045C102.98 38.425 102.78 37.935 102.585 37.485C102.585 37.485 102.585 37.475 102.58 37.47C102.51 37.3 102.43 37.11 102.345 36.925C100.075 31.795 97.6051 28.275 94.9901 26.455C93.3001 25.295 91.5201 24.8 89.7051 24.975C87.5301 25.195 85.6101 26.32 83.9901 28.33C81.9901 30.84 80.3901 34.83 79.2351 40.175V40.185C79.1701 40.505 79.1001 40.83 79.0351 41.155C80.5151 40.995 81.7951 41.46 82.8501 42.535C83.4551 42.245 84.0551 42.1 84.6451 42.1L84.6401 42.115Z" fill="black"/>
<path d="M86.5202 31.13C86.4752 31.13 86.4252 31.115 86.3902 31.08C86.3102 31.005 86.3002 30.885 86.3752 30.8C86.9352 30.17 87.6152 30.12 88.3352 30.655C88.4202 30.72 88.4402 30.845 88.3752 30.93C88.3102 31.02 88.1902 31.035 88.1002 30.97C87.5452 30.555 87.0902 30.585 86.6652 31.06C86.6252 31.105 86.5702 31.125 86.5202 31.125V31.13Z" fill="black"/>
<path d="M94.1399 30.6449C94.2749 30.4499 94.3349 30.2199 94.3149 29.9549C94.2849 29.6899 94.1899 29.4699 94.0099 29.3049C93.8349 29.1349 93.6349 29.0699 93.4099 29.0899C93.1849 29.1099 93.0099 29.2199 92.8599 29.4249C92.7349 29.6199 92.6749 29.8499 92.7049 30.1149C92.7249 30.3799 92.8249 30.5999 92.9899 30.7649C93.1749 30.9349 93.3699 30.9999 93.5999 30.9799C93.8249 30.9599 93.9999 30.8499 94.1399 30.6449Z" fill="black"/>
<path d="M93.5301 31.1799C93.2851 31.1799 93.0701 31.0899 92.8651 30.9099C92.6551 30.6999 92.5401 30.4349 92.5151 30.1249C92.4801 29.8299 92.5451 29.5549 92.7051 29.3099C92.8901 29.0449 93.1201 28.9099 93.4001 28.8849C93.6801 28.8599 93.9351 28.9499 94.1501 29.1549C94.3551 29.3499 94.4801 29.6099 94.5151 29.9299C94.5151 29.9299 94.5151 29.9299 94.5151 29.9349C94.5401 30.2449 94.4651 30.5199 94.3051 30.7549C94.1401 31.0049 93.9051 31.1499 93.6201 31.1749C93.5901 31.1749 93.5601 31.1749 93.5301 31.1749V31.1799ZM93.4901 29.2799C93.4901 29.2799 93.4551 29.2799 93.4351 29.2799C93.2701 29.2949 93.1451 29.3749 93.0301 29.5349C92.9251 29.6949 92.8851 29.8799 92.9101 30.0899C92.9251 30.3149 93.0001 30.4849 93.1401 30.6249C93.2801 30.7499 93.4201 30.7999 93.5901 30.7849C93.7601 30.7699 93.8801 30.6949 93.9851 30.5349C94.1001 30.3699 94.1451 30.1899 94.1301 29.9699C94.1051 29.7499 94.0251 29.5749 93.8851 29.4449C93.7651 29.3299 93.6401 29.2799 93.4951 29.2799H93.4901Z" fill="black"/>
<path d="M84.0898 34.66C84.3948 34.885 84.7448 34.975 85.1398 34.945C85.5198 34.905 85.8448 34.75 86.0898 34.46C86.3448 34.185 86.4548 33.87 86.4248 33.515C86.3948 33.15 86.2198 32.855 85.9148 32.625C85.6198 32.4 85.2798 32.31 84.8948 32.35C84.5048 32.38 84.1798 32.535 83.9148 32.825C83.6698 33.11 83.5598 33.425 83.5898 33.79C83.6198 34.145 83.7848 34.43 84.0898 34.66Z" fill="#EB7954"/>
<path d="M95.33 33.5648C95.635 33.7898 95.985 33.8898 96.37 33.8498C96.76 33.8098 97.085 33.6548 97.33 33.3648C97.585 33.0898 97.695 32.7748 97.665 32.4198C97.635 32.0548 97.46 31.7598 97.155 31.5298C96.86 31.3048 96.52 31.2148 96.125 31.2548C95.745 31.2948 95.42 31.4498 95.155 31.7298C94.91 32.0148 94.8 32.3298 94.83 32.6948C94.86 33.0498 95.025 33.3348 95.33 33.5648Z" fill="#EB7954"/>
<path d="M89.7496 31.4152C89.5546 31.5652 89.4546 31.7402 89.4646 31.9402C89.4746 32.1352 89.5996 32.2952 89.8296 32.4252C90.0546 32.5552 90.2896 32.6102 90.5546 32.5952C90.5946 32.5852 90.6146 32.5852 90.6246 32.5852C90.6446 32.5852 90.6646 32.5852 90.6946 32.5752C90.7246 32.5652 90.7646 32.5652 90.7946 32.5552C91.0296 32.5052 91.2346 32.4152 91.4146 32.2802C91.5996 32.1302 91.6896 31.9552 91.6596 31.7552C91.6596 31.5702 91.5396 31.4102 91.3046 31.2802C91.0796 31.1702 90.8246 31.1202 90.5196 31.1502C90.2146 31.1802 89.9596 31.2702 89.7546 31.4152H89.7496Z" fill="black"/>
<path d="M90.4549 32.6899C90.2099 32.6899 89.9949 32.6299 89.7799 32.5099C89.5149 32.3599 89.3799 32.1699 89.3649 31.9449C89.3549 31.7149 89.4649 31.5049 89.6899 31.3399C89.9099 31.1799 90.1849 31.0849 90.5049 31.0549C90.8099 31.0249 91.0849 31.0699 91.3399 31.1949C91.6149 31.3449 91.7499 31.5299 91.7499 31.7549C91.7849 31.9699 91.6849 32.1799 91.4699 32.3549C91.2849 32.4999 91.0699 32.5949 90.8099 32.6499C90.7999 32.6499 90.7799 32.6599 90.7549 32.6599C90.7449 32.6599 90.7349 32.6599 90.7249 32.6649C90.6799 32.6799 90.6499 32.6799 90.6249 32.6799C90.6199 32.6799 90.6099 32.6799 90.5799 32.6849C90.5399 32.6849 90.4999 32.6849 90.4599 32.6849L90.4549 32.6899ZM90.6849 31.2399C90.6349 31.2399 90.5799 31.2399 90.5249 31.2499C90.2399 31.2799 89.9999 31.3599 89.8099 31.4999C89.6399 31.6299 89.5599 31.7749 89.5649 31.9399C89.5749 32.0949 89.6749 32.2249 89.8799 32.3399C90.0949 32.4599 90.3149 32.5149 90.5499 32.4949C90.5999 32.4799 90.6299 32.4949 90.6649 32.4799C90.6849 32.4749 90.7099 32.4699 90.7299 32.4649C90.7399 32.4649 90.7499 32.4649 90.7599 32.4599C90.9999 32.4099 91.1899 32.3249 91.3499 32.1999C91.5099 32.0699 91.5799 31.9249 91.5599 31.7699C91.5599 31.6049 91.4599 31.4799 91.2549 31.3699C91.0799 31.2849 90.8949 31.2449 90.6849 31.2449V31.2399Z" fill="black"/>
<path d="M89.7149 33.5652C89.6499 33.5652 89.5899 33.5652 89.5299 33.5552C89.4949 33.5552 89.4499 33.5552 89.3999 33.5402C89.1899 33.5052 88.9799 33.4152 88.7449 33.2652C88.6549 33.2052 88.6299 33.0852 88.6899 32.9902C88.7499 32.8952 88.8699 32.8752 88.9599 32.9302C89.1449 33.0502 89.3149 33.1252 89.4699 33.1452C89.4799 33.1452 89.4949 33.1452 89.5049 33.1552C89.5099 33.1552 89.5299 33.1552 89.5399 33.1552C89.5499 33.1552 89.5599 33.1552 89.5649 33.1552C89.8599 33.1952 90.1799 33.1152 90.5199 32.9102L90.4899 32.5752C90.4799 32.4652 90.5599 32.3702 90.6699 32.3602C90.7799 32.3502 90.8749 32.4302 90.8799 32.5402L90.9099 32.8702C91.2549 32.9852 91.5799 33.0002 91.8799 32.9202C92.0499 32.8702 92.2199 32.7902 92.3949 32.6802C92.4849 32.6202 92.6099 32.6502 92.6649 32.7402C92.7249 32.8302 92.6949 32.9552 92.6049 33.0102C92.3999 33.1402 92.1949 33.2352 91.9899 33.3002C91.5949 33.4052 91.1799 33.3802 90.7499 33.2302C90.3949 33.4452 90.0449 33.5552 89.7149 33.5552V33.5652Z" fill="black"/>
<path d="M99.6846 35.5952C98.1446 36.7502 96.6446 37.0352 95.1646 36.4352C93.0546 35.3802 91.7796 35.4802 91.3496 36.7502C91.3796 36.8802 91.3896 37.0252 91.3696 37.1952C91.3596 37.2852 91.3396 37.3652 91.3096 37.4302C91.4946 37.8952 91.9846 37.9752 92.7596 37.6552C93.5346 37.3402 93.9846 37.5952 94.1146 38.4252C94.2346 39.2552 93.9696 39.8952 93.3096 40.3402C92.6546 40.7852 92.2796 41.1402 92.1996 41.4052C92.2096 41.5352 92.2096 41.6802 92.1896 41.8502C92.1796 41.9202 92.1696 41.9902 92.1396 42.0552C92.7596 42.9152 94.0596 42.9652 96.0746 42.2052C98.5446 41.4252 100.265 40.0852 101.215 38.2002C101.07 36.9102 100.56 36.0402 99.6846 35.5952Z" fill="white"/>
<path d="M94.1154 38.4301C93.9904 37.6001 93.5354 37.3451 92.7604 37.6601C91.9854 37.9751 91.4954 37.8951 91.3104 37.4351C91.1754 37.8801 90.8304 38.0951 90.2804 38.0651C89.3504 38.0251 89.0154 38.4401 89.2904 39.3201C89.5654 40.1801 90.2404 40.6801 91.3104 40.8301C91.9304 40.9601 92.2204 41.1551 92.2004 41.4101C92.2804 41.1451 92.6504 40.7901 93.3104 40.3451C93.9654 39.9001 94.2304 39.2601 94.1154 38.4301Z" fill="#DB0B18"/>
<path d="M90.2795 38.065C90.8295 38.095 91.1695 37.88 91.3095 37.435C91.3395 37.365 91.3595 37.285 91.3695 37.2C91.3895 37.03 91.3795 36.885 91.3495 36.755C91.2395 36.41 90.9395 36.205 90.4295 36.115C89.7245 35.985 88.9795 36.235 88.1945 36.845C86.2145 38.155 84.4295 38.175 82.8295 36.915C82.0745 37.85 81.7895 38.995 81.9745 40.34C83.3945 41.495 85.1895 42.305 87.3395 42.775C87.8795 42.895 88.7895 42.955 90.0945 42.955C91.2595 42.945 91.9495 42.65 92.1445 42.065C92.1745 41.995 92.1845 41.925 92.1945 41.86C92.2145 41.69 92.2145 41.545 92.2045 41.415C92.2245 41.16 91.9295 40.96 91.3145 40.835C90.2445 40.685 89.5695 40.185 89.2945 39.325C89.0195 38.445 89.3545 38.035 90.2845 38.07L90.2795 38.065Z" fill="white"/>
<path d="M90.0953 43.2398C88.7603 43.2398 87.8403 43.1798 87.2753 43.0548C85.0803 42.5698 83.2303 41.7298 81.7903 40.5598C81.6653 40.4548 81.6453 40.2698 81.7453 40.1448C81.8453 40.0198 82.0303 39.9998 82.1603 40.0998C83.5303 41.2148 85.2953 42.0148 87.4053 42.4798C87.9203 42.5948 88.8253 42.6498 90.1003 42.6498C91.1203 42.6398 91.7203 42.4098 91.8703 41.9648C91.8703 41.9548 91.8753 41.9448 91.8803 41.9348C91.8953 41.9048 91.9003 41.8598 91.9053 41.8048C91.9203 41.6848 91.9203 41.5548 91.9153 41.4298C91.9153 41.4148 91.9153 41.3948 91.9153 41.3748C91.9153 41.3748 91.8353 41.2298 91.2653 41.1098C90.0803 40.9448 89.3253 40.3698 89.0153 39.3998C88.8503 38.8698 88.8753 38.4548 89.1003 38.1698C89.3253 37.8748 89.7303 37.7398 90.3003 37.7648C90.8253 37.7898 90.9703 37.5548 91.0353 37.3448C91.0353 37.3398 91.0353 37.3298 91.0403 37.3248C91.0403 37.3198 91.0403 37.3148 91.0453 37.3098C91.0653 37.2698 91.0753 37.2148 91.0803 37.1598C91.0953 37.0398 91.0903 36.9248 91.0703 36.8248C91.0203 36.6798 90.8953 36.4848 90.3803 36.3998C89.7653 36.2898 89.0903 36.5148 88.3753 37.0698C88.3703 37.0698 88.3653 37.0798 88.3553 37.0848C86.2703 38.4648 84.3503 38.4848 82.6453 37.1398C82.5153 37.0398 82.4953 36.8548 82.5953 36.7248C82.6953 36.5948 82.8803 36.5748 83.0103 36.6748C84.5103 37.8598 86.1503 37.8348 88.0203 36.5998C88.8703 35.9398 89.7003 35.6798 90.4803 35.8198C90.8303 35.8798 91.1053 35.9948 91.3053 36.1698C91.4903 35.8898 91.7303 35.6848 92.0303 35.5598C92.7803 35.2498 93.8453 35.4498 95.2853 36.1648C96.6653 36.7198 98.0453 36.4548 99.5103 35.3598C99.6403 35.2598 99.8253 35.2898 99.9203 35.4198C100.015 35.5498 99.9903 35.7348 99.8603 35.8348C98.2353 37.0498 96.6203 37.3448 95.0553 36.7098C95.0503 36.7098 95.0403 36.7048 95.0353 36.6998C93.7703 36.0648 92.8353 35.8648 92.2553 36.1048C91.9803 36.2198 91.7803 36.4398 91.6553 36.7748C91.6803 36.9198 91.6803 37.0698 91.6603 37.2298C91.6553 37.2898 91.6403 37.3498 91.6253 37.4098C91.6803 37.4898 91.7503 37.5298 91.8553 37.5448C91.9853 37.5648 92.2303 37.5548 92.6453 37.3848C93.1203 37.1898 93.5153 37.1848 93.8203 37.3598C94.1253 37.5348 94.3203 37.8798 94.4003 38.3848C94.5353 39.3248 94.2103 40.0898 93.4703 40.5898C92.7503 41.0748 92.5503 41.3398 92.4953 41.4548C92.5003 41.5948 92.4953 41.7448 92.4803 41.8898C92.4803 41.9248 92.4703 41.9598 92.4653 41.9948C93.0303 42.6198 94.2103 42.5998 95.9703 41.9348C98.3653 41.1798 100.035 39.8798 100.95 38.0748C101.025 37.9298 101.2 37.8698 101.345 37.9448C101.49 38.0198 101.55 38.1948 101.475 38.3448C100.49 40.2998 98.7003 41.6998 96.1603 42.4998C94.2753 43.2148 92.9703 43.2348 92.1953 42.5648C91.8253 43.0098 91.1203 43.2448 90.0903 43.2498L90.0953 43.2398ZM90.1553 38.3548C89.8503 38.3548 89.6453 38.4148 89.5553 38.5348C89.4353 38.6948 89.4953 38.9998 89.5653 39.2298C89.8053 39.9748 90.3853 40.3998 91.3453 40.5348C91.3503 40.5348 91.3603 40.5348 91.3653 40.5348C91.7353 40.6098 92.0153 40.7198 92.2053 40.8598C92.4103 40.6348 92.7203 40.3848 93.1453 40.0948C93.7003 39.7198 93.9253 39.1848 93.8203 38.4698C93.7853 38.2548 93.7103 37.9748 93.5353 37.8698C93.3603 37.7698 93.0753 37.8448 92.8703 37.9298C92.4303 38.1098 92.0703 38.1748 91.7703 38.1248C91.6103 38.0998 91.4703 38.0448 91.3553 37.9598C91.1153 38.2448 90.7403 38.3798 90.2653 38.3548C90.2303 38.3548 90.1953 38.3548 90.1603 38.3548H90.1553Z" fill="black"/>
<path d="M92.3346 16.1348C91.5996 16.9348 91.8146 17.8598 92.9646 18.9348C93.8296 19.7148 94.7696 20.1898 95.7796 20.3548C96.6546 19.6948 97.2696 18.7648 97.6546 17.5848C98.1246 16.0848 97.8396 15.1798 96.8096 14.8498C95.7796 14.5248 95.0846 14.9198 94.7296 16.0348C93.8646 15.2948 93.0746 15.3248 92.3346 16.1348ZM92.4896 17.6848C92.4596 17.5548 92.5196 17.4698 92.6646 17.4298C92.8096 17.3898 92.8996 17.4398 92.9396 17.5798C92.9696 17.7098 92.9296 17.7948 92.8046 17.8248C92.6946 17.8548 92.6196 17.8348 92.5596 17.7848C92.5196 17.7248 92.4996 17.6948 92.4896 17.6848ZM92.6446 17.0948L92.6046 16.9648C92.5446 16.7398 92.6346 16.5298 92.8796 16.3648C93.1246 16.2048 93.2696 16.2348 93.3296 16.4448C93.3396 16.5048 93.2896 16.6298 93.1846 16.8198C93.0746 17.0248 92.9896 17.1348 92.9096 17.1548C92.7846 17.1848 92.6946 17.1648 92.6446 17.0948Z" fill="#DB0B18"/>
<path d="M92.6698 17.4249C92.5248 17.4649 92.4648 17.5549 92.4948 17.6799C92.5048 17.6899 92.5248 17.7199 92.5648 17.7799C92.6248 17.8299 92.6998 17.8499 92.8098 17.8199C92.9348 17.7899 92.9748 17.6999 92.9448 17.5749C92.9048 17.4349 92.8198 17.3899 92.6698 17.4249Z" fill="#E9625F"/>
<path d="M92.6098 16.9652L92.6498 17.0952C92.6998 17.1652 92.7848 17.1852 92.9148 17.1552C92.9948 17.1352 93.0798 17.0252 93.1898 16.8202C93.2998 16.6352 93.3448 16.5052 93.3348 16.4452C93.2748 16.2402 93.1298 16.2102 92.8848 16.3652C92.6398 16.5352 92.5498 16.7402 92.6098 16.9652Z" fill="#E9625F"/>
<path d="M95.7799 20.5552C95.7799 20.5552 95.7599 20.5552 95.7499 20.5552C94.7049 20.3802 93.7249 19.8852 92.8349 19.0852C91.5949 17.9252 91.3799 16.8852 92.1949 16.0052C92.9349 15.1902 93.7749 15.0952 94.6399 15.7152C95.0549 14.6952 95.8199 14.3352 96.8699 14.6652C97.3399 14.8152 97.6799 15.0802 97.8749 15.4552C98.1499 15.9852 98.1399 16.7002 97.8399 17.6452C97.4449 18.8752 96.7899 19.8402 95.8999 20.5152C95.8649 20.5402 95.8249 20.5552 95.7799 20.5552ZM93.5349 15.7002C93.1699 15.7002 92.8249 15.8902 92.4799 16.2652C92.0649 16.7152 91.6799 17.4602 93.0949 18.7902C93.8999 19.5152 94.7849 19.9702 95.7249 20.1452C96.5149 19.5202 97.0999 18.6402 97.4649 17.5202C97.7249 16.6952 97.7449 16.0602 97.5249 15.6352C97.3799 15.3502 97.1249 15.1552 96.7499 15.0352C95.8199 14.7402 95.2399 15.0752 94.9149 16.0902C94.8949 16.1552 94.8449 16.2002 94.7799 16.2202C94.7149 16.2402 94.6499 16.2202 94.5999 16.1802C94.2249 15.8552 93.8699 15.6952 93.5349 15.6952V15.7002Z" fill="black"/>
<path d="M100.565 20.8102C99.7804 21.0652 99.5654 21.7652 99.9304 22.9102C100.195 23.7702 100.635 24.4402 101.245 24.9402C102.08 24.8402 102.855 24.4652 103.55 23.8252C104.435 23.0052 104.6 22.2952 104.04 21.6852C103.47 21.0752 102.865 21.0752 102.205 21.6752C101.91 20.8552 101.36 20.5602 100.565 20.8052V20.8102ZM100.085 21.9052C100.115 21.7952 100.185 21.7652 100.29 21.7952C100.4 21.8252 100.445 21.9052 100.42 22.0102C100.39 22.1102 100.33 22.1502 100.235 22.1202C100.155 22.0902 100.11 22.0502 100.1 21.9902C100.09 21.9402 100.09 21.9102 100.09 21.9002L100.085 21.9052ZM100.42 21.5802L100.44 21.4702C100.49 21.2902 100.615 21.1952 100.84 21.1852C101.065 21.1652 101.155 21.2452 101.105 21.4102C101.095 21.4502 101.015 21.5202 100.87 21.6052C100.725 21.6952 100.625 21.7352 100.555 21.7152C100.465 21.6852 100.42 21.6452 100.42 21.5752V21.5802Z" fill="#DB0B18"/>
<path d="M100.29 21.7951C100.18 21.7651 100.115 21.7951 100.085 21.9051C100.085 21.9151 100.085 21.9451 100.095 21.9951C100.105 22.0551 100.155 22.0951 100.23 22.1251C100.33 22.1551 100.385 22.1151 100.415 22.0151C100.445 21.9051 100.395 21.8301 100.29 21.8001V21.7951Z" fill="#E9625F"/>
<path d="M100.44 21.4702L100.42 21.5802C100.42 21.6502 100.47 21.6902 100.555 21.7202C100.625 21.7402 100.72 21.7002 100.87 21.6102C101.02 21.5202 101.095 21.4502 101.105 21.4152C101.155 21.2452 101.065 21.1702 100.84 21.1902C100.615 21.2002 100.485 21.3002 100.44 21.4752V21.4702Z" fill="#E9625F"/>
<path d="M101.245 25.1402C101.2 25.1402 101.155 25.1252 101.12 25.0952C100.475 24.5652 100.015 23.8502 99.7447 22.9702C99.2447 21.4002 99.8847 20.8252 100.51 20.6252C101.32 20.3752 101.93 20.6252 102.285 21.3602C102.95 20.8652 103.605 20.9302 104.185 21.5552C104.625 22.0402 104.9 22.8502 103.685 23.9752C102.955 24.6452 102.145 25.0352 101.27 25.1402C101.26 25.1402 101.255 25.1402 101.245 25.1402ZM100.625 21.0002C100.375 21.0802 99.6297 21.3302 100.115 22.8552C100.36 23.6402 100.745 24.2602 101.305 24.7402C102.065 24.6302 102.775 24.2802 103.415 23.6852C104.47 22.7052 104.195 22.1552 103.895 21.8252C103.4 21.2952 102.92 21.2952 102.335 21.8252C102.285 21.8702 102.22 21.8852 102.155 21.8702C102.09 21.8552 102.04 21.8052 102.02 21.7452C101.76 21.0202 101.315 20.7852 100.625 21.0002Z" fill="black"/>
<path d="M103.8 28.8199C102.87 29.1049 102.625 29.9349 103.045 31.2949C103.37 32.2899 103.88 33.0899 104.595 33.6799C105.575 33.5599 106.48 33.1299 107.31 32.3699C108.35 31.4049 108.545 30.5649 107.89 29.8449C107.225 29.1249 106.495 29.1149 105.725 29.8249C105.38 28.8599 104.745 28.5249 103.805 28.8199H103.8ZM103.23 30.1099C103.26 29.9799 103.35 29.9399 103.485 29.9699C103.61 30.0099 103.66 30.0999 103.63 30.2249C103.6 30.3449 103.52 30.3849 103.405 30.3549C103.315 30.3249 103.26 30.2749 103.25 30.2049C103.24 30.1449 103.23 30.1149 103.23 30.1049V30.1099ZM103.62 29.7149L103.65 29.5949C103.71 29.3899 103.865 29.2699 104.12 29.2499C104.385 29.2299 104.485 29.3199 104.435 29.5049C104.425 29.5549 104.335 29.6349 104.17 29.7399C103.995 29.8499 103.865 29.8899 103.795 29.8699C103.685 29.8399 103.63 29.7899 103.62 29.7099V29.7149Z" fill="#DB0B18"/>
<path d="M103.49 29.9748C103.355 29.9448 103.265 29.9848 103.235 30.1148C103.235 30.1248 103.245 30.1548 103.255 30.2148C103.265 30.2848 103.325 30.3348 103.41 30.3648C103.53 30.3948 103.605 30.3548 103.635 30.2348C103.665 30.1048 103.615 30.0198 103.49 29.9798V29.9748Z" fill="#E9625F"/>
<path d="M103.655 29.6001L103.625 29.7201C103.635 29.8001 103.695 29.8501 103.8 29.8801C103.87 29.9001 103.995 29.8601 104.175 29.7501C104.34 29.6401 104.43 29.5651 104.44 29.5151C104.49 29.3301 104.39 29.2401 104.125 29.2601C103.87 29.2801 103.715 29.4001 103.655 29.6051V29.6001Z" fill="#E9625F"/>
<path d="M104.595 33.8801C104.55 33.8801 104.505 33.8651 104.47 33.8351C103.74 33.2301 103.195 32.3951 102.86 31.3551C102.59 30.4801 102.58 29.8201 102.835 29.3401C103.015 29.0001 103.32 28.7601 103.745 28.6301C104.695 28.3301 105.4 28.6301 105.805 29.5001C106.585 28.9051 107.355 28.9701 108.035 29.7101C108.775 30.5201 108.575 31.4651 107.445 32.5151C106.585 33.2951 105.635 33.7551 104.62 33.8801C104.61 33.8801 104.605 33.8801 104.595 33.8801ZM104.41 28.9151C104.245 28.9151 104.06 28.9451 103.86 29.0101C103.535 29.1101 103.31 29.2801 103.18 29.5251C102.98 29.9051 103 30.4801 103.235 31.2401C103.54 32.1751 104.015 32.9251 104.655 33.4801C105.57 33.3501 106.395 32.9401 107.18 32.2301C108.45 31.0501 108.11 30.3851 107.745 29.9851C107.15 29.3451 106.55 29.3401 105.855 29.9801C105.805 30.0251 105.74 30.0401 105.675 30.0251C105.61 30.0101 105.56 29.9601 105.54 29.9001C105.305 29.2401 104.94 28.9201 104.41 28.9201V28.9151Z" fill="black"/>
<path d="M78.5097 15.925C77.7247 16.18 77.5097 16.88 77.8747 18.025C78.1397 18.885 78.5797 19.555 79.1897 20.055C80.0247 19.955 80.7997 19.58 81.4947 18.94C82.3797 18.12 82.5447 17.41 81.9847 16.8C81.4147 16.19 80.8097 16.19 80.1497 16.79C79.8547 15.97 79.3047 15.675 78.5097 15.92V15.925ZM78.0297 17.02C78.0597 16.91 78.1297 16.88 78.2347 16.91C78.3397 16.94 78.3897 17.02 78.3597 17.125C78.3297 17.225 78.2697 17.265 78.1747 17.235C78.0947 17.205 78.0497 17.165 78.0397 17.105C78.0297 17.055 78.0297 17.025 78.0297 17.015V17.02ZM78.3647 16.695L78.3847 16.585C78.4347 16.405 78.5597 16.31 78.7847 16.3C79.0097 16.28 79.0997 16.36 79.0497 16.525C79.0397 16.565 78.9597 16.635 78.8147 16.72C78.6697 16.805 78.5697 16.85 78.4997 16.83C78.4097 16.8 78.3647 16.76 78.3647 16.69V16.695Z" fill="#DB0B18"/>
<path d="M78.2353 16.9148C78.1253 16.8848 78.0603 16.9148 78.0303 17.0248C78.0303 17.0348 78.0303 17.0648 78.0403 17.1148C78.0503 17.1748 78.1003 17.2148 78.1753 17.2448C78.2753 17.2748 78.3303 17.2348 78.3603 17.1348C78.3903 17.0248 78.3403 16.9498 78.2353 16.9198V16.9148Z" fill="#E9625F"/>
<path d="M78.3803 16.5898L78.3604 16.6998C78.3604 16.7698 78.4104 16.8098 78.4954 16.8398C78.5654 16.8598 78.6603 16.8198 78.8103 16.7298C78.9553 16.6398 79.0353 16.5698 79.0453 16.5348C79.0953 16.3648 79.0053 16.2898 78.7803 16.3098C78.5553 16.3198 78.4253 16.4198 78.3803 16.5948V16.5898Z" fill="#E9625F"/>
<path d="M79.1852 20.2599C79.1402 20.2599 79.0952 20.2449 79.0602 20.2149C78.4202 19.6849 77.9552 18.9699 77.6852 18.0899C77.1852 16.5199 77.8252 15.9449 78.4502 15.7449C79.2602 15.4949 79.8702 15.7449 80.2252 16.4799C80.8902 15.9849 81.5452 16.0499 82.1252 16.6749C82.5652 17.1599 82.8402 17.9699 81.6252 19.0949C80.8952 19.7649 80.0852 20.1549 79.2102 20.2599C79.2002 20.2599 79.1952 20.2599 79.1852 20.2599ZM78.5702 16.1149C78.3202 16.1949 77.5752 16.4449 78.0602 17.9699C78.3052 18.7549 78.6902 19.3749 79.2502 19.8549C80.0102 19.7449 80.7202 19.3949 81.3602 18.7999C82.4152 17.8199 82.1402 17.2699 81.8402 16.9399C81.3452 16.4099 80.8652 16.4099 80.2852 16.9399C80.2352 16.9849 80.1702 16.9999 80.1052 16.9849C80.0402 16.9699 79.9902 16.9249 79.9702 16.8599C79.7102 16.1349 79.2652 15.8999 78.5752 16.1149H78.5702Z" fill="black"/>
<path d="M73.9097 23.2148C72.9997 23.7948 72.9697 24.7448 73.7997 26.0748C74.4297 27.0598 75.2097 27.7598 76.1447 28.1848C77.1647 27.7798 78.0097 27.0498 78.6747 25.9948C79.5097 24.6648 79.4797 23.7148 78.5647 23.1348C77.6547 22.5548 76.8797 22.7498 76.2497 23.7348C75.6047 22.7998 74.8197 22.6298 73.9047 23.2098L73.9097 23.2148ZM73.6747 24.7548C73.6747 24.6148 73.7547 24.5498 73.8997 24.5498C74.0447 24.5498 74.1247 24.6198 74.1247 24.7648C74.1247 24.9048 74.0547 24.9698 73.9297 24.9698C73.8197 24.9698 73.7547 24.9298 73.7147 24.8598C73.6847 24.7898 73.6747 24.7598 73.6747 24.7498V24.7548ZM73.9797 24.2198L73.9697 24.0898C73.9697 23.8448 74.1047 23.6748 74.3797 23.5748C74.6547 23.4848 74.7897 23.5448 74.7897 23.7698C74.7897 23.8298 74.7097 23.9398 74.5647 24.0948C74.4097 24.2648 74.2897 24.3398 74.1997 24.3398C74.0747 24.3398 74.0047 24.2998 73.9747 24.2098L73.9797 24.2198Z" fill="#DB0B18"/>
<path d="M73.8998 24.5498C73.7548 24.5498 73.6748 24.6198 73.6748 24.7548C73.6748 24.7648 73.6848 24.7948 73.7148 24.8648C73.7548 24.9348 73.8248 24.9748 73.9298 24.9748C74.0548 24.9748 74.1248 24.9048 74.1248 24.7698C74.1248 24.6198 74.0448 24.5548 73.8998 24.5548V24.5498Z" fill="#E9625F"/>
<path d="M73.9697 24.0949L73.9797 24.2249C74.0097 24.3149 74.0797 24.3549 74.2047 24.3549C74.2947 24.3549 74.4097 24.2749 74.5697 24.1099C74.7147 23.9499 74.7947 23.8449 74.7947 23.7849C74.7947 23.5599 74.6597 23.4999 74.3847 23.5899C74.1097 23.6899 73.9747 23.8549 73.9747 24.1049L73.9697 24.0949Z" fill="#E9625F"/>
<path d="M76.1448 28.3851C76.1148 28.3851 76.0898 28.3801 76.0648 28.3651C75.0948 27.9251 74.2798 27.1901 73.6348 26.1801C72.7348 24.7451 72.7948 23.6901 73.8048 23.0451C74.7298 22.4551 75.5698 22.5801 76.2448 23.4001C76.9048 22.5251 77.7398 22.3751 78.6698 22.9651C79.6798 23.6101 79.7348 24.6651 78.8398 26.1001C78.1548 27.1851 77.2698 27.9501 76.2148 28.3701C76.1898 28.3801 76.1648 28.3851 76.1448 28.3851ZM74.0148 23.3851C73.5048 23.7101 72.9398 24.3351 73.9698 25.9751C74.5498 26.8901 75.2848 27.5651 76.1548 27.9751C77.0948 27.5801 77.8898 26.8801 78.5148 25.8951C79.5398 24.2551 78.9798 23.6351 78.4698 23.3051C77.6448 22.7801 76.9948 22.9501 76.4248 23.8451C76.3898 23.9001 76.3298 23.9351 76.2648 23.9351C76.1948 23.9351 76.1398 23.9051 76.0998 23.8501C75.5148 23.0001 74.8548 22.8501 74.0198 23.3801L74.0148 23.3851Z" fill="black"/>
<path d="M72.3301 33.2098C71.8801 34.0798 72.2801 34.8398 73.5251 35.4998C74.4551 35.9948 75.3901 36.1898 76.3001 36.0898C76.9201 35.3098 77.2501 34.3548 77.3001 33.2298C77.3601 31.8098 76.9001 31.0798 75.9251 31.0398C74.9551 30.9998 74.4451 31.5048 74.3951 32.5598C73.4651 32.1248 72.7751 32.3448 72.3251 33.2098H72.3301ZM72.8301 34.5298C72.7701 34.4198 72.8001 34.3348 72.9201 34.2648C73.0401 34.1948 73.1251 34.2148 73.1951 34.3248C73.2551 34.4348 73.2351 34.5198 73.1251 34.5798C73.0451 34.6298 72.9801 34.6398 72.9101 34.5898C72.8601 34.5498 72.8401 34.5298 72.8301 34.5298ZM72.8301 33.9698L72.7601 33.8798C72.6501 33.6948 72.6801 33.4948 72.8601 33.2898C73.0251 33.0948 73.1651 33.0848 73.2701 33.2598C73.3001 33.3098 73.2901 33.4298 73.2401 33.6148C73.1901 33.8098 73.1301 33.9298 73.0651 33.9698C72.9651 34.0198 72.8901 34.0198 72.8301 33.9698Z" fill="#DB0B18"/>
<path d="M72.9195 34.265C72.7995 34.335 72.7745 34.425 72.8295 34.53C72.8395 34.53 72.8595 34.55 72.9095 34.59C72.9795 34.64 73.0445 34.63 73.1245 34.58C73.2345 34.52 73.2495 34.43 73.1945 34.325C73.1245 34.215 73.0395 34.195 72.9195 34.265Z" fill="#E9625F"/>
<path d="M72.7599 33.8802L72.8299 33.9702C72.8899 34.0202 72.9649 34.0202 73.0649 33.9702C73.1349 33.9302 73.1899 33.8102 73.2399 33.6152C73.2899 33.4302 73.2999 33.3102 73.2699 33.2602C73.1599 33.0802 73.0249 33.0902 72.8599 33.2902C72.6849 33.4952 72.6549 33.6952 72.7599 33.8802Z" fill="#E9625F"/>
<path d="M75.845 36.3102C75.045 36.3102 74.24 36.0952 73.435 35.6702C72.08 34.9502 71.65 34.0902 72.155 33.1152C72.61 32.2352 73.325 31.9502 74.225 32.2702C74.355 31.2902 74.945 30.8002 75.935 30.8402C76.385 30.8602 76.745 31.0102 77.005 31.3002C77.37 31.6952 77.535 32.3502 77.495 33.2402C77.445 34.4052 77.095 35.4052 76.45 36.2152C76.415 36.2552 76.37 36.2852 76.32 36.2902C76.16 36.3052 76 36.3152 75.84 36.3152L75.845 36.3102ZM72.505 33.3002C72.255 33.7802 72.1 34.5152 73.62 35.3252C74.485 35.7852 75.35 35.9752 76.2 35.9052C76.755 35.1752 77.06 34.2702 77.105 33.2252C77.14 32.4452 77.005 31.8852 76.72 31.5702C76.53 31.3602 76.27 31.2552 75.92 31.2402C75.055 31.2052 74.64 31.6302 74.595 32.5702C74.595 32.6352 74.555 32.6952 74.5 32.7302C74.445 32.7652 74.375 32.7702 74.315 32.7402C73.48 32.3502 72.905 32.5302 72.5 33.3052L72.505 33.3002Z" fill="black"/>
<path d="M10.31 9.0352C10.64 9.0352 10.91 8.7652 10.91 8.4302C10.91 8.0952 10.64 7.8252 10.31 7.8252C9.97996 7.8252 9.70996 8.0952 9.70996 8.4302C9.70996 8.7652 9.97996 9.0352 10.31 9.0352Z" fill="#009440"/>
<path d="M11.3698 8.08018C11.6848 8.08018 11.9398 7.82518 11.9398 7.50518C11.9398 7.18518 11.6848 6.93018 11.3698 6.93018C11.0548 6.93018 10.7998 7.18518 10.7998 7.50518C10.7998 7.82518 11.0548 8.08018 11.3698 8.08018Z" fill="#E10916"/>
<path d="M10.7901 6.88506C11.3351 6.66006 11.9851 6.62006 12.6401 6.84006C12.3601 5.16006 11.0701 3.81006 9.13012 3.81006C7.19012 3.81006 5.87512 5.54006 5.62012 6.84006C7.32512 6.28006 8.92512 7.51006 8.92512 8.94506V9.77006H9.35012V8.94506C9.35012 8.62006 9.42512 8.31506 9.55012 8.04006C9.50512 8.05006 9.86012 7.47506 9.99012 7.41506C10.1451 7.26006 10.3201 7.12506 10.5151 7.01506C10.4801 7.02006 10.6451 6.96506 10.7901 6.88506Z" fill="#009440"/>
<path d="M9.4152 8.05988C9.7402 8.05988 10.0052 7.79488 10.0052 7.46988C10.0052 7.14488 9.7402 6.87988 9.4152 6.87988C9.0902 6.87988 8.8252 7.14488 8.8252 7.46988C8.8252 7.79488 9.0902 8.05988 9.4152 8.05988Z" fill="white"/>
<path d="M10.4054 7.03986C10.7304 7.03986 10.9954 6.77486 10.9954 6.44986C10.9954 6.12486 10.7304 5.85986 10.4054 5.85986C10.0804 5.85986 9.81543 6.12486 9.81543 6.44986C9.81543 6.77486 10.0804 7.03986 10.4054 7.03986Z" fill="white"/>
<path d="M19.2196 6.46978C18.9396 6.71478 18.6446 6.88979 18.2246 7.02979L18.3146 7.14979C18.7696 7.02979 19.0296 6.91479 19.2896 6.77479C19.5546 6.63479 19.7846 6.44978 19.9746 6.23978C20.1046 6.32478 20.2746 6.43978 20.4896 6.58478C20.7346 6.75478 21.0246 6.95478 21.3296 7.13978L21.5846 6.82978C21.2246 6.66478 20.2496 6.10979 20.1046 6.02979C20.1246 5.99479 20.1246 5.98978 20.1396 5.95478C20.1496 5.93478 20.1646 5.89978 20.1846 5.85478L20.2196 5.77979H21.4496V5.52979H18.5046V5.77979H19.6646C19.6246 5.97979 19.4796 6.23979 19.2196 6.46479V6.46978Z" fill="#1C1D1B"/>
<path d="M18.2402 7.25V7.495H19.6952V8.725H20.2202V7.495H21.7102V7.25H18.2402Z" fill="#1C1D1B"/>
<path d="M26.1203 5.33008H25.6553V8.75008H26.1203V5.33008Z" fill="#1C1D1B"/>
<path d="M24.2753 6.4351C24.3053 6.2751 24.3403 6.1101 24.3603 5.9951C24.3903 5.8301 24.4203 5.6251 24.4103 5.4751H23.8453C23.8903 5.9101 23.8103 6.4001 23.6603 6.8751C23.5053 7.3651 23.3053 7.7801 22.9453 8.1151C22.9453 8.1151 23.0853 8.1501 23.1803 8.1051C23.2703 8.0601 23.5353 7.8401 23.7303 7.5551C23.9553 7.2301 24.0403 7.0301 24.1503 6.7501C24.2803 6.9151 24.4103 7.1101 24.5503 7.3451C24.7253 7.6451 24.8503 7.9251 24.9603 8.2051L25.3053 7.8201C25.1353 7.4651 24.4203 6.5701 24.2753 6.4351Z" fill="#1C1D1B"/>
<path d="M14.6748 5.41016C14.1898 5.41016 13.7998 5.80016 13.7998 6.28516C13.7998 6.77016 14.1898 7.16016 14.6748 7.16016C15.1598 7.16016 15.5498 6.77016 15.5498 6.28516C15.5498 5.80016 15.1598 5.41016 14.6748 5.41016ZM14.6748 6.98016C14.4498 6.98016 14.2648 6.67016 14.2648 6.28516C14.2648 5.90016 14.4498 5.59016 14.6748 5.59016C14.8998 5.59016 15.0848 5.90016 15.0848 6.28516C15.0848 6.67016 14.8998 6.98016 14.6748 6.98016Z" fill="#1C1D1B"/>
<path d="M16.4252 5.33496V5.78496L15.7402 5.74996V6.00496H16.4252V6.53996L15.7402 6.50496V6.75996H16.4252V7.21996H16.9902V5.33496H16.4252Z" fill="#1C1D1B"/>
<path d="M15.625 7.5498C14.865 7.5498 14.25 7.8348 14.25 8.1798C14.25 8.5248 14.865 8.8098 15.625 8.8098C16.385 8.8098 17 8.5248 17 8.1798C17 7.8348 16.385 7.5498 15.625 7.5498ZM15.625 8.6248C15.13 8.6248 14.725 8.4248 14.725 8.1798C14.725 7.9348 15.13 7.7348 15.625 7.7348C16.12 7.7348 16.525 7.9348 16.525 8.1798C16.525 8.4248 16.125 8.6248 15.625 8.6248Z" fill="#1C1D1B"/>
</g>
<defs>
<clipPath id="clip0_6554_58838">
<rect width="114" height="72" fill="white"/>
</clipPath>
</defs>
</svg>
