<svg width="114" height="72" viewBox="0 0 114 72" fill="none" xmlns="http://www.w3.org/2000/svg">
<g clip-path="url(#clip0_6554_58534)">
<mask id="mask0_6554_58534" style="mask-type:luminance" maskUnits="userSpaceOnUse" x="0" y="0" width="114" height="72">
<path d="M114 68C114 70.21 112.21 72 110.005 72H3.995C1.79 72 0 70.21 0 68V4C0 1.79 1.79 0 3.995 0H110.005C112.21 0 114 1.79 114 4V68Z" fill="white"/>
</mask>
<g mask="url(#mask0_6554_58534)">
<path d="M113.92 -11.7202H-0.644531V83.9348H113.92V-11.7202Z" fill="#CAEFFF"/>
<path opacity="0.88" d="M59.3506 12.7899C59.3806 12.7899 59.4106 12.7899 59.4406 12.7899C59.4256 12.6899 59.4206 12.5899 59.4206 12.4899C59.4206 11.0699 60.7606 9.92488 62.4106 9.92488C63.7056 9.92488 64.8106 10.6349 65.2256 11.6249C65.5556 11.3849 65.9806 11.2399 66.4456 11.2399C66.7206 11.2399 66.9806 11.2899 67.2106 11.3799C67.2706 10.0399 68.5506 8.96988 70.1256 8.96988C70.2706 8.96988 70.4156 8.97988 70.5556 8.99488C70.5456 8.90488 70.5406 8.81988 70.5406 8.72988C70.5406 6.94988 72.2206 5.50488 74.2906 5.50488C75.8806 5.50488 77.2356 6.35488 77.7856 7.54988C78.1806 7.38488 78.6206 7.29488 79.0856 7.29488C80.7356 7.29488 82.0756 8.44488 82.0756 9.85988C82.0756 9.94988 82.0706 10.0349 82.0606 10.1249C82.3356 10.0699 82.6156 10.0399 82.9106 10.0399C84.9806 10.0399 86.6606 11.4849 86.6606 13.2649V16.7849H57.4756C57.4756 16.7849 57.4756 14.6149 57.4756 14.3949C57.4756 13.5049 58.3156 12.7849 59.3506 12.7849V12.7899Z" fill="url(#paint0_linear_6554_58534)"/>
<path d="M105.151 22.6696C104.691 22.5596 104.366 22.0996 104.501 21.6346C104.636 21.1996 104.906 21.0446 105.396 21.0646C104.556 20.8646 104.951 19.5496 105.751 19.6496C105.641 19.2146 105.641 18.8696 106.076 18.6246C106.591 18.3546 107.126 18.5896 107.286 19.0496C107.396 19.3496 107.221 19.6296 107.221 19.6296C107.221 19.6296 107.721 19.4596 107.991 19.8396C108.156 20.1646 108.016 20.6296 107.566 20.7346C108.026 20.6796 108.456 20.9346 108.596 21.3596C108.706 21.6846 108.541 22.0096 108.136 22.2546C108.896 22.5796 109.196 23.3146 108.681 24.0196C108.286 24.5996 107.436 24.7196 106.791 24.5296C106.106 24.7596 105.556 24.7646 104.936 24.2896C104.286 23.7996 104.341 22.9596 105.151 22.6596V22.6696Z" fill="#A8D65E"/>
<path d="M105.51 22.0349L105.415 21.8949L105.51 21.8299L105.68 21.9949L105.825 22.1699V22.6649L105.89 23.0749L106.08 23.5999L106.485 23.8249L106.505 23.2099L106.31 22.8449L106.235 22.3099L106.215 21.8999L106.33 21.9199L106.355 22.1499L106.415 22.3799C106.415 22.3799 106.46 22.6249 106.46 22.6449C106.46 22.6549 106.49 22.7149 106.52 22.7749V22.5949L106.54 22.1099L106.5 21.6949L106.525 21.3199L106.51 20.8149L106.74 20.9099L106.765 21.3599V21.8749L106.82 22.4299C106.86 22.3599 106.915 22.2549 106.915 22.2399C106.915 22.2199 106.96 21.9749 106.96 21.9749L107.02 21.7449L107.045 21.5149L107.16 21.4949L107.14 21.9049L107.065 22.4399L106.87 22.7999L106.98 23.2699L107.02 23.9799L107.43 23.6349L107.49 23.3299L107.515 23.0899V22.7699L107.55 22.5349L107.58 22.3399L107.71 22.3549L107.69 22.5499V22.7849L107.755 23.2749L107.71 23.8899L107.04 24.3999L107.105 26.5049H106.425L106.46 24.3449L105.865 23.7949L105.635 23.2499L105.585 22.8849L105.625 22.5749V22.2749L105.505 22.0449L105.51 22.0349Z" fill="#8E6650"/>
<path d="M102.371 21.715C102.831 21.605 103.156 21.145 103.021 20.68C102.886 20.245 102.616 20.09 102.126 20.11C102.966 19.91 102.571 18.595 101.771 18.695C101.881 18.26 101.881 17.915 101.446 17.67C100.931 17.4 100.396 17.635 100.236 18.095C100.126 18.395 100.301 18.675 100.301 18.675C100.301 18.675 99.8006 18.505 99.5306 18.885C99.3656 19.21 99.5056 19.675 99.9556 19.78C99.4956 19.725 99.0656 19.98 98.9256 20.405C98.8156 20.73 98.9806 21.055 99.3856 21.3C98.6256 21.625 98.3256 22.36 98.8406 23.065C99.2356 23.645 100.086 23.765 100.731 23.575C101.416 23.805 101.971 23.81 102.586 23.34C103.236 22.85 103.181 22.01 102.371 21.71V21.715Z" fill="#87A916"/>
<path d="M102.011 21.0799L102.106 20.9399L102.011 20.8749L101.841 21.0399L101.701 21.2149V21.7099L101.636 22.1199L101.446 22.6449L101.041 22.8699L101.021 22.2549L101.216 21.8899L101.291 21.3549L101.311 20.9449L101.196 20.9649L101.171 21.1949L101.111 21.4249C101.111 21.4249 101.066 21.6699 101.066 21.6899C101.066 21.6999 101.036 21.7599 101.006 21.8199V21.6399L100.986 21.1549L101.026 20.7399L101.001 20.3649L101.016 19.8599L100.786 19.9549L100.761 20.4049V20.9199L100.706 21.4749C100.666 21.4049 100.611 21.2999 100.611 21.2849C100.611 21.2649 100.566 21.0199 100.566 21.0199L100.506 20.7899L100.481 20.5599L100.366 20.5399L100.386 20.9499L100.461 21.4849L100.656 21.8449L100.546 22.3149L100.506 23.0249L100.096 22.6799L100.036 22.3749L100.011 22.1349V21.8149L99.9755 21.5799L99.9455 21.3849L99.8155 21.3999L99.8355 21.5949V21.8299L99.7705 22.3199L99.8155 22.9349L100.486 23.4449L100.421 25.9299H101.101L101.066 23.3899L101.661 22.8399L101.891 22.2949L101.936 21.9299L101.896 21.6199V21.3199L102.016 21.0899L102.011 21.0799Z" fill="#8E6650"/>
<path d="M118.43 25.7549H-0.644531V85.6349H113.73L118.43 25.7549Z" fill="#4EB034"/>
</g>
<path d="M20.6846 32.8498C20.6846 35.9748 19.4996 37.3748 17.7096 37.3748C15.9196 37.3748 14.7246 35.9748 14.7246 32.8498C14.7246 29.7248 15.9246 28.3248 17.7096 28.3248C19.4946 28.3248 20.6846 29.7248 20.6846 32.8498ZM16.5796 32.8498C16.5796 34.9848 17.0796 35.6498 17.7096 35.6498C18.3396 35.6498 18.8296 34.9848 18.8296 32.8498C18.8296 30.7148 18.3296 30.0498 17.7096 30.0498C17.0896 30.0498 16.5796 30.7298 16.5796 32.8498ZM23.6146 37.7048H21.7396V28.2148H23.6146V37.7048Z" fill="white"/>
<path d="M32.3152 37.2598H26.7002V28.4348H32.3152V37.2598ZM30.4402 35.5048V30.1898H28.5752V35.5048H30.4402ZM35.4452 37.7048H33.5702V28.2148H35.4452V37.7048Z" fill="white"/>
<path d="M46.4298 32.3602V33.7852H36.8398V32.3602H38.6048V31.4802C37.7948 31.1702 37.3048 30.6802 37.3048 29.9802C37.3048 28.6152 39.1348 28.0552 41.6348 28.0552C44.1348 28.0552 45.9648 28.6102 45.9648 29.9802C45.9648 30.6802 45.4748 31.1702 44.6648 31.4802V32.3602H46.4298ZM45.9648 35.9602C45.9648 37.3252 44.1898 37.8152 41.6348 37.8152C39.0798 37.8152 37.3048 37.3252 37.3048 35.9602C37.3048 34.5952 39.0798 34.1052 41.6348 34.1052C44.1898 34.1052 45.9648 34.5952 45.9648 35.9602ZM39.3048 29.9802C39.3048 30.3452 40.2148 30.5002 41.6348 30.5002C43.0548 30.5002 43.9648 30.3452 43.9648 29.9802C43.9648 29.6152 43.0548 29.4602 41.6348 29.4602C40.2148 29.4602 39.3048 29.6252 39.3048 29.9802ZM43.9648 35.9602C43.9648 35.6252 43.0098 35.5052 41.6348 35.5052C40.2598 35.5052 39.3048 35.6252 39.3048 35.9602C39.3048 36.2952 40.2598 36.4152 41.6348 36.4152C43.0098 36.4152 43.9648 36.3052 43.9648 35.9602ZM40.4598 32.3602H42.8148V31.8602C42.4498 31.8952 42.0498 31.9052 41.6398 31.9052C41.2298 31.9052 40.8298 31.8952 40.4648 31.8602V32.3602H40.4598Z" fill="white"/>
<path d="M17.5302 41.6848H18.6352V46.9798H15.3252V41.6848H16.4302V43.3598H17.5302V41.6848ZM17.5302 45.9448V44.3848H16.4302V45.9448H17.5302ZM21.1402 44.7248H20.4752V47.2448H19.3502V41.5498H20.4752V43.6298H21.1402V44.7248Z" fill="white"/>
<path d="M27.1252 46.0998H24.8252V47.3798H23.6652V46.0998H21.3652V45.0598H27.1202V46.0998H27.1252ZM21.6302 43.1248C21.6302 42.1648 22.6602 41.5298 24.2452 41.5298C25.8302 41.5298 26.8602 42.1648 26.8602 43.1248C26.8602 44.0848 25.8302 44.7198 24.2452 44.7198C22.6602 44.7198 21.6302 44.0848 21.6302 43.1248ZM22.8152 43.1248C22.8152 43.5048 23.4352 43.7098 24.2452 43.7098C25.0552 43.7098 25.6752 43.5048 25.6752 43.1248C25.6752 42.7448 25.0552 42.5398 24.2452 42.5398C23.4352 42.5398 22.8152 42.7398 22.8152 43.1248Z" fill="white"/>
<path d="M30.1098 44.32L31.7298 46.275L30.8548 46.97L29.7148 45.515C29.2548 46.45 28.5298 46.975 27.6748 46.985V45.88C28.4948 45.8 29.0198 44.765 29.0948 43.28H27.8048V42.24H29.0898V41.54H30.2398V42.24H31.4498V43.28H30.2248C30.2048 43.655 30.1648 44.005 30.1048 44.325L30.1098 44.32ZM33.1398 41.55V47.245H32.0148V44.825H31.0648V43.76H32.0148V41.55H33.1398Z" fill="white"/>
<path d="M34.0098 41.6848H37.2798V43.3948C37.2798 45.6748 35.9148 46.9748 34.0098 46.9848V45.9298C34.9348 45.9248 35.6498 45.5248 35.9748 44.6648H34.0098V43.6448H36.1598V42.7048H34.0098V41.6898V41.6848ZM39.8548 44.7248H39.1898V47.2448H38.0648V41.5498H39.1898V43.6298H39.8548V44.7248Z" fill="white"/>
<path d="M45.8448 47.0499H40.0898V45.9949H45.8448V47.0499ZM45.5298 42.7349H41.5548V44.1699H45.5948V45.2099H40.3998V41.6899H45.5298V42.7349Z" fill="white"/>
<path d="M14.5801 22.6698V22.0148C15.1451 21.9498 15.5151 21.3148 15.5301 20.5298L16.2401 20.5698C16.2401 20.8448 16.1951 21.1198 16.1051 21.3698L17.1201 22.1298L16.7001 22.6248L15.8251 21.9348C15.5301 22.3598 15.0951 22.6498 14.5801 22.6748V22.6698ZM15.5001 23.4498H17.9801V24.0848H14.7801V22.8348H15.5001V23.4498ZM18.3501 21.1848V21.8698H17.9301V23.1548H17.2251V20.5098H17.9301V21.1848H18.3501Z" fill="#034EA1"/>
<path d="M18.6398 22.6102V22.0152C19.0648 21.9802 19.3498 21.6852 19.4498 21.3502H18.6798V20.7802H19.4648V20.4502H20.1848V20.7802H20.9698V21.1902H21.3398V20.5102H22.0448V22.6302H21.3398V21.8152H20.8698V21.3452H20.1698C20.1548 21.4102 20.1348 21.4802 20.1098 21.5402L21.0698 22.0602L20.7498 22.5802L19.7998 22.0552C19.5248 22.3702 19.1198 22.5952 18.6348 22.6102H18.6398ZM22.0798 23.4052C22.0798 23.9552 21.3598 24.1302 20.4498 24.1302C19.5398 24.1302 18.8198 23.9552 18.8198 23.4052C18.8198 22.8552 19.5398 22.6802 20.4498 22.6802C21.3598 22.6802 22.0798 22.8552 22.0798 23.4052ZM21.3248 23.4052C21.3248 23.2652 20.9348 23.2202 20.4498 23.2202C19.9648 23.2202 19.5748 23.2602 19.5748 23.4052C19.5748 23.5502 19.9648 23.5902 20.4498 23.5902C20.9348 23.5902 21.3248 23.5502 21.3248 23.4052Z" fill="#034EA1"/>
<path d="M26.1852 21.9298V22.5348H24.7402V23.2048H24.0252V22.5348H22.5752V21.9298H26.1852ZM25.2502 21.1098H22.7702V20.5098H25.9652V21.7798H25.2452V21.1048L25.2502 21.1098ZM23.5052 23.4948H26.0202V24.0848H22.7852V22.8148H23.5052V23.4948Z" fill="#034EA1"/>
<path d="M9.97031 4.83014C9.92531 4.79014 9.87031 4.73514 9.81531 4.66514C9.75531 4.59514 9.72031 4.52514 9.70531 4.45514C9.68031 4.54514 9.64531 4.62514 9.58531 4.69514C9.53031 4.76514 9.47531 4.82514 9.42031 4.87014L9.32031 4.76514C9.44531 4.68014 9.53031 4.58014 9.57531 4.46514C9.62031 4.35514 9.64031 4.24014 9.64031 4.13014V4.03014H9.39531V3.90014H10.0203V4.03014H9.77531V4.13014C9.77531 4.23514 9.79531 4.34014 9.84031 4.44514C9.88031 4.55014 9.95531 4.63514 10.0603 4.70514L9.97531 4.82014L9.97031 4.83014ZM10.1903 5.09514V3.76514H10.3153V5.09514H10.1903Z" fill="#034EA1"/>
<path d="M11.2454 4.78977C11.2104 4.79477 11.1554 4.80477 11.0854 4.80977C11.0154 4.81977 10.9454 4.81977 10.8754 4.82477H10.5654V4.28977H10.9704V4.01977H10.5654V3.88977H11.0954V4.41477H10.6904V4.69977H10.9154C10.9704 4.69977 11.0304 4.68977 11.0954 4.68477C11.1604 4.67977 11.2104 4.66977 11.2504 4.66477V4.78977H11.2454ZM11.4354 5.08977H11.3104V3.75977H11.4354V5.08977Z" fill="#034EA1"/>
<path d="M12.2754 4.53977C12.2204 4.50977 12.1654 4.46477 12.1054 4.39977C12.0454 4.33477 12.0054 4.26977 11.9854 4.20977C11.9654 4.27977 11.9304 4.34977 11.8754 4.41477C11.8254 4.47977 11.7654 4.52977 11.6954 4.57477L11.6104 4.47477C11.7254 4.40477 11.8104 4.31977 11.8504 4.22977C11.8954 4.13977 11.9154 4.02977 11.9154 3.91477V3.80477H12.0454V3.91477C12.0454 4.01977 12.0704 4.11977 12.1154 4.21477C12.1654 4.30977 12.2404 4.38477 12.3404 4.43977L12.2604 4.54477L12.2754 4.53977ZM11.8404 5.06477V4.64977H11.9654V4.93477H12.6254V5.05977H11.8454L11.8404 5.06477ZM12.5854 3.76477V4.14977H12.7404V4.27477H12.5854V4.72477H12.4604V3.75977H12.5854V3.76477Z" fill="#034EA1"/>
<path d="M13.8602 4.53014C13.8152 4.52014 13.7602 4.49514 13.7002 4.44514C13.6402 4.40014 13.5952 4.35014 13.5702 4.30514C13.5502 4.35514 13.5102 4.40514 13.4502 4.46014C13.3852 4.51514 13.3302 4.55014 13.2802 4.56514L13.2002 4.45014C13.3302 4.39514 13.4152 4.33514 13.4502 4.26014C13.4852 4.18514 13.5002 4.14014 13.5002 4.11014H13.2702V3.99014H13.8602V4.11014H13.6302C13.6302 4.13514 13.6552 4.18514 13.7002 4.26014C13.7452 4.33014 13.8202 4.38514 13.9202 4.41014L13.8552 4.53014H13.8602ZM14.0902 4.67514C14.1602 4.72514 14.1952 4.78514 14.1952 4.86014C14.1952 4.93514 14.1602 4.99514 14.0902 5.04514C14.0202 5.09514 13.9202 5.11514 13.7852 5.11514C13.6502 5.11514 13.5502 5.09014 13.4802 5.04514C13.4102 4.99514 13.3752 4.93514 13.3752 4.86014C13.3752 4.78514 13.4102 4.72514 13.4802 4.67514C13.5502 4.62514 13.6502 4.60514 13.7852 4.60514C13.9202 4.60514 14.0252 4.63014 14.0902 4.67514ZM13.4002 3.88514V3.76514H13.7402V3.88514H13.4002ZM13.9802 4.75514C13.9302 4.73014 13.8652 4.71514 13.7852 4.71514C13.7052 4.71514 13.6352 4.73014 13.5902 4.75514C13.5402 4.78014 13.5202 4.81514 13.5202 4.85514C13.5202 4.89514 13.5452 4.93014 13.5902 4.95514C13.6352 4.98014 13.7052 4.99514 13.7852 4.99514C13.8652 4.99514 13.9352 4.98014 13.9802 4.95514C14.0302 4.93014 14.0502 4.89514 14.0502 4.85514C14.0502 4.81014 14.0252 4.77514 13.9802 4.75014V4.75514ZM14.0702 4.58514V4.26514H13.8552V4.14514H14.0702V3.76514H14.1952V4.58514H14.0702Z" fill="#034EA1"/>
<path d="M15.025 4.51002C14.985 4.49502 14.935 4.46502 14.88 4.42002C14.825 4.37502 14.78 4.32002 14.74 4.26002C14.72 4.32002 14.68 4.37502 14.62 4.43502C14.56 4.49002 14.505 4.53002 14.46 4.55002L14.375 4.44502C14.51 4.38002 14.595 4.30502 14.625 4.21502C14.66 4.13002 14.675 4.06002 14.675 4.01002V3.97502H14.445V3.85002H15.035V3.97502H14.805V4.01002C14.805 4.06002 14.82 4.12502 14.855 4.20502C14.89 4.28502 14.97 4.35002 15.09 4.40002L15.02 4.51502L15.025 4.51002ZM15.27 5.04002C15.2 5.09002 15.1 5.11502 14.965 5.11502C14.83 5.11502 14.73 5.09002 14.66 5.04002C14.59 4.99002 14.555 4.93002 14.555 4.85502C14.555 4.78002 14.59 4.71502 14.66 4.66502C14.73 4.61502 14.83 4.59002 14.965 4.59002C15.1 4.59002 15.2 4.61502 15.27 4.66502C15.34 4.71502 15.375 4.77502 15.375 4.85502C15.375 4.93502 15.34 4.99502 15.27 5.04002ZM15.165 4.75002C15.115 4.72502 15.05 4.71002 14.965 4.71002C14.88 4.71002 14.815 4.72502 14.765 4.75002C14.715 4.77502 14.69 4.81002 14.69 4.85502C14.69 4.90002 14.715 4.93002 14.765 4.96002C14.815 4.99002 14.885 5.00002 14.965 5.00002C15.045 5.00002 15.115 4.98502 15.165 4.96002C15.215 4.93502 15.24 4.90002 15.24 4.85502C15.24 4.81002 15.215 4.77502 15.165 4.75002ZM15.24 4.57002V4.20502H15.02V4.07502H15.24V3.77002H15.365V4.57502H15.24V4.57002Z" fill="#034EA1"/>
<path d="M15.5596 4.39482V4.26982H15.9646V4.04482H16.0946V4.26982H16.6396V4.39482H15.5596ZM16.5046 4.00482C16.4946 4.08982 16.4796 4.15982 16.4596 4.21982H16.3346C16.3646 4.08982 16.3796 3.99482 16.3846 3.93982H15.6846V3.81982H16.5196C16.5196 3.85982 16.5096 3.92482 16.4996 4.00982L16.5046 4.00482ZM15.6996 5.07982V4.73482H16.3646V4.62482H15.6996V4.50982H16.4996V4.84482H15.8346V4.96482H16.5196V5.07982H15.6946H15.6996Z" fill="#034EA1"/>
<path d="M13.7551 9.98021C13.7551 9.98021 13.7551 9.94022 13.7551 9.91522C13.7551 9.89522 13.7551 9.87521 13.7601 9.85521C13.7601 9.84021 13.7601 9.81022 13.7601 9.79522C13.7601 9.78522 13.7551 9.78022 13.7601 9.77022C13.7551 9.72022 13.7751 9.67021 13.7651 9.62521C13.7501 9.60521 13.7851 9.59521 13.7651 9.57521C13.7651 9.56521 13.7801 9.56522 13.7751 9.56022C13.7651 9.53522 13.7751 9.53022 13.7751 9.50522C13.8001 9.49022 13.7651 9.46521 13.7751 9.45021C13.7751 9.44021 13.7701 9.43021 13.7751 9.41521C13.7651 9.40521 13.7751 9.40022 13.7751 9.39022C13.7751 9.38022 13.7751 9.36521 13.7751 9.35521C13.7751 9.34021 13.7751 9.33021 13.7751 9.31521C13.7751 9.30021 13.7751 9.29021 13.7751 9.27521C13.7751 9.25021 13.7751 9.22021 13.7601 9.20021C13.7651 9.19021 13.7751 9.18022 13.7701 9.17022C13.7501 9.16022 13.7801 9.14022 13.7551 9.13022C13.7551 9.13022 13.7551 9.11021 13.7451 9.10521C13.7451 9.10521 13.7551 9.06522 13.7351 9.06022C13.7451 9.03522 13.7351 8.99522 13.7101 8.97522C13.7201 8.95022 13.7001 8.94021 13.6951 8.91521C13.6951 8.91521 13.6501 8.88521 13.6351 8.85521C13.6351 8.86021 13.6251 8.85521 13.6201 8.85521C13.6051 8.83021 13.5801 8.84521 13.5651 8.82521C13.5551 8.81521 13.5551 8.83021 13.5451 8.83021C13.5451 8.83021 13.5201 8.82521 13.5101 8.83021C13.5251 8.84021 13.5051 8.85021 13.5001 8.86521C13.5001 8.89021 13.4701 8.91022 13.4701 8.93522C13.5101 8.97022 13.4701 9.03022 13.4901 9.06022C13.4901 9.06022 13.4801 9.10021 13.4901 9.12021C13.5201 9.14021 13.5101 9.17021 13.5151 9.20021C13.5351 9.22021 13.5051 9.25022 13.5351 9.26022C13.5351 9.26022 13.5251 9.29522 13.5351 9.31022C13.5301 9.31522 13.5351 9.33022 13.5251 9.33522C13.5401 9.36522 13.5351 9.39522 13.5351 9.42022C13.5101 9.43022 13.5401 9.45022 13.5301 9.46022C13.5251 9.47022 13.5401 9.48521 13.5301 9.49021L13.5401 9.50522L13.5301 9.51522C13.5301 9.51522 13.5051 9.54022 13.5301 9.54522C13.5301 9.55522 13.5301 9.56021 13.5251 9.57521C13.5351 9.58521 13.5151 9.60021 13.5351 9.61521C13.5351 9.61521 13.5301 9.62521 13.5201 9.62521C13.5201 9.62521 13.5201 9.63522 13.5201 9.64022C13.5201 9.65022 13.5301 9.66522 13.5201 9.67522C13.5351 9.71022 13.5101 9.75521 13.5201 9.79021H13.5151L13.5251 9.80522C13.5251 9.82522 13.5001 9.85522 13.5151 9.87522C13.5151 9.88522 13.5151 9.89521 13.5051 9.90521C13.5051 9.92021 13.5001 9.94021 13.4901 9.95521C13.4901 9.95521 13.5001 9.97022 13.4951 9.97522C13.4951 9.98022 13.4901 9.99021 13.4851 9.99521C13.4851 10.0052 13.4851 10.0102 13.4801 10.0152C13.4801 10.0252 13.4701 10.0302 13.4701 10.0402C13.4601 10.0552 13.4601 10.0752 13.4451 10.0902C13.4301 10.1052 13.4051 10.1152 13.3851 10.1202C13.3701 10.1202 13.3551 10.1302 13.3401 10.1352C13.3301 10.1402 13.3151 10.1402 13.3001 10.1452C13.2901 10.1502 13.2751 10.1602 13.2651 10.1652C13.2401 10.1802 13.2251 10.2002 13.2051 10.2202C13.2201 10.1952 13.2451 10.2102 13.2651 10.1952C13.2701 10.1952 13.2901 10.1952 13.2901 10.2002C13.3101 10.2102 13.2901 10.2002 13.3051 10.2102C13.3351 10.1952 13.3851 10.2152 13.4101 10.2202C13.4551 10.2302 13.4801 10.2602 13.5201 10.2752C13.5551 10.2902 13.5951 10.2702 13.6251 10.2452C13.6501 10.2202 13.6701 10.1852 13.6951 10.1602C13.7051 10.1502 13.7101 10.1502 13.7151 10.1402C13.7251 10.1252 13.7401 10.1002 13.7401 10.0802C13.7401 10.0702 13.7401 10.0552 13.7401 10.0452C13.7401 10.0352 13.7451 10.0252 13.7501 10.0152C13.7501 9.99522 13.7501 9.97522 13.7551 9.96022V9.98021Z" fill="#8BC53F"/>
<path d="M13.1096 9.33496C13.1396 9.31996 13.1296 9.35996 13.1446 9.36996L13.1396 9.39996C13.1396 9.40996 13.1496 9.41996 13.1496 9.42996C13.1596 9.44996 13.1596 9.46996 13.1546 9.48996C13.1546 9.50996 13.1546 9.52996 13.1546 9.54996C13.1546 9.55996 13.1546 9.56996 13.1546 9.58496C13.1546 9.59496 13.1496 9.64496 13.1446 9.64996C13.1446 9.66496 13.1446 9.69496 13.1296 9.70496C13.1196 9.70496 13.1146 9.70496 13.1096 9.71496C13.1046 9.72496 13.1096 9.73496 13.1046 9.73996C13.1046 9.74996 13.0946 9.74996 13.0946 9.75996C13.0846 9.77996 13.0946 9.80996 13.0846 9.82496C13.0846 9.83496 13.0946 9.85996 13.1096 9.86996C13.1096 9.87996 13.1096 9.88996 13.1146 9.89996C13.1346 9.91996 13.1146 9.93996 13.1296 9.95496C13.1296 9.97996 13.1596 9.98496 13.1746 10.01C13.1996 10.01 13.2296 9.99996 13.2396 9.97496L13.2446 9.96496L13.2746 9.94996C13.2746 9.94996 13.2846 9.93496 13.2796 9.93496C13.2796 9.93496 13.2796 9.93496 13.2796 9.92996C13.2796 9.92996 13.2796 9.92996 13.2846 9.92996C13.2946 9.91996 13.3046 9.90496 13.3146 9.89496C13.3196 9.88496 13.3246 9.87496 13.3346 9.86496C13.3446 9.85496 13.3546 9.83996 13.3596 9.82496C13.3596 9.81996 13.3596 9.81496 13.3596 9.80496C13.3596 9.79496 13.3646 9.77996 13.3696 9.76996C13.3696 9.76496 13.3796 9.75996 13.3796 9.75496C13.3796 9.75496 13.3796 9.73996 13.3796 9.74496C13.4096 9.71496 13.3696 9.68496 13.3996 9.64996C13.3896 9.63996 13.3946 9.61996 13.3996 9.60496C13.4296 9.57996 13.3946 9.55996 13.4046 9.52996C13.3946 9.49496 13.4246 9.45496 13.4046 9.41996C13.4146 9.39496 13.4046 9.36996 13.4096 9.34996C13.4096 9.31996 13.4096 9.28996 13.4096 9.26496C13.4096 9.24996 13.4096 9.23496 13.4096 9.21996C13.4096 9.19996 13.4096 9.18496 13.4246 9.16996C13.4346 9.14996 13.4146 9.13496 13.4046 9.12496C13.4146 9.10996 13.3946 9.11496 13.3896 9.10996C13.3696 9.10996 13.3496 9.09996 13.3296 9.09496C13.3146 9.09496 13.2996 9.08496 13.2846 9.08496C13.2596 9.08496 13.2396 9.09496 13.2246 9.10996C13.2196 9.11496 13.2146 9.12496 13.2046 9.12996C13.2046 9.12996 13.1796 9.13996 13.1796 9.13496C13.1596 9.16496 13.1246 9.14496 13.1046 9.16996C13.0746 9.15996 13.0846 9.20496 13.0546 9.19996C13.0396 9.20996 13.0496 9.17996 13.0346 9.18996L13.0146 9.17996C13.0096 9.17996 12.9996 9.17996 12.9946 9.17996C12.9796 9.17996 12.9646 9.19496 12.9446 9.19996C12.9296 9.19996 12.9096 9.19996 12.8946 9.19996C12.8746 9.19996 12.8496 9.20496 12.8296 9.19996C12.8196 9.19996 12.8146 9.18996 12.8096 9.17996C12.8046 9.17496 12.7896 9.16996 12.7796 9.16996C12.7796 9.16996 12.7446 9.16996 12.7446 9.17496C12.7446 9.17496 12.7396 9.16496 12.7396 9.15996H12.7346C12.7346 9.15996 12.7296 9.16996 12.7246 9.16996C12.7046 9.16496 12.7046 9.13496 12.6796 9.13496C12.6646 9.14496 12.6546 9.12496 12.6396 9.12496C12.6146 9.13996 12.5846 9.12996 12.5646 9.14496C12.5646 9.15996 12.5546 9.16496 12.5446 9.17496C12.5446 9.18996 12.5296 9.19996 12.5446 9.20996C12.5196 9.20496 12.5146 9.22996 12.4946 9.23496C12.4746 9.22996 12.4696 9.24996 12.4546 9.25996C12.4646 9.27996 12.4396 9.28996 12.4296 9.29996C12.4246 9.33496 12.3846 9.34996 12.3646 9.37496C12.3596 9.37496 12.3446 9.38996 12.3396 9.38496C12.3396 9.38496 12.3296 9.38996 12.3346 9.39496C12.3196 9.40996 12.3046 9.42496 12.2846 9.43496C12.2746 9.44496 12.2646 9.44496 12.2546 9.45496C12.2446 9.46996 12.2396 9.47996 12.2246 9.49496C12.2146 9.50496 12.2196 9.51496 12.2146 9.52496C12.2146 9.53496 12.2046 9.52996 12.1996 9.53496C12.1896 9.53496 12.1996 9.53496 12.1896 9.54496C12.1896 9.55496 12.1796 9.56496 12.1796 9.57496C12.1696 9.60496 12.1646 9.65496 12.1946 9.67996L12.2196 9.70996C12.2196 9.70996 12.2546 9.70996 12.2746 9.72996C12.2896 9.72496 12.3146 9.71996 12.3346 9.72496H12.3396C12.3396 9.72496 12.3946 9.73496 12.4146 9.71996C12.4646 9.71996 12.5046 9.71996 12.5546 9.71496C12.5896 9.70996 12.6296 9.69996 12.6646 9.68496C12.6996 9.66996 12.7346 9.65496 12.7696 9.64496C12.7896 9.62996 12.8146 9.62496 12.8296 9.60996C12.8646 9.58996 12.8946 9.57496 12.9246 9.54996C12.9696 9.53496 12.9646 9.48496 13.0096 9.46996C13.0096 9.45996 13.0096 9.43996 13.0196 9.43996C13.0196 9.42496 13.0346 9.41996 13.0296 9.40496C13.0496 9.39496 13.0496 9.36496 13.0446 9.34996C13.0446 9.33996 13.0746 9.32496 13.0796 9.32496C13.0896 9.32496 13.0946 9.32496 13.1046 9.32496C13.1146 9.32496 13.1196 9.31496 13.1296 9.32496L13.1096 9.33496ZM12.6996 9.53996C12.6946 9.56496 12.6746 9.53996 12.6596 9.55496C12.5996 9.56996 12.5496 9.58996 12.4796 9.57496C12.4396 9.56996 12.4046 9.57996 12.3846 9.53996C12.3996 9.49996 12.4596 9.47496 12.4896 9.44496C12.5096 9.45496 12.5396 9.42496 12.5546 9.44496L12.5846 9.45496C12.5846 9.45496 12.6046 9.46996 12.6196 9.45496C12.6096 9.47496 12.6346 9.47496 12.6396 9.48496C12.6496 9.48996 12.6546 9.48496 12.6646 9.48496C12.6646 9.48496 12.6746 9.48496 12.6796 9.48496C12.6796 9.48496 12.6846 9.47996 12.6946 9.47996C12.6996 9.47996 12.7046 9.48996 12.7096 9.49496C12.7196 9.49996 12.7396 9.49496 12.7496 9.49496C12.7646 9.49496 12.7796 9.49496 12.7946 9.48996C12.7696 9.51996 12.7346 9.52996 12.6996 9.53496V9.53996Z" fill="#8BC53F"/>
<path d="M13.8852 10.3649C13.8852 10.3649 13.8852 10.3549 13.8852 10.3449C13.7902 10.3749 13.6952 10.4349 13.5952 10.4499C13.5602 10.4549 13.5452 10.4549 13.5102 10.4699C13.4802 10.4849 13.4502 10.4949 13.4152 10.4899C13.4002 10.4899 13.3352 10.4749 13.3252 10.4599C13.2802 10.4749 13.3102 10.4299 13.2702 10.4249C13.2702 10.4249 13.2752 10.4199 13.2752 10.4149C13.2752 10.4049 13.2602 10.3899 13.2452 10.3949C13.2452 10.3899 13.2552 10.3799 13.2502 10.3749H13.2402L13.2302 10.3649C13.2202 10.3499 13.2152 10.3399 13.2102 10.3249C13.2102 10.3099 13.2102 10.2949 13.2002 10.2849C13.2002 10.2699 13.1802 10.2649 13.1752 10.2549C13.1702 10.2449 13.1752 10.2349 13.1602 10.2299C13.1502 10.2249 13.1002 10.2149 13.1202 10.1949C13.0702 10.1749 13.0452 10.2799 13.0402 10.3849C13.0402 10.3849 13.0352 10.3949 13.0352 10.3999V10.4099C13.0352 10.4099 13.0352 10.4149 13.0352 10.4199C13.0352 10.4199 13.0352 10.4199 13.0352 10.4299C13.0352 10.4299 13.0352 10.4349 13.0352 10.4399C13.0352 10.4399 13.0352 10.4449 13.0352 10.4499C13.0352 10.4499 13.0352 10.4549 13.0352 10.4599C13.0352 10.4599 13.0352 10.4649 13.0352 10.4699C13.0352 10.4699 13.0352 10.4749 13.0352 10.4799C13.0352 10.4799 13.0352 10.4849 13.0352 10.4899C13.0352 10.5049 13.0452 10.5149 13.0352 10.5299C13.0352 10.5299 13.0352 10.5299 13.0402 10.5299C13.0402 10.5449 13.0402 10.5499 13.0402 10.5599C13.0502 10.5749 13.0552 10.5899 13.0602 10.6049C13.0602 10.6149 13.0702 10.6299 13.0802 10.6399C13.0802 10.6399 13.0802 10.6449 13.0852 10.6499C13.0952 10.6649 13.1002 10.6749 13.1102 10.6899C13.1152 10.6999 13.1452 10.7149 13.1452 10.7249C13.1552 10.7249 13.1602 10.7299 13.1702 10.7249C13.1752 10.7349 13.1902 10.7249 13.2002 10.7399C13.2302 10.7499 13.2602 10.7599 13.2952 10.7599C13.3102 10.7599 13.3252 10.7599 13.3452 10.7599C13.3502 10.7599 13.3552 10.7599 13.3552 10.7599C13.3602 10.7599 13.3652 10.7599 13.3702 10.7599C13.3702 10.7599 13.3752 10.7599 13.3802 10.7599C13.3802 10.7599 13.3802 10.7599 13.3852 10.7599C13.3852 10.7599 13.3952 10.7599 13.4002 10.7599C13.4002 10.7599 13.4102 10.7599 13.4152 10.7599C13.4152 10.7599 13.4252 10.7599 13.4302 10.7599C13.4302 10.7599 13.4302 10.7599 13.4302 10.7549C13.4402 10.7549 13.4452 10.7549 13.4502 10.7499C13.4502 10.7499 13.4502 10.7499 13.4502 10.7449C13.4802 10.7299 13.5102 10.7199 13.5402 10.6999C13.5452 10.6999 13.5552 10.6949 13.5652 10.6899V10.6849H13.5752C13.5752 10.6849 13.5752 10.6849 13.5802 10.6799C13.5802 10.6799 13.5952 10.6699 13.6052 10.6599C13.6152 10.6549 13.6252 10.6449 13.6352 10.6399C13.6352 10.6399 13.6452 10.6349 13.6452 10.6299C13.6452 10.6299 13.6452 10.6299 13.6502 10.6299C13.6502 10.6299 13.6502 10.6299 13.6552 10.6299C13.6552 10.6299 13.6652 10.6299 13.6702 10.6199C13.6702 10.6199 13.6802 10.6199 13.6852 10.6149C13.6852 10.6149 13.6952 10.6049 13.6952 10.6099V10.6049C13.7052 10.6049 13.7102 10.5949 13.7152 10.5899C13.7152 10.5849 13.7152 10.5799 13.7152 10.5749C13.7252 10.5749 13.7252 10.5749 13.7302 10.5649C13.7502 10.5449 13.7752 10.5299 13.7952 10.5099C13.7952 10.5099 13.8052 10.5049 13.8102 10.4999C13.8102 10.4999 13.8152 10.4999 13.8202 10.4949C13.8202 10.4949 13.8202 10.4949 13.8202 10.4899C13.8202 10.4899 13.8352 10.4699 13.8402 10.4599C13.8552 10.4399 13.8602 10.4199 13.8602 10.4049L13.8852 10.3649Z" fill="#8BC53F"/>
<path d="M10.5996 12.2298H10.6646C10.6646 12.2598 10.6746 12.2748 10.6946 12.2898C10.7146 12.2998 10.7396 12.3048 10.7746 12.3048C10.8046 12.3048 10.8246 12.2948 10.8446 12.2798C10.8646 12.2648 10.8746 12.2398 10.8746 12.2148C10.8746 12.1898 10.8646 12.1748 10.8496 12.1598C10.8346 12.1448 10.8096 12.1348 10.7746 12.1198L10.7496 12.1098C10.7146 12.0948 10.6846 12.0798 10.6696 12.0648C10.6546 12.0498 10.6396 12.0348 10.6296 12.0148C10.6196 11.9998 10.6196 11.9798 10.6146 11.9548C10.6146 11.9148 10.6246 11.8848 10.6546 11.8598C10.6796 11.8348 10.7246 11.8198 10.7796 11.8198C10.8296 11.8198 10.8696 11.8298 10.8896 11.8498C10.9096 11.8698 10.9196 11.8898 10.9196 11.9148H10.8546C10.8546 11.9148 10.8546 11.8948 10.8446 11.8848C10.8346 11.8748 10.8296 11.8698 10.8146 11.8698C10.7996 11.8698 10.7846 11.8648 10.7696 11.8648C10.7396 11.8648 10.7146 11.8748 10.6996 11.8898C10.6846 11.9048 10.6746 11.9248 10.6796 11.9448C10.6796 11.9598 10.6796 11.9698 10.6896 11.9848C10.6946 11.9948 10.7046 12.0048 10.7196 12.0148C10.7296 12.0198 10.7546 12.0298 10.7846 12.0448L10.8146 12.0598C10.8646 12.0798 10.8996 12.1048 10.9146 12.1248C10.9296 12.1498 10.9396 12.1748 10.9396 12.1998C10.9396 12.2248 10.9346 12.2498 10.9196 12.2748C10.9046 12.2998 10.8896 12.3148 10.8646 12.3298C10.8396 12.3448 10.8096 12.3498 10.7696 12.3498C10.7346 12.3498 10.6996 12.3498 10.6746 12.3348C10.6496 12.3248 10.6296 12.3098 10.6196 12.2898C10.6046 12.2698 10.5996 12.2448 10.5996 12.2248V12.2298Z" fill="#A6A8AB"/>
<path d="M11.0551 12.34H10.9951L11.1951 11.835H11.2601L11.4501 12.335H11.3801L11.3251 12.2H11.1051L11.0501 12.34H11.0551ZM11.1301 12.15H11.3151L11.2251 11.915L11.1301 12.15Z" fill="#A6A8AB"/>
<path d="M11.5903 12.3398H11.5303V11.8398H11.5953L11.8253 12.1948L11.8453 12.2348V12.1948V11.8398H11.9053V12.3398H11.8403L11.6103 11.9848L11.5903 11.9448V11.9848V12.3448V12.3398Z" fill="#A6A8AB"/>
<path d="M12.48 12.2251H12.54C12.54 12.2451 12.535 12.2651 12.52 12.2851C12.505 12.3051 12.485 12.3201 12.465 12.3301C12.44 12.3401 12.415 12.3451 12.38 12.3451C12.315 12.3451 12.265 12.3251 12.225 12.2801C12.185 12.2351 12.165 12.1701 12.165 12.0801C12.165 11.9951 12.185 11.9251 12.225 11.8801C12.265 11.8351 12.315 11.8151 12.38 11.8101C12.41 11.8101 12.44 11.8101 12.46 11.8251C12.485 11.8351 12.5 11.8501 12.515 11.8701C12.53 11.8901 12.535 11.9101 12.535 11.9301H12.475C12.475 11.9301 12.475 11.9001 12.465 11.8901C12.455 11.8801 12.445 11.8701 12.43 11.8651C12.415 11.8601 12.4 11.8551 12.38 11.8551C12.33 11.8551 12.29 11.8751 12.265 11.9151C12.24 11.9551 12.23 12.0051 12.23 12.0701C12.23 12.1351 12.245 12.1851 12.27 12.2251C12.295 12.2651 12.335 12.2851 12.385 12.2851C12.42 12.2851 12.445 12.2751 12.46 12.2651C12.475 12.2501 12.48 12.2351 12.48 12.2201V12.2251Z" fill="#A6A8AB"/>
<path d="M12.6949 12.335H12.6299V11.835H12.6949V12.06H12.9249V11.835H12.9899V12.335H12.9249V12.105H12.6949V12.335Z" fill="#A6A8AB"/>
<path d="M13.0997 12.3301V11.8301H13.3797V11.8851H13.1597V12.0451H13.3497V12.0951H13.1597V12.2801H13.3947V12.3351H13.0947L13.0997 12.3301Z" fill="#A6A8AB"/>
<path d="M13.6955 12.3449C13.6305 12.3449 13.5805 12.3199 13.5405 12.2749C13.5005 12.2299 13.4805 12.1649 13.4805 12.0799C13.4805 11.9949 13.5005 11.9299 13.5405 11.8849C13.5805 11.8399 13.6305 11.8149 13.6955 11.8149C13.7555 11.8149 13.8105 11.8399 13.8455 11.8849C13.8855 11.9299 13.9055 11.9949 13.9055 12.0799C13.9055 12.1649 13.8855 12.2299 13.8455 12.2799C13.8055 12.3249 13.7555 12.3499 13.6955 12.3499V12.3449ZM13.6955 12.2949C13.7405 12.2949 13.7755 12.2749 13.8005 12.2349C13.8255 12.1949 13.8405 12.1449 13.8405 12.0799C13.8405 12.0149 13.8255 11.9649 13.8005 11.9249C13.7755 11.8849 13.7405 11.8649 13.6955 11.8649C13.6505 11.8649 13.6155 11.8849 13.5905 11.9249C13.5655 11.9649 13.5505 12.0149 13.5505 12.0799C13.5505 12.1449 13.5655 12.1949 13.5905 12.2349C13.6155 12.2749 13.6505 12.2949 13.6955 12.2949Z" fill="#A6A8AB"/>
<path d="M14.06 12.3252H14V11.8252H14.065L14.295 12.1802L14.315 12.2202V12.1802V11.8252H14.375V12.3252H14.31L14.08 11.9702L14.06 11.9302V11.9702V12.3302V12.3252Z" fill="#A6A8AB"/>
<path d="M14.8301 12.3001C14.7751 12.3251 14.7251 12.3401 14.6801 12.3401C14.6301 12.3401 14.5901 12.3301 14.5601 12.3101C14.5301 12.2901 14.5051 12.2601 14.4851 12.2251C14.4651 12.1901 14.4551 12.1401 14.4551 12.0801C14.4551 12.0151 14.4651 11.9601 14.4801 11.9251C14.5001 11.8901 14.5201 11.8601 14.5551 11.8401C14.5851 11.8201 14.6251 11.8101 14.6701 11.8101C14.7001 11.8101 14.7251 11.8101 14.7501 11.8251C14.7751 11.8351 14.7951 11.8501 14.8101 11.8701C14.8251 11.8901 14.8301 11.9101 14.8351 11.9251H14.7751C14.7751 11.9251 14.7701 11.9001 14.7601 11.8901C14.7501 11.8801 14.7401 11.8751 14.7251 11.8651C14.7101 11.8601 14.6951 11.8551 14.6751 11.8551C14.6251 11.8551 14.5901 11.8751 14.5651 11.9151C14.5401 11.9551 14.5251 12.0051 14.5251 12.0701C14.5251 12.1351 14.5401 12.1901 14.5651 12.2251C14.5901 12.2651 14.6251 12.2851 14.6751 12.2851C14.7051 12.2851 14.7351 12.2801 14.7751 12.2651V12.1201H14.6601V12.0701H14.8301V12.2951V12.3001Z" fill="#A6A8AB"/>
<path d="M11.02 9.71514C11.02 9.71514 11.02 9.71514 11.02 9.71014C10.995 9.67514 10.915 9.59514 10.865 9.63514C10.845 9.65014 10.85 9.68014 10.845 9.69514C10.83 9.72014 10.815 9.73514 10.795 9.75514C10.78 9.77014 10.75 9.79014 10.74 9.81014C10.73 9.83514 10.73 9.86514 10.71 9.89014C10.7 9.90514 10.685 9.91514 10.675 9.93014C10.665 9.94014 10.66 9.95014 10.655 9.96014C10.645 9.98514 10.64 10.0101 10.625 10.0351C10.6 10.0751 10.55 10.0901 10.53 10.1251C10.515 10.1501 10.52 10.1601 10.515 10.1901C10.51 10.2301 10.47 10.2551 10.44 10.2851C10.425 10.3001 10.425 10.3251 10.415 10.3401C10.395 10.3701 10.355 10.3851 10.325 10.4051C10.29 10.4351 10.29 10.4751 10.28 10.5151C10.265 10.5951 10.235 10.6701 10.225 10.7501C10.22 10.8151 10.265 11.0101 10.225 11.0551C10.275 11.0851 10.28 11.1451 10.33 11.1701C10.315 11.2301 10.415 11.2801 10.405 11.3551C10.455 11.3751 10.535 11.4001 10.535 11.4401C10.62 11.4401 10.73 11.4951 10.82 11.4701C10.9 11.4101 11.06 11.5251 11.085 11.4001C11.085 11.4151 11.145 11.3751 11.145 11.3751C11.155 11.3751 11.17 11.3751 11.175 11.3751C11.195 11.3751 11.205 11.3601 11.22 11.3501C11.23 11.3451 11.245 11.3351 11.255 11.3301C11.285 11.3151 11.31 11.2951 11.335 11.2801C11.36 11.2601 11.39 11.2501 11.415 11.2351C11.435 11.2251 11.46 11.1851 11.485 11.1901C11.485 11.1901 11.485 11.1601 11.475 11.1601C11.535 11.1451 11.56 11.1051 11.585 11.0751C11.555 11.0451 11.595 11.0201 11.605 10.9901C11.66 10.9801 11.65 10.9601 11.68 10.9201C11.725 10.8851 11.73 10.8601 11.77 10.8151L11.845 10.7601C11.965 10.6651 11.965 10.5901 12.095 10.4951C12.095 10.4951 12.095 10.4751 12.095 10.4701C12.095 10.4601 12.11 10.4501 12.115 10.4451C12.13 10.4301 12.16 10.4201 12.17 10.4001C12.175 10.3851 12.175 10.3701 12.18 10.3551C12.195 10.3201 12.34 10.2101 12.235 10.1851C12.195 10.1751 12.19 10.2001 12.165 10.2151H12.155C12.13 10.2151 12.075 10.2101 12.07 10.2451C12.015 10.1901 11.945 10.2701 11.89 10.2201C11.835 10.1701 11.68 10.3401 11.66 10.3551C11.58 10.4301 11.445 10.5351 11.335 10.5751C11.28 10.5951 11.145 10.6201 11.09 10.6351C11.07 10.6401 11.05 10.6601 11.025 10.6601C10.995 10.6601 11.005 10.6501 10.99 10.6451C10.945 10.6301 10.905 10.6051 10.885 10.5651C10.865 10.5251 10.885 10.4901 10.865 10.4551C10.85 10.4151 10.81 10.3851 10.81 10.3451C10.81 10.2901 10.895 10.1801 10.885 10.1201C10.87 10.0301 10.895 9.92514 10.955 9.85514C10.975 9.83014 11.01 9.81014 11.025 9.78014C11.04 9.75514 11.035 9.73014 11.035 9.69514C11.035 9.63514 11.1 9.61014 11.115 9.55514C11.125 9.52014 11.13 9.52014 11.1 9.50014C11.06 9.47514 11 9.48514 10.96 9.49014C10.91 9.49014 10.905 9.49514 10.9 9.53514C10.895 9.56014 10.89 9.57014 10.9 9.59514" fill="#034EA1"/>
<path d="M13.1247 7.70483C13.1247 7.70483 13.1047 7.64983 13.0847 7.62983C13.0747 7.61983 13.0697 7.62483 13.0647 7.60483C13.0647 7.58983 13.0597 7.57483 13.0547 7.56483C13.0547 7.54983 13.0347 7.53483 13.0297 7.51483C13.0197 7.48983 13.0147 7.46483 12.9997 7.44483C12.9847 7.42483 12.9647 7.40983 12.9497 7.39483C12.9347 7.36983 12.9147 7.34983 12.8897 7.33483C12.8647 7.27983 12.7997 7.29983 12.7697 7.24483C12.7497 7.22483 12.7297 7.25483 12.7097 7.25483C12.6997 7.24483 12.6997 7.23483 12.6947 7.22483C12.6647 7.24483 12.6397 7.17483 12.6247 7.22483C12.6047 7.18983 12.5697 7.22483 12.5597 7.18983C12.5597 7.18983 12.5147 7.18983 12.4897 7.18983C12.4747 7.18983 12.4647 7.17983 12.4547 7.17983C12.4347 7.17983 12.4147 7.18483 12.3947 7.18483C12.3797 7.18483 12.3647 7.18483 12.3497 7.18483C12.3397 7.18483 12.3247 7.18983 12.3147 7.19483C12.2897 7.19483 12.2697 7.19483 12.2497 7.19483C12.2247 7.19983 12.1897 7.19483 12.1647 7.21483C12.1497 7.22483 12.1347 7.24483 12.1197 7.25983C12.0997 7.27483 12.0747 7.27483 12.0547 7.26483C12.0447 7.28483 12.0147 7.27983 11.9997 7.29983C11.9897 7.30983 11.9697 7.29983 11.9547 7.30483C11.9397 7.30983 11.9347 7.32483 11.9197 7.33983C11.9047 7.34983 11.8897 7.34983 11.8797 7.36983C11.8447 7.40983 11.7947 7.44483 11.7547 7.44983C11.7547 7.47983 11.7447 7.50983 11.7597 7.53983H11.7697C11.7847 7.56983 11.8347 7.59483 11.8747 7.58983L11.8897 7.59983H11.8947C11.8947 7.59983 11.9247 7.61983 11.9497 7.60983C11.9497 7.60983 12.0097 7.62983 12.0197 7.63483C12.0597 7.63983 12.2197 7.68983 12.1897 7.75983C12.1847 7.77483 12.1647 7.78983 12.1497 7.77983V7.81983C12.1497 7.81983 12.1297 7.85983 12.1047 7.85983C12.1047 7.85983 12.1047 7.86983 12.1047 7.87483C11.9647 8.05483 11.7947 8.21983 11.6397 8.39483C11.6297 8.38483 11.6197 8.39483 11.6197 8.36983C11.6197 8.35483 11.6197 8.33983 11.6197 8.32483C11.6197 8.29483 11.6347 8.26483 11.6297 8.23483C11.6297 8.19483 11.6247 8.15983 11.6247 8.11983C11.6347 8.10983 11.6347 8.08483 11.6347 8.07483C11.6347 8.06983 11.6347 8.05983 11.6347 8.05483C11.6347 8.05483 11.6247 8.03483 11.6247 8.03983C11.6397 7.93983 11.6097 7.84483 11.6147 7.74983C11.5947 7.69983 11.6147 7.64983 11.5847 7.60483C11.5847 7.53483 11.5447 7.42483 11.5497 7.34483C11.5047 7.29983 11.5247 7.25483 11.4947 7.20483C11.4947 7.16483 11.4847 7.12983 11.4797 7.08483C11.4597 7.05983 11.4497 7.03483 11.4247 7.01483C11.4097 7.00483 11.4047 6.99483 11.3997 6.97983C11.3947 6.95983 11.3797 6.95483 11.3647 6.94483C11.3597 6.93983 11.3597 6.94483 11.3497 6.93483C11.3447 6.92983 11.3397 6.92483 11.3347 6.91983C11.3297 6.91483 11.3197 6.90483 11.3147 6.89983C11.3097 6.88983 11.3047 6.87483 11.2947 6.86983C11.2847 6.85983 11.2697 6.86483 11.2747 6.83983C11.2697 6.83983 11.2547 6.83483 11.2547 6.83983L11.2247 6.80983C11.1997 6.81483 11.1747 6.79483 11.1497 6.78983C11.1397 6.78983 11.1297 6.78983 11.1197 6.77983C11.1097 6.77483 11.0997 6.76483 11.0897 6.75983H11.0797C11.0697 6.75983 11.0647 6.75483 11.0597 6.74983C11.0547 6.74983 11.0497 6.74483 11.0447 6.74483C11.0397 6.74483 11.0297 6.73983 11.0247 6.73483C11.0147 6.72983 11.0047 6.73483 10.9947 6.72983C10.9847 6.72983 10.9797 6.72483 10.9697 6.71983C10.9597 6.71983 10.9497 6.71983 10.9397 6.71983C10.9347 6.71983 10.9247 6.71983 10.9197 6.71983L10.9047 6.72483C10.8697 6.69983 10.8547 6.75983 10.8197 6.73983C10.8047 6.77483 10.7697 6.77483 10.7447 6.78983C10.7447 6.79983 10.7397 6.80983 10.7497 6.81483L10.7047 6.86983H10.7097L10.6947 6.88983L10.7047 6.89983V6.91983C10.7047 6.92983 10.7097 6.93483 10.7097 6.94483C10.7097 6.95983 10.6997 6.96983 10.6947 6.97983C10.6847 6.99483 10.6947 6.99983 10.6947 7.00483C10.6947 7.01483 10.6897 7.02483 10.6897 7.02983C10.6897 7.03983 10.6897 7.04983 10.6897 7.05483C10.6897 7.06983 10.6997 7.08483 10.7097 7.09983C10.7197 7.11483 10.7297 7.12983 10.7397 7.14483C10.7447 7.15983 10.7447 7.18483 10.7597 7.19983C10.7697 7.21483 10.7797 7.21983 10.7797 7.23983C10.7797 7.26483 10.7797 7.28983 10.7797 7.31983C10.7797 7.33983 10.7797 7.35483 10.7797 7.37483C10.7597 7.44483 10.7247 7.51483 10.7397 7.58483C10.7397 7.59983 10.7397 7.61483 10.7397 7.63483C10.7397 7.63983 10.7397 7.64983 10.7397 7.65483L10.7447 7.66983C10.7297 7.71483 10.7297 7.76983 10.6997 7.79983C10.7097 7.84483 10.6797 7.82483 10.6647 7.86483C10.6247 7.87483 10.5997 7.90483 10.5847 7.93483C10.5447 7.95983 10.4947 7.94983 10.4647 7.94483C10.4647 7.99483 10.4097 7.94483 10.3947 7.98483C10.3897 7.98483 10.3847 7.98483 10.3797 7.97483C10.3597 7.99983 10.3297 8.00483 10.3047 8.01983C10.2847 8.09483 10.2197 8.02483 10.1747 8.05483C10.1097 8.08483 10.0447 8.05483 9.99466 8.02483C9.95966 8.02983 9.88966 7.99983 9.87966 7.97983C9.87966 7.97983 9.85466 7.97483 9.84966 7.96983C9.83966 7.96983 9.82466 7.95983 9.81466 7.95483C9.79466 7.93983 9.77466 7.92483 9.76466 7.90483C9.74966 7.86983 9.76466 7.83983 9.76966 7.80483C9.76966 7.79483 9.77466 7.78483 9.78466 7.76983C9.79466 7.74983 9.79466 7.71483 9.80966 7.69983C9.83966 7.65983 9.86466 7.62483 9.88966 7.58483C9.89966 7.55983 9.91466 7.52983 9.92966 7.50483C9.94466 7.48483 9.96466 7.45983 9.96966 7.43483C9.96966 7.42983 9.96966 7.41983 9.96966 7.40983C9.96966 7.40983 9.97966 7.38983 9.97966 7.39983C9.96966 7.34983 10.0297 7.34483 10.0247 7.29983C10.0847 7.26483 10.0647 7.20483 10.0897 7.15983C10.1047 7.15483 10.1147 7.13983 10.1147 7.12483C10.1147 7.10483 10.1147 7.08983 10.1297 7.07483C10.1297 7.06483 10.1297 7.06483 10.1397 7.05483C10.1397 7.03983 10.1547 7.02483 10.1597 7.00983C10.1597 6.99483 10.1597 6.97983 10.1697 6.95983C10.1797 6.93983 10.1947 6.91983 10.2047 6.89483C10.2147 6.87483 10.2047 6.85483 10.2147 6.83483C10.2247 6.81483 10.2247 6.78983 10.2247 6.76483C10.2247 6.71483 10.2047 6.66983 10.1797 6.62483C10.1897 6.59483 10.1797 6.57483 10.1947 6.55483C10.1947 6.53983 10.1947 6.53483 10.1847 6.52483C10.1997 6.47483 10.1097 6.45483 10.1397 6.39483C10.1297 6.37483 10.1147 6.35483 10.0947 6.35483C10.0997 6.35483 10.0947 6.33483 10.0947 6.32983C10.0947 6.31983 10.0847 6.31483 10.0747 6.30983C10.0647 6.29483 10.0547 6.27483 10.0447 6.25983C10.0397 6.25483 10.0347 6.24483 10.0297 6.23983C10.0247 6.22983 10.0197 6.21983 10.0147 6.20983C10.0047 6.19983 9.99466 6.19483 9.99466 6.18483C9.99466 6.17483 9.99966 6.16983 9.99466 6.15983C9.98966 6.14983 9.97966 6.14483 9.97466 6.13983C9.95966 6.13483 9.95466 6.11983 9.94466 6.10983C9.93966 6.09983 9.93966 6.08483 9.92466 6.07983C9.87966 6.06483 9.85466 6.03983 9.82466 6.00983C9.82466 6.00983 9.81966 5.99983 9.81466 5.99483C9.81466 5.99483 9.81466 5.99483 9.80466 5.98983C9.79466 5.98483 9.78966 5.97983 9.77966 5.97483C9.76466 5.96483 9.74466 5.95483 9.73966 5.93983C9.68966 5.94483 9.68466 5.89983 9.63966 5.92983C9.62966 5.92483 9.61966 5.92983 9.61466 5.93483C9.60966 5.93483 9.60466 5.93983 9.59966 5.94483C9.59466 5.94483 9.58966 5.95483 9.58466 5.95483C9.57966 5.95983 9.57466 5.95983 9.57466 5.96483C9.57466 5.96983 9.57466 5.97483 9.57466 5.97983L9.56966 5.99483H9.56466C9.56466 5.99483 9.50966 6.02483 9.52466 6.05983C9.49966 6.07483 9.48466 6.12483 9.46466 6.13983L9.47466 6.14983C9.47466 6.14983 9.41966 6.21483 9.41966 6.22483C9.39966 6.25483 9.37966 6.27983 9.35966 6.30483C9.36966 6.31483 9.32966 6.34983 9.32466 6.35483C9.31466 6.36483 9.30466 6.36983 9.29966 6.38483C9.29966 6.39483 9.29466 6.40983 9.28966 6.41983C9.28966 6.42483 9.28466 6.42983 9.27966 6.43483L9.26466 6.43983C9.26466 6.48483 9.20966 6.52983 9.19966 6.56983H9.19466C9.19466 6.56983 9.19466 6.56983 9.19466 6.57483C9.19466 6.57983 9.19466 6.58483 9.19466 6.58983C9.19466 6.59983 9.18466 6.60483 9.18466 6.61983C9.18466 6.62983 9.18466 6.63983 9.18466 6.64983C9.18466 6.66483 9.18466 6.67983 9.17466 6.68983C9.16966 6.69983 9.15966 6.70483 9.15466 6.70983C9.13966 6.71983 9.13966 6.73483 9.13466 6.74983C9.13466 6.75983 9.12466 6.76483 9.11966 6.76983C9.10966 6.77983 9.11466 6.78983 9.10966 6.79983C9.10966 6.81483 9.09966 6.82483 9.09466 6.83483C9.08466 6.84983 9.06966 6.86483 9.06966 6.88483C9.04966 6.89483 9.05466 6.93483 9.04966 6.94983C9.02966 6.95983 9.00966 6.98483 8.98466 6.98483C8.95966 7.01483 8.94466 7.04483 8.90966 7.06483C8.92966 7.09483 8.87466 7.10483 8.88466 7.13983C8.86466 7.18483 8.83966 7.22983 8.81466 7.26483C8.75966 7.29983 8.74466 7.32483 8.70466 7.36983C8.66966 7.38983 8.65466 7.40483 8.61966 7.42483C8.61966 7.42483 8.60966 7.46483 8.60966 7.46983C8.60466 7.48483 8.59466 7.49983 8.58466 7.50983C8.56466 7.52983 8.54466 7.54983 8.51966 7.56483C8.50466 7.57983 8.48466 7.59983 8.47466 7.61483C8.45966 7.63483 8.45466 7.65483 8.43966 7.67483C8.42466 7.69483 8.40966 7.70983 8.38966 7.72483C8.37466 7.73983 8.34966 7.74983 8.33466 7.76483C8.24966 7.85483 8.15466 7.93483 8.05466 8.00483C8.00966 8.03483 7.96466 8.09983 7.90466 8.10983C7.85466 8.10983 7.84466 8.18483 7.78466 8.17983C7.77466 8.18983 7.73966 8.21983 7.71966 8.22483C7.70966 8.23983 7.67966 8.24983 7.66966 8.24983C7.65466 8.29483 7.61966 8.23983 7.60966 8.27983C7.57966 8.29983 7.54966 8.30983 7.51966 8.32483C7.48966 8.33483 7.45466 8.34483 7.41966 8.34983C7.34466 8.39483 7.29466 8.34483 7.23466 8.38983C7.23466 8.38983 7.19966 8.38483 7.19466 8.38483C7.18466 8.38483 7.16966 8.39483 7.15966 8.39483C7.15466 8.39483 7.14466 8.39983 7.13966 8.39983C7.11966 8.39983 7.09466 8.39983 7.08966 8.42483C7.08466 8.43983 7.10466 8.46983 7.11466 8.47983C7.11966 8.49483 7.12466 8.50983 7.13966 8.52483C7.14966 8.53483 7.15466 8.53983 7.15966 8.54983C7.15966 8.55983 7.15966 8.57483 7.16966 8.58483C7.16966 8.58483 7.16966 8.59483 7.17466 8.59983L7.18466 8.60983C7.18966 8.63483 7.22466 8.65983 7.20966 8.68983C7.25966 8.69983 7.22966 8.75483 7.25966 8.77983C7.27466 8.77483 7.26466 8.80483 7.27966 8.77983C7.28966 8.77983 7.30966 8.79483 7.30466 8.80983C7.34966 8.82483 7.36466 8.87983 7.38966 8.91483C7.42966 8.91483 7.47966 8.95983 7.50966 8.98483C7.50966 8.97483 7.52466 8.98483 7.53466 8.97983C7.53466 9.00983 7.57966 9.00983 7.55466 9.04483H7.59466C7.59466 9.04483 7.61466 9.06983 7.61966 9.07983C7.70966 9.09983 7.74966 9.16483 7.83966 9.14483C7.85466 9.18483 7.90966 9.15983 7.92966 9.15983C7.92966 9.15983 7.93966 9.16983 7.94466 9.16983C7.94966 9.16983 7.95466 9.16983 7.95966 9.16983C7.97466 9.16983 7.98966 9.16983 8.00466 9.16983C8.01466 9.16983 8.02466 9.17983 8.03966 9.18483C8.04966 9.18483 8.05966 9.18483 8.06966 9.18483C8.07966 9.18483 8.08966 9.17983 8.09466 9.17483C8.10466 9.17483 8.11466 9.16983 8.12466 9.16983C8.13466 9.16983 8.14466 9.16983 8.15466 9.16983C8.16966 9.16983 8.17966 9.16483 8.18966 9.15983C8.20466 9.15483 8.20966 9.14983 8.21466 9.13983C8.21966 9.12983 8.23466 9.11983 8.24466 9.10983C8.25466 9.10483 8.26966 9.09983 8.28466 9.09483C8.30466 9.08983 8.32466 9.08483 8.33966 9.07483C8.36966 9.05483 8.38466 9.02983 8.40466 9.00483C8.41966 8.98483 8.44466 8.91983 8.47966 8.92983C8.47966 8.92983 8.49466 8.91983 8.49966 8.91483C8.51466 8.90483 8.53466 8.90483 8.55466 8.89483C8.56466 8.88983 8.57466 8.89483 8.58466 8.88483C8.58966 8.88483 8.59966 8.87983 8.60466 8.87483C8.61466 8.86483 8.61966 8.85483 8.62966 8.84483C8.63966 8.83483 8.65466 8.81983 8.66466 8.80483C8.71966 8.79483 8.74466 8.73983 8.79966 8.73983C8.80966 8.73983 8.79966 8.72483 8.81466 8.72983C8.80466 8.69483 8.84966 8.67983 8.86466 8.65483H8.88966C8.89466 8.65483 8.90466 8.64983 8.90966 8.64483C8.92466 8.62983 8.93466 8.61983 8.94966 8.61483C8.95466 8.61483 8.96466 8.60483 8.96966 8.59983C8.98466 8.58983 9.00466 8.57983 9.02466 8.57483C9.05466 8.55983 9.06966 8.52983 9.09466 8.50983C9.11966 8.48483 9.14966 8.46983 9.18466 8.45483C9.18466 8.45483 9.19466 8.45483 9.19966 8.45483C9.20966 8.45483 9.21466 8.44483 9.21966 8.44483C9.22966 8.44483 9.23466 8.44483 9.24466 8.44483C9.24966 8.44483 9.25966 8.44483 9.26466 8.44483C9.27466 8.44483 9.28466 8.44483 9.29466 8.45483C9.30966 8.45983 9.31966 8.46983 9.32966 8.47983C9.35466 8.49983 9.38466 8.50483 9.41466 8.50983C9.44466 8.51483 9.46966 8.51983 9.49966 8.52983C9.52966 8.53983 9.55466 8.54983 9.57966 8.56983C9.57966 8.56983 9.58966 8.58483 9.59466 8.58483C9.59966 8.58483 9.59466 8.58483 9.60466 8.58483C9.61966 8.58483 9.63466 8.58483 9.64966 8.58483C9.65466 8.58483 9.65966 8.58483 9.66466 8.58483C9.67466 8.58483 9.68466 8.58483 9.68966 8.58483C9.70466 8.58483 9.72466 8.58483 9.73466 8.58983C9.74466 8.58983 9.75466 8.60483 9.76966 8.59983C9.78466 8.59983 9.79966 8.58483 9.81466 8.58483C9.82966 8.58483 9.84466 8.59483 9.85966 8.59983C9.87966 8.60483 9.89966 8.60483 9.91966 8.59983C9.93466 8.59983 9.95966 8.60483 9.96966 8.59983C9.98966 8.59483 10.0047 8.58983 10.0147 8.60483C10.0197 8.58983 10.0497 8.59483 10.0547 8.59983C10.0647 8.59983 10.0747 8.60983 10.0847 8.61483C10.0997 8.61483 10.1147 8.62483 10.1297 8.62983C10.1497 8.62983 10.1597 8.62983 10.1747 8.61983C10.1897 8.61983 10.1997 8.61983 10.2147 8.60983C10.2297 8.60483 10.2497 8.59983 10.2697 8.59483C10.2747 8.59483 10.3147 8.59483 10.3197 8.59483C10.3547 8.54483 10.4047 8.59483 10.4547 8.57483L10.4647 8.58483C10.4647 8.58483 10.4597 8.57983 10.4747 8.57483C10.4997 8.55983 10.5247 8.54483 10.5497 8.52483C10.5797 8.51483 10.6397 8.52483 10.6297 8.48983C10.6447 8.48983 10.6747 8.47483 10.6847 8.48983C10.6847 8.48983 10.7597 8.46983 10.7647 8.46483C10.7747 8.46483 10.7897 8.45483 10.7997 8.44483C10.8047 8.43983 10.8097 8.42983 10.8147 8.42483C10.8147 8.42483 10.8147 8.41483 10.8197 8.41483H10.8297C10.8447 8.40483 10.8597 8.38983 10.8697 8.36983C10.8797 8.35483 10.8797 8.32983 10.8947 8.31483C10.9047 8.29983 10.9147 8.29483 10.9247 8.27983C10.9347 8.26483 10.9447 8.24483 10.9647 8.23983C10.9697 8.25483 10.9647 8.26983 10.9647 8.28483C10.9647 8.29983 10.9697 8.31483 10.9647 8.33483C10.9647 8.34983 10.9547 8.36483 10.9497 8.37983C10.9497 8.39983 10.9497 8.41483 10.9497 8.43483C10.9497 8.45483 10.9397 8.46983 10.9397 8.48983C10.9397 8.52983 10.9047 8.59483 10.9147 8.62983C10.9047 8.63983 10.8997 8.65483 10.8997 8.66983C10.8997 8.68483 10.8897 8.69483 10.8847 8.70983C10.8847 8.71983 10.8847 8.72983 10.8847 8.73983C10.8847 8.75483 10.8797 8.76983 10.8847 8.78483C10.8847 8.80483 10.8847 8.81983 10.8847 8.83983C10.8797 8.85483 10.8747 8.86983 10.8697 8.88983C10.8697 8.90983 10.8697 8.92983 10.8697 8.94983C10.8697 8.96483 10.8497 8.98483 10.8447 8.99983C10.8347 9.01483 10.8247 9.03483 10.8197 9.04983C10.8197 9.07483 10.8197 9.09983 10.8147 9.11983C10.8097 9.13983 10.8047 9.15983 10.8047 9.17983C10.8047 9.19983 10.7897 9.22483 10.7947 9.24483C10.7847 9.27983 10.7597 9.32483 10.7647 9.35483C10.6847 9.39983 10.7547 9.45983 10.7297 9.53483C10.7047 9.58483 10.7947 9.56983 10.7697 9.62983C10.7697 9.62983 10.7697 9.63483 10.7697 9.63983C10.8347 9.68483 10.8997 9.72983 10.9647 9.76483C10.9697 9.74983 10.9797 9.73483 10.9897 9.72483C11.0197 9.71983 11.0297 9.68983 11.0597 9.69483C11.1047 9.69483 11.1547 9.69483 11.1947 9.66483C11.1947 9.62483 11.2497 9.61983 11.2447 9.57483C11.2697 9.56483 11.2897 9.53483 11.3097 9.54483C11.3347 9.55483 11.3447 9.48983 11.3547 9.47983C11.3597 9.46983 11.3697 9.46983 11.3747 9.45983C11.3797 9.44983 11.3797 9.43983 11.3897 9.42983C11.3947 9.42483 11.3997 9.41483 11.4047 9.40983C11.4097 9.40483 11.4147 9.39983 11.4247 9.39483C11.4497 9.37983 11.4397 9.36983 11.4447 9.34483C11.4447 9.33983 11.4497 9.33483 11.4547 9.32983C11.4597 9.31483 11.4597 9.30483 11.4697 9.28983C11.4797 9.27483 11.4847 9.25983 11.4897 9.24483C11.5047 9.16483 11.5247 9.08483 11.5447 9.00483C11.5447 8.98483 11.5747 8.73983 11.5897 8.73983C11.5897 8.71483 11.5897 8.65983 11.6197 8.63983C11.6197 8.61983 11.6297 8.57983 11.6047 8.56483C11.6197 8.54983 11.6147 8.50983 11.6297 8.51483C11.6197 8.47983 11.6297 8.46483 11.6547 8.43483C11.6797 8.39483 11.7247 8.37983 11.7497 8.33483C11.8497 8.25483 11.9547 8.18483 12.0597 8.09983C12.1297 8.07483 12.2047 7.98483 12.2897 7.97983C12.3197 7.96983 12.3697 7.99983 12.3897 7.97483L12.4047 7.99483C12.4047 7.99483 12.4647 8.01483 12.4747 8.02983H12.4847L12.4947 8.03483C12.4947 8.03483 12.5197 8.03483 12.5247 8.03983C12.5397 8.03983 12.5847 8.03983 12.5797 8.06483L12.5997 8.04483C12.6347 8.07483 12.6847 8.07983 12.7297 8.05983C12.7497 8.04983 12.7697 8.04483 12.7947 8.03483C12.8047 8.03483 12.8097 8.02483 12.8197 8.01983C12.8347 8.01483 12.8447 8.00983 12.8597 8.00983C12.8797 8.00983 12.8947 7.99483 12.9097 7.98483C12.9247 7.97483 12.9447 7.96983 12.9597 7.96483C12.9897 7.94983 13.0197 7.88983 13.0597 7.91983C13.0997 7.90983 13.0897 7.86483 13.1347 7.85483L13.1447 7.81483C13.1497 7.79983 13.1497 7.78983 13.1497 7.77483C13.1497 7.75483 13.1597 7.73983 13.1597 7.71983C13.1597 7.70483 13.1447 7.68483 13.1397 7.66983L13.1247 7.70483Z" fill="#034EA1"/>
<path d="M14.6049 6.66494C14.6049 6.66494 14.7199 7.33494 15.2299 7.80494C14.7399 7.66494 14.0599 7.29494 14.0249 6.54994C13.9949 5.96494 14.2549 5.73494 14.3399 5.56494C14.4699 6.01994 14.8549 6.09494 15.1499 6.54494C15.4099 6.93994 15.4799 7.65494 15.4899 7.82994C15.3299 7.71494 14.9449 7.33994 14.6049 6.66994V6.66494Z" fill="#034EA1"/>
<path d="M18.0096 10.2152C18.0096 10.2152 17.9746 10.1852 18.0046 10.1702C17.9896 10.1602 17.9946 10.1402 17.9896 10.1252C17.9896 10.0902 17.9746 10.0502 17.9796 10.0202C17.9646 9.96023 17.9496 9.93023 17.9696 9.88523H17.9596C17.9596 9.88523 17.9596 9.89023 17.9546 9.89523C17.9496 9.88523 17.9346 9.88523 17.9396 9.87023C17.9446 9.86523 17.9496 9.86023 17.9596 9.86023L17.9696 9.82023C17.9696 9.82023 17.9546 9.82023 17.9496 9.83023L17.9396 9.84523L17.9196 9.80523C17.9846 9.77523 17.9596 9.69523 17.9596 9.64023C17.9496 9.64523 17.9396 9.64023 17.9346 9.63023C17.9346 9.62023 17.9346 9.61023 17.9496 9.60523C17.9596 9.61023 17.9496 9.62023 17.9646 9.63023C17.9896 9.59023 17.9546 9.55523 17.9646 9.52023H17.9496C17.9496 9.52023 17.9596 9.49523 17.9496 9.47523C17.9396 9.46523 17.9396 9.45523 17.9246 9.45523C17.9246 9.44023 17.9346 9.43023 17.9496 9.42023C17.9496 9.42023 17.9546 9.42523 17.9596 9.42523L17.9496 9.41523C17.9496 9.41523 17.9496 9.40023 17.9596 9.39523L17.9446 9.38023C17.9446 9.38023 17.9396 9.36023 17.9496 9.36023L17.9596 9.37023C17.9596 9.37023 17.9696 9.33023 17.9596 9.31523C17.9446 9.30523 17.9446 9.27523 17.9196 9.27023C17.9946 9.25023 17.9196 9.21023 17.9546 9.16523C17.8846 9.16023 17.9796 9.12523 17.9596 9.09023C17.9446 9.10023 17.9246 9.10523 17.9096 9.09023C17.9246 9.06023 17.8946 8.99023 17.9396 8.99023H17.9296C17.9096 8.94023 17.9296 8.90023 17.9296 8.85523C17.9496 8.86523 17.9446 8.84023 17.9646 8.84023C17.9796 8.82023 17.9696 8.80023 17.9546 8.79023C17.9696 8.80023 17.9546 8.80523 17.9546 8.81523C17.9496 8.81523 17.9346 8.81523 17.9346 8.80523C17.9346 8.79023 17.9396 8.77523 17.9546 8.76523C17.9546 8.76523 17.9596 8.76523 17.9646 8.77023C17.9346 8.74023 18.0046 8.77023 17.9846 8.72023C17.9696 8.72023 17.9696 8.72523 17.9596 8.74023C17.9596 8.74523 17.9446 8.72023 17.9446 8.72023C17.9446 8.71023 17.9496 8.69023 17.9546 8.68023C17.9546 8.65023 17.9696 8.61023 17.9646 8.58523C17.9646 8.57023 17.9646 8.56523 17.9646 8.55523C17.9646 8.55523 17.9396 8.54523 17.9396 8.53523C17.9446 8.52023 17.9596 8.50023 17.9746 8.49523H17.9646C17.9596 8.49523 17.9496 8.49523 17.9496 8.49023C17.9546 8.49023 17.9546 8.48023 17.9546 8.47523C17.9646 8.47523 17.9696 8.45023 17.9896 8.45523V8.44523C17.9596 8.44523 17.9846 8.36023 17.9546 8.35523C17.9996 8.32023 17.9646 8.26023 17.9796 8.21523C17.9746 8.21523 17.9696 8.21523 17.9646 8.22523C17.9496 8.20023 17.9796 8.20523 17.9896 8.19023L17.9746 8.17023L17.9846 8.16023C17.9846 8.16023 17.9846 8.04023 17.9846 8.03023C17.9846 7.99523 17.9746 7.96523 17.9646 7.93023C17.9596 7.90523 17.9596 7.86523 17.9496 7.84023C17.9346 7.83523 17.9396 7.87023 17.9196 7.84523C17.9196 7.83523 17.9296 7.83523 17.9346 7.83023C17.9446 7.80523 17.9246 7.78523 17.9096 7.77523H17.9146C17.9146 7.77523 17.9046 7.75523 17.9046 7.75023C17.9046 7.72523 17.9146 7.70023 17.8846 7.69523C17.9096 7.63023 17.7946 7.57523 17.8046 7.53023C17.7846 7.50023 17.7646 7.47523 17.7446 7.44523C17.7446 7.44523 17.7346 7.43523 17.7396 7.43523L17.7196 7.44523C17.7246 7.40523 17.6696 7.39023 17.6746 7.34523C17.5996 7.29523 17.5096 7.20023 17.4196 7.18523C17.3196 7.18023 17.0796 7.28523 17.1096 7.42023C17.1246 7.48523 17.1296 7.56523 17.1546 7.62523C17.1646 7.65023 17.1946 7.65523 17.2046 7.68023C17.2096 7.70023 17.2046 7.73523 17.2096 7.75023C17.2246 7.78523 17.2346 7.82023 17.2246 7.85523C17.2396 7.93523 17.2346 7.99523 17.2246 8.06523C17.2546 8.11023 17.2596 8.16023 17.2446 8.21023C17.2746 8.28023 17.2346 8.30523 17.2396 8.36523C17.2396 8.38523 17.2246 8.38023 17.2396 8.39523C17.2246 8.41023 17.2396 8.42523 17.2296 8.44023C17.2296 8.45523 17.2246 8.46523 17.2196 8.48023C17.2196 8.49023 17.2196 8.50523 17.2146 8.51523C17.2096 8.54023 17.2296 8.56523 17.1996 8.57523C17.1896 8.57523 17.1796 8.57523 17.1696 8.57523C17.1596 8.57523 17.1596 8.59023 17.1496 8.59523C17.1296 8.60523 17.0296 8.61023 17.0246 8.62523C17.0096 8.66523 16.9396 8.66523 16.9096 8.68023C16.8946 8.69023 16.8696 8.72023 16.8446 8.74523C16.8346 8.74523 16.8246 8.76023 16.8146 8.75023C16.8146 8.76523 16.7896 8.75523 16.7846 8.76523C16.7846 8.77023 16.7746 8.76523 16.7846 8.77023C16.7846 8.77023 16.7846 8.78023 16.7746 8.77523C16.7696 8.79023 16.7496 8.79523 16.7346 8.80523C16.7346 8.82023 16.7196 8.83523 16.7096 8.84523C16.7096 8.84523 16.7096 8.84523 16.7096 8.85523C16.6996 8.85523 16.6996 8.87023 16.6896 8.86023V8.87523C16.6896 8.87523 16.6796 8.88023 16.6746 8.88523C16.6746 8.90023 16.6596 8.91023 16.6546 8.92523C16.6546 8.92523 16.6496 8.92523 16.6446 8.92523C16.6446 8.94023 16.6196 8.92523 16.6146 8.94023C16.6146 8.94523 16.6046 8.94023 16.6146 8.95023C16.6146 8.95023 16.6146 8.96023 16.6046 8.95523C16.5996 8.97023 16.5796 8.97523 16.5646 8.98523C16.5646 9.00023 16.5496 9.01523 16.5396 9.02523C16.5396 9.02523 16.5396 9.02523 16.5396 9.03523C16.5296 9.03523 16.5296 9.05023 16.5196 9.04023V9.05523C16.5196 9.05523 16.5096 9.06023 16.5046 9.06523C16.4996 9.08523 16.4846 9.10023 16.4796 9.11523C16.4446 9.15023 16.4146 9.19023 16.3746 9.22523C16.3496 9.25023 16.3596 9.28023 16.3346 9.28023C16.3296 9.28023 16.3346 9.27023 16.3296 9.27523C16.3296 9.27523 16.3296 9.26523 16.3296 9.26023C16.3196 9.24523 16.3296 9.23023 16.3296 9.21523C16.3196 9.20523 16.3146 9.18523 16.3096 9.17023C16.3096 9.17023 16.3096 9.17023 16.3046 9.17023C16.3096 9.16023 16.2946 9.15523 16.3096 9.15023L16.2996 9.14023C16.2996 9.14023 16.2996 9.13023 16.2996 9.12523C16.2796 9.10523 16.2796 9.07523 16.2496 9.06523C16.2496 9.05023 16.2346 9.05023 16.2296 9.04523C16.2296 9.04523 16.2296 9.04523 16.2296 9.04023C16.2296 9.04023 16.2196 9.04023 16.2196 9.03023C16.2196 9.03023 16.2196 9.02523 16.2096 9.02023C16.2096 9.02023 16.2046 9.01523 16.1996 9.01523C16.1996 9.01523 16.1946 9.01523 16.1896 9.01523C16.1896 9.01523 16.1596 8.99023 16.1396 8.97523C16.0996 8.97023 16.0446 8.94523 16.0146 8.95523C15.9946 8.94023 15.9646 8.95523 15.9396 8.95523C15.8846 8.93523 15.8596 9.00523 15.8146 8.97023C15.8346 8.94523 15.8796 8.87023 15.8996 8.85023C15.8996 8.80523 15.9546 8.78023 15.9546 8.74023C15.9546 8.72023 16.0046 8.69523 15.9746 8.67523C15.9946 8.65023 16.0346 8.59523 16.0046 8.57523C16.0446 8.53023 16.0846 8.40023 16.0796 8.33523C16.0696 8.30523 16.0546 8.28023 16.0396 8.26023C16.0396 8.26023 16.0396 8.26023 16.0446 8.25523C16.0296 8.22023 16.0046 8.17523 15.9746 8.16523C15.9346 8.15023 15.9546 8.06523 15.8996 8.08023C15.9046 8.08023 15.8796 8.06523 15.8796 8.06523C15.8796 8.06523 15.8796 8.05523 15.8746 8.05523C15.8696 8.05023 15.8646 8.04523 15.8546 8.04023C15.8546 8.04023 15.8446 8.03523 15.8396 8.03023C15.8296 8.02523 15.8096 8.03023 15.7946 8.02523C15.6546 7.95523 15.4296 7.92523 15.2846 7.90523C15.2746 7.90523 15.2696 7.90023 15.2596 7.89523H15.2496C15.2496 7.89523 15.2396 7.89523 15.2346 7.89523C15.2246 7.89523 15.2196 7.88523 15.2046 7.88523C15.1996 7.88523 15.1896 7.88523 15.1846 7.88523C15.1696 7.88523 15.1096 7.86523 15.1046 7.88523C15.0196 7.88023 14.9346 7.87523 14.8646 7.88023C14.7696 7.89523 14.6796 7.87523 14.5946 7.88523C14.5796 7.88523 14.5546 7.90523 14.5446 7.88523C14.5196 7.88523 14.4946 7.87523 14.4746 7.89523C14.3796 7.89523 14.2946 7.92523 14.2046 7.89523C14.1896 7.92023 14.1696 7.90523 14.1446 7.90523C14.1096 7.90523 14.1096 7.91523 14.0846 7.92023C14.0596 7.92523 13.8546 7.93523 13.8046 7.94523C13.7846 7.94523 13.7746 7.94523 13.7646 7.94523C13.7646 7.94523 13.7546 7.95523 13.7496 7.96023C13.7496 7.96023 13.7446 7.97023 13.7346 7.97523C13.7346 7.98023 13.7346 7.98523 13.7346 7.99023C13.7346 7.99023 13.7346 7.99023 13.7346 7.99523C13.7346 8.00523 13.7346 8.02023 13.7246 8.03023C13.7246 8.03023 13.7246 8.03523 13.7246 8.04023C13.7246 8.04023 13.7246 8.05023 13.7246 8.05523C13.7246 8.05523 13.7246 8.05523 13.7246 8.06023C13.7246 8.06023 13.7246 8.06023 13.7246 8.06523C13.7246 8.06523 13.7246 8.07023 13.7246 8.07523C13.7246 8.07523 13.7246 8.08023 13.7246 8.08523C13.7246 8.08523 13.7246 8.08523 13.7246 8.09023C13.7246 8.09523 13.7246 8.10023 13.7246 8.10523C13.7246 8.10523 13.7246 8.11023 13.7246 8.11523C13.7246 8.11523 13.7246 8.12523 13.7246 8.12023C13.7246 8.12023 13.7246 8.13023 13.7246 8.14023C13.7396 8.15023 13.7246 8.17023 13.7346 8.18023C13.7346 8.18023 13.7346 8.18523 13.7346 8.19023C13.7396 8.19023 13.7396 8.20023 13.7496 8.20523C13.7496 8.22023 13.7496 8.23523 13.7596 8.24523C13.7596 8.25023 13.7696 8.25523 13.7696 8.26023C13.7696 8.26023 13.7596 8.27023 13.7546 8.27523C13.7546 8.27523 13.7546 8.27523 13.7546 8.28023C13.7546 8.28023 13.7546 8.28023 13.7546 8.29023C13.7546 8.29023 13.7546 8.29023 13.7546 8.29523C13.7546 8.29523 13.7546 8.29523 13.7546 8.30023C13.7546 8.30023 13.7546 8.30523 13.7596 8.31023C13.7596 8.31023 13.7596 8.31523 13.7596 8.32023C13.7596 8.32023 13.7596 8.32023 13.7596 8.32523C13.7596 8.32523 13.7596 8.32523 13.7596 8.33023C13.7596 8.34023 13.7746 8.35023 13.7746 8.36023C13.7746 8.36023 13.7746 8.36523 13.7746 8.37023C13.7746 8.37023 13.7746 8.37023 13.7796 8.37523L13.7896 8.38523C13.7946 8.39023 13.7996 8.39523 13.8046 8.40523C13.8046 8.40523 13.8196 8.42523 13.8196 8.42023C13.8196 8.42023 13.8296 8.44023 13.8346 8.44023C13.8346 8.45023 13.8396 8.45023 13.8446 8.45523C13.8446 8.45523 13.8446 8.45523 13.8496 8.45523C13.8496 8.45523 13.8546 8.45523 13.8596 8.45523C13.8696 8.47523 13.8746 8.49023 13.8796 8.49523C13.9096 8.49523 13.8896 8.52523 13.9096 8.53523C13.9196 8.54523 13.9296 8.55523 13.9446 8.55523C13.9696 8.51023 14.0496 8.54523 14.0846 8.53523C14.1346 8.53523 14.1896 8.54523 14.2296 8.52023C14.2546 8.54523 14.2846 8.48523 14.3246 8.50023C14.3546 8.46523 14.4096 8.49023 14.4446 8.48023C14.4696 8.45523 14.5096 8.46023 14.5296 8.44523C14.5396 8.44523 14.5496 8.43523 14.5546 8.45523L14.5846 8.43023C14.6446 8.43523 14.7046 8.41523 14.7646 8.41023C14.7796 8.40023 14.7946 8.42023 14.8096 8.40023C14.8246 8.41023 14.8446 8.39023 14.8646 8.40023C14.9346 8.34523 15.0546 8.38023 15.1296 8.38023C15.1296 8.37023 15.1396 8.37023 15.1396 8.36523C15.1646 8.39023 15.1996 8.35523 15.2296 8.37023C15.2346 8.37023 15.2496 8.36023 15.2546 8.37023C15.3496 8.39523 15.3896 8.38023 15.4196 8.41023C15.4296 8.42523 15.4396 8.45023 15.4596 8.46523C15.4446 8.58523 15.3446 8.69523 15.2796 8.79523C15.2746 8.82023 15.2796 8.85523 15.2546 8.86023C15.2496 8.88523 15.1846 8.98023 15.0996 9.05523C15.0346 9.11523 14.9396 9.18523 14.9296 9.20523C14.9296 9.22523 14.8446 9.28523 14.7496 9.38523C14.6896 9.44523 14.6346 9.50523 14.5896 9.55523C14.5846 9.55523 14.5746 9.57023 14.5696 9.56523V9.57523C14.5546 9.57523 14.5396 9.59023 14.5296 9.60523C14.5296 9.61523 14.5246 9.62023 14.5196 9.63023V9.64023C14.5196 9.64523 14.5146 9.65023 14.5096 9.65523C14.5096 9.66023 14.5046 9.67023 14.4996 9.67523C14.4996 9.68023 14.4946 9.68523 14.4896 9.69523C14.4896 9.70523 14.4896 9.73023 14.4746 9.73523C14.4696 9.75023 14.4796 9.76023 14.4746 9.77523C14.4746 9.77523 14.4796 9.79023 14.4846 9.79023C14.4846 9.79023 14.4896 9.80023 14.4946 9.80023C14.4946 9.80023 14.4946 9.80023 14.4946 9.80523C14.4946 9.80523 14.4946 9.81023 14.4946 9.81523C14.5146 9.87523 14.5846 9.84023 14.6246 9.88023C14.6346 9.88023 14.6496 9.87023 14.6596 9.86523C14.6596 9.86523 14.6696 9.86523 14.6746 9.86023C14.6846 9.86023 14.6896 9.86023 14.6946 9.86023C14.6946 9.86023 14.7046 9.86023 14.7046 9.86523H14.7146C14.7146 9.86523 14.7146 9.86023 14.7146 9.85523C14.7396 9.86023 14.7546 9.83523 14.7746 9.83023C14.7996 9.87023 14.8046 9.80023 14.8346 9.83023C14.8346 9.83023 14.8446 9.82023 14.8646 9.81023C14.8646 9.81023 14.8746 9.81023 14.8796 9.81023C14.8896 9.81023 14.8946 9.81023 14.8996 9.80023C14.8996 9.79523 14.8996 9.79023 14.9046 9.78523C14.9046 9.78523 14.9096 9.79023 14.9146 9.78523C14.9196 9.78523 14.9246 9.77523 14.9296 9.77023C14.9296 9.76523 14.9396 9.76023 14.9496 9.75523C14.9546 9.75523 15.0096 9.75023 15.0146 9.74523C15.0146 9.74023 15.0196 9.73023 15.0296 9.72523C15.0296 9.72523 15.0396 9.72023 15.0446 9.71523C15.0446 9.71523 15.0496 9.71523 15.0546 9.71023C15.0596 9.70523 15.0646 9.72023 15.0696 9.71023C15.0796 9.70023 15.0946 9.70023 15.1046 9.69023C15.1096 9.68523 15.1096 9.68023 15.1146 9.67023C15.1146 9.66023 15.1296 9.65523 15.1396 9.65023C15.1446 9.65023 15.1496 9.64023 15.1546 9.63523C15.1646 9.63023 15.1746 9.63023 15.1846 9.62523C15.1946 9.62023 15.1996 9.61023 15.2046 9.59523C15.2146 9.57523 15.2246 9.56023 15.2346 9.54523C15.2446 9.53523 15.2896 9.53023 15.2896 9.51523C15.3396 9.51523 15.3296 9.46023 15.3796 9.46023C15.3796 9.44523 15.3996 9.43023 15.4096 9.42523C15.4546 9.43023 15.4396 9.38523 15.4746 9.37523C15.4746 9.37523 15.4796 9.34023 15.4846 9.34023H15.4946C15.4996 9.34023 15.4996 9.34023 15.5046 9.34023C15.5096 9.34023 15.5146 9.34023 15.5196 9.33023C15.5196 9.32523 15.5196 9.32023 15.5296 9.31523C15.5296 9.31523 15.5346 9.31523 15.5396 9.31023C15.5396 9.31023 15.5396 9.30023 15.5446 9.30023C15.5496 9.29023 15.5446 9.29523 15.5446 9.28523C15.5696 9.27023 15.5596 9.23023 15.5846 9.22523C15.6096 9.20523 15.6396 9.15523 15.6746 9.13023C15.6846 9.13023 15.6996 9.13023 15.6946 9.11023C15.6946 9.11023 15.7046 9.10023 15.7096 9.10023H15.7246C15.7246 9.10023 15.7246 9.09523 15.7296 9.09023C15.7296 9.09023 15.7396 9.09023 15.7446 9.09023H15.7496C15.7496 9.09023 15.7596 9.09023 15.7646 9.09023C15.7646 9.09023 15.7696 9.09023 15.7746 9.09023C15.7846 9.09023 15.7946 9.09523 15.8046 9.10023C15.8996 9.16023 15.9696 9.18523 15.9446 9.36023C15.9296 9.40523 15.9346 9.49523 15.8896 9.53023C15.8996 9.54023 15.8896 9.55523 15.8896 9.57023C15.8796 9.57023 15.8746 9.58523 15.8646 9.58023C15.8696 9.60023 15.7946 9.71523 15.7896 9.73023C15.7896 9.75523 15.7646 9.77023 15.7796 9.79523C15.7646 9.85023 15.7596 9.86523 15.8096 9.92023C15.8546 9.93023 15.9696 9.90023 15.9946 9.86023C16.0146 9.86023 16.0246 9.86023 16.0346 9.84023C16.0996 9.83023 16.1996 9.65523 16.2346 9.59523C16.2846 9.58523 16.2796 9.50523 16.3046 9.47523C16.3496 9.44023 16.3446 9.43523 16.3946 9.40023C16.5046 9.34023 16.5746 9.26023 16.6946 9.21023C16.7546 9.14023 16.8496 9.14523 16.9196 9.09523C16.9796 9.08023 17.0346 9.03523 17.0946 9.01523C17.1196 9.01023 17.1146 9.06523 17.1346 9.03023C17.1646 9.06523 17.1346 9.11023 17.1546 9.15023C17.1546 9.34023 17.1296 9.46523 17.1296 9.66023C17.0946 9.69523 17.1096 9.73023 17.1196 9.77023L17.0896 9.78523C17.0346 9.84023 17.0346 9.89523 16.9946 9.95023C16.9946 9.96523 16.9496 9.97523 16.9746 9.99523C16.9746 10.0252 16.9296 10.0402 16.9146 10.0652L16.8996 10.0502V10.0702C16.8996 10.0702 16.8846 10.0852 16.8746 10.0802C16.8296 10.1152 16.8246 10.1952 16.7646 10.2202C16.7646 10.2202 16.7246 10.2602 16.7296 10.2802C16.6996 10.2802 16.6996 10.3302 16.6746 10.3302C16.6696 10.3752 16.6346 10.4052 16.6146 10.4402C16.5896 10.4852 16.5146 10.5652 16.4996 10.6002C16.4796 10.6352 16.4396 10.6502 16.4346 10.6952C16.3996 10.7452 16.3396 10.7902 16.2946 10.8302C16.2696 10.9102 16.0996 11.0752 16.0696 11.1552C16.0646 11.1702 16.0596 11.2152 16.0546 11.2252C16.0496 11.2352 16.0496 11.2652 16.0296 11.2552H16.0346C16.0096 11.3102 15.9696 11.3402 15.9596 11.3852C15.9646 11.4252 15.8896 11.4502 15.9046 11.4952C15.8846 11.5202 15.8796 11.5702 15.8696 11.5952C15.8296 11.7502 15.8146 11.7852 15.8896 12.0252H15.9196C15.9646 12.1002 15.9696 12.1702 16.0346 12.2152C16.1146 12.2602 16.3746 12.3502 16.4546 12.3402C16.4746 12.3302 16.5096 12.3502 16.5296 12.3402C16.5896 12.3452 16.6596 12.3252 16.7196 12.3202C16.8196 12.3352 16.8746 12.3302 16.9646 12.2902C17.0046 12.2602 17.0596 12.2552 17.0996 12.2202C17.1546 12.2002 17.3296 12.1402 17.3696 12.0852C17.4696 12.0452 17.4946 11.9702 17.5746 11.9002C17.5896 11.8802 17.5946 11.8302 17.6246 11.8152C17.6196 11.7802 17.6496 11.7152 17.6496 11.6752C17.6396 11.6602 17.6296 11.6402 17.6446 11.6202C17.6246 11.5702 17.6096 11.5102 17.5996 11.4652C17.5996 11.4602 17.5996 11.4552 17.6046 11.4552C17.5646 11.4002 17.5746 11.3502 17.5246 11.3002C17.5096 11.2752 17.4996 11.2302 17.4646 11.2352C17.4396 11.1702 17.3396 11.1402 17.3096 11.0702C17.3096 11.0702 17.2596 11.0652 17.2546 11.0502C17.1696 11.0052 17.0046 10.9452 16.9196 10.9152C16.9196 10.9302 16.9296 10.9302 16.9396 10.9452C16.9096 10.9752 16.9696 10.9852 16.9596 11.0202C16.8846 11.0402 16.8246 11.0052 16.7546 11.0102C16.7546 11.0102 16.7296 11.0252 16.7146 11.0102H16.7196C16.7096 10.9802 16.7296 10.9502 16.7546 10.9252C16.7346 10.8852 16.7946 10.8852 16.7896 10.8452C16.8096 10.8202 16.8246 10.7852 16.8496 10.7552C16.8396 10.7252 16.8896 10.7152 16.8796 10.6852C16.9046 10.6302 16.9746 10.6152 16.9746 10.5502C17.0046 10.5352 17.0096 10.5102 17.0296 10.4952C17.0296 10.4802 17.0396 10.4652 17.0546 10.4602C17.0846 10.4652 17.1146 10.4252 17.1346 10.4452C17.1346 10.4452 17.1896 10.3952 17.1996 10.3852C17.2396 10.3502 17.3146 10.4052 17.3596 10.3952C17.3596 10.3452 17.3946 10.4002 17.4146 10.3702C17.4246 10.3752 17.4296 10.3852 17.4396 10.3902C17.4546 10.4002 17.4696 10.3752 17.4796 10.3652L17.4896 10.3802C17.5296 10.3552 17.5746 10.3402 17.6246 10.3302C17.6446 10.3302 17.7146 10.3302 17.7196 10.3202C17.7296 10.3002 17.7446 10.3202 17.7546 10.3202C17.7896 10.3102 17.8396 10.2752 17.8696 10.2652V10.2552C17.8946 10.2452 17.8996 10.2402 17.9346 10.2402C18.0146 10.2402 17.9546 10.1852 17.9796 10.1452L18.0096 10.2152ZM17.9546 9.74523H17.9496C17.9096 9.73523 17.9696 9.69523 17.9546 9.74523ZM17.9496 9.52523C17.9746 9.53523 17.9346 9.55523 17.9596 9.57023C17.9496 9.57023 17.9596 9.58523 17.9496 9.58023H17.9346C17.9346 9.58023 17.9596 9.55023 17.9496 9.53023V9.52523ZM17.9646 9.31023V9.33523C17.9646 9.33523 17.9446 9.33023 17.9346 9.32523C17.9346 9.32523 17.9546 9.32523 17.9646 9.30523V9.31023ZM17.9546 8.23523V8.25023L17.9496 8.25523V8.23523H17.9546ZM17.1396 11.5202C17.1746 11.5552 17.1396 11.5852 17.1796 11.6202C17.1896 11.6802 17.1696 11.7502 17.1796 11.8052C17.1496 11.8302 17.1446 11.8802 17.1096 11.8952L17.0896 11.9252H17.0846C17.0846 11.9252 17.0396 11.9452 17.0246 11.9702C16.9296 11.9902 16.8446 12.0452 16.7496 12.0302C16.7146 12.0352 16.6546 12.0202 16.6196 11.9952C16.5846 11.9952 16.6196 11.9702 16.5896 11.9702C16.5446 11.9602 16.5446 11.9002 16.5146 11.8802C16.4996 11.7752 16.5396 11.6552 16.5446 11.5652C16.5796 11.5352 16.5546 11.4652 16.6096 11.4452C16.5896 11.3952 16.6246 11.3502 16.6496 11.3102C16.6496 11.2702 16.6496 11.2702 16.6696 11.2402C16.7046 11.2402 16.6696 11.2052 16.6996 11.1952C16.7046 11.1652 16.7296 11.1452 16.7546 11.1452C16.9196 11.2252 17.0796 11.3352 17.1496 11.5152L17.1396 11.5202ZM17.8996 9.81023H17.8946L17.9096 9.79523L17.8996 9.81023ZM17.9446 9.95023C17.9446 9.95023 17.9346 9.92523 17.9546 9.92023L17.9446 9.95023Z" fill="#034EA1"/>
<path d="M16.2698 63.7298H15.4898V60.3898L14.7598 60.4098V59.8098L16.2698 59.6548V63.7248V63.7298Z" fill="#1C1C1C"/>
<path d="M20.3895 63.7302H17.9345V63.2102L19.0445 61.8052C19.2045 61.5902 19.3145 61.4102 19.3845 61.2552C19.4545 61.1002 19.4895 60.9602 19.4895 60.8352C19.4895 60.6602 19.4545 60.5202 19.3895 60.4202C19.3245 60.3202 19.2195 60.2652 19.0795 60.2652C18.9395 60.2652 18.8245 60.3302 18.7445 60.4602C18.6645 60.5902 18.6295 60.7552 18.6295 60.9602H17.8695L17.8595 60.9452C17.8545 60.5852 17.9595 60.2852 18.1845 60.0352C18.4095 59.7852 18.7095 59.6602 19.0795 59.6602C19.4495 59.6602 19.7545 59.7652 19.9595 59.9752C20.1695 60.1852 20.2695 60.4702 20.2695 60.8352C20.2695 61.0802 20.2095 61.3052 20.0895 61.5102C19.9695 61.7152 19.7695 61.9902 19.4845 62.3352L18.9395 63.1252H20.3895V63.7302Z" fill="#1C1C1C"/>
<path d="M22.5102 61.3799C22.6702 61.3799 22.7852 61.3299 22.8652 61.2249C22.9452 61.1199 22.9852 60.9799 22.9852 60.7999C22.9852 60.6449 22.9452 60.5199 22.8602 60.4149C22.7752 60.3099 22.6652 60.2599 22.5202 60.2599C22.4002 60.2599 22.3002 60.3049 22.2202 60.3949C22.1402 60.4849 22.1002 60.6049 22.1002 60.7499H21.3402V60.7349C21.3252 60.4199 21.4352 60.1599 21.6702 59.9549C21.9052 59.7499 22.1852 59.6499 22.5252 59.6499C22.9052 59.6499 23.2102 59.7499 23.4352 59.9449C23.6602 60.1399 23.7752 60.4199 23.7752 60.7849C23.7752 60.9699 23.7252 61.1399 23.6252 61.2949C23.5252 61.4499 23.3902 61.5699 23.2202 61.6549C23.4152 61.7349 23.5602 61.8549 23.6652 62.0149C23.7702 62.1749 23.8252 62.3749 23.8252 62.5999C23.8252 62.9649 23.7052 63.2549 23.4602 63.4599C23.2152 63.6649 22.9002 63.7749 22.5202 63.7749C22.1902 63.7749 21.9002 63.6749 21.6502 63.4799C21.4002 63.2849 21.2852 62.9999 21.2902 62.6349V62.6199H22.0502C22.0502 62.7749 22.0952 62.9049 22.1802 63.0149C22.2652 63.1249 22.3802 63.1749 22.5152 63.1749C22.6752 63.1749 22.8002 63.1199 22.9002 63.0099C23.0002 62.8999 23.0452 62.7649 23.0452 62.5949C23.0452 62.3799 23.0002 62.2199 22.9102 62.1149C22.8202 62.0099 22.6852 61.9599 22.5152 61.9599H22.1102V61.3699H22.5152L22.5102 61.3799Z" fill="#1C1C1C"/>
<path d="M26.8802 62.2348H27.2652V62.8448H26.8802V63.7248H26.1002V62.8448H24.6552L24.6152 62.3698L26.0952 59.7148H26.8802V62.2348ZM25.3052 62.2348H26.1002V60.7848H26.0852L26.0152 60.9398L25.3102 62.2348H25.3052Z" fill="#1C1C1C"/>
<path d="M38.5498 61.95L38.7598 59.71H40.8148V60.335H39.3998L39.3048 61.31C39.3748 61.255 39.4598 61.205 39.5598 61.165C39.6598 61.125 39.7698 61.105 39.8848 61.1C40.2248 61.095 40.4848 61.21 40.6648 61.445C40.8448 61.68 40.9398 62.01 40.9398 62.435C40.9398 62.83 40.8398 63.15 40.6398 63.405C40.4398 63.66 40.1298 63.785 39.7098 63.785C39.3698 63.785 39.0798 63.685 38.8398 63.49C38.5998 63.295 38.4798 63.025 38.4898 62.685V62.67L39.2498 62.63C39.2498 62.805 39.2898 62.935 39.3748 63.035C39.4598 63.135 39.5698 63.18 39.7098 63.18C39.8698 63.18 39.9848 63.12 40.0548 62.995C40.1248 62.87 40.1598 62.69 40.1598 62.45C40.1598 62.21 40.1198 62.02 40.0398 61.885C39.9598 61.75 39.8398 61.675 39.6798 61.675C39.5548 61.675 39.4548 61.705 39.3898 61.765C39.3248 61.825 39.2748 61.905 39.2498 62.01L38.5548 61.965L38.5498 61.95Z" fill="#1C1C1C"/>
<path d="M43.3098 59.65C43.4498 59.65 43.5798 59.665 43.6948 59.695C43.8098 59.725 43.9298 59.765 44.0498 59.825L43.9148 60.4C43.8098 60.36 43.7098 60.325 43.6198 60.305C43.5298 60.285 43.4298 60.275 43.3098 60.275C43.1048 60.275 42.9398 60.365 42.8098 60.545C42.6798 60.725 42.6198 60.975 42.6198 61.305V61.425C42.7148 61.325 42.8248 61.245 42.9548 61.19C43.0848 61.135 43.2348 61.105 43.3948 61.105C43.7048 61.105 43.9448 61.225 44.1148 61.47C44.2848 61.715 44.3698 62.035 44.3698 62.43C44.3698 62.825 44.2548 63.15 44.0248 63.4C43.7948 63.65 43.4998 63.775 43.1348 63.775C42.7498 63.775 42.4398 63.635 42.1998 63.35C41.9598 63.065 41.8398 62.675 41.8398 62.18V61.31C41.8398 60.805 41.9748 60.4 42.2498 60.095C42.5248 59.79 42.8748 59.645 43.2998 59.645L43.3098 59.65ZM43.1398 61.7C43.0198 61.7 42.9148 61.72 42.8298 61.765C42.7448 61.81 42.6748 61.87 42.6248 61.945V62.195C42.6248 62.505 42.6698 62.745 42.7648 62.915C42.8598 63.085 42.9848 63.17 43.1448 63.17C43.2848 63.17 43.3948 63.1 43.4748 62.96C43.5548 62.82 43.5998 62.64 43.5998 62.43C43.5998 62.2 43.5598 62.025 43.4748 61.895C43.3898 61.765 43.2798 61.7 43.1398 61.7Z" fill="#1C1C1C"/>
<path d="M47.775 60.3151C47.375 60.8101 47.105 61.2751 46.96 61.7051C46.815 62.1351 46.745 62.6451 46.745 63.2301V63.7201H45.965V63.2301C45.965 62.6651 46.055 62.1501 46.235 61.6801C46.415 61.2101 46.68 60.7551 47.025 60.3151H45.21V59.7051H47.775V60.3151Z" fill="#1C1C1C"/>
<path d="M51.0954 60.7498C51.0954 60.9498 51.0504 61.1248 50.9554 61.2798C50.8604 61.4348 50.7354 61.5548 50.5704 61.6398C50.7704 61.7298 50.9304 61.8598 51.0454 62.0248C51.1604 62.1898 51.2204 62.3848 51.2204 62.6048C51.2204 62.9798 51.1004 63.2698 50.8654 63.4748C50.6304 63.6798 50.3304 63.7848 49.9604 63.7848C49.5904 63.7848 49.2654 63.6798 49.0204 63.4748C48.7754 63.2698 48.6504 62.9798 48.6504 62.6098C48.6504 62.3948 48.7104 62.1998 48.8304 62.0298C48.9504 61.8598 49.1154 61.7348 49.3254 61.6448C49.1504 61.5598 49.0204 61.4398 48.9204 61.2848C48.8204 61.1298 48.7754 60.9548 48.7754 60.7548C48.7754 60.3998 48.8854 60.1298 49.1054 59.9398C49.3254 59.7498 49.6104 59.6548 49.9604 59.6548C50.3104 59.6548 50.5704 59.7498 50.7804 59.9398C50.9904 60.1298 51.0954 60.3998 51.0954 60.7548V60.7498ZM50.4404 62.5648C50.4404 62.3848 50.3954 62.2348 50.3004 62.1198C50.2054 62.0048 50.0954 61.9448 49.9604 61.9448C49.8104 61.9448 49.6804 62.0048 49.5854 62.1198C49.4904 62.2348 49.4354 62.3848 49.4354 62.5648C49.4354 62.7448 49.4854 62.8998 49.5854 63.0098C49.6854 63.1198 49.8104 63.1748 49.9654 63.1748C50.1054 63.1748 50.2154 63.1198 50.3054 63.0098C50.3954 62.8998 50.4404 62.7548 50.4404 62.5648ZM50.3154 60.7848C50.3154 60.6248 50.2804 60.4948 50.2154 60.3998C50.1504 60.3048 50.0654 60.2598 49.9554 60.2598C49.8304 60.2598 49.7304 60.3048 49.6604 60.3998C49.5904 60.4948 49.5554 60.6198 49.5554 60.7898C49.5554 60.9598 49.5904 61.0898 49.6654 61.1898C49.7404 61.2898 49.8354 61.3398 49.9604 61.3398C50.0704 61.3398 50.1554 61.2898 50.2204 61.1898C50.2854 61.0898 50.3154 60.9548 50.3154 60.7848Z" fill="#1C1C1C"/>
<path d="M63.4796 63.1749C63.6446 63.1749 63.7796 63.0999 63.8846 62.9499C63.9896 62.7999 64.0446 62.5949 64.0446 62.3299V62.0549C63.9646 62.1649 63.8746 62.2499 63.7646 62.3099C63.6546 62.3699 63.5446 62.3949 63.4196 62.3949C63.0896 62.3949 62.8246 62.2749 62.6346 62.0299C62.4446 61.7849 62.3496 61.4599 62.3496 61.0449C62.3496 60.6299 62.4646 60.3149 62.6946 60.0499C62.9246 59.7849 63.2196 59.6499 63.5746 59.6499C63.9296 59.6499 64.2396 59.7849 64.4696 60.0599C64.6996 60.3349 64.8196 60.7099 64.8196 61.1949V62.2799C64.8196 62.7399 64.6896 63.0999 64.4346 63.3749C64.1796 63.6499 63.8596 63.7799 63.4696 63.7799C63.3446 63.7799 63.2146 63.7649 63.0796 63.7349C62.9446 63.7049 62.8196 63.6599 62.7046 63.6049L62.8346 63.0399C62.9396 63.0849 63.0396 63.1199 63.1346 63.1399C63.2296 63.1599 63.3446 63.1699 63.4646 63.1699L63.4796 63.1749ZM63.5696 61.8199C63.6746 61.8199 63.7696 61.7949 63.8496 61.7449C63.9296 61.6949 63.9996 61.6249 64.0496 61.5399V61.0599C64.0496 60.7999 64.0096 60.6049 63.9246 60.4649C63.8396 60.3249 63.7296 60.2599 63.5896 60.2599C63.4496 60.2599 63.3446 60.3349 63.2596 60.4899C63.1746 60.6449 63.1346 60.8299 63.1346 61.0449C63.1346 61.2749 63.1696 61.4649 63.2446 61.6049C63.3196 61.7449 63.4246 61.8199 63.5696 61.8199Z" fill="#1C1C1C"/>
<path d="M68.26 62.2698C68.26 62.7398 68.145 63.1148 67.92 63.3798C67.695 63.6448 67.395 63.7848 67.03 63.7848C66.665 63.7848 66.355 63.6498 66.13 63.3798C65.905 63.1098 65.79 62.7398 65.79 62.2698V61.1698C65.79 60.6998 65.905 60.3298 66.13 60.0598C66.355 59.7898 66.655 59.6548 67.025 59.6548C67.395 59.6548 67.695 59.7898 67.92 60.0598C68.145 60.3298 68.26 60.6998 68.26 61.1698V62.2698ZM67.48 61.0998C67.48 60.8348 67.44 60.6298 67.36 60.4798C67.28 60.3348 67.165 60.2598 67.025 60.2598C66.885 60.2598 66.77 60.3348 66.69 60.4798C66.61 60.6248 66.57 60.8348 66.57 61.0998V62.3298C66.57 62.5998 66.61 62.8098 66.69 62.9548C66.77 63.0998 66.885 63.1748 67.03 63.1748C67.175 63.1748 67.28 63.0998 67.36 62.9548C67.44 62.8098 67.48 62.5998 67.48 62.3298V61.0998Z" fill="#1C1C1C"/>
<path d="M70.9954 63.7249H70.2153V60.3849L69.4854 60.4049V59.8049L70.9954 59.6499V63.7199V63.7249Z" fill="#1C1C1C"/>
<path d="M75.1151 63.7248H72.6601V63.2048L73.7701 61.7998C73.9301 61.5848 74.0401 61.4048 74.1101 61.2498C74.1801 61.0948 74.2151 60.9548 74.2151 60.8298C74.2151 60.6548 74.1801 60.5148 74.1151 60.4148C74.0501 60.3148 73.9451 60.2598 73.8051 60.2598C73.6651 60.2598 73.5501 60.3248 73.4701 60.4548C73.3901 60.5848 73.3551 60.7498 73.3551 60.9548H72.5951L72.5851 60.9398C72.5801 60.5798 72.6851 60.2798 72.9101 60.0298C73.1351 59.7798 73.4351 59.6548 73.8051 59.6548C74.1751 59.6548 74.4801 59.7598 74.6851 59.9698C74.8901 60.1798 74.9951 60.4648 74.9951 60.8298C74.9951 61.0748 74.9351 61.2998 74.8151 61.5048C74.6951 61.7098 74.4951 61.9848 74.2101 62.3298L73.6651 63.1198H75.1151V63.7248Z" fill="#1C1C1C"/>
<path d="M88.8401 62.2698C88.8401 62.7398 88.7251 63.1148 88.5001 63.3798C88.2751 63.6448 87.9751 63.7848 87.6101 63.7848C87.2451 63.7848 86.9351 63.6498 86.7101 63.3798C86.4851 63.1098 86.3701 62.7398 86.3701 62.2698V61.1698C86.3701 60.6998 86.4851 60.3298 86.7101 60.0598C86.9351 59.7898 87.2351 59.6548 87.6051 59.6548C87.9751 59.6548 88.2751 59.7898 88.5001 60.0598C88.7251 60.3298 88.8401 60.6998 88.8401 61.1698V62.2698ZM88.0601 61.0998C88.0601 60.8348 88.0201 60.6298 87.9401 60.4798C87.8601 60.3298 87.7451 60.2598 87.6051 60.2598C87.4651 60.2598 87.3501 60.3348 87.2701 60.4798C87.1901 60.6248 87.1501 60.8348 87.1501 61.0998V62.3298C87.1501 62.5998 87.1901 62.8098 87.2701 62.9548C87.3501 63.0998 87.4651 63.1748 87.6101 63.1748C87.7551 63.1748 87.8601 63.0998 87.9401 62.9548C88.0201 62.8098 88.0601 62.5998 88.0601 62.3298V61.0998Z" fill="#1C1C1C"/>
<path d="M92.2503 62.2698C92.2503 62.7398 92.1353 63.1148 91.9103 63.3798C91.6853 63.6448 91.3853 63.7848 91.0203 63.7848C90.6553 63.7848 90.3453 63.6498 90.1203 63.3798C89.8953 63.1098 89.7803 62.7398 89.7803 62.2698V61.1698C89.7803 60.6998 89.8953 60.3298 90.1203 60.0598C90.3453 59.7898 90.6453 59.6548 91.0153 59.6548C91.3853 59.6548 91.6853 59.7898 91.9103 60.0598C92.1353 60.3298 92.2503 60.6998 92.2503 61.1698V62.2698ZM91.4703 61.0998C91.4703 60.8348 91.4303 60.6298 91.3503 60.4798C91.2703 60.3298 91.1553 60.2598 91.0153 60.2598C90.8753 60.2598 90.7603 60.3348 90.6803 60.4798C90.6003 60.6248 90.5603 60.8348 90.5603 61.0998V62.3298C90.5603 62.5998 90.6003 62.8098 90.6803 62.9548C90.7603 63.0998 90.8753 63.1748 91.0203 63.1748C91.1653 63.1748 91.2703 63.0998 91.3503 62.9548C91.4303 62.8098 91.4703 62.5998 91.4703 62.3298V61.0998Z" fill="#1C1C1C"/>
<path d="M95.6604 62.2698C95.6604 62.7398 95.5454 63.1148 95.3204 63.3798C95.0954 63.6448 94.7954 63.7848 94.4304 63.7848C94.0654 63.7848 93.7554 63.6498 93.5304 63.3798C93.3054 63.1098 93.1904 62.7398 93.1904 62.2698V61.1698C93.1904 60.6998 93.3054 60.3298 93.5304 60.0598C93.7554 59.7898 94.0554 59.6548 94.4254 59.6548C94.7954 59.6548 95.0954 59.7898 95.3204 60.0598C95.5454 60.3298 95.6604 60.6998 95.6604 61.1698V62.2698ZM94.8804 61.0998C94.8804 60.8348 94.8404 60.6298 94.7604 60.4798C94.6804 60.3298 94.5654 60.2598 94.4254 60.2598C94.2854 60.2598 94.1704 60.3348 94.0904 60.4798C94.0104 60.6248 93.9704 60.8348 93.9704 61.0998V62.3298C93.9704 62.5998 94.0104 62.8098 94.0904 62.9548C94.1704 63.0998 94.2854 63.1748 94.4304 63.1748C94.5754 63.1748 94.6804 63.0998 94.7604 62.9548C94.8404 62.8098 94.8804 62.5998 94.8804 62.3298V61.0998Z" fill="#1C1C1C"/>
<path d="M99.0696 62.2698C99.0696 62.7398 98.9546 63.1148 98.7296 63.3798C98.5046 63.6448 98.2046 63.7848 97.8396 63.7848C97.4746 63.7848 97.1646 63.6498 96.9396 63.3798C96.7146 63.1098 96.5996 62.7398 96.5996 62.2698V61.1698C96.5996 60.6998 96.7146 60.3298 96.9396 60.0598C97.1646 59.7898 97.4646 59.6548 97.8346 59.6548C98.2046 59.6548 98.5046 59.7898 98.7296 60.0598C98.9546 60.3298 99.0696 60.6998 99.0696 61.1698V62.2698ZM98.2896 61.0998C98.2896 60.8348 98.2496 60.6298 98.1696 60.4798C98.0896 60.3298 97.9746 60.2598 97.8346 60.2598C97.6946 60.2598 97.5796 60.3348 97.4996 60.4798C97.4196 60.6248 97.3796 60.8348 97.3796 61.0998V62.3298C97.3796 62.5998 97.4196 62.8098 97.4996 62.9548C97.5796 63.0998 97.6946 63.1748 97.8396 63.1748C97.9846 63.1748 98.0896 63.0998 98.1696 62.9548C98.2496 62.8098 98.2896 62.5998 98.2896 62.3298V61.0998Z" fill="#1C1C1C"/>
<path d="M99.9951 4.39014H99.4551V5.52514H97.2401V4.39014H96.7001C96.5701 4.39014 96.4651 4.49514 96.4651 4.62014V7.08514C96.4651 7.21014 96.5701 7.31514 96.7001 7.31514H97.2401V6.09514H99.4551V7.31514H99.9951C100.125 7.31514 100.23 7.21014 100.23 7.08514V4.62014C100.23 4.49514 100.125 4.39014 99.9951 4.39014ZM95.6051 4.39014H95.0651V6.54514L93.3601 4.84014C93.0901 4.58014 92.9051 4.39014 92.4701 4.39014H91.9951V7.08514C91.9951 7.21014 92.1001 7.31514 92.2301 7.31514H92.7701V5.15014L94.4601 6.84014C94.7351 7.11014 94.9851 7.31514 95.3851 7.31514H95.8401V4.62014C95.8401 4.49514 95.7351 4.39014 95.6051 4.39014ZM106.28 6.03014L106.96 5.39514H106.72C106.6 5.39514 106.535 5.45514 106.48 5.51014C106.48 5.51014 106.08 5.89014 106.01 5.96014V4.78014H105.875C105.795 4.78014 105.73 4.84514 105.73 4.92514V6.68514C105.73 6.76514 105.795 6.83014 105.875 6.83014H106.01V6.11014C106.035 6.13514 106.575 6.72014 106.575 6.72014C106.635 6.78514 106.675 6.82514 106.795 6.82514H107.04C107.04 6.82514 106.29 6.03514 106.28 6.02514V6.03014ZM104.855 5.39514H104.185V6.68514C104.185 6.76514 104.25 6.83014 104.33 6.83014H104.465V5.62014H104.825C105.045 5.63514 105.125 5.76014 105.125 6.10014V6.82514H105.26C105.34 6.82514 105.405 6.76014 105.405 6.68014V6.00514C105.405 5.60014 105.215 5.39014 104.86 5.39014L104.855 5.39514ZM102.015 5.83514C102.23 5.75014 102.365 5.61514 102.365 5.37014C102.365 5.04014 102.13 4.87514 101.665 4.87514H101.27C101.19 4.87514 101.125 4.94014 101.125 5.02014V6.69014C101.125 6.77014 101.19 6.83514 101.27 6.83514H101.655C102.165 6.83514 102.415 6.66514 102.415 6.31014C102.415 6.05014 102.245 5.88514 102.015 5.84014V5.83514ZM101.42 5.11514H101.71C101.815 5.11514 102.065 5.14014 102.065 5.40014C102.065 5.68014 101.84 5.70514 101.565 5.70514H101.415V5.11514H101.42ZM101.625 6.59014H101.42V5.94514H101.595C101.83 5.94514 102.1 5.98514 102.1 6.28014C102.1 6.49514 101.955 6.59014 101.625 6.59014ZM103.28 5.36514C103.12 5.36514 102.965 5.40514 102.815 5.49014V5.74014L102.825 5.73014C102.93 5.64014 103.09 5.58514 103.24 5.58514C103.485 5.58514 103.585 5.69014 103.59 5.94014C103.49 5.93514 103.415 5.93514 103.315 5.93514C103.08 5.93514 102.64 6.03014 102.64 6.39514C102.64 6.67014 102.83 6.82514 103.175 6.82514H103.725C103.805 6.82514 103.87 6.76014 103.87 6.68014V5.95014C103.87 5.54514 103.685 5.35514 103.285 5.35514L103.28 5.36514ZM103.585 6.61514H103.19C103.065 6.61514 102.93 6.53514 102.93 6.40014C102.93 6.17014 103.275 6.14514 103.425 6.14514H103.585V6.61014V6.61514Z" fill="#0066B3"/>
<path d="M25.0847 31.6152C25.4464 31.6152 25.7397 31.3219 25.7397 30.9602C25.7397 30.5984 25.4464 30.3052 25.0847 30.3052C24.7229 30.3052 24.4297 30.5984 24.4297 30.9602C24.4297 31.3219 24.7229 31.6152 25.0847 31.6152Z" fill="white"/>
<path d="M106.385 53.87L107.035 52.145L107.445 53.34L107.995 52.145L108.51 53.34L109.015 52.145L109.715 53.87H106.385Z" fill="#BEDF95"/>
<path d="M8.38477 55.3799L9.03477 53.6499L9.44477 54.8449L9.99977 53.6499L10.5148 54.8449L11.0198 53.6499L11.7198 55.3799H8.38477Z" fill="#BEDF95"/>
<g filter="url(#filter0_d_6554_58534)">
<path d="M70.19 21.8451C70.375 21.8451 70.52 21.6951 70.52 21.5151C70.52 21.3351 70.37 21.1851 70.19 21.1851H66.455V20.4051H70.19C70.375 20.4051 70.52 20.2551 70.52 20.0751C70.52 19.8951 70.37 19.7451 70.19 19.7451H64.87C64.37 19.7451 63.96 20.1551 63.96 20.6551V32.4701C63.96 32.9751 64.365 33.3801 64.87 33.3801H70.19C70.375 33.3801 70.52 33.2301 70.52 33.0501C70.52 32.8701 70.37 32.7201 70.19 32.7201H66.455V31.9401H70.19C70.375 31.9401 70.52 31.7901 70.52 31.6101C70.52 31.4301 70.37 31.2801 70.19 31.2801H66.455V30.5001H70.19C70.375 30.5001 70.52 30.3501 70.52 30.1701C70.52 29.9901 70.37 29.8401 70.19 29.8401H66.455V29.0601H70.19C70.375 29.0601 70.52 28.9101 70.52 28.7301C70.52 28.5501 70.37 28.4001 70.19 28.4001H66.455V27.6201H70.19C70.375 27.6201 70.52 27.4701 70.52 27.2901C70.52 27.1101 70.37 26.9601 70.19 26.9601H66.455V26.1801H70.19C70.375 26.1801 70.52 26.0301 70.52 25.8501C70.52 25.6701 70.37 25.5201 70.19 25.5201H66.455V24.7401H70.19C70.375 24.7401 70.52 24.5901 70.52 24.4101C70.52 24.2301 70.37 24.0801 70.19 24.0801H66.455V23.3001H70.19C70.375 23.3001 70.52 23.1501 70.52 22.9701C70.52 22.7901 70.37 22.6401 70.19 22.6401H66.455V21.8601H70.19V21.8451Z" fill="#6AA9FF"/>
<path d="M69.4751 21.8451C69.6601 21.8451 69.8051 21.6951 69.8051 21.5151C69.8051 21.3351 69.6551 21.1851 69.4751 21.1851H65.7401V20.4051H69.4751C69.6601 20.4051 69.8051 20.2551 69.8051 20.0751C69.8051 19.8951 69.6551 19.7451 69.4751 19.7451H64.1551C63.6551 19.7451 63.2451 20.1551 63.2451 20.6551V32.4701C63.2451 32.9751 63.6501 33.3801 64.1551 33.3801H69.4751C69.6601 33.3801 69.8051 33.2301 69.8051 33.0501C69.8051 32.8701 69.6551 32.7201 69.4751 32.7201H65.7401V31.9401H69.4751C69.6601 31.9401 69.8051 31.7901 69.8051 31.6101C69.8051 31.4301 69.6551 31.2801 69.4751 31.2801H65.7401V30.5001H69.4751C69.6601 30.5001 69.8051 30.3501 69.8051 30.1701C69.8051 29.9901 69.6551 29.8401 69.4751 29.8401H65.7401V29.0601H69.4751C69.6601 29.0601 69.8051 28.9101 69.8051 28.7301C69.8051 28.5501 69.6551 28.4001 69.4751 28.4001H65.7401V27.6201H69.4751C69.6601 27.6201 69.8051 27.4701 69.8051 27.2901C69.8051 27.1101 69.6551 26.9601 69.4751 26.9601H65.7401V26.1801H69.4751C69.6601 26.1801 69.8051 26.0301 69.8051 25.8501C69.8051 25.6701 69.6551 25.5201 69.4751 25.5201H65.7401V24.7401H69.4751C69.6601 24.7401 69.8051 24.5901 69.8051 24.4101C69.8051 24.2301 69.6551 24.0801 69.4751 24.0801H65.7401V23.3001H69.4751C69.6601 23.3001 69.8051 23.1501 69.8051 22.9701C69.8051 22.7901 69.6551 22.6401 69.4751 22.6401H65.7401V21.8601H69.4751V21.8451Z" fill="#76E2F8"/>
</g>
<g filter="url(#filter1_d_6554_58534)">
<path d="M78.7253 20.8501V22.7801H76.4453V19.8701C77.3553 19.8701 78.1703 20.2501 78.7253 20.8501Z" fill="#704C55"/>
<path d="M78.7253 22.7803V24.7103C78.1703 25.3103 77.3553 25.6903 76.4453 25.6903V22.7803H78.7253Z" fill="#5B362A"/>
<path d="M86.5155 24.9449L84.5355 31.0299C84.2955 31.7649 84.6955 32.5499 85.4305 32.7899L87.8455 25.3749L86.5205 24.9399L86.5155 24.9449Z" fill="#86E080"/>
<path d="M87.1858 32.0254L89.1658 25.9404L87.8408 25.5054L85.4258 32.9204C86.1558 33.1604 86.9458 32.7604 87.1858 32.0254Z" fill="#59C36A"/>
<path d="M85.9406 22.7801C85.9406 21.4601 87.3306 20.4701 88.7256 21.1901C89.3106 21.4951 89.6506 22.1251 89.6006 22.7801H91.5306C91.5306 20.7001 89.8456 19.0151 87.7706 19.0151C86.4006 19.0151 85.2056 19.7501 84.5506 20.8501H78.7256V22.7851H85.9456L85.9406 22.7801Z" fill="#86E080"/>
<path d="M78.7257 24.7152H84.5507C85.2057 25.8102 86.4057 26.5502 87.7707 26.5502C89.8457 26.5502 91.5307 24.8652 91.5307 22.7852H89.6007C89.6007 23.7952 88.7807 24.6152 87.7707 24.6152C86.7607 24.6152 85.9407 23.7952 85.9407 22.7852H78.7207V24.7202L78.7257 24.7152Z" fill="#59C36A"/>
<path d="M87.7704 20.9502C86.7604 20.9502 85.9404 21.7702 85.9404 22.7852H89.6004C89.6004 21.7752 88.7804 20.9502 87.7704 20.9502Z" fill="#FFE470"/>
<path d="M87.7704 24.6152C88.7804 24.6152 89.6004 23.7952 89.6004 22.7852H85.9404C85.9404 23.7952 86.7604 24.6152 87.7704 24.6152Z" fill="#FABE2C"/>
<path d="M85.4844 27.3183L85.7173 27.3944L85.4534 28.2024L84.7214 27.9633L84.8208 27.6591C84.9108 27.3834 85.2072 27.233 85.4828 27.323L85.4844 27.3183Z" fill="#FFE470"/>
<path d="M84.7168 27.9629L85.4487 28.202L85.1848 29.01L84.9519 28.9339C84.6762 28.8438 84.5258 28.5475 84.6159 28.2718L84.7152 27.9676L84.7168 27.9629Z" fill="#FABE2C"/>
<path d="M73.9956 24.855H75.5206C75.7028 24.855 75.8506 24.7072 75.8506 24.525V24.335C75.8506 24.1527 75.7028 24.005 75.5206 24.005H73.9956C73.8133 24.005 73.6656 24.1527 73.6656 24.335V24.525C73.6656 24.7072 73.8133 24.855 73.9956 24.855Z" fill="white"/>
<path d="M73.435 23.21H74.96C75.1423 23.21 75.29 23.0622 75.29 22.88V22.69C75.29 22.5077 75.1423 22.36 74.96 22.36H73.435C73.2528 22.36 73.105 22.5077 73.105 22.69V22.88C73.105 23.0622 73.2528 23.21 73.435 23.21Z" fill="white"/>
<path d="M73.9956 21.5552H75.5206C75.7028 21.5552 75.8506 21.4074 75.8506 21.2252V21.0352C75.8506 20.8529 75.7028 20.7052 75.5206 20.7052H73.9956C73.8133 20.7052 73.6656 20.8529 73.6656 21.0352V21.2252C73.6656 21.4074 73.8133 21.5552 73.9956 21.5552Z" fill="white"/>
</g>
<g filter="url(#filter2_d_6554_58534)">
<path d="M82.6843 36.2998C81.9543 36.2998 81.3643 36.8898 81.3643 37.6198V45.0098C81.3643 45.7398 81.9543 46.3298 82.6843 46.3298H83.4593C83.9743 46.3298 84.3893 46.7498 84.3893 47.2648V49.9598C84.3893 50.2948 84.6593 50.5648 84.9943 50.5648H85.3043V36.2998H82.6843Z" fill="#704C55"/>
<path d="M86.2197 49.9549V47.2599C86.2197 46.7449 86.6347 46.3249 87.1497 46.3249H87.9247C88.6547 46.3249 89.2447 45.7349 89.2447 45.0049V37.6149C89.2447 36.8849 88.6547 36.2949 87.9247 36.2949H85.3047V50.5599H85.6147C85.9497 50.5599 86.2197 50.2899 86.2197 49.9549Z" fill="#5B362A"/>
<path d="M82.6851 37.1851H87.9251C88.1651 37.1851 88.3601 37.3801 88.3601 37.6201V45.0101C88.3601 45.2501 88.1651 45.4451 87.9251 45.4451H82.6801C82.4401 45.4451 82.2451 45.2501 82.2451 45.0101V37.6201C82.2451 37.3801 82.4401 37.1851 82.6801 37.1851H82.6851Z" fill="#6AA9FF"/>
<path d="M86.095 37.1851L82.25 41.0351V39.4451L84.505 37.1851H86.095Z" fill="#76E2F8"/>
<path d="M88.3596 42.2148V43.3748L86.2997 45.4448H85.1396L88.3596 42.2148Z" fill="#76E2F8"/>
<path d="M88.36 37.6201V40.3251L83.25 45.4451H82.685C82.445 45.4451 82.25 45.2501 82.25 45.0101V42.6451L87.7 37.1851H87.925C88.165 37.1851 88.36 37.3801 88.36 37.6201Z" fill="#76E2F8"/>
<path d="M80.3597 46.22L80.4247 46.485C80.4497 46.595 80.5347 46.68 80.6447 46.705L80.9097 46.77C81.2147 46.845 81.2147 47.275 80.9097 47.35L80.6447 47.415C80.5347 47.44 80.4497 47.525 80.4247 47.635L80.3597 47.9C80.2847 48.205 79.8547 48.205 79.7797 47.9L79.7147 47.635C79.6897 47.525 79.6047 47.44 79.4947 47.415L79.2297 47.35C78.9247 47.275 78.9247 46.845 79.2297 46.77L79.4947 46.705C79.6047 46.68 79.6897 46.595 79.7147 46.485L79.7797 46.22C79.8547 45.915 80.2847 45.915 80.3597 46.22Z" fill="#F0F7FF"/>
<path d="M91.5795 37.9797L91.6445 38.2447C91.6695 38.3547 91.7545 38.4397 91.8645 38.4647L92.1295 38.5297C92.4345 38.6047 92.4345 39.0347 92.1295 39.1097L91.8645 39.1747C91.7545 39.1997 91.6695 39.2847 91.6445 39.3947L91.5795 39.6597C91.5045 39.9647 91.0745 39.9647 90.9995 39.6597L90.9345 39.3947C90.9095 39.2847 90.8245 39.1997 90.7145 39.1747L90.4495 39.1097C90.1445 39.0347 90.1445 38.6047 90.4495 38.5297L90.7145 38.4647C90.8245 38.4397 90.9095 38.3547 90.9345 38.2447L90.9995 37.9797C91.0745 37.6747 91.5045 37.6747 91.5795 37.9797Z" fill="#F0F7FF"/>
</g>
<g opacity="0.26">
<path d="M71.1095 45.1399L65.3695 36.6499H65.3645C64.5545 37.1999 64.3445 38.2999 64.8945 39.1099L69.6445 46.1349L70.4645 47.3499L71.8395 46.2899L71.1095 45.1349V45.1399Z" fill="#75C6A3"/>
<path d="M69.2743 45.6001L70.3443 44.0151L68.3893 41.1201L67.3193 42.7051L69.2743 45.6001Z" fill="#75C6A3"/>
<path d="M72.3248 36.6649L72.2999 36.6499L66.5598 45.1399L66.0898 45.9849L67.3699 46.9099L68.0248 46.1399L72.7849 39.0949C73.3249 38.2949 73.1148 37.2099 72.3198 36.6649H72.3248Z" fill="#75C6A3"/>
<path d="M72.3045 45.7997C73.6895 45.9147 74.7745 47.0797 74.7745 48.4947C74.7745 49.9897 73.5645 51.1997 72.0745 51.1997C70.5845 51.1997 69.3745 49.9897 69.3745 48.4947C69.3745 48.0547 69.4795 47.6397 69.6645 47.2747L69.3745 46.8447C69.2395 46.6447 69.2895 46.3747 69.4895 46.2397L71.2645 45.0347C71.4645 44.8997 71.7345 44.9497 71.8695 45.1497L72.3045 45.7947V45.7997ZM73.5995 48.4947C73.5995 47.6497 72.9145 46.9647 72.0695 46.9647C71.2245 46.9647 70.5395 47.6497 70.5395 48.4947C70.5395 49.3397 71.2245 50.0247 72.0695 50.0247C72.9145 50.0247 73.5995 49.3397 73.5995 48.4947Z" fill="#75C6A3"/>
<path d="M64.0645 48.495C64.0645 49.34 64.7495 50.025 65.5945 50.025C66.4395 50.025 67.1245 49.34 67.1245 48.495C67.1245 47.65 66.4395 46.965 65.5945 46.965C64.7495 46.965 64.0645 47.65 64.0645 48.495ZM68.1795 46.24C68.3795 46.375 68.4295 46.645 68.2945 46.845L68.0045 47.275C68.1895 47.64 68.2945 48.055 68.2945 48.495C68.2945 49.99 67.0845 51.2 65.5945 51.2C64.1045 51.2 62.8945 49.99 62.8945 48.495C62.8945 47.08 63.9795 45.915 65.3645 45.8L65.7995 45.155C65.9345 44.955 66.2045 44.905 66.4045 45.04L68.1795 46.245V46.24Z" fill="#75C6A3"/>
<path d="M68.8196 43.685C68.6996 43.685 68.5996 43.585 68.5996 43.465V43.325C68.5996 43.205 68.6996 43.105 68.8196 43.105C68.9396 43.105 69.0396 43.205 69.0396 43.325V43.465C69.0396 43.585 68.9396 43.685 68.8196 43.685Z" fill="#75C6A3"/>
</g>
<path d="M70.3497 44.0349L64.6097 35.5449H64.6047C63.7947 36.0949 63.5847 37.1949 64.1347 38.0049L68.8847 45.0299L69.7047 46.2449L71.0797 45.1849L70.3497 44.0299V44.0349Z" fill="#E5E1E5"/>
<path d="M68.5204 44.4898L69.5904 42.9048L67.6354 40.0098L66.5654 41.5948L68.5204 44.4898Z" fill="#D7D0D6"/>
<path d="M71.5651 35.5599L71.5401 35.5449L65.8001 44.0349L65.3301 44.8799L66.6101 45.8049L67.2651 45.0349L72.0251 37.9899C72.5651 37.1899 72.3551 36.1049 71.5601 35.5599H71.5651Z" fill="#EFEDEF"/>
<path d="M71.5447 44.6898C72.9297 44.8048 74.0147 45.9698 74.0147 47.3848C74.0147 48.8798 72.8047 50.0898 71.3147 50.0898C69.8247 50.0898 68.6147 48.8798 68.6147 47.3848C68.6147 46.9448 68.7197 46.5298 68.9047 46.1648L68.6147 45.7348C68.4797 45.5348 68.5297 45.2648 68.7297 45.1298L70.5047 43.9248C70.7047 43.7898 70.9747 43.8398 71.1097 44.0398L71.5447 44.6848V44.6898ZM72.8397 47.3848C72.8397 46.5398 72.1547 45.8548 71.3097 45.8548C70.4647 45.8548 69.7797 46.5398 69.7797 47.3848C69.7797 48.2298 70.4647 48.9148 71.3097 48.9148C72.1547 48.9148 72.8397 48.2298 72.8397 47.3848Z" fill="#6CF5C2"/>
<path d="M63.3097 47.3901C63.3097 48.2351 63.9946 48.9201 64.8396 48.9201C65.6846 48.9201 66.3697 48.2351 66.3697 47.3901C66.3697 46.5451 65.6846 45.8601 64.8396 45.8601C63.9946 45.8601 63.3097 46.5451 63.3097 47.3901ZM67.4247 45.1351C67.6247 45.2701 67.6746 45.5401 67.5396 45.7401L67.2496 46.1701C67.4346 46.5351 67.5396 46.9501 67.5396 47.3901C67.5396 48.8851 66.3296 50.0951 64.8396 50.0951C63.3496 50.0951 62.1396 48.8851 62.1396 47.3901C62.1396 45.9751 63.2246 44.8101 64.6096 44.6951L65.0446 44.0501C65.1796 43.8501 65.4497 43.8001 65.6497 43.9351L67.4247 45.1401V45.1351Z" fill="#6CF5C2"/>
<path d="M68.0598 42.58C67.9398 42.58 67.8398 42.48 67.8398 42.36V42.22C67.8398 42.1 67.9398 42 68.0598 42C68.1798 42 68.2798 42.1 68.2798 42.22V42.36C68.2798 42.48 68.1798 42.58 68.0598 42.58Z" fill="#E5E1E5"/>
<path d="M97.5801 33.8798L98.2301 32.1548L98.6401 33.3498L99.1951 32.1548L99.7101 33.3498L100.215 32.1548L100.915 33.8798H97.5801Z" fill="#BEDF95"/>
<path d="M50.5352 26.255L53.8702 20.745C53.8702 20.745 54.9402 19.585 56.2752 20.745L59.5152 26.255H50.5352Z" fill="#4EB034"/>
<path d="M47.8203 26.2549L49.7403 23.0849C49.7403 23.0849 50.3553 22.4149 51.1253 23.0849L52.9903 26.2549H47.8253H47.8203Z" fill="#4EB034"/>
</g>
<defs>
<filter id="filter0_d_6554_58534" x="63.2451" y="19.7451" width="9.60441" height="15.9648" filterUnits="userSpaceOnUse" color-interpolation-filters="sRGB">
<feFlood flood-opacity="0" result="BackgroundImageFix"/>
<feColorMatrix in="SourceAlpha" type="matrix" values="0 0 0 0 0 0 0 0 0 0 0 0 0 0 0 0 0 0 127 0" result="hardAlpha"/>
<feOffset dx="2.33" dy="2.33"/>
<feColorMatrix type="matrix" values="0 0 0 0 0.776471 0 0 0 0 0.898039 0 0 0 0 0.862745 0 0 0 0.75 0"/>
<feBlend mode="normal" in2="BackgroundImageFix" result="effect1_dropShadow_6554_58534"/>
<feBlend mode="normal" in="SourceGraphic" in2="effect1_dropShadow_6554_58534" result="shape"/>
</filter>
<filter id="filter1_d_6554_58534" x="73.1055" y="19.0151" width="21.1648" height="16.7151" filterUnits="userSpaceOnUse" color-interpolation-filters="sRGB">
<feFlood flood-opacity="0" result="BackgroundImageFix"/>
<feColorMatrix in="SourceAlpha" type="matrix" values="0 0 0 0 0 0 0 0 0 0 0 0 0 0 0 0 0 0 127 0" result="hardAlpha"/>
<feOffset dx="2.74" dy="2.74"/>
<feColorMatrix type="matrix" values="0 0 0 0 0.776471 0 0 0 0 0.898039 0 0 0 0 0.862745 0 0 0 0.75 0"/>
<feBlend mode="normal" in2="BackgroundImageFix" result="effect1_dropShadow_6554_58534"/>
<feBlend mode="normal" in="SourceGraphic" in2="effect1_dropShadow_6554_58534" result="shape"/>
</filter>
<filter id="filter2_d_6554_58534" x="79.001" y="36.2949" width="15.6174" height="16.53" filterUnits="userSpaceOnUse" color-interpolation-filters="sRGB">
<feFlood flood-opacity="0" result="BackgroundImageFix"/>
<feColorMatrix in="SourceAlpha" type="matrix" values="0 0 0 0 0 0 0 0 0 0 0 0 0 0 0 0 0 0 127 0" result="hardAlpha"/>
<feOffset dx="2.26" dy="2.26"/>
<feColorMatrix type="matrix" values="0 0 0 0 0.776471 0 0 0 0 0.898039 0 0 0 0 0.862745 0 0 0 0.75 0"/>
<feBlend mode="normal" in2="BackgroundImageFix" result="effect1_dropShadow_6554_58534"/>
<feBlend mode="normal" in="SourceGraphic" in2="effect1_dropShadow_6554_58534" result="shape"/>
</filter>
<linearGradient id="paint0_linear_6554_58534" x1="72.0706" y1="4.91488" x2="72.0706" y2="15.3049" gradientUnits="userSpaceOnUse">
<stop stop-color="white"/>
<stop offset="1" stop-color="white" stop-opacity="0"/>
</linearGradient>
<clipPath id="clip0_6554_58534">
<rect width="114" height="72" fill="white"/>
</clipPath>
</defs>
</svg>
