<svg width="114" height="72" viewBox="0 0 114 72" fill="none" xmlns="http://www.w3.org/2000/svg">
<g clip-path="url(#clip0_6554_59220)">
<path d="M114 68C114 70.21 112.21 72 110.005 72H3.995C1.79 72 0 70.21 0 68V4C0 1.79 1.79 0 3.995 0H110.005C112.21 0 114 1.79 114 4V68Z" fill="#D4E6BF"/>
<path d="M100.65 5.14014H99.9302V6.67514H96.9802V5.14014H96.2602C96.0852 5.14014 95.9502 5.28014 95.9502 5.45014V8.78514C95.9502 8.95514 96.0902 9.09514 96.2602 9.09514H96.9802V7.44514H99.9302V9.09514H100.65C100.82 9.09514 100.96 8.95514 100.96 8.78514V5.45014C100.96 5.28014 100.82 5.14014 100.65 5.14014Z" fill="#0661A6"/>
<path d="M94.805 5.14014H94.085V8.05514L91.815 5.75014C91.455 5.39514 91.205 5.14014 90.63 5.14014H90V8.78514C90 8.95514 90.14 9.09514 90.31 9.09514H91.03V6.16514L93.28 8.45514C93.65 8.82014 93.975 9.09514 94.51 9.09514H95.115V5.45014C95.115 5.28014 94.975 5.14014 94.805 5.14014Z" fill="#0661A6"/>
<path d="M109.015 7.35992L109.92 6.49992H109.6C109.445 6.49992 109.355 6.58492 109.28 6.65992C109.28 6.65992 108.75 7.17992 108.655 7.26992V5.66992H108.48C108.375 5.66992 108.285 5.75492 108.285 5.86492V8.24992C108.285 8.35492 108.375 8.44492 108.48 8.44492H108.655V7.46992C108.685 7.50492 109.41 8.29992 109.41 8.29992C109.49 8.38492 109.54 8.44492 109.705 8.44492H110.035C110.035 8.44492 109.035 7.37992 109.02 7.36492L109.015 7.35992Z" fill="#0661A6"/>
<path d="M107.115 6.5H106.225V8.245C106.225 8.35 106.31 8.44 106.42 8.44H106.6V6.805H107.075C107.37 6.825 107.47 6.995 107.47 7.455V8.44H107.645C107.75 8.44 107.84 8.355 107.84 8.245V7.335C107.84 6.79 107.59 6.5 107.11 6.5H107.115Z" fill="#0661A6"/>
<path d="M103.335 7.09492C103.625 6.97992 103.8 6.79492 103.8 6.46492C103.8 6.01992 103.485 5.79492 102.865 5.79492H102.34C102.235 5.79492 102.145 5.87992 102.145 5.98992V8.24992C102.145 8.35492 102.23 8.44492 102.34 8.44492H102.855C103.535 8.44492 103.865 8.21492 103.865 7.73492C103.865 7.38492 103.635 7.15992 103.335 7.09992V7.09492ZM102.74 6.91492H102.545V6.11992H102.93C103.07 6.11992 103.405 6.15492 103.405 6.49992C103.405 6.87992 103.105 6.90992 102.74 6.90992V6.91492ZM103.45 7.69492C103.45 7.98492 103.255 8.10992 102.815 8.10992H102.54V7.23992H102.775C103.09 7.23992 103.45 7.28992 103.45 7.69492Z" fill="#0661A6"/>
<path d="M104.9 8.15008C104.735 8.15008 104.555 8.04008 104.555 7.86008C104.555 7.55008 105.015 7.52008 105.21 7.52008H105.425V8.15008H104.9ZM105.605 8.44008C105.71 8.44008 105.8 8.35508 105.8 8.24508V7.26008C105.8 6.71008 105.555 6.45508 105.02 6.45508C104.81 6.45508 104.6 6.51508 104.4 6.62508V6.96508L104.415 6.95508C104.555 6.83508 104.77 6.76008 104.965 6.76008C105.29 6.76008 105.425 6.90008 105.43 7.24008C105.295 7.23508 105.2 7.23508 105.065 7.23508C104.755 7.23508 104.165 7.36508 104.165 7.86008C104.165 8.23508 104.42 8.44008 104.88 8.44008H105.61H105.605Z" fill="#0661A6"/>
<path d="M7.85499 4.72998C7.85499 4.72998 7.13999 4.96998 7.16999 5.36998C7.22499 6.02498 9.61499 5.58498 11.435 4.82998C11.435 4.82998 7.06999 7.21998 6.05499 6.00498C6.05499 6.00498 5.88999 5.55998 6.42999 5.23998C7.08999 4.84998 7.85499 4.72998 7.85499 4.72998Z" fill="#F29100"/>
<path d="M11.4352 4.83003C11.8802 4.74503 11.0502 5.17503 11.0502 5.17503L6.45518 7.69003C6.45518 7.69003 5.74018 8.01503 5.76018 8.46003C5.77518 8.77503 6.74518 8.32003 7.42518 7.98503C7.33518 8.02503 7.27018 8.05003 7.23018 8.06503C6.87018 8.17003 7.96518 7.58003 7.96518 7.58003L11.5102 5.63503C11.5102 5.63503 12.5152 5.10003 12.5152 4.71503C12.5152 4.33003 11.4352 4.83503 11.4352 4.83503V4.83003Z" fill="#38A935"/>
<path d="M9.47546 7.56999C9.47046 7.94499 8.47046 8.47499 8.47046 8.47499C6.69546 9.61499 7.22546 10.64 7.22546 10.64C7.48046 11.26 8.04046 11.21 8.65546 10.535C9.27046 9.85999 8.59046 9.80999 8.20046 9.49999C7.81046 9.18999 8.37046 8.76499 8.37046 8.76499C8.37046 8.76499 8.85546 8.46999 9.93546 7.90999C11.0955 7.30999 11.0755 6.89999 11.0755 6.89999C11.0755 6.15999 8.99546 7.18999 7.47046 7.96499C7.98546 7.76999 9.48046 7.04999 9.47546 7.57499V7.56999Z" fill="#302782"/>
<path d="M8.67957 5.00002C9.15957 5.00002 9.54957 4.61502 9.54957 4.13502C9.54957 3.65502 9.15957 3.27002 8.67957 3.27002C8.19957 3.27002 7.80957 3.65502 7.80957 4.13502C7.80957 4.61502 8.19957 5.00002 8.67957 5.00002Z" fill="#E20413"/>
<path d="M14.9695 7.27994V7.52494H15.9745C16.0595 7.52494 16.0995 7.56994 16.0995 7.65494L16.0095 8.03494H16.1045V8.31494H13.9195L13.9695 8.49994C13.9695 8.49994 13.9845 8.54494 13.9995 8.55494C14.0145 8.56994 14.0345 8.57994 14.0595 8.57994H16.2195V8.85994H13.6495C13.5645 8.85994 13.5145 8.81494 13.4995 8.73494L13.3945 8.31994H13.2045V8.03994H15.4745L15.5295 7.83494C15.5295 7.83494 15.5295 7.80494 15.4945 7.80494H13.2895V7.52994H14.4395V7.28494H13.0195V7.00494H16.3745V7.28494H14.9595L14.9695 7.27994ZM15.4795 6.69994C15.2395 6.78494 14.9645 6.82994 14.6645 6.82994C14.3495 6.82994 14.0745 6.78494 13.8245 6.69494C13.4995 6.56994 13.3445 6.39994 13.3545 6.16494C13.3645 5.97994 13.4995 5.81994 13.7545 5.67494C13.9495 5.56994 14.1845 5.49494 14.4495 5.43994H14.8695L14.8795 5.49994C14.6595 5.54994 14.4695 5.61494 14.3095 5.69994C14.0945 5.81994 13.9845 5.95494 13.9795 6.10494C13.9745 6.22994 14.0645 6.32994 14.2345 6.39994C14.3645 6.44994 14.5145 6.47994 14.6895 6.47994C14.8345 6.47994 14.9695 6.46494 15.0895 6.42494C15.2545 6.36994 15.3295 6.29494 15.3245 6.18494C15.3245 6.08494 15.2395 6.00994 15.0795 5.96494C14.9595 5.92494 14.8295 5.90994 14.6895 5.90994C14.5645 5.90994 14.4945 5.86494 14.5095 5.76494C14.5245 5.66994 14.5845 5.62494 14.6895 5.62494C14.9895 5.62494 15.2595 5.66494 15.4895 5.73494C15.8145 5.84494 15.9745 5.99994 15.9695 6.21494C15.9695 6.43494 15.8045 6.59494 15.4795 6.70994V6.69994Z" fill="#1C1C1B"/>
<path d="M19.1296 7.48977C18.9796 7.26477 18.8796 7.11977 18.8346 7.05477C18.6896 6.85977 18.5546 6.70477 18.4346 6.57977C18.3346 6.77977 18.1746 6.97977 17.9646 7.18977C17.7446 7.39977 17.5396 7.55477 17.3396 7.64477L17.1396 7.45977C17.3446 7.28977 17.5446 7.05977 17.7296 6.78477C17.9496 6.46477 18.0596 6.18977 18.0696 5.97477H17.3346V5.69477H19.3296V5.97477H18.6196C18.6096 6.08477 18.5846 6.19477 18.5546 6.29477C18.7496 6.44977 18.9096 6.58477 19.0396 6.70977C19.2496 6.89977 19.3996 7.06977 19.4846 7.21477L19.1296 7.49477V7.48977ZM19.7996 7.87477V5.78477C19.7996 5.78477 19.7896 5.74977 19.7796 5.73477C19.7696 5.71977 19.7446 5.70477 19.7246 5.70477L19.5946 5.69477V5.50977H20.3246V7.86977H19.8046L19.7996 7.87477ZM17.9296 8.85476C17.8646 8.85476 17.8046 8.82977 17.7596 8.78477C17.7146 8.73477 17.6946 8.67977 17.6946 8.61477L17.5796 7.77977H18.1246L18.2046 8.48977C18.2046 8.48977 18.2196 8.53477 18.2346 8.54477C18.2496 8.55477 18.2746 8.56476 18.2946 8.56476H20.3146V8.85476H17.9246H17.9296Z" fill="#1C1C1B"/>
<path d="M23.8149 6.96982V5.98482H21.5249V5.69482H24.3299V6.96982H23.8149ZM21.8699 8.85482C21.8049 8.85482 21.7499 8.82982 21.7049 8.78482C21.6599 8.73482 21.6399 8.67982 21.6399 8.61482L21.5199 7.76982H22.0649L22.1499 8.48982C22.1499 8.48982 22.1649 8.53482 22.1799 8.54482C22.1949 8.55482 22.2149 8.56482 22.2349 8.56482H24.4449V8.85482H21.8699ZM23.1949 7.43482V7.94982H22.6749V7.43482H21.2549V7.15982H24.6099V7.43482H23.1949Z" fill="#1C1C1B"/>
<path d="M91.4597 54.0952V52.1452H95.1997V51.6152H91.4247V50.9002H93.3597V50.1852H89.7197V49.4702H98.4297V50.1852H94.7897V50.9002H96.6297V52.8602H92.8897V53.3902H96.7297V54.0902H91.4597V54.0952Z" fill="#12A438"/>
<path d="M106.125 51.8251L103.73 50.1851H105.94V49.4751H100.07V50.1851H102.26L99.8652 51.8251L100.93 52.2951L102.995 50.9001L105.06 52.2951L106.125 51.8251Z" fill="#12A438"/>
<path d="M106.285 52.835H104.855V55.22H110.03V54.52H106.285V52.835Z" fill="#12A438"/>
<path d="M110.025 47.9849H108.595V51.8899H110.025V47.9849Z" fill="#12A438"/>
<path d="M94.0797 46.165C92.6147 46.165 91.4297 46.785 91.4297 47.545C91.4297 48.305 92.6197 48.925 94.0797 48.925C95.5397 48.925 96.7297 48.305 96.7297 47.545C96.7297 46.785 95.5397 46.165 94.0797 46.165ZM94.0797 48.18C93.4047 48.18 92.8597 47.895 92.8597 47.545C92.8597 47.195 93.4047 46.91 94.0797 46.91C94.7547 46.91 95.2997 47.195 95.2997 47.545C95.2997 47.895 94.7547 48.18 94.0797 48.18Z" fill="#12A438"/>
<path d="M6.13477 52.2651H10.6948V51.5501H7.56477V50.1901H10.6948V49.4751H6.13477V52.2651Z" fill="#12A438"/>
<path d="M15.355 47.9849V49.4749H13.72V47.9849H12.29V52.5299H13.72V50.1899H15.355V52.5299H16.785V47.9849H15.355Z" fill="#12A438"/>
<path d="M25.1097 52.8398H23.6797V55.2198H28.8497V54.5198H25.1097V52.8398Z" fill="#12A438"/>
<path d="M28.8499 49.4749V47.9849H27.4199V51.8899H28.8499V50.1899H30.8549V49.4749H28.8499Z" fill="#12A438"/>
<path d="M38.1946 52.8398H36.7646V55.2198H41.9396V54.5198H38.1946V52.8398Z" fill="#12A438"/>
<path d="M41.9349 47.9849H40.5049V51.8899H41.9349V47.9849Z" fill="#12A438"/>
<path d="M45.865 50.9002H47.765V50.1852H44.125V49.4702H52.835V50.1852H49.195V50.9002H51.035V53.3902H49.605V51.6152H45.865V50.9002ZM45.865 46.4502H51.04V48.8452H49.61V47.1652H45.87V46.4502H45.865Z" fill="#12A438"/>
<path d="M61.8702 49.4751H54.3652V50.1901H61.8702V49.4751Z" fill="#12A438"/>
<path d="M64.43 45.5151H63V50.4001H64.43V45.5151Z" fill="#12A438"/>
<path d="M58.1197 46.165C56.6547 46.165 55.4697 46.785 55.4697 47.545C55.4697 48.305 56.6597 48.925 58.1197 48.925C59.5797 48.925 60.7697 48.305 60.7697 47.545C60.7697 46.785 59.5797 46.165 58.1197 46.165ZM58.1197 48.18C57.4447 48.18 56.8997 47.895 56.8997 47.545C56.8997 47.195 57.4447 46.91 58.1197 46.91C58.7947 46.91 59.3397 47.195 59.3397 47.545C59.3397 47.895 58.7947 48.18 58.1197 48.18Z" fill="#12A438"/>
<path d="M25.7098 49.475H23.0948V48.625H21.6648V49.475H19.0498V50.19H20.2748C19.9348 50.42 19.7348 50.71 19.7348 51.025C19.7348 51.785 20.9248 52.405 22.3848 52.405C23.8448 52.405 25.0348 51.785 25.0348 51.025C25.0348 50.71 24.8298 50.425 24.4948 50.19H25.7198V49.475H25.7098ZM22.3748 51.66C21.6998 51.66 21.1548 51.375 21.1548 51.025C21.1548 50.675 21.6998 50.39 22.3748 50.39C23.0498 50.39 23.5948 50.675 23.5948 51.025C23.5948 51.375 23.0498 51.66 22.3748 51.66Z" fill="#12A438"/>
<path d="M37.2746 49.4751H32.0996V52.2651H37.2746V49.4751ZM35.8446 51.5501H33.5346V50.1901H35.8446V51.5501Z" fill="#12A438"/>
<path d="M72.8755 41.2451L70.1405 39.7251L67.3555 42.2801L72.8755 41.2451Z" fill="#93C01E"/>
<path d="M79.5197 36.0901C79.0647 35.6751 77.8447 35.8401 77.8447 36.3201V39.5651L81.4597 37.8701L79.5197 36.0901ZM78.5397 38.2951C78.5397 38.2951 78.4197 37.9151 78.7997 37.7001C79.1847 37.4901 79.9247 37.5251 79.9247 37.5251C79.9247 37.5251 80.0447 37.9051 79.6647 38.1201C79.2847 38.3301 78.5397 38.2951 78.5397 38.2951Z" fill="#009F79"/>
<path d="M74.095 36.0901L71.21 38.7401L75.775 41.2701V36.3201C75.775 35.8401 74.555 35.6751 74.1 36.0901H74.095ZM75.225 39.2201C75.225 39.2201 73.99 39.3101 73.32 38.9751C72.65 38.6351 72.8 37.9901 72.8 37.9901C72.8 37.9901 74.035 37.8951 74.705 38.2351C75.375 38.5751 75.225 39.2201 75.225 39.2201Z" fill="#12A438"/>
<path d="M73.7203 41.7148L66.5003 43.0698L65.8703 43.6448C65.4803 44.0048 65.9753 44.4448 66.7703 44.4448H74.0603C75.0053 44.4448 75.7703 44.0448 75.7703 43.5548V42.8498L73.7203 41.7148ZM70.7303 43.5998C70.4653 43.8548 69.7303 43.9148 69.7303 43.9148C69.7303 43.9148 69.4253 43.5598 69.6953 43.3048C69.9603 43.0498 70.6953 42.9898 70.6953 42.9898C70.6953 42.9898 71.0003 43.3448 70.7303 43.5998ZM74.0753 43.5398C74.0753 43.5398 73.0103 43.6198 72.4303 43.3248C71.8503 43.0298 71.9803 42.4748 71.9803 42.4748C71.9803 42.4748 73.0453 42.3948 73.6253 42.6898C74.2053 42.9848 74.0753 43.5398 74.0753 43.5398Z" fill="#009F79"/>
<path d="M82.0297 38.3951L77.8447 40.3551V42.7451L85.3097 41.4051L82.0297 38.3901V38.3951ZM80.3897 41.1151C80.3897 41.1151 79.6547 41.1801 79.2447 40.9801C78.8397 40.7801 78.9097 40.3951 78.9097 40.3951C78.9097 40.3951 79.6447 40.3301 80.0547 40.5301C80.4597 40.7301 80.3897 41.1151 80.3897 41.1151ZM81.6197 41.5851C81.6197 41.5851 81.2397 41.1151 81.5997 40.7851C81.9597 40.4551 82.9297 40.3851 82.9297 40.3851C82.9297 40.3851 83.3097 40.8551 82.9497 41.1851C82.5897 41.5151 81.6197 41.5851 81.6197 41.5851Z" fill="#93C01E"/>
<path d="M87.7447 43.6452L85.8797 41.9302L77.8447 43.3702V43.5552C77.8447 44.0452 78.6097 44.4452 79.5547 44.4452H86.8447C87.6347 44.4452 88.1347 44.0002 87.7447 43.6452ZM82.9247 43.5752C82.3247 43.3552 82.2747 42.8502 82.2747 42.8502C82.2747 42.8502 83.2047 42.6952 83.8097 42.9152C84.4097 43.1352 84.4597 43.6402 84.4597 43.6402C84.4597 43.6402 83.5297 43.7952 82.9247 43.5752Z" fill="#12A438"/>
<path d="M84.4102 54.1599C84.9952 54.0299 85.2952 53.8149 85.3202 53.5199H84.4501V52.6099H86.2202V53.3499C86.2202 53.9399 85.7452 54.3149 84.8102 54.4849L84.4102 54.1599Z" fill="#12A438"/>
<path d="M78.4802 48.2951V47.0701H83.1252V45.5151H70.7402V47.0701H75.3852V48.2951H70.7402V53.5201H83.1252V48.2951H78.4802ZM80.0252 51.9651H73.8402V49.8501H80.0252V51.9651Z" fill="#12A438"/>
<path d="M10.7048 20.6799H6.13477V20.1299H10.7048V20.6799ZM9.39977 18.2899C9.67477 18.3549 9.87977 18.4499 10.0198 18.5799C10.1598 18.7099 10.2348 18.8649 10.2348 19.0449C10.2348 19.2249 10.1648 19.3849 10.0198 19.5099C9.87477 19.6349 9.66977 19.7349 9.39977 19.7999C9.12977 19.8649 8.79977 19.8999 8.41477 19.8999C8.02977 19.8999 7.69977 19.8649 7.42977 19.7999C7.15977 19.7349 6.94977 19.6349 6.80477 19.5099C6.65977 19.3849 6.58977 19.2249 6.58977 19.0449C6.58977 18.8649 6.65977 18.7099 6.80477 18.5799C6.94977 18.4499 7.15477 18.3549 7.42977 18.2899C7.70477 18.2249 8.02977 18.1899 8.41477 18.1899C8.79977 18.1899 9.12477 18.2249 9.39977 18.2899ZM10.1448 22.2949H7.35477V22.7449H6.66477V21.7999H9.45477V21.5249H6.66477V21.0099H10.1498V22.2899L10.1448 22.2949ZM10.2748 23.1249H6.65977V22.5999H10.2748V23.1249ZM7.80477 18.7449C7.64477 18.7699 7.52477 18.8099 7.44477 18.8599C7.36477 18.9099 7.32477 18.9699 7.32477 19.0449C7.32477 19.1249 7.35977 19.1899 7.43977 19.2399C7.51977 19.2899 7.63977 19.3249 7.79477 19.3499C7.94977 19.3749 8.15977 19.3849 8.40977 19.3899C8.66477 19.3899 8.86977 19.3749 9.02977 19.3499C9.18977 19.3249 9.30977 19.2899 9.38477 19.2399C9.45977 19.1899 9.49977 19.1249 9.49977 19.0449C9.49977 18.9699 9.45977 18.9049 9.37977 18.8599C9.29977 18.8149 9.17977 18.7749 9.01977 18.7449C8.85977 18.7149 8.65477 18.7049 8.40477 18.7049C8.15477 18.7049 7.95477 18.7199 7.79477 18.7449H7.80477ZM8.75977 21.2299H8.05477V20.5299H8.75977V21.2299Z" fill="#222854"/>
<path d="M13.0902 20.0349C12.9852 20.3149 12.8202 20.5599 12.6052 20.7699C12.3902 20.9799 12.1252 21.1349 11.8152 21.2399L11.4502 20.6899C11.7202 20.6049 11.9452 20.4799 12.1252 20.3199C12.3052 20.1599 12.4452 19.9749 12.5302 19.7749C12.6152 19.5749 12.6652 19.3599 12.6652 19.1399V18.6999H13.2502V19.1399C13.2502 19.4599 13.1952 19.7599 13.0852 20.0399L13.0902 20.0349ZM14.3902 19.0649H11.6352V18.5049H14.3902V19.0649ZM12.9752 22.7899H12.2652V21.4399H12.9752V22.7899ZM15.7602 23.0749H12.2652V22.5049H15.7602V23.0749ZM13.5102 19.7349C13.5952 19.9249 13.7302 20.0949 13.9102 20.2499C14.0902 20.4049 14.3102 20.5149 14.5752 20.5949L14.2202 21.1499C13.9152 21.0499 13.6552 20.8999 13.4452 20.6999C13.2352 20.4999 13.0752 20.2649 12.9652 19.9999C12.8552 19.7349 12.8052 19.4449 12.8052 19.1349V18.6949H13.3802V19.1349C13.3802 19.3449 13.4252 19.5399 13.5102 19.7349ZM15.6202 21.7749H14.9202V18.1499H15.6202V21.7749Z" fill="#222854"/>
<path d="M21.3046 20.83H16.7246V20.275H21.3046V20.83ZM17.9596 22.64H17.2546V21.445H17.9596V22.64ZM20.8396 23.075H17.2546V22.505H20.8396V23.075ZM20.4746 18.94H17.2846V18.375H20.4746V18.94ZM19.3946 21.9H18.6946V20.6H19.3946V21.9ZM20.7346 19.68C20.7196 19.93 20.6746 20.215 20.6046 20.535L19.9046 20.465C19.9546 20.255 19.9896 20.06 20.0096 19.875C20.0296 19.69 20.0446 19.525 20.0546 19.38C20.0646 19.235 20.0646 19.06 20.0646 18.855V18.375H20.7646V18.81C20.7646 19.14 20.7546 19.43 20.7396 19.68H20.7346Z" fill="#222854"/>
<path d="M25.7953 18.7151C25.9903 18.8601 26.1453 19.0701 26.2553 19.3401C26.3653 19.6101 26.4203 19.9251 26.4203 20.2851C26.4203 20.6451 26.3653 20.9601 26.2553 21.2301C26.1453 21.5001 25.9903 21.7101 25.7953 21.8551C25.6003 22.0001 25.3753 22.0751 25.1253 22.0751C24.8753 22.0751 24.6453 22.0001 24.4503 21.8551C24.2553 21.7101 24.1003 21.5001 23.9903 21.2301C23.8803 20.9601 23.8203 20.6451 23.8203 20.2851C23.8203 19.9251 23.8753 19.6101 23.9903 19.3401C24.1053 19.0701 24.2553 18.8601 24.4503 18.7151C24.6453 18.5701 24.8703 18.4951 25.1253 18.4951C25.3803 18.4951 25.6003 18.5701 25.7953 18.7151ZM24.7953 19.2651C24.7003 19.3551 24.6303 19.4851 24.5753 19.6601C24.5203 19.8351 24.4953 20.0401 24.5003 20.2851C24.5003 20.5301 24.5253 20.7401 24.5753 20.9101C24.6303 21.0851 24.7003 21.2151 24.7953 21.3051C24.8903 21.3951 25.0003 21.4401 25.1253 21.4401C25.2503 21.4401 25.3653 21.3951 25.4603 21.3051C25.5553 21.2151 25.6303 21.0851 25.6803 20.9101C25.7303 20.7351 25.7553 20.5301 25.7553 20.2851C25.7553 20.0401 25.7303 19.8301 25.6803 19.6601C25.6303 19.4901 25.5553 19.3551 25.4603 19.2651C25.3653 19.1751 25.2553 19.1301 25.1253 19.1351C25.0003 19.1351 24.8903 19.1751 24.7953 19.2651ZM27.5753 20.5201H26.2103V19.9551H27.5753V20.5201ZM27.9703 23.1751H27.2753V18.1401H27.9703V23.1751Z" fill="#222854"/>
<path d="M33.62 22.5949H29.04V22.0199H33.62V22.5949ZM33.09 20.1549H30.265V21.0049H29.565V19.5949H32.395V19.0499H29.555V18.4849H33.085V20.1549H33.09ZM33.21 21.2799H29.57V20.7249H33.21V21.2799Z" fill="#222854"/>
<path d="M35.9446 19.86C35.8396 20.155 35.6796 20.415 35.4646 20.635C35.2496 20.855 34.9846 21.02 34.6746 21.13L34.3096 20.575C34.5796 20.485 34.8096 20.35 34.9896 20.18C35.1696 20.01 35.3046 19.815 35.3896 19.595C35.4746 19.375 35.5196 19.15 35.5196 18.91V18.43H36.1046V18.91C36.1046 19.25 36.0496 19.565 35.9446 19.86ZM35.8796 22.81H35.1696V21.455H35.8796V22.81ZM38.6646 23.075H35.1696V22.505H38.6646V23.075ZM36.3746 19.56C36.4596 19.765 36.5846 19.95 36.7646 20.115C36.9446 20.28 37.1596 20.4 37.4296 20.485L37.0696 21.04C36.7596 20.935 36.5046 20.78 36.2946 20.57C36.0846 20.36 35.9296 20.115 35.8246 19.83C35.7196 19.545 35.6696 19.24 35.6696 18.905V18.425H36.2596V18.905C36.2596 19.135 36.2996 19.355 36.3796 19.56H36.3746ZM38.5246 21.81H37.8246V18.145H38.5246V21.81Z" fill="#222854"/>
<path d="M12.6998 30.9301H6.1748V30.0301H12.6998V30.9301ZM11.9098 33.7501H10.7948V32.2651H6.8998V31.3851H11.9098V33.7501ZM11.8848 29.4251H6.9748V26.8701H11.8848V29.4251ZM8.0698 28.5501H10.7798V27.7401H8.0698V28.5501ZM9.9898 30.2951H8.8598V29.2351H9.9898V30.2951Z" fill="#8E3632"/>
<path d="M20.1998 30.9499H13.6748V30.0749H20.1998V30.9499ZM18.3248 26.8699C18.7198 26.9849 19.0248 27.1499 19.2398 27.3649C19.4548 27.5799 19.5598 27.8299 19.5598 28.1149C19.5598 28.3999 19.4548 28.6549 19.2398 28.8699C19.0248 29.0849 18.7248 29.2499 18.3248 29.3649C17.9298 29.4799 17.4648 29.5349 16.9348 29.5349C16.4048 29.5349 15.9398 29.4749 15.5448 29.3599C15.1498 29.2449 14.8448 29.0799 14.6248 28.8649C14.4098 28.6499 14.2998 28.3999 14.2998 28.1099C14.2998 27.8199 14.4098 27.5749 14.6248 27.3599C14.8398 27.1449 15.1498 26.9799 15.5448 26.8649C15.9398 26.7499 16.4048 26.6899 16.9348 26.6899C17.4648 26.6899 17.9298 26.7499 18.3248 26.8649V26.8699ZM19.4098 33.7499H18.2948V32.2749H14.3998V31.3949H19.4098V33.7499ZM16.2298 30.3149H15.0998V28.9849H16.2298V30.3149ZM16.1248 27.6249C15.9098 27.6649 15.7448 27.7249 15.6348 27.8049C15.5248 27.8849 15.4698 27.9899 15.4698 28.1149C15.4698 28.2399 15.5248 28.3449 15.6348 28.4249C15.7448 28.5049 15.9098 28.5699 16.1298 28.6099C16.3498 28.6499 16.6148 28.6699 16.9348 28.6699C17.2498 28.6699 17.5198 28.6549 17.7348 28.6099C17.9498 28.5699 18.1148 28.5049 18.2248 28.4249C18.3348 28.3449 18.3898 28.2399 18.3898 28.1149C18.3898 27.9899 18.3348 27.8849 18.2248 27.8049C18.1148 27.7249 17.9498 27.6649 17.7348 27.6249C17.5198 27.5849 17.2498 27.5699 16.9348 27.5699C16.6198 27.5699 16.3448 27.5899 16.1248 27.6249ZM18.7298 30.3149H17.6098V28.9849H18.7298V30.3149Z" fill="#8E3632"/>
<path d="M22.1699 33.855H21.0449L22.8599 27.085H23.9899L22.1649 33.855H22.1699Z" fill="#8E3632"/>
<path d="M27.9254 27.3852C28.2154 27.5952 28.4404 27.8952 28.6054 28.2852C28.7704 28.6752 28.8504 29.1252 28.8504 29.6402C28.8504 30.1552 28.7704 30.6152 28.6054 31.0052C28.4454 31.3952 28.2154 31.6952 27.9254 31.9052C27.6354 32.1152 27.3104 32.2202 26.9454 32.2202C26.5804 32.2202 26.2504 32.1202 25.9604 31.9102C25.6704 31.7002 25.4454 31.4002 25.2804 31.0102C25.1154 30.6202 25.0304 30.1652 25.0354 29.6452C25.0354 29.1302 25.1154 28.6802 25.2804 28.2902C25.4454 27.9002 25.6754 27.6002 25.9604 27.3902C26.2504 27.1802 26.5754 27.0752 26.9454 27.0752C27.3154 27.0752 27.6354 27.1802 27.9254 27.3902V27.3852ZM26.5054 28.2602C26.3804 28.3752 26.2854 28.5502 26.2154 28.7852C26.1504 29.0202 26.1154 29.3052 26.1204 29.6402C26.1204 29.9802 26.1504 30.2652 26.2154 30.4952C26.2804 30.7302 26.3754 30.9052 26.5004 31.0202C26.6254 31.1352 26.7704 31.1952 26.9404 31.1902C27.1054 31.1902 27.2504 31.1352 27.3754 31.0202C27.5004 30.9052 27.5954 30.7302 27.6604 30.4952C27.7254 30.2602 27.7604 29.9752 27.7604 29.6402C27.7604 29.3052 27.7254 29.0202 27.6604 28.7902C27.5954 28.5602 27.5004 28.3852 27.3754 28.2652C27.2504 28.1452 27.1054 28.0902 26.9404 28.0902C26.7754 28.0902 26.6254 28.1452 26.5004 28.2602H26.5054ZM30.8604 33.7652H29.7154V26.5752H30.8604V33.7652Z" fill="#8E3632"/>
<path d="M32.9648 31.1352C32.8548 31.0702 32.7698 30.9852 32.7048 30.8752C32.6398 30.7652 32.6098 30.6502 32.6148 30.5202C32.6148 30.3952 32.6448 30.2802 32.7048 30.1752C32.7698 30.0702 32.8548 29.9852 32.9648 29.9202C33.0748 29.8552 33.1948 29.8252 33.3198 29.8252C33.4448 29.8252 33.5548 29.8552 33.6648 29.9202C33.7748 29.9802 33.8598 30.0702 33.9248 30.1752C33.9898 30.2852 34.0248 30.4002 34.0248 30.5202C34.0248 30.6502 33.9898 30.7702 33.9248 30.8752C33.8598 30.9852 33.7748 31.0702 33.6648 31.1352C33.5548 31.2002 33.4398 31.2302 33.3198 31.2302C33.1998 31.2302 33.0748 31.2002 32.9648 31.1352Z" fill="#8E3632"/>
<path d="M39.1154 32.0701H35.6104V27.2201H39.1154V32.0701ZM36.7304 31.1901H38.0204V28.0951H36.7304V31.1901ZM41.2904 33.7701H40.1454V26.5801H41.2904V33.7701Z" fill="#8E3632"/>
<path d="M49.3004 30.8298H42.7754V29.9298H49.3004V30.8298ZM47.4204 26.8448C47.8154 26.9598 48.1204 27.1198 48.3354 27.3298C48.5504 27.5398 48.6604 27.7898 48.6604 28.0748C48.6604 28.3598 48.5554 28.6048 48.3404 28.8098C48.1254 29.0148 47.8254 29.1698 47.4254 29.2798C47.0254 29.3898 46.5654 29.4398 46.0354 29.4398C45.5054 29.4398 45.0354 29.3848 44.6404 29.2798C44.2454 29.1748 43.9404 29.0148 43.7254 28.8098C43.5104 28.6048 43.4054 28.3598 43.4054 28.0748C43.4054 27.7898 43.5104 27.5398 43.7254 27.3298C43.9404 27.1198 44.2454 26.9548 44.6404 26.8448C45.0354 26.7298 45.5004 26.6748 46.0354 26.6748C46.5704 26.6748 47.0254 26.7298 47.4204 26.8448ZM47.3604 31.2898C47.7354 31.3898 48.0254 31.5348 48.2204 31.7348C48.4204 31.9298 48.5204 32.1648 48.5204 32.4398C48.5204 32.7198 48.4154 32.9598 48.2204 33.1498C48.0204 33.3448 47.7354 33.4898 47.3604 33.5898C46.9854 33.6898 46.5404 33.7398 46.0204 33.7398C45.5004 33.7398 45.0454 33.6898 44.6654 33.5898C44.2904 33.4898 44.0004 33.3448 43.8004 33.1498C43.6004 32.9548 43.5004 32.7198 43.5004 32.4398C43.5004 32.1598 43.6004 31.9298 43.8004 31.7348C44.0004 31.5398 44.2904 31.3898 44.6654 31.2898C45.0404 31.1898 45.4954 31.1398 46.0204 31.1398C46.5454 31.1398 46.9804 31.1898 47.3554 31.2898H47.3604ZM45.3304 30.2798H44.2004V28.9798H45.3304V30.2798ZM45.2254 27.5998C45.0104 27.6398 44.8454 27.6998 44.7354 27.7798C44.6254 27.8598 44.5704 27.9598 44.5704 28.0798C44.5704 28.1998 44.6254 28.2948 44.7354 28.3748C44.8454 28.4548 45.0104 28.5098 45.2254 28.5448C45.4404 28.5798 45.7104 28.5998 46.0354 28.5998C46.3604 28.5998 46.6254 28.5798 46.8404 28.5448C47.0554 28.5098 47.2204 28.4498 47.3304 28.3748C47.4404 28.2948 47.4954 28.1998 47.4954 28.0798C47.4954 27.9598 47.4404 27.8598 47.3304 27.7798C47.2204 27.6998 47.0554 27.6398 46.8404 27.5998C46.6254 27.5598 46.3554 27.5398 46.0404 27.5398C45.7254 27.5398 45.4504 27.5598 45.2304 27.5998H45.2254ZM45.2454 32.0348C45.0454 32.0648 44.8954 32.1148 44.7954 32.1798C44.6954 32.2448 44.6454 32.3348 44.6454 32.4398C44.6454 32.5448 44.6954 32.6348 44.7954 32.7048C44.8954 32.7748 45.0454 32.8248 45.2454 32.8598C45.4454 32.8948 45.7054 32.9098 46.0254 32.9098C46.3454 32.9098 46.5854 32.8948 46.7904 32.8598C46.9954 32.8248 47.1454 32.7748 47.2454 32.7048C47.3454 32.6348 47.3954 32.5448 47.3954 32.4398C47.3954 32.3348 47.3454 32.2498 47.2454 32.1798C47.1454 32.1098 46.9954 32.0648 46.7954 32.0348C46.5954 32.0048 46.3354 31.9898 46.0254 31.9898C45.7154 31.9898 45.4504 32.0048 45.2454 32.0348ZM47.8354 30.2798H46.7154V28.9798H47.8354V30.2798Z" fill="#8E3632"/>
<path d="M7.495 38.7201H8.785V37.0251H9.91V41.9901H6.375V37.0251H7.495V38.7201ZM8.785 41.0801V39.5851H7.495V41.0801H8.785ZM11.845 43.6251H10.72V36.4551H11.845V43.6251ZM12.86 40.0301H11.6V39.0951H12.86V40.0301Z" fill="#8E3632"/>
<path d="M20.205 41.3449H13.665V40.4349H20.205V41.3449ZM18.28 36.8899C18.68 37.0249 18.99 37.2149 19.215 37.4649C19.44 37.7149 19.55 37.9999 19.55 38.3299C19.55 38.6599 19.44 38.9349 19.215 39.1799C18.995 39.4249 18.68 39.6099 18.28 39.7399C17.88 39.8699 17.425 39.9349 16.91 39.9349C16.395 39.9349 15.945 39.8699 15.545 39.7399C15.145 39.6099 14.84 39.4199 14.615 39.1799C14.395 38.9349 14.285 38.6549 14.285 38.3299C14.285 38.0049 14.395 37.7149 14.615 37.4649C14.835 37.2149 15.145 37.0249 15.545 36.8899C15.945 36.7549 16.4 36.6899 16.91 36.6899C17.42 36.6899 17.88 36.7549 18.28 36.8899ZM16.125 37.6699C15.905 37.7249 15.74 37.8099 15.62 37.9199C15.505 38.0349 15.445 38.1699 15.45 38.3299C15.45 38.4849 15.505 38.6199 15.62 38.7299C15.735 38.8399 15.905 38.9199 16.125 38.9749C16.345 39.0299 16.605 39.0549 16.915 39.0549C17.225 39.0549 17.485 39.0299 17.705 38.9749C17.925 38.9199 18.095 38.8399 18.21 38.7299C18.325 38.6199 18.385 38.4899 18.385 38.3299C18.385 38.1699 18.325 38.0349 18.21 37.9199C18.095 37.8049 17.925 37.7249 17.705 37.6699C17.485 37.6149 17.22 37.5849 16.915 37.5849C16.61 37.5849 16.345 37.6149 16.125 37.6699ZM17.465 43.6399H16.355V41.0199H17.465V43.6399Z" fill="#8E3632"/>
<path d="M23.4601 40.1851C23.3201 40.6651 23.1001 41.0951 22.8051 41.4701C22.5101 41.8451 22.1451 42.1251 21.7101 42.3101L21.1201 41.4451C21.4951 41.2801 21.8101 41.0451 22.0601 40.7451C22.3101 40.4451 22.4951 40.1151 22.6101 39.7551C22.7251 39.3951 22.7851 39.0401 22.7901 38.6801V38.3501H23.6651V38.6801C23.6651 39.2001 23.5951 39.7001 23.4551 40.1801L23.4601 40.1851ZM25.3201 38.5001H21.3701V37.6101H25.3201V38.5001ZM23.9301 38.0701H22.8101V36.6351H23.9301V38.0701ZM24.1001 39.7151C24.2201 40.0551 24.4051 40.3701 24.6601 40.6601C24.9151 40.9501 25.2351 41.1751 25.6201 41.3451L25.0201 42.1951C24.5801 42.0151 24.2151 41.7451 23.9151 41.3851C23.6151 41.0251 23.4001 40.6101 23.2551 40.1401C23.1101 39.6751 23.0401 39.1851 23.0401 38.6801V38.3501H23.9151V38.6801C23.9151 39.0251 23.9751 39.3701 24.0951 39.7151H24.1001ZM26.3801 40.0701H24.9301V39.1751H26.3801V40.0701ZM27.2601 43.6451H26.1351V36.4551H27.2601V43.6451Z" fill="#8E3632"/>
<path d="M32.1654 39.3301C32.0004 39.9601 31.6854 40.5501 31.2204 41.1001C30.7554 41.6501 30.0854 42.1401 29.2204 42.5751L28.6104 41.7301C29.3404 41.3651 29.9004 40.9701 30.2954 40.5451C30.6854 40.1201 30.9554 39.6501 31.1054 39.1401C31.2504 38.6251 31.3254 38.0051 31.3254 37.2801V37.1351H32.4154C32.4154 37.9701 32.3304 38.7051 32.1654 39.3351V39.3301ZM28.8254 39.9901L28.7004 39.0351L31.3854 38.8851V39.7501L28.8254 39.9901ZM31.9904 38.0251H29.0804V37.1301H31.9904V38.0251ZM34.3554 43.6101H33.2304V36.4551H34.3554V43.6101ZM35.3204 40.0751H34.0653V39.1551H35.3204V40.0751Z" fill="#8E3632"/>
<path d="M42.7197 42.7899H36.1797V41.8699H42.7197V42.7899ZM41.9747 37.9449H38.0347V40.1099H36.9247V37.0449H41.9697V37.9449H41.9747ZM42.0197 40.6299H36.9247V39.7399H42.0197V40.6299Z" fill="#8E3632"/>
<path d="M12.1545 62.6302C12.0545 62.6902 11.8945 62.7102 11.7895 62.7102C11.1695 62.7102 10.7695 62.2202 10.7695 61.5702C10.7695 60.8802 11.2245 60.4102 11.8895 60.4102C12.5545 60.4102 13.0095 60.8752 13.0095 61.5502C13.0095 61.8202 12.8695 62.1652 12.7445 62.4552L11.9445 64.3502H11.4045L12.1545 62.6352V62.6302ZM11.8895 60.8502C11.5095 60.8502 11.2545 61.1302 11.2545 61.5702C11.2545 62.0102 11.5145 62.2902 11.8895 62.2902C12.2645 62.2902 12.5245 62.0002 12.5245 61.5702C12.5245 61.1402 12.2695 60.8502 11.8895 60.8502Z" fill="#000001"/>
<path d="M16.2146 64.3448H13.9346V63.9398L15.3046 62.3198C15.5696 62.0098 15.7446 61.7448 15.7446 61.4498C15.7446 61.0448 15.4346 60.8398 15.1146 60.8398C14.7646 60.8398 14.4896 61.0498 14.4796 61.4498H13.9996C13.9996 60.8048 14.5046 60.4048 15.1146 60.4048C15.7246 60.4048 16.2296 60.8048 16.2296 61.4698C16.2296 61.9348 15.8896 62.3048 15.6446 62.6048L14.5746 63.9048H16.2196V64.3448H16.2146Z" fill="#000001"/>
<path d="M17.7902 62.3252C17.4802 62.1752 17.2552 61.8452 17.2552 61.4802C17.2552 60.8302 17.7852 60.4102 18.3702 60.4102C18.9552 60.4102 19.4852 60.8352 19.4852 61.4802C19.4852 61.8452 19.2552 62.1752 18.9452 62.3252C19.2602 62.4552 19.5402 62.8102 19.5402 63.2502C19.5402 63.9402 18.9752 64.3902 18.3702 64.3902C17.7652 64.3902 17.2002 63.9402 17.2002 63.2502C17.2002 62.8102 17.4852 62.4552 17.7902 62.3252ZM18.3702 63.9502C18.7552 63.9502 19.0602 63.6352 19.0602 63.2502C19.0602 62.8202 18.7002 62.5552 18.3702 62.5552C18.0402 62.5552 17.6852 62.8202 17.6852 63.2502C17.6852 63.6352 17.9802 63.9502 18.3702 63.9502ZM18.3702 62.1202C18.7202 62.1202 19.0002 61.8302 19.0002 61.4752C19.0002 61.1202 18.7202 60.8452 18.3702 60.8452C18.0202 60.8452 17.7352 61.1252 17.7352 61.4752C17.7352 61.8252 18.0152 62.1202 18.3702 62.1202Z" fill="#000001"/>
<path d="M22.6999 64.3448H20.4199V63.9398L21.7899 62.3198C22.0549 62.0098 22.2299 61.7448 22.2299 61.4498C22.2299 61.0448 21.9199 60.8398 21.5999 60.8398C21.2499 60.8398 20.9749 61.0498 20.9649 61.4498H20.4849C20.4849 60.8048 20.9899 60.4048 21.5999 60.4048C22.2099 60.4048 22.7149 60.8048 22.7149 61.4698C22.7149 61.9348 22.3749 62.3048 22.1299 62.6048L21.0599 63.9048H22.7049V64.3448H22.6999Z" fill="#000001"/>
<path d="M29.6353 63.2648C29.6353 63.9798 29.1053 64.3898 28.5203 64.3898C27.9353 64.3898 27.4053 63.9848 27.4053 63.2598V61.5348C27.4053 60.8148 27.9353 60.4048 28.5203 60.4048C29.1053 60.4048 29.6353 60.8098 29.6353 61.5298V63.2648ZM28.5203 60.8448C28.1653 60.8448 27.8853 61.1098 27.8853 61.5298V63.2648C27.8853 63.6848 28.1653 63.9498 28.5203 63.9498C28.8753 63.9498 29.1503 63.6848 29.1503 63.2648V61.5298C29.1503 61.1098 28.8703 60.8448 28.5203 60.8448Z" fill="#000001"/>
<path d="M32.0295 62.6302C31.9295 62.6902 31.7695 62.7102 31.6645 62.7102C31.0445 62.7102 30.6445 62.2202 30.6445 61.5702C30.6445 60.8802 31.0995 60.4102 31.7645 60.4102C32.4295 60.4102 32.8845 60.8752 32.8845 61.5502C32.8845 61.8202 32.7445 62.1652 32.6195 62.4552L31.8195 64.3502H31.2795L32.0295 62.6352V62.6302ZM31.7645 60.8502C31.3845 60.8502 31.1295 61.1302 31.1295 61.5702C31.1295 62.0102 31.3895 62.2902 31.7645 62.2902C32.1395 62.2902 32.3995 62.0002 32.3995 61.5702C32.3995 61.1402 32.1445 60.8502 31.7645 60.8502Z" fill="#000001"/>
<path d="M36.1148 63.2648C36.1148 63.9798 35.5848 64.3898 34.9998 64.3898C34.4148 64.3898 33.8848 63.9848 33.8848 63.2598V61.5348C33.8848 60.8148 34.4148 60.4048 34.9998 60.4048C35.5848 60.4048 36.1148 60.8098 36.1148 61.5298V63.2648ZM34.9998 60.8448C34.6448 60.8448 34.3648 61.1098 34.3648 61.5298V63.2648C34.3648 63.6848 34.6448 63.9498 34.9998 63.9498C35.3548 63.9498 35.6298 63.6848 35.6298 63.2648V61.5298C35.6298 61.1098 35.3498 60.8448 34.9998 60.8448Z" fill="#000001"/>
<path d="M37.1504 61.5752V60.4502H39.3354V60.8902L38.1004 64.3402H37.5904L38.8304 60.8902H37.5904V61.5752H37.1504Z" fill="#000001"/>
<path d="M45.4796 64.3452H44.9946V61.0102L44.4346 61.4102V60.8802L44.9946 60.4502H45.4796V64.3452Z" fill="#000001"/>
<path d="M49.4802 64.3448H47.2002V63.9398L48.5702 62.3198C48.8352 62.0098 49.0102 61.7448 49.0102 61.4498C49.0102 61.0448 48.7002 60.8398 48.3802 60.8398C48.0302 60.8398 47.7552 61.0498 47.7452 61.4498H47.2652C47.2652 60.8048 47.7702 60.4048 48.3802 60.4048C48.9902 60.4048 49.4952 60.8048 49.4952 61.4698C49.4952 61.9348 49.1552 62.3048 48.9102 62.6048L47.8402 63.9048H49.4852V64.3448H49.4802Z" fill="#000001"/>
<path d="M52.7495 63.2648C52.7495 63.9798 52.2195 64.3898 51.6345 64.3898C51.0495 64.3898 50.5195 63.9848 50.5195 63.2598V61.5348C50.5195 60.8148 51.0495 60.4048 51.6345 60.4048C52.2195 60.4048 52.7495 60.8098 52.7495 61.5298V63.2648ZM51.6345 60.8448C51.2795 60.8448 50.9995 61.1098 50.9995 61.5298V63.2648C50.9995 63.6848 51.2795 63.9498 51.6345 63.9498C51.9895 63.9498 52.2645 63.6848 52.2645 63.2648V61.5298C52.2645 61.1098 51.9845 60.8448 51.6345 60.8448Z" fill="#000001"/>
<path d="M54.3095 62.4752H53.8645V60.4502H55.8345V60.9352H54.3295V61.9552C54.4545 61.8152 54.6495 61.7002 54.9495 61.7002C55.6695 61.7002 55.9995 62.2552 55.9995 63.1302C55.9995 63.8952 55.6045 64.3902 54.8595 64.3902C54.2545 64.3902 53.8095 63.9652 53.7695 63.4302H54.2445C54.3195 63.7602 54.5445 63.9502 54.8595 63.9502C55.2595 63.9502 55.5145 63.7202 55.5145 63.1302C55.5145 62.5402 55.3245 62.1902 54.8595 62.1902C54.5945 62.1902 54.4145 62.3252 54.3095 62.4802V62.4752Z" fill="#000001"/>
<path d="M62.1153 64.3452H61.6303V61.0102L61.0703 61.4102V60.8802L61.6303 60.4502H62.1153V64.3452Z" fill="#000001"/>
<path d="M66.1402 63.2648C66.1402 63.9798 65.6102 64.3898 65.0252 64.3898C64.4402 64.3898 63.9102 63.9848 63.9102 63.2598V61.5348C63.9102 60.8148 64.4402 60.4048 65.0252 60.4048C65.6102 60.4048 66.1402 60.8098 66.1402 61.5298V63.2648ZM65.0252 60.8448C64.6702 60.8448 64.3902 61.1098 64.3902 61.5298V63.2648C64.3902 63.6848 64.6702 63.9498 65.0252 63.9498C65.3802 63.9498 65.6552 63.6848 65.6552 63.2648V61.5298C65.6552 61.1098 65.3752 60.8448 65.0252 60.8448Z" fill="#000001"/>
<path d="M69.3503 64.3448H67.0703V63.9398L68.4403 62.3198C68.7053 62.0098 68.8803 61.7448 68.8803 61.4498C68.8803 61.0448 68.5703 60.8398 68.2503 60.8398C67.9003 60.8398 67.6253 61.0498 67.6153 61.4498H67.1353C67.1353 60.8048 67.6403 60.4048 68.2503 60.4048C68.8603 60.4048 69.3653 60.8048 69.3653 61.4698C69.3653 61.9348 69.0253 62.3048 68.7803 62.6048L67.7103 63.9048H69.3553V64.3448H69.3503Z" fill="#000001"/>
<path d="M72.6197 63.2648C72.6197 63.9798 72.0896 64.3898 71.5046 64.3898C70.9196 64.3898 70.3896 63.9848 70.3896 63.2598V61.5348C70.3896 60.8148 70.9196 60.4048 71.5046 60.4048C72.0896 60.4048 72.6197 60.8098 72.6197 61.5298V63.2648ZM71.5046 60.8448C71.1496 60.8448 70.8697 61.1098 70.8697 61.5298V63.2648C70.8697 63.6848 71.1496 63.9498 71.5046 63.9498C71.8596 63.9498 72.1347 63.6848 72.1347 63.2648V61.5298C72.1347 61.1098 71.8546 60.8448 71.5046 60.8448Z" fill="#000001"/>
</g>
<defs>
<clipPath id="clip0_6554_59220">
<rect width="114" height="72" fill="white"/>
</clipPath>
</defs>
</svg>
