<svg width="114" height="72" viewBox="0 0 114 72" fill="none" xmlns="http://www.w3.org/2000/svg">
<g clip-path="url(#clip0_6554_65405)">
<path d="M114 68C114 70.21 112.22 72 110.025 72H3.975C1.78 72 0 70.21 0 68V4C0 1.79 1.78 0 3.975 0H110.02C112.215 0 113.995 1.79 113.995 4V68H114Z" fill="#ECF5EE"/>
<path d="M11.7697 6.98477C11.7697 6.98477 11.7697 6.98477 11.7647 6.98477C11.7497 6.97477 11.7297 6.96477 11.7147 6.95477C11.2647 6.66477 11.2097 6.39977 11.2847 6.07977C11.3797 5.67477 11.5597 5.38477 11.5597 5.38477C11.3597 5.44477 11.1647 5.57477 11.1647 5.57477C10.5047 5.48977 10.2097 5.94477 10.0047 6.29977C9.85473 6.55977 9.64973 6.60977 9.54973 6.61477C9.52973 6.61477 9.50973 6.61477 9.49473 6.61477H9.47973C8.89973 6.61477 8.34973 6.46477 7.87973 6.19477C7.87973 6.21477 7.86973 6.23477 7.85973 6.24977C7.82473 6.28977 7.76973 6.28977 7.72973 6.25977C7.76973 6.29477 7.76973 6.34977 7.73973 6.38977C7.70473 6.42977 7.64973 6.42977 7.60973 6.39977C7.64973 6.43477 7.64973 6.48977 7.61973 6.52977C7.58473 6.56977 7.52973 6.56977 7.48973 6.53977C7.52973 6.56977 7.52973 6.62977 7.49973 6.66977C7.46473 6.70977 7.40973 6.70977 7.36973 6.67977C7.40973 6.70977 7.40973 6.76977 7.37973 6.80977C7.34473 6.84977 7.28973 6.84977 7.24973 6.81977C7.28973 6.84977 7.28973 6.90977 7.25973 6.94977C7.24973 6.96477 7.23473 6.96977 7.21973 6.97477C7.96473 7.93977 9.07473 8.22477 9.27473 8.26977C9.49473 8.31477 9.72473 8.33977 9.95473 8.33977C9.95473 8.33977 10.2897 8.33977 10.5347 8.38977C11.1697 8.54477 11.6447 9.10977 11.6447 9.79477C11.6447 10.5948 10.9947 11.2398 10.1997 11.2398C10.0597 11.2398 9.92473 11.2198 9.79973 11.1798C10.0247 11.2498 10.2647 11.2898 10.5097 11.2898C11.7947 11.2898 12.8397 10.2448 12.8397 8.95977C12.8397 8.13477 12.4097 7.40977 11.7647 6.99977L11.7697 6.98477ZM8.26973 6.40477C8.26973 6.40477 8.30473 6.38477 8.32473 6.40477C8.33973 6.41977 8.33973 6.43977 8.32473 6.45977C8.30973 6.47477 8.28973 6.47477 8.26973 6.45977C8.25473 6.44477 8.25473 6.42477 8.26973 6.40477ZM8.16973 6.49977C8.16973 6.49977 8.22473 6.47477 8.24473 6.49477C8.26473 6.51477 8.26973 6.54977 8.24973 6.56977C8.22973 6.58977 8.19473 6.59477 8.17473 6.57477C8.14973 6.55477 8.14973 6.51977 8.16973 6.49977ZM8.25473 6.82477C8.25473 6.82477 8.20973 6.84477 8.18973 6.82477C8.16973 6.80977 8.16973 6.77977 8.18973 6.75977C8.20473 6.73977 8.23473 6.73977 8.25473 6.75977C8.27473 6.77477 8.27473 6.80477 8.25973 6.82477H8.25473ZM8.03473 6.37477C8.05973 6.34477 8.09973 6.34477 8.12473 6.36977C8.14973 6.39477 8.15473 6.43477 8.12973 6.45977C8.10473 6.48477 8.06473 6.48977 8.03973 6.46477C8.01473 6.43977 8.00973 6.39977 8.03473 6.37477ZM8.13973 6.70477C8.13973 6.70477 8.07973 6.72977 8.05973 6.70977C8.03473 6.68977 8.03473 6.65477 8.05473 6.62977C8.07473 6.60477 8.11473 6.60477 8.13473 6.62477C8.15973 6.64477 8.15973 6.68477 8.13973 6.70477ZM8.00973 6.58977C7.98473 6.61977 7.94473 6.61977 7.91973 6.59477C7.89473 6.56977 7.88973 6.52977 7.91473 6.50477C7.93973 6.47977 7.97973 6.47477 8.00473 6.49977C8.02973 6.52477 8.03473 6.56477 8.00973 6.58977ZM7.78473 6.64477C7.80973 6.61977 7.84973 6.61477 7.87473 6.63977C7.89973 6.66477 7.90473 6.70477 7.87973 6.72977C7.85473 6.75477 7.81473 6.75977 7.78973 6.73477C7.76473 6.70977 7.75973 6.66977 7.78473 6.64477ZM7.75473 6.87477C7.72973 6.90477 7.68973 6.90477 7.66473 6.87977C7.63973 6.85477 7.63473 6.81477 7.65973 6.78977C7.68473 6.76477 7.72473 6.75977 7.74973 6.78477C7.77473 6.80977 7.77973 6.84977 7.75473 6.87477ZM7.86973 6.25477C7.89473 6.22477 7.93973 6.21977 7.96973 6.24977C7.99973 6.27477 8.00473 6.31977 7.97973 6.34977C7.95473 6.37977 7.90973 6.38477 7.87973 6.35977C7.84973 6.33477 7.84473 6.28977 7.86973 6.25477ZM7.74973 6.39477C7.77473 6.36477 7.81973 6.35977 7.84973 6.38477C7.87973 6.40977 7.88473 6.45477 7.85973 6.48477C7.83473 6.51477 7.78973 6.51977 7.75973 6.48977C7.72973 6.46477 7.72473 6.41977 7.74973 6.38977V6.39477ZM7.62973 6.52977C7.65473 6.49977 7.69973 6.49477 7.72973 6.52477C7.75973 6.54977 7.76473 6.59477 7.73973 6.62477C7.71473 6.65477 7.66973 6.65977 7.63973 6.63477C7.60973 6.60977 7.60473 6.56477 7.62973 6.53477V6.52977ZM7.50973 6.66477C7.53473 6.63477 7.57973 6.62977 7.60973 6.65477C7.63973 6.67977 7.64473 6.72477 7.61973 6.75477C7.59473 6.78477 7.54973 6.78977 7.51973 6.76477C7.48973 6.73977 7.48473 6.69477 7.50973 6.66477ZM7.38973 6.79977C7.41473 6.76977 7.45973 6.76477 7.48973 6.78977C7.51973 6.81477 7.52473 6.85977 7.49973 6.88977C7.47473 6.91977 7.42973 6.92477 7.39973 6.89977C7.36973 6.87477 7.36473 6.82977 7.38973 6.79977ZM7.28973 7.02977C7.25973 7.00477 7.25973 6.96477 7.28473 6.93477C7.30973 6.90477 7.34973 6.90477 7.37973 6.92977C7.40973 6.95477 7.40973 6.99477 7.38473 7.02477C7.35973 7.05477 7.31973 7.05477 7.28973 7.02977ZM7.50973 7.14977C7.48473 7.17477 7.44473 7.17977 7.41973 7.15477C7.38973 7.12977 7.38973 7.08977 7.41473 7.06477C7.43973 7.03977 7.47973 7.03477 7.50473 7.05977C7.52973 7.08477 7.53473 7.12477 7.50973 7.14977ZM7.62973 7.27977C7.62973 7.27977 7.57473 7.30477 7.54973 7.28477C7.52473 7.26477 7.52473 7.22977 7.54473 7.20477C7.56473 7.17977 7.60473 7.17977 7.62473 7.19977C7.64973 7.21977 7.64973 7.25477 7.62973 7.27977ZM7.62973 7.00477C7.60473 7.02977 7.56473 7.03477 7.53973 7.00977C7.51473 6.98477 7.50973 6.94477 7.53473 6.91977C7.55973 6.88977 7.59973 6.88977 7.62473 6.91477C7.64973 6.93977 7.65473 6.97977 7.62973 7.00477ZM7.74473 7.39477C7.74473 7.39477 7.69973 7.41477 7.67973 7.39477C7.65973 7.37977 7.65973 7.34977 7.67973 7.32977C7.69473 7.30977 7.72473 7.30977 7.74473 7.32977C7.76473 7.34477 7.76473 7.37477 7.74973 7.39477H7.74473ZM7.74973 7.12477C7.74973 7.12477 7.68973 7.14977 7.66973 7.12977C7.64473 7.10977 7.64473 7.07477 7.66473 7.04977C7.68473 7.02477 7.72473 7.02477 7.74473 7.04477C7.76973 7.06477 7.76973 7.10477 7.74973 7.12477ZM7.87473 7.50477C7.87473 7.50477 7.83473 7.52477 7.81473 7.50477C7.79973 7.48977 7.79473 7.46477 7.81473 7.44477C7.82973 7.42977 7.85473 7.42477 7.87473 7.44477C7.89473 7.45977 7.89473 7.48477 7.87473 7.50477ZM7.87473 7.23977C7.87473 7.23977 7.82973 7.25977 7.80973 7.23977C7.78973 7.22477 7.78973 7.19477 7.80973 7.17477C7.82473 7.15477 7.85473 7.15477 7.87473 7.17477C7.89473 7.18977 7.89473 7.21977 7.87473 7.23977ZM7.87473 6.97477C7.87473 6.97477 7.81973 6.99977 7.79473 6.97977C7.76973 6.95977 7.76973 6.91977 7.78973 6.89977C7.80973 6.87477 7.84473 6.87477 7.86973 6.89477C7.89473 6.91477 7.89473 6.95477 7.87473 6.97477ZM7.90473 6.75977C7.90473 6.75977 7.96473 6.73477 7.98473 6.75477C8.00973 6.77477 8.00973 6.81477 7.98973 6.83477C7.96973 6.85977 7.93473 6.85977 7.90973 6.83977C7.88473 6.81977 7.88473 6.78477 7.90473 6.75977ZM7.93473 7.02477C7.93473 7.02477 7.97973 7.00477 7.99973 7.02477C8.01973 7.04477 8.01973 7.06977 7.99973 7.08977C7.98473 7.10977 7.95473 7.10977 7.93473 7.08977C7.91473 7.07477 7.91473 7.04477 7.92973 7.02477H7.93473ZM7.94973 7.30477C7.94973 7.30477 7.98973 7.28477 8.00973 7.30477C8.02973 7.31977 8.02973 7.34477 8.00973 7.36477C7.99473 7.37977 7.96973 7.38477 7.94973 7.36477C7.92973 7.34977 7.92973 7.32477 7.94973 7.30477ZM8.02473 7.59977C8.02473 7.59977 7.98973 7.61477 7.97473 7.59977C7.95973 7.58477 7.95973 7.56477 7.97473 7.54977C7.98973 7.53477 8.00973 7.53477 8.02473 7.54977C8.03973 7.55977 8.03973 7.58477 8.02473 7.59977ZM8.05473 6.88477C8.05473 6.88477 8.09973 6.86477 8.11973 6.88477C8.13973 6.89977 8.13973 6.92977 8.11973 6.94977C8.10473 6.96977 8.07473 6.96977 8.05473 6.95477C8.03473 6.93977 8.03473 6.90977 8.05473 6.88977V6.88477ZM8.07473 7.14477C8.07473 7.14477 8.11473 7.12477 8.13473 7.14477C8.14973 7.15977 8.15473 7.18477 8.13473 7.20477C8.11973 7.22477 8.09473 7.22477 8.07473 7.20477C8.05473 7.18977 8.05473 7.16477 8.07473 7.14477ZM8.09473 7.46477C8.09473 7.46477 8.07973 7.42977 8.09473 7.41477C8.10973 7.39977 8.12973 7.39977 8.14473 7.41477C8.15973 7.42977 8.15973 7.44977 8.14473 7.46477C8.12973 7.47977 8.10973 7.47977 8.09473 7.46477ZM8.17473 7.70477C8.17473 7.70477 8.14973 7.71477 8.13973 7.70477C8.12973 7.69477 8.12973 7.67977 8.13973 7.66977C8.14973 7.65977 8.16473 7.65977 8.17473 7.66977C8.18473 7.67977 8.18473 7.69477 8.17473 7.70477ZM8.19473 7.00477C8.19473 7.00477 8.23473 6.98477 8.25473 7.00477C8.27473 7.01977 8.27473 7.04477 8.25473 7.06477C8.23973 7.08477 8.21473 7.08477 8.19473 7.06477C8.17973 7.04977 8.17473 7.02477 8.19473 7.00477ZM8.21973 7.26477C8.21973 7.26477 8.25473 7.24977 8.26973 7.26477C8.28473 7.27977 8.28473 7.29977 8.26973 7.31477C8.25473 7.32977 8.23473 7.32977 8.21973 7.31477C8.20473 7.29977 8.20473 7.27977 8.21973 7.26477ZM8.28473 7.56977C8.28473 7.56977 8.25973 7.57977 8.24973 7.56977C8.23973 7.55977 8.23973 7.54477 8.24973 7.53477C8.25973 7.52477 8.27473 7.52477 8.28473 7.53477C8.29473 7.54477 8.29473 7.55977 8.28473 7.56977ZM8.29473 6.60977C8.29473 6.60977 8.33973 6.58977 8.35973 6.60977C8.37973 6.62477 8.37973 6.65477 8.35973 6.67477C8.34473 6.69477 8.31473 6.69477 8.29473 6.67477C8.27473 6.65977 8.27473 6.62977 8.29473 6.60977ZM8.31973 6.86977C8.31973 6.86977 8.35973 6.84977 8.37973 6.86977C8.39473 6.88477 8.39973 6.90977 8.37973 6.92977C8.36473 6.94477 8.33973 6.94977 8.31973 6.92977C8.29973 6.91477 8.29973 6.88977 8.31973 6.86977ZM8.34473 7.12977C8.34473 7.12977 8.37973 7.11477 8.39473 7.12977C8.40973 7.14477 8.40973 7.16477 8.39473 7.17977C8.37973 7.19477 8.35973 7.19477 8.34473 7.17977C8.32973 7.16477 8.32973 7.14477 8.34473 7.12977ZM8.40973 7.42477C8.40973 7.42477 8.38473 7.43477 8.37473 7.42477C8.36473 7.41477 8.36473 7.39977 8.37473 7.38977C8.38473 7.37977 8.39973 7.37977 8.40973 7.38977C8.41973 7.39977 8.42473 7.41477 8.40973 7.42477ZM8.41973 6.49477C8.41973 6.49477 8.45473 6.47977 8.46973 6.49477C8.48473 6.50977 8.48473 6.52977 8.46973 6.54477C8.45473 6.55977 8.43473 6.55977 8.41973 6.54477C8.40473 6.52977 8.40473 6.50977 8.41973 6.49477ZM8.43473 6.72977C8.43473 6.72977 8.47473 6.70977 8.49473 6.72977C8.50973 6.74477 8.51473 6.76977 8.49473 6.78977C8.47973 6.80477 8.45473 6.80977 8.43473 6.78977C8.41473 6.77477 8.41473 6.74977 8.43473 6.72977ZM8.45973 6.98977C8.45973 6.98977 8.49473 6.97477 8.50973 6.98977C8.52473 7.00477 8.52473 7.02477 8.50973 7.03977C8.49473 7.05477 8.47473 7.05477 8.45973 7.03977C8.44473 7.02477 8.44473 7.00477 8.45973 6.98977ZM8.52473 7.28477C8.52473 7.28477 8.49973 7.29477 8.48973 7.28477C8.47973 7.27477 8.47973 7.25977 8.48973 7.24977C8.49973 7.23977 8.51473 7.23977 8.52473 7.24977C8.53473 7.25977 8.53473 7.27477 8.52473 7.28477ZM8.54973 6.59977C8.54973 6.59977 8.58473 6.58477 8.59973 6.59977C8.61473 6.60977 8.61473 6.63477 8.59973 6.64477C8.58973 6.65977 8.56473 6.65977 8.55473 6.64477C8.53973 6.63477 8.53973 6.60977 8.55473 6.59477L8.54973 6.59977ZM8.57473 6.84977C8.57473 6.84977 8.60973 6.83477 8.62473 6.84977C8.63973 6.86477 8.63973 6.88477 8.62473 6.89977C8.60973 6.91477 8.58973 6.91477 8.57473 6.89977C8.55973 6.88977 8.55973 6.86477 8.57473 6.84977ZM8.63973 7.14477C8.63973 7.14477 8.61473 7.15477 8.60473 7.14477C8.59473 7.13477 8.59473 7.11977 8.60473 7.10977C8.61473 7.09977 8.62973 7.09977 8.63973 7.10977C8.64973 7.11977 8.64973 7.13477 8.63973 7.14477ZM8.65973 6.53477C8.65973 6.53477 8.63473 6.54477 8.62473 6.53477C8.61473 6.52477 8.61473 6.50977 8.62473 6.49977C8.63473 6.48977 8.64973 6.48977 8.65973 6.49977C8.66973 6.50977 8.66973 6.52477 8.65973 6.53477ZM8.75473 7.00977C8.75473 7.00977 8.72973 7.01977 8.71973 7.00977C8.70973 6.99977 8.70973 6.98477 8.71973 6.97477C8.72973 6.96477 8.74473 6.96477 8.75473 6.97477C8.76473 6.98477 8.76473 6.99977 8.75473 7.00977ZM8.75473 6.74477C8.75473 6.74477 8.71973 6.75977 8.70473 6.74477C8.68973 6.72977 8.68973 6.70977 8.70473 6.69477C8.71973 6.67977 8.73973 6.67977 8.75473 6.69477C8.76973 6.70977 8.76973 6.72977 8.75473 6.74477ZM8.82973 6.56977C8.82973 6.56977 8.85473 6.55977 8.86473 6.56977C8.87473 6.57977 8.87473 6.59477 8.86473 6.60477C8.85473 6.61477 8.83973 6.61477 8.82973 6.60477C8.81973 6.59477 8.81973 6.57977 8.82973 6.56977ZM8.88473 6.86477C8.88473 6.86477 8.85973 6.87477 8.84973 6.86477C8.83973 6.85477 8.83973 6.83977 8.84973 6.82977C8.85973 6.81977 8.87473 6.81977 8.88473 6.82977C8.89473 6.83977 8.89473 6.85477 8.88473 6.86477ZM8.99973 6.72477C8.99973 6.72477 8.97473 6.73977 8.96473 6.72477C8.95473 6.71477 8.95473 6.69977 8.96473 6.68977C8.97473 6.67977 8.98973 6.67477 8.99973 6.68977C9.00973 6.69977 9.00973 6.71477 8.99973 6.72477ZM9.06973 6.61977C9.06973 6.61977 9.05473 6.62977 9.04473 6.61977C9.03973 6.61477 9.03473 6.59977 9.04473 6.59477C9.04973 6.58977 9.05973 6.58477 9.06973 6.59477C9.07473 6.59977 9.07973 6.60977 9.06973 6.61977Z" fill="#004F9D"/>
<path d="M7.17988 6.23496C7.17988 6.23496 7.16988 6.25996 7.15488 6.25996C7.13988 6.25996 7.12988 6.24996 7.12988 6.23496C7.12988 6.21996 7.13988 6.20996 7.15488 6.20996C7.16988 6.20996 7.17988 6.21996 7.17988 6.23496Z" fill="#004F9D"/>
<path d="M7.05977 6.3751C7.05977 6.3751 7.04977 6.4001 7.03477 6.4001C7.01977 6.4001 7.00977 6.3901 7.00977 6.3751C7.00977 6.3601 7.01977 6.3501 7.03477 6.3501C7.04977 6.3501 7.05977 6.3601 7.05977 6.3751Z" fill="#004F9D"/>
<path d="M7.0998 6.59482C7.0998 6.59482 7.0898 6.61982 7.0748 6.61982C7.0598 6.61982 7.0498 6.60982 7.0498 6.59482C7.0498 6.57982 7.0598 6.56982 7.0748 6.56982C7.0898 6.56982 7.0998 6.57982 7.0998 6.59482Z" fill="#004F9D"/>
<path d="M7.20965 6.4852C7.20965 6.4852 7.19465 6.5202 7.17465 6.5202C7.15465 6.5202 7.13965 6.5052 7.13965 6.4852C7.13965 6.4652 7.15465 6.4502 7.17465 6.4502C7.19465 6.4502 7.20965 6.4652 7.20965 6.4852Z" fill="#004F9D"/>
<path d="M7.32512 6.35494C7.32512 6.35494 7.30512 6.39494 7.28512 6.39494C7.26512 6.39494 7.24512 6.37994 7.24512 6.35494C7.24512 6.32994 7.26012 6.31494 7.28512 6.31494C7.31012 6.31494 7.32512 6.32994 7.32512 6.35494Z" fill="#004F9D"/>
<path d="M7.44523 6.2148C7.44523 6.2148 7.43023 6.2548 7.40523 6.2548C7.38023 6.2548 7.36523 6.2398 7.36523 6.2148C7.36523 6.1898 7.38023 6.1748 7.40523 6.1748C7.43023 6.1748 7.44523 6.1898 7.44523 6.2148Z" fill="#004F9D"/>
<path d="M7.56047 6.08492C7.56047 6.08492 7.54047 6.12492 7.52047 6.12492C7.50047 6.12492 7.48047 6.10492 7.48047 6.08492C7.48047 6.06492 7.50047 6.04492 7.52047 6.04492C7.54047 6.04492 7.56047 6.06492 7.56047 6.08492Z" fill="#004F9D"/>
<path d="M7.725 6.21504C7.725 6.24004 7.705 6.26504 7.675 6.26504C7.645 6.26504 7.625 6.24504 7.625 6.21504C7.625 6.18504 7.645 6.16504 7.675 6.16504C7.705 6.16504 7.725 6.18504 7.725 6.21504Z" fill="#004F9D"/>
<path d="M7.6 6.34004C7.6 6.36504 7.58 6.39004 7.55 6.39004C7.52 6.39004 7.5 6.37004 7.5 6.34004C7.5 6.31004 7.52 6.29004 7.55 6.29004C7.58 6.29004 7.6 6.31004 7.6 6.34004Z" fill="#004F9D"/>
<path d="M7.47988 6.4748C7.47988 6.4998 7.45988 6.5248 7.42988 6.5248C7.39988 6.5248 7.37988 6.5048 7.37988 6.4748C7.37988 6.4448 7.39988 6.4248 7.42988 6.4248C7.45988 6.4248 7.47988 6.4448 7.47988 6.4748Z" fill="#004F9D"/>
<path d="M7.36465 6.61982C7.36465 6.64482 7.34465 6.66982 7.31465 6.66982C7.28465 6.66982 7.26465 6.64982 7.26465 6.61982C7.26465 6.58982 7.28465 6.56982 7.31465 6.56982C7.34465 6.56982 7.36465 6.58982 7.36465 6.61982Z" fill="#004F9D"/>
<path d="M7.24039 6.75496C7.24039 6.75496 7.22039 6.79996 7.19539 6.79996C7.17039 6.79996 7.15039 6.77996 7.15039 6.75496C7.15039 6.72996 7.17039 6.70996 7.19539 6.70996C7.22039 6.70996 7.24039 6.72996 7.24039 6.75496Z" fill="#004F9D"/>
<path d="M7.29512 6.10508C7.29512 6.10508 7.28512 6.13008 7.27012 6.13008C7.25512 6.13008 7.24512 6.12008 7.24512 6.10508C7.24512 6.09008 7.25512 6.08008 7.27012 6.08008C7.28512 6.08008 7.29512 6.09008 7.29512 6.10508Z" fill="#004F9D"/>
<path d="M7.41035 5.96494C7.41035 5.96494 7.40035 5.98994 7.38535 5.98994C7.37035 5.98994 7.36035 5.97994 7.36035 5.96494C7.36035 5.94994 7.37035 5.93994 7.38535 5.93994C7.40035 5.93994 7.41035 5.94994 7.41035 5.96494Z" fill="#004F9D"/>
<path d="M14.1096 6.25984C14.0696 6.29484 14.0146 6.28984 13.9796 6.24984C13.9446 6.20984 13.9496 6.15484 13.9896 6.11984C13.9496 6.15484 13.8946 6.14984 13.8596 6.10984C13.8246 6.06984 13.8296 6.01484 13.8696 5.97984C13.8296 6.01484 13.7746 6.00984 13.7396 5.96984C13.7046 5.92984 13.7096 5.87484 13.7496 5.83984C13.7246 5.85984 13.6896 5.86484 13.6596 5.85484C13.6496 5.85984 13.6446 5.86984 13.6346 5.87484C13.6346 5.87484 13.6396 5.87484 13.6396 5.87984C13.6646 5.90984 13.6646 5.95484 13.6296 5.97984C13.5996 6.00484 13.5546 6.00484 13.5296 5.96984C13.5296 5.96984 13.5246 5.95984 13.5196 5.95484C13.5046 5.96484 13.4896 5.97984 13.4746 5.98984C13.4946 6.01484 13.4896 6.05484 13.4646 6.07484C13.4396 6.09984 13.3946 6.09484 13.3746 6.06984C13.3746 6.06984 13.3746 6.06984 13.3746 6.06484C13.3546 6.07984 13.3296 6.09484 13.3096 6.10484C13.3196 6.10484 13.3296 6.10984 13.3346 6.11984C13.3496 6.13484 13.3496 6.15984 13.3346 6.17484C13.3196 6.18984 13.2946 6.18484 13.2796 6.17484C13.2696 6.16484 13.2696 6.14984 13.2746 6.13484C12.7846 6.42984 12.2096 6.59984 11.5946 6.59984C11.5496 6.59984 11.4496 6.59984 11.3496 6.59984C11.4196 6.71484 11.5346 6.82484 11.7196 6.93984C11.7346 6.94984 11.7546 6.95984 11.7696 6.96984C11.7696 6.96984 11.7696 6.96984 11.7746 6.96984C12.1396 7.20484 12.4346 7.53484 12.6196 7.92984C13.0696 7.70484 13.6096 7.32984 13.9996 6.71984C13.9796 6.71984 13.9646 6.70984 13.9496 6.69484C13.9246 6.66984 13.9296 6.62484 13.9546 6.60484C13.9796 6.57984 14.0246 6.58484 14.0446 6.60984C14.0446 6.60984 14.0496 6.61984 14.0546 6.62484C14.0646 6.60484 14.0746 6.58984 14.0846 6.56984C14.0746 6.56984 14.0696 6.55984 14.0646 6.55484C14.0396 6.52484 14.0446 6.48484 14.0696 6.45984C14.0896 6.43984 14.1246 6.43984 14.1446 6.45484C14.1546 6.43984 14.1596 6.41984 14.1696 6.40484C14.1396 6.40484 14.1146 6.39484 14.0946 6.37484C14.0596 6.33484 14.0646 6.27984 14.1046 6.24484L14.1096 6.25984ZM13.9596 6.25984C13.9846 6.28984 13.9846 6.33484 13.9496 6.35984C13.9196 6.38484 13.8746 6.37984 13.8496 6.34984C13.8246 6.31984 13.8246 6.27484 13.8596 6.24984C13.8896 6.22484 13.9346 6.22484 13.9596 6.25484V6.25984ZM13.8196 6.47984C13.7946 6.50484 13.7496 6.49984 13.7296 6.47484C13.7046 6.44984 13.7096 6.40484 13.7346 6.38484C13.7646 6.35984 13.8046 6.36484 13.8246 6.38984C13.8496 6.41484 13.8446 6.45984 13.8196 6.47984ZM13.8546 6.13984C13.8796 6.16984 13.8796 6.21484 13.8446 6.23984C13.8146 6.26484 13.7696 6.26484 13.7446 6.22984C13.7196 6.19984 13.7196 6.15484 13.7546 6.12984C13.7846 6.10484 13.8296 6.10984 13.8546 6.13984ZM13.6546 6.00484C13.6846 5.97984 13.7296 5.98484 13.7596 6.01484C13.7846 6.04484 13.7846 6.08984 13.7496 6.11484C13.7196 6.13984 13.6746 6.13984 13.6496 6.10484C13.6246 6.07484 13.6246 6.02984 13.6546 6.00484ZM12.6446 6.50484C12.6446 6.50484 12.6146 6.51484 12.6096 6.50484C12.5996 6.49484 12.5996 6.47484 12.6096 6.46984C12.6196 6.45984 12.6346 6.45984 12.6446 6.46984C12.6546 6.47984 12.6546 6.49484 12.6446 6.50484ZM12.7546 6.62984C12.7546 6.62984 12.7296 6.63984 12.7196 6.62984C12.7096 6.61984 12.7096 6.60484 12.7196 6.59484C12.7296 6.58484 12.7446 6.58484 12.7546 6.59484C12.7646 6.60484 12.7646 6.61984 12.7546 6.62984ZM12.7896 6.42984C12.7896 6.42984 12.7846 6.40484 12.7896 6.39484C12.7996 6.38484 12.8146 6.38984 12.8246 6.39484C12.8346 6.40484 12.8296 6.41984 12.8246 6.42984C12.8146 6.43984 12.7996 6.43484 12.7896 6.42984ZM12.8746 6.76984C12.8746 6.76984 12.8496 6.77984 12.8396 6.76984C12.8296 6.75984 12.8296 6.74484 12.8396 6.73484C12.8496 6.72484 12.8646 6.72484 12.8746 6.73484C12.8846 6.74484 12.8846 6.75984 12.8746 6.76984ZM12.9046 6.53484C12.9046 6.53484 12.8746 6.54484 12.8646 6.53484C12.8546 6.52484 12.8546 6.50484 12.8646 6.49484C12.8746 6.48484 12.8946 6.48484 12.9046 6.49484C12.9146 6.50484 12.9146 6.52484 12.9046 6.53484ZM12.9946 6.90984C12.9946 6.90984 12.9696 6.91984 12.9596 6.90984C12.9496 6.89984 12.9496 6.88484 12.9596 6.87484C12.9696 6.86484 12.9846 6.86484 12.9946 6.87484C13.0046 6.88484 13.0046 6.89984 12.9946 6.90984ZM13.0196 6.65984C13.0196 6.65984 12.9846 6.66984 12.9696 6.65984C12.9546 6.64484 12.9596 6.62484 12.9696 6.60984C12.9846 6.59484 13.0046 6.59984 13.0196 6.60984C13.0346 6.62484 13.0296 6.64484 13.0196 6.65984ZM13.0496 6.41484C13.0496 6.41484 13.0096 6.42484 12.9996 6.41484C12.9846 6.39984 12.9896 6.37484 12.9996 6.36484C13.0146 6.34984 13.0396 6.35484 13.0496 6.36484C13.0646 6.37984 13.0596 6.40484 13.0496 6.41484ZM13.1196 7.07484C13.1196 7.07484 13.0946 7.08484 13.0846 7.07484C13.0746 7.06484 13.0746 7.04484 13.0846 7.03984C13.0946 7.02984 13.1146 7.02984 13.1196 7.03984C13.1296 7.04984 13.1296 7.06484 13.1196 7.07484ZM13.1346 6.79984C13.1346 6.79984 13.0996 6.80984 13.0846 6.79984C13.0696 6.78484 13.0746 6.76484 13.0846 6.74984C13.0996 6.73984 13.1196 6.73984 13.1346 6.74984C13.1496 6.76484 13.1446 6.78484 13.1346 6.79984ZM13.1596 6.54984C13.1596 6.54984 13.1146 6.56484 13.0996 6.54984C13.0846 6.53484 13.0846 6.50484 13.0996 6.48984C13.1146 6.47484 13.1446 6.47484 13.1596 6.48984C13.1746 6.50484 13.1746 6.53484 13.1596 6.54984ZM13.1896 6.30484C13.1896 6.30484 13.1496 6.31484 13.1346 6.30484C13.1196 6.28984 13.1246 6.26484 13.1346 6.24984C13.1496 6.23484 13.1746 6.23984 13.1896 6.24984C13.2046 6.26484 13.1996 6.28984 13.1896 6.30484ZM13.2596 7.23984C13.2596 7.23984 13.2346 7.24984 13.2246 7.23984C13.2146 7.22984 13.2146 7.21484 13.2246 7.20484C13.2346 7.19484 13.2496 7.19484 13.2596 7.20484C13.2696 7.21484 13.2696 7.22984 13.2596 7.23984ZM13.2746 6.95484C13.2746 6.95484 13.2396 6.96484 13.2246 6.95484C13.2096 6.93984 13.2146 6.91984 13.2246 6.90484C13.2396 6.88984 13.2596 6.89484 13.2746 6.90484C13.2896 6.91984 13.2846 6.93984 13.2746 6.95484ZM13.2796 6.68984C13.2796 6.68984 13.2346 6.70484 13.2196 6.68984C13.2046 6.67484 13.2046 6.64484 13.2196 6.62984C13.2346 6.61484 13.2646 6.61484 13.2796 6.62984C13.2946 6.64484 13.2946 6.67484 13.2796 6.68984ZM13.3046 6.43984C13.3046 6.43984 13.2546 6.45484 13.2396 6.43484C13.2246 6.41484 13.2246 6.38484 13.2396 6.36984C13.2596 6.35484 13.2896 6.35484 13.3046 6.36984C13.3196 6.38984 13.3196 6.41984 13.3046 6.43484V6.43984ZM13.3496 6.77484C13.3496 6.77484 13.3946 6.75984 13.4096 6.77484C13.4246 6.78984 13.4246 6.81984 13.4096 6.83484C13.3946 6.84984 13.3646 6.84984 13.3496 6.83484C13.3346 6.81984 13.3346 6.78984 13.3496 6.77484ZM13.3796 7.38984C13.3796 7.38984 13.3546 7.39984 13.3446 7.38984C13.3346 7.37984 13.3346 7.36484 13.3446 7.35484C13.3546 7.34484 13.3696 7.34484 13.3796 7.35484C13.3896 7.36484 13.3896 7.37984 13.3796 7.38984ZM13.4146 7.11984C13.4146 7.11984 13.3796 7.12984 13.3646 7.11984C13.3496 7.10484 13.3546 7.08484 13.3646 7.06984C13.3796 7.05484 13.3996 7.05984 13.4146 7.06984C13.4296 7.08484 13.4246 7.10484 13.4146 7.11984ZM13.4296 6.57484C13.4296 6.57484 13.3796 6.58984 13.3646 6.56984C13.3496 6.54984 13.3496 6.51984 13.3696 6.50484C13.3896 6.48984 13.4196 6.48984 13.4346 6.50984C13.4496 6.52984 13.4496 6.55984 13.4346 6.57484H13.4296ZM13.3646 6.32484C13.3646 6.32484 13.3446 6.26484 13.3696 6.24484C13.3946 6.22484 13.4296 6.22484 13.4496 6.24984C13.4696 6.27484 13.4696 6.30984 13.4446 6.32984C13.4196 6.34984 13.3846 6.34984 13.3646 6.32484ZM13.4796 6.92484C13.4796 6.92484 13.5246 6.90984 13.5396 6.92484C13.5546 6.93984 13.5546 6.96984 13.5396 6.98484C13.5246 6.99984 13.4946 6.99984 13.4796 6.98484C13.4646 6.96984 13.4646 6.93984 13.4796 6.92484ZM13.5446 7.26484C13.5446 7.26484 13.5096 7.27484 13.4946 7.26484C13.4796 7.24984 13.4846 7.22984 13.4946 7.21484C13.5096 7.19984 13.5296 7.20484 13.5446 7.21484C13.5596 7.22984 13.5546 7.24984 13.5446 7.26484ZM13.5446 6.70984C13.5446 6.70984 13.4946 6.72484 13.4796 6.70984C13.4646 6.68984 13.4646 6.65984 13.4846 6.64484C13.5046 6.62984 13.5346 6.62984 13.5496 6.64484C13.5646 6.66484 13.5646 6.69484 13.5496 6.70984H13.5446ZM13.5696 6.46484C13.5696 6.46484 13.5096 6.48484 13.4896 6.45984C13.4696 6.43484 13.4696 6.39984 13.4946 6.37984C13.5196 6.35984 13.5546 6.35984 13.5746 6.38484C13.5946 6.40984 13.5946 6.44484 13.5696 6.46484ZM13.4996 6.21484C13.4746 6.18984 13.4796 6.14484 13.5046 6.12484C13.5296 6.09984 13.5746 6.10484 13.5946 6.12984C13.6196 6.15484 13.6146 6.19984 13.5896 6.21984C13.5646 6.24484 13.5196 6.23984 13.4996 6.21484ZM13.6096 6.79484C13.6096 6.79484 13.6596 6.77984 13.6746 6.79984C13.6896 6.81984 13.6896 6.84984 13.6746 6.86484C13.6546 6.87984 13.6246 6.87984 13.6096 6.86484C13.5946 6.84484 13.5946 6.81484 13.6096 6.79984V6.79484ZM13.6796 7.13984C13.6796 7.13984 13.6346 7.15484 13.6196 7.13984C13.6046 7.12484 13.6046 7.09484 13.6196 7.07984C13.6396 7.06484 13.6646 7.06484 13.6796 7.07984C13.6946 7.09484 13.6946 7.12484 13.6796 7.13984ZM13.6896 6.59984C13.6896 6.59984 13.6296 6.61984 13.6096 6.59484C13.5896 6.56984 13.5896 6.53484 13.6146 6.51484C13.6396 6.49484 13.6746 6.49484 13.6946 6.51984C13.7146 6.54484 13.7146 6.57984 13.6896 6.59984ZM13.6246 6.34984C13.5996 6.31984 13.6046 6.27984 13.6296 6.25984C13.6546 6.23484 13.6996 6.23984 13.7196 6.26484C13.7446 6.29484 13.7396 6.33484 13.7146 6.35484C13.6896 6.37984 13.6446 6.37484 13.6246 6.34984ZM13.7996 7.00484C13.7996 7.00484 13.7496 7.01984 13.7346 7.00484C13.7196 6.98484 13.7196 6.95484 13.7346 6.93984C13.7546 6.92484 13.7846 6.92484 13.7996 6.93984C13.8146 6.95984 13.8146 6.98984 13.7996 7.00484ZM13.8146 6.74484C13.8146 6.74484 13.7546 6.76484 13.7346 6.73984C13.7146 6.71484 13.7146 6.67984 13.7396 6.65984C13.7646 6.63984 13.7996 6.63984 13.8196 6.66484C13.8396 6.68984 13.8396 6.72484 13.8146 6.74484ZM13.9246 6.85984C13.9246 6.85984 13.8696 6.87484 13.8496 6.85484C13.8296 6.83484 13.8346 6.79984 13.8546 6.77984C13.8746 6.75984 13.9096 6.76484 13.9296 6.78484C13.9496 6.80484 13.9446 6.83984 13.9246 6.85984ZM13.9446 6.60984C13.9196 6.63484 13.8746 6.62984 13.8546 6.60484C13.8296 6.57984 13.8346 6.53484 13.8596 6.51484C13.8846 6.48984 13.9296 6.49484 13.9496 6.51984C13.9746 6.54484 13.9696 6.58984 13.9446 6.60984ZM14.0696 6.48984C14.0396 6.51484 13.9946 6.51484 13.9646 6.48484C13.9396 6.45484 13.9396 6.40984 13.9746 6.38484C14.0046 6.35984 14.0496 6.35984 14.0746 6.39484C14.0996 6.42484 14.0996 6.46984 14.0646 6.49484L14.0696 6.48984Z" fill="#F29100"/>
<path d="M14.3248 5.80518C14.3248 5.80518 14.2998 5.81518 14.2998 5.83018C14.2998 5.84518 14.3098 5.85518 14.3248 5.85518C14.3398 5.85518 14.3498 5.84518 14.3498 5.83018C14.3498 5.81518 14.3398 5.80518 14.3248 5.80518Z" fill="#F29100"/>
<path d="M14.3045 6.04492C14.3045 6.04492 14.2695 6.05992 14.2695 6.07992C14.2695 6.09992 14.2845 6.11492 14.3045 6.11492C14.3245 6.11492 14.3395 6.09992 14.3395 6.07992C14.3395 6.05992 14.3245 6.04492 14.3045 6.04492Z" fill="#F29100"/>
<path d="M14.1953 5.91016C14.1953 5.91016 14.1553 5.92516 14.1553 5.95016C14.1553 5.97516 14.1703 5.99016 14.1953 5.99016C14.2203 5.99016 14.2353 5.97016 14.2353 5.95016C14.2353 5.93016 14.2153 5.91016 14.1953 5.91016Z" fill="#F29100"/>
<path d="M14.0752 5.85002C14.0752 5.85002 14.1152 5.83502 14.1152 5.81002C14.1152 5.78502 14.0952 5.77002 14.0752 5.77002C14.0552 5.77002 14.0352 5.78502 14.0352 5.81002C14.0352 5.83502 14.0552 5.85002 14.0752 5.85002Z" fill="#F29100"/>
<path d="M13.9599 5.71477C13.9599 5.71477 13.9999 5.69977 13.9999 5.67477C13.9999 5.64977 13.9799 5.63477 13.9599 5.63477C13.9399 5.63477 13.9199 5.64977 13.9199 5.67477C13.9199 5.69977 13.9399 5.71477 13.9599 5.71477Z" fill="#F29100"/>
<path d="M13.8049 5.85488C13.8349 5.85488 13.8549 5.83488 13.8549 5.80488C13.8549 5.77488 13.8349 5.75488 13.8049 5.75488C13.7749 5.75488 13.7549 5.77488 13.7549 5.80488C13.7549 5.83488 13.7749 5.85488 13.8049 5.85488Z" fill="#F29100"/>
<path d="M13.9299 5.98477C13.9549 5.98477 13.9799 5.96477 13.9799 5.93477C13.9799 5.90477 13.9599 5.88477 13.9299 5.88477C13.8999 5.88477 13.8799 5.90477 13.8799 5.93477C13.8799 5.96477 13.8999 5.98477 13.9299 5.98477Z" fill="#F29100"/>
<path d="M14.05 6.12002C14.075 6.12002 14.1 6.10002 14.1 6.07002C14.1 6.04002 14.08 6.02002 14.05 6.02002C14.02 6.02002 14 6.04002 14 6.07002C14 6.10002 14.025 6.12002 14.05 6.12002Z" fill="#F29100"/>
<path d="M14.1652 6.16504C14.1402 6.16504 14.1152 6.18504 14.1152 6.21504C14.1152 6.24504 14.1352 6.26504 14.1652 6.26504C14.1952 6.26504 14.2152 6.24504 14.2152 6.21504C14.2152 6.18504 14.1952 6.16504 14.1652 6.16504Z" fill="#F29100"/>
<path d="M14.2096 5.7248C14.2096 5.7248 14.2346 5.7148 14.2346 5.6998C14.2346 5.6848 14.2246 5.6748 14.2096 5.6748C14.1946 5.6748 14.1846 5.6848 14.1846 5.6998C14.1846 5.7148 14.1946 5.7248 14.2096 5.7248Z" fill="#F29100"/>
<path d="M14.0953 5.58516C14.0953 5.58516 14.1203 5.57516 14.1203 5.56016C14.1203 5.54516 14.1103 5.53516 14.0953 5.53516C14.0803 5.53516 14.0703 5.54516 14.0703 5.56016C14.0703 5.57516 14.0803 5.58516 14.0953 5.58516Z" fill="#F29100"/>
<path d="M11.6495 9.77998C11.6495 9.73998 11.6495 9.70498 11.6495 9.66498C11.3795 9.88498 11.0345 10.02 10.6595 10.02C10.1195 10.02 9.64452 9.74498 9.36452 9.32498C9.36452 9.34498 9.34452 9.35998 9.32452 9.36998C9.29452 9.37998 9.25952 9.35998 9.24952 9.32998C9.23952 9.29998 9.25952 9.26498 9.28952 9.25498C9.29952 9.25498 9.30951 9.25498 9.31951 9.25498C9.30451 9.23498 9.29452 9.21498 9.28452 9.18998C9.24452 9.19998 9.20451 9.17998 9.18951 9.13998C9.17951 9.10498 9.18952 9.06998 9.22452 9.05498C9.22452 9.05498 9.22452 9.04498 9.21952 9.04498C9.18452 9.04498 9.14952 9.01498 9.13952 8.97998C9.15452 9.02998 9.12952 9.07998 9.07952 9.09998C9.02952 9.11498 8.97952 9.08498 8.95952 9.03998C8.97452 9.08998 8.94451 9.13998 8.89951 9.15998C8.84951 9.17498 8.79451 9.14998 8.77951 9.09998C8.79451 9.14998 8.76952 9.19998 8.71952 9.21998C8.68952 9.22998 8.65952 9.21998 8.63952 9.20498C8.62952 9.23498 8.62452 9.26998 8.61952 9.30498C8.63952 9.31498 8.65452 9.32998 8.66452 9.35498C8.67452 9.39498 8.65451 9.43498 8.61451 9.44998H8.60451C8.60451 9.47498 8.60451 9.49998 8.60451 9.52498C8.61451 9.51498 8.62452 9.50498 8.63952 9.49998C8.67452 9.48998 8.70952 9.50998 8.71952 9.53998C8.72952 9.57498 8.70952 9.60998 8.67952 9.61998C8.65452 9.62998 8.62451 9.61998 8.60951 9.59498C8.61451 10.505 9.35452 11.235 10.2645 11.235C10.2845 11.235 10.3095 11.235 10.3295 11.235C11.0845 11.185 11.6845 10.56 11.6845 9.78998L11.6495 9.77998ZM9.55452 9.59998C9.55452 9.59998 9.58952 9.59998 9.59452 9.61998C9.59952 9.63498 9.59452 9.65498 9.57452 9.65998C9.55952 9.66498 9.53952 9.65998 9.53452 9.63998C9.52952 9.62498 9.53452 9.60498 9.55452 9.59998ZM9.46452 9.66998C9.46452 9.66998 9.45952 9.71498 9.43452 9.72498C9.41452 9.72998 9.38952 9.71998 9.37952 9.69498C9.36952 9.66998 9.38452 9.64998 9.40952 9.63998C9.42952 9.63498 9.45452 9.64498 9.46452 9.66998ZM9.33952 9.44498C9.36952 9.43498 9.39952 9.44998 9.40952 9.47998C9.41952 9.50998 9.40452 9.53998 9.37452 9.54998C9.34452 9.55998 9.31452 9.54498 9.30452 9.51498C9.29452 9.48498 9.31452 9.45498 9.33952 9.44498ZM9.29952 9.71498C9.30952 9.73998 9.29452 9.76498 9.26952 9.77498C9.24452 9.78498 9.21952 9.76998 9.20952 9.74498C9.19952 9.71998 9.21452 9.69498 9.23952 9.68498C9.26452 9.67498 9.28952 9.68998 9.29952 9.71498ZM9.25452 9.52998C9.26452 9.55998 9.24452 9.59498 9.21452 9.60498C9.18452 9.61498 9.14952 9.59498 9.13952 9.56498C9.12952 9.53498 9.14952 9.49998 9.17952 9.48998C9.20952 9.47998 9.24452 9.49998 9.25452 9.52998ZM9.20452 9.34998C9.21452 9.38498 9.19452 9.42498 9.15952 9.43498C9.12452 9.44498 9.08452 9.42498 9.07452 9.38998C9.06452 9.35498 9.08452 9.31498 9.11952 9.30498C9.15452 9.29498 9.19452 9.31498 9.20452 9.34998ZM8.99952 9.54998C9.02952 9.53998 9.06452 9.55998 9.07452 9.58998C9.08452 9.61998 9.06452 9.65498 9.03452 9.66498C9.00452 9.67498 8.96952 9.65498 8.95952 9.62498C8.94952 9.59498 8.96952 9.55998 8.99952 9.54998ZM8.89951 9.44998C8.88951 9.41498 8.90951 9.37498 8.94451 9.36498C8.97951 9.35498 9.01951 9.37498 9.02951 9.40998C9.03951 9.44498 9.01951 9.48498 8.98451 9.49498C8.94951 9.50498 8.90951 9.48498 8.89951 9.44998ZM9.06451 9.12498C9.10451 9.11498 9.14452 9.13498 9.15952 9.17498C9.16952 9.21498 9.14951 9.25498 9.10951 9.26998C9.06951 9.27998 9.02952 9.25998 9.01452 9.21998C9.00452 9.17998 9.02451 9.13998 9.06451 9.12498ZM8.88452 9.17998C8.92452 9.16998 8.96451 9.18998 8.97951 9.22998C8.98951 9.26998 8.96952 9.30998 8.92952 9.32498C8.88952 9.33998 8.84952 9.31498 8.83452 9.27498C8.82452 9.23498 8.84452 9.19498 8.88452 9.17998ZM8.80952 9.61998C8.83952 9.60998 8.87452 9.62998 8.88452 9.65998C8.89452 9.68998 8.87452 9.72498 8.84452 9.73498C8.81452 9.74498 8.77952 9.72498 8.76952 9.69498C8.75952 9.66498 8.77952 9.62998 8.80952 9.61998ZM8.71952 9.50498C8.70952 9.46998 8.72952 9.42998 8.76452 9.41998C8.79952 9.40998 8.83952 9.42998 8.84952 9.46498C8.85952 9.49998 8.83952 9.53998 8.80452 9.54998C8.76952 9.55998 8.72952 9.53998 8.71952 9.50498ZM8.65451 9.32498C8.64451 9.28498 8.66452 9.24498 8.70452 9.22998C8.74452 9.21998 8.78452 9.23998 8.79952 9.27998C8.80952 9.31998 8.78952 9.35998 8.74952 9.37498C8.70952 9.38498 8.66951 9.36498 8.65451 9.32498ZM8.58952 9.74498C8.57952 9.71498 8.59952 9.67998 8.62952 9.66998C8.65952 9.65998 8.69452 9.67998 8.70452 9.70998C8.71452 9.73998 8.69452 9.77498 8.66452 9.78498C8.63452 9.79498 8.59952 9.77498 8.58952 9.74498ZM8.62952 9.92498C8.61952 9.89998 8.63452 9.87498 8.65952 9.86498C8.68452 9.85498 8.70952 9.86998 8.71952 9.89498C8.72952 9.91998 8.71451 9.94498 8.68951 9.95498C8.66451 9.96498 8.63452 9.94998 8.62952 9.92498ZM8.73451 10.135C8.73451 10.135 8.68952 10.13 8.67952 10.105C8.67452 10.08 8.68452 10.06 8.70952 10.05C8.73452 10.045 8.75452 10.055 8.76452 10.08C8.76952 10.105 8.75951 10.125 8.73451 10.135ZM8.80952 10.31C8.80952 10.31 8.76952 10.31 8.76452 10.285C8.75952 10.265 8.76452 10.245 8.78952 10.24C8.80952 10.235 8.82952 10.24 8.83452 10.265C8.83952 10.285 8.83452 10.305 8.80952 10.31ZM8.83452 9.85998C8.82452 9.83498 8.83951 9.80998 8.86451 9.79998C8.88951 9.78998 8.91452 9.80498 8.92452 9.82998C8.93452 9.85498 8.91952 9.87998 8.89452 9.88998C8.86952 9.89998 8.84452 9.88498 8.83452 9.85998ZM8.88952 10.46C8.88952 10.46 8.85951 10.46 8.85451 10.44C8.85451 10.425 8.85452 10.41 8.87452 10.405C8.88952 10.405 8.90452 10.405 8.90952 10.425C8.90952 10.44 8.90952 10.455 8.88952 10.46ZM8.88952 10.045C8.88952 10.045 8.89452 9.99998 8.91952 9.98998C8.94452 9.98498 8.96452 9.99498 8.97452 10.02C8.97952 10.045 8.96951 10.065 8.94451 10.075C8.91951 10.08 8.89952 10.07 8.88952 10.045ZM8.99952 10.245C8.99952 10.245 8.95952 10.245 8.95452 10.22C8.94952 10.2 8.95451 10.18 8.97951 10.175C8.99951 10.17 9.01951 10.175 9.02451 10.2C9.02951 10.22 9.02452 10.24 8.99952 10.245ZM9.06451 9.73998C9.08951 9.72998 9.11452 9.74498 9.12452 9.76998C9.13452 9.79498 9.11952 9.81998 9.09452 9.82998C9.06952 9.83998 9.03952 9.82498 9.03452 9.79998C9.02452 9.77498 9.03951 9.74998 9.06451 9.73998ZM9.07452 10.405C9.07452 10.405 9.04452 10.405 9.03952 10.385C9.03952 10.37 9.03952 10.355 9.05952 10.35C9.07452 10.35 9.08952 10.35 9.09452 10.37C9.09452 10.385 9.09452 10.4 9.07452 10.405ZM9.09452 9.97498C9.09452 9.97498 9.09952 9.92998 9.12452 9.91998C9.14952 9.91498 9.16952 9.92498 9.17952 9.94998C9.18452 9.97498 9.17451 9.99498 9.14951 10.005C9.12451 10.01 9.10452 9.99998 9.09452 9.97498ZM9.20452 10.175C9.20452 10.175 9.16452 10.175 9.15952 10.15C9.15452 10.13 9.16452 10.11 9.18452 10.105C9.20452 10.1 9.22451 10.105 9.22951 10.13C9.23451 10.15 9.22952 10.17 9.20452 10.175ZM9.25952 10.345C9.25952 10.345 9.22952 10.345 9.22452 10.325C9.22452 10.31 9.22452 10.295 9.24452 10.29C9.25952 10.29 9.27451 10.29 9.27951 10.305C9.27951 10.32 9.27952 10.335 9.25952 10.34V10.345ZM9.27951 9.91498C9.27951 9.91498 9.28452 9.86998 9.30952 9.85998C9.33452 9.85498 9.35452 9.86498 9.36452 9.88998C9.36952 9.91498 9.35952 9.93498 9.33452 9.94498C9.30952 9.94998 9.28951 9.93998 9.27951 9.91498ZM9.38952 10.115C9.38952 10.115 9.34952 10.11 9.34452 10.09C9.33952 10.07 9.34452 10.05 9.36952 10.045C9.38952 10.04 9.40952 10.045 9.41452 10.07C9.41952 10.09 9.41452 10.11 9.38952 10.115ZM9.44451 10.285C9.44451 10.285 9.41452 10.285 9.40952 10.27C9.40952 10.255 9.40952 10.24 9.42952 10.235C9.44452 10.235 9.45952 10.235 9.46452 10.255C9.46452 10.27 9.46451 10.285 9.44451 10.29V10.285ZM9.46452 9.84998C9.46452 9.84998 9.46952 9.80498 9.48952 9.79998C9.50952 9.79498 9.53452 9.79998 9.53952 9.82498C9.54452 9.84498 9.53452 9.86998 9.51452 9.87498C9.49452 9.87998 9.46952 9.86998 9.46452 9.84998ZM9.56951 10.06C9.56951 10.06 9.52951 10.06 9.52451 10.035C9.51951 10.015 9.52452 9.99498 9.54952 9.98998C9.56952 9.98498 9.58952 9.98998 9.59452 10.015C9.59952 10.035 9.58951 10.055 9.56951 10.06ZM9.62452 10.23C9.62452 10.23 9.59452 10.23 9.58952 10.21C9.58952 10.195 9.58951 10.18 9.60951 10.175C9.62451 10.175 9.63952 10.175 9.64452 10.195C9.64452 10.21 9.64452 10.225 9.62452 10.23ZM9.70452 9.79498C9.70452 9.79498 9.66952 9.79498 9.66452 9.77498C9.65952 9.75498 9.66452 9.73998 9.68452 9.73498C9.70452 9.72998 9.71952 9.73498 9.72452 9.75498C9.72952 9.76998 9.72452 9.78998 9.70452 9.79498ZM9.76452 9.98498C9.76452 9.98498 9.72452 9.98498 9.71952 9.95998C9.71452 9.93998 9.71952 9.91998 9.74452 9.91498C9.76452 9.90998 9.78452 9.91998 9.78952 9.93998C9.79452 9.95998 9.78952 9.97998 9.76452 9.98498ZM9.81951 10.16C9.81951 10.16 9.78952 10.16 9.78452 10.14C9.78452 10.125 9.78452 10.11 9.80452 10.105C9.81952 10.105 9.83452 10.105 9.83952 10.125C9.83952 10.14 9.83951 10.155 9.81951 10.16ZM9.92452 9.91998C9.92452 9.91998 9.89452 9.91998 9.88952 9.89998C9.88952 9.88498 9.88952 9.86998 9.90952 9.86498C9.92452 9.85998 9.93951 9.86498 9.94451 9.88498C9.94451 9.89998 9.94452 9.91498 9.92452 9.91998ZM10.0145 10.085C10.0145 10.085 9.98451 10.085 9.97951 10.07C9.97951 10.055 9.97952 10.04 9.99952 10.035C10.0145 10.035 10.0295 10.035 10.0345 10.05C10.0345 10.065 10.0345 10.08 10.0145 10.085ZM10.1695 10.02C10.1695 10.02 10.1395 10.02 10.1345 9.99998C10.1345 9.98498 10.1345 9.96998 10.1545 9.96498C10.1695 9.96498 10.1845 9.96498 10.1895 9.97998C10.1895 9.99498 10.1895 10.01 10.1695 10.015V10.02Z" fill="#93C01E"/>
<path d="M8.74043 9.07021C8.77043 9.07021 8.79043 9.05022 8.79043 9.02022C8.79043 8.99022 8.76543 8.97021 8.74043 8.97021C8.71543 8.97021 8.69043 8.99022 8.69043 9.02022C8.69043 9.05022 8.71043 9.07021 8.74043 9.07021Z" fill="#93C01E"/>
<path d="M8.92012 8.91504C8.89512 8.91504 8.87012 8.94004 8.87012 8.96504C8.87012 8.99004 8.89512 9.01504 8.92012 9.01504C8.94512 9.01504 8.97012 8.99504 8.97012 8.96504C8.97012 8.93504 8.95012 8.91504 8.92012 8.91504Z" fill="#93C01E"/>
<path d="M9.09492 8.95986C9.12492 8.95986 9.14492 8.93986 9.14492 8.90986C9.14492 8.87986 9.12492 8.85986 9.09492 8.85986C9.06492 8.85986 9.04492 8.87986 9.04492 8.90986C9.04492 8.93986 9.06992 8.95986 9.09492 8.95986Z" fill="#93C01E"/>
<path d="M9.03977 8.68506C9.03977 8.68506 9.00977 8.70006 9.00977 8.71506C9.00977 8.73006 9.02477 8.74506 9.03977 8.74506C9.05477 8.74506 9.06977 8.73006 9.06977 8.71506C9.06977 8.70006 9.05477 8.68506 9.03977 8.68506Z" fill="#93C01E"/>
<path d="M8.86008 8.74512C8.86008 8.74512 8.83008 8.76012 8.83008 8.77512C8.83008 8.79012 8.84508 8.80512 8.86008 8.80512C8.87508 8.80512 8.89008 8.79012 8.89008 8.77512C8.89008 8.76012 8.87508 8.74512 8.86008 8.74512Z" fill="#93C01E"/>
<path d="M8.99996 8.54479C8.99996 8.54479 8.99996 8.53479 8.98996 8.52979C8.98996 8.52979 8.98496 8.52979 8.97996 8.52979C8.96996 8.52979 8.95996 8.53979 8.95996 8.54979C8.95996 8.55979 8.96996 8.56979 8.97996 8.56979C8.98996 8.56979 8.99996 8.55979 8.99996 8.54979V8.54479Z" fill="#93C01E"/>
<path d="M15.8354 6.69982V6.42482H16.4504V6.06982H16.9354V6.42482H17.5504V6.69982H17.2204C17.2854 6.75982 17.3354 6.82982 17.3754 6.90982C17.4154 6.98982 17.4354 7.07482 17.4354 7.16482C17.4354 7.30982 17.3904 7.44482 17.2954 7.55982C17.2004 7.67982 17.0804 7.75982 16.9354 7.80982V8.02982H17.2504C17.3554 8.02982 17.4504 8.02482 17.5404 8.00982C17.6254 7.99482 17.7004 7.97982 17.7604 7.95982V6.08482H18.2504V6.89482H18.7304V7.16982H18.2454V9.06482H17.7604V8.19982C17.6954 8.22982 17.6154 8.25482 17.5204 8.27482C17.4304 8.29482 17.3304 8.30482 17.2304 8.30482H15.8154V8.02982H16.4504V7.81482C16.3054 7.76482 16.1854 7.68482 16.0904 7.56482C15.9954 7.44482 15.9504 7.31482 15.9504 7.16982C15.9504 7.07982 15.9704 6.99482 16.0104 6.91482C16.0504 6.83482 16.1004 6.76482 16.1654 6.70482H15.8404L15.8354 6.69982ZM16.4954 6.87482C16.4404 6.95982 16.4104 7.05482 16.4104 7.16982C16.4104 7.28482 16.4404 7.37982 16.4954 7.46482C16.5504 7.54982 16.6154 7.59482 16.6904 7.59482C16.7654 7.59482 16.8354 7.54982 16.8904 7.46482C16.9454 7.37982 16.9754 7.27982 16.9754 7.16982C16.9754 7.05982 16.9454 6.95982 16.8904 6.87482C16.8354 6.78982 16.7704 6.74982 16.6904 6.74982C16.6104 6.74982 16.5504 6.78982 16.4954 6.87482Z" fill="#1C1C1B"/>
<path d="M19.0097 6.4048H19.5697V6.0498H20.0547V6.4048H20.6197V6.6798H20.0547C20.0547 6.9548 20.1347 7.1798 20.2847 7.3548C20.4347 7.5298 20.6097 7.6348 20.8047 7.6698L20.5647 7.8748C20.4147 7.8648 20.2597 7.7998 20.0997 7.6898C19.9447 7.5798 19.8447 7.4598 19.8047 7.3298C19.7647 7.4548 19.6697 7.5748 19.5097 7.6848C19.3497 7.7948 19.1947 7.8598 19.0447 7.8698L18.8047 7.6648C19.0047 7.6298 19.1797 7.5198 19.3297 7.3448C19.4797 7.1698 19.5547 6.9448 19.5597 6.6698H18.9997V6.3948L19.0097 6.4048ZM19.9797 8.7898H21.5747V9.0648H19.8297C19.7347 9.0648 19.6547 9.0348 19.5897 8.9798C19.5247 8.9248 19.4947 8.8448 19.4947 8.7398V8.0998H19.9797V8.7898ZM21.4747 6.0848V8.2898H20.9897V7.2098H20.4397V6.9348H20.9897V6.0898H21.4747V6.0848Z" fill="#1C1C1B"/>
<path d="M22.3154 6.11486H24.3904V6.94486C24.3904 7.02486 24.3804 7.11486 24.3604 7.20486C24.3404 7.29486 24.3104 7.36486 24.2754 7.40986H24.7404V7.68486H23.7504V8.37486H23.2654V7.68486H21.9854V7.40986H23.8454C23.8704 7.34986 23.8854 7.27486 23.8904 7.19486C23.8954 7.11486 23.9004 7.03486 23.9004 6.94986V6.38486H22.3154V6.10986V6.11486ZM22.9004 8.78986H24.4254V9.06486H22.7554C22.6604 9.06486 22.5804 9.03486 22.5154 8.97986C22.4504 8.92486 22.4204 8.84486 22.4204 8.73986V8.07986H22.9054V8.78986H22.9004Z" fill="#1C1C1B"/>
<path d="M16.0003 10.145V10.535H15.8203V9.66504H16.0003V9.99504H16.3403V9.66504H16.5203V10.535H16.3403V10.145H16.0003Z" fill="#1C1C1B"/>
<path d="M17.3501 10.5351H17.1751L17.0751 10.0651L16.9751 10.5351H16.8001L16.6201 9.89014H16.8001L16.9001 10.3551L16.9901 9.89014H17.1601L17.2551 10.3551L17.3551 9.89014H17.5301L17.3451 10.5351H17.3501Z" fill="#1C1C1B"/>
<path d="M18.15 10.41C18.15 10.485 18.165 10.505 18.19 10.51V10.535H18.005C17.995 10.505 17.995 10.495 17.99 10.46C17.95 10.5 17.895 10.555 17.78 10.555C17.685 10.555 17.585 10.5 17.585 10.365C17.585 10.24 17.665 10.175 17.775 10.16L17.93 10.135C17.955 10.135 17.99 10.12 17.99 10.085C17.99 10.015 17.92 10.01 17.88 10.01C17.795 10.01 17.78 10.06 17.775 10.1H17.61C17.63 9.905 17.765 9.875 17.9 9.875C17.99 9.875 18.155 9.905 18.155 10.06V10.41H18.15ZM17.985 10.22C17.985 10.22 17.94 10.245 17.87 10.255C17.805 10.265 17.755 10.28 17.755 10.35C17.755 10.41 17.8 10.43 17.835 10.43C17.91 10.43 17.985 10.38 17.985 10.305V10.225V10.22Z" fill="#1C1C1B"/>
<path d="M18.8645 9.95014C18.8495 9.90014 18.8245 9.80014 18.6695 9.80014C18.5845 9.80014 18.4545 9.86014 18.4545 10.1051C18.4545 10.2601 18.5145 10.4001 18.6695 10.4001C18.7695 10.4001 18.8395 10.3451 18.8645 10.2351H19.0445C19.0095 10.4251 18.8845 10.5551 18.6645 10.5551C18.4345 10.5551 18.2695 10.4001 18.2695 10.1001C18.2695 9.80014 18.4445 9.64014 18.6695 9.64014C18.9295 9.64014 19.0345 9.82014 19.0445 9.94514H18.8645V9.95014Z" fill="#1C1C1B"/>
<path d="M19.7549 10.5349H19.5849V10.1449C19.5849 10.0999 19.5849 10.0199 19.4749 10.0199C19.3999 10.0199 19.3399 10.0699 19.3399 10.1699V10.5399H19.1699V9.66992H19.3399V9.97992C19.3599 9.92492 19.4349 9.87992 19.5249 9.87992C19.6499 9.87992 19.7499 9.95492 19.7499 10.0949V10.5399L19.7549 10.5349Z" fill="#1C1C1B"/>
<path d="M20.4654 10.3499C20.4204 10.5049 20.2904 10.5549 20.1804 10.5549C20.0004 10.5549 19.8604 10.4699 19.8604 10.2049C19.8604 10.1249 19.8854 9.87988 20.1704 9.87988C20.2954 9.87988 20.4754 9.93988 20.4754 10.2349V10.2649H20.0354C20.0354 10.3149 20.0504 10.4199 20.1854 10.4199C20.2304 10.4199 20.2804 10.3949 20.2954 10.3499H20.4704H20.4654ZM20.3004 10.1549C20.2904 10.0499 20.2254 10.0199 20.1704 10.0199C20.0904 10.0199 20.0504 10.0699 20.0404 10.1549H20.3054H20.3004Z" fill="#1C1C1B"/>
<path d="M20.8798 10.555C20.7048 10.555 20.5498 10.45 20.5498 10.215C20.5498 9.98 20.7048 9.875 20.8798 9.875C21.0548 9.875 21.2098 9.98 21.2098 10.215C21.2098 10.45 21.0548 10.555 20.8798 10.555ZM20.8798 10.02C20.7498 10.02 20.7248 10.135 20.7248 10.215C20.7248 10.295 20.7498 10.41 20.8798 10.41C21.0098 10.41 21.0348 10.295 21.0348 10.215C21.0348 10.135 21.0098 10.02 20.8798 10.02Z" fill="#1C1C1B"/>
<path d="M21.9102 10.5349H21.7402V10.1449C21.7402 10.0999 21.7402 10.0199 21.6302 10.0199C21.5552 10.0199 21.4952 10.0699 21.4952 10.1699V10.5399H21.3252V9.89488H21.4852V9.98988C21.5102 9.94988 21.5552 9.87988 21.6802 9.87988C21.8052 9.87988 21.9052 9.95488 21.9052 10.0949V10.5399L21.9102 10.5349Z" fill="#1C1C1B"/>
<path d="M22.3595 10.2751H22.0195V10.1201H22.3595V10.2751Z" fill="#1C1C1B"/>
<path d="M22.8903 10.07H23.2553V10.54H23.1353L23.1153 10.43C23.0703 10.485 23.0003 10.56 22.8453 10.56C22.6353 10.56 22.4453 10.41 22.4453 10.105C22.4453 9.87002 22.5753 9.64502 22.8703 9.64502C23.1353 9.64502 23.2403 9.82002 23.2503 9.94002H23.0703C23.0703 9.90502 23.0103 9.79502 22.8803 9.79502C22.7503 9.79502 22.6303 9.88502 22.6303 10.11C22.6303 10.345 22.7603 10.41 22.8853 10.41C22.9253 10.41 23.0603 10.395 23.0953 10.22H22.8953V10.075L22.8903 10.07Z" fill="#1C1C1B"/>
<path d="M23.9949 10.535H23.8349V10.445C23.7949 10.515 23.7299 10.555 23.6399 10.555C23.5149 10.555 23.4199 10.48 23.4199 10.32V9.89502H23.5899V10.295C23.5899 10.395 23.6499 10.415 23.6999 10.415C23.7549 10.415 23.8299 10.385 23.8299 10.27V9.90002H23.9999V10.545L23.9949 10.535Z" fill="#1C1C1B"/>
<path d="M24.7354 10.5349H24.5654V10.1449C24.5654 10.0999 24.5654 10.0199 24.4554 10.0199C24.3804 10.0199 24.3204 10.0699 24.3204 10.1699V10.5399H24.1504V9.89488H24.3104V9.98988C24.3354 9.94988 24.3804 9.87988 24.5054 9.87988C24.6304 9.87988 24.7304 9.95488 24.7304 10.0949V10.5399L24.7354 10.5349Z" fill="#1C1C1B"/>
<path d="M101.68 6.70508H101.085V7.96508H98.6547V6.70508H98.0597C97.9197 6.70508 97.8047 6.82008 97.8047 6.96008V9.70008C97.8047 9.84008 97.9197 9.95508 98.0597 9.95508H98.6547V8.59508H101.085V9.95508H101.68C101.82 9.95508 101.935 9.84008 101.935 9.70008V6.96008C101.935 6.82008 101.82 6.70508 101.68 6.70508Z" fill="#0C68AD"/>
<path d="M96.8653 6.7052H96.2703V9.1002L94.4003 7.2052C94.1053 6.9152 93.9003 6.7052 93.4253 6.7052H92.9053V9.7002C92.9053 9.8402 93.0203 9.9552 93.1603 9.9552H93.7553V7.5452L95.6103 9.4252C95.9153 9.7252 96.1853 9.9502 96.6253 9.9502H97.1253V6.9552C97.1253 6.8152 97.0103 6.7002 96.8703 6.7002L96.8653 6.7052Z" fill="#0C68AD"/>
<path d="M108.57 8.52977L109.315 7.81977H109.05C108.92 7.81977 108.85 7.88977 108.785 7.94977C108.785 7.94977 108.345 8.37477 108.27 8.44977V7.13477H108.125C108.035 7.13477 107.965 7.20477 107.965 7.29477V9.25477C107.965 9.33977 108.04 9.41477 108.125 9.41477H108.27V8.61477C108.295 8.64477 108.89 9.29477 108.89 9.29477C108.955 9.36477 109 9.41477 109.135 9.41477H109.405C109.405 9.41477 108.58 8.53977 108.57 8.52977Z" fill="#0C68AD"/>
<path d="M107.005 7.81982H106.275V9.25482C106.275 9.34482 106.345 9.41482 106.435 9.41482H106.58V8.06982H106.97C107.21 8.08482 107.295 8.22482 107.295 8.60482V9.41482H107.44C107.53 9.41482 107.6 9.34482 107.6 9.25482V8.50482C107.6 8.05482 107.395 7.81982 107 7.81982H107.005Z" fill="#0C68AD"/>
<path d="M103.895 8.30986C104.135 8.21486 104.275 8.05986 104.275 7.78986C104.275 7.42486 104.015 7.23486 103.505 7.23486H103.07C102.98 7.23486 102.91 7.30486 102.91 7.39486V9.25486C102.91 9.33986 102.98 9.41486 103.07 9.41486H103.495C104.055 9.41486 104.33 9.22486 104.33 8.82986C104.33 8.53986 104.14 8.35486 103.895 8.30486V8.30986ZM103.405 8.16486H103.245V7.50986H103.565C103.68 7.50986 103.955 7.53986 103.955 7.82486C103.955 8.13986 103.705 8.16486 103.41 8.16486H103.405ZM103.99 8.80986C103.99 9.04486 103.83 9.14986 103.465 9.14986H103.24V8.43486H103.435C103.695 8.43486 103.99 8.47486 103.99 8.80986Z" fill="#0C68AD"/>
<path d="M105.18 9.18004C105.045 9.18004 104.895 9.09004 104.895 8.94004C104.895 8.68504 105.27 8.66004 105.435 8.66004H105.615V9.18004H105.185H105.18ZM105.76 9.42004C105.85 9.42004 105.92 9.35004 105.92 9.26004V8.45004C105.92 8.00004 105.715 7.79004 105.275 7.79004C105.1 7.79004 104.93 7.83504 104.765 7.93004V8.21004L104.775 8.20004C104.89 8.10004 105.065 8.04004 105.23 8.04004C105.5 8.04004 105.61 8.15504 105.61 8.43504C105.5 8.43004 105.42 8.43004 105.31 8.43004C105.055 8.43004 104.57 8.53504 104.57 8.94504C104.57 9.25504 104.78 9.42004 105.155 9.42004H105.76Z" fill="#0C68AD"/>
<path d="M8.34496 62.7649C8.24496 62.8249 8.08496 62.8449 7.97996 62.8449C7.35996 62.8449 6.95996 62.3549 6.95996 61.7049C6.95996 61.0149 7.41496 60.5449 8.07996 60.5449C8.74496 60.5449 9.19996 61.0049 9.19996 61.6849C9.19996 61.9549 9.05996 62.2999 8.93496 62.5849L8.13496 64.4799H7.59496L8.34496 62.7649ZM8.07996 60.9849C7.69996 60.9849 7.44496 61.2649 7.44496 61.7049C7.44496 62.1449 7.70496 62.4249 8.07996 62.4249C8.45496 62.4249 8.71496 62.1349 8.71496 61.7049C8.71496 61.2749 8.45996 60.9849 8.07996 60.9849Z" fill="#000001"/>
<path d="M11.725 60.5898L10.44 63.4098H11.56V62.2648H12.045V63.4098H12.4V63.8498H12.045V64.4798H11.56V63.8498H9.875V63.4948L11.245 60.5948H11.725V60.5898Z" fill="#000001"/>
<path d="M14.5452 62.7649C14.4452 62.8249 14.2852 62.8449 14.1802 62.8449C13.5602 62.8449 13.1602 62.3549 13.1602 61.7049C13.1602 61.0149 13.6152 60.5449 14.2802 60.5449C14.9452 60.5449 15.4002 61.0049 15.4002 61.6849C15.4002 61.9549 15.2602 62.2999 15.1352 62.5849L14.3352 64.4799H13.7952L14.5452 62.7649ZM14.2802 60.9849C13.9002 60.9849 13.6452 61.2649 13.6452 61.7049C13.6452 62.1449 13.9052 62.4249 14.2802 62.4249C14.6552 62.4249 14.9152 62.1349 14.9152 61.7049C14.9152 61.2749 14.6602 60.9849 14.2802 60.9849Z" fill="#000001"/>
<path d="M16.8154 62.6148H16.3704V60.5898H18.3404V61.0748H16.8354V62.0948C16.9604 61.9548 17.1554 61.8398 17.4554 61.8398C18.1754 61.8398 18.5054 62.3898 18.5054 63.2648C18.5054 64.0298 18.1104 64.5198 17.3654 64.5198C16.7604 64.5198 16.3154 64.0948 16.2754 63.5598H16.7504C16.8254 63.8848 17.0504 64.0798 17.3654 64.0798C17.7654 64.0798 18.0204 63.8498 18.0204 63.2648C18.0204 62.6798 17.8304 62.3248 17.3654 62.3248C17.1004 62.3248 16.9204 62.4598 16.8104 62.6098L16.8154 62.6148Z" fill="#000001"/>
<path d="M24.4154 60.5898L23.1304 63.4098H24.2504V62.2648H24.7354V63.4098H25.0904V63.8498H24.7354V64.4798H24.2504V63.8498H22.5654V63.4948L23.9354 60.5948H24.4154V60.5898Z" fill="#000001"/>
<path d="M26.6948 62.3048C26.7948 62.2448 26.9548 62.2248 27.0598 62.2248C27.6798 62.2248 28.0798 62.7148 28.0798 63.3648C28.0798 64.0548 27.6248 64.5248 26.9598 64.5248C26.2948 64.5248 25.8398 64.0648 25.8398 63.3848C25.8398 63.1148 25.9798 62.7698 26.1048 62.4848L26.9048 60.5898H27.4448L26.6948 62.3048ZM26.9598 64.0848C27.3398 64.0848 27.5948 63.8048 27.5948 63.3648C27.5948 62.9248 27.3348 62.6448 26.9598 62.6448C26.5848 62.6448 26.3248 62.9348 26.3248 63.3648C26.3248 63.7948 26.5798 64.0848 26.9598 64.0848Z" fill="#000001"/>
<path d="M30.4005 64.4798H29.9155V61.1498L29.3555 61.5498V61.0198L29.9155 60.5898H30.4005V64.4798Z" fill="#000001"/>
<path d="M34.2547 64.48H31.9697V64.075L33.3397 62.455C33.6047 62.145 33.7797 61.88 33.7797 61.585C33.7797 61.18 33.4697 60.975 33.1497 60.975C32.7997 60.975 32.5247 61.185 32.5147 61.585H32.0347C32.0347 60.945 32.5397 60.54 33.1497 60.54C33.7597 60.54 34.2647 60.94 34.2647 61.605C34.2647 62.065 33.9247 62.44 33.6797 62.74L32.6097 64.035H34.2547V64.475V64.48Z" fill="#000001"/>
<path d="M39.2897 62.2552H39.5297C40.0447 62.2552 40.2647 61.9902 40.2647 61.5702C40.2647 61.2652 40.0147 60.9852 39.6347 60.9852C39.2547 60.9852 39.0097 61.2252 38.9997 61.5452H38.5247C38.5247 60.9302 39.0547 60.5552 39.6347 60.5552C40.2847 60.5552 40.7497 60.9902 40.7497 61.5852C40.7497 61.9852 40.5247 62.3002 40.1697 62.4702C40.5497 62.6202 40.8047 62.9302 40.8047 63.4302C40.8047 64.0252 40.3597 64.5352 39.6697 64.5352C38.9247 64.5352 38.5097 64.1002 38.4697 63.5152H38.9447C38.9947 63.8302 39.2097 64.0952 39.6697 64.0952C40.0347 64.0952 40.3197 63.8152 40.3197 63.4402C40.3197 62.9802 40.0497 62.7002 39.5297 62.7002H39.2897V62.2602V62.2552Z" fill="#000001"/>
<path d="M43.3051 60.5898L42.0201 63.4098H43.1401V62.2648H43.6251V63.4098H43.9801V63.8498H43.6251V64.4798H43.1401V63.8498H41.4551V63.4948L42.8251 60.5948H43.3051V60.5898Z" fill="#000001"/>
<path d="M45.29 62.6148H44.845V60.5898H46.815V61.0748H45.31V62.0948C45.435 61.9548 45.63 61.8398 45.93 61.8398C46.65 61.8398 46.98 62.3898 46.98 63.2648C46.98 64.0298 46.585 64.5198 45.84 64.5198C45.235 64.5198 44.79 64.0948 44.75 63.5598H45.225C45.3 63.8848 45.525 64.0798 45.84 64.0798C46.24 64.0798 46.495 63.8498 46.495 63.2648C46.495 62.6798 46.305 62.3248 45.84 62.3248C45.575 62.3248 45.395 62.4598 45.285 62.6098L45.29 62.6148Z" fill="#000001"/>
<path d="M48.6851 62.3048C48.7851 62.2448 48.9451 62.2248 49.0501 62.2248C49.6701 62.2248 50.0701 62.7148 50.0701 63.3648C50.0701 64.0548 49.6151 64.5248 48.9501 64.5248C48.2851 64.5248 47.8301 64.0648 47.8301 63.3848C47.8301 63.1148 47.9701 62.7698 48.0951 62.4848L48.8951 60.5898H49.4351L48.6851 62.3048ZM48.9501 64.0848C49.3301 64.0848 49.5851 63.8048 49.5851 63.3648C49.5851 62.9248 49.3251 62.6448 48.9501 62.6448C48.5751 62.6448 48.3151 62.9348 48.3151 63.3648C48.3151 63.7948 48.5701 64.0848 48.9501 64.0848Z" fill="#000001"/>
<path d="M54.3448 61.7152V60.5952H56.5298V61.0352L55.2948 64.4852H54.7798L56.0198 61.0352H54.7798V61.7152H54.3398H54.3448Z" fill="#000001"/>
<path d="M57.9601 62.4648C57.6501 62.3148 57.4251 61.9848 57.4251 61.6198C57.4251 60.9698 57.9551 60.5498 58.5401 60.5498C59.1251 60.5498 59.6551 60.9748 59.6551 61.6198C59.6551 61.9848 59.4251 62.3148 59.1151 62.4648C59.4301 62.5948 59.7101 62.9498 59.7101 63.3898C59.7101 64.0798 59.1451 64.5298 58.5401 64.5298C57.9351 64.5298 57.3701 64.0798 57.3701 63.3898C57.3701 62.9498 57.6551 62.5948 57.9601 62.4648ZM58.5401 64.0898C58.9251 64.0898 59.2301 63.7748 59.2301 63.3898C59.2301 62.9598 58.8701 62.6948 58.5401 62.6948C58.2101 62.6948 57.8551 62.9598 57.8551 63.3898C57.8551 63.7748 58.1501 64.0898 58.5401 64.0898ZM58.5401 62.2648C58.8901 62.2648 59.1701 61.9798 59.1701 61.6248C59.1701 61.2698 58.8901 60.9948 58.5401 60.9948C58.1901 60.9948 57.9051 61.2748 57.9051 61.6248C57.9051 61.9748 58.1851 62.2648 58.5401 62.2648Z" fill="#000001"/>
<path d="M61.9153 62.7649C61.8153 62.8249 61.6553 62.8449 61.5503 62.8449C60.9303 62.8449 60.5303 62.3549 60.5303 61.7049C60.5303 61.0149 60.9853 60.5449 61.6503 60.5449C62.3153 60.5449 62.7703 61.0049 62.7703 61.6849C62.7703 61.9549 62.6303 62.2999 62.5053 62.5849L61.7053 64.4799H61.1653L61.9153 62.7649ZM61.6503 60.9849C61.2703 60.9849 61.0153 61.2649 61.0153 61.7049C61.0153 62.1449 61.2753 62.4249 61.6503 62.4249C62.0253 62.4249 62.2853 62.1349 62.2853 61.7049C62.2853 61.2749 62.0303 60.9849 61.6503 60.9849Z" fill="#000001"/>
<path d="M65.8599 63.4048C65.8599 64.1198 65.3299 64.5248 64.7449 64.5248C64.1599 64.5248 63.6299 64.1198 63.6299 63.3998V61.6748C63.6299 60.9548 64.1599 60.5498 64.7449 60.5498C65.3299 60.5498 65.8599 60.9548 65.8599 61.6698V63.4048ZM64.7449 60.9898C64.3899 60.9898 64.1099 61.2548 64.1099 61.6698V63.4048C64.1099 63.8198 64.3899 64.0848 64.7449 64.0848C65.0999 64.0848 65.3749 63.8198 65.3749 63.4048V61.6698C65.3749 61.2548 65.0949 60.9898 64.7449 60.9898Z" fill="#000001"/>
<path d="M9.40996 28.165C9.64996 28.165 9.83996 28.23 9.97496 28.365C10.11 28.5 10.18 28.685 10.185 28.925H11.275C11.46 28.925 11.605 28.98 11.705 29.085C11.805 29.19 11.855 29.325 11.855 29.485C11.855 29.635 11.81 29.765 11.715 29.87C11.62 29.98 11.495 30.04 11.335 30.055C11.415 30.255 11.455 30.48 11.455 30.725V31.04C11.455 31.555 11.335 31.95 11.1 32.23C10.865 32.505 10.545 32.69 10.14 32.78V33.81H11.26C11.49 33.81 11.655 33.87 11.75 33.995C11.845 34.12 11.895 34.255 11.895 34.41C11.895 34.565 11.845 34.71 11.75 34.835C11.65 34.96 11.49 35.02 11.265 35.02H7.68496C7.45996 35.02 7.29496 34.96 7.19496 34.835C7.09496 34.71 7.04496 34.57 7.04496 34.41C7.04496 34.25 7.09496 34.115 7.18996 33.995C7.28496 33.875 7.44996 33.81 7.68496 33.81H8.68496V32.78C8.27996 32.69 7.95996 32.505 7.71996 32.23C7.48496 31.955 7.36496 31.56 7.36496 31.04V30.725C7.36496 30.47 7.40496 30.245 7.47996 30.055C7.31996 30.04 7.19496 29.98 7.09996 29.87C7.00496 29.76 6.95996 29.635 6.95996 29.485C6.95996 29.325 7.00996 29.19 7.10996 29.085C7.20996 28.98 7.35496 28.925 7.53996 28.925H8.63996C8.64496 28.685 8.71496 28.5 8.84996 28.365C8.98496 28.23 9.17496 28.165 9.41496 28.165H9.40996ZM9.40996 31.72C9.58496 31.72 9.73496 31.67 9.86496 31.575C9.99496 31.48 10.055 31.31 10.055 31.075V30.645C10.055 30.41 9.98996 30.245 9.86496 30.145C9.73996 30.045 9.58496 30 9.40996 30C9.23496 30 9.08496 30.05 8.95496 30.145C8.82496 30.24 8.76496 30.41 8.76496 30.645V31.075C8.76496 31.31 8.82996 31.475 8.95496 31.575C9.07996 31.675 9.23496 31.72 9.40996 31.72ZM12.16 28.945C12.16 28.705 12.235 28.525 12.385 28.4C12.535 28.275 12.71 28.215 12.905 28.215C13 28.215 13.095 28.23 13.185 28.265C13.275 28.3 13.355 28.345 13.42 28.405C13.49 28.465 13.545 28.54 13.585 28.63C13.625 28.72 13.65 28.825 13.65 28.945V30.845H13.9C14.015 30.845 14.11 30.865 14.185 30.905C14.26 30.945 14.32 30.995 14.365 31.06C14.41 31.125 14.445 31.195 14.465 31.27C14.485 31.35 14.495 31.425 14.495 31.5C14.495 31.575 14.485 31.65 14.465 31.73C14.445 31.81 14.41 31.88 14.365 31.94C14.32 32.005 14.26 32.055 14.18 32.095C14.1 32.135 14.01 32.155 13.9 32.155H13.65V35.275H12.16V28.945Z" fill="#000001"/>
<path d="M17.5355 30.1148V30.2498C17.5355 30.3198 17.5355 30.3848 17.5305 30.4448C17.5255 30.5048 17.5155 30.5648 17.5055 30.6248C18.0605 30.6498 18.4755 30.8148 18.7405 31.1198C19.0105 31.4248 19.1355 31.9048 19.1255 32.5648H17.7355C17.7505 32.2748 17.7005 32.0498 17.5805 31.8948C17.4605 31.7398 17.3105 31.6598 17.1205 31.6548C16.9005 31.9698 16.6255 32.2048 16.2955 32.3598C15.9655 32.5148 15.6205 32.5998 15.2655 32.6098C15.0805 32.6148 14.9255 32.5648 14.7955 32.4648C14.6655 32.3648 14.6055 32.2298 14.6055 32.0598C14.6055 31.8898 14.6505 31.7498 14.7355 31.6548C14.8205 31.5598 14.9405 31.4998 15.0905 31.4748C15.4255 31.4198 15.6855 31.2848 15.8605 31.0698C16.0405 30.8548 16.1255 30.5798 16.1255 30.2498V30.1148H15.1855C15.0955 30.1148 15.0155 30.0948 14.9505 30.0598C14.8805 30.0248 14.8255 29.9798 14.7805 29.9198C14.7355 29.8598 14.7005 29.7998 14.6755 29.7298C14.6505 29.6598 14.6355 29.5948 14.6355 29.5248C14.6355 29.4598 14.6455 29.3898 14.6655 29.3198C14.6855 29.2448 14.7205 29.1798 14.7655 29.1198C14.8105 29.0598 14.8705 29.0098 14.9405 28.9748C15.0105 28.9398 15.0955 28.9198 15.1905 28.9198H16.1055V28.8748C16.1055 28.6498 16.1655 28.4848 16.2955 28.3748C16.4205 28.2648 16.6005 28.2148 16.8355 28.2148C17.0705 28.2148 17.2505 28.2698 17.3805 28.3748C17.5105 28.4798 17.5705 28.6498 17.5705 28.8748V28.9198H18.5155C18.6105 28.9198 18.6955 28.9398 18.7655 28.9748C18.8355 29.0148 18.8955 29.0598 18.9405 29.1198C18.9855 29.1798 19.0205 29.2448 19.0405 29.3198C19.0605 29.3948 19.0705 29.4598 19.0705 29.5248C19.0705 29.5948 19.0555 29.6648 19.0305 29.7298C19.0055 29.7948 18.9705 29.8598 18.9255 29.9198C18.8805 29.9798 18.8255 30.0248 18.7555 30.0598C18.6855 30.0948 18.6105 30.1148 18.5205 30.1148H17.5355ZM16.2055 35.2798C15.9955 35.2798 15.8205 35.2598 15.6805 35.2198C15.5405 35.1798 15.4355 35.1148 15.3555 35.0298C15.2755 34.9448 15.2205 34.8298 15.1855 34.6898C15.1505 34.5498 15.1355 34.3798 15.1355 34.1798V33.6248C15.1355 33.3698 15.2105 33.1848 15.3655 33.0748C15.5205 32.9648 15.7005 32.9098 15.9105 32.9098C16.1205 32.9098 16.3005 32.9648 16.4455 33.0748C16.5905 33.1848 16.6655 33.3698 16.6655 33.6248V33.9248C16.6655 34.0098 16.6805 34.0648 16.7055 34.0848C16.7305 34.1048 16.7855 34.1148 16.8705 34.1148H20.9555C21.1855 34.1148 21.3505 34.1748 21.4455 34.2898C21.5405 34.4098 21.5905 34.5398 21.5905 34.6898C21.5905 34.8398 21.5405 34.9798 21.4455 35.0998C21.3505 35.2198 21.1855 35.2748 20.9605 35.2748H16.2155L16.2055 35.2798ZM19.8905 31.2298H19.4605C19.2355 31.2298 19.0805 31.1698 18.9905 31.0498C18.9005 30.9298 18.8605 30.7898 18.8605 30.6348C18.8605 30.5598 18.8705 30.4848 18.8905 30.4148C18.9105 30.3448 18.9455 30.2798 18.9905 30.2248C19.0355 30.1648 19.0955 30.1198 19.1755 30.0898C19.2555 30.0548 19.3505 30.0398 19.4655 30.0398H19.8955V28.9498C19.8955 28.7098 19.9705 28.5298 20.1205 28.4048C20.2705 28.2798 20.4455 28.2198 20.6405 28.2198C20.7355 28.2198 20.8305 28.2348 20.9205 28.2698C21.0105 28.3048 21.0905 28.3498 21.1605 28.4098C21.2305 28.4698 21.2855 28.5448 21.3305 28.6348C21.3755 28.7248 21.3955 28.8298 21.3955 28.9498V33.5348H19.9005V31.2248L19.8905 31.2298Z" fill="#000001"/>
<path d="M24.8953 32.315H22.7003C22.4753 32.315 22.3153 32.25 22.2153 32.125C22.1153 31.995 22.0703 31.855 22.0703 31.7C22.0703 31.625 22.0803 31.55 22.1053 31.475C22.1253 31.4 22.1653 31.335 22.2153 31.275C22.2653 31.22 22.3303 31.17 22.4103 31.13C22.4903 31.09 22.5903 31.075 22.7053 31.075H26.9403C27.0153 30.93 27.0803 30.765 27.1303 30.585C27.1803 30.405 27.2053 30.19 27.2053 29.945V29.755C27.2053 29.685 27.1903 29.64 27.1653 29.62C27.1403 29.6 27.0903 29.59 27.0203 29.59H23.0903C22.8453 29.59 22.6703 29.53 22.5603 29.41C22.4503 29.29 22.4003 29.14 22.4003 28.965C22.4003 28.805 22.4553 28.665 22.5603 28.54C22.6653 28.415 22.8453 28.355 23.0953 28.355H27.7053C28.0703 28.355 28.3303 28.43 28.4853 28.575C28.6403 28.725 28.7153 28.93 28.7153 29.205V29.685C28.7153 30.025 28.6903 30.305 28.6403 30.52C28.5903 30.735 28.5253 30.92 28.4453 31.07H28.5003C28.6153 31.07 28.7153 31.09 28.7953 31.125C28.8753 31.165 28.9403 31.21 28.9903 31.27C29.0403 31.33 29.0753 31.395 29.1003 31.47C29.1203 31.545 29.1353 31.62 29.1353 31.695C29.1353 31.85 29.0853 31.99 28.9903 32.12C28.8953 32.25 28.7303 32.31 28.5053 32.31H26.4353V33.575H24.9253V32.31L24.8953 32.315ZM23.5103 35.275C23.3003 35.275 23.1253 35.255 22.9903 35.22C22.8503 35.18 22.7453 35.12 22.6653 35.03C22.5853 34.94 22.5303 34.83 22.4953 34.69C22.4603 34.55 22.4453 34.38 22.4453 34.175V33.415C22.4453 33.16 22.5253 32.975 22.6803 32.86C22.8353 32.745 23.0203 32.69 23.2303 32.69C23.4403 32.69 23.6203 32.745 23.7703 32.86C23.9203 32.975 23.9903 33.155 23.9903 33.415V33.905C23.9903 33.985 24.0053 34.035 24.0303 34.055C24.0553 34.075 24.1103 34.085 24.1953 34.085H28.2503C28.4803 34.085 28.6453 34.145 28.7403 34.27C28.8353 34.395 28.8853 34.53 28.8853 34.68C28.8853 34.83 28.8353 34.975 28.7403 35.095C28.6453 35.215 28.4803 35.275 28.2553 35.275H23.5253H23.5103Z" fill="#000001"/>
<path d="M12.3696 42.5552H11.3846V43.4502C11.3846 43.7802 11.3346 44.0752 11.2346 44.3252C11.1346 44.5752 10.9946 44.7902 10.8146 44.9602C10.6346 45.1302 10.4146 45.2602 10.1596 45.3452C9.90461 45.4302 9.61961 45.4752 9.30961 45.4752C8.99961 45.4752 8.71461 45.4302 8.45961 45.3452C8.20461 45.2602 7.98461 45.1302 7.79961 44.9602C7.61461 44.7902 7.47461 44.5802 7.37461 44.3252C7.27461 44.0702 7.22461 43.7802 7.22461 43.4502V40.7002C7.22461 40.3702 7.27461 40.0752 7.37461 39.8252C7.47461 39.5752 7.61461 39.3602 7.79961 39.1902C7.98461 39.0202 8.19961 38.8902 8.45961 38.8052C8.71461 38.7202 8.99961 38.6752 9.30961 38.6752C9.61961 38.6752 9.90461 38.7152 10.1596 38.8052C10.4146 38.8902 10.6346 39.0202 10.8146 39.1902C10.9946 39.3602 11.1346 39.5702 11.2346 39.8252C11.3346 40.0802 11.3846 40.3702 11.3846 40.7002V41.2702H12.3696V39.2852C12.3696 39.0452 12.4446 38.8652 12.5946 38.7402C12.7446 38.6152 12.9196 38.5552 13.1146 38.5552C13.2096 38.5552 13.3046 38.5702 13.3946 38.6052C13.4846 38.6402 13.5646 38.6852 13.6346 38.7452C13.7046 38.8052 13.7596 38.8802 13.8046 38.9702C13.8496 39.0602 13.8696 39.1652 13.8696 39.2852V45.6152H12.3746V42.5552H12.3696ZM8.69961 43.4852C8.69961 43.7402 8.75461 43.9302 8.86961 44.0552C8.98461 44.1802 9.12961 44.2402 9.30961 44.2402C9.48961 44.2402 9.63461 44.1802 9.74961 44.0552C9.86461 43.9302 9.91961 43.7452 9.91961 43.4852V40.6602C9.91961 40.4052 9.86461 40.2152 9.74961 40.0902C9.63461 39.9652 9.48961 39.9052 9.30961 39.9052C9.12961 39.9052 8.98461 39.9652 8.86961 40.0902C8.75461 40.2152 8.69961 40.4002 8.69961 40.6602V43.4852Z" fill="#000001"/>
<path d="M20.9397 44.2048C21.0547 44.2048 21.1547 44.2248 21.2347 44.2598C21.3197 44.2998 21.3847 44.3448 21.4397 44.4048C21.4947 44.4648 21.5297 44.5348 21.5547 44.6098C21.5747 44.6848 21.5897 44.7598 21.5897 44.8348C21.5897 44.9148 21.5797 44.9948 21.5547 45.0698C21.5297 45.1448 21.4897 45.2148 21.4397 45.2748C21.3847 45.3348 21.3197 45.3848 21.2397 45.4198C21.1597 45.4548 21.0597 45.4748 20.9447 45.4748H15.1997C15.0847 45.4748 14.9847 45.4548 14.9047 45.4198C14.8247 45.3848 14.7597 45.3348 14.7047 45.2748C14.6497 45.2148 14.6147 45.1448 14.5897 45.0698C14.5647 44.9948 14.5547 44.9148 14.5547 44.8348C14.5547 44.7598 14.5647 44.6848 14.5897 44.6098C14.6097 44.5348 14.6497 44.4648 14.7047 44.4048C14.7597 44.3448 14.8247 44.2948 14.9097 44.2598C14.9947 44.2198 15.0897 44.2048 15.2047 44.2048H20.9497H20.9397ZM19.5947 40.1998C19.5947 40.1498 19.5797 40.0998 19.5547 40.0548C19.5297 40.0098 19.4747 39.9848 19.3897 39.9848H15.4797C15.2997 39.9848 15.1597 39.9248 15.0547 39.7998C14.9497 39.6748 14.8997 39.5398 14.8997 39.3848C14.8997 39.2298 14.9497 39.0948 15.0547 38.9698C15.1597 38.8448 15.2997 38.7798 15.4797 38.7798H19.8247C20.0847 38.7798 20.2997 38.8098 20.4697 38.8648C20.6397 38.9248 20.7747 39.0048 20.8747 39.1048C20.9747 39.2048 21.0447 39.3298 21.0897 39.4748C21.1297 39.6198 21.1547 39.7848 21.1547 39.9648V41.5798H16.6947C16.5247 41.5798 16.4397 41.6548 16.4397 41.7998V41.8398C16.4397 41.9748 16.5247 42.0448 16.6947 42.0448H20.7697C20.8747 42.0448 20.9647 42.0598 21.0347 42.0998C21.1097 42.1348 21.1697 42.1798 21.2147 42.2398C21.2647 42.2998 21.2947 42.3598 21.3147 42.4298C21.3347 42.4998 21.3447 42.5698 21.3447 42.6398C21.3447 42.7098 21.3347 42.7798 21.3097 42.8498C21.2847 42.9198 21.2547 42.9848 21.2097 43.0398C21.1647 43.0948 21.1047 43.1398 21.0347 43.1748C20.9597 43.2098 20.8747 43.2298 20.7697 43.2298H16.3097C15.8197 43.2298 15.4447 43.1098 15.1947 42.8698C14.9397 42.6298 14.8147 42.3048 14.8147 41.8998V41.7548C14.8147 41.3498 14.9397 41.0298 15.1947 40.7948C15.4497 40.5598 15.8197 40.4448 16.3097 40.4448H19.5897V40.1948L19.5947 40.1998Z" fill="#000001"/>
<path d="M22.4254 41.4652C22.8004 41.3302 23.0954 41.1102 23.3104 40.8002C23.5254 40.4902 23.6354 40.0602 23.6354 39.5052V39.3702C23.6354 39.2502 23.6604 39.1452 23.7054 39.0602C23.7504 38.9702 23.8104 38.9002 23.8804 38.8402C23.9504 38.7802 24.0354 38.7402 24.1304 38.7102C24.2254 38.6802 24.3204 38.6702 24.4204 38.6702C24.6154 38.6752 24.7854 38.7352 24.9354 38.8552C25.0854 38.9752 25.1554 39.1452 25.1554 39.3702V39.5052C25.1554 39.7252 25.1404 39.9352 25.1104 40.1302C25.3804 40.1652 25.6254 40.2402 25.8454 40.3502C26.0654 40.4602 26.2554 40.6152 26.4104 40.8152C26.5654 41.0152 26.6804 41.2602 26.7604 41.5552C26.8404 41.8502 26.8704 42.1952 26.8554 42.5952H25.3904C25.4454 41.8302 25.2204 41.3902 24.7204 41.2852C24.4954 41.6852 24.2154 42.0002 23.8804 42.2302C23.5454 42.4602 23.2004 42.6052 22.8454 42.6602C22.6554 42.6902 22.4904 42.6602 22.3554 42.5802C22.2204 42.4952 22.1254 42.3852 22.0754 42.2402C22.0204 42.0702 22.0254 41.9102 22.0954 41.7652C22.1654 41.6202 22.2704 41.5202 22.4204 41.4652H22.4254ZM23.7254 45.6152C23.5154 45.6152 23.3404 45.5952 23.2004 45.5552C23.0604 45.5152 22.9554 45.4502 22.8754 45.3652C22.7954 45.2802 22.7404 45.1652 22.7054 45.0252C22.6704 44.8852 22.6554 44.7152 22.6554 44.5152V43.7502C22.6554 43.4952 22.7304 43.3052 22.8854 43.1852C23.0404 43.0652 23.2204 43.0052 23.4304 43.0052C23.6404 43.0052 23.8204 43.0652 23.9654 43.1852C24.1104 43.3052 24.1854 43.4952 24.1854 43.7502V44.2602C24.1854 44.3452 24.2004 44.4002 24.2254 44.4202C24.2504 44.4402 24.3054 44.4502 24.3904 44.4502H28.4754C28.7054 44.4502 28.8704 44.5102 28.9654 44.6252C29.0604 44.7452 29.1104 44.8752 29.1104 45.0252C29.1104 45.1752 29.0604 45.3152 28.9654 45.4352C28.8704 45.5552 28.7054 45.6102 28.4804 45.6102H23.7354L23.7254 45.6152ZM27.3854 39.3002C27.3854 39.0552 27.4604 38.8702 27.6154 38.7452C27.7704 38.6202 27.9454 38.5552 28.1454 38.5552C28.2404 38.5552 28.3354 38.5702 28.4254 38.6052C28.5204 38.6402 28.6004 38.6852 28.6704 38.7502C28.7404 38.8152 28.7954 38.8902 28.8404 38.9852C28.8854 39.0802 28.9054 39.1852 28.9054 39.3052V43.8752H27.3854V39.3052V39.3002Z" fill="#000001"/>
<path d="M32.9845 45.2951C32.7645 45.2951 32.5845 45.2751 32.4445 45.2351C32.3045 45.1951 32.1945 45.1301 32.1145 45.0401C32.0345 44.9501 31.9795 44.8351 31.9445 44.6901C31.9095 44.5451 31.8945 44.3751 31.8945 44.1651V39.4951C31.8945 39.2401 31.9645 39.0551 32.0995 38.9401C32.2395 38.8251 32.4145 38.7651 32.6395 38.7651C32.8645 38.7651 33.0295 38.8251 33.1595 38.9401C33.2895 39.0551 33.3545 39.2401 33.3545 39.4901V40.6551H34.6245V39.4901C34.6245 39.2351 34.6895 39.0501 34.8245 38.9351C34.9595 38.8201 35.1295 38.7601 35.3495 38.7601C35.5695 38.7601 35.7445 38.8201 35.8745 38.9351C36.0045 39.0551 36.0695 39.2351 36.0695 39.4851V45.2801H32.9845V45.2951ZM34.6245 44.0701V41.8751H33.3545V43.8751C33.3545 43.9601 33.3695 44.0151 33.3945 44.0351C33.4195 44.0551 33.4795 44.0701 33.5645 44.0701H34.6245ZM36.8195 39.2901C36.8195 39.0501 36.8945 38.8701 37.0445 38.7451C37.1945 38.6201 37.3695 38.5601 37.5645 38.5601C37.6595 38.5601 37.7545 38.5751 37.8445 38.6101C37.9345 38.6451 38.0145 38.6901 38.0795 38.7501C38.1495 38.8101 38.2045 38.8851 38.2445 38.9751C38.2845 39.0651 38.3095 39.1701 38.3095 39.2901V41.1901H38.5595C38.6745 41.1901 38.7695 41.2101 38.8445 41.2501C38.9195 41.2901 38.9795 41.3401 39.0245 41.4051C39.0695 41.4701 39.1045 41.5401 39.1245 41.6151C39.1445 41.6951 39.1545 41.7701 39.1545 41.8451C39.1545 41.9201 39.1445 41.9951 39.1245 42.0751C39.1045 42.1551 39.0695 42.2251 39.0245 42.2851C38.9795 42.3501 38.9195 42.4001 38.8395 42.4401C38.7595 42.4801 38.6695 42.5001 38.5595 42.5001H38.3095V45.6201H36.8195V39.2901Z" fill="#000001"/>
<path d="M43.4998 43.9352V45.6552H41.9648V43.9352H39.8448C39.6198 43.9352 39.4598 43.8702 39.3598 43.7452C39.2598 43.6202 39.2148 43.4802 39.2148 43.3252C39.2148 43.2502 39.2248 43.1752 39.2498 43.1052C39.2698 43.0302 39.3098 42.9652 39.3598 42.9052C39.4098 42.8452 39.4748 42.7952 39.5548 42.7602C39.6348 42.7252 39.7348 42.7052 39.8498 42.7052H45.6248C45.7398 42.7052 45.8398 42.7252 45.9198 42.7602C45.9998 42.7952 46.0648 42.8452 46.1148 42.9052C46.1648 42.9652 46.1998 43.0302 46.2248 43.1052C46.2448 43.1802 46.2598 43.2502 46.2598 43.3252C46.2598 43.4802 46.2098 43.6202 46.1148 43.7452C46.0198 43.8702 45.8548 43.9352 45.6298 43.9352H43.5098H43.4998ZM46.0798 40.5052C46.0798 40.7302 46.0398 40.9452 45.9648 41.1502C45.8898 41.3552 45.7798 41.5302 45.6348 41.6902C45.4898 41.8452 45.3098 41.9702 45.0998 42.0602C44.8848 42.1552 44.6398 42.2002 44.3648 42.2002H41.1098C40.8348 42.2002 40.5898 42.1552 40.3748 42.0602C40.1598 41.9652 39.9848 41.8402 39.8348 41.6852C39.6848 41.5302 39.5798 41.3452 39.5048 41.1452C39.4298 40.9402 39.3898 40.7302 39.3898 40.5002V40.4002C39.3898 40.1752 39.4298 39.9602 39.5048 39.7552C39.5798 39.5502 39.6898 39.3702 39.8348 39.2152C39.9798 39.0552 40.1598 38.9302 40.3748 38.8402C40.5898 38.7452 40.8298 38.7002 41.1098 38.7002H44.3648C44.6398 38.7002 44.8848 38.7452 45.0998 38.8402C45.3148 38.9352 45.4898 39.0602 45.6348 39.2152C45.7798 39.3752 45.8898 39.5552 45.9648 39.7552C46.0398 39.9602 46.0798 40.1702 46.0798 40.4002V40.5052ZM44.5248 40.4052C44.5248 40.2702 44.4748 40.1502 44.3698 40.0502C44.2648 39.9502 44.1098 39.9002 43.8998 39.9002H41.5748C41.3648 39.9002 41.2098 39.9502 41.1048 40.0502C40.9998 40.1502 40.9498 40.2702 40.9498 40.4052V40.4952C40.9498 40.6302 40.9998 40.7452 41.1048 40.8452C41.2098 40.9452 41.3648 40.9902 41.5748 40.9902H43.8998C44.1048 40.9902 44.2598 40.9402 44.3648 40.8452C44.4698 40.7452 44.5248 40.6302 44.5248 40.4952V40.4052Z" fill="#000001"/>
<path d="M48.9851 38.5249C49.2401 38.5249 49.4301 38.5899 49.5601 38.7149C49.6901 38.8399 49.7501 39.0249 49.7501 39.2649V39.3549H50.6801C50.7951 39.3549 50.8901 39.3749 50.9701 39.4099C51.0501 39.4449 51.1101 39.4999 51.1601 39.5599C51.2101 39.6249 51.2451 39.6899 51.2651 39.7649C51.2851 39.8399 51.2951 39.9149 51.2951 39.9899C51.2951 40.0649 51.2851 40.1399 51.2601 40.2149C51.2401 40.2899 51.2001 40.3599 51.1551 40.4199C51.1051 40.4799 51.0451 40.5299 50.9651 40.5649C50.8851 40.6049 50.7901 40.6199 50.6801 40.6199H49.7151V41.0799C49.7151 41.2699 49.7101 41.4549 49.6951 41.6299C49.6851 41.8049 49.6651 41.9749 49.6401 42.1349C49.9101 42.2199 50.1501 42.3349 50.3651 42.4849C50.5801 42.6349 50.7551 42.8249 50.9001 43.0649C51.0451 43.3049 51.1501 43.5949 51.2151 43.9399C51.2851 44.2849 51.3001 44.6999 51.2701 45.1899H49.8801C49.9351 44.7099 49.9101 44.3249 49.8101 44.0449C49.7051 43.7599 49.5351 43.5499 49.2951 43.3999C49.1051 43.8399 48.8651 44.2099 48.5701 44.5049C48.2751 44.7999 47.9401 45.0249 47.5651 45.1799C47.4851 45.2149 47.4001 45.2349 47.3101 45.2349C47.2201 45.2349 47.1301 45.2299 47.0451 45.2049C46.9601 45.1849 46.8801 45.1449 46.8101 45.0949C46.7401 45.0449 46.6851 44.9799 46.6451 44.9049C46.5751 44.7699 46.5551 44.6249 46.5901 44.4699C46.6251 44.3149 46.7201 44.1899 46.8701 44.0999C47.1001 43.9649 47.3051 43.8049 47.4801 43.6249C47.6551 43.4449 47.8001 43.2349 47.9201 42.9899C48.0401 42.7449 48.1251 42.4649 48.1851 42.1449C48.2451 41.8249 48.2701 41.4549 48.2701 41.0399V40.6199H47.2601C47.1451 40.6199 47.0501 40.5999 46.9701 40.5649C46.8901 40.5299 46.8251 40.4799 46.7751 40.4199C46.7201 40.3599 46.6851 40.2899 46.6601 40.2149C46.6401 40.1399 46.6251 40.0649 46.6251 39.9899C46.6251 39.9149 46.6351 39.8399 46.6601 39.7649C46.6801 39.6899 46.7201 39.6199 46.7701 39.5599C46.8201 39.4949 46.8851 39.4449 46.9651 39.4099C47.0451 39.3699 47.1451 39.3549 47.2601 39.3549H48.2051V39.2649C48.2051 39.0249 48.2701 38.8399 48.3951 38.7149C48.5201 38.5899 48.7151 38.5249 48.9701 38.5249H48.9851ZM52.0901 42.4049H51.1651C51.0501 42.4049 50.9551 42.3849 50.8751 42.3499C50.7951 42.3149 50.7301 42.2599 50.6801 42.1999C50.6251 42.1349 50.5901 42.0649 50.5651 41.9899C50.5401 41.9099 50.5301 41.8349 50.5301 41.7599C50.5301 41.6849 50.5401 41.6099 50.5651 41.5299C50.5851 41.4499 50.6251 41.3849 50.6751 41.3249C50.7251 41.2649 50.7901 41.2149 50.8701 41.1749C50.9501 41.1349 51.0501 41.1149 51.1651 41.1149H52.0901V39.2899C52.0901 39.0499 52.1651 38.8699 52.3151 38.7449C52.4651 38.6199 52.6401 38.5599 52.8351 38.5599C52.9301 38.5599 53.0251 38.5749 53.1151 38.6099C53.2051 38.6449 53.2851 38.6899 53.3551 38.7499C53.4251 38.8099 53.4801 38.8849 53.5251 38.9749C53.5701 39.0649 53.5901 39.1699 53.5901 39.2899V45.6199H52.0951V42.4099L52.0901 42.4049Z" fill="#000001"/>
<path d="M57.015 44.0701C57.27 44.0451 57.505 44.0051 57.725 43.9451C57.945 43.8901 58.14 43.8001 58.31 43.6901C58.485 43.5751 58.63 43.4301 58.75 43.2451C58.87 43.0601 58.96 42.8251 59.02 42.5451H57.11C56.995 42.5451 56.9 42.5251 56.82 42.4901C56.74 42.4551 56.675 42.4051 56.625 42.3451C56.57 42.2851 56.535 42.2151 56.51 42.1401C56.49 42.0601 56.475 41.9851 56.475 41.9101C56.475 41.8351 56.485 41.7601 56.51 41.6851C56.535 41.6101 56.57 41.5401 56.62 41.4801C56.67 41.4201 56.735 41.3701 56.815 41.3351C56.895 41.2951 56.995 41.2801 57.11 41.2801H59.11V40.3401C59.11 40.2851 59.095 40.2401 59.06 40.2051C59.025 40.1701 58.98 40.1501 58.92 40.1501H57.175C57.06 40.1501 56.965 40.1301 56.885 40.0901C56.805 40.0501 56.74 40.0001 56.69 39.9351C56.635 39.8701 56.6 39.8001 56.575 39.7251C56.55 39.6501 56.54 39.5701 56.54 39.4951C56.54 39.4201 56.55 39.3451 56.575 39.2651C56.595 39.1851 56.635 39.1201 56.685 39.0601C56.735 39.0001 56.8 38.9501 56.88 38.9101C56.96 38.8701 57.06 38.8501 57.175 38.8501H59.395C59.82 38.8501 60.125 38.9451 60.305 39.1351C60.485 39.3251 60.575 39.5951 60.575 39.9451V41.6351C60.575 42.3101 60.49 42.8801 60.32 43.3401C60.15 43.8001 59.915 44.1701 59.615 44.4551C59.315 44.7401 58.955 44.9501 58.54 45.0851C58.125 45.2201 57.67 45.2951 57.18 45.3201C57.09 45.3201 57 45.3151 56.915 45.2901C56.825 45.2651 56.75 45.2251 56.68 45.1701C56.61 45.1151 56.56 45.0451 56.52 44.9651C56.48 44.8801 56.46 44.7851 56.46 44.6751C56.46 44.5151 56.505 44.3801 56.595 44.2701C56.685 44.1601 56.825 44.0951 57.015 44.0751V44.0701ZM61.48 39.2901C61.48 39.0501 61.555 38.8701 61.705 38.7451C61.855 38.6201 62.03 38.5601 62.225 38.5601C62.32 38.5601 62.415 38.5751 62.505 38.6101C62.595 38.6451 62.675 38.6901 62.74 38.7501C62.81 38.8101 62.865 38.8851 62.905 38.9751C62.945 39.0651 62.97 39.1701 62.97 39.2901V41.1901H63.22C63.335 41.1901 63.43 41.2101 63.505 41.2501C63.58 41.2901 63.64 41.3401 63.685 41.4051C63.73 41.4701 63.765 41.5401 63.785 41.6151C63.805 41.6951 63.815 41.7701 63.815 41.8451C63.815 41.9201 63.805 41.9951 63.785 42.0751C63.765 42.1551 63.73 42.2251 63.685 42.2851C63.64 42.3501 63.58 42.4001 63.5 42.4401C63.42 42.4801 63.33 42.5001 63.22 42.5001H62.97V45.6201H61.48V39.2901Z" fill="#000001"/>
<path d="M70.2649 44.1949C70.3799 44.1949 70.4799 44.2149 70.5599 44.2499C70.6449 44.2899 70.7099 44.3349 70.7649 44.3949C70.8199 44.4549 70.8549 44.5249 70.8799 44.5999C70.8999 44.6799 70.9149 44.7549 70.9149 44.8299C70.9149 44.9099 70.9049 44.9899 70.8799 45.0649C70.8549 45.1399 70.8149 45.2099 70.7649 45.2699C70.7099 45.3299 70.6449 45.3799 70.5649 45.4149C70.4849 45.4499 70.3849 45.4699 70.2699 45.4699H64.5249C64.4099 45.4699 64.3099 45.4499 64.2299 45.4149C64.1499 45.3799 64.0849 45.3299 64.0299 45.2699C63.9749 45.2099 63.9399 45.1399 63.9149 45.0649C63.8899 44.9899 63.8799 44.9099 63.8799 44.8299C63.8799 44.7549 63.8899 44.6799 63.9149 44.5999C63.9349 44.5199 63.9749 44.4549 64.0299 44.3949C64.0849 44.3349 64.1499 44.2849 64.2349 44.2499C64.3199 44.2099 64.4149 44.1949 64.5299 44.1949H70.2749H70.2649ZM69.8199 38.7949C69.9249 38.7949 70.0149 38.8149 70.0899 38.8549C70.1649 38.8949 70.2249 38.9449 70.2699 39.0049C70.3149 39.0649 70.3499 39.1349 70.3699 39.2099C70.3899 39.2849 70.3999 39.3599 70.3999 39.4299C70.3999 39.4999 70.3899 39.5749 70.3699 39.6499C70.3499 39.7249 70.3149 39.7949 70.2699 39.8549C70.2199 39.9149 70.1599 39.9649 70.0899 39.9999C70.0199 40.0349 69.9299 40.0549 69.8249 40.0549H66.0199C65.9399 40.0549 65.8849 40.0699 65.8549 40.0949C65.8249 40.1249 65.8099 40.1749 65.8099 40.2549V41.4149C65.8099 41.4949 65.8249 41.5499 65.8549 41.5799C65.8849 41.6099 65.9399 41.6249 66.0199 41.6249H69.9449C70.0499 41.6249 70.1399 41.6449 70.2149 41.6849C70.2899 41.7249 70.3499 41.7749 70.3949 41.8349C70.4399 41.8949 70.4749 41.9599 70.4949 42.0349C70.5149 42.1099 70.5299 42.1799 70.5299 42.2499C70.5299 42.3199 70.5199 42.3949 70.4949 42.4699C70.4699 42.5449 70.4349 42.6149 70.3899 42.6749C70.3399 42.7349 70.2799 42.7849 70.2099 42.8249C70.1349 42.8649 70.0499 42.8849 69.9449 42.8849H65.4849C65.2599 42.8849 65.0699 42.8649 64.9149 42.8199C64.7599 42.7799 64.6349 42.7099 64.5449 42.6149C64.4499 42.5199 64.3849 42.3949 64.3399 42.2449C64.2949 42.0949 64.2749 41.9099 64.2749 41.6899V39.9899C64.2749 39.7749 64.2949 39.5899 64.3399 39.4399C64.3799 39.2899 64.4499 39.1649 64.5449 39.0699C64.6399 38.9749 64.7599 38.9049 64.9149 38.8649C65.0699 38.8249 65.2599 38.7999 65.4849 38.7999H69.8249L69.8199 38.7949Z" fill="#000001"/>
<path d="M75.12 44.705C75.21 44.705 75.285 44.72 75.345 44.75C75.405 44.78 75.46 44.82 75.5 44.87C75.54 44.92 75.57 44.98 75.585 45.04C75.6 45.105 75.61 45.165 75.61 45.225C75.61 45.285 75.6 45.35 75.585 45.415C75.565 45.48 75.54 45.54 75.5 45.595C75.46 45.65 75.41 45.69 75.345 45.725C75.28 45.76 75.205 45.775 75.12 45.775H74.97C74.725 45.775 74.5 45.74 74.3 45.665C74.1 45.59 73.925 45.475 73.785 45.32C73.645 45.165 73.53 44.97 73.455 44.735C73.375 44.5 73.335 44.225 73.335 43.905V41.015C73.335 40.695 73.375 40.42 73.455 40.185C73.535 39.95 73.645 39.755 73.785 39.605C73.925 39.455 74.1 39.335 74.3 39.26C74.5 39.185 74.725 39.145 74.97 39.145H75.12C75.21 39.145 75.285 39.16 75.345 39.195C75.41 39.23 75.46 39.27 75.5 39.325C75.54 39.38 75.57 39.435 75.585 39.505C75.6 39.57 75.61 39.635 75.61 39.695C75.61 39.755 75.6 39.82 75.585 39.88C75.565 39.945 75.54 40 75.5 40.05C75.46 40.1 75.41 40.14 75.345 40.17C75.28 40.2 75.205 40.215 75.12 40.215H75.06C75.005 40.215 74.94 40.23 74.875 40.26C74.81 40.29 74.75 40.335 74.695 40.39C74.64 40.45 74.595 40.525 74.56 40.62C74.525 40.715 74.505 40.825 74.505 40.96V43.975C74.505 44.105 74.52 44.22 74.56 44.31C74.6 44.4 74.64 44.48 74.695 44.535C74.75 44.595 74.81 44.64 74.875 44.665C74.94 44.69 75 44.71 75.06 44.71H75.12V44.705Z" fill="#0C68AD"/>
<path d="M78.2847 42.205V41.815H77.0996C76.9046 41.815 76.7447 41.8 76.6197 41.765C76.4947 41.73 76.3996 41.68 76.3346 41.605C76.2646 41.53 76.2196 41.43 76.1946 41.3C76.1696 41.175 76.1597 41.015 76.1597 40.82V40.445C76.1597 40.255 76.1696 40.1 76.1946 39.97C76.2196 39.845 76.2646 39.74 76.3346 39.665C76.4046 39.59 76.4997 39.535 76.6197 39.505C76.7447 39.475 76.9046 39.46 77.0996 39.46H80.8447C81.0397 39.46 81.1996 39.475 81.3246 39.505C81.4496 39.535 81.5446 39.59 81.6096 39.665C81.6796 39.74 81.7246 39.845 81.7496 39.97C81.7746 40.095 81.7847 40.255 81.7847 40.445V41.815H79.6246V42.205H81.4996C81.6946 42.205 81.8396 42.255 81.9196 42.36C82.0046 42.465 82.0446 42.58 82.0446 42.71C82.0446 42.84 82.0046 42.96 81.9196 43.06C81.8346 43.165 81.6946 43.215 81.4996 43.215H76.4346C76.2396 43.215 76.0946 43.165 76.0146 43.06C75.9296 42.955 75.8896 42.84 75.8896 42.71C75.8896 42.58 75.9296 42.46 76.0146 42.36C76.0996 42.255 76.2396 42.205 76.4346 42.205H78.2847ZM76.6996 44.56C76.5196 44.56 76.3846 44.515 76.2896 44.42C76.1946 44.33 76.1497 44.205 76.1497 44.06C76.1497 43.915 76.1946 43.795 76.2896 43.705C76.3846 43.615 76.5196 43.575 76.6996 43.575H80.8297C81.0247 43.575 81.1846 43.59 81.3096 43.625C81.4346 43.66 81.5297 43.71 81.5947 43.785C81.6647 43.86 81.7096 43.96 81.7346 44.09C81.7596 44.22 81.7696 44.38 81.7696 44.565V45.545H80.4547V44.705C80.4547 44.61 80.4046 44.56 80.3096 44.56H76.6996ZM77.4746 40.7C77.4746 40.765 77.4846 40.815 77.5046 40.84C77.5246 40.87 77.5697 40.885 77.6347 40.885H80.4746V40.565C80.4746 40.505 80.4647 40.46 80.4397 40.43C80.4197 40.4 80.3746 40.385 80.3096 40.385H77.6347C77.5697 40.385 77.5246 40.4 77.5046 40.43C77.4846 40.46 77.4746 40.505 77.4746 40.565V40.705V40.7Z" fill="#0C68AD"/>
<path d="M87.1548 39.4351C87.3648 39.4351 87.5498 39.4651 87.7048 39.5301C87.8598 39.5951 87.9898 39.6801 88.0948 39.7901C88.1998 39.9001 88.2798 40.0301 88.3298 40.1751C88.3798 40.3201 88.4048 40.4751 88.4048 40.6401C88.4048 40.7851 88.3848 40.9251 88.3448 41.0551C88.3048 41.1851 88.2399 41.3051 88.1599 41.4051C88.0799 41.5051 87.9748 41.5951 87.8498 41.6651C87.7248 41.7351 87.5799 41.7851 87.4099 41.8101V42.2251H88.0748C88.2698 42.2251 88.4149 42.2751 88.4949 42.3751C88.5799 42.4751 88.6199 42.5901 88.6199 42.7251C88.6199 42.8601 88.5799 42.9751 88.4949 43.0751C88.4099 43.1751 88.2698 43.2251 88.0748 43.2251H83.0098C82.8148 43.2251 82.6698 43.1751 82.5898 43.0751C82.5048 42.9751 82.4648 42.8601 82.4648 42.7251C82.4648 42.5901 82.5048 42.4751 82.5898 42.3751C82.6748 42.2751 82.8148 42.2251 83.0098 42.2251H83.6749V41.8101C83.5099 41.7851 83.3598 41.7351 83.2348 41.6651C83.1098 41.5951 83.0049 41.5101 82.9249 41.4051C82.8399 41.3001 82.7798 41.1851 82.7398 41.0551C82.6998 40.9251 82.6798 40.7851 82.6798 40.6401C82.6798 40.4801 82.7048 40.3251 82.7548 40.1751C82.8048 40.0301 82.8798 39.9001 82.9848 39.7901C83.0898 39.6801 83.2198 39.5951 83.3748 39.5301C83.5298 39.4651 83.7148 39.4351 83.9298 39.4351H87.1548ZM83.2748 44.5601C83.0948 44.5601 82.9598 44.5151 82.8648 44.4201C82.7698 44.3301 82.7248 44.2051 82.7248 44.0601C82.7248 43.9151 82.7698 43.7951 82.8648 43.7051C82.9598 43.6151 83.0948 43.5751 83.2748 43.5751H87.4048C87.5998 43.5751 87.7598 43.5901 87.8848 43.6251C88.0098 43.6601 88.1048 43.7101 88.1698 43.7851C88.2398 43.8601 88.2848 43.9601 88.3098 44.0901C88.3348 44.2201 88.3448 44.3801 88.3448 44.5651V45.5451H87.0298V44.7051C87.0298 44.6101 86.9798 44.5601 86.8848 44.5601H83.2748ZM86.7898 40.8901C86.8898 40.8901 86.9648 40.8651 87.0048 40.8201C87.0448 40.7751 87.0698 40.7151 87.0698 40.6401C87.0698 40.5651 87.0498 40.5051 87.0048 40.4551C86.9598 40.4051 86.8898 40.3851 86.7898 40.3851H84.3098C84.2098 40.3851 84.1348 40.4101 84.0898 40.4551C84.0448 40.5051 84.0198 40.5651 84.0198 40.6401C84.0198 40.7101 84.0448 40.7701 84.0898 40.8201C84.1348 40.8701 84.2098 40.8901 84.3098 40.8901H86.7898ZM84.9348 42.2251H86.1599V41.8301H84.9348V42.2251Z" fill="#0C68AD"/>
<path d="M91.6654 40.6449V40.9099C91.6654 40.9599 91.6654 41.0049 91.6654 41.0499C91.6654 41.0949 91.6604 41.1399 91.6554 41.1799C92.1454 41.2249 92.5104 41.3949 92.7454 41.6999C92.9804 42.0049 93.0954 42.4549 93.0854 43.0549H91.8604C91.8804 42.7899 91.8454 42.5799 91.7504 42.4149C91.6554 42.2499 91.5204 42.1549 91.3504 42.1199C91.2604 42.2749 91.1504 42.4099 91.0304 42.5299C90.9054 42.6499 90.7754 42.7549 90.6304 42.8349C90.4854 42.9199 90.3354 42.9849 90.1754 43.0299C90.0154 43.0749 89.8604 43.0999 89.7004 43.1049C89.5404 43.1149 89.4004 43.0699 89.2804 42.9799C89.1654 42.8899 89.1004 42.7649 89.0954 42.6199C89.0854 42.4649 89.1204 42.3449 89.1904 42.2499C89.2604 42.1549 89.3654 42.0999 89.4954 42.0749C89.7954 42.0199 90.0204 41.8899 90.1804 41.6749C90.3404 41.4599 90.4154 41.2049 90.4154 40.9099V40.6449H89.6204C89.5404 40.6449 89.4704 40.6299 89.4154 40.5949C89.3554 40.5599 89.3054 40.5199 89.2654 40.4699C89.2254 40.4199 89.1954 40.3649 89.1754 40.2999C89.1554 40.2399 89.1404 40.1749 89.1404 40.1149C89.1404 40.0599 89.1504 39.9999 89.1654 39.9349C89.1804 39.8699 89.2104 39.8149 89.2504 39.7599C89.2904 39.7049 89.3404 39.6649 89.4004 39.6299C89.4604 39.5949 89.5354 39.5749 89.6154 39.5749H92.5554C92.6404 39.5749 92.7104 39.5899 92.7704 39.6299C92.8304 39.6649 92.8804 39.7099 92.9204 39.7599C92.9604 39.8149 92.9904 39.8699 93.0054 39.9349C93.0204 39.9999 93.0304 40.0599 93.0304 40.1149C93.0304 40.1749 93.0204 40.2399 92.9954 40.2999C92.9754 40.3599 92.9404 40.4149 92.9054 40.4699C92.8704 40.5249 92.8154 40.5599 92.7554 40.5949C92.6954 40.6299 92.6254 40.6449 92.5504 40.6449H91.6554H91.6654ZM90.4954 45.5449C90.3104 45.5449 90.1604 45.5249 90.0404 45.4899C89.9204 45.4549 89.8254 45.3999 89.7554 45.3249C89.6854 45.2499 89.6354 45.1499 89.6054 45.0299C89.5754 44.9099 89.5604 44.7599 89.5604 44.5849V43.9449C89.5604 43.7199 89.6254 43.5549 89.7604 43.4499C89.8954 43.3449 90.0554 43.2899 90.2354 43.2899C90.4154 43.2899 90.5754 43.3449 90.7004 43.4499C90.8254 43.5549 90.8904 43.7199 90.8904 43.9449V44.3599C90.8904 44.4349 90.9004 44.4799 90.9254 44.4999C90.9454 44.5199 90.9954 44.5249 91.0704 44.5249H94.6404C94.8404 44.5249 94.9854 44.5749 95.0704 44.6799C95.1554 44.7849 95.1954 44.8999 95.1954 45.0299C95.1954 45.1599 95.1504 45.2849 95.0654 45.3899C94.9804 45.4949 94.8404 45.5449 94.6404 45.5449H90.4904H90.4954ZM93.7204 41.7449H93.3454C93.2454 41.7449 93.1604 41.7299 93.0954 41.6999C93.0304 41.6699 92.9754 41.6299 92.9354 41.5799C92.8954 41.5299 92.8654 41.4749 92.8454 41.4099C92.8304 41.3449 92.8204 41.2799 92.8204 41.2149C92.8204 41.1499 92.8304 41.0849 92.8454 41.0199C92.8604 40.9549 92.8904 40.8999 92.9304 40.8499C92.9704 40.7999 93.0254 40.7599 93.0904 40.7299C93.1604 40.6999 93.2404 40.6849 93.3454 40.6849H93.7204V40.0149C93.7204 39.8049 93.7854 39.6449 93.9154 39.5399C94.0454 39.4299 94.2004 39.3799 94.3704 39.3799C94.4554 39.3799 94.5354 39.3949 94.6154 39.4249C94.6954 39.4549 94.7654 39.4949 94.8254 39.5449C94.8854 39.5999 94.9354 39.6649 94.9754 39.7399C95.0104 39.8199 95.0304 39.9099 95.0304 40.0149V44.0299H93.7204V41.7549V41.7449Z" fill="#0C68AD"/>
<path d="M96.8352 42.0802V41.6402C96.4952 41.6002 96.2452 41.4802 96.0752 41.2802C95.9052 41.0802 95.8202 40.8402 95.8202 40.5602V40.5452C95.8202 40.3852 95.8452 40.2402 95.9002 40.1102C95.9552 39.9752 96.0302 39.8602 96.1352 39.7602C96.2402 39.6602 96.3702 39.5852 96.5302 39.5302C96.6902 39.4752 96.8702 39.4502 97.0752 39.4502H100.325C100.53 39.4502 100.715 39.4802 100.87 39.5302C101.025 39.5802 101.16 39.6602 101.265 39.7602C101.37 39.8602 101.45 39.9752 101.5 40.1102C101.555 40.2452 101.58 40.3902 101.58 40.5452V40.5602C101.58 40.8402 101.495 41.0802 101.325 41.2802C101.155 41.4802 100.905 41.6002 100.565 41.6402V42.0802H101.26C101.45 42.0802 101.58 42.1302 101.66 42.2302C101.735 42.3302 101.775 42.4452 101.775 42.5652C101.775 42.6852 101.735 42.8052 101.655 42.9002C101.575 42.9952 101.445 43.0452 101.26 43.0452H96.1302C95.9452 43.0452 95.8152 42.9952 95.7352 42.9002C95.6552 42.8052 95.6152 42.6902 95.6152 42.5652C95.6152 42.4402 95.6552 42.3302 95.7302 42.2302C95.8052 42.1302 95.9402 42.0802 96.1302 42.0802H96.8252H96.8352ZM100.335 43.3452C100.54 43.3452 100.72 43.3752 100.875 43.4302C101.03 43.4852 101.155 43.5652 101.26 43.6652C101.365 43.7652 101.44 43.8802 101.49 44.0152C101.54 44.1502 101.565 44.3002 101.565 44.4552C101.565 44.6102 101.54 44.7602 101.49 44.8952C101.44 45.0302 101.365 45.1502 101.26 45.2452C101.155 45.3452 101.03 45.4202 100.875 45.4802C100.72 45.5352 100.54 45.5652 100.335 45.5652H97.0702C96.8652 45.5652 96.6852 45.5352 96.5252 45.4802C96.3702 45.4252 96.2402 45.3452 96.1402 45.2452C96.0402 45.1452 95.9652 45.0302 95.9152 44.8952C95.8652 44.7602 95.8402 44.6102 95.8402 44.4552C95.8402 44.3002 95.8652 44.1502 95.9152 44.0152C95.9652 43.8802 96.0402 43.7602 96.1402 43.6652C96.2402 43.5652 96.3702 43.4902 96.5252 43.4302C96.6802 43.3752 96.8602 43.3452 97.0702 43.3452H100.335ZM97.1502 40.5702C97.1502 40.6252 97.1702 40.6752 97.2102 40.7102C97.2502 40.7452 97.3302 40.7652 97.4452 40.7652H99.9602C100.08 40.7652 100.16 40.7502 100.195 40.7102C100.235 40.6752 100.255 40.6302 100.255 40.5702V40.5452C100.255 40.4952 100.235 40.4552 100.195 40.4152C100.155 40.3802 100.075 40.3602 99.9602 40.3602H97.4452C97.3252 40.3602 97.2452 40.3802 97.2102 40.4152C97.1702 40.4502 97.1502 40.4952 97.1502 40.5452V40.5702ZM99.9252 44.6802C100.05 44.6802 100.135 44.6552 100.17 44.6052C100.205 44.5552 100.225 44.5052 100.225 44.4552C100.225 44.4052 100.21 44.3552 100.17 44.3052C100.135 44.2552 100.055 44.2302 99.9252 44.2302H97.4802C97.3552 44.2302 97.2702 44.2552 97.2352 44.3052C97.2002 44.3552 97.1802 44.4052 97.1802 44.4552C97.1802 44.5052 97.1952 44.5552 97.2352 44.6052C97.2752 44.6552 97.3502 44.6802 97.4802 44.6802H99.9252ZM98.0902 42.0802H99.3152V41.6502H98.0902V42.0802Z" fill="#0C68AD"/>
<path d="M102.61 44.7051C102.665 44.7051 102.73 44.6901 102.795 44.6601C102.86 44.6301 102.92 44.5851 102.975 44.5301C103.03 44.4751 103.075 44.3951 103.11 44.3051C103.145 44.2151 103.165 44.1001 103.165 43.9701V40.9551C103.165 40.8251 103.145 40.7101 103.11 40.6151C103.075 40.5201 103.03 40.4451 102.975 40.3851C102.92 40.3251 102.86 40.2801 102.795 40.2551C102.73 40.2251 102.67 40.2101 102.61 40.2101H102.55C102.46 40.2101 102.385 40.1951 102.325 40.1651C102.26 40.1351 102.21 40.0951 102.17 40.0451C102.13 39.9951 102.1 39.9401 102.085 39.8751C102.07 39.8101 102.06 39.7501 102.06 39.6901C102.06 39.6301 102.07 39.5651 102.085 39.5001C102.105 39.4351 102.13 39.3751 102.17 39.3201C102.21 39.2651 102.26 39.2251 102.325 39.1901C102.39 39.1551 102.465 39.1401 102.55 39.1401H102.7C102.945 39.1401 103.17 39.1801 103.37 39.2551C103.57 39.3301 103.745 39.4451 103.885 39.6001C104.025 39.7551 104.14 39.9501 104.215 40.1801C104.295 40.4151 104.335 40.6901 104.335 41.0101V43.9001C104.335 44.2201 104.295 44.5001 104.215 44.7301C104.135 44.9651 104.025 45.1601 103.885 45.3151C103.74 45.4701 103.57 45.5851 103.37 45.6601C103.17 45.7351 102.945 45.7701 102.7 45.7701H102.55C102.46 45.7701 102.385 45.7551 102.325 45.7201C102.26 45.6851 102.21 45.6451 102.17 45.5901C102.13 45.5351 102.1 45.4801 102.085 45.4101C102.07 45.3451 102.06 45.2801 102.06 45.2201C102.06 45.1601 102.07 45.0951 102.085 45.0351C102.105 44.9701 102.13 44.9151 102.17 44.8651C102.21 44.8151 102.26 44.7751 102.325 44.7451C102.39 44.7151 102.465 44.7001 102.55 44.7001H102.61V44.7051Z" fill="#0C68AD"/>
</g>
<defs>
<clipPath id="clip0_6554_65405">
<rect width="114" height="72" fill="white"/>
</clipPath>
</defs>
</svg>
