<svg width="114" height="72" viewBox="0 0 114 72" fill="none" xmlns="http://www.w3.org/2000/svg">
<g clip-path="url(#clip0_6554_65497)">
<path d="M113.89 67.9081C113.89 70.1114 112.111 71.9051 109.917 71.9051H3.97326C1.77922 71.9051 0 70.1164 0 67.9081V3.99695C0 1.78863 1.77922 0 3.97326 0H109.917C112.111 0 113.89 1.78863 113.89 3.99695V67.9031V67.9081Z" fill="#FADBE2"/>
<path d="M11.755 6.97964C11.755 6.97964 11.755 6.97964 11.75 6.97964C11.735 6.96965 11.7151 6.95965 11.7001 6.94966C11.2503 6.65988 11.1953 6.39508 11.2702 6.07533C11.3652 5.67064 11.5451 5.38086 11.5451 5.38086C11.3452 5.44081 11.1503 5.57071 11.1503 5.57071C10.4906 5.48578 10.1957 5.94043 9.99081 6.29516C9.84088 6.55496 9.63597 6.60492 9.53601 6.60992C9.51602 6.60992 9.49603 6.60992 9.48103 6.60992H9.46604C8.88629 6.60992 8.33654 6.46003 7.86674 6.19024C7.86674 6.21023 7.85675 6.23021 7.84675 6.2452C7.81177 6.28517 7.75679 6.28517 7.71681 6.25519C7.75679 6.29016 7.75679 6.34512 7.7268 6.38509C7.69182 6.42506 7.63684 6.42506 7.59686 6.39508C7.63684 6.43006 7.63684 6.48502 7.60686 6.52499C7.57187 6.56495 7.5169 6.56495 7.47691 6.53498C7.5169 6.56495 7.5169 6.62491 7.48691 6.66488C7.45192 6.70485 7.39695 6.70485 7.35697 6.67487C7.39695 6.70485 7.39695 6.7648 7.36696 6.80477C7.33198 6.84474 7.277 6.84474 7.23702 6.81476C7.277 6.84474 7.277 6.90469 7.24701 6.94466C7.23702 6.95965 7.22202 6.96465 7.20703 6.96965C7.9517 7.93391 9.06122 8.21869 9.26113 8.25866C9.48103 8.30363 9.71093 8.32861 9.94083 8.32861C9.94083 8.32861 10.2757 8.32861 10.5206 8.37857C11.1553 8.52845 11.6251 9.09802 11.6251 9.7825C11.6251 10.5819 10.9754 11.2264 10.1807 11.2264C10.0408 11.2264 9.90585 11.2064 9.7809 11.1664C10.0058 11.2364 10.2457 11.2764 10.4906 11.2764C11.775 11.2764 12.8196 10.2322 12.8196 8.94813C12.8196 8.12376 12.3948 7.40431 11.75 6.98963L11.755 6.97964ZM8.25657 6.40008C8.25657 6.40008 8.29156 6.3801 8.31155 6.40008C8.32654 6.41507 8.32654 6.43505 8.31155 6.45504C8.29655 6.47003 8.27656 6.47003 8.25657 6.45504C8.24158 6.44005 8.24158 6.42007 8.25657 6.40008ZM8.15661 6.49501C8.15661 6.49501 8.21159 6.47003 8.23158 6.49001C8.25157 6.51 8.25657 6.54497 8.23658 6.56495C8.21659 6.58494 8.1816 6.58994 8.16161 6.56995C8.13662 6.54997 8.13662 6.51499 8.15661 6.49501ZM8.24158 6.81976C8.24158 6.81976 8.1966 6.83974 8.17661 6.81976C8.15661 6.80477 8.15661 6.77479 8.17661 6.75481C8.1916 6.73483 8.22159 6.73483 8.24158 6.75481C8.26157 6.7698 8.26157 6.79977 8.24658 6.81976H8.24158ZM8.02167 6.3701C8.04666 6.34013 8.08665 6.34013 8.11163 6.36511C8.13662 6.39009 8.14162 6.43006 8.11663 6.45504C8.09164 6.48002 8.05166 6.48502 8.02667 6.46003C8.00168 6.43505 7.99668 6.39508 8.02167 6.3701ZM8.12663 6.69985C8.12663 6.69985 8.07165 6.72483 8.04666 6.70485C8.02167 6.68486 8.02167 6.64989 8.04167 6.62491C8.06166 6.59993 8.10164 6.59993 8.12163 6.61991C8.14662 6.6399 8.14662 6.67987 8.12663 6.69985ZM7.99668 6.58494C7.9717 6.61492 7.93171 6.61492 7.90672 6.58994C7.88174 6.56495 7.87674 6.52499 7.90173 6.5C7.92672 6.47502 7.9667 6.47003 7.99169 6.49501C8.01668 6.51999 8.02167 6.55996 7.99668 6.58494ZM7.77178 6.6399C7.79677 6.61492 7.83675 6.60992 7.86174 6.6349C7.88673 6.65988 7.89173 6.69985 7.86674 6.72483C7.84175 6.74981 7.80177 6.75481 7.77678 6.72983C7.75179 6.70485 7.74679 6.66488 7.77178 6.6399ZM7.7418 6.86972C7.71681 6.8997 7.67683 6.8997 7.65184 6.87472C7.62685 6.84974 7.62185 6.80977 7.64684 6.78479C7.67183 6.75981 7.71181 6.75481 7.7368 6.77979C7.76179 6.80477 7.76679 6.84474 7.7418 6.86972ZM7.85675 6.2502C7.88174 6.22022 7.92672 6.21522 7.9567 6.2452C7.98669 6.27018 7.99169 6.31515 7.9667 6.34512C7.94171 6.3751 7.89673 6.3801 7.86674 6.35512C7.83675 6.33013 7.83176 6.28517 7.85675 6.2502ZM7.7368 6.39009C7.76179 6.36011 7.80677 6.35512 7.83676 6.3801C7.86674 6.40508 7.87174 6.45004 7.84675 6.48002C7.82176 6.51 7.77678 6.51499 7.74679 6.48502C7.71681 6.46003 7.71181 6.41507 7.7368 6.38509V6.39009ZM7.61685 6.52499C7.64184 6.49501 7.68682 6.49001 7.71681 6.51999C7.74679 6.54497 7.75179 6.58994 7.7268 6.61991C7.70181 6.64989 7.65683 6.65489 7.62685 6.62991C7.59686 6.60492 7.59186 6.55996 7.61685 6.52998V6.52499ZM7.4969 6.65988C7.52189 6.6299 7.56687 6.62491 7.59686 6.64989C7.62685 6.67487 7.63185 6.71984 7.60686 6.74981C7.58187 6.77979 7.53689 6.78479 7.5069 6.75981C7.47691 6.73482 7.47192 6.68986 7.4969 6.65988ZM7.37696 6.79478C7.40195 6.7648 7.44693 6.75981 7.47691 6.78479C7.5069 6.80977 7.5119 6.85473 7.48691 6.88471C7.46192 6.91469 7.41694 6.91968 7.38695 6.8947C7.35697 6.86972 7.35197 6.82476 7.37696 6.79478ZM7.277 7.0246C7.24701 6.99962 7.24701 6.95965 7.272 6.92968C7.29699 6.8997 7.33697 6.8997 7.36696 6.92468C7.39695 6.94966 7.39695 6.98963 7.37196 7.01961C7.34697 7.04958 7.30699 7.04958 7.277 7.0246ZM7.4969 7.14451C7.47192 7.16949 7.43193 7.17449 7.40694 7.14951C7.37696 7.12453 7.37696 7.08456 7.40195 7.05958C7.42693 7.0346 7.46692 7.0296 7.49191 7.05458C7.5169 7.07956 7.52189 7.11953 7.4969 7.14451ZM7.61685 7.27441C7.61685 7.27441 7.56188 7.29939 7.53689 7.27941C7.5119 7.25942 7.5119 7.22445 7.53189 7.19947C7.55188 7.17449 7.59186 7.17449 7.61185 7.19447C7.63684 7.21446 7.63684 7.24943 7.61685 7.27441ZM7.61685 6.99962C7.59186 7.0246 7.55188 7.0296 7.52689 7.00462C7.5019 6.97964 7.4969 6.93967 7.52189 6.91469C7.54688 6.88471 7.58686 6.88471 7.61185 6.90969C7.63684 6.93467 7.64184 6.97464 7.61685 6.99962ZM7.7318 7.38932C7.7318 7.38932 7.68682 7.40931 7.66683 7.38932C7.64684 7.37434 7.64684 7.34436 7.66683 7.32437C7.68182 7.30439 7.71181 7.30439 7.7318 7.32437C7.75179 7.33936 7.75179 7.36934 7.7368 7.38932H7.7318ZM7.7368 7.11953C7.7368 7.11953 7.67682 7.14451 7.65683 7.12453C7.63184 7.10454 7.63185 7.06957 7.65184 7.04459C7.67183 7.01961 7.70681 7.01961 7.7318 7.03959C7.75679 7.05958 7.75679 7.09955 7.7368 7.11953ZM7.86174 7.49924C7.86174 7.49924 7.82176 7.51923 7.80177 7.49924C7.78678 7.48425 7.78178 7.45927 7.80177 7.43929C7.81676 7.4243 7.84175 7.4193 7.86174 7.43929C7.88174 7.45428 7.88174 7.47926 7.86174 7.49924ZM7.86174 7.23444C7.86174 7.23444 7.81676 7.25443 7.79677 7.23444C7.77678 7.21945 7.77678 7.18948 7.79677 7.16949C7.81177 7.14951 7.84175 7.14951 7.86174 7.16949C7.88174 7.18448 7.88174 7.21446 7.86174 7.23444ZM7.86174 6.96965C7.86174 6.96965 7.80677 6.99463 7.78178 6.97464C7.75679 6.95466 7.75679 6.91469 7.77678 6.8947C7.79677 6.86972 7.83176 6.86972 7.85675 6.88971C7.88174 6.90969 7.88174 6.94966 7.86174 6.96965ZM7.89173 6.75481C7.89173 6.75481 7.94671 6.72983 7.9717 6.74981C7.99668 6.7698 7.99668 6.80977 7.97669 6.82975C7.9567 6.85473 7.92172 6.85473 7.89673 6.83475C7.87174 6.81476 7.87174 6.77979 7.89173 6.75481ZM7.92172 7.01961C7.92172 7.01961 7.9667 6.99962 7.98669 7.01961C8.00668 7.03959 8.00668 7.06457 7.98669 7.08456C7.9717 7.10454 7.94171 7.10454 7.92172 7.08456C7.90173 7.06957 7.90173 7.03959 7.91672 7.01961H7.92172ZM7.93671 7.29939C7.93671 7.29939 7.97669 7.27941 7.99668 7.29939C8.01668 7.31438 8.01668 7.33936 7.99668 7.35935C7.98169 7.37434 7.9567 7.37933 7.93671 7.35935C7.91672 7.34436 7.91672 7.31938 7.93671 7.29939ZM8.01168 7.59417C8.01168 7.59417 7.97669 7.60916 7.9617 7.59417C7.94671 7.57918 7.94671 7.5592 7.9617 7.54421C7.97669 7.52922 7.99669 7.52922 8.01168 7.54421C8.02667 7.5542 8.02667 7.57918 8.01168 7.59417ZM8.04167 6.87971C8.04167 6.87971 8.08665 6.85973 8.10664 6.87971C8.12663 6.8947 8.12663 6.92468 8.10664 6.94466C8.09164 6.96465 8.06166 6.96465 8.04167 6.94966C8.02167 6.93467 8.02167 6.90469 8.04167 6.88471V6.87971ZM8.06166 7.13952C8.06166 7.13952 8.10164 7.11953 8.12163 7.13952C8.13662 7.1545 8.14162 7.17949 8.12163 7.19947C8.10664 7.21945 8.08165 7.21945 8.06166 7.19947C8.04166 7.18448 8.04166 7.1595 8.06166 7.13952ZM8.08165 7.45927C8.08165 7.45927 8.06665 7.4243 8.08165 7.40931C8.09664 7.39432 8.11663 7.39432 8.13163 7.40931C8.14662 7.4243 8.14662 7.44428 8.13163 7.45927C8.11663 7.47426 8.09664 7.47426 8.08165 7.45927ZM8.16161 7.69909C8.16161 7.69909 8.13662 7.70908 8.12663 7.69909C8.11663 7.6891 8.11663 7.67411 8.12663 7.66411C8.13662 7.65412 8.15162 7.65412 8.16161 7.66411C8.17161 7.67411 8.17161 7.6891 8.16161 7.69909ZM8.1816 6.99962C8.1816 6.99962 8.22159 6.97964 8.24158 6.99962C8.26157 7.01461 8.26157 7.03959 8.24158 7.05958C8.22658 7.07956 8.2016 7.07956 8.1816 7.05958C8.16661 7.04459 8.16161 7.01961 8.1816 6.99962ZM8.20659 7.25942C8.20659 7.25942 8.24158 7.24444 8.25657 7.25942C8.27156 7.27441 8.27156 7.2944 8.25657 7.30939C8.24658 7.32437 8.22159 7.32437 8.20659 7.30939C8.1916 7.2944 8.1916 7.27441 8.20659 7.25942ZM8.27156 7.56419C8.27156 7.56419 8.24657 7.57418 8.23658 7.56419C8.22658 7.5542 8.22658 7.53921 8.23658 7.52922C8.24657 7.51923 8.26157 7.51923 8.27156 7.52922C8.28156 7.53921 8.28156 7.5542 8.27156 7.56419ZM8.28156 6.60492C8.28156 6.60492 8.32654 6.58494 8.34653 6.60492C8.36652 6.61991 8.36652 6.64989 8.34653 6.66987C8.33154 6.68986 8.30155 6.68986 8.28156 6.66987C8.26157 6.65489 8.26157 6.62491 8.28156 6.60492ZM8.30655 6.86473C8.30655 6.86473 8.34653 6.84474 8.36652 6.86473C8.38152 6.87971 8.38651 6.90469 8.36652 6.92468C8.35153 6.93967 8.32654 6.94466 8.30655 6.92468C8.28656 6.90969 8.28656 6.88471 8.30655 6.86473ZM8.33154 7.12453C8.33154 7.12453 8.36652 7.10954 8.38152 7.12453C8.39651 7.13952 8.39651 7.1595 8.38152 7.17449C8.36652 7.18948 8.34653 7.18948 8.33154 7.17449C8.31654 7.1595 8.31654 7.13952 8.33154 7.12453ZM8.39651 7.4193C8.39651 7.4193 8.37152 7.42929 8.36152 7.4193C8.35153 7.40931 8.35153 7.39432 8.36152 7.38433C8.37152 7.37434 8.38651 7.37434 8.39651 7.38433C8.4065 7.39432 8.4065 7.40931 8.39651 7.4193ZM8.4065 6.49001C8.4065 6.49001 8.44149 6.47502 8.45648 6.49001C8.47148 6.505 8.47148 6.52499 8.45648 6.53997C8.44149 6.55496 8.4215 6.55496 8.4065 6.53997C8.39151 6.52499 8.39151 6.505 8.4065 6.49001ZM8.4215 6.72483C8.4215 6.72483 8.46148 6.70485 8.48147 6.72483C8.49647 6.73982 8.50146 6.7648 8.48147 6.78479C8.46648 6.79978 8.44149 6.80477 8.4215 6.78479C8.40151 6.7698 8.40151 6.74482 8.4215 6.72483ZM8.44649 6.98463C8.44649 6.98463 8.48147 6.96965 8.49647 6.98463C8.51146 6.99962 8.51146 7.01961 8.49647 7.0346C8.48147 7.04958 8.46148 7.04958 8.44649 7.0346C8.43149 7.01961 8.43149 6.99962 8.44649 6.98463ZM8.51146 7.27941C8.51146 7.27941 8.48647 7.2894 8.47647 7.27941C8.46648 7.26942 8.46648 7.25443 8.47647 7.24444C8.48647 7.23444 8.50146 7.23444 8.51146 7.24444C8.52145 7.25443 8.52145 7.26942 8.51146 7.27941ZM8.53645 6.59493C8.53645 6.59493 8.57143 6.57994 8.58643 6.59493C8.60142 6.60492 8.60142 6.6299 8.58643 6.6399C8.57643 6.65489 8.55144 6.65489 8.54145 6.6399C8.52645 6.6299 8.52645 6.60492 8.54145 6.58994L8.53645 6.59493ZM8.56144 6.84474C8.56144 6.84474 8.59642 6.82975 8.61141 6.84474C8.62641 6.85973 8.62641 6.87971 8.61141 6.8947C8.59642 6.90969 8.57643 6.90969 8.56144 6.8947C8.54644 6.88471 8.54644 6.85973 8.56144 6.84474ZM8.62641 7.13952C8.62641 7.13952 8.60142 7.14951 8.59142 7.13952C8.58143 7.12952 8.58143 7.11453 8.59142 7.10454C8.60142 7.09455 8.61641 7.09455 8.62641 7.10454C8.6364 7.11453 8.6364 7.12952 8.62641 7.13952ZM8.6464 6.52998C8.6464 6.52998 8.62141 6.53997 8.61141 6.52998C8.60142 6.51999 8.60142 6.505 8.61141 6.49501C8.62141 6.48502 8.6364 6.48502 8.6464 6.49501C8.6564 6.505 8.6564 6.51999 8.6464 6.52998ZM8.74136 7.00462C8.74136 7.00462 8.71637 7.01461 8.70637 7.00462C8.69638 6.99463 8.69638 6.97964 8.70637 6.96965C8.71637 6.95965 8.73136 6.95965 8.74136 6.96965C8.75135 6.97964 8.75135 6.99463 8.74136 7.00462ZM8.74136 6.73982C8.74136 6.73982 8.70637 6.75481 8.69138 6.73982C8.67639 6.72483 8.67639 6.70485 8.69138 6.68986C8.70637 6.67487 8.72636 6.67487 8.74136 6.68986C8.75635 6.70485 8.75635 6.72483 8.74136 6.73982ZM8.81632 6.56495C8.81632 6.56495 8.84131 6.55496 8.85131 6.56495C8.86131 6.57495 8.86131 6.58994 8.85131 6.59993C8.84131 6.60992 8.82632 6.60992 8.81632 6.59993C8.80633 6.58994 8.80633 6.57495 8.81632 6.56495ZM8.8713 6.85973C8.8713 6.85973 8.84631 6.86972 8.83632 6.85973C8.82632 6.84974 8.82632 6.83475 8.83632 6.82476C8.84631 6.81476 8.86131 6.81476 8.8713 6.82476C8.8813 6.83475 8.8813 6.84974 8.8713 6.85973ZM8.98625 6.71984C8.98625 6.71984 8.96126 6.73482 8.95127 6.71984C8.94127 6.70984 8.94127 6.69486 8.95127 6.68486C8.96126 6.67487 8.97625 6.66987 8.98625 6.68486C8.99625 6.69486 8.99625 6.70984 8.98625 6.71984ZM9.05622 6.61492C9.05622 6.61492 9.04123 6.62491 9.03123 6.61492C9.02623 6.60992 9.02124 6.59493 9.03123 6.58994C9.03623 6.58494 9.04622 6.57994 9.05622 6.58994C9.06122 6.59493 9.06622 6.60492 9.05622 6.61492Z" fill="#004F9D"/>
<path d="M7.17203 6.23006C7.17203 6.23006 7.16204 6.25504 7.14705 6.25504C7.13206 6.25504 7.12207 6.24505 7.12207 6.23006C7.12207 6.21507 7.13206 6.20508 7.14705 6.20508C7.16204 6.20508 7.17203 6.21507 7.17203 6.23006Z" fill="#004F9D"/>
<path d="M7.05191 6.3702C7.05191 6.3702 7.04192 6.39518 7.02693 6.39518C7.01195 6.39518 7.00195 6.38518 7.00195 6.3702C7.00195 6.35521 7.01195 6.34521 7.02693 6.34521C7.04192 6.34521 7.05191 6.35521 7.05191 6.3702Z" fill="#004F9D"/>
<path d="M7.09195 6.58992C7.09195 6.58992 7.08196 6.6149 7.06697 6.6149C7.05198 6.6149 7.04199 6.60491 7.04199 6.58992C7.04199 6.57493 7.05198 6.56494 7.06697 6.56494C7.08196 6.56494 7.09195 6.57493 7.09195 6.58992Z" fill="#004F9D"/>
<path d="M7.20178 6.48029C7.20178 6.48029 7.18679 6.51526 7.16681 6.51526C7.14682 6.51526 7.13184 6.50027 7.13184 6.48029C7.13184 6.4603 7.14682 6.44531 7.16681 6.44531C7.18679 6.44531 7.20178 6.4603 7.20178 6.48029Z" fill="#004F9D"/>
<path d="M7.31724 6.35003C7.31724 6.35003 7.29726 6.39 7.27727 6.39C7.25729 6.39 7.2373 6.37501 7.2373 6.35003C7.2373 6.32505 7.25229 6.31006 7.27727 6.31006C7.30226 6.31006 7.31724 6.32505 7.31724 6.35003Z" fill="#004F9D"/>
<path d="M7.43638 6.21038C7.43638 6.21038 7.4214 6.25035 7.39641 6.25035C7.37143 6.25035 7.35645 6.23536 7.35645 6.21038C7.35645 6.1854 7.37143 6.17041 7.39641 6.17041C7.4214 6.17041 7.43638 6.1854 7.43638 6.21038Z" fill="#004F9D"/>
<path d="M7.55162 6.07513C7.55162 6.07513 7.53163 6.1151 7.51165 6.1151C7.49166 6.1151 7.47168 6.09511 7.47168 6.07513C7.47168 6.05514 7.49166 6.03516 7.51165 6.03516C7.53163 6.03516 7.55162 6.05514 7.55162 6.07513Z" fill="#004F9D"/>
<path d="M7.71613 6.20524C7.71613 6.23022 7.69615 6.2552 7.66617 6.2552C7.6362 6.2552 7.61621 6.23521 7.61621 6.20524C7.61621 6.17526 7.6362 6.15527 7.66617 6.15527C7.69615 6.15527 7.71613 6.17526 7.71613 6.20524Z" fill="#004F9D"/>
<path d="M7.59211 6.33512C7.59211 6.3601 7.57213 6.38508 7.54215 6.38508C7.51217 6.38508 7.49219 6.3651 7.49219 6.33512C7.49219 6.30514 7.51217 6.28516 7.54215 6.28516C7.57213 6.28516 7.59211 6.30514 7.59211 6.33512Z" fill="#004F9D"/>
<path d="M7.47688 6.46988C7.47688 6.49486 7.45689 6.51985 7.42691 6.51985C7.39694 6.51985 7.37695 6.49986 7.37695 6.46988C7.37695 6.43991 7.39694 6.41992 7.42691 6.41992C7.45689 6.41992 7.47688 6.43991 7.47688 6.46988Z" fill="#004F9D"/>
<path d="M7.35676 6.61002C7.35676 6.635 7.33677 6.65998 7.3068 6.65998C7.27682 6.65998 7.25684 6.64 7.25684 6.61002C7.25684 6.58004 7.27682 6.56006 7.3068 6.56006C7.33677 6.56006 7.35676 6.58004 7.35676 6.61002Z" fill="#004F9D"/>
<path d="M7.23153 6.75004C7.23153 6.75004 7.21155 6.79501 7.18657 6.79501C7.16159 6.79501 7.1416 6.77502 7.1416 6.75004C7.1416 6.72506 7.16159 6.70508 7.18657 6.70508C7.21155 6.70508 7.23153 6.72506 7.23153 6.75004Z" fill="#004F9D"/>
<path d="M7.29215 6.10018C7.29215 6.10018 7.28216 6.12516 7.26717 6.12516C7.25218 6.12516 7.24219 6.11516 7.24219 6.10018C7.24219 6.08519 7.25218 6.0752 7.26717 6.0752C7.28216 6.0752 7.29215 6.08519 7.29215 6.10018Z" fill="#004F9D"/>
<path d="M7.40152 5.96053C7.40152 5.96053 7.39153 5.98551 7.37654 5.98551C7.36155 5.98551 7.35156 5.97552 7.35156 5.96053C7.35156 5.94554 7.36155 5.93555 7.37654 5.93555C7.39153 5.93555 7.40152 5.94554 7.40152 5.96053Z" fill="#004F9D"/>
<path d="M14.0929 6.25513C14.0529 6.2901 13.9979 6.28511 13.963 6.24514C13.928 6.20517 13.933 6.15021 13.9729 6.11524C13.933 6.15021 13.878 6.14521 13.843 6.10524C13.8081 6.06527 13.8131 6.01032 13.853 5.97534C13.8131 6.00532 13.7581 6.00532 13.7231 5.96535C13.6882 5.92538 13.6932 5.87042 13.7331 5.83545C13.7081 5.85543 13.6732 5.86043 13.6432 5.85044C13.6332 5.85543 13.6282 5.86543 13.6182 5.87042C13.6182 5.87042 13.6232 5.87042 13.6232 5.87542C13.6482 5.9054 13.6482 5.95036 13.6132 5.97534C13.5832 6.00032 13.5383 6.00032 13.5133 5.96535C13.5133 5.96535 13.5083 5.95536 13.5033 5.95036C13.4883 5.96035 13.4733 5.97534 13.4583 5.98533C13.4783 6.01032 13.4733 6.05028 13.4483 6.07027C13.4234 6.09525 13.3784 6.09025 13.3584 6.06527C13.3584 6.06527 13.3584 6.06527 13.3584 6.06028C13.3384 6.07527 13.3134 6.09025 13.2935 6.10025C13.3035 6.10025 13.3134 6.10524 13.3184 6.11524C13.3334 6.13022 13.3334 6.15521 13.3184 6.17019C13.3035 6.18518 13.2785 6.18019 13.2635 6.17019C13.2535 6.1602 13.2535 6.14521 13.2585 6.13022C12.7689 6.425 12.1943 6.59487 11.5798 6.59487C11.5348 6.59487 11.4349 6.59487 11.335 6.59487C11.4049 6.70978 11.5198 6.8197 11.7047 6.93461C11.7197 6.9446 11.7397 6.95459 11.7546 6.96459C11.7546 6.96459 11.7546 6.96459 11.7596 6.96459C12.1244 7.19941 12.4191 7.52916 12.604 7.92385C13.0536 7.69903 13.5932 7.32431 13.9829 6.71478C13.963 6.71478 13.948 6.70479 13.933 6.6898C13.908 6.66482 13.913 6.61985 13.938 6.59987C13.963 6.57488 14.0079 6.57988 14.0279 6.60486C14.0279 6.60486 14.0329 6.61485 14.0379 6.61985C14.0479 6.59987 14.0579 6.58488 14.0679 6.56489C14.0579 6.56489 14.0529 6.5549 14.0479 6.5499C14.0229 6.51993 14.0279 6.47996 14.0529 6.45498C14.0729 6.43499 14.1078 6.43499 14.1278 6.44998C14.1378 6.43499 14.1428 6.41501 14.1528 6.40002C14.1228 6.40002 14.0979 6.39003 14.0779 6.37004C14.0429 6.33007 14.0479 6.27511 14.0879 6.24014L14.0929 6.25513ZM13.943 6.25513C13.9679 6.28511 13.9679 6.33007 13.933 6.35505C13.903 6.38003 13.858 6.37504 13.8331 6.34506C13.8081 6.31508 13.8081 6.27012 13.843 6.24514C13.873 6.22016 13.918 6.22016 13.943 6.25013V6.25513ZM13.8031 6.47496C13.7781 6.49994 13.7331 6.49495 13.7131 6.46996C13.6882 6.44498 13.6932 6.40002 13.7181 6.38003C13.7481 6.35505 13.7881 6.36005 13.8081 6.38503C13.8331 6.41001 13.8281 6.45498 13.8031 6.47496ZM13.838 6.13522C13.863 6.1652 13.863 6.21016 13.8281 6.23514C13.7981 6.26012 13.7531 6.26012 13.7281 6.22515C13.7032 6.19517 13.7032 6.15021 13.7381 6.12523C13.7681 6.10025 13.8131 6.10524 13.838 6.13522ZM13.6382 6.00032C13.6682 5.97534 13.7131 5.98034 13.7431 6.01032C13.7681 6.04029 13.7681 6.08526 13.7331 6.11024C13.7032 6.13522 13.6582 6.13522 13.6332 6.10025C13.6082 6.07027 13.6082 6.0253 13.6382 6.00032ZM12.629 6.49994C12.629 6.49994 12.599 6.50993 12.594 6.49994C12.584 6.48995 12.584 6.46996 12.594 6.46497C12.604 6.45498 12.619 6.45498 12.629 6.46497C12.639 6.47496 12.639 6.48995 12.629 6.49994ZM12.7389 6.62485C12.7389 6.62485 12.7139 6.63484 12.7039 6.62485C12.6939 6.61485 12.6939 6.59986 12.7039 6.58987C12.7139 6.57988 12.7289 6.57988 12.7389 6.58987C12.7489 6.59986 12.7489 6.61485 12.7389 6.62485ZM12.7739 6.425C12.7739 6.425 12.7689 6.40002 12.7739 6.39003C12.7839 6.38003 12.7988 6.38503 12.8088 6.39003C12.8188 6.40002 12.8138 6.41501 12.8088 6.425C12.7988 6.43499 12.7839 6.42999 12.7739 6.425ZM12.8588 6.76474C12.8588 6.76474 12.8338 6.77473 12.8238 6.76474C12.8138 6.75475 12.8138 6.73976 12.8238 6.72977C12.8338 6.71977 12.8488 6.71977 12.8588 6.72977C12.8688 6.73976 12.8688 6.75475 12.8588 6.76474ZM12.8888 6.52992C12.8888 6.52992 12.8588 6.53991 12.8488 6.52992C12.8388 6.51993 12.8388 6.49994 12.8488 6.48995C12.8588 6.47996 12.8788 6.47996 12.8888 6.48995C12.8988 6.49994 12.8988 6.51993 12.8888 6.52992ZM12.9787 6.90463C12.9787 6.90463 12.9537 6.91462 12.9437 6.90463C12.9337 6.89464 12.9337 6.87965 12.9437 6.86966C12.9537 6.85967 12.9687 6.85967 12.9787 6.86966C12.9887 6.87965 12.9887 6.89464 12.9787 6.90463ZM13.0037 6.65482C13.0037 6.65482 12.9687 6.66482 12.9537 6.65482C12.9387 6.63983 12.9437 6.61985 12.9537 6.60486C12.9687 6.58987 12.9887 6.59487 13.0037 6.60486C13.0187 6.61985 13.0137 6.63983 13.0037 6.65482ZM13.0337 6.41001C13.0337 6.41001 12.9937 6.42 12.9837 6.41001C12.9687 6.39502 12.9737 6.37004 12.9837 6.36005C12.9987 6.34506 13.0237 6.35006 13.0337 6.36005C13.0487 6.37504 13.0437 6.40002 13.0337 6.41001ZM13.1036 7.06951C13.1036 7.06951 13.0786 7.0795 13.0686 7.06951C13.0586 7.05951 13.0586 7.03953 13.0686 7.03453C13.0786 7.02454 13.0986 7.02454 13.1036 7.03453C13.1136 7.04453 13.1136 7.05951 13.1036 7.06951ZM13.1186 6.79472C13.1186 6.79472 13.0836 6.80471 13.0686 6.79472C13.0536 6.77973 13.0586 6.75974 13.0686 6.74475C13.0836 6.73476 13.1036 6.73476 13.1186 6.74475C13.1336 6.75974 13.1286 6.77973 13.1186 6.79472ZM13.1436 6.54491C13.1436 6.54491 13.0986 6.5599 13.0836 6.54491C13.0686 6.52992 13.0686 6.49994 13.0836 6.48495C13.0986 6.46996 13.1286 6.46996 13.1436 6.48495C13.1586 6.49994 13.1586 6.52992 13.1436 6.54491ZM13.1736 6.30009C13.1736 6.30009 13.1336 6.31009 13.1186 6.30009C13.1036 6.28511 13.1086 6.26012 13.1186 6.24514C13.1336 6.23015 13.1586 6.23514 13.1736 6.24514C13.1885 6.26012 13.1835 6.28511 13.1736 6.30009ZM13.2435 7.22938C13.2435 7.22938 13.2185 7.23938 13.2085 7.22938C13.1985 7.21939 13.1985 7.2044 13.2085 7.19441C13.2185 7.18442 13.2335 7.18442 13.2435 7.19441C13.2535 7.2044 13.2535 7.21939 13.2435 7.22938ZM13.2585 6.9446C13.2585 6.9446 13.2235 6.95459 13.2085 6.9446C13.1935 6.92961 13.1985 6.90963 13.2085 6.89464C13.2235 6.87965 13.2435 6.88465 13.2585 6.89464C13.2735 6.90963 13.2685 6.92961 13.2585 6.9446ZM13.2635 6.6798C13.2635 6.6798 13.2185 6.69479 13.2035 6.6798C13.1885 6.66482 13.1885 6.63484 13.2035 6.61985C13.2185 6.60486 13.2485 6.60486 13.2635 6.61985C13.2785 6.63484 13.2785 6.66482 13.2635 6.6798ZM13.2885 6.42999C13.2885 6.42999 13.2385 6.44498 13.2235 6.425C13.2085 6.40501 13.2085 6.37504 13.2235 6.36005C13.2435 6.34506 13.2735 6.34506 13.2885 6.36005C13.3035 6.38003 13.3035 6.41001 13.2885 6.425V6.42999ZM13.3334 6.76474C13.3334 6.76474 13.3784 6.74975 13.3934 6.76474C13.4084 6.77973 13.4084 6.8097 13.3934 6.82469C13.3784 6.83968 13.3484 6.83968 13.3334 6.82469C13.3184 6.8097 13.3184 6.77973 13.3334 6.76474ZM13.3634 7.37927C13.3634 7.37927 13.3384 7.38926 13.3284 7.37927C13.3184 7.36928 13.3184 7.35429 13.3284 7.3443C13.3384 7.3343 13.3534 7.3343 13.3634 7.3443C13.3734 7.35429 13.3734 7.36928 13.3634 7.37927ZM13.3984 7.10948C13.3984 7.10948 13.3634 7.11947 13.3484 7.10948C13.3334 7.09449 13.3384 7.0745 13.3484 7.05951C13.3634 7.04453 13.3834 7.04952 13.3984 7.05951C13.4134 7.0745 13.4084 7.09449 13.3984 7.10948ZM13.4134 6.56489C13.4134 6.56489 13.3634 6.57988 13.3484 6.5599C13.3334 6.53991 13.3334 6.50993 13.3534 6.49495C13.3734 6.47996 13.4034 6.47996 13.4184 6.49994C13.4334 6.51993 13.4334 6.5499 13.4184 6.56489H13.4134ZM13.3484 6.31508C13.3484 6.31508 13.3284 6.25513 13.3534 6.23514C13.3784 6.21516 13.4134 6.21516 13.4334 6.24014C13.4533 6.26512 13.4533 6.30009 13.4284 6.32008C13.4034 6.34006 13.3684 6.34006 13.3484 6.31508ZM13.4633 6.91462C13.4633 6.91462 13.5083 6.89964 13.5233 6.91462C13.5383 6.92961 13.5383 6.95959 13.5233 6.97458C13.5083 6.98957 13.4783 6.98957 13.4633 6.97458C13.4483 6.95959 13.4483 6.92961 13.4633 6.91462ZM13.5283 7.25437C13.5283 7.25437 13.4933 7.26436 13.4783 7.25437C13.4633 7.23938 13.4683 7.21939 13.4783 7.2044C13.4933 7.18941 13.5133 7.19441 13.5283 7.2044C13.5433 7.21939 13.5383 7.23938 13.5283 7.25437ZM13.5283 6.69979C13.5283 6.69979 13.4783 6.71478 13.4633 6.69979C13.4483 6.6798 13.4483 6.64983 13.4683 6.63484C13.4883 6.61985 13.5183 6.61985 13.5333 6.63484C13.5483 6.65482 13.5483 6.6848 13.5333 6.69979H13.5283ZM13.5533 6.45498C13.5533 6.45498 13.4933 6.47496 13.4733 6.44998C13.4533 6.425 13.4533 6.39003 13.4783 6.37004C13.5033 6.35006 13.5383 6.35006 13.5583 6.37504C13.5782 6.40002 13.5782 6.43499 13.5533 6.45498ZM13.4833 6.20517C13.4583 6.18019 13.4633 6.13522 13.4883 6.11524C13.5133 6.09025 13.5583 6.09525 13.5782 6.12023C13.6032 6.14521 13.5982 6.19018 13.5733 6.21016C13.5483 6.23514 13.5033 6.23015 13.4833 6.20517ZM13.5932 6.78472C13.5932 6.78472 13.6432 6.76974 13.6582 6.78972C13.6732 6.8097 13.6732 6.83968 13.6582 6.85467C13.6382 6.86966 13.6082 6.86966 13.5932 6.85467C13.5782 6.83469 13.5782 6.80471 13.5932 6.78972V6.78472ZM13.6632 7.12946C13.6632 7.12946 13.6182 7.14445 13.6032 7.12946C13.5882 7.11447 13.5882 7.08449 13.6032 7.06951C13.6232 7.05452 13.6482 7.05452 13.6632 7.06951C13.6782 7.08449 13.6782 7.11447 13.6632 7.12946ZM13.6732 6.58987C13.6732 6.58987 13.6132 6.60986 13.5932 6.58488C13.5733 6.5599 13.5733 6.52492 13.5982 6.50494C13.6232 6.48495 13.6582 6.48495 13.6782 6.50993C13.6982 6.53491 13.6982 6.56989 13.6732 6.58987ZM13.6082 6.34006C13.5832 6.31009 13.5882 6.27012 13.6132 6.25013C13.6382 6.22515 13.6832 6.23015 13.7032 6.25513C13.7281 6.28511 13.7231 6.32507 13.6982 6.34506C13.6732 6.37004 13.6282 6.36504 13.6082 6.34006ZM13.7831 6.99456C13.7831 6.99456 13.7331 7.00955 13.7181 6.99456C13.7032 6.97458 13.7032 6.9446 13.7181 6.92961C13.7381 6.91462 13.7681 6.91462 13.7831 6.92961C13.7981 6.9496 13.7981 6.97958 13.7831 6.99456ZM13.7981 6.73476C13.7981 6.73476 13.7381 6.75475 13.7181 6.72977C13.6982 6.70479 13.6982 6.66981 13.7231 6.64983C13.7481 6.62984 13.7831 6.62984 13.8031 6.65482C13.8231 6.6798 13.8231 6.71478 13.7981 6.73476ZM13.908 6.84967C13.908 6.84967 13.853 6.86466 13.8331 6.84468C13.8131 6.82469 13.8181 6.78972 13.838 6.76974C13.858 6.74975 13.893 6.75475 13.913 6.77473C13.933 6.79472 13.928 6.82969 13.908 6.84967ZM13.928 6.59987C13.903 6.62485 13.858 6.61985 13.838 6.59487C13.8131 6.56989 13.8181 6.52492 13.843 6.50494C13.868 6.47996 13.913 6.48495 13.933 6.50993C13.958 6.53491 13.953 6.57988 13.928 6.59987ZM14.0529 6.47996C14.0229 6.50494 13.9779 6.50494 13.948 6.47496C13.923 6.44498 13.923 6.40002 13.958 6.37504C13.9879 6.35006 14.0329 6.35006 14.0579 6.38503C14.0829 6.41501 14.0829 6.45997 14.0479 6.48495L14.0529 6.47996Z" fill="#F29100"/>
<path d="M14.3092 5.80078C14.3092 5.80078 14.2842 5.81077 14.2842 5.82576C14.2842 5.84075 14.2942 5.85074 14.3092 5.85074C14.3241 5.85074 14.3341 5.84075 14.3341 5.82576C14.3341 5.81077 14.3241 5.80078 14.3092 5.80078Z" fill="#F29100"/>
<path d="M14.2938 6.04053C14.2938 6.04053 14.2588 6.05552 14.2588 6.0755C14.2588 6.09549 14.2738 6.11047 14.2938 6.11047C14.3137 6.11047 14.3287 6.09549 14.3287 6.0755C14.3287 6.05552 14.3137 6.04053 14.2938 6.04053Z" fill="#F29100"/>
<path d="M14.1786 5.90527C14.1786 5.90527 14.1387 5.92026 14.1387 5.94524C14.1387 5.97022 14.1537 5.98521 14.1786 5.98521C14.2036 5.98521 14.2186 5.96523 14.2186 5.94524C14.2186 5.92526 14.1986 5.90527 14.1786 5.90527Z" fill="#F29100"/>
<path d="M14.0634 5.84556C14.0634 5.84556 14.1034 5.83058 14.1034 5.80559C14.1034 5.78061 14.0834 5.76562 14.0634 5.76562C14.0434 5.76562 14.0234 5.78061 14.0234 5.80559C14.0234 5.83058 14.0434 5.84556 14.0634 5.84556Z" fill="#F29100"/>
<path d="M13.9491 5.7108C13.9491 5.7108 13.9891 5.69581 13.9891 5.67083C13.9891 5.64585 13.9691 5.63086 13.9491 5.63086C13.9292 5.63086 13.9092 5.64585 13.9092 5.67083C13.9092 5.69581 13.9292 5.7108 13.9491 5.7108Z" fill="#F29100"/>
<path d="M13.7892 5.85041C13.8192 5.85041 13.8392 5.83043 13.8392 5.80045C13.8392 5.77047 13.8192 5.75049 13.7892 5.75049C13.7592 5.75049 13.7393 5.77047 13.7393 5.80045C13.7393 5.83043 13.7592 5.85041 13.7892 5.85041Z" fill="#F29100"/>
<path d="M13.9142 5.98029C13.9392 5.98029 13.9642 5.96031 13.9642 5.93033C13.9642 5.90036 13.9442 5.88037 13.9142 5.88037C13.8842 5.88037 13.8643 5.90036 13.8643 5.93033C13.8643 5.96031 13.8842 5.98029 13.9142 5.98029Z" fill="#F29100"/>
<path d="M14.0334 6.11555C14.0583 6.11555 14.0833 6.09556 14.0833 6.06559C14.0833 6.03561 14.0633 6.01562 14.0334 6.01562C14.0034 6.01562 13.9834 6.03561 13.9834 6.06559C13.9834 6.09556 14.0084 6.11555 14.0334 6.11555Z" fill="#F29100"/>
<path d="M14.1535 6.15527C14.1285 6.15527 14.1035 6.17526 14.1035 6.20524C14.1035 6.23521 14.1235 6.2552 14.1535 6.2552C14.1835 6.2552 14.2034 6.23521 14.2034 6.20524C14.2034 6.17526 14.1835 6.15527 14.1535 6.15527Z" fill="#F29100"/>
<path d="M14.1939 5.71549C14.1939 5.71549 14.2189 5.7055 14.2189 5.69051C14.2189 5.67552 14.2089 5.66553 14.1939 5.66553C14.1789 5.66553 14.1689 5.67552 14.1689 5.69051C14.1689 5.7055 14.1789 5.71549 14.1939 5.71549Z" fill="#F29100"/>
<path d="M14.0787 5.57584C14.0787 5.57584 14.1037 5.56585 14.1037 5.55086C14.1037 5.53587 14.0937 5.52588 14.0787 5.52588C14.0637 5.52588 14.0537 5.53587 14.0537 5.55086C14.0537 5.56585 14.0637 5.57584 14.0787 5.57584Z" fill="#F29100"/>
<path d="M11.6354 9.76754C11.6354 9.72757 11.6354 9.6926 11.6354 9.65263C11.3655 9.87246 11.0206 10.0074 10.6458 10.0074C10.106 10.0074 9.63124 9.73256 9.35136 9.31788C9.35136 9.33787 9.33137 9.35285 9.31138 9.36285C9.28139 9.37284 9.24641 9.35285 9.23641 9.32288C9.22642 9.2929 9.24641 9.25793 9.2764 9.24794C9.28639 9.24794 9.29639 9.24794 9.30638 9.24794C9.29639 9.22795 9.28139 9.20797 9.2714 9.18298C9.23142 9.19298 9.19143 9.17299 9.17644 9.13302C9.16645 9.09805 9.17644 9.06308 9.21143 9.04809C9.21143 9.04809 9.21143 9.0381 9.20643 9.0381C9.17144 9.0381 9.13646 9.00812 9.12646 8.97314C9.14146 9.02311 9.11647 9.07307 9.06649 9.09305C9.01651 9.10804 8.96653 9.07806 8.94654 9.0331C8.96153 9.08306 8.93155 9.13302 8.88657 9.14801C8.83659 9.163 8.78161 9.13802 8.76662 9.08806C8.78161 9.13802 8.75662 9.18798 8.70665 9.20797C8.67666 9.21796 8.64667 9.20797 8.62668 9.19298C8.61669 9.22295 8.61169 9.25793 8.60669 9.2929C8.62668 9.30289 8.64168 9.31788 8.65167 9.34286C8.66167 9.38283 8.64167 9.4228 8.60169 9.43779H8.5917C8.5917 9.46277 8.5917 9.48775 8.5917 9.51273C8.60169 9.50274 8.61169 9.49275 8.62668 9.48775C8.66167 9.47776 8.69665 9.49774 8.70665 9.52772C8.71664 9.56269 8.69665 9.59767 8.66666 9.60766C8.64168 9.61765 8.61169 9.60766 8.5967 9.58268C8.60169 10.487 9.34137 11.2214 10.246 11.2214C10.266 11.2214 10.291 11.2214 10.3109 11.2214C11.0656 11.1715 11.6604 10.5469 11.6604 9.77753L11.6354 9.76754ZM9.54628 9.58768C9.54628 9.58768 9.58126 9.58768 9.58626 9.60766C9.59126 9.62265 9.58626 9.64263 9.56627 9.64763C9.55128 9.65263 9.53128 9.64763 9.52629 9.62765C9.52129 9.61266 9.52629 9.59267 9.54628 9.58768ZM9.45632 9.65762C9.45632 9.65762 9.45132 9.70259 9.42633 9.71258C9.40634 9.71758 9.38135 9.70758 9.37136 9.6826C9.36136 9.65762 9.37635 9.63764 9.40134 9.62765C9.42133 9.62265 9.44632 9.63264 9.45632 9.65762ZM9.33137 9.43279C9.36136 9.4228 9.39135 9.43779 9.40134 9.46777C9.41134 9.49774 9.39634 9.52772 9.36636 9.53771C9.33637 9.54771 9.30638 9.53272 9.29639 9.50274C9.28639 9.47276 9.30638 9.44279 9.33137 9.43279ZM9.29139 9.70259C9.30139 9.72757 9.28639 9.75255 9.2614 9.76254C9.23641 9.77253 9.21143 9.75755 9.20143 9.73256C9.19143 9.70758 9.20643 9.6826 9.23142 9.67261C9.25641 9.66262 9.28139 9.67761 9.29139 9.70259ZM9.24641 9.51773C9.25641 9.54771 9.23641 9.58268 9.20643 9.59267C9.17644 9.60266 9.14146 9.58268 9.13146 9.5527C9.12147 9.52273 9.14146 9.48775 9.17144 9.47776C9.20143 9.46777 9.23641 9.48775 9.24641 9.51773ZM9.19643 9.33787C9.20643 9.37284 9.18644 9.41281 9.15145 9.4228C9.11647 9.43279 9.07648 9.41281 9.06649 9.37784C9.05649 9.34286 9.07648 9.30289 9.11147 9.2929C9.14645 9.28291 9.18644 9.30289 9.19643 9.33787ZM8.99152 9.53771C9.02151 9.52772 9.05649 9.54771 9.06649 9.57768C9.07648 9.60766 9.05649 9.64263 9.02651 9.65263C8.99652 9.66262 8.96153 9.64263 8.95154 9.61266C8.94154 9.58268 8.96153 9.54771 8.99152 9.53771ZM8.89157 9.43779C8.88157 9.40282 8.90156 9.36285 8.93655 9.35285C8.97153 9.34286 9.01151 9.36285 9.02151 9.39782C9.0315 9.43279 9.01151 9.47276 8.97653 9.48276C8.94154 9.49275 8.90156 9.47276 8.89157 9.43779ZM9.05649 9.11304C9.09648 9.10305 9.13646 9.12303 9.15145 9.163C9.16145 9.20297 9.14146 9.24294 9.10147 9.25793C9.06149 9.26792 9.02151 9.24794 9.00652 9.20797C8.99652 9.168 9.01651 9.12803 9.05649 9.11304ZM8.87657 9.168C8.91655 9.158 8.95654 9.17799 8.97153 9.21796C8.98153 9.25793 8.96154 9.2979 8.92155 9.31289C8.88157 9.32787 8.84159 9.30289 8.82659 9.26292C8.8166 9.22295 8.83659 9.18298 8.87657 9.168ZM8.80161 9.60766C8.83159 9.59767 8.86658 9.61765 8.87657 9.64763C8.88657 9.67761 8.86658 9.71258 8.83659 9.72257C8.8066 9.73256 8.77162 9.71258 8.76162 9.6826C8.75163 9.65263 8.77162 9.61765 8.80161 9.60766ZM8.71164 9.49275C8.70165 9.45777 8.72164 9.41781 8.75663 9.40781C8.79161 9.39782 8.83159 9.41781 8.84159 9.45278C8.85158 9.48775 8.83159 9.52772 8.79661 9.53771C8.76162 9.54771 8.72164 9.52772 8.71164 9.49275ZM8.64667 9.31289C8.63668 9.27292 8.65667 9.23295 8.69665 9.21796C8.73663 9.20797 8.77662 9.22795 8.79161 9.26792C8.80161 9.30789 8.78161 9.34786 8.74163 9.36285C8.70165 9.37284 8.66167 9.35285 8.64667 9.31289ZM8.5817 9.73256C8.57171 9.70259 8.5917 9.66761 8.62168 9.65762C8.65167 9.64763 8.68666 9.66761 8.69665 9.69759C8.70665 9.72757 8.68666 9.76254 8.65667 9.77253C8.62668 9.78253 8.5917 9.76254 8.5817 9.73256ZM8.62168 9.91243C8.61169 9.88745 8.62668 9.86247 8.65167 9.85247C8.67666 9.84248 8.70165 9.85747 8.71164 9.88245C8.72164 9.90743 8.70665 9.93241 8.68166 9.9424C8.65667 9.9524 8.62668 9.93741 8.62168 9.91243ZM8.72664 10.1223C8.72664 10.1223 8.68166 10.1173 8.67166 10.0923C8.66666 10.0673 8.67666 10.0473 8.70165 10.0373C8.72664 10.0323 8.74663 10.0423 8.75663 10.0673C8.76162 10.0923 8.75163 10.1123 8.72664 10.1223ZM8.80161 10.2971C8.80161 10.2971 8.76162 10.2971 8.75663 10.2722C8.75163 10.2522 8.75662 10.2322 8.78161 10.2272C8.80161 10.2222 8.8216 10.2272 8.82659 10.2522C8.83159 10.2722 8.82659 10.2921 8.80161 10.2971ZM8.82659 9.84748C8.8166 9.8225 8.83159 9.79752 8.85658 9.78752C8.88157 9.77753 8.90656 9.79252 8.91655 9.8175C8.92655 9.84248 8.91156 9.86746 8.88657 9.87745C8.86158 9.88745 8.83659 9.87246 8.82659 9.84748ZM8.88157 10.447C8.88157 10.447 8.85158 10.447 8.84659 10.427C8.84659 10.412 8.84659 10.3971 8.86658 10.3921C8.88157 10.3921 8.89656 10.3921 8.90156 10.412C8.90156 10.427 8.90156 10.442 8.88157 10.447ZM8.88157 10.0323C8.88157 10.0323 8.88657 9.98737 8.91156 9.97738C8.93655 9.97238 8.95654 9.98237 8.96653 10.0074C8.97153 10.0323 8.96153 10.0523 8.93655 10.0623C8.91156 10.0673 8.89157 10.0573 8.88157 10.0323ZM8.99152 10.2322C8.99152 10.2322 8.95154 10.2322 8.94654 10.2072C8.94154 10.1872 8.94654 10.1672 8.97153 10.1622C8.99152 10.1572 9.01151 10.1622 9.01651 10.1872C9.02151 10.2072 9.01651 10.2272 8.99152 10.2322ZM9.05649 9.72757C9.08148 9.71758 9.10647 9.73257 9.11647 9.75755C9.12646 9.78253 9.11147 9.80751 9.08648 9.8175C9.06149 9.82749 9.0315 9.8125 9.02651 9.78752C9.01651 9.76254 9.0315 9.73756 9.05649 9.72757ZM9.06649 10.3921C9.06649 10.3921 9.0365 10.3921 9.0315 10.3721C9.0315 10.3571 9.0315 10.3421 9.0515 10.3371C9.06649 10.3371 9.08148 10.3371 9.08648 10.3571C9.08648 10.3721 9.08648 10.3871 9.06649 10.3921ZM9.08648 9.96239C9.08648 9.96239 9.09148 9.91742 9.11647 9.90743C9.14146 9.90244 9.16145 9.91243 9.17144 9.93741C9.17644 9.96239 9.16645 9.98237 9.14146 9.99237C9.11647 9.99736 9.09648 9.98737 9.08648 9.96239ZM9.19643 10.1622C9.19643 10.1622 9.15645 10.1622 9.15145 10.1373C9.14645 10.1173 9.15645 10.0973 9.17644 10.0923C9.19643 10.0873 9.21642 10.0923 9.22142 10.1173C9.22642 10.1373 9.22142 10.1572 9.19643 10.1622ZM9.25141 10.3321C9.25141 10.3321 9.22142 10.3321 9.21642 10.3121C9.21642 10.2971 9.21642 10.2821 9.23641 10.2771C9.25141 10.2771 9.2664 10.2771 9.2714 10.2921C9.2714 10.3071 9.2714 10.3221 9.25141 10.3271V10.3321ZM9.2714 9.90244C9.2714 9.90244 9.2764 9.85747 9.30139 9.84748C9.32638 9.84248 9.34637 9.85247 9.35636 9.87745C9.36136 9.90244 9.35136 9.92242 9.32637 9.93241C9.30139 9.93741 9.28139 9.92742 9.2714 9.90244ZM9.38135 10.1023C9.38135 10.1023 9.34137 10.0973 9.33637 10.0773C9.33137 10.0573 9.33637 10.0373 9.36136 10.0323C9.38135 10.0273 9.40134 10.0323 9.40634 10.0573C9.41134 10.0773 9.40634 10.0973 9.38135 10.1023ZM9.43633 10.2722C9.43633 10.2722 9.40634 10.2722 9.40134 10.2572C9.40134 10.2422 9.40134 10.2272 9.42133 10.2222C9.43633 10.2222 9.45132 10.2222 9.45632 10.2422C9.45632 10.2572 9.45632 10.2722 9.43633 10.2771V10.2722ZM9.45632 9.83749C9.45632 9.83749 9.46132 9.79252 9.48131 9.78752C9.5013 9.78253 9.52629 9.78752 9.53129 9.8125C9.53628 9.83249 9.52629 9.85747 9.5063 9.86247C9.48631 9.86746 9.46132 9.85747 9.45632 9.83749ZM9.56127 10.0473C9.56127 10.0473 9.52129 10.0473 9.51629 10.0223C9.51129 10.0024 9.51629 9.98237 9.54128 9.97738C9.56127 9.97238 9.58126 9.97738 9.58626 10.0024C9.59126 10.0223 9.58126 10.0423 9.56127 10.0473ZM9.61625 10.2172C9.61625 10.2172 9.58626 10.2172 9.58126 10.1972C9.58126 10.1822 9.58126 10.1672 9.60125 10.1622C9.61625 10.1622 9.63124 10.1622 9.63624 10.1822C9.63624 10.1972 9.63624 10.2122 9.61625 10.2172ZM9.69621 9.78253C9.69621 9.78253 9.66123 9.78253 9.65623 9.76254C9.65123 9.74256 9.65623 9.72757 9.67622 9.72257C9.69621 9.71758 9.71121 9.72257 9.7162 9.74256C9.7212 9.75755 9.7162 9.77753 9.69621 9.78253ZM9.75619 9.97238C9.75619 9.97238 9.7162 9.97238 9.71121 9.9474C9.70621 9.92742 9.71121 9.90743 9.7362 9.90244C9.75619 9.89744 9.77618 9.90743 9.78118 9.92742C9.78617 9.9474 9.78118 9.96739 9.75619 9.97238ZM9.81116 10.1472C9.81116 10.1472 9.78118 10.1472 9.77618 10.1273C9.77618 10.1123 9.77618 10.0973 9.79617 10.0923C9.81116 10.0923 9.82616 10.0923 9.83115 10.1123C9.83115 10.1273 9.83115 10.1423 9.81116 10.1472ZM9.91612 9.90743C9.91612 9.90743 9.88613 9.90743 9.88113 9.88745C9.88113 9.87246 9.88113 9.85747 9.90112 9.85247C9.91612 9.84748 9.93111 9.85247 9.93611 9.87246C9.93611 9.88745 9.93611 9.90244 9.91612 9.90743ZM10.0061 10.0723C10.0061 10.0723 9.97609 10.0723 9.97109 10.0573C9.97109 10.0423 9.97109 10.0273 9.99108 10.0223C10.0061 10.0223 10.0211 10.0223 10.0261 10.0373C10.0261 10.0523 10.0261 10.0673 10.0061 10.0723ZM10.161 10.0074C10.161 10.0074 10.131 10.0074 10.126 9.98737C10.126 9.97238 10.126 9.95739 10.146 9.9524C10.161 9.9524 10.176 9.9524 10.181 9.96739C10.181 9.98237 10.181 9.99736 10.161 10.0024V10.0074Z" fill="#93C01E"/>
<path d="M8.7316 9.05793C8.76158 9.05793 8.78156 9.03795 8.78156 9.00797C8.78156 8.97799 8.75658 8.95801 8.7316 8.95801C8.70662 8.95801 8.68164 8.97799 8.68164 9.00797C8.68164 9.03795 8.70162 9.05793 8.7316 9.05793Z" fill="#93C01E"/>
<path d="M8.91129 8.90332C8.88631 8.90332 8.86133 8.9283 8.86133 8.95328C8.86133 8.97826 8.88631 9.00324 8.91129 9.00324C8.93627 9.00324 8.96125 8.98326 8.96125 8.95328C8.96125 8.92331 8.94127 8.90332 8.91129 8.90332Z" fill="#93C01E"/>
<path d="M9.09098 8.94807C9.12095 8.94807 9.14094 8.92808 9.14094 8.89811C9.14094 8.86813 9.12095 8.84814 9.09098 8.84814C9.061 8.84814 9.04102 8.86813 9.04102 8.89811C9.04102 8.92808 9.066 8.94807 9.09098 8.94807Z" fill="#93C01E"/>
<path d="M9.03095 8.67822C9.03095 8.67822 9.00098 8.69321 9.00098 8.7082C9.00098 8.72319 9.01596 8.73818 9.03095 8.73818C9.04594 8.73818 9.06093 8.72319 9.06093 8.7082C9.06093 8.69321 9.04594 8.67822 9.03095 8.67822Z" fill="#93C01E"/>
<path d="M8.85127 8.73828C8.85127 8.73828 8.82129 8.75327 8.82129 8.76826C8.82129 8.78325 8.83628 8.79824 8.85127 8.79824C8.86625 8.79824 8.88124 8.78325 8.88124 8.76826C8.88124 8.75327 8.86625 8.73828 8.85127 8.73828Z" fill="#93C01E"/>
<path d="M8.99114 8.53843C8.99114 8.53843 8.99114 8.52843 8.98115 8.52344C8.98115 8.52344 8.97615 8.52344 8.97116 8.52344C8.96116 8.52344 8.95117 8.53343 8.95117 8.54342C8.95117 8.55342 8.96116 8.56341 8.97116 8.56341C8.98115 8.56341 8.99114 8.55342 8.99114 8.54342V8.53843Z" fill="#93C01E"/>
<path d="M15.8177 6.69007V6.41528H16.4323V6.06055H16.9169V6.41528H17.5314V6.69007H17.2067C17.2716 6.75002 17.3216 6.81997 17.3615 6.89991C17.4015 6.97984 17.4215 7.06478 17.4215 7.15471C17.4215 7.2996 17.3765 7.4345 17.2816 7.54941C17.1867 7.66932 17.0668 7.74926 16.9219 7.79922V8.01905H17.2366C17.3416 8.01905 17.4365 8.01405 17.5264 7.99907C17.6114 7.98408 17.6863 7.96909 17.7462 7.9491V6.07554H18.2359V6.88492H18.7155V7.15971H18.2309V9.05326H17.7462V8.18892C17.6813 8.2189 17.6014 8.24388 17.5064 8.26386C17.4165 8.28385 17.3166 8.29384 17.2167 8.29384H15.8027V8.01905H16.4372V7.80421C16.2924 7.75425 16.1725 7.67431 16.0775 7.55441C15.9826 7.43949 15.9376 7.3046 15.9376 7.15971C15.9376 7.06978 15.9576 6.98484 15.9976 6.9049C16.0376 6.82496 16.0875 6.75502 16.1525 6.69506H15.8277L15.8177 6.69007ZM16.4772 6.86493C16.4223 6.94987 16.3923 7.04479 16.3923 7.15971C16.3923 7.27462 16.4223 7.36955 16.4772 7.45448C16.5322 7.53942 16.5971 7.58438 16.6721 7.58438C16.747 7.58438 16.817 7.53942 16.8719 7.45448C16.9269 7.36955 16.9569 7.26962 16.9569 7.15971C16.9569 7.04979 16.9269 6.94987 16.8719 6.86493C16.817 6.78 16.752 6.74003 16.6721 6.74003C16.5921 6.74003 16.5322 6.78 16.4772 6.86493Z" fill="#1C1C1B"/>
<path d="M18.9916 6.40014H19.5512V6.04541H20.0358V6.40014H20.6004V6.67493H20.0358C20.0358 6.94972 20.1158 7.17455 20.2656 7.34941C20.4155 7.52428 20.5904 7.6292 20.7852 7.66417L20.5504 7.86902C20.4005 7.85902 20.2457 7.79407 20.0908 7.68416C19.9359 7.57424 19.836 7.45433 19.796 7.32443C19.756 7.44934 19.6611 7.56925 19.5012 7.67916C19.3413 7.78908 19.1865 7.85403 19.0366 7.86402L18.8018 7.65918C19.0016 7.6242 19.1765 7.51429 19.3264 7.33942C19.4762 7.16455 19.5512 6.93973 19.5562 6.66993H18.9966V6.39514L18.9916 6.40014ZM19.9609 8.77832H21.5547V9.05311H19.811C19.7161 9.05311 19.6361 9.02314 19.5712 8.96818C19.5062 8.91322 19.4762 8.83328 19.4762 8.73336V8.09385H19.9609V8.78332V8.77832ZM21.4547 6.07539V8.27371H20.9701V7.19453H20.4205V6.91974H20.9701V6.07539H21.4547Z" fill="#1C1C1B"/>
<path d="M22.2897 6.11046H24.3581V6.93983C24.3581 7.01977 24.3481 7.1097 24.3282 7.19963C24.3082 7.28956 24.2782 7.35951 24.2432 7.40448H24.7079V7.67927H23.7186V8.36874H23.234V7.67927H21.96V7.40448H23.8185C23.8435 7.34452 23.8585 7.26958 23.8635 7.18964C23.8685 7.1097 23.8735 7.02976 23.8735 6.94483V6.38026H22.2897V6.10547V6.11046ZM22.8743 8.78342H24.3931V9.05821H22.7244C22.6295 9.05821 22.5495 9.02824 22.4846 8.97328C22.4196 8.91832 22.3896 8.83838 22.3896 8.73846V8.07896H22.8743V8.78842V8.78342Z" fill="#1C1C1B"/>
<path d="M15.9826 10.1373V10.5271H15.8027V9.65771H15.9826V9.98746H16.3223V9.65771H16.5022V10.5271H16.3223V10.1373H15.9826Z" fill="#1C1C1B"/>
<path d="M17.332 10.5219H17.1571L17.0572 10.0523L16.9573 10.5219H16.7824L16.6025 9.87744H16.7824L16.8823 10.3421L16.9723 9.87744H17.1421L17.2371 10.3421L17.337 9.87744H17.5118L17.327 10.5219H17.332Z" fill="#1C1C1B"/>
<path d="M18.132 10.3969C18.132 10.4718 18.1469 10.4918 18.1719 10.4968V10.5218H17.9871C17.9771 10.4918 17.9771 10.4818 17.9721 10.4469C17.9321 10.4868 17.8771 10.5418 17.7622 10.5418C17.6673 10.5418 17.5674 10.4868 17.5674 10.3519C17.5674 10.227 17.6473 10.1621 17.7572 10.1471L17.9121 10.1221C17.9371 10.1221 17.9721 10.1071 17.9721 10.0721C17.9721 10.0022 17.9021 9.9972 17.8622 9.9972C17.7772 9.9972 17.7622 10.0472 17.7572 10.0871H17.5924C17.6123 9.89228 17.7472 9.8623 17.8821 9.8623C17.9721 9.8623 18.1369 9.89228 18.1369 10.0472V10.3969H18.132ZM17.9671 10.207C17.9671 10.207 17.9221 10.232 17.8522 10.242C17.7872 10.252 17.7373 10.267 17.7373 10.3369C17.7373 10.3969 17.7822 10.4169 17.8172 10.4169C17.8921 10.4169 17.9671 10.3669 17.9671 10.292V10.212V10.207Z" fill="#1C1C1B"/>
<path d="M18.8465 9.94258C18.8315 9.89261 18.8065 9.79269 18.6566 9.79269C18.5717 9.79269 18.4418 9.85264 18.4418 10.0975C18.4418 10.2523 18.5018 10.3922 18.6566 10.3922C18.7566 10.3922 18.8265 10.3373 18.8465 10.2274H19.0264C18.9914 10.4172 18.8665 10.5471 18.6467 10.5471C18.4168 10.5471 18.252 10.3922 18.252 10.0925C18.252 9.79269 18.4268 9.63281 18.6516 9.63281C18.9114 9.63281 19.0164 9.81267 19.0264 9.93758H18.8465V9.94258Z" fill="#1C1C1B"/>
<path d="M19.7359 10.5221H19.5661V10.1324C19.5661 10.0874 19.5661 10.0074 19.4561 10.0074C19.3812 10.0074 19.3212 10.0574 19.3212 10.1573V10.5271H19.1514V9.65771H19.3212V9.96748C19.3412 9.91252 19.4162 9.86755 19.5061 9.86755C19.631 9.86755 19.7309 9.9425 19.7309 10.0824V10.5271L19.7359 10.5221Z" fill="#1C1C1B"/>
<path d="M20.4454 10.3373C20.4004 10.4922 20.2705 10.5422 20.1606 10.5422C19.9807 10.5422 19.8408 10.4572 19.8408 10.1924C19.8408 10.1125 19.8658 9.86768 20.1506 9.86768C20.2755 9.86768 20.4554 9.92763 20.4554 10.2224V10.2524H20.0157C20.0157 10.3023 20.0307 10.4073 20.1656 10.4073C20.2105 10.4073 20.2605 10.3823 20.2755 10.3373H20.4504H20.4454ZM20.2805 10.1425C20.2705 10.0375 20.2055 10.0076 20.1506 10.0076C20.0706 10.0076 20.0307 10.0575 20.0207 10.1425H20.2855H20.2805Z" fill="#1C1C1B"/>
<path d="M20.861 10.5418C20.6861 10.5418 20.5312 10.4369 20.5312 10.202C20.5312 9.96722 20.6861 9.8623 20.861 9.8623C21.0359 9.8623 21.1907 9.96722 21.1907 10.202C21.1907 10.4369 21.0359 10.5418 20.861 10.5418ZM20.861 10.0072C20.7311 10.0072 20.7061 10.1221 20.7061 10.202C20.7061 10.282 20.7311 10.3969 20.861 10.3969C20.9909 10.3969 21.0159 10.282 21.0159 10.202C21.0159 10.1221 20.9909 10.0072 20.861 10.0072Z" fill="#1C1C1B"/>
<path d="M21.8902 10.5222H21.7203V10.1325C21.7203 10.0875 21.7203 10.0076 21.6104 10.0076C21.5355 10.0076 21.4755 10.0575 21.4755 10.1575V10.5272H21.3057V9.88266H21.4655V9.97759C21.4905 9.93762 21.5355 9.86768 21.6604 9.86768C21.7853 9.86768 21.8852 9.94262 21.8852 10.0825V10.5272L21.8902 10.5222Z" fill="#1C1C1B"/>
<path d="M22.3349 10.2623H21.9951V10.1074H22.3349V10.2623Z" fill="#1C1C1B"/>
<path d="M22.8695 10.0575H23.2342V10.5271H23.1143L23.0943 10.4172C23.0493 10.4722 22.9844 10.5471 22.8245 10.5471C22.6147 10.5471 22.4248 10.3972 22.4248 10.0925C22.4248 9.85764 22.5547 9.63281 22.8495 9.63281C23.1143 9.63281 23.2192 9.80768 23.2292 9.92759H23.0493C23.0493 9.89261 22.9894 9.7827 22.8595 9.7827C22.7296 9.7827 22.6097 9.87263 22.6097 10.0925C22.6097 10.3273 22.7396 10.3922 22.8645 10.3922C22.9044 10.3922 23.0393 10.3772 23.0743 10.2024H22.8745V10.0575H22.8695Z" fill="#1C1C1B"/>
<path d="M23.9691 10.5218H23.8092V10.4319C23.7692 10.5019 23.7043 10.5418 23.6144 10.5418C23.4895 10.5418 23.3945 10.4669 23.3945 10.307V9.88232H23.5644V10.282C23.5644 10.3819 23.6244 10.4019 23.6743 10.4019C23.7293 10.4019 23.8042 10.372 23.8042 10.257V9.88732H23.9741V10.5318L23.9691 10.5218Z" fill="#1C1C1B"/>
<path d="M24.7086 10.5222H24.5387V10.1325C24.5387 10.0875 24.5387 10.0076 24.4288 10.0076C24.3538 10.0076 24.2939 10.0575 24.2939 10.1575V10.5272H24.124V9.88266H24.2839V9.97759C24.3089 9.93762 24.3538 9.86768 24.4788 9.86768C24.6037 9.86768 24.7036 9.94262 24.7036 10.0825V10.5272L24.7086 10.5222Z" fill="#1C1C1B"/>
<path d="M101.58 6.69482H100.986V7.95386H98.5567V6.69482H97.9619C97.822 6.69482 97.707 6.80974 97.707 6.94963V9.68754C97.707 9.82743 97.822 9.94234 97.9619 9.94234H98.5567V8.58838H100.986V9.94234H101.58C101.72 9.94234 101.835 9.82743 101.835 9.68754V6.94963C101.835 6.80974 101.72 6.69482 101.58 6.69482Z" fill="#0C68AD"/>
<path d="M96.7727 6.69482H96.178V9.088L94.3088 7.19444C94.0139 6.90466 93.809 6.69482 93.3342 6.69482H92.8145V9.68754C92.8145 9.82743 92.9294 9.94234 93.0693 9.94234H93.6641V7.53918L95.5133 9.41774C95.8181 9.71752 96.088 9.94234 96.5278 9.94234H97.0276V6.94963C97.0276 6.80974 96.9127 6.69482 96.7727 6.69482Z" fill="#0C68AD"/>
<path d="M108.462 8.51833L109.206 7.81387H108.942C108.812 7.81387 108.742 7.88382 108.677 7.94377C108.677 7.94377 108.237 8.36845 108.162 8.44339V7.12939H108.017C107.927 7.12939 107.857 7.19934 107.857 7.28927V9.24778C107.857 9.33271 107.927 9.40765 108.017 9.40765H108.162V8.60826C108.187 8.63824 108.782 9.28775 108.782 9.28775C108.847 9.35769 108.892 9.40765 109.027 9.40765H109.296C109.296 9.40765 108.472 8.53332 108.462 8.52333V8.51833Z" fill="#0C68AD"/>
<path d="M106.897 7.81396H106.168V9.24787C106.168 9.3378 106.238 9.40775 106.328 9.40775H106.473V8.06877H106.862C107.102 8.08376 107.187 8.22365 107.187 8.60336V9.41274H107.332C107.422 9.41274 107.492 9.3428 107.492 9.25287V8.50344C107.492 8.05378 107.287 7.81896 106.892 7.81896L106.897 7.81396Z" fill="#0C68AD"/>
<path d="M103.789 8.29856C104.029 8.20364 104.169 8.04875 104.169 7.78396C104.169 7.41923 103.909 7.23438 103.399 7.23438H102.965C102.875 7.23438 102.805 7.30432 102.805 7.39425V9.25283C102.805 9.33777 102.875 9.41271 102.965 9.41271H103.389C103.949 9.41271 104.219 9.22286 104.219 8.82816C104.219 8.53838 104.029 8.35352 103.784 8.30356L103.789 8.29856ZM103.299 8.15367H103.139V7.49917H103.459C103.574 7.49917 103.849 7.52915 103.849 7.81393C103.849 8.12869 103.599 8.15367 103.304 8.15367H103.299ZM103.884 8.79818C103.884 9.033 103.724 9.13792 103.359 9.13792H103.134V8.42347H103.329C103.589 8.42347 103.884 8.46344 103.884 8.79818Z" fill="#0C68AD"/>
<path d="M105.078 9.16824C104.943 9.16824 104.793 9.0783 104.793 8.93342C104.793 8.67861 105.168 8.65363 105.333 8.65363H105.513V9.17323H105.083L105.078 9.16824ZM105.658 9.40805C105.748 9.40805 105.818 9.33811 105.818 9.24818V8.43879C105.818 7.98914 105.613 7.7793 105.173 7.7793C104.998 7.7793 104.828 7.82426 104.664 7.91919V8.19898L104.674 8.18898C104.789 8.08906 104.963 8.02911 105.128 8.02911C105.398 8.02911 105.508 8.14402 105.508 8.42381C105.398 8.41881 105.318 8.41881 105.208 8.41881C104.953 8.41881 104.469 8.52373 104.469 8.93342C104.469 9.24318 104.679 9.40805 105.053 9.40805H105.658Z" fill="#0C68AD"/>
<path d="M8.33609 62.6821C8.23617 62.742 8.07629 62.762 7.97137 62.762C7.35184 62.762 6.95215 62.2724 6.95215 61.6279C6.95215 60.9434 7.4068 60.4688 8.07129 60.4688C8.73579 60.4688 9.19044 60.9284 9.19044 61.6029C9.19044 61.8727 9.05055 62.2174 8.92564 62.5022L8.12625 64.3908H7.58666L8.33609 62.6821ZM8.07129 60.9034C7.69658 60.9034 7.43678 61.1832 7.43678 61.6229C7.43678 62.0625 7.69658 62.3423 8.07129 62.3423C8.44601 62.3423 8.70581 62.0525 8.70581 61.6229C8.70581 61.1932 8.451 60.9034 8.07129 60.9034Z" fill="#000001"/>
<path d="M11.7138 60.5088L10.4298 63.3216H11.5489V62.1775H12.0336V63.3216H12.3883V63.7613H12.0336V64.3908H11.5489V63.7613H9.86523V63.4066L11.2342 60.5088H11.7138Z" fill="#000001"/>
<path d="M14.5334 62.6821C14.4334 62.742 14.2736 62.762 14.1686 62.762C13.5491 62.762 13.1494 62.2724 13.1494 61.6279C13.1494 60.9434 13.6041 60.4688 14.2686 60.4688C14.9331 60.4688 15.3877 60.9284 15.3877 61.6029C15.3877 61.8727 15.2478 62.2174 15.1229 62.5022L14.3235 64.3908H13.7839L14.5334 62.6821ZM14.2686 60.9034C13.8938 60.9034 13.634 61.1832 13.634 61.6229C13.634 62.0625 13.8938 62.3423 14.2686 62.3423C14.6433 62.3423 14.9031 62.0525 14.9031 61.6229C14.9031 61.1932 14.6483 60.9034 14.2686 60.9034Z" fill="#000001"/>
<path d="M16.7973 62.5272H16.3526V60.5088H18.3211V60.9934H16.8173V62.0126C16.9422 61.8727 17.137 61.7578 17.4368 61.7578C18.1562 61.7578 18.486 62.3074 18.486 63.1817C18.486 63.9462 18.0913 64.4358 17.3469 64.4358C16.7423 64.4358 16.2977 64.0161 16.2627 63.4765H16.7373C16.8123 63.8013 17.0371 63.9961 17.3519 63.9961C17.7516 63.9961 18.0064 63.7663 18.0064 63.1817C18.0064 62.5972 17.8165 62.2425 17.3519 62.2425C17.0871 62.2425 16.9072 62.3774 16.8023 62.5272H16.7973Z" fill="#000001"/>
<path d="M24.3886 60.5088L23.1046 63.3216H24.2238V62.1775H24.7084V63.3216H25.0631V63.7613H24.7084V64.3908H24.2238V63.7613H22.54V63.4066L23.909 60.5088H24.3886Z" fill="#000001"/>
<path d="M26.6678 62.2176C26.7677 62.1576 26.9276 62.1377 27.0325 62.1377C27.6521 62.1377 28.0518 62.6273 28.0518 63.2718C28.0518 63.9563 27.5971 64.4309 26.9326 64.4309C26.2681 64.4309 25.8135 63.9713 25.8135 63.2918C25.8135 63.022 25.9534 62.6772 26.0783 62.3925L26.8777 60.5039H27.4173L26.6678 62.2126V62.2176ZM26.9326 63.9962C27.3073 63.9962 27.5671 63.7165 27.5671 63.2768C27.5671 62.8371 27.3073 62.5573 26.9326 62.5573C26.5579 62.5573 26.2981 62.8471 26.2981 63.2768C26.2981 63.7065 26.5529 63.9962 26.9326 63.9962Z" fill="#000001"/>
<path d="M30.3665 64.3909H29.8818V61.0635L29.3223 61.4632V60.9336L29.8818 60.5039H30.3665V64.3859V64.3909Z" fill="#000001"/>
<path d="M34.2197 64.3908H31.9414V63.9861L33.3104 62.3723C33.5752 62.0625 33.75 61.7977 33.75 61.508C33.75 61.1033 33.4403 60.8984 33.1205 60.8984C32.7708 60.8984 32.496 61.1083 32.486 61.508H32.0064C32.0064 60.8684 32.511 60.4688 33.1205 60.4688C33.73 60.4688 34.2347 60.8684 34.2347 61.5329C34.2347 61.9926 33.8949 62.3673 33.6501 62.6621L32.5809 63.9561H34.2247V64.3958L34.2197 64.3908Z" fill="#000001"/>
<path d="M39.253 62.1675H39.4928C40.0074 62.1675 40.2222 61.9027 40.2222 61.483C40.2222 61.1782 39.9724 60.8984 39.5927 60.8984C39.213 60.8984 38.9682 61.1382 38.9582 61.458H38.4836C38.4836 60.8435 39.0132 60.4688 39.5927 60.4688C40.2422 60.4688 40.7069 60.9034 40.7069 61.498C40.7069 61.8977 40.482 62.2124 40.1273 62.3823C40.502 62.5322 40.7618 62.8419 40.7618 63.3416C40.7618 63.9361 40.3172 64.4457 39.6327 64.4457C38.8882 64.4457 38.4736 64.011 38.4336 63.4265H38.9082C38.9582 63.7412 39.173 64.006 39.6327 64.006C39.9974 64.006 40.2822 63.7263 40.2822 63.3516C40.2822 62.8919 40.0124 62.6121 39.4928 62.6121H39.253V62.1725V62.1675Z" fill="#000001"/>
<path d="M43.2607 60.5088L41.9767 63.3216H43.0958V62.1775H43.5805V63.3216H43.9352V63.7613H43.5805V64.3908H43.0958V63.7613H41.4121V63.4066L42.7811 60.5088H43.2607Z" fill="#000001"/>
<path d="M45.2446 62.5272H44.7999V60.5088H46.7684V60.9934H45.2645V62.0126C45.3894 61.8727 45.5843 61.7578 45.8841 61.7578C46.6035 61.7578 46.9333 62.3074 46.9333 63.1817C46.9333 63.9462 46.5386 64.4358 45.7941 64.4358C45.1896 64.4358 44.7449 64.0161 44.71 63.4765H45.1846C45.2595 63.8013 45.4844 63.9961 45.7991 63.9961C46.1988 63.9961 46.4536 63.7663 46.4536 63.1817C46.4536 62.5972 46.2638 62.2425 45.7991 62.2425C45.5343 62.2425 45.3545 62.3774 45.2495 62.5272H45.2446Z" fill="#000001"/>
<path d="M48.6385 62.2176C48.7385 62.1576 48.8983 62.1377 49.0032 62.1377C49.6228 62.1377 50.0225 62.6273 50.0225 63.2718C50.0225 63.9563 49.5678 64.4309 48.9033 64.4309C48.2388 64.4309 47.7842 63.9713 47.7842 63.2918C47.7842 63.022 47.9241 62.6772 48.049 62.3925L48.8484 60.5039H49.388L48.6385 62.2126V62.2176ZM48.9033 63.9962C49.278 63.9962 49.5378 63.7165 49.5378 63.2768C49.5378 62.8371 49.278 62.5573 48.9033 62.5573C48.5286 62.5573 48.2688 62.8471 48.2688 63.2768C48.2688 63.7065 48.5236 63.9962 48.9033 63.9962Z" fill="#000001"/>
<path d="M54.2959 61.6279V60.5088H56.4792V60.9485L55.2452 64.3908H54.7356L55.9746 60.9485H54.7356V61.6279H54.2959Z" fill="#000001"/>
<path d="M57.904 62.3774C57.5942 62.2275 57.3694 61.8978 57.3694 61.5331C57.3694 60.8836 57.899 60.4639 58.4836 60.4639C59.0681 60.4639 59.5977 60.8836 59.5977 61.5331C59.5977 61.8978 59.3679 62.2275 59.0581 62.3774C59.3729 62.5073 59.6527 62.862 59.6527 63.3017C59.6527 63.9862 59.0881 64.4408 58.4836 64.4408C57.879 64.4408 57.3145 63.9912 57.3145 63.3017C57.3145 62.862 57.5992 62.5073 57.904 62.3774ZM58.4836 63.9962C58.8683 63.9962 59.173 63.6814 59.173 63.2967C59.173 62.867 58.8133 62.6072 58.4836 62.6072C58.1538 62.6072 57.7991 62.872 57.7991 63.2967C57.7991 63.6814 58.0939 63.9962 58.4836 63.9962ZM58.4836 62.1726C58.8333 62.1726 59.1131 61.8878 59.1131 61.5331C59.1131 61.1783 58.8333 60.9035 58.4836 60.9035C58.1338 60.9035 57.849 61.1833 57.849 61.5331C57.849 61.8828 58.1288 62.1726 58.4836 62.1726Z" fill="#000001"/>
<path d="M61.8527 62.6821C61.7528 62.742 61.5929 62.762 61.488 62.762C60.8684 62.762 60.4688 62.2724 60.4688 61.6279C60.4688 60.9434 60.9234 60.4688 61.5879 60.4688C62.2524 60.4688 62.707 60.9284 62.707 61.6029C62.707 61.8727 62.5671 62.2174 62.4422 62.5022L61.6429 64.3908H61.1033L61.8527 62.6821ZM61.5879 60.9034C61.2132 60.9034 60.9534 61.1832 60.9534 61.6229C60.9534 62.0625 61.2132 62.3423 61.5879 62.3423C61.9626 62.3423 62.2224 62.0525 62.2224 61.6229C62.2224 61.1932 61.9676 60.9034 61.5879 60.9034Z" fill="#000001"/>
<path d="M65.7957 63.3167C65.7957 64.0311 65.2661 64.4358 64.6815 64.4358C64.097 64.4358 63.5674 64.0311 63.5674 63.3117V61.588C63.5674 60.8686 64.097 60.4639 64.6815 60.4639C65.2661 60.4639 65.7957 60.8686 65.7957 61.583V63.3167ZM64.6815 60.9035C64.3268 60.9035 64.047 61.1683 64.047 61.583V63.3167C64.047 63.7314 64.3268 63.9962 64.6815 63.9962C65.0363 63.9962 65.311 63.7314 65.311 63.3167V61.583C65.311 61.1683 65.0313 60.9035 64.6815 60.9035Z" fill="#000001"/>
<path d="M9.40096 28.1284C9.64085 28.1284 9.83077 28.1934 9.96571 28.3283C10.1007 28.4632 10.1706 28.648 10.1756 28.8878H11.2651C11.4501 28.8878 11.595 28.9428 11.695 29.0477C11.7949 29.1526 11.8449 29.2875 11.8449 29.4474C11.8449 29.5973 11.7999 29.7272 11.7049 29.8321C11.61 29.942 11.485 30.002 11.3251 30.017C11.4051 30.2168 11.4451 30.4417 11.4451 30.6865V31.0012C11.4451 31.5158 11.3251 31.9105 11.0902 32.1853C10.8553 32.4601 10.5355 32.645 10.1306 32.7349V33.7641H11.2501C11.48 33.7641 11.645 33.8241 11.7399 33.949C11.8349 34.0739 11.8849 34.2088 11.8849 34.3637C11.8849 34.5185 11.8349 34.6634 11.7399 34.7883C11.64 34.9132 11.48 34.9732 11.2551 34.9732H7.68171C7.45681 34.9732 7.29188 34.9132 7.19193 34.7883C7.09197 34.6634 7.04199 34.5235 7.04199 34.3637C7.04199 34.2038 7.09197 34.0689 7.18693 33.949C7.28189 33.8291 7.44682 33.7641 7.67672 33.7641H8.67628V32.7349C8.27146 32.645 7.95159 32.4601 7.7167 32.1853C7.4818 31.9105 7.36185 31.5158 7.36185 31.0012V30.6865C7.36185 30.4317 7.40184 30.2068 7.4768 30.017C7.31687 30.002 7.19193 29.942 7.09697 29.8321C7.00201 29.7222 6.95703 29.5973 6.95703 29.4474C6.95703 29.2875 7.00701 29.1526 7.10697 29.0477C7.20692 28.9428 7.35186 28.8878 7.53678 28.8878H8.6313C8.63629 28.648 8.70626 28.4632 8.84121 28.3283C8.97615 28.1934 9.16606 28.1284 9.40596 28.1284H9.40096ZM9.40096 31.6807C9.57588 31.6807 9.72582 31.6307 9.85576 31.5358C9.9857 31.4409 10.0457 31.271 10.0457 31.0362V30.6065C10.0457 30.3717 9.9807 30.2068 9.85576 30.1069C9.73081 30.007 9.57588 29.962 9.40096 29.962C9.22604 29.962 9.0761 30.012 8.94616 30.1069C8.81622 30.2018 8.75624 30.3717 8.75624 30.6065V31.0362C8.75624 31.271 8.82121 31.4359 8.94616 31.5358C9.0711 31.6357 9.22604 31.6807 9.40096 31.6807ZM12.1498 28.9128C12.1498 28.673 12.2247 28.4931 12.3747 28.3682C12.5246 28.2433 12.6995 28.1834 12.8944 28.1834C12.9894 28.1834 13.0843 28.1984 13.1743 28.2333C13.2643 28.2683 13.3442 28.3133 13.4092 28.3732C13.4792 28.4332 13.5341 28.5081 13.5741 28.5981C13.6141 28.688 13.6391 28.7929 13.6391 28.9128V30.8114H13.889C14.0039 30.8114 14.0989 30.8314 14.1739 30.8713C14.2488 30.9113 14.3088 30.9613 14.3538 31.0262C14.3988 31.0912 14.4338 31.1611 14.4537 31.236C14.4737 31.316 14.4837 31.3909 14.4837 31.4659C14.4837 31.5408 14.4737 31.6158 14.4537 31.6957C14.4338 31.7756 14.3988 31.8456 14.3538 31.9055C14.3088 31.9705 14.2488 32.0204 14.1689 32.0604C14.0889 32.1004 13.9989 32.1204 13.889 32.1204H13.6391V35.238H12.1498V28.9178V28.9128Z" fill="#150F14"/>
<path d="M17.5176 30.072V30.2069C17.5176 30.2768 17.5176 30.3418 17.5126 30.4017C17.5076 30.4617 17.4976 30.5217 17.4876 30.5816C18.0424 30.6066 18.4572 30.7715 18.7221 31.0762C18.9919 31.381 19.1169 31.8606 19.1069 32.5151H17.7175C17.7325 32.2254 17.6825 32.0005 17.5626 31.8456C17.4426 31.6908 17.2927 31.6108 17.1028 31.6058C16.8829 31.9206 16.608 32.1554 16.2781 32.3103C15.9483 32.4652 15.6034 32.5501 15.2486 32.5601C15.0637 32.5651 14.9087 32.5151 14.7788 32.4152C14.6488 32.3153 14.5889 32.1804 14.5889 32.0105C14.5889 31.8407 14.6338 31.7008 14.7188 31.6058C14.8038 31.5109 14.9237 31.4509 15.0737 31.426C15.4085 31.371 15.6634 31.2361 15.8433 31.0213C16.0232 30.8064 16.1082 30.5317 16.1082 30.2019V30.067H15.1686C15.0787 30.067 14.9987 30.047 14.9337 30.012C14.8637 29.9771 14.8088 29.9321 14.7638 29.8722C14.7188 29.8122 14.6838 29.7522 14.6588 29.6823C14.6338 29.6124 14.6189 29.5474 14.6189 29.4775C14.6189 29.4125 14.6288 29.3426 14.6488 29.2726C14.6688 29.1977 14.7038 29.1327 14.7488 29.0728C14.7938 29.0128 14.8538 28.9629 14.9237 28.9279C14.9937 28.8929 15.0787 28.8729 15.1736 28.8729H16.0882V28.828C16.0882 28.6031 16.1482 28.4383 16.2781 28.3283C16.4031 28.2184 16.583 28.1685 16.8179 28.1685C17.0528 28.1685 17.2327 28.2234 17.3627 28.3283C17.4926 28.4333 17.5526 28.6031 17.5526 28.828V28.8729H18.4972C18.5921 28.8729 18.6771 28.8929 18.747 28.9279C18.817 28.9678 18.877 29.0128 18.922 29.0728C18.9669 29.1327 19.0019 29.1977 19.0219 29.2726C19.0419 29.3476 19.0519 29.4125 19.0519 29.4775C19.0519 29.5474 19.0369 29.6173 19.0119 29.6823C18.9869 29.7473 18.952 29.8122 18.907 29.8722C18.862 29.9321 18.807 29.9771 18.737 30.012C18.6671 30.047 18.5921 30.067 18.5022 30.067H17.5176V30.072ZM16.1882 35.2281C15.9783 35.2281 15.8033 35.2081 15.6684 35.1681C15.5335 35.1281 15.4235 35.0632 15.3435 34.9783C15.2636 34.8933 15.2086 34.7784 15.1736 34.6385C15.1386 34.4986 15.1236 34.3287 15.1236 34.1289V33.5743C15.1236 33.3195 15.1986 33.1347 15.3535 33.0247C15.5085 32.9148 15.6884 32.8599 15.8983 32.8599C16.1082 32.8599 16.2881 32.9148 16.4331 33.0247C16.578 33.1347 16.653 33.3195 16.653 33.5743V33.8741C16.653 33.959 16.668 34.014 16.6929 34.034C16.7179 34.054 16.7729 34.064 16.8579 34.064H20.9361C21.166 34.064 21.3309 34.1239 21.4259 34.2388C21.5208 34.3587 21.5708 34.4886 21.5708 34.6385C21.5708 34.7884 21.5208 34.9283 21.4259 35.0482C21.3309 35.1681 21.166 35.2231 20.9411 35.2231H16.2032L16.1882 35.2281ZM19.8666 31.1812H19.4367C19.2118 31.1812 19.0569 31.1212 18.9669 31.0013C18.877 30.8814 18.837 30.7415 18.837 30.5866C18.837 30.5117 18.847 30.4367 18.867 30.3668C18.887 30.2968 18.922 30.2319 18.9669 30.1769C19.0119 30.117 19.0719 30.072 19.1519 30.042C19.2318 30.0071 19.3268 29.9921 19.4417 29.9921H19.8715V28.9029C19.8715 28.6631 19.9465 28.4832 20.0965 28.3583C20.2464 28.2334 20.4213 28.1735 20.6162 28.1735C20.7112 28.1735 20.8061 28.1884 20.8961 28.2234C20.9861 28.2584 21.066 28.3034 21.136 28.3633C21.206 28.4233 21.2609 28.4982 21.3059 28.5881C21.3509 28.6781 21.3709 28.783 21.3709 28.9029V33.4844H19.8765V31.1812H19.8666Z" fill="#150F14"/>
<path d="M24.8745 32.2753H22.6805C22.4556 32.2753 22.2957 32.2104 22.1957 32.0855C22.0958 31.9556 22.0508 31.8157 22.0508 31.6608C22.0508 31.5859 22.0608 31.5109 22.0858 31.436C22.1058 31.361 22.1457 31.2961 22.1957 31.2361C22.2457 31.1812 22.3107 31.1312 22.3906 31.0912C22.4706 31.0513 22.5706 31.0363 22.6855 31.0363H26.9136C26.9886 30.8914 27.0536 30.7265 27.1036 30.5467C27.1535 30.3668 27.1785 30.152 27.1785 29.9071V29.7173C27.1785 29.6473 27.1635 29.6024 27.1385 29.5824C27.1136 29.5624 27.0636 29.5524 26.9936 29.5524H23.0653C22.8204 29.5524 22.6455 29.4925 22.5356 29.3726C22.4256 29.2526 22.3756 29.1028 22.3756 28.9279C22.3756 28.768 22.4306 28.6281 22.5356 28.5032C22.6405 28.3783 22.8204 28.3184 23.0703 28.3184H27.6733C28.0382 28.3184 28.298 28.3933 28.453 28.5382C28.6079 28.6881 28.6829 28.8929 28.6829 29.1677V29.6473C28.6829 29.9871 28.6579 30.2669 28.6079 30.4817C28.5579 30.6965 28.493 30.8814 28.413 31.0313H28.468C28.5829 31.0313 28.6829 31.0513 28.7628 31.0862C28.8428 31.1262 28.9078 31.1712 28.9578 31.2311C29.0077 31.2911 29.0427 31.356 29.0677 31.431C29.0877 31.5059 29.1027 31.5809 29.1027 31.6558C29.1027 31.8107 29.0527 31.9506 28.9578 32.0805C28.8628 32.2104 28.6979 32.2703 28.473 32.2703H26.4089V33.5294H24.8995V32.2703L24.8745 32.2753ZM23.4902 35.2331C23.2802 35.2331 23.1053 35.2131 22.9704 35.1781C22.8304 35.1382 22.7255 35.0782 22.6455 34.9883C22.5656 34.8983 22.5106 34.7884 22.4756 34.6485C22.4406 34.5086 22.4256 34.3388 22.4256 34.1339V33.3745C22.4256 33.1197 22.5056 32.9348 22.6605 32.8249C22.8154 32.71 23.0004 32.655 23.2103 32.655C23.4202 32.655 23.6001 32.71 23.745 32.8249C23.895 32.9398 23.9649 33.1197 23.9649 33.3745V33.8641C23.9649 33.9441 23.9799 33.994 24.0049 34.014C24.0299 34.034 24.0849 34.044 24.1699 34.044H28.2181C28.448 34.044 28.6129 34.1039 28.7079 34.2288C28.8028 34.3537 28.8528 34.4886 28.8528 34.6385C28.8528 34.7884 28.8028 34.9333 28.7079 35.0532C28.6129 35.1731 28.448 35.2331 28.2231 35.2331H23.5001H23.4902Z" fill="#150F14"/>
<path d="M12.3594 42.4974H11.3749V43.3918C11.3749 43.7215 11.3249 44.0163 11.2249 44.2661C11.125 44.5159 10.985 44.7307 10.8051 44.9006C10.6252 45.0705 10.4053 45.2004 10.1504 45.2853C9.89551 45.3702 9.61063 45.4152 9.30077 45.4152C8.9909 45.4152 8.70603 45.3702 8.45114 45.2853C8.19625 45.2004 7.97635 45.0705 7.79643 44.9006C7.61151 44.7307 7.47157 44.5209 7.37161 44.2661C7.27166 44.0113 7.22168 43.7215 7.22168 43.3918V40.6439C7.22168 40.3141 7.27166 40.0243 7.37161 39.7695C7.47157 39.5147 7.61151 39.3049 7.79643 39.135C7.98135 38.9651 8.19625 38.8352 8.45114 38.7503C8.70603 38.6654 8.9909 38.6204 9.30077 38.6204C9.61063 38.6204 9.89551 38.6604 10.1504 38.7503C10.4053 38.8352 10.6252 38.9651 10.8051 39.135C10.985 39.3049 11.125 39.5147 11.2249 39.7695C11.3249 40.0243 11.3749 40.3141 11.3749 40.6439V41.2134H12.3594V39.2299C12.3594 38.9901 12.4344 38.8103 12.5843 38.6853C12.7343 38.5604 12.9092 38.5005 13.1041 38.5005C13.1991 38.5005 13.294 38.5155 13.384 38.5505C13.4739 38.5854 13.5539 38.6304 13.6239 38.6903C13.6938 38.7503 13.7488 38.8252 13.7938 38.9152C13.8388 39.0051 13.8588 39.11 13.8588 39.2299V45.5501H12.3644V42.4924L12.3594 42.4974ZM8.69603 43.4267C8.69603 43.6815 8.75101 43.8714 8.86596 43.9913C8.98091 44.1162 9.12584 44.1762 9.30577 44.1762C9.48569 44.1762 9.63062 44.1162 9.74557 43.9913C9.86052 43.8664 9.9155 43.6815 9.9155 43.4267V40.6039C9.9155 40.3491 9.86052 40.1592 9.74557 40.0393C9.63062 39.9144 9.48569 39.8545 9.30577 39.8545C9.12584 39.8545 8.98091 39.9144 8.86596 40.0393C8.75101 40.1642 8.69603 40.3491 8.69603 40.6039V43.4267Z" fill="#150F14"/>
<path d="M20.9211 44.1411C21.0361 44.1411 21.1361 44.1611 21.216 44.196C21.301 44.236 21.366 44.281 21.4209 44.3409C21.4759 44.4009 21.5109 44.4708 21.5359 44.5458C21.5559 44.6207 21.5709 44.6957 21.5709 44.7706C21.5709 44.8505 21.5609 44.9305 21.5359 45.0054C21.5109 45.0804 21.4709 45.1503 21.4209 45.2103C21.366 45.2702 21.301 45.3202 21.221 45.3551C21.1411 45.3901 21.0411 45.4101 20.9261 45.4101H15.1887C15.0737 45.4101 14.9738 45.3901 14.8938 45.3551C14.8138 45.3202 14.7489 45.2702 14.6939 45.2103C14.6389 45.1503 14.6039 45.0804 14.5789 45.0054C14.5539 44.9305 14.5439 44.8505 14.5439 44.7706C14.5439 44.6957 14.5539 44.6207 14.5789 44.5458C14.5989 44.4708 14.6389 44.4009 14.6939 44.3409C14.7489 44.281 14.8138 44.231 14.8988 44.196C14.9838 44.1561 15.0787 44.1411 15.1937 44.1411H20.9311H20.9211ZM19.5767 40.1391C19.5767 40.0892 19.5617 40.0392 19.5368 39.9942C19.5118 39.9493 19.4568 39.9243 19.3718 39.9243H15.4685C15.2886 39.9243 15.1487 39.8643 15.0437 39.7394C14.9388 39.6145 14.8888 39.4796 14.8888 39.3248C14.8888 39.1699 14.9388 39.035 15.0437 38.9101C15.1487 38.7852 15.2886 38.7202 15.4685 38.7202H19.8116C20.0715 38.7202 20.2864 38.7502 20.4564 38.8051C20.6263 38.8651 20.7612 38.945 20.8612 39.045C20.9611 39.1449 21.0311 39.2698 21.0761 39.4147C21.1161 39.5596 21.1411 39.7244 21.1411 39.9043V41.5181H16.688C16.5181 41.5181 16.4331 41.593 16.4331 41.7379V41.7779C16.4331 41.9128 16.5181 41.9827 16.688 41.9827H20.7612C20.8662 41.9827 20.9561 41.9977 21.0261 42.0377C21.0961 42.0727 21.161 42.1176 21.206 42.1776C21.256 42.2375 21.286 42.2975 21.306 42.3674C21.326 42.4374 21.336 42.5073 21.336 42.5773C21.336 42.6472 21.326 42.7172 21.301 42.7871C21.276 42.8571 21.246 42.922 21.201 42.977C21.156 43.0319 21.0961 43.0769 21.0261 43.1119C20.9511 43.1468 20.8662 43.1668 20.7612 43.1668H16.3082C15.8184 43.1668 15.4436 43.0469 15.1937 42.8071C14.9388 42.5673 14.8138 42.2425 14.8138 41.8378V41.6929C14.8138 41.2883 14.9388 40.9685 15.1937 40.7337C15.4485 40.4989 15.8184 40.3839 16.3082 40.3839H19.5817V40.1341L19.5767 40.1391Z" fill="#150F14"/>
<path d="M22.3999 41.4083C22.7747 41.2734 23.0696 41.0535 23.2845 40.7438C23.4994 40.434 23.6093 40.0043 23.6093 39.4498V39.3149C23.6093 39.195 23.6343 39.09 23.6793 39.0051C23.7243 38.9152 23.7843 38.8452 23.8542 38.7853C23.9242 38.7253 24.0092 38.6853 24.1041 38.6554C24.1991 38.6254 24.294 38.6154 24.394 38.6154C24.5889 38.6204 24.7588 38.6804 24.9088 38.8003C25.0587 38.9202 25.1287 39.09 25.1287 39.3149V39.4498C25.1287 39.6696 25.1137 39.8794 25.0837 40.0743C25.3536 40.1093 25.5985 40.1842 25.8184 40.2941C26.0383 40.404 26.2282 40.5589 26.3831 40.7588C26.5381 40.9586 26.653 41.2034 26.733 41.4982C26.8129 41.793 26.8429 42.1377 26.8279 42.5374H25.3636C25.4185 41.773 25.1936 41.3383 24.6939 41.2334C24.469 41.6331 24.1891 41.9479 23.8542 42.1777C23.5194 42.4075 23.1795 42.5524 22.8197 42.6074C22.6298 42.6373 22.4648 42.6074 22.3299 42.5274C22.195 42.4425 22.1 42.3326 22.05 42.1877C21.995 42.0178 22 41.8579 22.07 41.713C22.14 41.5681 22.2449 41.4682 22.3949 41.4133L22.3999 41.4083ZM23.6993 45.5501C23.4894 45.5501 23.3145 45.5301 23.1795 45.4902C23.0446 45.4502 22.9346 45.3852 22.8547 45.3003C22.7747 45.2154 22.7197 45.1004 22.6847 44.9606C22.6498 44.8207 22.6348 44.6508 22.6348 44.4509V43.6865C22.6348 43.4317 22.7097 43.2419 22.8647 43.122C23.0196 43.002 23.1995 42.9421 23.4094 42.9421C23.6193 42.9421 23.7993 43.002 23.9442 43.122C24.0891 43.2419 24.1641 43.4317 24.1641 43.6865V44.1961C24.1641 44.2811 24.1791 44.336 24.2041 44.356C24.2291 44.376 24.284 44.386 24.369 44.386H28.4472C28.6771 44.386 28.842 44.4459 28.937 44.5609C29.032 44.6808 29.0819 44.8107 29.0819 44.9606C29.0819 45.1104 29.032 45.2503 28.937 45.3702C28.842 45.4901 28.6771 45.5451 28.4522 45.5451H23.7143L23.6993 45.5501ZM27.3577 39.2449C27.3577 39.0001 27.4327 38.8153 27.5876 38.6903C27.7425 38.5654 27.9174 38.5005 28.1174 38.5005C28.2123 38.5005 28.3073 38.5155 28.3972 38.5505C28.4922 38.5854 28.5722 38.6304 28.6421 38.6953C28.7121 38.7603 28.7671 38.8352 28.8121 38.9302C28.857 39.0251 28.877 39.13 28.877 39.2499V43.8164H27.3577V39.2499V39.2449Z" fill="#150F14"/>
<path d="M32.9557 45.2303C32.7358 45.2303 32.5559 45.2104 32.416 45.1704C32.276 45.1304 32.1661 45.0655 32.0861 44.9755C32.0061 44.8856 31.9512 44.7707 31.9162 44.6258C31.8812 44.4809 31.8662 44.3111 31.8662 44.1062V39.4448C31.8662 39.19 31.9362 39.0051 32.0711 38.8902C32.2111 38.7753 32.386 38.7153 32.6059 38.7153C32.8258 38.7153 32.9957 38.7753 33.1257 38.8902C33.2556 39.0051 33.3206 39.19 33.3206 39.4398V40.6039H34.59V39.4398C34.59 39.185 34.655 39.0001 34.7899 38.8852C34.9249 38.7703 35.0948 38.7103 35.3097 38.7103C35.5246 38.7103 35.7045 38.7703 35.8345 38.8852C35.9644 39.0051 36.0294 39.185 36.0294 39.4348V45.2254H32.9507L32.9557 45.2303ZM34.595 44.0063V41.813H33.3256V43.8114C33.3256 43.8964 33.3406 43.9513 33.3656 43.9713C33.3905 43.9913 33.4505 44.0063 33.5355 44.0063H34.595ZM36.7891 39.2299C36.7891 38.9901 36.864 38.8103 37.014 38.6853C37.1639 38.5604 37.3388 38.5005 37.5337 38.5005C37.6287 38.5005 37.7236 38.5155 37.8136 38.5505C37.9036 38.5854 37.9835 38.6304 38.0485 38.6903C38.1185 38.7503 38.1734 38.8252 38.2134 38.9152C38.2534 39.0051 38.2784 39.11 38.2784 39.2299V41.1285H38.5283C38.6432 41.1285 38.7382 41.1485 38.8132 41.1884C38.8881 41.2284 38.9481 41.2784 38.9931 41.3433C39.0381 41.4083 39.0731 41.4782 39.093 41.5532C39.113 41.6331 39.123 41.708 39.123 41.783C39.123 41.8579 39.113 41.9329 39.093 42.0128C39.0731 42.0927 39.0381 42.1627 38.9931 42.2226C38.9481 42.2876 38.8881 42.3376 38.8082 42.3775C38.7282 42.4175 38.6382 42.4375 38.5283 42.4375H38.2784V45.5551H36.7891V39.2349V39.2299Z" fill="#150F14"/>
<path d="M43.456 43.8715V45.5902H41.9216V43.8715H39.8026C39.5777 43.8715 39.4177 43.8066 39.3178 43.6817C39.2178 43.5568 39.1729 43.4169 39.1729 43.262C39.1729 43.187 39.1828 43.1121 39.2078 43.0422C39.2278 42.9722 39.2678 42.9023 39.3178 42.8423C39.3678 42.7823 39.4327 42.7324 39.5127 42.6974C39.5927 42.6624 39.6926 42.6425 39.8076 42.6425H45.575C45.69 42.6425 45.7899 42.6624 45.8699 42.6974C45.9499 42.7324 46.0149 42.7823 46.0648 42.8423C46.1148 42.9023 46.1498 42.9672 46.1748 43.0422C46.1948 43.1171 46.2098 43.187 46.2098 43.262C46.2098 43.4169 46.1598 43.5568 46.0648 43.6817C45.9699 43.8066 45.8049 43.8715 45.58 43.8715H43.461H43.456ZM46.0348 40.4491C46.0348 40.674 45.9949 40.8888 45.9199 41.0886C45.8449 41.2935 45.735 41.4684 45.59 41.6232C45.4451 41.7781 45.2652 41.903 45.0553 41.993C44.8404 42.0879 44.6005 42.1328 44.3206 42.1328H41.067C40.7921 42.1328 40.5472 42.0879 40.3323 41.993C40.1174 41.898 39.9425 41.7731 39.7976 41.6182C39.6526 41.4634 39.5427 41.2785 39.4677 41.0787C39.3928 40.8738 39.3528 40.664 39.3528 40.4391V40.3392C39.3528 40.1144 39.3928 39.8996 39.4677 39.6997C39.5427 39.4949 39.6526 39.315 39.7976 39.1601C39.9425 39.0002 40.1224 38.8753 40.3323 38.7854C40.5472 38.6905 40.7871 38.6455 41.067 38.6455H44.3206C44.5955 38.6455 44.8404 38.6905 45.0553 38.7854C45.2702 38.8803 45.4451 39.0052 45.59 39.1601C45.735 39.32 45.8449 39.4999 45.9199 39.6997C45.9949 39.9045 46.0348 40.1144 46.0348 40.3392V40.4441V40.4491ZM44.4805 40.3492C44.4805 40.2143 44.4305 40.0944 44.3256 39.9945C44.2206 39.8946 44.0657 39.8446 43.8558 39.8446H41.5368C41.3269 39.8446 41.172 39.8946 41.067 39.9945C40.9621 40.0944 40.9121 40.2143 40.9121 40.3492V40.4391C40.9121 40.574 40.9621 40.6889 41.067 40.7889C41.172 40.8888 41.3269 40.9338 41.5368 40.9338H43.8558C44.0607 40.9338 44.2156 40.8838 44.3206 40.7889C44.4255 40.6889 44.4805 40.574 44.4805 40.4391V40.3492Z" fill="#150F14"/>
<path d="M48.939 38.4756C49.1939 38.4756 49.3838 38.5405 49.5138 38.6654C49.6437 38.7903 49.7037 38.9752 49.7037 39.215V39.305H50.6333C50.7482 39.305 50.8432 39.3249 50.9231 39.3599C51.0031 39.3949 51.0631 39.4498 51.1131 39.5098C51.163 39.5747 51.198 39.6397 51.218 39.7146C51.238 39.7896 51.248 39.8645 51.248 39.9395C51.248 40.0144 51.238 40.0894 51.213 40.1643C51.193 40.2392 51.153 40.3092 51.1081 40.3691C51.0581 40.4291 50.9981 40.4791 50.9181 40.514C50.8382 40.554 50.7432 40.569 50.6333 40.569H49.6737V41.0286C49.6737 41.2185 49.6687 41.4033 49.6537 41.5782C49.6437 41.7531 49.6237 41.923 49.5987 42.0828C49.8686 42.1678 50.1085 42.2827 50.3234 42.4326C50.5383 42.5824 50.7132 42.7723 50.8582 43.0121C51.0031 43.2519 51.1081 43.5417 51.173 43.8864C51.243 44.2312 51.258 44.6459 51.228 45.1305H49.8386C49.8936 44.6509 49.8686 44.2662 49.7687 43.9864C49.6637 43.7016 49.4938 43.4918 49.2539 43.3469C49.064 43.7865 48.8241 44.1562 48.5292 44.451C48.2343 44.7458 47.9045 44.9706 47.5246 45.1255C47.4447 45.1605 47.3597 45.1805 47.2698 45.1805C47.1798 45.1805 47.0898 45.1755 47.0049 45.1505C46.9199 45.1305 46.8399 45.0905 46.77 45.0406C46.7 44.9906 46.645 44.9257 46.605 44.8507C46.5351 44.7158 46.5151 44.5709 46.5501 44.416C46.585 44.2612 46.68 44.1363 46.8299 44.0463C47.0598 43.9114 47.2648 43.7516 47.4397 43.5717C47.6146 43.3918 47.7595 43.182 47.8795 42.9372C47.9994 42.6924 48.0844 42.4126 48.1444 42.0928C48.2043 41.7731 48.2293 41.4033 48.2293 40.9887V40.569H47.2248C47.1098 40.569 47.0149 40.549 46.9349 40.514C46.8549 40.4791 46.79 40.4291 46.74 40.3691C46.685 40.3092 46.65 40.2392 46.625 40.1643C46.605 40.0894 46.59 40.0144 46.59 39.9395C46.59 39.8645 46.6 39.7896 46.625 39.7146C46.645 39.6397 46.685 39.5697 46.735 39.5098C46.785 39.4448 46.8499 39.3949 46.9299 39.3599C47.0099 39.3199 47.1098 39.305 47.2248 39.305H48.1694V39.215C48.1694 38.9752 48.2343 38.7903 48.3593 38.6654C48.4842 38.5405 48.6791 38.4756 48.934 38.4756H48.939ZM52.0427 42.3476H51.1181C51.0031 42.3476 50.9082 42.3276 50.8282 42.2927C50.7482 42.2577 50.6833 42.2027 50.6333 42.1428C50.5783 42.0778 50.5433 42.0079 50.5183 41.9329C50.4933 41.853 50.4833 41.7781 50.4833 41.7031C50.4833 41.6282 50.4933 41.5532 50.5183 41.4733C50.5383 41.3934 50.5783 41.3284 50.6283 41.2685C50.6783 41.2085 50.7432 41.1585 50.8232 41.1186C50.9032 41.0786 51.0031 41.0586 51.1181 41.0586H52.0427V39.235C52.0427 38.9952 52.1176 38.8153 52.2676 38.6904C52.4175 38.5655 52.5924 38.5056 52.7873 38.5056C52.8823 38.5056 52.9772 38.5205 53.0672 38.5555C53.1572 38.5905 53.2371 38.6355 53.3071 38.6954C53.3771 38.7554 53.432 38.8303 53.477 38.9202C53.522 39.0102 53.542 39.1151 53.542 39.235V45.5552H52.0477V42.3476H52.0427Z" fill="#150F14"/>
<path d="M56.9601 44.0063C57.215 43.9813 57.4499 43.9413 57.6698 43.8814C57.8897 43.8264 58.0847 43.7365 58.2546 43.6266C58.4295 43.5117 58.5744 43.3668 58.6944 43.1819C58.8143 42.9971 58.9043 42.7622 58.9643 42.4824H57.0551C56.9402 42.4824 56.8452 42.4625 56.7652 42.4275C56.6853 42.3925 56.6203 42.3426 56.5703 42.2826C56.5153 42.2226 56.4804 42.1527 56.4554 42.0778C56.4354 41.9978 56.4204 41.9229 56.4204 41.8479C56.4204 41.773 56.4304 41.698 56.4554 41.6231C56.4804 41.5482 56.5153 41.4782 56.5653 41.4183C56.6153 41.3583 56.6803 41.3083 56.7602 41.2734C56.8402 41.2334 56.9402 41.2184 57.0551 41.2184H59.0542V40.2791C59.0542 40.2242 59.0392 40.1792 59.0042 40.1442C58.9693 40.1093 58.9243 40.0893 58.8643 40.0893H57.1201C57.0051 40.0893 56.9102 40.0693 56.8302 40.0293C56.7502 39.9894 56.6853 39.9394 56.6353 39.8744C56.5803 39.8095 56.5453 39.7395 56.5203 39.6646C56.4953 39.5897 56.4854 39.5097 56.4854 39.4348C56.4854 39.3598 56.4953 39.2849 56.5203 39.205C56.5403 39.125 56.5803 39.0601 56.6303 39.0001C56.6803 38.9402 56.7452 38.8902 56.8252 38.8502C56.9052 38.8103 57.0051 38.7903 57.1201 38.7903H59.3341C59.7589 38.7903 60.0638 38.8852 60.2437 39.0751C60.4236 39.2649 60.5136 39.5347 60.5136 39.8844V41.5731C60.5136 42.2476 60.4286 42.8172 60.2587 43.2718C60.0888 43.7315 59.8539 44.1012 59.554 44.386C59.2541 44.6708 58.8943 44.8806 58.4795 45.0105C58.0647 45.1454 57.6099 45.2204 57.1201 45.2453C57.0301 45.2453 56.9402 45.2403 56.8552 45.2154C56.7652 45.1904 56.6903 45.1504 56.6203 45.0955C56.5503 45.0405 56.5003 44.9705 56.4604 44.8906C56.4204 44.8057 56.4004 44.7107 56.4004 44.6008C56.4004 44.441 56.4454 44.3061 56.5353 44.1961C56.6253 44.0862 56.7652 44.0213 56.9551 44.0013L56.9601 44.0063ZM61.4232 39.2299C61.4232 38.9901 61.4982 38.8103 61.6481 38.6853C61.798 38.5604 61.9729 38.5005 62.1679 38.5005C62.2628 38.5005 62.3578 38.5155 62.4477 38.5505C62.5377 38.5854 62.6177 38.6304 62.6826 38.6903C62.7526 38.7503 62.8076 38.8252 62.8476 38.9152C62.8875 39.0051 62.9125 39.11 62.9125 39.2299V41.1285H63.1624C63.2774 41.1285 63.3723 41.1485 63.4473 41.1884C63.5223 41.2284 63.5822 41.2784 63.6272 41.3433C63.6722 41.4083 63.7072 41.4782 63.7272 41.5532C63.7472 41.6331 63.7572 41.708 63.7572 41.783C63.7572 41.8579 63.7472 41.9329 63.7272 42.0128C63.7072 42.0927 63.6722 42.1627 63.6272 42.2226C63.5822 42.2876 63.5223 42.3376 63.4423 42.3775C63.3623 42.4175 63.2724 42.4375 63.1624 42.4375H62.9125V45.5551H61.4232V39.2349V39.2299Z" fill="#150F14"/>
<path d="M70.1946 44.1365C70.3095 44.1365 70.4095 44.1565 70.4895 44.1914C70.5744 44.2314 70.6394 44.2764 70.6944 44.3363C70.7493 44.3963 70.7843 44.4662 70.8093 44.5412C70.8293 44.6211 70.8443 44.6961 70.8443 44.771C70.8443 44.8509 70.8343 44.9309 70.8093 45.0058C70.7843 45.0808 70.7443 45.1507 70.6944 45.2107C70.6394 45.2706 70.5744 45.3206 70.4945 45.3556C70.4145 45.3905 70.3145 45.4105 70.1996 45.4105H64.4621C64.3471 45.4105 64.2472 45.3905 64.1672 45.3556C64.0873 45.3206 64.0223 45.2706 63.9673 45.2107C63.9123 45.1507 63.8774 45.0808 63.8524 45.0058C63.8274 44.9309 63.8174 44.8509 63.8174 44.771C63.8174 44.6961 63.8274 44.6211 63.8524 44.5412C63.8724 44.4612 63.9123 44.3963 63.9673 44.3363C64.0223 44.2764 64.0873 44.2264 64.1722 44.1914C64.2572 44.1515 64.3521 44.1365 64.4671 44.1365H70.2046H70.1946ZM69.7498 38.7456C69.8547 38.7456 69.9447 38.7656 70.0197 38.8056C70.0946 38.8455 70.1546 38.8955 70.1996 38.9554C70.2446 39.0154 70.2795 39.0853 70.2995 39.1603C70.3195 39.2352 70.3295 39.3102 70.3295 39.3801C70.3295 39.4501 70.3195 39.525 70.2995 39.6C70.2795 39.6749 70.2446 39.7448 70.1996 39.8048C70.1496 39.8647 70.0896 39.9147 70.0197 39.9497C69.9497 39.9847 69.8597 40.0046 69.7548 40.0046H65.9564C65.8765 40.0046 65.8215 40.0196 65.7915 40.0446C65.7615 40.0746 65.7465 40.1246 65.7465 40.2045V41.3586C65.7465 41.4385 65.7615 41.4935 65.7915 41.5235C65.8215 41.5535 65.8765 41.5684 65.9564 41.5684H69.8797C69.9847 41.5684 70.0746 41.5884 70.1496 41.6284C70.2246 41.6684 70.2845 41.7183 70.3295 41.7783C70.3745 41.8382 70.4095 41.9032 70.4295 41.9781C70.4495 42.0531 70.4645 42.123 70.4645 42.193C70.4645 42.2629 70.4545 42.3379 70.4295 42.4128C70.4045 42.4877 70.3695 42.5577 70.3245 42.6176C70.2746 42.6776 70.2146 42.7276 70.1446 42.7675C70.0696 42.8075 69.9847 42.8275 69.8797 42.8275H65.4267C65.2018 42.8275 65.0119 42.8075 64.8569 42.7625C64.702 42.7226 64.577 42.6526 64.4871 42.5577C64.3921 42.4628 64.3272 42.3379 64.2822 42.188C64.2372 42.0381 64.2172 41.8532 64.2172 41.6334V39.9347C64.2172 39.7199 64.2372 39.535 64.2822 39.3851C64.3222 39.2352 64.3921 39.1103 64.4871 39.0154C64.582 38.9205 64.702 38.8505 64.8569 38.8106C65.0119 38.7706 65.2018 38.7456 65.4267 38.7456H69.7598H69.7498Z" fill="#150F14"/>
<path d="M113.95 67.9529C113.95 70.1562 112.17 71.9499 109.976 71.9499H4.03283C1.83879 71.9499 0.0595703 70.1612 0.0595703 67.9529V4.04675C0.0595703 1.83844 1.83879 0.0498047 4.03283 0.0498047H109.976C112.17 0.0498047 113.95 1.83844 113.95 4.04675V67.9529Z" stroke="#919396" stroke-width="0.2"/>
</g>
<defs>
<clipPath id="clip0_6554_65497">
<rect width="114" height="72" fill="white"/>
</clipPath>
</defs>
</svg>
