<svg width="114" height="72" viewBox="0 0 114 72" fill="none" xmlns="http://www.w3.org/2000/svg">
<g clip-path="url(#clip0_6554_61526)">
<path d="M114 66.6C114 69.58 111.45 72 108.3 72H5.7C2.55 72 0 69.58 0 66.6V5.4C0 2.42 2.55 0 5.7 0H108.3C111.45 0 114 2.42 114 5.4V66.6Z" fill="#A3D7D6"/>
<path d="M101.49 4.70508H100.975V6.04508H98.8649V4.70508H98.3499C98.2299 4.70508 98.1299 4.82508 98.1299 4.97008V7.80508C98.1299 7.95008 98.2299 8.07008 98.3499 8.07008H98.8649V6.63008H100.975V8.07008H101.49C101.61 8.07008 101.71 7.95008 101.71 7.80508V4.97008C101.71 4.82508 101.61 4.70508 101.49 4.70508Z" fill="white"/>
<path d="M97.27 4.70508H96.755V7.28008L95.205 5.22508C94.95 4.92508 94.77 4.70508 94.36 4.70508H93.835V7.80008C93.835 7.94508 93.935 8.06508 94.055 8.06508H94.57V5.48008L96.13 7.52508C96.395 7.83008 96.63 8.07008 97.01 8.07008H97.49V4.97508C97.49 4.83008 97.39 4.71008 97.27 4.71008V4.70508Z" fill="white"/>
<path d="M103.48 7.62498H102.885C102.805 7.62498 102.74 7.55498 102.74 7.47998V5.74998C102.74 5.66998 102.805 5.60498 102.885 5.60498H103.48C103.915 5.60498 104.21 5.73498 104.21 6.11498C104.21 6.33998 104.08 6.49998 103.89 6.58998C104.075 6.64498 104.27 6.81498 104.27 7.06998C104.27 7.50498 103.93 7.63498 103.485 7.63498L103.48 7.62498ZM103.42 5.88998H103.13V6.44498H103.42C103.66 6.44498 103.83 6.37998 103.83 6.16998C103.83 5.95998 103.66 5.88998 103.42 5.88998ZM103.435 6.72998H103.13V7.33498H103.435C103.675 7.33498 103.87 7.25998 103.87 7.02998C103.87 6.79998 103.67 6.72998 103.435 6.72998Z" fill="white"/>
<path d="M105.665 7.62484H104.965C104.605 7.62484 104.41 7.44484 104.41 7.16484C104.41 6.79484 104.785 6.60984 105.42 6.66984C105.405 6.48984 105.315 6.37484 105.125 6.37484C104.92 6.37484 104.73 6.43484 104.585 6.52484V6.21484C104.73 6.13984 104.975 6.08984 105.155 6.08984C105.56 6.08984 105.81 6.28984 105.81 6.70984V7.47484C105.81 7.55484 105.745 7.61984 105.665 7.61984V7.62484ZM104.805 7.16484C104.805 7.28984 104.94 7.33984 105.06 7.33984H105.42V6.92984C105.06 6.90484 104.8 6.93484 104.8 7.16484H104.805Z" fill="white"/>
<path d="M107.37 7.62477H107.12V6.74477C107.12 6.57977 107.04 6.42477 106.87 6.42477H106.475V7.62977H106.225C106.145 7.62977 106.08 7.55977 106.08 7.48477V6.13477H107C107.295 6.13477 107.51 6.36477 107.51 6.66477V7.48477C107.51 7.56477 107.445 7.62977 107.365 7.62977L107.37 7.62477Z" fill="white"/>
<path d="M107.955 7.62514C107.875 7.62514 107.81 7.55514 107.81 7.48014V5.66014C107.81 5.58014 107.875 5.51514 107.955 5.51514H108.205V6.72514L108.71 6.22014C108.775 6.15014 108.845 6.13014 108.935 6.13014H109.27L108.58 6.80514L109.325 7.62514H108.96C108.88 7.62514 108.825 7.60014 108.77 7.53514L108.2 6.89514V7.62514H107.95H107.955Z" fill="white"/>
<path d="M10.0701 4.505H11.1151V11.16C11.1151 11.325 11.0701 11.455 10.9801 11.55C10.8901 11.645 10.7601 11.695 10.5951 11.695H10.0701V7.315H8.82012C8.78012 7.57 8.70012 7.8 8.58012 8.005C8.46012 8.21 8.31012 8.385 8.13512 8.525C7.96012 8.67 7.76012 8.785 7.54012 8.86C7.32012 8.935 7.09512 8.975 6.85512 8.975C6.59012 8.975 6.34012 8.93 6.10012 8.835C5.86012 8.74 5.65012 8.61 5.46012 8.44C5.28012 8.265 5.13512 8.055 5.03012 7.815C4.92512 7.57 4.87012 7.3 4.87012 6.995C4.87012 6.69 4.92512 6.425 5.03012 6.18C5.13512 5.935 5.28012 5.73 5.46012 5.555C5.64512 5.385 5.86012 5.255 6.10012 5.155C6.34012 5.06 6.59012 5.01 6.85512 5.01C7.08512 5.01 7.31012 5.05 7.52012 5.125C7.73512 5.2 7.93012 5.305 8.10512 5.44C8.28012 5.575 8.43012 5.74 8.55012 5.94C8.67012 6.14 8.75512 6.36 8.80512 6.6H10.0651V4.5L10.0701 4.505ZM5.84012 6.985C5.84012 7.365 5.94012 7.665 6.14512 7.895C6.35012 8.125 6.58512 8.24 6.86012 8.24C7.13512 8.24 7.36512 8.125 7.57012 7.895C7.77512 7.665 7.87512 7.365 7.87512 6.985C7.87512 6.605 7.77512 6.31 7.57012 6.08C7.36512 5.85 7.13012 5.735 6.86012 5.735C6.59012 5.735 6.34512 5.85 6.14512 6.08C5.94012 6.31 5.84012 6.615 5.84012 6.985Z" fill="white"/>
<path d="M18.7952 9.93976V10.2798C18.7952 10.4048 18.7602 10.4948 18.6902 10.5598C18.6202 10.6198 18.5402 10.6548 18.4602 10.6548H12.1152V9.94477H18.8002L18.7952 9.93976ZM17.2152 4.75977C17.3752 4.75977 17.5002 4.80977 17.5952 4.91477C17.6902 5.01477 17.7352 5.14477 17.7352 5.29477V6.47977C17.7352 6.67977 17.6752 6.84477 17.5602 6.97977C17.4452 7.11477 17.2752 7.18477 17.0502 7.18477H14.0352V7.85477C14.0352 7.93977 14.0552 8.00477 14.0952 8.04477C14.1352 8.08977 14.1902 8.10977 14.2702 8.10977H17.8202V8.56476C17.8202 8.64476 17.7902 8.70977 17.7302 8.76977C17.6702 8.82477 17.6052 8.85476 17.5402 8.85476H13.8052C13.5852 8.85476 13.4052 8.77977 13.2602 8.62977C13.1152 8.47977 13.0402 8.27477 13.0402 8.00977V6.45977H16.5552C16.6152 6.45977 16.6652 6.44477 16.7002 6.40977C16.7352 6.37477 16.7552 6.32977 16.7552 6.26477V5.50477H13.1252V4.76977H17.2252L17.2152 4.75977Z" fill="white"/>
<path d="M22.0799 5.10977V5.74477C22.0799 6.07977 22.1299 6.36977 22.2299 6.61977C22.3299 6.86977 22.4599 7.08977 22.6149 7.27477C22.7749 7.45977 22.9499 7.61977 23.1499 7.74477C23.3449 7.86977 23.5449 7.96977 23.7399 8.04477L23.1499 8.63977C22.9349 8.56977 22.6799 8.44477 22.3899 8.25977C22.0949 8.07477 21.8199 7.79477 21.5549 7.41977C21.2899 7.79477 21.0099 8.06977 20.7149 8.25977C20.4199 8.44477 20.1699 8.57477 19.9749 8.63977L19.3799 8.04477C19.5649 7.96977 19.7549 7.87477 19.9499 7.74977C20.1449 7.62477 20.3249 7.46977 20.4899 7.28477C20.6499 7.09977 20.7799 6.87977 20.8799 6.62477C20.9799 6.36977 21.0299 6.07477 21.0299 5.74477V4.67977H21.6449C21.7899 4.67977 21.8949 4.71977 21.9649 4.79477C22.0349 4.86977 22.0699 4.97477 22.0699 5.11477L22.0799 5.10977ZM21.8999 11.8648C21.6699 11.8648 21.4849 11.7948 21.3449 11.6498C21.2049 11.5048 21.1349 11.2998 21.1349 11.0348V9.35977H22.1799V10.8648C22.1799 10.9698 22.1999 11.0448 22.2399 11.0898C22.2799 11.1298 22.3349 11.1548 22.3999 11.1548H25.8899V11.4948C25.8899 11.6198 25.8549 11.7098 25.7849 11.7748C25.7149 11.8348 25.6349 11.8698 25.5549 11.8698H21.8999V11.8648ZM24.6799 4.50977H25.7249V9.50477C25.7249 9.66977 25.6799 9.79977 25.5899 9.89477C25.4999 9.98977 25.3699 10.0398 25.2049 10.0398H24.6799V4.50977Z" fill="white"/>
<path d="M26.8496 6.99488C26.8496 6.69488 26.9046 6.42488 27.0196 6.17988C27.1296 5.93488 27.2796 5.72988 27.4696 5.55488C27.6546 5.38488 27.8696 5.25488 28.1146 5.15488C28.3596 5.05988 28.6146 5.00988 28.8746 5.00988C29.1346 5.00988 29.3846 5.05988 29.6296 5.15488C29.8746 5.24988 30.0896 5.38488 30.2746 5.55488C30.4596 5.72988 30.6096 5.93988 30.7296 6.17988C30.8446 6.42488 30.9046 6.69488 30.9046 6.99488C30.9046 7.29488 30.8446 7.57488 30.7296 7.81488C30.6146 8.05488 30.4646 8.26488 30.2746 8.43988C30.0896 8.60988 29.8746 8.73988 29.6296 8.83488C29.3846 8.92988 29.1346 8.97488 28.8746 8.97488C28.6146 8.97488 28.3596 8.92988 28.1146 8.83488C27.8696 8.73988 27.6546 8.60988 27.4696 8.43988C27.2846 8.26488 27.1346 8.05488 27.0196 7.81488C26.9046 7.56988 26.8496 7.29988 26.8496 6.99488ZM27.8146 6.98488C27.8146 7.17488 27.8446 7.34988 27.8996 7.49988C27.9596 7.64988 28.0346 7.78488 28.1346 7.89988C28.2346 8.00488 28.3496 8.08988 28.4746 8.14988C28.6046 8.20988 28.7346 8.23988 28.8746 8.23988C29.0146 8.23988 29.1346 8.20988 29.2596 8.14988C29.3846 8.08988 29.4996 8.00988 29.5946 7.89988C29.6946 7.78488 29.7746 7.65488 29.8346 7.49988C29.8946 7.34488 29.9246 7.17488 29.9246 6.98488C29.9246 6.79488 29.8946 6.62988 29.8346 6.47488C29.7746 6.32488 29.6946 6.18988 29.5946 6.07488C29.4946 5.96988 29.3846 5.88488 29.2596 5.81988C29.1346 5.75988 29.0046 5.72488 28.8746 5.72488C28.7446 5.72488 28.6046 5.75488 28.4746 5.81988C28.3446 5.87988 28.2296 5.96488 28.1346 6.07488C28.0346 6.18988 27.9596 6.31988 27.8996 6.47488C27.8396 6.62488 27.8146 6.79488 27.8146 6.98488ZM32.0446 4.50488H33.0896V11.1599C33.0896 11.3249 33.0446 11.4549 32.9546 11.5499C32.8646 11.6449 32.7346 11.6949 32.5696 11.6949H32.0446V4.50488Z" fill="white"/>
<path d="M36.5848 7.64002C36.5848 8.12502 36.2048 8.51002 35.7348 8.51002C35.2648 8.51002 34.8848 8.12002 34.8848 7.64002C34.8848 7.16002 35.2648 6.77002 35.7348 6.77002C36.2048 6.77002 36.5848 7.17502 36.5848 7.64002Z" fill="white"/>
<path d="M41.9051 7.71477C41.9051 8.24477 41.7801 8.67477 41.5351 8.99477C41.2901 9.31977 40.9501 9.47976 40.5251 9.47976H38.8851C38.6551 9.47976 38.4701 9.40977 38.3301 9.26477C38.1901 9.11977 38.1201 8.91477 38.1201 8.64977V4.83977H41.3901C41.5501 4.83977 41.6751 4.88977 41.7701 4.98977C41.8651 5.08977 41.9101 5.21977 41.9101 5.36977V7.70477L41.9051 7.71477ZM40.3001 8.77477C40.4651 8.77477 40.6001 8.72477 40.7051 8.61977C40.8101 8.51977 40.8651 8.34977 40.8651 8.10977V5.55977H39.1601V8.47976C39.1601 8.58476 39.1801 8.65977 39.2201 8.70477C39.2601 8.74977 39.3151 8.76977 39.3801 8.76977H40.2951L40.3001 8.77477ZM43.1551 4.50977H44.2001V11.1648C44.2001 11.3298 44.1551 11.4598 44.0651 11.5548C43.9751 11.6498 43.8451 11.6998 43.6801 11.6998H43.1551V4.50977Z" fill="white"/>
<path d="M52.0052 8.05477V8.39477C52.0052 8.51977 51.9702 8.60977 51.9002 8.67477C51.8302 8.73477 51.7502 8.76977 51.6702 8.76977H45.3252V8.05977H46.8402V7.28977H47.5252C47.2452 7.15477 47.0252 6.96977 46.8602 6.72977C46.6952 6.49477 46.6152 6.21977 46.6152 5.91477C46.6152 5.67977 46.6702 5.45477 46.7802 5.25477C46.8902 5.04977 47.0402 4.87477 47.2252 4.72977C47.4152 4.58477 47.6402 4.46977 47.8902 4.38477C48.1402 4.29977 48.4152 4.25977 48.7052 4.25977C48.9952 4.25977 49.2602 4.29977 49.5152 4.38477C49.7702 4.46977 49.9902 4.58477 50.1802 4.72977C50.3652 4.87477 50.5152 5.04977 50.6252 5.25477C50.7352 5.45977 50.7902 5.67977 50.7902 5.91477C50.7902 6.21977 50.7102 6.48977 50.5452 6.72977C50.3802 6.96477 50.1602 7.15477 49.8852 7.28977H50.4352V8.05977H52.0152L52.0052 8.05477ZM46.6452 10.5698C46.6452 10.3348 46.6952 10.1148 46.8002 9.91977C46.9052 9.72477 47.0502 9.55977 47.2352 9.42477C47.4152 9.28977 47.6302 9.18477 47.8802 9.10977C48.1302 9.03477 48.4002 8.99477 48.6902 8.99477C48.9802 8.99477 49.2452 9.03477 49.4952 9.10977C49.7452 9.18477 49.9602 9.28977 50.1402 9.42477C50.3252 9.55977 50.4702 9.72477 50.5752 9.91977C50.6802 10.1148 50.7302 10.3298 50.7302 10.5698C50.7302 10.8098 50.6802 11.0398 50.5752 11.2298C50.4702 11.4198 50.3252 11.5848 50.1402 11.7148C49.9602 11.8498 49.7452 11.9498 49.4952 12.0198C49.2452 12.0898 48.9802 12.1198 48.6902 12.1198C48.4002 12.1198 48.1302 12.0848 47.8802 12.0198C47.6302 11.9548 47.4152 11.8498 47.2352 11.7148C47.0502 11.5848 46.9052 11.4248 46.8002 11.2298C46.6952 11.0398 46.6452 10.8198 46.6452 10.5698ZM47.5402 5.91477C47.5402 6.20477 47.6552 6.42977 47.8902 6.58977C48.1252 6.75477 48.3902 6.83477 48.6952 6.83477C49.0002 6.83477 49.2552 6.75477 49.4952 6.58977C49.7302 6.42477 49.8502 6.19977 49.8502 5.91477C49.8502 5.62977 49.7302 5.39977 49.4952 5.23477C49.2602 5.06977 48.9952 4.98477 48.6952 4.98477C48.3952 4.98477 48.1252 5.06977 47.8902 5.23477C47.6552 5.39977 47.5402 5.62977 47.5402 5.91477ZM47.5802 10.5698C47.5802 10.8598 47.6902 11.0698 47.9102 11.2048C48.1302 11.3398 48.3902 11.4098 48.6902 11.4098C48.9902 11.4098 49.2452 11.3448 49.4702 11.2048C49.6902 11.0698 49.8052 10.8598 49.8052 10.5698C49.8052 10.2798 49.6952 10.0698 49.4702 9.92977C49.2502 9.78977 48.9902 9.71977 48.6902 9.71977C48.3902 9.71977 48.1252 9.78977 47.9102 9.92977C47.6902 10.0698 47.5802 10.2798 47.5802 10.5698ZM47.8702 8.05477H49.3852V7.45977C49.2752 7.49477 49.1602 7.51477 49.0452 7.52977C48.9252 7.53977 48.8102 7.54477 48.6952 7.54477C48.5452 7.54477 48.4052 7.53477 48.2652 7.51477C48.1252 7.49477 47.9952 7.46477 47.8702 7.42477V8.04977V8.05477Z" fill="white"/>
<path d="M55.1248 9.48488C55.3548 9.43488 55.5948 9.34988 55.8498 9.22488C56.0998 9.10488 56.3398 8.95488 56.5648 8.77988C56.7848 8.60988 56.9798 8.41488 57.1448 8.18988C57.3098 7.96488 57.4298 7.72488 57.4948 7.46488H55.0498V6.74488H57.5448V6.14988C57.5448 5.91988 57.4948 5.74488 57.3898 5.63488C57.2848 5.51988 57.1298 5.46488 56.9198 5.46488H55.2148V4.75488H57.1898C57.6648 4.75488 58.0248 4.86488 58.2648 5.07988C58.5048 5.29488 58.6248 5.62488 58.6248 6.06488V6.90488C58.6248 7.30488 58.5398 7.67488 58.3648 8.01488C58.1898 8.35488 57.9648 8.65488 57.6848 8.91988C57.4098 9.17988 57.0998 9.39988 56.7498 9.58488C56.3998 9.76988 56.0548 9.90488 55.7098 9.98488L55.1248 9.47488V9.48488ZM59.7848 4.50488H60.8298V6.77488H62.0048V7.48488H60.8298V11.1599C60.8298 11.3249 60.7848 11.4549 60.6948 11.5499C60.6048 11.6449 60.4748 11.6949 60.3098 11.6949H59.7848V4.50488Z" fill="white"/>
<path d="M69.0052 9.84977V10.1898C69.0052 10.3148 68.9702 10.4048 68.9002 10.4698C68.8302 10.5298 68.7502 10.5648 68.6702 10.5648H62.3252V9.85476H69.0102L69.0052 9.84977ZM64.4802 7.77477H68.0052V8.17477C68.0052 8.27477 67.9752 8.35477 67.9152 8.40977C67.8552 8.46477 67.7752 8.49477 67.6752 8.49477H63.9202C63.6952 8.49477 63.5152 8.41977 63.3702 8.27477C63.2302 8.12977 63.1602 7.91977 63.1602 7.65477V5.58977C63.1602 5.33477 63.2302 5.13477 63.3702 4.98477C63.5102 4.83477 63.6902 4.75977 63.9202 4.75977H67.9102V5.14977C67.9102 5.25477 67.8802 5.33977 67.8202 5.39477C67.7602 5.44977 67.6802 5.47977 67.5802 5.47977H64.5002C64.4102 5.47977 64.3402 5.50977 64.2802 5.56477C64.2202 5.61977 64.1952 5.70477 64.1952 5.81977V7.46977C64.1952 7.58977 64.2202 7.66977 64.2702 7.70977C64.3202 7.74977 64.3902 7.77477 64.4752 7.77477H64.4802Z" fill="white"/>
<path d="M18.2851 61.9502H17.6301C17.1101 61.9502 17.0801 62.3752 17.0801 62.5252C17.0801 62.6002 17.0801 67.2052 17.0801 67.2052H18.2851V64.5652H19.0901V64.1202H18.2851V61.9502Z" fill="black"/>
<path d="M14.2049 63.3301C13.1299 63.3301 12.2549 64.1251 12.2549 65.1051C12.2549 66.0851 13.1299 66.8801 14.2049 66.8801C15.2799 66.8801 16.1549 66.0851 16.1549 65.1051C16.1549 64.1251 15.2799 63.3301 14.2049 63.3301ZM14.2049 66.4701C13.7199 66.4701 13.3249 65.8601 13.3249 65.1051C13.3249 64.3501 13.7199 63.7401 14.2049 63.7401C14.6899 63.7401 15.0849 64.3501 15.0849 65.1051C15.0849 65.8601 14.6899 66.4701 14.2049 66.4701Z" fill="black"/>
<path d="M14.8247 61.9502H13.6147L13.6197 62.5552H12.0547V63.0152H16.3747V62.5552H14.8247V61.9502Z" fill="black"/>
<path d="M24.1151 64.5652V64.1202H21.5401V61.9502H20.3301V63.8852V63.9352C20.3301 64.0402 20.3851 64.5602 21.1851 64.5602H24.1151V64.5652Z" fill="black"/>
<path d="M33.9297 61.9502H32.7197V67.2002H33.9297V61.9502Z" fill="black"/>
<path d="M30.595 65.3002C30.26 64.7152 30.295 63.3602 30.295 63.3602V61.9502H29.085V63.3602C29.085 63.3602 29.12 64.7152 28.785 65.3002C28.55 65.7552 27.915 66.3802 27.46 66.5102V67.1302C27.46 67.1302 28.225 67.2052 28.965 66.6352C29.4 66.2852 29.665 65.7052 29.69 65.6702C29.71 65.7052 29.98 66.2852 30.415 66.6352C31.16 67.2002 31.92 67.1302 31.92 67.1302V66.5102C31.465 66.3802 30.83 65.7602 30.595 65.3002Z" fill="black"/>
<path d="M26.0546 62.4002V61.9502H25.4646C25.2096 61.9502 24.8496 62.2402 24.8496 62.7052C24.8496 63.0152 24.8496 63.9702 24.8496 64.5652H26.8696V64.1152H26.0596V62.4002H26.0546Z" fill="black"/>
<path d="M20.6602 66.5402C20.6602 66.8152 20.9102 67.2002 21.2252 67.2002H26.0552V65.0552H20.6602V66.5402ZM21.8702 65.4952H24.8452V66.7552H21.8702V65.4952Z" fill="black"/>
<path d="M8.46475 61.1002C8.10975 61.6302 7.56475 61.8602 7.23975 61.6152C6.91975 61.3702 6.94475 60.7402 7.29975 60.2102C7.65475 59.6802 8.19975 59.4502 8.52475 59.6952C8.84475 59.9402 8.81975 60.5702 8.46475 61.1002Z" fill="#FF6B00"/>
<path d="M5.45996 62.2452C5.48496 62.2352 5.51496 62.2252 5.53996 62.2152C5.59496 62.1952 5.65496 62.1702 5.70996 62.1552C5.89496 62.0952 6.07996 62.0452 6.26996 62.0152C6.39996 61.9952 6.52496 61.9802 6.65496 61.9802C6.80996 61.9652 7.11996 61.9902 7.14996 62.0002C7.01496 61.7752 6.74996 61.6102 6.65996 61.5752C6.43996 61.4802 6.16996 61.4752 5.95496 61.5902C5.76496 61.6952 5.65996 61.8152 5.61496 61.8652C5.45996 62.0102 5.33996 62.2752 5.33496 62.2952C5.37496 62.2752 5.41996 62.2602 5.46496 62.2452H5.45996Z" fill="#00AE42"/>
<path d="M7.71975 62.0999C7.79975 62.1199 7.87975 62.1449 7.95975 62.1699C8.11475 62.2199 8.27475 62.2899 8.41475 62.3799C8.52975 62.4549 8.63475 62.5549 8.73975 62.6499C8.83975 62.7449 8.93475 62.8449 9.00975 62.9599C9.09975 63.0999 9.17975 63.2549 9.23475 63.4149C9.27475 63.5249 9.29975 63.6399 9.31975 63.7549C9.34975 63.9649 9.33975 64.1899 9.28975 64.3999C9.17475 64.9099 8.85475 65.3649 8.41975 65.6049C7.88975 65.9049 7.25475 66.0549 6.67475 65.8449C6.53975 65.7949 6.39975 65.7399 6.28475 65.6499C6.19475 65.5799 6.11475 65.4949 6.04475 65.4049C6.02975 65.3849 6.01475 65.3649 5.99475 65.3399C5.84475 65.1299 5.74475 64.7449 5.78975 64.4599C5.81475 64.2899 5.89475 64.0949 5.94975 63.9899C6.06475 63.7949 6.23475 63.6599 6.43475 63.5799C6.61475 63.5049 6.82475 63.4899 7.01475 63.5299C7.25475 63.5799 7.45475 63.6949 7.62475 63.8899C7.65475 63.9249 7.68475 63.9649 7.71475 64.0049C7.82975 64.1949 7.83975 64.3599 7.83975 64.4599C7.83975 64.7099 7.72975 64.8999 7.65975 65.0049C7.53975 65.1949 7.33475 65.2899 7.25475 65.3249C7.10975 65.3749 6.89975 65.4299 6.85475 65.4149C6.89975 65.4299 6.95975 65.4249 7.00475 65.4199C7.05475 65.4199 7.10475 65.4199 7.15475 65.4099C7.26475 65.3999 7.37475 65.3849 7.47975 65.3599C7.56475 65.3399 7.63475 65.3149 7.71475 65.2799C7.75475 65.2599 7.80975 65.2299 7.84975 65.2049C8.22475 64.9899 8.48475 64.6899 8.53475 64.2499C8.56475 63.9549 8.48475 63.6699 8.36975 63.4049C8.26975 63.1749 8.08975 62.9749 7.89975 62.8249C7.86975 62.7999 7.83975 62.7799 7.80975 62.7599C7.53475 62.5599 7.20475 62.4549 6.87975 62.4299C6.69475 62.4149 6.48975 62.4149 6.30475 62.4499C6.18975 62.4699 6.07475 62.5099 5.96475 62.5599C5.90475 62.5849 5.84475 62.6149 5.78975 62.6449C5.61975 62.7299 5.46975 62.8399 5.33475 62.9749C5.28975 63.0199 5.24975 63.0649 5.20975 63.1099C5.00475 63.3499 4.86975 63.6849 4.84975 63.7249C4.76475 63.9099 4.72475 64.1149 4.69975 64.3149C4.65975 64.6099 4.67975 64.8899 4.73475 65.1799C4.78475 65.4499 4.90975 65.6999 5.03975 65.9299C5.05475 65.9599 5.07475 65.9849 5.08975 66.0149C5.19475 66.1999 5.33975 66.3599 5.49475 66.4999C5.56475 66.5649 5.63475 66.6349 5.71475 66.6899C5.90475 66.8249 6.09475 66.9399 6.30475 67.0249C6.49475 67.0999 6.67975 67.1749 6.87975 67.2199C7.04475 67.2549 7.21475 67.2649 7.38475 67.2749C7.43975 67.2749 7.49475 67.2749 7.54975 67.2749C7.94475 67.2749 8.17975 67.2049 8.31475 67.1699C8.58975 67.1049 9.01475 66.8849 9.09475 66.8349C9.32975 66.6999 9.56975 66.4699 9.67475 66.3549C9.98475 66.0549 10.1797 65.6399 10.2847 65.2099C10.2997 65.1399 10.3197 65.0699 10.3297 64.9999C10.3797 64.6649 10.3297 64.2699 10.2947 64.1449C10.2497 63.8949 10.1398 63.6549 10.0198 63.4399C9.89475 63.2099 9.73975 63.0049 9.55475 62.8349C9.52475 62.8049 9.48975 62.7749 9.45975 62.7499C9.26975 62.5799 8.98975 62.4199 8.91975 62.3799C8.69475 62.2449 8.35475 62.1499 8.29975 62.1349C8.11475 62.0849 7.79475 62.0399 7.71475 62.0299C7.55975 62.0099 7.42975 62.0299 7.42975 62.0299C7.62475 62.0549 7.70975 62.0699 7.71975 62.0799V62.0999Z" fill="#0047BA"/>
<mask id="mask0_6554_61526" style="mask-type:luminance" maskUnits="userSpaceOnUse" x="0" y="0" width="114" height="72">
<path d="M114 66.6C114 69.58 111.45 72 108.3 72H5.7C2.55 72 0 69.58 0 66.6V5.4C0 2.42 2.55 0 5.7 0H108.3C111.45 0 114 2.42 114 5.4V66.6Z" fill="white"/>
</mask>
<g mask="url(#mask0_6554_61526)">
<path d="M64.2798 73.5201C64.2798 73.5201 62.9648 70.9551 63.3448 67.0801C63.3448 67.0801 60.4898 65.6201 59.3798 61.2501C59.3798 61.2501 59.0098 60.6901 57.8998 59.9501C56.7898 59.2101 56.0498 59.1151 56.4198 57.4401C56.4198 57.4401 53.1848 54.2801 54.4798 48.8851C55.7748 43.4951 61.0398 41.6351 61.5048 41.2601C61.9648 40.8901 64.6448 32.7051 64.6448 32.7051L68.8048 34.1901L73.4248 30.7501L77.4298 29.0801L84.9798 34.1901L90.0648 33.0751L91.8298 40.8301L95.5198 42.9301C95.5198 42.9301 100.215 46.4701 98.8398 51.6701C97.4598 56.8701 96.4298 57.6301 94.9598 58.4601L93.8598 59.5701L91.6398 61.1501L89.9748 65.3351L89.3298 66.3601C89.3298 66.3601 90.1598 71.0101 88.7748 73.6101L64.2848 73.5151L64.2798 73.5201Z" fill="white"/>
<path d="M95.7848 48.41C95.7848 48.41 96.3098 55.415 89.2898 55.33C81.7448 55.235 82.7048 46.945 86.3598 44.715C89.5098 42.795 95.1698 43.54 95.7898 48.41" fill="#F7C3AD"/>
<path d="M66.08 47.8649C66.16 49.2799 66.12 54.7199 60.585 54.6499C54.225 54.5699 55.23 43.3399 62.34 44.0499C62.34 44.0499 65.49 44.4299 66.08 47.8649Z" fill="#F7C3AD"/>
<path d="M89.3296 46.9651C89.3296 46.9651 89.6146 48.8801 87.5546 48.8551C85.4946 48.8301 85.7546 46.5651 86.7546 45.9551C87.6146 45.4301 89.1596 45.6351 89.3296 46.9651Z" fill="white"/>
<path d="M61.5347 46.8301C61.5347 46.8301 61.7997 48.6051 59.8897 48.5851C57.9797 48.5601 58.2197 46.4601 59.1497 45.8951C59.9447 45.4101 61.3797 45.5951 61.5397 46.8301" fill="white"/>
<path d="M76.8698 29.6199C76.8698 29.6199 76.8498 29.6199 76.8398 29.6199C76.5298 29.6049 76.2898 29.3349 76.3098 29.0249C76.6148 23.5599 77.7098 18.9349 77.7198 18.8899C77.7948 18.5849 78.0948 18.3999 78.3998 18.4699C78.6998 18.5449 78.8898 18.8499 78.8148 19.1549C78.8048 19.1999 77.7298 23.7299 77.4348 29.0849C77.4198 29.3849 77.1698 29.6199 76.8748 29.6199H76.8698Z" fill="#040000"/>
<path d="M80.1854 31.255C80.1354 31.255 80.0855 31.25 80.0355 31.235C79.7355 31.15 79.5605 30.84 79.6405 30.54C80.5655 27.15 82.2855 25.86 82.3605 25.81C82.6105 25.625 82.9654 25.68 83.1454 25.935C83.3254 26.185 83.2705 26.54 83.0255 26.725C82.9955 26.745 81.5355 27.88 80.7305 30.84C80.6605 31.09 80.4355 31.255 80.1905 31.255H80.1854Z" fill="#040000"/>
<path d="M76.2147 24.0303C76.0547 24.0303 75.8897 24.0003 75.7247 23.9403C75.4197 23.8303 75.1997 23.6153 75.0847 23.3203C74.9347 22.9303 74.9847 22.4103 75.2347 21.7703C74.4947 21.7703 73.9597 21.5853 73.6497 21.2353C73.4897 21.0553 73.3147 20.7403 73.3697 20.2653C73.4147 19.9103 73.6597 19.0853 75.0297 19.0853C75.2747 19.0853 75.5247 19.1103 75.7447 19.1453C75.7697 18.2653 75.9497 17.3903 77.4197 17.2853C77.4697 17.2853 77.5147 17.2803 77.5597 17.2803C78.1347 17.2803 78.4447 17.5503 78.6047 17.7803C78.9097 18.2103 78.8997 18.8153 78.7847 19.3903C79.0097 19.3553 79.2547 19.3353 79.4797 19.3353C79.9847 19.3353 80.3347 19.4503 80.5597 19.6953C80.7247 19.8753 80.8097 20.1103 80.7947 20.3653C80.7747 20.6503 80.6247 21.2603 79.6947 21.5753C79.8147 21.8403 79.8597 22.1253 79.8197 22.4153C79.7497 22.9603 79.3947 23.4353 78.8747 23.6903C78.7597 23.7453 78.6347 23.7753 78.5097 23.7753C78.0797 23.7753 77.7847 23.4703 77.5547 23.0603C77.2547 23.6803 76.7897 24.0353 76.2197 24.0353" fill="#B7E1F8"/>
<path d="M77.5547 17.8451C78.6747 17.8451 78.2347 19.3801 78.0397 19.9401C78.0147 20.0151 78.0697 20.0901 78.1447 20.0901C78.1547 20.0901 78.1647 20.0901 78.1697 20.0901C78.4597 20.0201 79.0147 19.9051 79.4747 19.9051C79.9047 19.9051 80.2497 20.0051 80.2297 20.3351C80.1897 20.9401 79.3497 21.1201 78.8947 21.1701C78.7997 21.1801 78.7597 21.3001 78.8347 21.3651C79.5647 22.0001 79.2897 22.8601 78.6247 23.1851C78.5847 23.2051 78.5447 23.2151 78.5047 23.2151C77.9497 23.2151 77.5647 21.3251 77.4147 21.3251C77.3847 21.3251 77.3647 21.3901 77.3547 21.5401C77.2847 22.4551 76.9297 23.4751 76.2197 23.4751C76.1247 23.4751 76.0247 23.4551 75.9147 23.4201C75.1797 23.1551 75.7997 21.8351 76.0697 21.3301C76.1097 21.2551 76.0547 21.1651 75.9747 21.1651C75.9747 21.1651 75.9647 21.1651 75.9597 21.1651C75.7897 21.1901 75.5347 21.2151 75.2647 21.2151C74.6047 21.2151 73.8447 21.0601 73.9347 20.3401C73.9997 19.8051 74.5047 19.6601 75.0347 19.6601C75.4797 19.6601 75.9447 19.7651 76.1697 19.8201C76.1797 19.8201 76.1897 19.8201 76.1947 19.8201C76.2547 19.8201 76.3047 19.7701 76.3047 19.7101C76.3147 18.5751 76.2347 17.9451 77.4647 17.8551C77.4997 17.8551 77.5297 17.8551 77.5597 17.8551M77.5597 16.7251C77.5047 16.7251 77.4447 16.7251 77.3797 16.7301C75.8297 16.8401 75.3697 17.6951 75.2347 18.5351C75.1647 18.5351 75.0997 18.5351 75.0297 18.5351C73.5447 18.5351 72.9097 19.4001 72.8147 20.2101C72.7497 20.7451 72.8997 21.2451 73.2297 21.6251C73.5297 21.9651 73.9547 22.1851 74.4997 22.2901C74.3547 22.9951 74.4997 23.3751 74.5647 23.5401C74.7347 23.9901 75.0847 24.3301 75.5397 24.4901C75.7647 24.5701 75.9947 24.6101 76.2197 24.6101C76.7547 24.6101 77.2247 24.4001 77.5897 24.0151C77.8347 24.2201 78.1347 24.3551 78.5047 24.3551C78.7147 24.3551 78.9197 24.3051 79.1147 24.2101C79.8097 23.8701 80.2797 23.2301 80.3747 22.5001C80.3997 22.3001 80.3997 22.1051 80.3697 21.9101C81.1847 21.4551 81.3347 20.7651 81.3547 20.4151C81.3797 20.0051 81.2447 19.6151 80.9697 19.3201C80.6297 18.9601 80.1447 18.7801 79.4747 18.7801C79.4547 18.7801 79.4397 18.7801 79.4197 18.7801C79.4297 18.2601 79.3097 17.8201 79.0597 17.4651C78.7247 16.9901 78.1897 16.7251 77.5547 16.7251" fill="#040000"/>
<path d="M82.6754 29.7549C82.2354 29.7549 81.8654 29.5799 81.6104 29.2499C81.4054 28.9899 81.3004 28.6649 81.2604 28.3349C80.9804 28.5949 80.7004 28.7549 80.3904 28.7549C80.1704 28.7549 79.9704 28.6699 79.8104 28.5149C79.4154 28.1299 79.2254 27.5949 79.3004 27.0799C79.3454 26.7649 79.4804 26.4849 79.6954 26.2499C78.9354 25.6849 78.9404 25.0899 79.0254 24.7549C79.1354 24.3349 79.4904 24.0749 79.9554 24.0749C80.2904 24.0749 80.7204 24.2049 81.2404 24.4699C81.4204 22.9549 82.2304 22.7749 82.6004 22.7749C82.7904 22.7749 82.9854 22.8199 83.1904 22.9049C84.5454 23.4699 84.4554 24.3449 84.2054 25.1799C84.8054 25.2649 85.4604 25.4699 85.8354 25.9299C86.0754 26.2249 86.1654 26.5899 86.1054 26.9849C86.0054 27.6399 85.5254 28.0299 84.8254 28.0299C84.5104 28.0299 84.1704 27.9499 83.8604 27.8499C83.8954 28.5449 83.7804 29.0599 83.5104 29.3799C83.3104 29.6199 83.0354 29.7499 82.7204 29.7599H82.6804L82.6754 29.7549Z" fill="#B7E1F8"/>
<path d="M82.5952 23.3402C82.7052 23.3402 82.8302 23.3652 82.9702 23.4252C84.0702 23.8802 83.8552 24.4352 83.5252 25.4452C83.4852 25.5652 83.5702 25.6952 83.6952 25.7002C84.2852 25.7352 85.6952 25.9152 85.5402 26.9002C85.4752 27.3252 85.1802 27.4652 84.8152 27.4652C84.3752 27.4652 83.8402 27.2602 83.4952 27.1052C83.4702 27.0952 83.4402 27.0852 83.4152 27.0852C83.3052 27.0852 83.2052 27.1852 83.2252 27.3052C83.3202 27.9402 83.4152 29.1752 82.6952 29.1902C82.6852 29.1902 82.6802 29.1902 82.6702 29.1902C81.7202 29.1902 81.6702 27.9552 81.9152 26.9552C81.9552 26.7952 81.9502 26.7302 81.9152 26.7302C81.7602 26.7302 80.9052 28.1952 80.3752 28.1952C80.3052 28.1952 80.2452 28.1702 80.1902 28.1152C79.6902 27.6252 79.6702 26.7952 80.4202 26.3902C80.5552 26.3202 80.5552 26.1202 80.4202 26.0502C79.9952 25.8302 79.4202 25.4252 79.5552 24.9052C79.6052 24.7202 79.7502 24.6452 79.9402 24.6452C80.3802 24.6452 81.0652 25.0152 81.4602 25.2502C81.4902 25.2702 81.5252 25.2802 81.5602 25.2802C81.6602 25.2802 81.7502 25.2002 81.7502 25.0902C81.7502 24.4952 81.8552 23.3502 82.5802 23.3502M82.5802 22.2202C82.2202 22.2202 81.2302 22.3452 80.8102 23.6902C80.3302 23.5202 80.0602 23.5202 79.9352 23.5202C79.2152 23.5202 78.6352 23.9552 78.4602 24.6252C78.3752 24.9552 78.3002 25.6652 78.9302 26.3552C78.8252 26.5602 78.7552 26.7802 78.7202 27.0152C78.6252 27.7052 78.8752 28.4252 79.3952 28.9352C79.6602 29.1952 80.0052 29.3352 80.3652 29.3352C80.5602 29.3352 80.7402 29.2952 80.9102 29.2302C80.9752 29.3652 81.0502 29.4902 81.1452 29.6152C81.5052 30.0802 82.0402 30.3352 82.6502 30.3352H82.7002C83.1752 30.3252 83.6052 30.1202 83.9102 29.7552C84.1602 29.4552 84.3152 29.0652 84.3702 28.5752C84.5152 28.5952 84.6602 28.6052 84.7952 28.6052C85.7702 28.6052 86.4902 28.0102 86.6302 27.0852C86.7152 26.5402 86.5752 26.0052 86.2402 25.5902C85.8902 25.1552 85.3752 24.9052 84.8502 24.7552C84.9752 23.9252 84.7952 22.9852 83.3752 22.3902C83.1002 22.2752 82.8302 22.2202 82.5702 22.2202" fill="#040000"/>
<path d="M85.2799 34.915C85.1649 34.915 85.0449 34.88 84.9449 34.805C78.7499 30.195 77.3199 29.655 77.0049 29.61C76.3949 29.87 73.1199 31.89 69.1449 34.675C68.8899 34.855 68.5399 34.79 68.3599 34.535C68.1799 34.28 68.2449 33.925 68.4999 33.745C72.3499 31.045 75.9949 28.755 76.6849 28.515C77.1199 28.365 77.8449 28.11 85.6149 33.885C85.8649 34.07 85.9199 34.425 85.7349 34.675C85.6249 34.825 85.4549 34.905 85.2799 34.905V34.915Z" fill="#040000"/>
<path d="M56.365 57.8152C56.2 57.8152 56.035 57.7402 55.925 57.6002C54.645 55.9752 54 53.7102 54 50.8802C54 43.8452 59.6 41.5702 60.765 41.1752C61.795 39.6302 62.46 37.5102 63 35.7952C63.715 33.5152 64.185 32.0052 65.315 32.1502C66.705 32.3202 69.015 33.6702 69.115 33.7252C69.385 33.8852 69.475 34.2302 69.315 34.5002C69.16 34.7702 68.815 34.8602 68.545 34.7052C67.945 34.3552 66.195 33.4202 65.22 33.2802C64.9 33.5152 64.42 35.0252 64.075 36.1352C63.495 37.9852 62.77 40.2852 61.58 41.9852C61.505 42.0952 61.39 42.1702 61.265 42.2052C61.015 42.2752 55.125 43.9552 55.125 50.8802C55.125 53.4502 55.69 55.4752 56.81 56.8952C57.005 57.1402 56.96 57.4952 56.715 57.6902C56.61 57.7702 56.49 57.8102 56.365 57.8102V57.8152Z" fill="#040000"/>
<path d="M66.0348 60.3399C65.7698 60.3399 65.5298 60.1499 65.4798 59.8749C65.4248 59.5699 65.6248 59.2699 65.9298 59.2149C66.5898 59.0899 66.9948 58.975 66.9998 58.97C67.2998 58.88 67.6098 59.0549 67.6998 59.3549C67.7898 59.6549 67.6198 59.97 67.3198 60.06C67.2998 60.065 66.8548 60.195 66.1348 60.33C66.0998 60.335 66.0648 60.3399 66.0298 60.3399H66.0348Z" fill="#040000"/>
<path d="M79.7804 47.1351C76.0454 46.9751 72.3154 46.8751 68.5754 46.8951C67.7054 46.8951 67.7054 48.2601 68.5754 48.2551C72.3154 48.2401 76.0454 48.3351 79.7804 48.4951C80.6504 48.5301 80.6504 47.1751 79.7804 47.1351Z" fill="#040000"/>
<path d="M74.7696 30.4649C74.1896 30.4649 73.7246 30.0449 73.3746 29.5399C73.0546 30.0149 72.6346 30.4049 72.0996 30.4049C71.9096 30.4049 71.7246 30.3549 71.5496 30.2549C71.0446 29.9699 70.8896 29.5849 70.8546 29.3149C70.8196 29.0599 70.8646 28.8099 70.9646 28.5699C70.8346 28.5949 70.7046 28.6099 70.5846 28.6099C69.8996 28.6099 69.7146 28.1249 69.6696 27.9749C69.5296 27.4549 69.6296 26.9049 69.9346 26.4999C70.0996 26.2799 70.3146 26.1199 70.5596 26.0149C70.4096 25.7249 70.3496 25.4449 70.3846 25.1699C70.4146 24.9149 70.5396 24.5499 70.9746 24.2599C71.2446 24.0799 71.5196 23.9849 71.7896 23.9849C72.3996 23.9849 72.8896 24.4249 73.2096 25.2449C73.9046 24.6299 74.4896 24.3199 74.9546 24.3199C75.2946 24.3199 75.5846 24.4749 75.7696 24.7599C76.4846 25.8549 75.8496 26.6599 75.1146 27.3549C75.5696 27.7449 76.0596 28.2999 76.1396 28.8999C76.1846 29.2499 76.0946 29.5849 75.8696 29.8599C75.4696 30.3549 75.0496 30.4599 74.7746 30.4599" fill="#B7E1F8"/>
<path d="M71.7903 24.5549C72.4553 24.5549 72.7703 25.6199 72.8753 26.0949C72.8903 26.1549 72.9403 26.1899 72.9903 26.1899C73.0203 26.1899 73.0503 26.1799 73.0753 26.1549C73.4453 25.7799 74.3753 24.8899 74.9503 24.8899C75.0903 24.8899 75.2103 24.9449 75.2953 25.0749C75.8653 25.9499 75.2003 26.5249 74.3453 27.2949C74.2903 27.3449 74.2903 27.4399 74.3553 27.4849C74.7653 27.7799 76.0253 28.7749 75.4303 29.5099C75.2053 29.7899 74.9803 29.8999 74.7703 29.8999C74.1803 29.8999 73.6853 29.0249 73.4703 28.5799C73.4503 28.5349 73.4053 28.5099 73.3603 28.5099C73.3153 28.5099 73.2703 28.5349 73.2503 28.5799C73.0603 29.0099 72.6253 29.8349 72.0953 29.8349C72.0053 29.8349 71.9153 29.8099 71.8203 29.7599C70.9703 29.2799 71.5553 28.4499 72.2753 27.7049C72.4153 27.5599 72.4303 27.5049 72.3653 27.5049C72.1603 27.5049 71.1453 28.0399 70.5753 28.0399C70.3853 28.0399 70.2503 27.9799 70.2053 27.8249C70.0253 27.1649 70.4053 26.4549 71.2153 26.4549C71.2503 26.4549 71.2853 26.4549 71.3203 26.4549C71.3203 26.4549 71.3253 26.4549 71.3303 26.4549C71.4353 26.4549 71.4953 26.3349 71.4253 26.2549C71.0753 25.8749 70.6053 25.1849 71.2853 24.7299C71.4703 24.6049 71.6403 24.5499 71.7903 24.5499M71.7903 23.4199C71.4053 23.4199 71.0253 23.5449 70.6603 23.7899C70.1803 24.1099 69.8853 24.5799 69.8253 25.1049C69.8053 25.2849 69.8103 25.5099 69.8703 25.7649C69.7253 25.8749 69.5953 26.0049 69.4853 26.1549C69.0753 26.6999 68.9403 27.4349 69.1253 28.1199C69.2753 28.6649 69.7103 29.0449 70.2753 29.1449C70.2753 29.2249 70.2803 29.3099 70.2953 29.3899C70.3753 29.9499 70.7253 30.4299 71.2753 30.7399C71.5353 30.8849 71.8153 30.9599 72.1003 30.9599C72.4603 30.9599 72.9203 30.8399 73.3803 30.4049C73.8853 30.8899 74.3853 31.0199 74.7703 31.0199C75.1553 31.0199 75.7603 30.8799 76.3003 30.2149C76.6203 29.8199 76.7603 29.3249 76.6953 28.8199C76.6203 28.2649 76.3053 27.7599 75.9153 27.3399C76.0803 27.1549 76.2253 26.9649 76.3453 26.7549C76.7603 26.0099 76.7253 25.1949 76.2403 24.4449C75.9503 24.0049 75.4853 23.7499 74.9553 23.7499C74.7553 23.7499 74.2603 23.7499 73.4003 24.3699C72.8803 23.5699 72.2203 23.4199 71.7903 23.4199Z" fill="#040000"/>
<path d="M84.8297 60.9301C84.8297 60.9301 84.7947 60.9301 84.7797 60.9301C83.1147 60.7751 81.9947 60.5201 81.9497 60.5101C81.6447 60.4401 81.4597 60.1351 81.5247 59.8301C81.5947 59.5251 81.8947 59.3351 82.1997 59.4051C82.2097 59.4051 83.2947 59.6551 84.8797 59.8001C85.1897 59.8301 85.4147 60.1051 85.3897 60.4151C85.3647 60.7101 85.1197 60.9301 84.8297 60.9301Z" fill="#040000"/>
<path d="M94.5901 59.3649C94.3951 59.3649 94.2051 59.2649 94.1051 59.0849C93.9501 58.8149 94.0401 58.4699 94.3101 58.3099C96.9451 56.7749 98.2801 54.1249 98.2801 50.4399C98.2801 45.6699 95.4751 42.8099 92.7001 42.0899C91.3951 41.7499 91.0801 40.5549 90.9351 39.3149L90.8801 38.8449C90.7001 37.2899 90.3301 34.0949 89.8401 33.5799C88.7901 33.7149 86.3551 34.5549 85.4801 34.8749C85.1901 34.9849 84.8651 34.8299 84.7601 34.5399C84.6551 34.2449 84.8051 33.9199 85.0951 33.8149C85.2301 33.7649 88.4601 32.5799 89.8101 32.4449C91.1851 32.3149 91.5351 34.7399 91.9951 38.7149L92.0501 39.1849C92.2251 40.6799 92.5901 40.8949 92.9801 40.9949C96.1801 41.8249 99.4051 45.0649 99.4051 50.4399C99.4051 54.5599 97.8801 57.5399 94.8751 59.2899C94.7851 59.3399 94.6901 59.3649 94.5951 59.3649H94.5901Z" fill="#040000"/>
<path d="M70.525 43.4053C70.525 44.3503 69.765 45.1153 68.825 45.1153C67.885 45.1153 67.125 44.3503 67.125 43.4053C67.125 42.4603 67.885 41.6953 68.825 41.6953C69.765 41.6953 70.525 42.4603 70.525 43.4053Z" fill="#040000"/>
<path d="M81.2496 43.4053C81.2496 44.3503 80.4896 45.1153 79.5496 45.1153C78.6096 45.1153 77.8496 44.3503 77.8496 43.4053C77.8496 42.4603 78.6096 41.6953 79.5496 41.6953C80.4896 41.6953 81.2496 42.4603 81.2496 43.4053Z" fill="#040000"/>
<path d="M84.9399 62.0049C85.5449 59.4899 87.1899 57.6599 89.7699 57.2149C90.9249 57.0149 94.6149 56.6549 93.9849 58.7449C93.6399 59.8749 92.0799 59.7049 91.4799 60.6699C89.9899 63.0599 89.3449 68.4349 85.3749 65.9049C84.7499 65.5049 84.1699 66.5049 84.7949 66.8999C86.3649 67.8999 88.1599 68.1499 89.5849 66.7749C90.7949 65.6099 91.3699 63.9049 91.9699 62.3799C92.2599 61.6499 92.3749 61.1749 93.0699 60.8799C94.2899 60.3649 95.2899 59.6299 95.1799 58.1449C94.9649 55.1849 90.4949 55.7349 88.5599 56.3099C86.0699 57.0499 84.4349 59.2199 83.8399 61.6949C83.6649 62.4149 84.7749 62.7249 84.9449 61.9999" fill="#040000"/>
<g opacity="0.2">
<mask id="mask1_6554_61526" style="mask-type:luminance" maskUnits="userSpaceOnUse" x="90" y="58" width="5" height="4">
<path d="M94.2547 58.9053H90.8447V61.2903H94.2547V58.9053Z" fill="white"/>
</mask>
<g mask="url(#mask1_6554_61526)">
<path d="M94.2551 59.3252C94.2551 59.3252 92.5251 58.4052 91.3951 59.2902C90.2701 60.1752 91.2151 61.2902 91.2151 61.2902" fill="#040000"/>
</g>
</g>
<path d="M66.9699 60.8403C66.4549 58.7803 64.9549 56.9053 62.9649 56.1253C61.0949 55.3953 56.5499 54.6653 55.8399 57.3103C55.5149 58.5303 56.1499 59.7153 57.2549 60.2403C58.1849 60.6853 58.4249 60.6453 58.8099 61.5653C59.4499 63.0903 59.9399 64.7203 61.0149 66.0103C62.4349 67.7053 64.3799 67.6403 66.1549 66.5103C66.7749 66.1153 66.1999 65.1153 65.5749 65.5153C61.7199 67.9753 60.9099 62.8653 59.5449 60.4203C59.0999 59.6203 58.4549 59.6053 57.6749 59.1753C56.3749 58.4603 56.8849 56.9153 58.2549 56.7603C58.9599 56.6803 59.6849 56.6753 60.3949 56.7353C63.0399 56.9553 65.205 58.4953 65.87 61.1453C66.05 61.8653 67.1549 61.5603 66.9749 60.8403" fill="#040000"/>
<g opacity="0.2">
<mask id="mask2_6554_61526" style="mask-type:luminance" maskUnits="userSpaceOnUse" x="61" y="56" width="6" height="6">
<path d="M66.2105 56.4502H61.2305V61.4702H66.2105V56.4502Z" fill="white"/>
</mask>
<g mask="url(#mask2_6554_61526)">
<path d="M61.2305 56.4502C61.2305 56.4502 63.4855 57.9802 64.2405 60.4502C64.5805 61.5752 66.2105 61.4702 66.2105 61.4702C66.2105 61.4702 65.4755 57.1052 61.2305 56.4502Z" fill="#040000"/>
</g>
</g>
<path d="M55.5302 39.5902C56.4102 39.2502 56.3002 37.7452 57.0452 37.0652C57.7252 36.3102 59.2202 36.4102 59.5702 35.5352C59.2302 34.6502 57.7302 34.7602 57.0502 34.0052C56.3002 33.3202 56.4052 31.8102 55.5252 31.4702C54.6552 31.8202 54.7552 33.3252 54.0002 34.0102C53.3202 34.7602 51.8202 34.6502 51.4902 35.5352C51.8352 36.4102 53.3302 36.3052 54.0102 37.0602C54.7602 37.7402 54.6552 39.2452 55.5252 39.5902" fill="#FFF278"/>
<path d="M55.5301 40.1601C55.4601 40.1601 55.3901 40.1451 55.3251 40.1201C54.6051 39.8351 54.3601 39.1251 54.1451 38.4951C54.0051 38.0851 53.8701 37.6951 53.6351 37.4851C53.6201 37.4701 53.6101 37.4601 53.5951 37.4451C53.3851 37.2101 52.9951 37.0751 52.5851 36.9351C51.9601 36.7151 51.2551 36.4701 50.9701 35.7501C50.9201 35.6201 50.9151 35.4701 50.9701 35.3401C51.2501 34.6051 51.9601 34.3601 52.5901 34.1401C53.0001 34.0001 53.3851 33.8651 53.5901 33.6351C53.6051 33.6201 53.6151 33.6101 53.6301 33.5951C53.8651 33.3801 54.0001 32.9901 54.1451 32.5751C54.3601 31.9451 54.6101 31.2351 55.3251 30.9451C55.4551 30.8901 55.6051 30.8901 55.7401 30.9451C56.4651 31.2301 56.7101 31.9451 56.9301 32.5751C57.0701 32.9901 57.2051 33.3751 57.4401 33.5901C57.4551 33.6051 57.4651 33.6151 57.4801 33.6301C57.6901 33.8651 58.0751 34.0001 58.4851 34.1401C59.1151 34.3601 59.8251 34.6051 60.1051 35.3401C60.1551 35.4751 60.1551 35.6201 60.1051 35.7551C59.8201 36.4751 59.1101 36.7201 58.4901 36.9401C58.0801 37.0851 57.6901 37.2201 57.4751 37.4551C57.4601 37.4701 57.4501 37.4801 57.4351 37.4951C57.2051 37.7051 57.0701 38.0901 56.9301 38.5051C56.7151 39.1351 56.4701 39.8551 55.7401 40.1351C55.6751 40.1601 55.6051 40.1701 55.5401 40.1701L55.5301 40.1601ZM54.4101 36.6601C54.8401 37.0651 55.0351 37.6251 55.2051 38.1201C55.3051 38.4151 55.4051 38.7001 55.5301 38.8801C55.6551 38.7001 55.7551 38.4151 55.8551 38.1201C56.0251 37.6251 56.2151 37.0651 56.6451 36.6601C57.0501 36.2251 57.6101 36.0251 58.1051 35.8551C58.4001 35.7501 58.6801 35.6551 58.8651 35.5251C58.6851 35.4001 58.4001 35.3001 58.1101 35.2001C57.6151 35.0301 57.0601 34.8351 56.6551 34.4001C56.2251 33.9951 56.0301 33.4351 55.8601 32.9351C55.7601 32.6401 55.6601 32.3551 55.5351 32.1751C55.4101 32.3601 55.3101 32.6451 55.2101 32.9401C55.0401 33.4401 54.8451 34.0001 54.4101 34.4101C54.0101 34.8401 53.4501 35.0351 52.9601 35.2051C52.6651 35.3051 52.3851 35.4051 52.2051 35.5301C52.3851 35.6551 52.6701 35.7551 52.9651 35.8601C53.4601 36.0301 54.0201 36.2251 54.4201 36.6601H54.4101Z" fill="#A6951E"/>
<path d="M60.5404 32.2852C60.6654 32.5252 61.0154 32.5252 61.1404 32.2852C61.3004 31.9752 61.3554 31.5202 61.6254 31.2752C61.8704 31.0002 62.3253 30.9452 62.6353 30.7802C62.8753 30.6552 62.8753 30.3052 62.6353 30.1752C62.3253 30.0102 61.8704 29.9552 61.6254 29.6852C61.3554 29.4402 61.3003 28.9852 61.1353 28.6702C61.0103 28.4302 60.6604 28.4302 60.5354 28.6702C60.3704 28.9852 60.3153 29.4402 60.0453 29.6852C59.8003 29.9552 59.3504 30.0102 59.0404 30.1752C58.8004 30.3002 58.8004 30.6502 59.0404 30.7802C59.3504 30.9452 59.8053 31.0002 60.0503 31.2702C60.3203 31.5152 60.3754 31.9702 60.5404 32.2852Z" fill="#FFF278"/>
<path d="M60.8399 33.0349C60.5049 33.0349 60.1949 32.8499 60.0399 32.5499C59.9649 32.4049 59.9099 32.2499 59.8599 32.1049C59.8049 31.9499 59.7399 31.7549 59.6699 31.6949C59.6549 31.6799 59.6449 31.6699 59.6299 31.6549C59.5649 31.5849 59.3749 31.5199 59.2199 31.4649C59.0749 31.4149 58.9249 31.3649 58.7799 31.2849C58.4799 31.1299 58.2949 30.8199 58.2949 30.4799C58.2949 30.1399 58.4799 29.8349 58.7799 29.6749C58.9249 29.5999 59.0749 29.5449 59.2199 29.4949C59.3749 29.4399 59.5649 29.3749 59.6299 29.3049C59.6449 29.2899 59.6549 29.2799 59.6699 29.2649C59.7399 29.1999 59.8049 29.0149 59.8599 28.8499C59.9099 28.7049 59.9599 28.5549 60.0399 28.4049C60.1949 28.1049 60.4999 27.9199 60.8399 27.9199C61.1749 27.9199 61.4849 28.1049 61.6399 28.4049C61.7149 28.5499 61.7699 28.7049 61.8199 28.8499C61.8749 29.0049 61.9399 29.1999 62.0099 29.2649C62.0249 29.2799 62.0349 29.2899 62.0499 29.3049C62.1099 29.3749 62.3049 29.4399 62.4599 29.4949C62.6049 29.5449 62.7549 29.5999 62.8999 29.6749C63.1949 29.8299 63.3849 30.1399 63.3849 30.4749C63.3849 30.8149 63.1999 31.1249 62.8999 31.2799C62.7549 31.3549 62.6049 31.4099 62.4599 31.4599C62.2949 31.5199 62.1099 31.5849 62.0449 31.6549C62.0349 31.6699 62.0199 31.6799 62.0049 31.6949C61.9349 31.7549 61.8699 31.9499 61.8199 32.1049C61.7699 32.2499 61.7199 32.3999 61.6399 32.5499C61.4849 32.8499 61.1799 33.0349 60.8399 33.0349ZM60.4499 30.8699C60.6449 31.0549 60.7549 31.2799 60.8399 31.4899C60.9249 31.2799 61.0349 31.0549 61.2249 30.8699C61.4099 30.6749 61.6349 30.5599 61.8499 30.4749C61.6399 30.3899 61.4149 30.2749 61.2299 30.0849C61.0349 29.8999 60.9199 29.6749 60.8399 29.4599C60.7549 29.6749 60.6399 29.8999 60.4449 30.0849C60.2649 30.2749 60.0399 30.3899 59.8299 30.4749C60.0399 30.5599 60.2649 30.6749 60.4499 30.8699Z" fill="#A6951E"/>
<path d="M92.6604 40.8951C91.4804 40.5801 90.2604 40.5251 89.0404 40.6151C88.3054 40.6701 88.3004 41.8251 89.0404 41.7701C90.1554 41.6901 91.2654 41.7201 92.3554 42.0101C93.0704 42.2001 93.3754 41.0851 92.6604 40.8951Z" fill="#040000"/>
<path d="M69.665 44.0752C69.665 44.2602 69.515 44.4102 69.33 44.4102C69.145 44.4102 69 44.2602 69 44.0752C69 43.8902 69.15 43.7402 69.33 43.7402C69.51 43.7402 69.665 43.8902 69.665 44.0752Z" fill="white"/>
<path d="M79.2349 42.8352C79.2349 43.0352 79.0699 43.2002 78.8699 43.2002C78.6699 43.2002 78.5049 43.0352 78.5049 42.8352C78.5049 42.6352 78.6699 42.4702 78.8699 42.4702C79.0699 42.4702 79.2349 42.6352 79.2349 42.8352Z" fill="white"/>
<path d="M68.9803 42.8252C68.9803 43.1452 68.7203 43.4102 68.4003 43.4102C68.0803 43.4102 67.8203 43.1502 67.8203 42.8252C67.8203 42.5002 68.0803 42.2402 68.4003 42.2402C68.7203 42.2402 68.9803 42.5002 68.9803 42.8252Z" fill="white"/>
<path d="M80.7654 43.8052C80.7654 44.2102 80.4404 44.5352 80.0404 44.5352C79.6404 44.5352 79.3154 44.2102 79.3154 43.8052C79.3154 43.4002 79.6404 43.0752 80.0404 43.0752C80.4404 43.0752 80.7654 43.4002 80.7654 43.8052Z" fill="white"/>
<path d="M67.5053 47.0452C67.8453 47.6702 68.0953 48.2852 68.1903 48.9952C68.2303 49.3052 68.6253 49.4702 68.8953 49.4002C69.2303 49.3102 69.3353 48.9952 69.2953 48.6902C69.1853 47.8852 68.8753 47.1702 68.4953 46.4652C68.1403 45.8102 67.1503 46.3952 67.5053 47.0502" fill="#040000"/>
<path d="M80.4005 46.0802C79.5255 46.7152 79.2305 48.1302 79.2005 49.1552C79.1805 49.9002 80.3255 49.9002 80.3505 49.1552C80.3605 48.7552 80.4405 48.3552 80.5555 47.9752C80.6355 47.7052 80.7405 47.2502 80.9805 47.0802C81.5755 46.6502 81.0005 45.6452 80.4005 46.0852" fill="#040000"/>
<path d="M71.9554 59.2299C73.2204 59.4499 74.4154 59.4749 75.6554 59.0999C76.3604 58.8849 76.0604 57.7699 75.3504 57.9849C74.3054 58.2999 73.3254 58.2999 72.2604 58.1149C71.5404 57.9899 71.2254 59.1049 71.9554 59.2299Z" fill="#040000"/>
<path d="M62.765 66.8901C62.53 69.0751 62.925 71.2601 63.535 73.3501C63.74 74.0601 64.85 73.7601 64.64 73.0451C64.055 71.0401 63.685 68.9801 63.91 66.8901C63.99 66.1501 62.84 66.1601 62.76 66.8901" fill="#040000"/>
<g opacity="0.2">
<mask id="mask3_6554_61526" style="mask-type:luminance" maskUnits="userSpaceOnUse" x="63" y="66" width="4" height="3">
<path d="M66.1347 66.1499H63.3447V68.5749H66.1347V66.1499Z" fill="white"/>
</mask>
<g mask="url(#mask3_6554_61526)">
<path d="M63.7147 68.5749C63.7147 68.5749 65.5747 67.5649 66.1347 66.1499C66.1347 66.1499 64.2497 67.1899 63.3447 67.0749L63.7147 68.5699V68.5749Z" fill="#040000"/>
</g>
</g>
<path d="M88.7846 66.5552C88.9496 68.5852 88.9346 70.9202 88.4396 72.9002C88.2596 73.6202 89.3696 73.9302 89.5446 73.2052C90.0646 71.1202 90.0996 68.6902 89.9296 66.5502C89.8696 65.8152 88.7196 65.8102 88.7796 66.5502" fill="#040000"/>
<g opacity="0.2">
<mask id="mask4_6554_61526" style="mask-type:luminance" maskUnits="userSpaceOnUse" x="84" y="66" width="5" height="3">
<path d="M88.9605 66.4502H84.6455V68.8452H88.9605V66.4502Z" fill="white"/>
</mask>
<g mask="url(#mask4_6554_61526)">
<path d="M88.9055 68.1202C88.9055 68.1202 88.6105 68.9702 87.0355 68.8302C85.4605 68.6902 84.6455 66.4502 84.6455 66.4502C84.6455 66.4502 86.0505 67.3602 87.0955 67.3602C88.1405 67.3602 88.9605 67.1952 88.9605 67.1952" fill="#040000"/>
</g>
</g>
<g opacity="0.2">
<mask id="mask5_6554_61526" style="mask-type:luminance" maskUnits="userSpaceOnUse" x="65" y="33" width="5" height="3">
<path d="M69.0549 33.1401H65.1299V35.5301H69.0549V33.1401Z" fill="white"/>
</mask>
<g mask="url(#mask5_6554_61526)">
<path d="M65.13 33.1401C65.13 33.1401 66.21 35.4801 66.81 35.5301C67.41 35.5751 69.05 34.6701 69.05 34.5001C69.05 34.3251 65.125 33.1451 65.125 33.1451" fill="#040000"/>
</g>
</g>
<g opacity="0.2">
<mask id="mask6_6554_61526" style="mask-type:luminance" maskUnits="userSpaceOnUse" x="88" y="33" width="4" height="8">
<path d="M91.8303 33.415H88.6953V40.83H91.8303V33.415Z" fill="white"/>
</mask>
<g mask="url(#mask6_6554_61526)">
<path d="M89.82 33.415C89.82 33.415 89.04 35.44 88.775 37.125C88.455 39.18 89.165 40.405 89.545 40.775L91.825 40.83C91.825 40.83 90.69 33.65 89.815 33.415" fill="#040000"/>
</g>
</g>
<g opacity="0.2">
<mask id="mask7_6554_61526" style="mask-type:luminance" maskUnits="userSpaceOnUse" x="89" y="41" width="10" height="18">
<path d="M98.855 41.4253H89.5V58.4653H98.855V41.4253Z" fill="white"/>
</mask>
<g mask="url(#mask7_6554_61526)">
<path d="M89.5 41.5403C89.5 41.5403 94.94 42.1353 94.84 49.5353C94.795 52.8253 93.175 55.0653 91.525 56.6003C93.075 56.5903 94.67 57.1353 94.955 58.4653C96.8 57.1653 98.285 55.0503 98.835 51.6753C98.835 51.6753 99.75 40.1653 89.5 41.5403Z" fill="#040000"/>
</g>
</g>
<g opacity="0.2">
<mask id="mask8_6554_61526" style="mask-type:luminance" maskUnits="userSpaceOnUse" x="59" y="38" width="6" height="5">
<path d="M64.4998 38.7749H59.3398V42.9849H64.4998V38.7749Z" fill="white"/>
</mask>
<g mask="url(#mask8_6554_61526)">
<path d="M59.3398 42.9848C59.3398 42.9848 61.2698 42.1098 63.3998 42.7848C64.5948 43.1598 64.8598 42.7148 63.9798 41.8148C63.3748 41.1948 62.8598 40.3648 62.9848 38.7798" fill="#040000"/>
</g>
</g>
<g opacity="0.2">
<mask id="mask9_6554_61526" style="mask-type:luminance" maskUnits="userSpaceOnUse" x="57" y="55" width="30" height="7">
<path d="M86.2203 55.6152H57.6553V61.5702H86.2203V55.6152Z" fill="white"/>
</mask>
<g mask="url(#mask9_6554_61526)">
<path d="M57.6553 56.125C57.6553 56.125 62.1853 54.28 66.8003 57.62C66.8003 57.62 71.4603 59.77 79.7803 57.695C79.7803 57.695 81.6903 56.91 86.2203 57.845C86.2203 57.845 84.6503 59.36 84.6453 60.16L81.9553 60.365L78.8053 61.11C73.3603 62.505 66.2153 60.28 66.2153 60.28C66.2153 60.28 63.6803 55.42 57.6553 56.265" fill="#040000"/>
</g>
</g>
</g>
<path d="M77.6703 9.52995C77.5153 9.52995 77.3653 9.56495 77.2253 9.62495L76.6503 8.61995L78.2953 5.75495C78.5303 5.33995 78.3903 4.80995 77.9803 4.57495C77.9603 4.56495 77.9353 4.55995 77.9103 4.56495C77.8853 4.56995 77.8703 4.58495 77.8553 4.60495L76.1003 7.66495L74.3453 4.60495C74.3453 4.60495 74.3153 4.56995 74.2903 4.56495C74.2653 4.55995 74.2453 4.56495 74.2203 4.57495C73.8103 4.81495 73.6703 5.34495 73.9053 5.75495L75.5503 8.61995L74.9753 9.62495C74.8353 9.55995 74.6853 9.52995 74.5303 9.52995C73.9353 9.52995 73.4453 10.0199 73.4453 10.6199C73.4453 11.2199 73.9303 11.7099 74.5303 11.7099C75.1303 11.7099 75.6153 11.2199 75.6153 10.6199C75.6153 10.4399 75.5703 10.2699 75.4903 10.1149C75.7153 10.0599 75.9053 9.91495 76.0203 9.70995L76.0953 9.57495L76.1703 9.70995C76.2853 9.91495 76.4803 10.0599 76.7003 10.1149C76.6203 10.2699 76.5753 10.4449 76.5753 10.6199C76.5753 11.2199 77.0603 11.7099 77.6603 11.7099C78.2603 11.7099 78.7453 11.2199 78.7453 10.6199C78.7453 10.0199 78.2603 9.52995 77.6603 9.52995H77.6703ZM74.5353 11.1C74.2703 11.1 74.0603 10.8849 74.0603 10.6199C74.0603 10.3549 74.2753 10.14 74.5353 10.14C74.7953 10.14 75.0103 10.3549 75.0103 10.6199C75.0103 10.8849 74.7953 11.1 74.5353 11.1ZM76.1053 8.82495C75.9803 8.82495 75.8753 8.71995 75.8753 8.59495C75.8753 8.46995 75.9803 8.36495 76.1053 8.36495C76.2303 8.36495 76.3353 8.46995 76.3353 8.59495C76.3353 8.71995 76.2303 8.82495 76.1053 8.82495ZM77.6753 11.1C77.4103 11.1 77.2003 10.8849 77.2003 10.6199C77.2003 10.3549 77.4153 10.14 77.6753 10.14C77.9353 10.14 78.1503 10.3549 78.1503 10.6199C78.1503 10.8849 77.9353 11.1 77.6753 11.1Z" fill="white"/>
</g>
<defs>
<clipPath id="clip0_6554_61526">
<rect width="114" height="72" fill="white"/>
</clipPath>
</defs>
</svg>
