<svg width="12" height="12" viewBox="0 0 12 12" fill="none" xmlns="http://www.w3.org/2000/svg">
<path fill-rule="evenodd" clip-rule="evenodd" d="M2.64645 2.64645C2.84171 2.45118 3.15829 2.45118 3.35355 2.64645L6.35355 5.64645C6.54882 5.84171 6.54882 6.15829 6.35355 6.35355L3.35355 9.35355C3.15829 9.54882 2.84171 9.54882 2.64645 9.35355C2.45118 9.15829 2.45118 8.84171 2.64645 8.64645L5.29289 6L2.64645 3.35355C2.45118 3.15829 2.45118 2.84171 2.64645 2.64645Z" fill="#666666"/>
<path fill-rule="evenodd" clip-rule="evenodd" d="M5.64645 2.64645C5.84171 2.45118 6.15829 2.45118 6.35355 2.64645L9.35355 5.64645C9.54882 5.84171 9.54882 6.15829 9.35355 6.35355L6.35355 9.35355C6.15829 9.54882 5.84171 9.54882 5.64645 9.35355C5.45118 9.15829 5.45118 8.84171 5.64645 8.64645L8.29289 6L5.64645 3.35355C5.45118 3.15829 5.45118 2.84171 5.64645 2.64645Z" fill="#666666"/>
</svg>
