<svg width="64" height="12" viewBox="0 0 64 12" fill="none" xmlns="http://www.w3.org/2000/svg">
<path d="M32.0699 0H29.8999V4.66H21.0199V0H18.8499C18.3299 0 17.9199 0.42 17.9199 0.94V11.05C17.9199 11.57 18.3399 11.99 18.8499 11.99H21.0199V6.98H29.8999V11.99H32.0699C32.5899 11.99 32.9999 11.57 32.9999 11.05V0.94C32.9999 0.42 32.5799 0 32.0699 0Z" fill="#999999"/>
<path d="M14.48 0H12.31V8.84L5.47 1.85C4.38 0.78 3.64 0 1.9 0H0V11.06C0 11.58 0.42 12 0.94 12H3.11V3.11L9.89 10.05C11 11.15 11.99 11.99 13.59 11.99H15.41V0.94C15.41 0.42 14.99 0 14.48 0Z" fill="#999999"/>
<path d="M41.9199 4.4502C40.9999 4.4502 40.3799 5.0502 40.3799 5.9502C40.3799 6.8502 40.9999 7.4102 41.9199 7.4102C42.8399 7.4102 43.4699 6.8202 43.4699 5.9502C43.4699 5.0802 42.8499 4.4502 41.9199 4.4502ZM41.9199 6.8602C41.2599 6.8602 41.1599 6.2402 41.1599 5.8602C41.1599 5.4502 41.3999 5.0002 41.9199 5.0002C42.4399 5.0002 42.6799 5.4302 42.6799 5.8602C42.6799 6.2302 42.5799 6.8602 41.9199 6.8602Z" fill="#999999"/>
<path d="M39.5798 3.5H39.1098V6.45L37.7198 3.84C37.5798 3.58 37.4498 3.5 37.1498 3.5H36.5698V7.07C36.5698 7.22 36.6998 7.34 36.8498 7.34H37.3198V4.39L38.7098 7C38.8498 7.26 38.9798 7.34 39.2798 7.34H39.8598V3.77C39.8598 3.62 39.7298 3.5 39.5798 3.5Z" fill="#999999"/>
<path d="M53.2301 3.5V5.06H51.5901V3.5H51.0901C50.9301 3.5 50.8101 3.62 50.8101 3.77V7.07C50.8101 7.22 50.9401 7.34 51.0901 7.34H51.5901V5.65H53.2301V7.34H53.7301C53.8901 7.34 54.0101 7.22 54.0101 7.07V3.77C54.0101 3.62 53.8801 3.5 53.7301 3.5H53.2301Z" fill="#999999"/>
<path d="M45.69 4.50977H43.98V7.06977C43.98 7.21977 44.11 7.33977 44.26 7.33977H44.73V5.05977H45.42C45.93 5.05977 45.93 5.55977 45.93 5.88977V7.33977H46.4C46.56 7.33977 46.68 7.21977 46.68 7.06977V5.61977C46.68 4.91977 46.32 4.50977 45.68 4.50977H45.69Z" fill="#999999"/>
<path d="M60.1798 4.50977H59.7098V6.78977H59.0198C58.5098 6.78977 58.5098 6.28977 58.5098 5.95977V4.50977H58.0398C57.8798 4.50977 57.7598 4.62977 57.7598 4.77977V6.22977C57.7598 6.92977 58.1198 7.33977 58.7598 7.33977H60.4698V4.77977C60.4698 4.62977 60.3398 4.50977 60.1898 4.50977H60.1798Z" fill="#999999"/>
<path d="M62.7598 4.4502C62.3298 4.4502 62.0298 4.6702 61.8398 4.8502L61.8098 4.8802V4.5102H61.3698C61.2098 4.5102 61.0898 4.6302 61.0898 4.7802V8.2302C61.0898 8.3802 61.2198 8.5002 61.3698 8.5002H61.8398V7.0602L61.8698 7.0902C62.1198 7.3002 62.4198 7.4102 62.7298 7.4102C63.8598 7.4102 63.9798 6.3702 63.9798 5.9202C63.9798 5.4702 63.8598 4.4502 62.7398 4.4502H62.7598ZM62.5498 6.8602C62.0398 6.8602 61.8598 6.3602 61.8598 5.9202C61.8598 5.4802 62.0798 5.0002 62.5598 5.0002C63.0398 5.0002 63.2098 5.4802 63.2098 5.9202C63.2098 6.3602 63.0398 6.8602 62.5498 6.8602Z" fill="#999999"/>
<path d="M49.82 4.5102H49.39V4.8602L49.36 4.8302C49.11 4.5502 48.85 4.4502 48.46 4.4502C47.6 4.4502 47.21 5.2102 47.21 5.9202C47.21 6.3502 47.33 7.3502 48.41 7.3502C48.82 7.3502 49.15 7.2102 49.32 6.9702L49.35 6.9302V6.9802C49.35 7.5202 49.28 7.9702 48.44 7.9702H47.59V8.2402C47.59 8.3902 47.72 8.5102 47.87 8.5102H48.54C49.59 8.5102 50.1 8.0402 50.1 7.0802V4.7902C50.1 4.6402 49.97 4.5202 49.82 4.5202V4.5102ZM48.66 6.7902C48.23 6.7902 47.99 6.3402 47.99 5.9102C47.99 5.7002 48.04 5.0002 48.69 5.0002C49.1 5.0002 49.35 5.3402 49.35 5.9002C49.35 6.4602 49.09 6.7902 48.66 6.7902Z" fill="#999999"/>
<path d="M54.8401 8.49977C54.6801 8.49977 54.5601 8.37977 54.5601 8.22976V7.95977H55.0101C55.3401 7.95977 55.5201 7.79977 55.5201 7.49977L54.3901 4.51977H55.2001L55.9501 6.63977L56.5501 4.94977C56.6701 4.61977 56.7601 4.50977 57.0701 4.50977H57.4401L56.3001 7.39977C56.0701 7.98977 55.8701 8.49977 55.1101 8.49977H54.8401Z" fill="#999999"/>
</svg>
