<svg width="245" height="40" viewBox="0 0 245 40" fill="none" xmlns="http://www.w3.org/2000/svg">
<path d="M129.603 16.9737C130.869 16.43 131.886 15.9668 132.643 15.5842C133.401 15.2016 133.989 14.8492 134.388 14.5069C134.797 14.1645 135.056 13.8222 135.186 13.4698C135.315 13.1174 135.375 12.7046 135.375 12.2213V11.446H130.311V9.50283H137.628V12.4428C137.628 12.9261 137.588 13.3591 137.499 13.7517C137.409 14.1343 137.259 14.4968 137.05 14.8391C136.841 15.1815 136.561 15.5037 136.212 15.8057C135.864 16.1178 135.425 16.4199 134.906 16.7421C134.378 17.0542 133.76 17.3865 133.032 17.7187C132.304 18.0611 131.467 18.4336 130.51 18.8464L129.593 16.9837L129.603 16.9737ZM138.077 25.8742C137.339 25.8742 136.651 25.8037 136.013 25.6527C135.375 25.5117 134.827 25.2902 134.358 25.0083C133.89 24.7264 133.521 24.3841 133.252 23.9713C132.982 23.5685 132.853 23.1154 132.853 22.6019V21.8065C132.853 21.3031 132.982 20.84 133.252 20.4372C133.521 20.0345 133.89 19.6922 134.358 19.4002C134.827 19.1182 135.375 18.8967 136.013 18.7558C136.651 18.6148 137.339 18.5343 138.077 18.5343C138.814 18.5343 139.502 18.6048 140.14 18.7558C140.778 18.9068 141.327 19.1182 141.795 19.4002C142.264 19.6821 142.633 20.0244 142.902 20.4372C143.171 20.84 143.311 21.293 143.311 21.8065V22.6019C143.311 23.1054 143.181 23.5685 142.902 23.9713C142.633 24.374 142.264 24.7163 141.795 25.0083C141.327 25.2902 140.778 25.5017 140.14 25.6527C139.502 25.8037 138.814 25.8742 138.077 25.8742ZM138.077 20.4171C137.678 20.4171 137.309 20.4574 136.95 20.548C136.591 20.6285 136.272 20.7393 136.003 20.8802C135.724 21.0212 135.505 21.1823 135.335 21.3736C135.166 21.5649 135.086 21.7663 135.086 21.9777V22.4509C135.086 22.6724 135.166 22.8738 135.335 23.055C135.505 23.2363 135.724 23.4074 136.003 23.5484C136.282 23.6893 136.591 23.8001 136.95 23.8806C137.309 23.9612 137.688 24.0115 138.077 24.0115C138.466 24.0115 138.844 23.9713 139.203 23.8806C139.562 23.8001 139.881 23.6793 140.15 23.5484C140.42 23.4175 140.649 23.2463 140.818 23.055C140.988 22.8637 141.068 22.6624 141.068 22.4509V21.9777C141.068 21.7562 140.988 21.5548 140.818 21.3736C140.649 21.1924 140.43 21.0212 140.15 20.8802C139.871 20.7393 139.562 20.6285 139.203 20.548C138.844 20.4674 138.466 20.4171 138.077 20.4171ZM140.998 10.852V8.51611H143.241V18.4839H140.998V16.289H138.196V14.3659H140.998V12.7751H138.486V10.852H140.998Z" fill="#284E70"/>
<path d="M147.259 19.9838H151.785V18.5138H145.275V16.631H160.568V18.5138H154.058V19.9838H158.504V25.5618H156.241V21.8666H147.269V19.9838H147.259ZM147.398 15.453V8.81787H149.642V10.4691H156.171V8.81787H158.415V15.453H147.398ZM149.642 13.6004H156.171V12.3116H149.642V13.6004Z" fill="#284E70"/>
<path d="M165.762 10.1068H169.152V8.29443H171.415V10.1068H174.625V12.0298H171.415V12.644C171.415 12.8655 171.425 13.0568 171.455 13.228C171.484 13.3992 171.534 13.5703 171.614 13.7314C171.694 13.8925 171.804 14.0435 171.953 14.1946C172.103 14.3456 172.292 14.5067 172.531 14.698C172.89 14.9799 173.289 15.2618 173.728 15.5438C174.166 15.8257 174.625 16.1177 175.113 16.4197L173.927 18.0508C173.548 17.8092 173.159 17.5575 172.771 17.2957C172.382 17.0339 172.013 16.7822 171.664 16.5405C170.876 15.9868 170.448 15.6243 170.388 15.4733H170.368C170.328 15.584 170.178 15.7552 169.919 15.9868C169.66 16.2183 169.311 16.5003 168.892 16.8124C168.494 17.1144 168.105 17.4064 167.726 17.6783C167.347 17.9602 166.928 18.2522 166.47 18.5643L165.174 16.8829C165.752 16.5003 166.29 16.1076 166.819 15.725C167.337 15.3424 167.786 14.9799 168.175 14.6577C168.484 14.3758 168.723 14.0939 168.882 13.7918C169.042 13.4898 169.122 13.1072 169.122 12.6541V12.0399H165.732V10.1168L165.762 10.1068ZM168.075 18.9167H178.433V25.3706H168.075V18.9167ZM170.318 23.4677H176.19V20.8197H170.318V23.4677ZM178.433 12.3218H180.626V14.3154H178.433V18.1616H176.17V8.51594H178.433V12.3218Z" fill="#284E70"/>
<path d="M188.462 16.9938C188.841 17.4167 189.26 17.8496 189.718 18.3128C190.177 18.7658 190.636 19.2089 191.104 19.6317L189.649 21.1722C189.24 20.7896 188.851 20.3969 188.462 20.0244C188.083 19.6418 187.724 19.2793 187.385 18.9269C187.037 18.5745 186.747 18.2624 186.508 17.9704C186.269 17.6885 186.119 17.467 186.06 17.3059H186.02C185.96 17.4771 185.8 17.7187 185.521 18.0409C185.252 18.3631 184.973 18.6752 184.674 18.9874C184.335 19.3398 183.986 19.7022 183.617 20.0647C183.248 20.4272 182.8 20.8601 182.291 21.3434L180.806 19.7828C181.823 18.8665 182.72 17.9805 183.497 17.1146C183.757 16.8226 183.976 16.5508 184.155 16.2789C184.325 16.0171 184.464 15.7453 184.574 15.4634C184.684 15.1815 184.764 14.8995 184.803 14.5975C184.853 14.2954 184.873 13.9531 184.873 13.5806V9.7042H187.186V13.5806C187.186 13.943 187.196 14.2652 187.226 14.5572C187.256 14.8492 187.316 15.1211 187.415 15.3828C187.515 15.6446 187.635 15.9064 187.804 16.1581C187.964 16.4199 188.183 16.6917 188.462 16.9837V16.9938ZM194.314 14.4565H196.607V16.4501H194.314V25.3708H192.031V8.51611H194.314V14.4565Z" fill="#284E70"/>
<path d="M199.837 16.2185C201.093 16.2185 202.26 16.2084 203.336 16.1782C204.413 16.148 205.5 16.0776 206.606 15.9668L206.806 17.8496C206.287 17.91 205.739 17.9604 205.141 17.9906C204.553 18.0308 203.885 18.051 203.147 18.0711C202.409 18.0913 201.592 18.1013 200.685 18.1114C199.777 18.1114 198.75 18.1114 197.604 18.1114V12.8053H202.968V11.2245H197.604V9.32159H205.191V14.6277H199.827V16.2084L199.837 16.2185ZM205.111 25.8943C204.343 25.8943 203.645 25.8239 203.017 25.6728C202.389 25.5218 201.851 25.3204 201.402 25.0587C200.954 24.7969 200.605 24.4646 200.356 24.082C200.106 23.6994 199.977 23.2665 199.977 22.7932V22.0683C199.977 21.5951 200.106 21.1722 200.356 20.7795C200.605 20.3969 200.954 20.0647 201.402 19.8029C201.851 19.5411 202.389 19.3297 203.017 19.1887C203.645 19.0478 204.343 18.9672 205.111 18.9672C205.879 18.9672 206.576 19.0377 207.205 19.1887C207.833 19.3398 208.371 19.5411 208.82 19.8029C209.268 20.0647 209.617 20.3969 209.866 20.7795C210.116 21.1622 210.245 21.5951 210.245 22.0683V22.7932C210.245 23.2665 210.116 23.6893 209.866 24.082C209.617 24.4646 209.268 24.7969 208.82 25.0587C208.371 25.3204 207.833 25.5319 207.205 25.6728C206.576 25.8138 205.879 25.8943 205.111 25.8943ZM205.111 20.84C204.652 20.84 204.254 20.8802 203.895 20.9709C203.536 21.0514 203.227 21.1622 202.978 21.293C202.728 21.4239 202.529 21.575 202.399 21.7361C202.26 21.8972 202.19 22.0683 202.19 22.2395V22.6422C202.19 22.8134 202.26 22.9846 202.399 23.1456C202.539 23.3168 202.728 23.4678 202.978 23.5987C203.227 23.7296 203.536 23.8404 203.895 23.9109C204.254 23.9914 204.662 24.0317 205.111 24.0317C205.56 24.0317 205.968 23.9914 206.327 23.9109C206.686 23.8303 206.995 23.7296 207.244 23.5987C207.494 23.4678 207.693 23.3168 207.823 23.1456C207.962 22.9745 208.032 22.8033 208.032 22.6422V22.2395C208.032 22.0683 207.962 21.9072 207.823 21.7361C207.683 21.575 207.494 21.4239 207.244 21.293C206.995 21.1622 206.686 21.0514 206.327 20.9709C205.968 20.8903 205.56 20.84 205.111 20.84ZM210.185 12.5234H212.379V14.5169H210.185V18.7759H207.922V8.51611H210.185V12.5234Z" fill="#284E70"/>
<path d="M213.286 20.2963C214.123 19.8331 214.851 19.4203 215.479 19.0377C216.107 18.6551 216.646 18.3027 217.084 17.9704C217.523 17.6382 217.882 17.3261 218.151 17.024C218.42 16.7219 218.63 16.4199 218.769 16.1178L213.296 16.2588L213.226 14.3055L219.008 14.2149V11.9495H213.605V9.99618H221.232V14.1645C221.232 15.0304 221.142 15.7956 220.952 16.44C220.763 17.0844 220.424 17.6986 219.916 18.2926C219.417 18.8766 218.719 19.4807 217.822 20.0848C216.925 20.6889 215.778 21.3937 214.373 22.1791L213.276 20.3164L213.286 20.2963ZM226.077 14.5673H228.37V16.5608H226.077V25.3708H223.794V8.51611H226.077V14.5673Z" fill="#284E70"/>
<path d="M244.002 21.3129V23.2561H228.709V21.3129H244.002ZM230.673 18.1917V9.90527H241.839V11.8485H232.936V16.2484H242.048V18.1917H230.673Z" fill="#284E70"/>
<path d="M120.829 11.0933H119.833V23.1755H120.829V11.0933Z" fill="#DDDDDD"/>
<path d="M59.9964 31.1296C87.2229 21.6351 78.081 -1.00901 62.4689 8.64668C62.1897 8.15333 57.3346 -0.294146 48.3721 0.00790886C36.01 0.420717 37.0667 19.6415 52.1006 30.9484C36.1396 32.7406 24.595 28.9549 17.1678 24.5247H3.41992C14.6355 30.1027 34.4847 37.1405 54.6229 32.7003C57.8929 34.8248 61.7012 36.6875 66.0479 38.1575C68.7496 39.0435 71.3416 39.6476 73.7941 40L73.9935 39.0334C68.2013 36.6774 63.6153 33.9589 59.9964 31.1196V31.1296Z" fill="#EC1B23"/>
<path d="M45.6399 10.3686C45.6399 9.97589 45.9489 9.66377 46.3377 9.66377H47.9129V9.07979C47.9129 8.68712 48.2319 8.375 48.6107 8.375H48.8301C49.2189 8.375 49.5279 8.68712 49.5279 9.07979V9.66377H50.9137C51.3025 9.66377 51.6115 9.97589 51.6115 10.3686C51.6115 10.7612 51.3025 11.0734 50.9137 11.0734H46.3277C45.9389 11.0734 45.6299 10.7612 45.6299 10.3686M48.7603 16.4701C47.1353 16.4701 46.0187 15.3625 46.0187 13.8925C46.0187 12.4225 47.1353 11.3351 48.7603 11.3351C50.3853 11.3351 51.4919 12.4326 51.4919 13.8925C51.4919 15.3525 50.3753 16.4701 48.7603 16.4701ZM48.7603 12.634C48.0923 12.634 47.5141 13.1777 47.5141 13.8925C47.5141 14.6779 48.1023 15.1712 48.7603 15.1712C49.3884 15.1712 49.9766 14.6779 49.9766 13.8925C49.9766 13.1777 49.3784 12.634 48.7603 12.634ZM53.2864 21.8869C51.5617 21.8869 50.3454 20.6787 50.3454 19.1483C50.3454 17.6179 51.5617 16.4197 53.2864 16.4197C55.0111 16.4197 56.2174 17.6078 56.2174 19.1483C56.2174 20.6888 54.9912 21.8869 53.2864 21.8869ZM53.2864 17.789C52.5287 17.789 51.8608 18.3529 51.8608 19.1483C51.8608 19.9941 52.5287 20.5176 53.2864 20.5176C54.0441 20.5176 54.6722 19.9941 54.6722 19.1483C54.6722 18.363 54.0441 17.789 53.2864 17.789ZM52.3393 15.2417V9.6537C52.3393 9.26103 52.6484 8.9489 53.0372 8.9489H53.2565C53.6453 8.9489 53.9544 9.26103 53.9544 9.6537V11.8788H55.051V9.6537C55.051 9.26103 55.36 8.9489 55.7489 8.9489H55.9682C56.357 8.9489 56.666 9.26103 56.666 9.6537V15.7149C56.666 16.752 55.051 16.752 55.051 15.7149V13.3186H53.9544V15.2417C53.9544 16.2788 52.3393 16.2788 52.3393 15.2417Z" fill="white"/>
<path d="M58.1816 18.242C58.1816 17.8493 58.5007 17.5271 58.8895 17.5271H63.1065V16.5907H61.7208C60.5643 16.5907 59.7568 15.8658 59.7568 14.6878V12.1505C59.7568 11.6974 60.1157 11.335 60.5643 11.335C61.013 11.335 61.3719 11.6974 61.3719 12.1505V12.5734H66.4164V12.1505C66.4164 11.6974 66.7753 11.335 67.2239 11.335C67.6725 11.335 68.0314 11.6974 68.0314 12.1505V16.0067C68.0314 16.3289 67.7722 16.6008 67.4432 16.6008H64.7016V17.5372H68.8988C69.2876 17.5372 69.6066 17.8594 69.6066 18.252C69.6066 18.6447 69.2876 18.9669 68.8988 18.9669H58.8895C58.5007 18.9669 58.1816 18.6447 58.1816 18.252M66.2768 23.397V21.4236H60.6142C60.2154 21.4236 59.8964 21.1014 59.8964 20.6987C59.8964 20.2959 60.2154 19.9838 60.6142 19.9838H67.3037C67.7224 19.9838 67.8919 20.1046 67.8919 20.5476V23.397C67.8919 24.4341 66.2768 24.4341 66.2768 23.397ZM66.4164 15.161V14.0132H61.3719V14.6173C61.3719 15.0402 61.5513 15.161 61.9601 15.161H66.4264H66.4164Z" fill="white"/>
<path d="M80.1241 18.413C78.858 18.8661 78.5888 17.2853 79.516 16.943C82.3572 15.8657 83.3043 13.9124 83.5436 12.8149C83.5735 12.6538 83.5635 12.5028 83.3243 12.5028H80.3135C79.8848 12.5028 79.5359 12.1504 79.5359 11.7174C79.5359 11.2845 79.8848 10.9321 80.3135 10.9321H84.1717C85.358 10.9321 85.6771 11.6671 85.4677 12.6236C85.0689 14.4561 83.8327 17.1142 80.1341 18.413M86.0659 24.6555C84.0122 24.6555 82.5267 23.2257 82.5267 21.3731C82.5267 19.5205 84.0122 18.121 86.0659 18.121C88.1196 18.121 89.605 19.5306 89.605 21.3731C89.605 23.2157 88.1395 24.6555 86.0659 24.6555ZM86.0659 19.6313C85.059 19.6313 84.2415 20.3361 84.2415 21.3731C84.2415 22.4807 85.059 23.1452 86.0659 23.1452C87.0728 23.1452 87.8504 22.4807 87.8504 21.3731C87.8504 20.3562 87.0329 19.6313 86.0659 19.6313ZM88.0996 17.6377V16.3288H86.3051C85.8765 16.3288 85.5275 15.9764 85.5275 15.5435C85.5275 15.1105 85.8765 14.7581 86.3051 14.7581H88.0996V13.6506H86.5643C86.1357 13.6506 85.7867 13.2982 85.7867 12.8653C85.7867 12.4323 86.1357 12.0799 86.5643 12.0799H88.0996V11.4557C88.0996 10.9623 88.4984 10.5596 88.9869 10.5596C89.4754 10.5596 89.8742 10.9623 89.8742 11.4557V17.6478C89.8742 18.7855 88.1096 18.7855 88.1096 17.6478" fill="#009344"/>
<path d="M100.083 23.6788V21.5342H94.0717C93.643 21.5342 93.2941 21.1818 93.2941 20.7489C93.2941 20.3159 93.643 19.9635 94.0717 19.9635H96.6737V18.715H92.347C91.9183 18.715 91.5693 18.3626 91.5693 17.9297C91.5693 17.4967 91.9183 17.1444 92.347 17.1444H102.805C103.234 17.1444 103.583 17.4967 103.583 17.9297C103.583 18.3626 103.234 18.715 102.805 18.715H98.4183V19.9635H101.2C101.658 19.9635 101.838 20.0944 101.838 20.5777V23.6788C101.838 24.8166 100.073 24.8166 100.073 23.6788M95.4375 16.2382C94.1714 16.2382 93.2841 15.4428 93.2841 14.154V11.3751C93.2841 10.8817 93.6829 10.479 94.1714 10.479C94.6599 10.479 95.0586 10.8817 95.0586 11.3751V11.8282H100.083V11.3751C100.083 10.8817 100.482 10.479 100.971 10.479C101.459 10.479 101.858 10.8817 101.858 11.3751V15.4528C101.858 15.8858 101.509 16.2382 101.08 16.2382H95.4574H95.4375ZM100.073 14.6675V13.4089H95.0487V14.0735C95.0487 14.5366 94.9589 14.6776 95.3976 14.6776H100.073V14.6675Z" fill="#009344"/>
<path d="M106.344 22.2087C105.606 22.2087 105.008 21.6247 105.008 20.8897C105.008 20.1547 105.606 19.5808 106.344 19.5808C107.082 19.5808 107.67 20.1345 107.67 20.8897C107.67 21.6448 107.072 22.2087 106.344 22.2087ZM105.487 18.141V11.2139C105.487 10.7306 105.876 10.3379 106.354 10.3379C106.833 10.3379 107.222 10.7306 107.222 11.2139V18.141C107.222 19.1579 105.487 19.1579 105.487 18.141Z" fill="#009344"/>
<path d="M4.47645 14.7078C5.21419 16.1878 6.0915 17.2954 6.91896 18.0102C7.73645 18.715 6.66972 20.0038 5.81235 19.1983C4.99486 18.4633 4.28703 17.5974 3.67889 16.6409C3.10067 17.7686 2.34299 18.7956 1.43577 19.5507C0.488678 20.326 -0.538174 19.2285 0.329167 18.3928C2.18348 16.6611 3.0907 14.0231 3.32 11.7073C3.35987 11.2442 3.74868 10.8918 4.20727 10.8918C4.73565 10.8918 5.15437 11.355 5.09455 11.8886C4.99486 12.7947 4.7855 13.7613 4.46648 14.7078M7.59688 20.185V11.5664C7.59688 11.0831 7.98569 10.6904 8.46422 10.6904C8.94275 10.6904 9.33156 11.0831 9.33156 11.5664V14.3956H10.6076V11.5664C10.6076 11.0831 10.9965 10.6904 11.475 10.6904C11.9535 10.6904 12.3423 11.0831 12.3423 11.5664V20.326C12.3423 21.4436 10.6076 21.4436 10.6076 20.326V15.9361H9.33156V20.185C9.33156 21.3026 7.59688 21.3026 7.59688 20.185Z" fill="#2786C7"/>
<path d="M17.1274 19.9637C15.612 19.9637 14.4556 18.9468 14.4556 17.4063V11.8586C14.4556 11.3753 14.8444 10.9826 15.3229 10.9826C15.8014 10.9826 16.1902 11.3753 16.1902 11.8586V13.9528H19.3605V11.8586C19.3605 11.3753 19.7493 10.9826 20.2279 10.9826C20.7064 10.9826 21.0952 11.3753 21.0952 11.8586V19.1884C21.0952 19.6113 20.7562 19.9637 20.3276 19.9637H17.1373H17.1274ZM19.3506 18.4232V15.5034H16.1803V17.2553C16.1803 18.1413 16.7186 18.4333 17.257 18.4333H19.3506V18.4232ZM22.8099 20.3362V11.5766C22.8099 11.0934 23.1988 10.7007 23.6773 10.7007C24.1558 10.7007 24.5446 11.0934 24.5446 11.5766V14.5368H25.6911C26.1098 14.5368 26.4588 14.8791 26.4588 15.302C26.4588 15.7249 26.1198 16.0773 25.6911 16.0773H24.5446V20.3362C24.5446 21.4538 22.8099 21.4538 22.8099 20.3362Z" fill="#2786C7"/>
<path d="M29.5893 17.7689C28.4528 17.7689 27.5356 17.0641 27.5356 15.7854V14.2047C27.5356 13.7818 27.8746 13.4294 28.3033 13.4294H32.2911V12.3118H28.2933C27.8746 12.3118 27.5356 11.9695 27.5356 11.5466C27.5356 11.1237 27.8746 10.7814 28.2933 10.7814H33.2581C33.6768 10.7814 34.0257 11.1237 34.0257 11.5567V14.1946C34.0257 14.6175 33.6868 14.9699 33.2581 14.9699H29.2703V15.5438C29.2703 16.0271 29.4498 16.2184 29.8486 16.2184H33.7665C34.1853 16.2184 34.5342 16.5607 34.5342 16.9936C34.5342 17.4266 34.1952 17.7689 33.7665 17.7689H29.5893ZM32.5503 26.0553C31.1246 26.0553 29.9084 24.988 29.9084 23.5583V19.8028C29.9084 19.3799 30.2473 19.0275 30.676 19.0275H36.8571C37.2758 19.0275 37.6247 19.3698 37.6247 19.8028V25.28C37.6247 25.7029 37.2857 26.0553 36.8571 26.0553H32.5602H32.5503ZM35.8801 20.568H31.6331V23.4576C31.6331 24.3134 32.1714 24.5148 32.64 24.5148H35.89V20.568H35.8801ZM35.89 17.4266V11.4258C35.89 10.9425 36.2788 10.5498 36.7574 10.5498C37.2359 10.5498 37.6247 10.9425 37.6247 11.4258V13.2582H38.6914C39.1102 13.2582 39.4591 13.6006 39.4591 14.0335C39.4591 14.4665 39.1201 14.7987 38.6914 14.7987H37.6247V17.4266C37.6247 18.5442 35.89 18.5442 35.89 17.4266Z" fill="#2786C7"/>
</svg>
