<?xml version="1.0" encoding="utf-8"?>
<!-- Generator: Adobe Illustrator 15.0.0, SVG Export Plug-In . SVG Version: 6.00 Build 0)  -->
<!DOCTYPE svg PUBLIC "-//W3C//DTD SVG 1.1 Tiny//EN" "http://www.w3.org/Graphics/SVG/1.1/DTD/svg11-tiny.dtd">
<svg version="1.1" baseProfile="tiny" id="Layer_1" xmlns="http://www.w3.org/2000/svg" xmlns:xlink="http://www.w3.org/1999/xlink"
	 x="0px" y="0px" width="98px" height="16px" viewBox="0 0 98 16" xml:space="preserve">
<path fill="#FFFFFF" d="M3.523,8c0,0.658,0.137,1.277,0.412,1.857c0.275,0.581,0.65,1.087,1.125,1.521
	c0.475,0.435,1.031,0.777,1.669,1.028s1.32,0.376,2.045,0.376h6.116c0.475,0,0.885-0.156,1.23-0.468
	c0.346-0.312,0.52-0.689,0.52-1.129c0-0.441-0.173-0.818-0.52-1.13c-0.346-0.313-0.757-0.468-1.232-0.468h-1.589
	c-0.971,0-1.8-0.312-2.49-0.937c-0.688-0.624-1.033-1.377-1.033-2.26h5.112c1.446,0,2.687,0.469,3.722,1.405
	c1.035,0.936,1.552,2.066,1.552,3.389c0,1.323-0.517,2.453-1.552,3.389c-1.036,0.936-2.276,1.404-3.722,1.404H8.768
	c-0.808,0-1.585-0.095-2.332-0.285c-0.747-0.189-1.445-0.456-2.092-0.799c-0.649-0.342-1.242-0.756-1.777-1.242
	c-0.537-0.485-0.995-1.022-1.375-1.614c-0.38-0.59-0.673-1.224-0.881-1.902C0.103,9.458,0,8.753,0,8.02
	c0-0.732,0.103-1.44,0.311-2.122c0.208-0.682,0.5-1.32,0.881-1.914S2.03,2.852,2.566,2.366c0.536-0.484,1.128-0.902,1.777-1.251
	c0.647-0.35,1.346-0.62,2.092-0.809c0.747-0.19,1.523-0.285,2.332-0.285h7.872c0.964,0,1.792,0.314,2.484,0.941
	c0.693,0.628,1.039,1.379,1.039,2.254H8.775c-0.726,0-1.408,0.127-2.046,0.382S5.535,4.195,5.06,4.626
	C4.585,5.057,4.21,5.562,3.935,6.143C3.661,6.723,3.523,7.342,3.523,8"/>
<path fill="#FFFFFF" d="M27.525,6.392h10.316c0.476,0,0.881-0.156,1.217-0.468c0.336-0.312,0.504-0.686,0.504-1.12
	c0-0.428-0.168-0.803-0.504-1.125c-0.336-0.322-0.742-0.483-1.217-0.483H26.476v11.186c0,0.448-0.171,0.826-0.514,1.135
	c-0.343,0.309-0.758,0.463-1.247,0.463s-0.905-0.154-1.248-0.463c-0.343-0.309-0.515-0.687-0.515-1.135V3.196
	c0-0.875,0.343-1.626,1.028-2.254C24.667,0.314,25.499,0,26.476,0h11.365c1.446,0,2.682,0.467,3.707,1.399
	c1.025,0.933,1.538,2.055,1.538,3.364c0,1.316-0.512,2.439-1.538,3.369c-0.692,0.631-1.483,1.059-2.372,1.283l3.563,3.959
	c0.265,0.292,0.397,0.628,0.397,1.008c0,0.448-0.175,0.826-0.525,1.135c-0.35,0.309-0.762,0.463-1.237,0.463
	c-0.55,0-1.004-0.197-1.365-0.59l-5.183-5.801h-3.779c-0.97,0-1.8-0.312-2.49-0.937C27.87,8.027,27.525,7.274,27.525,6.392"/>
<path fill="#FFFFFF" d="M47.688,0c0.489,0,0.905,0.156,1.248,0.468c0.342,0.312,0.514,0.689,0.514,1.13v12.784
	c0,0.448-0.172,0.826-0.514,1.135s-0.758,0.463-1.248,0.463s-0.904-0.154-1.248-0.463c-0.342-0.309-0.514-0.687-0.514-1.135V1.598
	c0-0.441,0.172-0.818,0.514-1.13C46.784,0.156,47.199,0,47.688,0"/>
<path fill="#FFFFFF" d="M68.931,8c0-0.658-0.138-1.277-0.413-1.857c-0.274-0.581-0.649-1.087-1.125-1.521
	c-0.475-0.435-1.032-0.777-1.67-1.028c-0.637-0.25-1.32-0.376-2.047-0.376h-7.912v11.186c0,0.448-0.172,0.826-0.515,1.135
	C54.905,15.846,54.491,16,54.002,16s-0.905-0.154-1.247-0.463c-0.344-0.309-0.515-0.688-0.515-1.135V3.216
	c0-0.875,0.344-1.626,1.027-2.254c0.688-0.627,1.518-0.941,2.496-0.941h7.917c0.808,0,1.586,0.095,2.333,0.285
	c0.748,0.189,1.445,0.456,2.094,0.799s1.242,0.756,1.778,1.242c0.536,0.485,0.997,1.022,1.376,1.614
	c0.381,0.59,0.675,1.225,0.881,1.902c0.207,0.679,0.311,1.385,0.311,2.118c0,0.732-0.104,1.439-0.312,2.122s-0.501,1.32-0.883,1.914
	c-0.38,0.594-0.842,1.133-1.378,1.619c-0.538,0.485-1.132,0.902-1.78,1.251c-0.649,0.35-1.346,0.62-2.093,0.809
	c-0.746,0.19-1.523,0.285-2.332,0.285h-3.34c-0.971,0-1.801-0.312-2.49-0.937c-0.689-0.624-1.033-1.377-1.033-2.259h6.863
	c0.727,0,1.41-0.127,2.047-0.382c0.638-0.254,1.195-0.597,1.67-1.028c0.476-0.431,0.851-0.936,1.125-1.517
	C68.793,9.277,68.931,8.658,68.931,8"/>
<path fill="#FFFFFF" d="M97.695,13.567L88.509,1.242C87.899,0.414,87.043,0,85.944,0c-1.101,0-1.96,0.411-2.577,1.231l-9.206,12.336
	c-0.203,0.271-0.306,0.563-0.306,0.875c0,0.428,0.164,0.791,0.493,1.089c0.33,0.298,0.732,0.448,1.207,0.448
	c0.604,0,1.073-0.23,1.406-0.692l1.722-2.286l3.721-4.991l3.529-4.743l4.361,5.838l0.004,0.003l0.35,0.469h-0.002l2.29,3.074h0.003
	l0.168,0.229l0.001,0l1.775,2.406c0.334,0.461,0.809,0.692,1.426,0.692c0.461,0,0.859-0.149,1.192-0.448
	C97.834,15.233,98,14.87,98,14.442C98,14.131,97.898,13.839,97.695,13.567"/>
<path fill="#FFFFFF" d="M88.197,12.43c0,1.312-1.063,2.375-2.375,2.375c-1.313,0-2.377-1.063-2.377-2.375
	c0-1.312,1.063-2.375,2.377-2.375C87.134,10.055,88.197,11.118,88.197,12.43"/>
</svg>
